G04 #@! TF.FileFunction,Paste,Top*
%FSLAX46Y46*%
G04 Gerber Fmt 4.6, Leading zero omitted, Abs format (unit mm)*
G04 Created by KiCad (PCBNEW 4.0.7) date 05/23/18 21:21:20*
%MOMM*%
%LPD*%
G01*
G04 APERTURE LIST*
%ADD10C,0.100000*%
%ADD11R,0.800000X0.650000*%
%ADD12R,0.800000X0.400000*%
%ADD13R,3.600000X1.800000*%
%ADD14R,1.300000X1.800000*%
%ADD15R,1.300000X1.700000*%
%ADD16R,0.160000X1.110000*%
%ADD17R,2.300000X1.000000*%
%ADD18R,1.000000X1.600000*%
%ADD19R,1.100000X0.800000*%
%ADD20R,1.800000X1.100000*%
%ADD21R,1.200000X2.100000*%
%ADD22R,1.030000X0.430000*%
%ADD23R,1.000000X0.900000*%
%ADD24R,0.900000X1.000000*%
%ADD25R,1.200000X1.350000*%
%ADD26R,1.350000X1.200000*%
G04 APERTURE END LIST*
D10*
D11*
X86075000Y-84825000D03*
D12*
X86075000Y-83900000D03*
X86075000Y-83100000D03*
D11*
X86075000Y-82175000D03*
X84425000Y-82175000D03*
D12*
X84425000Y-83100000D03*
X84425000Y-83900000D03*
D11*
X84425000Y-84825000D03*
X107575000Y-70075000D03*
D12*
X107575000Y-71000000D03*
X107575000Y-71800000D03*
D11*
X107575000Y-72725000D03*
X109225000Y-72725000D03*
D12*
X109225000Y-71800000D03*
X109225000Y-71000000D03*
D11*
X109225000Y-70075000D03*
D13*
X74100000Y-70250000D03*
D14*
X74100000Y-63950000D03*
X71800000Y-63950000D03*
X76400000Y-63950000D03*
D15*
X77000000Y-91950000D03*
D16*
X75350000Y-89250000D03*
X74700000Y-89250000D03*
X77300000Y-89250000D03*
X76650000Y-89250000D03*
X76000000Y-89250000D03*
D15*
X75000000Y-91950000D03*
D17*
X92400000Y-52500000D03*
X92400000Y-54500000D03*
X92400000Y-56500000D03*
X92400000Y-58500000D03*
X92400000Y-60500000D03*
X92400000Y-62500000D03*
X92400000Y-64500000D03*
X92400000Y-66500000D03*
D18*
X95000000Y-68000000D03*
X97000000Y-68000000D03*
X99000000Y-68000000D03*
X101000000Y-68000000D03*
X103000000Y-68000000D03*
X105000000Y-68000000D03*
D17*
X107600000Y-66500000D03*
X107600000Y-64500000D03*
X107600000Y-62500000D03*
X107600000Y-60500000D03*
X107600000Y-58500000D03*
X107600000Y-56500000D03*
X107600000Y-54500000D03*
X107600000Y-52500000D03*
D19*
X91300000Y-90550000D03*
X91300000Y-92450000D03*
X93700000Y-91500000D03*
X97800000Y-90550000D03*
X97800000Y-92450000D03*
X100200000Y-91500000D03*
X104300000Y-90550000D03*
X104300000Y-92450000D03*
X106700000Y-91500000D03*
D20*
X102650000Y-74850000D03*
X102650000Y-79350000D03*
X111150000Y-79350000D03*
X111150000Y-74850000D03*
X89200000Y-74850000D03*
X89200000Y-79350000D03*
X97700000Y-79350000D03*
X97700000Y-74850000D03*
D21*
X118000000Y-103500000D03*
D22*
X119550000Y-104500000D03*
X119550000Y-103500000D03*
X119550000Y-102500000D03*
X116450000Y-102500000D03*
X116450000Y-103500000D03*
X116450000Y-104500000D03*
D23*
X93750000Y-70600000D03*
X92050000Y-70600000D03*
X114350000Y-74200000D03*
X116050000Y-74200000D03*
X117150000Y-99800000D03*
X118850000Y-99800000D03*
D24*
X128600000Y-85950000D03*
X128600000Y-84250000D03*
D23*
X126650000Y-55100000D03*
X124950000Y-55100000D03*
X126650000Y-52900000D03*
X124950000Y-52900000D03*
X126650000Y-50700000D03*
X124950000Y-50700000D03*
D24*
X128600000Y-77950000D03*
X128600000Y-76250000D03*
X128600000Y-80250000D03*
X128600000Y-81950000D03*
D25*
X71950000Y-75900000D03*
X73850000Y-75900000D03*
X71150000Y-61400000D03*
X73050000Y-61400000D03*
X78350000Y-75900000D03*
X76450000Y-75900000D03*
X75050000Y-61400000D03*
X76950000Y-61400000D03*
X96150000Y-70800000D03*
X98050000Y-70800000D03*
D26*
X128400000Y-91850000D03*
X128400000Y-89950000D03*
D11*
X81825000Y-56075000D03*
D12*
X81825000Y-55150000D03*
X81825000Y-54350000D03*
D11*
X81825000Y-53425000D03*
X80175000Y-53425000D03*
D12*
X80175000Y-54350000D03*
X80175000Y-55150000D03*
D11*
X80175000Y-56075000D03*
X81825000Y-65575000D03*
D12*
X81825000Y-64650000D03*
X81825000Y-63850000D03*
D11*
X81825000Y-62925000D03*
X80175000Y-62925000D03*
D12*
X80175000Y-63850000D03*
X80175000Y-64650000D03*
D11*
X80175000Y-65575000D03*
X85825000Y-65575000D03*
D12*
X85825000Y-64650000D03*
X85825000Y-63850000D03*
D11*
X85825000Y-62925000D03*
X84175000Y-62925000D03*
D12*
X84175000Y-63850000D03*
X84175000Y-64650000D03*
D11*
X84175000Y-65575000D03*
X82075000Y-84575000D03*
D12*
X82075000Y-83650000D03*
X82075000Y-82850000D03*
D11*
X82075000Y-81925000D03*
X80425000Y-81925000D03*
D12*
X80425000Y-82850000D03*
X80425000Y-83650000D03*
D11*
X80425000Y-84575000D03*
X119575000Y-56075000D03*
D12*
X119575000Y-55150000D03*
X119575000Y-54350000D03*
D11*
X119575000Y-53425000D03*
X117925000Y-53425000D03*
D12*
X117925000Y-54350000D03*
X117925000Y-55150000D03*
D11*
X117925000Y-56075000D03*
X115825000Y-65575000D03*
D12*
X115825000Y-64650000D03*
X115825000Y-63850000D03*
D11*
X115825000Y-62925000D03*
X114175000Y-62925000D03*
D12*
X114175000Y-63850000D03*
X114175000Y-64650000D03*
D11*
X114175000Y-65575000D03*
X119825000Y-65575000D03*
D12*
X119825000Y-64650000D03*
X119825000Y-63850000D03*
D11*
X119825000Y-62925000D03*
X118175000Y-62925000D03*
D12*
X118175000Y-63850000D03*
X118175000Y-64650000D03*
D11*
X118175000Y-65575000D03*
X118175000Y-81925000D03*
D12*
X118175000Y-82850000D03*
X118175000Y-83650000D03*
D11*
X118175000Y-84575000D03*
X119825000Y-84575000D03*
D12*
X119825000Y-83650000D03*
X119825000Y-82850000D03*
D11*
X119825000Y-81925000D03*
X114175000Y-81925000D03*
D12*
X114175000Y-82850000D03*
X114175000Y-83650000D03*
D11*
X114175000Y-84575000D03*
X115825000Y-84575000D03*
D12*
X115825000Y-83650000D03*
X115825000Y-82850000D03*
D11*
X115825000Y-81925000D03*
X86375000Y-53575000D03*
D12*
X86375000Y-54500000D03*
X86375000Y-55300000D03*
D11*
X86375000Y-56225000D03*
X88025000Y-56225000D03*
D12*
X88025000Y-55300000D03*
X88025000Y-54500000D03*
D11*
X88025000Y-53575000D03*
M02*
