G04 #@! TF.FileFunction,Copper,L1,Top,Signal*
%FSLAX46Y46*%
G04 Gerber Fmt 4.6, Leading zero omitted, Abs format (unit mm)*
G04 Created by KiCad (PCBNEW 4.0.7) date 05/23/18 21:21:20*
%MOMM*%
%LPD*%
G01*
G04 APERTURE LIST*
%ADD10C,0.100000*%
%ADD11R,1.000000X0.850000*%
%ADD12R,1.000000X0.600000*%
%ADD13R,1.700000X1.700000*%
%ADD14O,1.700000X1.700000*%
%ADD15R,1.300000X1.000000*%
%ADD16O,1.300000X1.000000*%
%ADD17R,3.500000X3.500000*%
%ADD18R,3.800000X2.000000*%
%ADD19R,1.500000X2.000000*%
%ADD20R,1.500000X1.900000*%
%ADD21C,1.450000*%
%ADD22R,0.400000X1.350000*%
%ADD23O,1.200000X1.900000*%
%ADD24R,1.200000X1.900000*%
%ADD25R,2.500000X1.200000*%
%ADD26R,1.200000X1.800000*%
%ADD27R,1.200000X0.850000*%
%ADD28O,1.200000X0.850000*%
%ADD29R,2.000000X1.300000*%
%ADD30C,1.000000*%
%ADD31C,1.700000*%
%ADD32R,1.600000X2.500000*%
%ADD33R,1.050000X0.450000*%
%ADD34R,1.200000X1.100000*%
%ADD35R,1.100000X1.200000*%
%ADD36R,1.400000X1.550000*%
%ADD37R,1.550000X1.400000*%
%ADD38R,1.070000X1.800000*%
%ADD39O,1.070000X1.800000*%
%ADD40O,1.800000X1.600000*%
%ADD41C,0.700000*%
%ADD42C,0.500000*%
%ADD43C,0.300000*%
%ADD44C,0.200000*%
G04 APERTURE END LIST*
D10*
D11*
X86075000Y-84825000D03*
D12*
X86075000Y-83900000D03*
X86075000Y-83100000D03*
D11*
X86075000Y-82175000D03*
X84425000Y-82175000D03*
D12*
X84425000Y-83100000D03*
X84425000Y-83900000D03*
D11*
X84425000Y-84825000D03*
X107575000Y-70075000D03*
D12*
X107575000Y-71000000D03*
X107575000Y-71800000D03*
D11*
X107575000Y-72725000D03*
X109225000Y-72725000D03*
D12*
X109225000Y-71800000D03*
X109225000Y-71000000D03*
D11*
X109225000Y-70075000D03*
D13*
X92255000Y-83100000D03*
D14*
X94795000Y-83100000D03*
X97335000Y-83100000D03*
X99875000Y-83100000D03*
X102415000Y-83100000D03*
X104955000Y-83100000D03*
X107495000Y-83100000D03*
D15*
X125785000Y-91540000D03*
D16*
X124215000Y-91540000D03*
X125785000Y-90270000D03*
X124215000Y-90270000D03*
X125785000Y-89000000D03*
X124215000Y-89000000D03*
X125785000Y-87730000D03*
X124215000Y-87730000D03*
X125785000Y-86460000D03*
X124215000Y-86460000D03*
D17*
X75850000Y-79700000D03*
X75850000Y-85700000D03*
X71150000Y-82700000D03*
D18*
X74100000Y-70250000D03*
D19*
X74100000Y-63950000D03*
X71800000Y-63950000D03*
X76400000Y-63950000D03*
D20*
X77000000Y-91950000D03*
D21*
X73500000Y-89250000D03*
D22*
X75350000Y-89250000D03*
X74700000Y-89250000D03*
X77300000Y-89250000D03*
X76650000Y-89250000D03*
X76000000Y-89250000D03*
D21*
X78500000Y-89250000D03*
D20*
X75000000Y-91950000D03*
D23*
X72500000Y-91950000D03*
X79500000Y-91950000D03*
D24*
X78900000Y-91950000D03*
X73100000Y-91950000D03*
D25*
X92400000Y-52500000D03*
X92400000Y-54500000D03*
X92400000Y-56500000D03*
X92400000Y-58500000D03*
X92400000Y-60500000D03*
X92400000Y-62500000D03*
X92400000Y-64500000D03*
X92400000Y-66500000D03*
D26*
X95000000Y-68000000D03*
X97000000Y-68000000D03*
X99000000Y-68000000D03*
X101000000Y-68000000D03*
X103000000Y-68000000D03*
X105000000Y-68000000D03*
D25*
X107600000Y-66500000D03*
X107600000Y-64500000D03*
X107600000Y-62500000D03*
X107600000Y-60500000D03*
X107600000Y-58500000D03*
X107600000Y-56500000D03*
X107600000Y-54500000D03*
X107600000Y-52500000D03*
D27*
X128700000Y-57150000D03*
D28*
X128700000Y-55900000D03*
X128700000Y-54650000D03*
X128700000Y-53400000D03*
X128700000Y-52150000D03*
X128700000Y-50900000D03*
X128700000Y-49650000D03*
X128700000Y-48400000D03*
D15*
X91300000Y-90550000D03*
X91300000Y-92450000D03*
X93700000Y-91500000D03*
X97800000Y-90550000D03*
X97800000Y-92450000D03*
X100200000Y-91500000D03*
X104300000Y-90550000D03*
X104300000Y-92450000D03*
X106700000Y-91500000D03*
D29*
X102650000Y-74850000D03*
X102650000Y-79350000D03*
X111150000Y-79350000D03*
X111150000Y-74850000D03*
X89200000Y-74850000D03*
X89200000Y-79350000D03*
X97700000Y-79350000D03*
X97700000Y-74850000D03*
D13*
X121810000Y-92900000D03*
D14*
X119270000Y-92900000D03*
X116730000Y-92900000D03*
X114190000Y-92900000D03*
D30*
X89750000Y-55400000D03*
D31*
X85000000Y-95500000D03*
D30*
X91500000Y-88500000D03*
D31*
X113490000Y-45000000D03*
X116030000Y-45000000D03*
D30*
X98000000Y-88500000D03*
X104500000Y-88500000D03*
X70600000Y-70400000D03*
X70600000Y-73200000D03*
X94000000Y-88500000D03*
X100500000Y-88500000D03*
X107000000Y-88500000D03*
X78300000Y-70600000D03*
D31*
X129000000Y-96000000D03*
D13*
X118570000Y-45000000D03*
D14*
X121110000Y-45000000D03*
X123650000Y-45000000D03*
X126190000Y-45000000D03*
X128730000Y-45000000D03*
D32*
X118000000Y-103500000D03*
D33*
X119550000Y-104500000D03*
X119550000Y-103500000D03*
X119550000Y-102500000D03*
X116450000Y-102500000D03*
X116450000Y-103500000D03*
X116450000Y-104500000D03*
D34*
X93750000Y-70600000D03*
X92050000Y-70600000D03*
X114350000Y-74200000D03*
X116050000Y-74200000D03*
X117150000Y-99800000D03*
X118850000Y-99800000D03*
D35*
X128600000Y-85950000D03*
X128600000Y-84250000D03*
D34*
X126650000Y-55100000D03*
X124950000Y-55100000D03*
X126650000Y-52900000D03*
X124950000Y-52900000D03*
X126650000Y-50700000D03*
X124950000Y-50700000D03*
D35*
X128600000Y-77950000D03*
X128600000Y-76250000D03*
X128600000Y-80250000D03*
X128600000Y-81950000D03*
D13*
X72585000Y-73150000D03*
D14*
X75125000Y-73150000D03*
X77665000Y-73150000D03*
D36*
X71950000Y-75900000D03*
X73850000Y-75900000D03*
X71150000Y-61400000D03*
X73050000Y-61400000D03*
X78350000Y-75900000D03*
X76450000Y-75900000D03*
X75050000Y-61400000D03*
X76950000Y-61400000D03*
X96150000Y-70800000D03*
X98050000Y-70800000D03*
D37*
X128400000Y-91850000D03*
X128400000Y-89950000D03*
D38*
X115095000Y-88000000D03*
D39*
X116365000Y-88000000D03*
X117635000Y-88000000D03*
X118905000Y-88000000D03*
D38*
X115095000Y-78500000D03*
D39*
X116365000Y-78500000D03*
X117635000Y-78500000D03*
X118905000Y-78500000D03*
D38*
X115095000Y-69000000D03*
D39*
X116365000Y-69000000D03*
X117635000Y-69000000D03*
X118905000Y-69000000D03*
D38*
X115095000Y-59500000D03*
D39*
X116365000Y-59500000D03*
X117635000Y-59500000D03*
X118905000Y-59500000D03*
D38*
X115095000Y-50000000D03*
D39*
X116365000Y-50000000D03*
X117635000Y-50000000D03*
X118905000Y-50000000D03*
D38*
X81095000Y-88000000D03*
D39*
X82365000Y-88000000D03*
X83635000Y-88000000D03*
X84905000Y-88000000D03*
D38*
X81095000Y-78500000D03*
D39*
X82365000Y-78500000D03*
X83635000Y-78500000D03*
X84905000Y-78500000D03*
D38*
X81095000Y-69000000D03*
D39*
X82365000Y-69000000D03*
X83635000Y-69000000D03*
X84905000Y-69000000D03*
D38*
X81095000Y-59500000D03*
D39*
X82365000Y-59500000D03*
X83635000Y-59500000D03*
X84905000Y-59500000D03*
D38*
X81095000Y-50000000D03*
D39*
X82365000Y-50000000D03*
X83635000Y-50000000D03*
X84905000Y-50000000D03*
D11*
X81825000Y-56075000D03*
D12*
X81825000Y-55150000D03*
X81825000Y-54350000D03*
D11*
X81825000Y-53425000D03*
X80175000Y-53425000D03*
D12*
X80175000Y-54350000D03*
X80175000Y-55150000D03*
D11*
X80175000Y-56075000D03*
X81825000Y-65575000D03*
D12*
X81825000Y-64650000D03*
X81825000Y-63850000D03*
D11*
X81825000Y-62925000D03*
X80175000Y-62925000D03*
D12*
X80175000Y-63850000D03*
X80175000Y-64650000D03*
D11*
X80175000Y-65575000D03*
X85825000Y-65575000D03*
D12*
X85825000Y-64650000D03*
X85825000Y-63850000D03*
D11*
X85825000Y-62925000D03*
X84175000Y-62925000D03*
D12*
X84175000Y-63850000D03*
X84175000Y-64650000D03*
D11*
X84175000Y-65575000D03*
X82075000Y-84575000D03*
D12*
X82075000Y-83650000D03*
X82075000Y-82850000D03*
D11*
X82075000Y-81925000D03*
X80425000Y-81925000D03*
D12*
X80425000Y-82850000D03*
X80425000Y-83650000D03*
D11*
X80425000Y-84575000D03*
X119575000Y-56075000D03*
D12*
X119575000Y-55150000D03*
X119575000Y-54350000D03*
D11*
X119575000Y-53425000D03*
X117925000Y-53425000D03*
D12*
X117925000Y-54350000D03*
X117925000Y-55150000D03*
D11*
X117925000Y-56075000D03*
X115825000Y-65575000D03*
D12*
X115825000Y-64650000D03*
X115825000Y-63850000D03*
D11*
X115825000Y-62925000D03*
X114175000Y-62925000D03*
D12*
X114175000Y-63850000D03*
X114175000Y-64650000D03*
D11*
X114175000Y-65575000D03*
X119825000Y-65575000D03*
D12*
X119825000Y-64650000D03*
X119825000Y-63850000D03*
D11*
X119825000Y-62925000D03*
X118175000Y-62925000D03*
D12*
X118175000Y-63850000D03*
X118175000Y-64650000D03*
D11*
X118175000Y-65575000D03*
X118175000Y-81925000D03*
D12*
X118175000Y-82850000D03*
X118175000Y-83650000D03*
D11*
X118175000Y-84575000D03*
X119825000Y-84575000D03*
D12*
X119825000Y-83650000D03*
X119825000Y-82850000D03*
D11*
X119825000Y-81925000D03*
X114175000Y-81925000D03*
D12*
X114175000Y-82850000D03*
X114175000Y-83650000D03*
D11*
X114175000Y-84575000D03*
X115825000Y-84575000D03*
D12*
X115825000Y-83650000D03*
X115825000Y-82850000D03*
D11*
X115825000Y-81925000D03*
X86375000Y-53575000D03*
D12*
X86375000Y-54500000D03*
X86375000Y-55300000D03*
D11*
X86375000Y-56225000D03*
X88025000Y-56225000D03*
D12*
X88025000Y-55300000D03*
X88025000Y-54500000D03*
D11*
X88025000Y-53575000D03*
D40*
X127500000Y-72000000D03*
X127500000Y-69500000D03*
X127500000Y-67000000D03*
X127500000Y-64500000D03*
X127500000Y-62000000D03*
D41*
X92083309Y-69216691D03*
X98100000Y-72400000D03*
X89200000Y-78099999D03*
X106100000Y-72700000D03*
X89900000Y-92400000D03*
X96400000Y-92500000D03*
X102900000Y-92500000D03*
X102700004Y-80600000D03*
X121300000Y-90900000D03*
X105500000Y-71250010D03*
X77000000Y-59800000D03*
X73000000Y-59900000D03*
X84900010Y-56000000D03*
X117500000Y-74200000D03*
X109500000Y-66500000D03*
X109500000Y-79400000D03*
X126910000Y-59500000D03*
X90500000Y-87499999D03*
X106300000Y-80500000D03*
X121500000Y-70600000D03*
X124700000Y-59500000D03*
X121358104Y-60942430D03*
X116700000Y-90700000D03*
X124907875Y-79861653D03*
X92700000Y-85300000D03*
X84599935Y-73600000D03*
X87839991Y-73500000D03*
X109500000Y-89100000D03*
X118100000Y-91599999D03*
X105300720Y-73781978D03*
X98699998Y-61700000D03*
X98700000Y-59799978D03*
X103300000Y-71200000D03*
X121700008Y-77200000D03*
X126600000Y-77200000D03*
X120300000Y-47800000D03*
X113300020Y-71200000D03*
X110909627Y-70309627D03*
X115200000Y-98500000D03*
X121300000Y-57200018D03*
X125000000Y-57000000D03*
X121300000Y-56200000D03*
X124200045Y-56400000D03*
X94000000Y-85000000D03*
X88900000Y-69300000D03*
X90400000Y-64400000D03*
X83300000Y-84600000D03*
X89200000Y-85200000D03*
X123200000Y-82300000D03*
X122490373Y-65890373D03*
X117000000Y-65700000D03*
X88300000Y-65500000D03*
X83000000Y-65400000D03*
X117000000Y-82099997D03*
X99993938Y-76939990D03*
X98400000Y-85100000D03*
X100000000Y-79200000D03*
X89350021Y-83100000D03*
X122200000Y-84400000D03*
X110800000Y-81100000D03*
X123300000Y-63700000D03*
X117000000Y-63700000D03*
X88950021Y-63403706D03*
X100400000Y-86700000D03*
X83250000Y-82500000D03*
X83000000Y-63549997D03*
X117000000Y-83900000D03*
X110900000Y-72800000D03*
X112000000Y-58300000D03*
X110700000Y-56800000D03*
X111900000Y-71700000D03*
X112900000Y-80300000D03*
X89100000Y-84200000D03*
X122900000Y-83400000D03*
X122800000Y-64600000D03*
X117000000Y-64700000D03*
X83168664Y-83531336D03*
X88550010Y-64302334D03*
X83000000Y-64450000D03*
X117000000Y-83000000D03*
X110899998Y-71400000D03*
X110249968Y-68549990D03*
X114000000Y-56600004D03*
X114000000Y-54800000D03*
X120800000Y-98400000D03*
X113600000Y-50400000D03*
X95700006Y-77400000D03*
X95700000Y-75300000D03*
X98700000Y-76579979D03*
X125700000Y-74200000D03*
X127600023Y-74200000D03*
D42*
X75850000Y-79700000D02*
X73650000Y-77500000D01*
X73650000Y-77500000D02*
X72400000Y-77500000D01*
X72400000Y-77500000D02*
X71950000Y-77050000D01*
X71950000Y-77050000D02*
X71950000Y-75900000D01*
D43*
X70600000Y-73200000D02*
X72535000Y-73200000D01*
X72535000Y-73200000D02*
X72585000Y-73150000D01*
D42*
X72585000Y-73150000D02*
X72300000Y-73435000D01*
X72300000Y-73435000D02*
X72300000Y-75550000D01*
X72300000Y-75550000D02*
X71950000Y-75900000D01*
D43*
X92050000Y-70600000D02*
X92050000Y-69250000D01*
X92050000Y-69250000D02*
X92083309Y-69216691D01*
X98050000Y-70800000D02*
X98050000Y-72350000D01*
X98050000Y-72350000D02*
X98100000Y-72400000D01*
D44*
X97700000Y-79850000D02*
X97350000Y-79500000D01*
X89600000Y-79500000D02*
X89549999Y-79449999D01*
X97350000Y-79500000D02*
X89600000Y-79500000D01*
X89549999Y-79449999D02*
X89549999Y-78449998D01*
X89549999Y-78449998D02*
X89200000Y-78099999D01*
X89200000Y-78594973D02*
X89200000Y-78099999D01*
X89200000Y-79850000D02*
X89200000Y-78594973D01*
X106125000Y-72725000D02*
X106100000Y-72700000D01*
X107575000Y-72725000D02*
X106125000Y-72725000D01*
X106725000Y-70075000D02*
X105549990Y-71250010D01*
X107575000Y-70075000D02*
X106725000Y-70075000D01*
X105549990Y-71250010D02*
X105500000Y-71250010D01*
D43*
X89950000Y-92450000D02*
X89900000Y-92400000D01*
X91300000Y-92450000D02*
X89950000Y-92450000D01*
X96450000Y-92450000D02*
X96400000Y-92500000D01*
X97800000Y-92450000D02*
X96450000Y-92450000D01*
X104300000Y-92450000D02*
X102950000Y-92450000D01*
X102950000Y-92450000D02*
X102900000Y-92500000D01*
D44*
X102650000Y-80549996D02*
X102700004Y-80600000D01*
X102650000Y-79350000D02*
X102650000Y-80549996D01*
X118850000Y-99800000D02*
X118400000Y-99350000D01*
X118400000Y-99350000D02*
X118400000Y-98400000D01*
X118200000Y-98200000D02*
X118200000Y-93970000D01*
X118400000Y-98400000D02*
X118200000Y-98200000D01*
X118200000Y-93970000D02*
X119270000Y-92900000D01*
X119550000Y-103500000D02*
X120375001Y-103500000D01*
X120375001Y-103500000D02*
X120375001Y-102075001D01*
X120375001Y-102075001D02*
X118850000Y-100550000D01*
X118850000Y-100550000D02*
X118850000Y-99800000D01*
D42*
X121270000Y-90900000D02*
X121300000Y-90900000D01*
X119270000Y-92900000D02*
X121270000Y-90900000D01*
D43*
X77300000Y-87150000D02*
X75850000Y-85700000D01*
D42*
X73850000Y-75900000D02*
X75200000Y-75900000D01*
X75200000Y-75900000D02*
X76450000Y-75900000D01*
X75125000Y-75825000D02*
X75200000Y-75900000D01*
D44*
X77000000Y-91950000D02*
X75000000Y-91950000D01*
D43*
X76950000Y-59850000D02*
X77000000Y-59800000D01*
X76600000Y-63750000D02*
X76600000Y-61750000D01*
X76600000Y-61750000D02*
X76950000Y-61400000D01*
X73050000Y-61400000D02*
X73050000Y-59950000D01*
D44*
X86375000Y-56225000D02*
X85125010Y-56225000D01*
X85125010Y-56225000D02*
X84900010Y-56000000D01*
D43*
X128080000Y-90270000D02*
X128400000Y-89950000D01*
D42*
X75125000Y-73150000D02*
X75125000Y-75825000D01*
D43*
X107600000Y-66500000D02*
X109500000Y-66500000D01*
X125635000Y-90270000D02*
X128080000Y-90270000D01*
D44*
X77000000Y-91950000D02*
X78900000Y-91950000D01*
D43*
X73050000Y-59950000D02*
X73000000Y-59900000D01*
D44*
X75000000Y-91950000D02*
X73100000Y-91950000D01*
D43*
X76400000Y-63950000D02*
X76600000Y-63750000D01*
D44*
X116050000Y-74200000D02*
X117500000Y-74200000D01*
X111150000Y-79350000D02*
X109550000Y-79350000D01*
D43*
X76950000Y-61400000D02*
X76950000Y-59850000D01*
D44*
X109550000Y-79350000D02*
X109500000Y-79400000D01*
D43*
X77300000Y-89250000D02*
X77300000Y-87150000D01*
D42*
X128900000Y-63200000D02*
X128900000Y-59600000D01*
X128900000Y-59600000D02*
X128900000Y-57200000D01*
X126910000Y-59500000D02*
X128800000Y-59500000D01*
X128800000Y-59500000D02*
X128900000Y-59600000D01*
X127500000Y-64500000D02*
X127600000Y-64500000D01*
X127600000Y-64500000D02*
X128900000Y-63200000D01*
X128850000Y-57150000D02*
X128700000Y-57150000D01*
X128900000Y-57200000D02*
X128850000Y-57150000D01*
X82365000Y-50000000D02*
X82365000Y-48765000D01*
X82365000Y-48765000D02*
X82100000Y-48500000D01*
X82100000Y-48500000D02*
X80349998Y-48500000D01*
X80349998Y-48500000D02*
X77749967Y-51100031D01*
X77749967Y-51100031D02*
X77749967Y-57624998D01*
X77749967Y-57624998D02*
X78024969Y-57900000D01*
X82300000Y-75900000D02*
X83800000Y-75900000D01*
X82365000Y-69565000D02*
X82365000Y-69000000D01*
X85399945Y-72599945D02*
X82365000Y-69565000D01*
X85399945Y-74300055D02*
X85399945Y-72599945D01*
X83800000Y-75900000D02*
X85399945Y-74300055D01*
X78100000Y-82400000D02*
X78100000Y-76400000D01*
X78100000Y-76400000D02*
X78350000Y-76150000D01*
X78350000Y-76150000D02*
X78350000Y-75900000D01*
X82365000Y-78500000D02*
X82365000Y-75965000D01*
X82365000Y-75965000D02*
X82300000Y-75900000D01*
X82300000Y-75900000D02*
X78350000Y-75900000D01*
X71150000Y-61400000D02*
X71150000Y-59950000D01*
X71150000Y-59950000D02*
X72100000Y-59000000D01*
X72100000Y-59000000D02*
X76924969Y-59000000D01*
X76924969Y-59000000D02*
X78024969Y-57900000D01*
X78024969Y-57900000D02*
X81700000Y-57900000D01*
X82365000Y-58565000D02*
X82365000Y-59500000D01*
X81700000Y-57900000D02*
X82365000Y-58565000D01*
X77665000Y-73150000D02*
X76315000Y-71800000D01*
X76315000Y-71800000D02*
X71900000Y-71800000D01*
X70450000Y-70350000D02*
X71800000Y-69000000D01*
X71900000Y-71800000D02*
X70450000Y-70350000D01*
X71800000Y-69000000D02*
X71800000Y-63950000D01*
X73500000Y-87500000D02*
X73500000Y-83600000D01*
X73500000Y-83600000D02*
X74700000Y-82400000D01*
X74700000Y-82400000D02*
X78100000Y-82400000D01*
X78100000Y-82400000D02*
X78100000Y-86800000D01*
X78100000Y-86800000D02*
X79900000Y-88600000D01*
X79900000Y-88600000D02*
X79900000Y-89200000D01*
X79900000Y-89200000D02*
X80200000Y-89500000D01*
X80200000Y-89500000D02*
X82400000Y-89500000D01*
X82400000Y-89500000D02*
X82365000Y-89465000D01*
X82365000Y-89465000D02*
X82365000Y-88000000D01*
D43*
X74700000Y-89250000D02*
X74700000Y-88700000D01*
X74700000Y-88700000D02*
X73500000Y-87500000D01*
D42*
X82365000Y-88000000D02*
X82365000Y-89500000D01*
X88499999Y-89500000D02*
X90150001Y-87849998D01*
X82365000Y-89500000D02*
X88499999Y-89500000D01*
X90150001Y-87849998D02*
X90500000Y-87499999D01*
X125100023Y-80548775D02*
X124907875Y-80356627D01*
X125100023Y-83583981D02*
X125100023Y-80548775D01*
X122900000Y-89200000D02*
X122900000Y-85784004D01*
X122900000Y-85784004D02*
X125100023Y-83583981D01*
X124907875Y-80356627D02*
X124907875Y-79861653D01*
X109650001Y-77149999D02*
X106649999Y-80150001D01*
X116365000Y-77524998D02*
X115990001Y-77149999D01*
X116365000Y-78500000D02*
X116365000Y-77524998D01*
X115990001Y-77149999D02*
X109650001Y-77149999D01*
X106649999Y-80150001D02*
X106300000Y-80500000D01*
X122900000Y-89200000D02*
X122900000Y-90100000D01*
X122900000Y-90100000D02*
X120900000Y-90100000D01*
X120900000Y-90100000D02*
X120300000Y-90700000D01*
X120300000Y-90700000D02*
X117194974Y-90700000D01*
X117194974Y-90700000D02*
X116700000Y-90700000D01*
X124557876Y-62057876D02*
X124557876Y-70500000D01*
X124557876Y-70500000D02*
X124557876Y-79511654D01*
X121500000Y-70600000D02*
X124457876Y-70600000D01*
X124457876Y-70600000D02*
X124557876Y-70500000D01*
X123400001Y-60900001D02*
X124557876Y-62057876D01*
X124557876Y-79511654D02*
X124907875Y-79861653D01*
X121358104Y-60942430D02*
X121853078Y-60942430D01*
X121853078Y-60942430D02*
X121895507Y-60900001D01*
X121895507Y-60900001D02*
X123400001Y-60900001D01*
X123400001Y-60900001D02*
X123400001Y-59500000D01*
X123400001Y-59500000D02*
X123400001Y-58900000D01*
X124700000Y-59500000D02*
X123400001Y-59500000D01*
X116365000Y-49511986D02*
X117226996Y-48649990D01*
X119313004Y-48649990D02*
X123400035Y-52737021D01*
X123400035Y-57399966D02*
X123400001Y-57400000D01*
X116365000Y-50000000D02*
X116365000Y-49511986D01*
X117226996Y-48649990D02*
X119313004Y-48649990D01*
X123400035Y-52737021D02*
X123400035Y-57399966D01*
X123400001Y-58900000D02*
X123400001Y-58900533D01*
X123400001Y-57400000D02*
X123400001Y-58900000D01*
X77665000Y-73150000D02*
X78000000Y-73485000D01*
X78000000Y-73485000D02*
X78000000Y-75550000D01*
X78000000Y-75550000D02*
X78350000Y-75900000D01*
X104955000Y-83100000D02*
X102155000Y-85900000D01*
X102155000Y-85900000D02*
X93300000Y-85900000D01*
X93300000Y-85900000D02*
X92700000Y-85300000D01*
D43*
X71150000Y-61400000D02*
X71400000Y-61650000D01*
X71400000Y-61650000D02*
X71400000Y-63550000D01*
X71400000Y-63550000D02*
X71800000Y-63950000D01*
D42*
X128730000Y-45000000D02*
X128730000Y-46202081D01*
X128730000Y-46202081D02*
X129800000Y-47272081D01*
X129800000Y-47272081D02*
X129800000Y-56225000D01*
X129800000Y-56225000D02*
X128875000Y-57150000D01*
X128875000Y-57150000D02*
X128700000Y-57150000D01*
X122900000Y-89200000D02*
X122900000Y-90448517D01*
X123400001Y-57400000D02*
X123400001Y-57900000D01*
X122900000Y-90448517D02*
X123991483Y-91540000D01*
X123991483Y-91540000D02*
X124365000Y-91540000D01*
D43*
X124365000Y-91540000D02*
X125635000Y-91540000D01*
X125635000Y-91540000D02*
X128090000Y-91540000D01*
X128090000Y-91540000D02*
X128400000Y-91850000D01*
D44*
X128600000Y-77950000D02*
X129550000Y-77950000D01*
X129700000Y-77800000D02*
X129700000Y-67200000D01*
X129550000Y-77950000D02*
X129700000Y-77800000D01*
X129700000Y-67200000D02*
X128200000Y-65700000D01*
X126700000Y-65700000D02*
X126300000Y-65300000D01*
X128200000Y-65700000D02*
X126700000Y-65700000D01*
X126300000Y-65300000D02*
X126300000Y-57100000D01*
X125300000Y-55200000D02*
X125200000Y-55100000D01*
X126300000Y-57100000D02*
X125300000Y-56100000D01*
X125300000Y-56100000D02*
X125300000Y-55200000D01*
X125200000Y-55100000D02*
X124950000Y-55100000D01*
D42*
X87839991Y-73500000D02*
X87839991Y-73560009D01*
X87700000Y-75800000D02*
X88500000Y-76600000D01*
X87839991Y-73560009D02*
X87700000Y-73700000D01*
X87700000Y-73700000D02*
X87700000Y-75800000D01*
X88500000Y-76600000D02*
X96124802Y-76600000D01*
X96124802Y-76600000D02*
X97224802Y-77700000D01*
X97224802Y-77700000D02*
X101000000Y-77700000D01*
D43*
X92400000Y-66500000D02*
X92700000Y-66800000D01*
X92700000Y-66800000D02*
X93100000Y-66800000D01*
X93100000Y-66800000D02*
X93100000Y-68900000D01*
X93100000Y-68900000D02*
X93400000Y-69200000D01*
X93400000Y-69200000D02*
X93400000Y-70250000D01*
X93400000Y-70250000D02*
X93750000Y-70600000D01*
X93750000Y-70600000D02*
X95950000Y-70600000D01*
X95950000Y-70600000D02*
X96150000Y-70800000D01*
D42*
X101000000Y-77700000D02*
X102588736Y-77700000D01*
D44*
X100900000Y-73700000D02*
X100900000Y-77600000D01*
X100900000Y-77600000D02*
X101000000Y-77700000D01*
D42*
X108019014Y-81700012D02*
X109500000Y-83180998D01*
X104600000Y-80539835D02*
X105760177Y-81700012D01*
X102588736Y-77700000D02*
X103138735Y-78249999D01*
X103138735Y-78249999D02*
X104149999Y-78249999D01*
X104149999Y-78249999D02*
X104600000Y-78700000D01*
X109500000Y-83180998D02*
X109500000Y-88605026D01*
X104600000Y-78700000D02*
X104600000Y-80539835D01*
X105760177Y-81700012D02*
X108019014Y-81700012D01*
X109500000Y-88605026D02*
X109500000Y-89100000D01*
D44*
X84900000Y-54900000D02*
X84900000Y-55300000D01*
X85300000Y-54500000D02*
X84900000Y-54900000D01*
X84700000Y-55300000D02*
X84900000Y-55300000D01*
X84900000Y-55300000D02*
X86375000Y-55300000D01*
X86375000Y-54500000D02*
X85300000Y-54500000D01*
X85497100Y-56700000D02*
X89651917Y-60854817D01*
X89651917Y-60854817D02*
X89651917Y-64758515D01*
X89877948Y-65861922D02*
X89877948Y-66356896D01*
X84700000Y-55300000D02*
X84637988Y-55300000D01*
X84637988Y-55300000D02*
X84249990Y-55687998D01*
X84249990Y-55687998D02*
X84249990Y-56311982D01*
X84249990Y-56311982D02*
X84638008Y-56700000D01*
X89877948Y-64984546D02*
X89877948Y-65861922D01*
X84638008Y-56700000D02*
X85497100Y-56700000D01*
X89651917Y-64758515D02*
X89877948Y-64984546D01*
D42*
X84249936Y-73250001D02*
X84599935Y-73600000D01*
X78300000Y-70600000D02*
X81599935Y-70600000D01*
X81599935Y-70600000D02*
X84249936Y-73250001D01*
X87839991Y-73500000D02*
X87839991Y-72960009D01*
X87839991Y-72960009D02*
X89877948Y-70922052D01*
X89877948Y-70922052D02*
X89877948Y-66851870D01*
X89877948Y-66851870D02*
X89877948Y-66356896D01*
X74100000Y-70250000D02*
X74450000Y-70600000D01*
X74450000Y-70600000D02*
X78300000Y-70600000D01*
D44*
X106672296Y-71000000D02*
X105972296Y-71700000D01*
X105972296Y-71700000D02*
X105022309Y-72649987D01*
X107575000Y-71800000D02*
X107475000Y-71900000D01*
X107475000Y-71900000D02*
X106172296Y-71900000D01*
X106172296Y-71900000D02*
X105972296Y-71700000D01*
X104372296Y-73200000D02*
X101400000Y-73200000D01*
X101400000Y-73200000D02*
X100900000Y-73700000D01*
X107575000Y-71000000D02*
X106672296Y-71000000D01*
X105022309Y-72649987D02*
X104922309Y-72649987D01*
X104922309Y-72649987D02*
X104372296Y-73200000D01*
X118100000Y-91599999D02*
X118100000Y-93504300D01*
X118100000Y-93504300D02*
X117700000Y-93904300D01*
X117700000Y-93904300D02*
X117700000Y-98200000D01*
X117700000Y-98200000D02*
X117500000Y-98400000D01*
X117500000Y-98400000D02*
X117500000Y-99450000D01*
X117500000Y-99450000D02*
X117150000Y-99800000D01*
X128600000Y-80250000D02*
X129350000Y-80250000D01*
X129350000Y-80250000D02*
X129900000Y-80800000D01*
X129400000Y-93100000D02*
X122200000Y-93100000D01*
X129900000Y-80800000D02*
X129900000Y-92600000D01*
X129900000Y-92600000D02*
X129400000Y-93100000D01*
X122200000Y-93100000D02*
X122000000Y-92900000D01*
X122000000Y-92900000D02*
X121810000Y-92900000D01*
X116450000Y-103500000D02*
X115725000Y-103500000D01*
X115725000Y-103500000D02*
X115624999Y-103399999D01*
X115624999Y-103399999D02*
X115624999Y-102075001D01*
X115624999Y-102075001D02*
X117150000Y-100550000D01*
X117150000Y-100550000D02*
X117150000Y-99800000D01*
D42*
X92400000Y-66500000D02*
X90021052Y-66500000D01*
X90021052Y-66500000D02*
X89877948Y-66356896D01*
D43*
X74100000Y-63950000D02*
X74600000Y-63450000D01*
X74600000Y-63450000D02*
X74600000Y-61850000D01*
X74600000Y-61850000D02*
X75050000Y-61400000D01*
D42*
X74100000Y-70250000D02*
X74100000Y-68750000D01*
X74100000Y-68750000D02*
X74100000Y-63950000D01*
D44*
X128600000Y-77950000D02*
X128600000Y-80250000D01*
X124950000Y-55100000D02*
X124950000Y-54350000D01*
X124950000Y-54350000D02*
X124950000Y-52900000D01*
X105300720Y-73781978D02*
X105300720Y-74276952D01*
X105277672Y-74300000D02*
X103200000Y-74300000D01*
X105300720Y-74276952D02*
X105277672Y-74300000D01*
X103200000Y-74300000D02*
X102650000Y-74850000D01*
X105300000Y-74300000D02*
X110600000Y-74300000D01*
X110600000Y-74300000D02*
X111150000Y-74850000D01*
X103300000Y-71200000D02*
X102000000Y-69900000D01*
X102000000Y-65000002D02*
X99049997Y-62049999D01*
X98700000Y-52700000D02*
X98700000Y-59305004D01*
X98700000Y-59305004D02*
X98700000Y-59799978D01*
X98900000Y-52500000D02*
X98700000Y-52700000D01*
X99049997Y-62049999D02*
X98699998Y-61700000D01*
X102000000Y-69900000D02*
X102000000Y-65000002D01*
X88025000Y-54500000D02*
X89300000Y-54500000D01*
X89300000Y-54500000D02*
X90100000Y-53700000D01*
X90100000Y-53700000D02*
X90100000Y-52800000D01*
X90100000Y-52800000D02*
X90400000Y-52500000D01*
X90400000Y-52500000D02*
X90950000Y-52500000D01*
X90950000Y-52500000D02*
X92400000Y-52500000D01*
X114350000Y-74200000D02*
X114350000Y-75050000D01*
X114350000Y-75050000D02*
X114700000Y-75400000D01*
X114700000Y-75400000D02*
X119900008Y-75400000D01*
X119900008Y-75400000D02*
X121700008Y-77200000D01*
X126900000Y-82500000D02*
X126900000Y-77500000D01*
X126900000Y-77500000D02*
X126600000Y-77200000D01*
X128600000Y-84200000D02*
X126900000Y-82500000D01*
X128600000Y-84250000D02*
X128600000Y-84200000D01*
X120649999Y-48149999D02*
X120300000Y-47800000D01*
X123200000Y-50700000D02*
X120649999Y-48149999D01*
X124950000Y-50700000D02*
X123200000Y-50700000D01*
X98900000Y-52500000D02*
X105209998Y-52500000D01*
X105209998Y-52500000D02*
X106209998Y-51500000D01*
X111900000Y-49130000D02*
X116030000Y-45000000D01*
X106209998Y-51500000D02*
X111300000Y-51500000D01*
X111900000Y-50900000D02*
X111900000Y-49130000D01*
X111300000Y-51500000D02*
X111900000Y-50900000D01*
X114350000Y-74200000D02*
X113950000Y-74600000D01*
X113950000Y-74600000D02*
X111400000Y-74600000D01*
X111400000Y-74600000D02*
X111150000Y-74850000D01*
X92400000Y-52500000D02*
X98900000Y-52500000D01*
X107600000Y-52500000D02*
X111000000Y-52500000D01*
X111000000Y-52500000D02*
X112399990Y-51100010D01*
X112399990Y-51100010D02*
X112399990Y-49500010D01*
X112399990Y-49500010D02*
X115300000Y-46600000D01*
X115300000Y-46600000D02*
X119510000Y-46600000D01*
X119510000Y-46600000D02*
X121110000Y-45000000D01*
X107600000Y-54500000D02*
X109700000Y-54500000D01*
X109700000Y-54500000D02*
X112800000Y-51400000D01*
X112800000Y-51400000D02*
X112800000Y-49950000D01*
X112800000Y-49950000D02*
X115650000Y-47100000D01*
X115650000Y-47100000D02*
X121550000Y-47100000D01*
X121550000Y-47100000D02*
X123650000Y-45000000D01*
X107600000Y-62500000D02*
X109500000Y-62500000D01*
X109500000Y-62500000D02*
X110800000Y-63800000D01*
X111299988Y-69625012D02*
X110825000Y-70100000D01*
X110800000Y-63800000D02*
X110800000Y-65197100D01*
X110800000Y-65197100D02*
X111299988Y-65697088D01*
X111299988Y-65697088D02*
X111299988Y-69625012D01*
X122000000Y-78200000D02*
X122350009Y-77849991D01*
X121149987Y-83622309D02*
X122000000Y-82772296D01*
X118800893Y-89649989D02*
X121149987Y-87300895D01*
X113794994Y-71200000D02*
X113300020Y-71200000D01*
X121149987Y-87300895D02*
X121149987Y-83622309D01*
X116222310Y-89649989D02*
X118800893Y-89649989D01*
X122000000Y-82772296D02*
X122000000Y-78200000D01*
X116900000Y-71200000D02*
X113794994Y-71200000D01*
X114190000Y-91682299D02*
X116222310Y-89649989D01*
X114190000Y-92900000D02*
X114190000Y-91682299D01*
X122350009Y-77849991D02*
X122350009Y-76650009D01*
X122350009Y-76650009D02*
X116900000Y-71200000D01*
X110825000Y-70100000D02*
X110825000Y-70375000D01*
X110825000Y-70375000D02*
X110200000Y-71000000D01*
X110200000Y-71000000D02*
X109225000Y-71000000D01*
X110825000Y-70100000D02*
X110825000Y-70225000D01*
X110825000Y-70225000D02*
X110909627Y-70309627D01*
X116450000Y-104500000D02*
X115500000Y-104500000D01*
X115500000Y-104500000D02*
X115200000Y-104200000D01*
X115200000Y-98994974D02*
X115200000Y-98500000D01*
X115200000Y-104200000D02*
X115200000Y-98994974D01*
X127500000Y-72000000D02*
X127500000Y-71700000D01*
X127500000Y-71700000D02*
X128800000Y-70400000D01*
X128800000Y-70400000D02*
X128800000Y-69000000D01*
X128800000Y-69000000D02*
X128100000Y-68300000D01*
X128100000Y-68300000D02*
X126700000Y-68300000D01*
X126700000Y-68300000D02*
X125800000Y-67400000D01*
X125800000Y-67400000D02*
X125800000Y-57800000D01*
X125800000Y-57800000D02*
X125000000Y-57000000D01*
X125635000Y-87730000D02*
X126070000Y-87730000D01*
X125949998Y-76887998D02*
X126700000Y-76137996D01*
X126070000Y-87730000D02*
X126900010Y-86899990D01*
X126450056Y-78012060D02*
X125949998Y-77512002D01*
X126700000Y-76137996D02*
X126700000Y-72900000D01*
X126900010Y-86899990D02*
X126900010Y-85600000D01*
X126450056Y-85150046D02*
X126450056Y-78012060D01*
X126700000Y-72900000D02*
X127500000Y-72100000D01*
X126900010Y-85600000D02*
X126450056Y-85150046D01*
X125949998Y-77512002D02*
X125949998Y-76887998D01*
X127500000Y-72100000D02*
X127500000Y-72000000D01*
X92400000Y-62500000D02*
X95900000Y-62500000D01*
X105300000Y-57500000D02*
X111200000Y-57500000D01*
X95900000Y-62500000D02*
X97499989Y-60900011D01*
X97499989Y-60900011D02*
X101899989Y-60900011D01*
X120950001Y-57550017D02*
X121300000Y-57200018D01*
X101899989Y-60900011D02*
X105300000Y-57500000D01*
X111200000Y-57500000D02*
X112750002Y-55949998D01*
X112750002Y-55949998D02*
X115149998Y-55949998D01*
X115149998Y-55949998D02*
X116750017Y-57550017D01*
X116750017Y-57550017D02*
X120950001Y-57550017D01*
X125635000Y-86460000D02*
X126050045Y-86044955D01*
X125549987Y-77677691D02*
X125549987Y-76722309D01*
X126050045Y-86044955D02*
X126050045Y-78177749D01*
X126050045Y-78177749D02*
X125549987Y-77677691D01*
X125549987Y-76722309D02*
X126310001Y-75962295D01*
X126310001Y-75962295D02*
X126310001Y-70589999D01*
X126310001Y-70589999D02*
X127400000Y-69500000D01*
X127400000Y-69500000D02*
X127500000Y-69500000D01*
X125310001Y-58510001D02*
X125310001Y-67100000D01*
X127260880Y-69500000D02*
X125310001Y-67549121D01*
X127500000Y-69500000D02*
X127260880Y-69500000D01*
X125310001Y-67549121D02*
X125310001Y-67100000D01*
X124200045Y-56400000D02*
X124200045Y-57400045D01*
X124200045Y-57400045D02*
X125310001Y-58510001D01*
X100200000Y-60500000D02*
X105200000Y-55500000D01*
X116949999Y-57049999D02*
X120450001Y-57049999D01*
X105200000Y-55500000D02*
X115400000Y-55500000D01*
X92400000Y-60500000D02*
X100200000Y-60500000D01*
X115400000Y-55500000D02*
X116949999Y-57049999D01*
X120450001Y-57049999D02*
X120950001Y-56549999D01*
X120950001Y-56549999D02*
X121300000Y-56200000D01*
X80175000Y-54350000D02*
X79250000Y-54350000D01*
X79250000Y-54350000D02*
X79100000Y-54200000D01*
X79100000Y-54200000D02*
X79100000Y-53034998D01*
X82970000Y-52300000D02*
X84905000Y-50365000D01*
X79100000Y-53034998D02*
X79834998Y-52300000D01*
X79834998Y-52300000D02*
X82970000Y-52300000D01*
X84905000Y-50365000D02*
X84905000Y-50000000D01*
X80175000Y-55150000D02*
X79250000Y-55150000D01*
X79250000Y-55150000D02*
X78699989Y-54599989D01*
X78699989Y-54599989D02*
X78699989Y-52869309D01*
X78699989Y-52869309D02*
X80369298Y-51200001D01*
X80369298Y-51200001D02*
X82799999Y-51200001D01*
X82799999Y-51200001D02*
X83635000Y-50365000D01*
X83635000Y-50365000D02*
X83635000Y-50000000D01*
X79475000Y-63850000D02*
X80175000Y-63850000D01*
X79100000Y-63475000D02*
X79475000Y-63850000D01*
X84905000Y-59500000D02*
X84905000Y-59865000D01*
X79100000Y-62431400D02*
X79100000Y-63475000D01*
X79531400Y-62000000D02*
X79100000Y-62431400D01*
X84905000Y-59865000D02*
X82770000Y-62000000D01*
X82770000Y-62000000D02*
X79531400Y-62000000D01*
X78699989Y-62265711D02*
X78699989Y-63874989D01*
X79475000Y-64650000D02*
X80175000Y-64650000D01*
X79365711Y-61599989D02*
X78699989Y-62265711D01*
X81900011Y-61599989D02*
X79365711Y-61599989D01*
X78699989Y-63874989D02*
X79475000Y-64650000D01*
X83635000Y-59865000D02*
X81900011Y-61599989D01*
X83635000Y-59500000D02*
X83635000Y-59865000D01*
X85640000Y-69000000D02*
X87500020Y-67139980D01*
X87500020Y-67139980D02*
X87500020Y-64500020D01*
X84905000Y-69000000D02*
X85640000Y-69000000D01*
X87500020Y-64500020D02*
X86850000Y-63850000D01*
X86850000Y-63850000D02*
X85825000Y-63850000D01*
X83635000Y-69000000D02*
X83635000Y-68635000D01*
X83635000Y-68635000D02*
X84769989Y-67500011D01*
X87100011Y-65000011D02*
X86750000Y-64650000D01*
X84769989Y-67500011D02*
X86265689Y-67500011D01*
X86265689Y-67500011D02*
X87100011Y-66665689D01*
X87100011Y-66665689D02*
X87100011Y-65000011D01*
X86750000Y-64650000D02*
X85825000Y-64650000D01*
X82770000Y-81000000D02*
X84905000Y-78865000D01*
X79450033Y-81434965D02*
X79884998Y-81000000D01*
X80425000Y-82850000D02*
X79725000Y-82850000D01*
X79725000Y-82850000D02*
X79450033Y-82575033D01*
X79450033Y-82575033D02*
X79450033Y-81434965D01*
X84905000Y-78865000D02*
X84905000Y-78500000D01*
X79884998Y-81000000D02*
X82770000Y-81000000D01*
X79719309Y-80599989D02*
X79050022Y-81269276D01*
X79050022Y-82975022D02*
X79725000Y-83650000D01*
X81900011Y-80599989D02*
X79719309Y-80599989D01*
X79725000Y-83650000D02*
X80425000Y-83650000D01*
X83635000Y-78865000D02*
X81900011Y-80599989D01*
X83635000Y-78500000D02*
X83635000Y-78865000D01*
X79050022Y-81269276D02*
X79050022Y-82975022D01*
X84905000Y-88000000D02*
X84905000Y-87895000D01*
X87025000Y-83100000D02*
X86075000Y-83100000D01*
X84905000Y-87895000D02*
X85381736Y-87418264D01*
X87900000Y-86200000D02*
X87900000Y-83975000D01*
X85381736Y-87418264D02*
X86681736Y-87418264D01*
X86681736Y-87418264D02*
X87900000Y-86200000D01*
X87900000Y-83975000D02*
X87025000Y-83100000D01*
X86075000Y-83900000D02*
X87100000Y-83900000D01*
X87100000Y-83900000D02*
X87500000Y-84300000D01*
X87500000Y-84300000D02*
X87500000Y-85900000D01*
X87500000Y-85900000D02*
X86600010Y-86799990D01*
X84470010Y-86799990D02*
X83635000Y-87635000D01*
X86600010Y-86799990D02*
X84470010Y-86799990D01*
X83635000Y-87635000D02*
X83635000Y-88000000D01*
X117925000Y-54350000D02*
X116850000Y-54350000D01*
X116850000Y-54350000D02*
X116600000Y-54100000D01*
X116600000Y-54100000D02*
X116600000Y-53000000D01*
X116600000Y-53000000D02*
X118905000Y-50695000D01*
X118905000Y-50695000D02*
X118905000Y-50000000D01*
X117635000Y-50000000D02*
X117635000Y-50665000D01*
X117635000Y-50665000D02*
X116100000Y-52200000D01*
X116100000Y-52200000D02*
X116100000Y-54165700D01*
X116100000Y-54165700D02*
X117084300Y-55150000D01*
X117084300Y-55150000D02*
X117225000Y-55150000D01*
X117225000Y-55150000D02*
X117925000Y-55150000D01*
X118905000Y-59500000D02*
X118905000Y-59895000D01*
X118905000Y-59895000D02*
X116800000Y-62000000D01*
X116800000Y-62000000D02*
X113634998Y-62000000D01*
X113000000Y-63700000D02*
X113150000Y-63850000D01*
X113634998Y-62000000D02*
X113000000Y-62634998D01*
X113000000Y-62634998D02*
X113000000Y-63700000D01*
X113150000Y-63850000D02*
X114175000Y-63850000D01*
X117635000Y-59500000D02*
X117635000Y-59865000D01*
X117635000Y-59865000D02*
X115900011Y-61599989D01*
X115900011Y-61599989D02*
X113469309Y-61599989D01*
X112599989Y-64199989D02*
X113050000Y-64650000D01*
X113469309Y-61599989D02*
X112599989Y-62469309D01*
X112599989Y-62469309D02*
X112599989Y-64199989D01*
X113050000Y-64650000D02*
X114175000Y-64650000D01*
X118905000Y-68635000D02*
X119640000Y-67900000D01*
X118905000Y-69000000D02*
X118905000Y-68635000D01*
X121800022Y-65368622D02*
X120281400Y-63850000D01*
X120281400Y-63850000D02*
X119825000Y-63850000D01*
X121800022Y-66631378D02*
X121800022Y-65368622D01*
X119640000Y-67900000D02*
X120531400Y-67900000D01*
X120531400Y-67900000D02*
X121800022Y-66631378D01*
X120515700Y-64650000D02*
X119825000Y-64650000D01*
X121400011Y-66465689D02*
X121400011Y-65534311D01*
X117635000Y-69000000D02*
X117635000Y-68635000D01*
X120465699Y-67400001D02*
X121400011Y-66465689D01*
X121400011Y-65534311D02*
X120515700Y-64650000D01*
X118869999Y-67400001D02*
X120465699Y-67400001D01*
X117635000Y-68635000D02*
X118869999Y-67400001D01*
X118905000Y-78500000D02*
X119640000Y-78500000D01*
X119640000Y-78500000D02*
X121550020Y-80410020D01*
X121550020Y-82624980D02*
X120525000Y-83650000D01*
X121550020Y-80410020D02*
X121550020Y-82624980D01*
X120525000Y-83650000D02*
X119825000Y-83650000D01*
X120525000Y-82850000D02*
X119825000Y-82850000D01*
X120565689Y-80499989D02*
X121150011Y-81084311D01*
X121150011Y-81084311D02*
X121150010Y-82224990D01*
X119269989Y-80499989D02*
X120565689Y-80499989D01*
X121150010Y-82224990D02*
X120525000Y-82850000D01*
X117635000Y-78865000D02*
X119269989Y-80499989D01*
X117635000Y-78500000D02*
X117635000Y-78865000D01*
X114175000Y-83650000D02*
X113250000Y-83650000D01*
X113250000Y-83650000D02*
X113100000Y-83800000D01*
X113100000Y-83800000D02*
X113100000Y-85400000D01*
X113800000Y-86100000D02*
X117370000Y-86100000D01*
X113100000Y-85400000D02*
X113800000Y-86100000D01*
X117370000Y-86100000D02*
X118905000Y-87635000D01*
X118905000Y-87635000D02*
X118905000Y-88000000D01*
X114175000Y-82850000D02*
X113150000Y-82850000D01*
X113150000Y-82850000D02*
X112699989Y-83300011D01*
X112699989Y-83300011D02*
X112699989Y-85565689D01*
X112699989Y-85565689D02*
X113634311Y-86500011D01*
X113634311Y-86500011D02*
X116500011Y-86500011D01*
X116500011Y-86500011D02*
X117635000Y-87635000D01*
X117635000Y-87635000D02*
X117635000Y-88000000D01*
X93650001Y-84650001D02*
X94000000Y-85000000D01*
X88900000Y-69300000D02*
X87149989Y-71050011D01*
X91514998Y-84600000D02*
X93600000Y-84600000D01*
X93600000Y-84600000D02*
X93650001Y-84650001D01*
X90700000Y-83785002D02*
X91514998Y-84600000D01*
X90700000Y-83469305D02*
X90700000Y-83785002D01*
X87149989Y-79919294D02*
X90700000Y-83469305D01*
X87149989Y-71050011D02*
X87149989Y-79919294D01*
X90400000Y-64400000D02*
X90100000Y-64100000D01*
X90100000Y-64100000D02*
X90100000Y-56900000D01*
X90100000Y-56900000D02*
X89425000Y-56225000D01*
X89425000Y-56225000D02*
X88025000Y-56225000D01*
X90500000Y-64500000D02*
X90400000Y-64400000D01*
X91300000Y-90550000D02*
X91300000Y-88700000D01*
X91300000Y-88700000D02*
X91500000Y-88500000D01*
X90500000Y-64500000D02*
X92400000Y-64500000D01*
X81825000Y-56075000D02*
X82674990Y-56075000D01*
X82674990Y-56075000D02*
X82799990Y-56200000D01*
X82799990Y-56200000D02*
X82799990Y-56699990D01*
X82799990Y-56699990D02*
X84277701Y-58177701D01*
X84277701Y-58177701D02*
X85277701Y-58177701D01*
X85277701Y-58177701D02*
X87900000Y-60800000D01*
X87900000Y-60800000D02*
X87900000Y-64334300D01*
X87900000Y-64334300D02*
X87900031Y-64334331D01*
X87900031Y-64334331D02*
X87900031Y-65100031D01*
X87900031Y-65100031D02*
X87950001Y-65150001D01*
X87950001Y-65150001D02*
X88300000Y-65500000D01*
X85949956Y-70063180D02*
X85949956Y-80463520D01*
X88705026Y-85200000D02*
X89200000Y-85200000D01*
X88300000Y-84794974D02*
X88705026Y-85200000D01*
X85949956Y-80463520D02*
X88300000Y-82813564D01*
X87950001Y-68063135D02*
X85949956Y-70063180D01*
X87950001Y-65849999D02*
X87950001Y-68063135D01*
X88300000Y-65500000D02*
X87950001Y-65849999D01*
X88300000Y-82813564D02*
X88300000Y-84794974D01*
X83275000Y-84575000D02*
X83300000Y-84600000D01*
X82075000Y-84575000D02*
X83275000Y-84575000D01*
X83794974Y-84600000D02*
X83300000Y-84600000D01*
X84400000Y-84600000D02*
X83794974Y-84600000D01*
X84425000Y-84575000D02*
X84400000Y-84600000D01*
D43*
X94000000Y-88500000D02*
X92700000Y-88500000D01*
X92700000Y-88500000D02*
X89400000Y-85200000D01*
X89400000Y-85200000D02*
X89200000Y-85200000D01*
X117000000Y-82099997D02*
X115800003Y-80900000D01*
X111750000Y-82713590D02*
X111750000Y-89865948D01*
X115800003Y-80900000D02*
X113563590Y-80900000D01*
X113563590Y-80900000D02*
X111750000Y-82713590D01*
X111750000Y-89865948D02*
X107415948Y-94200000D01*
X107415948Y-94200000D02*
X96550000Y-94200000D01*
X96550000Y-94200000D02*
X93850000Y-91500000D01*
X93850000Y-91500000D02*
X93700000Y-91500000D01*
X93700000Y-91500000D02*
X94000000Y-91200000D01*
X94000000Y-91200000D02*
X94000000Y-88500000D01*
D44*
X122490373Y-65890373D02*
X122490373Y-66506727D01*
X122490373Y-66506727D02*
X119899978Y-69097122D01*
X119899978Y-69097122D02*
X119899978Y-72699978D01*
X119899978Y-72699978D02*
X123150027Y-75950027D01*
X123150027Y-75950027D02*
X123150027Y-82050027D01*
X123150027Y-82050027D02*
X123300000Y-82200000D01*
X123300000Y-82200000D02*
X123200000Y-82300000D01*
X119450000Y-56050000D02*
X120487998Y-56050000D01*
X120987999Y-55549999D02*
X121612001Y-55549999D01*
X121849999Y-64649999D02*
X122490373Y-65290373D01*
X120487998Y-56050000D02*
X120987999Y-55549999D01*
X121612001Y-55549999D02*
X121950001Y-55887999D01*
X121950001Y-55887999D02*
X121950001Y-58256597D01*
X119849961Y-60356637D02*
X119849961Y-61543363D01*
X121849999Y-63543401D02*
X121849999Y-64649999D01*
X121950001Y-58256597D02*
X119849961Y-60356637D01*
X119849961Y-61543363D02*
X121849999Y-63543401D01*
X122490373Y-65290373D02*
X122490373Y-65890373D01*
X117125000Y-65575000D02*
X117000000Y-65700000D01*
X116875000Y-65575000D02*
X117000000Y-65700000D01*
X115825000Y-65575000D02*
X116875000Y-65575000D01*
X118175000Y-65575000D02*
X117125000Y-65575000D01*
X117000000Y-82099997D02*
X118000003Y-82099997D01*
X118000003Y-82099997D02*
X118175000Y-81925000D01*
X83000000Y-65400000D02*
X83775000Y-65400000D01*
X83000000Y-65400000D02*
X82225000Y-65400000D01*
X117000000Y-82099997D02*
X116505026Y-82099997D01*
X117000000Y-82099997D02*
X116025003Y-82099997D01*
X100349999Y-73450001D02*
X100349999Y-76583929D01*
X104000000Y-72800000D02*
X101000000Y-72800000D01*
X104849999Y-71950001D02*
X104000000Y-72800000D01*
X104849999Y-70850023D02*
X104849999Y-71950001D01*
X110400000Y-69200000D02*
X107034300Y-69200000D01*
X100343937Y-76589991D02*
X99993938Y-76939990D01*
X105400000Y-70300022D02*
X104849999Y-70850023D01*
X105934278Y-70300022D02*
X105400000Y-70300022D01*
X107034300Y-69200000D02*
X105934278Y-70300022D01*
X101000000Y-72800000D02*
X100349999Y-73450001D01*
X100349999Y-76583929D02*
X100343937Y-76589991D01*
X110400000Y-69200000D02*
X110600000Y-69200000D01*
X110600000Y-69200000D02*
X110899977Y-68900023D01*
X110899977Y-68900023D02*
X110899977Y-65999977D01*
X110899977Y-65999977D02*
X109400000Y-64500000D01*
X109400000Y-64500000D02*
X107600000Y-64500000D01*
X100000000Y-79200000D02*
X100000000Y-81100000D01*
X100000000Y-81100000D02*
X98600000Y-82500000D01*
X98600000Y-82500000D02*
X98600000Y-84900000D01*
X98600000Y-84900000D02*
X98400000Y-85100000D01*
X110400000Y-69600000D02*
X110400000Y-69200000D01*
X110400000Y-69600000D02*
X110400000Y-69900000D01*
X110400000Y-69900000D02*
X110225000Y-70075000D01*
X110225000Y-70075000D02*
X109225000Y-70075000D01*
X109225000Y-70075000D02*
X109150000Y-70075000D01*
X97800000Y-90550000D02*
X97800000Y-88700000D01*
X97800000Y-88700000D02*
X98000000Y-88500000D01*
X84425000Y-83100000D02*
X83850000Y-83100000D01*
X83850000Y-83100000D02*
X83250000Y-82500000D01*
X85200000Y-57200000D02*
X84572309Y-57200000D01*
X84572309Y-57200000D02*
X83600010Y-56227701D01*
X83600010Y-56227701D02*
X83600010Y-55200010D01*
X83600010Y-55200010D02*
X82750000Y-54350000D01*
X82750000Y-54350000D02*
X81825000Y-54350000D01*
X86749978Y-80084983D02*
X89350021Y-82685026D01*
X89250012Y-63703697D02*
X89250012Y-64922310D01*
X89350012Y-65977690D02*
X88900022Y-66427680D01*
X89250012Y-64922310D02*
X89350012Y-65022310D01*
X88900022Y-66427680D02*
X88900022Y-68244515D01*
X89350012Y-65022310D02*
X89350012Y-65977690D01*
X88950021Y-63403706D02*
X89250012Y-63703697D01*
X88900022Y-68244515D02*
X86749978Y-70394559D01*
X89350021Y-82685026D02*
X89350021Y-83100000D01*
X86749978Y-70394559D02*
X86749978Y-80084983D01*
D43*
X100400000Y-86700000D02*
X92950021Y-86700000D01*
X89700020Y-83449999D02*
X89350021Y-83100000D01*
X92950021Y-86700000D02*
X89700020Y-83449999D01*
D44*
X88950021Y-60718621D02*
X85431400Y-57200000D01*
X88950021Y-63403706D02*
X88950021Y-60718621D01*
X85431400Y-57200000D02*
X85200000Y-57200000D01*
X85282281Y-57200000D02*
X85200000Y-57200000D01*
X123649999Y-64049999D02*
X123649999Y-66478501D01*
X124300000Y-81572298D02*
X124300000Y-83394974D01*
X123300000Y-63700000D02*
X123649999Y-64049999D01*
X123294974Y-84400000D02*
X122694974Y-84400000D01*
X120700000Y-72368600D02*
X123950049Y-75618649D01*
X120700000Y-69428500D02*
X120700000Y-72368600D01*
X123649999Y-66478501D02*
X120700000Y-69428500D01*
X124300000Y-83394974D02*
X123294974Y-84400000D01*
X123950049Y-75618649D02*
X123950049Y-81222347D01*
X123950049Y-81222347D02*
X124300000Y-81572298D01*
X122694974Y-84400000D02*
X122200000Y-84400000D01*
D43*
X110450001Y-81449999D02*
X110800000Y-81100000D01*
X100400000Y-86700000D02*
X107020412Y-86700000D01*
X109836002Y-89800002D02*
X110250001Y-89386003D01*
X108599998Y-89236002D02*
X109163998Y-89800002D01*
X110250001Y-89386003D02*
X110250001Y-81649999D01*
X108599998Y-88279586D02*
X108599998Y-89236002D01*
X109163998Y-89800002D02*
X109836002Y-89800002D01*
X110250001Y-81649999D02*
X110450001Y-81449999D01*
X107020412Y-86700000D02*
X108599998Y-88279586D01*
D44*
X119450000Y-54550000D02*
X121743402Y-54550000D01*
X123200000Y-63700000D02*
X123300000Y-63700000D01*
X121743402Y-54550000D02*
X122750023Y-55556621D01*
X122750023Y-55556621D02*
X122750023Y-58587975D01*
X122750023Y-58587975D02*
X120649983Y-60688015D01*
X123196402Y-63700000D02*
X123200000Y-63700000D01*
X120649983Y-60688015D02*
X120649983Y-61153581D01*
X120649983Y-61153581D02*
X123196402Y-63700000D01*
X117150000Y-63850000D02*
X117000000Y-63700000D01*
X118175000Y-63850000D02*
X117150000Y-63850000D01*
X115825000Y-63850000D02*
X116850000Y-63850000D01*
X116850000Y-63850000D02*
X117000000Y-63700000D01*
D43*
X100200000Y-91500000D02*
X100200000Y-88800000D01*
X100200000Y-88800000D02*
X100500000Y-88500000D01*
D44*
X82200000Y-83000000D02*
X82750000Y-83000000D01*
X82750000Y-83000000D02*
X83250000Y-82500000D01*
X84150000Y-63950000D02*
X83950000Y-63950000D01*
X83950000Y-63950000D02*
X83900001Y-63900001D01*
X83350004Y-63900001D02*
X83349999Y-63899996D01*
X83900001Y-63900001D02*
X83350004Y-63900001D01*
X83349999Y-63899996D02*
X83000000Y-63549997D01*
X81850000Y-63950000D02*
X82537998Y-63950000D01*
X82537998Y-63950000D02*
X82938001Y-63549997D01*
X82938001Y-63549997D02*
X83000000Y-63549997D01*
X116687999Y-83650001D02*
X117300000Y-83650001D01*
X117300000Y-83650001D02*
X117449999Y-83650001D01*
X117000000Y-83900000D02*
X117050001Y-83900000D01*
X117050001Y-83900000D02*
X117300000Y-83650001D01*
X115700000Y-83500000D02*
X116537998Y-83500000D01*
X116537998Y-83500000D02*
X116687999Y-83650001D01*
X117449999Y-83650001D02*
X117600000Y-83500000D01*
X117600000Y-83500000D02*
X117750000Y-83500000D01*
X117750000Y-83500000D02*
X118300000Y-83500000D01*
X103309987Y-77699989D02*
X104399989Y-77699989D01*
X110799978Y-82320079D02*
X110799978Y-89472437D01*
X110287999Y-80449999D02*
X111112001Y-80449999D01*
X111112001Y-80449999D02*
X111450001Y-80787999D01*
X105200000Y-80362002D02*
X105987999Y-81150001D01*
X101349999Y-75740001D02*
X103309987Y-77699989D01*
X107384001Y-87699999D02*
X105300001Y-87699999D01*
X110700000Y-73100000D02*
X110700000Y-73300000D01*
X110700000Y-73300000D02*
X110349989Y-73650011D01*
X105087998Y-73049998D02*
X104487985Y-73650011D01*
X105487994Y-73049998D02*
X105087998Y-73049998D01*
X101659987Y-73650011D02*
X101349999Y-73959999D01*
X104399989Y-77699989D02*
X105200000Y-78500000D01*
X106088007Y-73650011D02*
X105487994Y-73049998D01*
X105200000Y-78500000D02*
X105200000Y-80362002D01*
X105987999Y-81150001D02*
X109587997Y-81150001D01*
X109587997Y-81150001D02*
X110287999Y-80449999D01*
X110799978Y-89472437D02*
X110022402Y-90250013D01*
X111450001Y-81670056D02*
X110799978Y-82320079D01*
X108149987Y-88465985D02*
X107384001Y-87699999D01*
X110349989Y-73650011D02*
X106088007Y-73650011D01*
X101349999Y-73959999D02*
X101349999Y-75740001D01*
X105300001Y-87699999D02*
X104999999Y-88000001D01*
X104487985Y-73650011D02*
X101659987Y-73650011D01*
X104999999Y-88000001D02*
X104500000Y-88500000D01*
X111450001Y-80787999D02*
X111450001Y-81670056D01*
X108977598Y-90250013D02*
X108149987Y-89422402D01*
X110022402Y-90250013D02*
X108977598Y-90250013D01*
X108149987Y-89422402D02*
X108149987Y-88465985D01*
X111900000Y-71700000D02*
X112249999Y-71350001D01*
X111799967Y-65065667D02*
X111799967Y-58600033D01*
X111799967Y-58600033D02*
X111999990Y-58400010D01*
X111999990Y-58400010D02*
X112100010Y-58400010D01*
X112249999Y-71350001D02*
X112249999Y-65515699D01*
X112249999Y-65515699D02*
X111799967Y-65065667D01*
X112100010Y-58400010D02*
X112100000Y-58400000D01*
X110700000Y-73100000D02*
X110700000Y-72725000D01*
X110700000Y-72725000D02*
X109225000Y-72725000D01*
X110900000Y-72900000D02*
X110900000Y-72800000D01*
X110700000Y-73100000D02*
X110900000Y-72900000D01*
X107900000Y-56800000D02*
X110700000Y-56800000D01*
X107600000Y-56500000D02*
X107900000Y-56800000D01*
X104300000Y-90550000D02*
X104300000Y-88700000D01*
X104300000Y-88700000D02*
X104500000Y-88500000D01*
D43*
X111249989Y-89658837D02*
X111249989Y-82544985D01*
X106700000Y-91500000D02*
X109408826Y-91500000D01*
X111249989Y-82544985D02*
X112900000Y-80894974D01*
X112900000Y-80894974D02*
X112900000Y-80794974D01*
X112900000Y-80794974D02*
X112900000Y-80300000D01*
X109408826Y-91500000D02*
X111249989Y-89658837D01*
D44*
X84425000Y-83900000D02*
X83537328Y-83900000D01*
X83537328Y-83900000D02*
X83168664Y-83531336D01*
X81825000Y-55150000D02*
X82750000Y-55150000D01*
X83200000Y-55600000D02*
X83200000Y-56500000D01*
X82750000Y-55150000D02*
X83200000Y-55600000D01*
X83200000Y-56500000D02*
X84477690Y-57777690D01*
X84477690Y-57777690D02*
X85443390Y-57777690D01*
X88300011Y-64052335D02*
X88550010Y-64302334D01*
X85443390Y-57777690D02*
X88300011Y-60634311D01*
X88300011Y-60634311D02*
X88300011Y-64052335D01*
X88700011Y-83800011D02*
X88750001Y-83850001D01*
X88350012Y-66411990D02*
X88350012Y-68228824D01*
X88750001Y-83850001D02*
X89100000Y-84200000D01*
X88550010Y-64797308D02*
X88950001Y-65197299D01*
X88700011Y-82647875D02*
X88700011Y-83800011D01*
X86349967Y-70228869D02*
X86349967Y-80297831D01*
X88950001Y-65812001D02*
X88350012Y-66411990D01*
X88950001Y-65197299D02*
X88950001Y-65812001D01*
X88550010Y-64302334D02*
X88550010Y-64797308D01*
X88350012Y-68228824D02*
X86349967Y-70228869D01*
X86349967Y-80297831D02*
X88700011Y-82647875D01*
D43*
X106700000Y-91500000D02*
X106700000Y-92300000D01*
X106700000Y-92300000D02*
X105399998Y-93600002D01*
X105399998Y-93600002D02*
X102963998Y-93600002D01*
X102963998Y-93600002D02*
X101350001Y-91986005D01*
X101350001Y-91986005D02*
X101350001Y-87950001D01*
X101350001Y-87950001D02*
X100800000Y-87400000D01*
X100800000Y-87400000D02*
X92600000Y-87400000D01*
X92600000Y-87400000D02*
X89400000Y-84200000D01*
X89400000Y-84200000D02*
X89300000Y-84200000D01*
X89300000Y-84200000D02*
X89100000Y-84200000D01*
D44*
X123394974Y-83400000D02*
X122900000Y-83400000D01*
X123899989Y-82894985D02*
X123394974Y-83400000D01*
X123550038Y-81388036D02*
X123899989Y-81737987D01*
X123899989Y-81737987D02*
X123899989Y-82894985D01*
X120299989Y-69262811D02*
X120299989Y-72534289D01*
X123149999Y-66412801D02*
X120299989Y-69262811D01*
X123149999Y-64949999D02*
X123149999Y-66412801D01*
X122800000Y-64600000D02*
X123149999Y-64949999D01*
X123550038Y-75784338D02*
X123550038Y-81388036D01*
X120299989Y-72534289D02*
X123550038Y-75784338D01*
X122350001Y-63477703D02*
X122350001Y-64150001D01*
X122350001Y-64150001D02*
X122450001Y-64250001D01*
X120249972Y-60522326D02*
X120249972Y-61377674D01*
X122350012Y-55722310D02*
X122350012Y-58422286D01*
X120249972Y-61377674D02*
X122350001Y-63477703D01*
X119450000Y-55050000D02*
X121677702Y-55050000D01*
X122450001Y-64250001D02*
X122800000Y-64600000D01*
X121677702Y-55050000D02*
X122350012Y-55722310D01*
X122350012Y-58422286D02*
X120249972Y-60522326D01*
X117250000Y-64700000D02*
X117400000Y-64700000D01*
X117400000Y-64700000D02*
X118300000Y-64700000D01*
X117000000Y-64700000D02*
X117400000Y-64700000D01*
X117000000Y-64700000D02*
X115875000Y-64700000D01*
X115875000Y-64700000D02*
X115825000Y-64650000D01*
X118300000Y-64700000D02*
X118550000Y-64450000D01*
X115450000Y-64450000D02*
X115700000Y-64700000D01*
X82075000Y-83650000D02*
X83050000Y-83650000D01*
X83050000Y-83650000D02*
X83168664Y-83531336D01*
D43*
X106700000Y-91500000D02*
X106700000Y-88800000D01*
X106700000Y-88800000D02*
X107000000Y-88500000D01*
D44*
X83000000Y-64450000D02*
X84150000Y-64450000D01*
X81850000Y-64450000D02*
X83000000Y-64450000D01*
X117000000Y-83000000D02*
X118300000Y-83000000D01*
X115700000Y-83000000D02*
X117000000Y-83000000D01*
X92400000Y-56500000D02*
X90600000Y-56500000D01*
X90600000Y-56500000D02*
X89850000Y-55750000D01*
X88025000Y-55300000D02*
X89300000Y-55300000D01*
X89300000Y-55300000D02*
X89750000Y-55750000D01*
X89200000Y-75350000D02*
X89850000Y-76000000D01*
X89850000Y-76000000D02*
X97700000Y-76000000D01*
X97700000Y-76000000D02*
X97700000Y-74850000D01*
X98127987Y-77189989D02*
X97700000Y-76762002D01*
X97700000Y-76762002D02*
X97700000Y-74850000D01*
X99800000Y-73400000D02*
X100200000Y-73000000D01*
X99349999Y-76715699D02*
X99800000Y-76265698D01*
X99272013Y-77189989D02*
X99349999Y-77112003D01*
X98127987Y-77189989D02*
X99272013Y-77189989D01*
X99800000Y-76265698D02*
X99800000Y-73400000D01*
X99349999Y-77112003D02*
X99349999Y-76715699D01*
X100200000Y-73000000D02*
X100900000Y-72300000D01*
X107118610Y-68549990D02*
X109754994Y-68549990D01*
X100900000Y-72300000D02*
X103800000Y-72300000D01*
X103800000Y-72300000D02*
X104400000Y-71700000D01*
X104400000Y-71700000D02*
X104400000Y-70600011D01*
X104400000Y-70600011D02*
X105100000Y-69900011D01*
X105100000Y-69900011D02*
X105768589Y-69900011D01*
X105768589Y-69900011D02*
X107118610Y-68549990D01*
X109754994Y-68549990D02*
X110249968Y-68549990D01*
X121549998Y-84712002D02*
X121549998Y-83787998D01*
X112074004Y-72487998D02*
X111550002Y-72487998D01*
X122549998Y-82787998D02*
X122549998Y-81987998D01*
X111550002Y-72487998D02*
X111249997Y-72187993D01*
X112650010Y-71911992D02*
X112074004Y-72487998D01*
X121549998Y-83787998D02*
X122549998Y-82787998D01*
X111249997Y-71749999D02*
X110899998Y-71400000D01*
X117000000Y-70500000D02*
X113000000Y-70500000D01*
X111249997Y-72187993D02*
X111249997Y-71749999D01*
X112650010Y-70849990D02*
X112650010Y-71911992D01*
X113000000Y-70500000D02*
X112650010Y-70849990D01*
X122750016Y-81787980D02*
X122750016Y-76250016D01*
X122549998Y-81987998D02*
X122750016Y-81787980D01*
X119650001Y-90049999D02*
X121949998Y-87750002D01*
X121949998Y-85112002D02*
X121549998Y-84712002D01*
X122750016Y-76250016D02*
X117000000Y-70500000D01*
X116387999Y-90050000D02*
X119650001Y-90049999D01*
X115880001Y-90557998D02*
X116387999Y-90050000D01*
X121949998Y-87750002D02*
X121949998Y-85112002D01*
X115880001Y-92050001D02*
X115880001Y-90557998D01*
X116730000Y-92900000D02*
X115880001Y-92050001D01*
X111699999Y-70599999D02*
X111249997Y-71050001D01*
X111699999Y-65531399D02*
X111699999Y-70599999D01*
X111300000Y-65131400D02*
X111699999Y-65531399D01*
X111300000Y-60500000D02*
X111300000Y-65131400D01*
X110600000Y-71800000D02*
X110899998Y-71500002D01*
X110899998Y-71500002D02*
X110899998Y-71400000D01*
X111249997Y-71050001D02*
X110899998Y-71400000D01*
X109225000Y-71800000D02*
X110600000Y-71800000D01*
X114000000Y-56600004D02*
X114000004Y-56600000D01*
X114000004Y-56600000D02*
X112737996Y-56600000D01*
X112737996Y-56600000D02*
X111300000Y-58037996D01*
X111300000Y-58037996D02*
X111300000Y-60500000D01*
X111300000Y-60500000D02*
X108250000Y-60500000D01*
X108250000Y-60500000D02*
X108837996Y-60500000D01*
X107600000Y-60500000D02*
X108250000Y-60500000D01*
X113600000Y-54400000D02*
X113650001Y-54450001D01*
X113600000Y-50400000D02*
X113600000Y-54400000D01*
X113650001Y-54450001D02*
X114000000Y-54800000D01*
X119550000Y-104500000D02*
X120400000Y-104500000D01*
X120400000Y-104500000D02*
X120800000Y-104100000D01*
X120800000Y-104100000D02*
X120800000Y-98894974D01*
X120800000Y-98894974D02*
X120800000Y-98400000D01*
X100200000Y-73000000D02*
X100234302Y-73000000D01*
X128700000Y-54650000D02*
X127100000Y-54650000D01*
X127100000Y-54650000D02*
X126650000Y-55100000D01*
X128700000Y-50900000D02*
X126850000Y-50900000D01*
X126850000Y-50900000D02*
X126650000Y-50700000D01*
X126650000Y-50700000D02*
X126650000Y-51450000D01*
X126650000Y-51450000D02*
X126650000Y-52900000D01*
X95700000Y-75300000D02*
X96049999Y-74950001D01*
X96049999Y-74950001D02*
X96049999Y-74381999D01*
X96831998Y-73600000D02*
X97800000Y-73600000D01*
X100000000Y-71400000D02*
X100000000Y-66600000D01*
X90800000Y-63500000D02*
X90500000Y-63200000D01*
X96049999Y-74381999D02*
X96831998Y-73600000D01*
X97800000Y-73600000D02*
X100000000Y-71400000D01*
X100000000Y-66600000D02*
X96900000Y-63500000D01*
X96900000Y-63500000D02*
X90800000Y-63500000D01*
X90500000Y-63200000D02*
X90500000Y-59750000D01*
X90500000Y-59750000D02*
X91750000Y-58500000D01*
X91750000Y-58500000D02*
X92400000Y-58500000D01*
X96050005Y-77749999D02*
X95700006Y-77400000D01*
X99349999Y-81085001D02*
X99349999Y-78549999D01*
X97335000Y-83100000D02*
X99349999Y-81085001D01*
X99349999Y-78549999D02*
X99149999Y-78349999D01*
X99149999Y-78349999D02*
X96650005Y-78349999D01*
X96650005Y-78349999D02*
X96050005Y-77749999D01*
X105900000Y-66700000D02*
X105900000Y-69202900D01*
X99049999Y-76229980D02*
X98700000Y-76579979D01*
X99249999Y-76029980D02*
X99049999Y-76229980D01*
X107600000Y-58500000D02*
X106950000Y-58500000D01*
X100600010Y-71899990D02*
X99249999Y-73250001D01*
X105550000Y-59900000D02*
X105550000Y-66350000D01*
X106950000Y-58500000D02*
X105550000Y-59900000D01*
X99249999Y-73250001D02*
X99249999Y-76029980D01*
X104000000Y-70434313D02*
X104000000Y-71534302D01*
X104934313Y-69500000D02*
X104000000Y-70434313D01*
X105900000Y-69202900D02*
X105602900Y-69500000D01*
X104000000Y-71534302D02*
X103634312Y-71899990D01*
X105550000Y-66350000D02*
X105900000Y-66700000D01*
X105602900Y-69500000D02*
X104934313Y-69500000D01*
X103634312Y-71899990D02*
X100600010Y-71899990D01*
X80175000Y-56075000D02*
X79175000Y-56075000D01*
X80100000Y-50800000D02*
X81100000Y-50800000D01*
X81100000Y-50800000D02*
X81100000Y-50100000D01*
X79175000Y-56075000D02*
X78299978Y-55199978D01*
X78299978Y-55199978D02*
X78299978Y-52600022D01*
X78299978Y-52600022D02*
X80100000Y-50800000D01*
X81100000Y-50100000D02*
X81095000Y-50095000D01*
X81095000Y-50095000D02*
X81095000Y-50000000D01*
X80175000Y-65575000D02*
X79175000Y-65575000D01*
X79175000Y-65575000D02*
X78299978Y-64699978D01*
X78299978Y-62100022D02*
X80200000Y-60200000D01*
X78299978Y-64699978D02*
X78299978Y-62100022D01*
X81095000Y-60105000D02*
X81095000Y-59500000D01*
X80200000Y-60200000D02*
X81000000Y-60200000D01*
X81000000Y-60200000D02*
X81095000Y-60105000D01*
X85825000Y-65575000D02*
X86675000Y-65575000D01*
X86700000Y-66500000D02*
X86100000Y-67100000D01*
X86675000Y-65575000D02*
X86700000Y-65600000D01*
X86100000Y-67100000D02*
X82630000Y-67100000D01*
X86700000Y-65600000D02*
X86700000Y-66500000D01*
X82630000Y-67100000D02*
X81095000Y-68635000D01*
X81095000Y-68635000D02*
X81095000Y-69000000D01*
X79725000Y-84575000D02*
X80425000Y-84575000D01*
X80360000Y-78500000D02*
X78650011Y-80209989D01*
X78650011Y-80209989D02*
X78650011Y-83500011D01*
X78650011Y-83500011D02*
X79725000Y-84575000D01*
X81095000Y-78500000D02*
X80360000Y-78500000D01*
X81095000Y-88000000D02*
X81095000Y-87705000D01*
X87000000Y-85700000D02*
X87100000Y-85600000D01*
X81095000Y-87705000D02*
X81100000Y-87700000D01*
X81100000Y-87600000D02*
X83000000Y-85700000D01*
X81100000Y-87700000D02*
X81100000Y-87600000D01*
X83000000Y-85700000D02*
X87000000Y-85700000D01*
X87100000Y-85600000D02*
X87100000Y-84900000D01*
X87100000Y-84900000D02*
X87025000Y-84825000D01*
X87025000Y-84825000D02*
X86075000Y-84825000D01*
X117925000Y-56075000D02*
X117225000Y-56075000D01*
X117225000Y-56075000D02*
X115400000Y-54250000D01*
X115400000Y-54250000D02*
X115400000Y-50500000D01*
X115400000Y-50500000D02*
X115095000Y-50195000D01*
X115095000Y-50195000D02*
X115095000Y-50000000D01*
X114660000Y-60300000D02*
X114203598Y-60300000D01*
X112875000Y-65575000D02*
X114175000Y-65575000D01*
X115095000Y-59500000D02*
X115095000Y-59865000D01*
X115095000Y-59865000D02*
X114660000Y-60300000D01*
X114203598Y-60300000D02*
X112199978Y-62303620D01*
X112199978Y-62303620D02*
X112199978Y-64899978D01*
X112199978Y-64899978D02*
X112875000Y-65575000D01*
X117825000Y-67500000D02*
X116230000Y-67500000D01*
X120875000Y-65575000D02*
X121000000Y-65700000D01*
X119825000Y-65575000D02*
X120875000Y-65575000D01*
X121000000Y-65700000D02*
X121000000Y-66300000D01*
X121000000Y-66300000D02*
X120300010Y-66999990D01*
X120300010Y-66999990D02*
X118325010Y-66999990D01*
X118325010Y-66999990D02*
X117825000Y-67500000D01*
X116230000Y-67500000D02*
X115095000Y-68635000D01*
X115095000Y-68635000D02*
X115095000Y-69000000D01*
X117724302Y-80255000D02*
X118369302Y-80900000D01*
X120750000Y-81250000D02*
X120750000Y-81750000D01*
X115095000Y-78500000D02*
X115095000Y-79600000D01*
X115095000Y-79600000D02*
X115750000Y-80255000D01*
X115750000Y-80255000D02*
X117724302Y-80255000D01*
X120400000Y-80900000D02*
X120750000Y-81250000D01*
X118369302Y-80900000D02*
X120400000Y-80900000D01*
X120750000Y-81750000D02*
X120575000Y-81925000D01*
X120575000Y-81925000D02*
X119825000Y-81925000D01*
X114175000Y-81925000D02*
X113175000Y-81925000D01*
X113175000Y-81925000D02*
X112299978Y-82800022D01*
X112299978Y-82800022D02*
X112299978Y-85939978D01*
X112299978Y-85939978D02*
X113660000Y-87300000D01*
X113660000Y-87300000D02*
X114800000Y-87300000D01*
X114800000Y-87300000D02*
X114800000Y-87705000D01*
X114800000Y-87705000D02*
X115095000Y-88000000D01*
X125635000Y-89000000D02*
X126600000Y-89000000D01*
X126600000Y-89000000D02*
X128600000Y-87000000D01*
X128600000Y-87000000D02*
X128600000Y-85950000D01*
X128600000Y-81950000D02*
X129050000Y-82400000D01*
X129050000Y-82400000D02*
X129500000Y-82400000D01*
X129500000Y-82400000D02*
X129500000Y-85500000D01*
X129500000Y-85500000D02*
X129050000Y-85500000D01*
X129050000Y-85500000D02*
X128600000Y-85950000D01*
X125796384Y-89000000D02*
X125635000Y-89000000D01*
X124365000Y-86460000D02*
X124365000Y-86335000D01*
X124365000Y-86335000D02*
X125650034Y-85049966D01*
X125650034Y-85049966D02*
X125650034Y-78343438D01*
X125650034Y-78343438D02*
X125149976Y-77843380D01*
X125149976Y-77843380D02*
X125149976Y-74750024D01*
X125149976Y-74750024D02*
X125350001Y-74549999D01*
X125350001Y-74549999D02*
X125700000Y-74200000D01*
X127950022Y-74549999D02*
X127600023Y-74200000D01*
X128600000Y-75199977D02*
X127950022Y-74549999D01*
X128600000Y-76250000D02*
X128600000Y-75199977D01*
X128600000Y-76250000D02*
X128600000Y-76300000D01*
M02*
