G04 #@! TF.FileFunction,Copper,L2,Bot,Signal*
%FSLAX46Y46*%
G04 Gerber Fmt 4.6, Leading zero omitted, Abs format (unit mm)*
G04 Created by KiCad (PCBNEW 4.0.7) date 03/11/18 20:39:24*
%MOMM*%
%LPD*%
G01*
G04 APERTURE LIST*
%ADD10C,0.100000*%
%ADD11R,1.300000X1.000000*%
%ADD12O,1.300000X1.000000*%
%ADD13R,3.500000X3.500000*%
%ADD14C,1.450000*%
%ADD15O,1.200000X1.900000*%
%ADD16R,1.200000X0.850000*%
%ADD17O,1.200000X0.850000*%
%ADD18R,1.700000X1.700000*%
%ADD19O,1.700000X1.700000*%
%ADD20C,1.000000*%
%ADD21C,1.700000*%
%ADD22R,1.800000X1.800000*%
%ADD23O,1.800000X1.800000*%
%ADD24C,0.700000*%
%ADD25C,0.500000*%
%ADD26C,0.300000*%
%ADD27C,0.200000*%
G04 APERTURE END LIST*
D10*
D11*
X122785000Y-91540000D03*
D12*
X121215000Y-91540000D03*
X122785000Y-90270000D03*
X121215000Y-90270000D03*
X122785000Y-89000000D03*
X121215000Y-89000000D03*
X122785000Y-87730000D03*
X121215000Y-87730000D03*
X122785000Y-86460000D03*
X121215000Y-86460000D03*
D13*
X72850000Y-79700000D03*
X72850000Y-85700000D03*
X68150000Y-82700000D03*
D14*
X70500000Y-89250000D03*
X75500000Y-89250000D03*
D15*
X69500000Y-91950000D03*
X76500000Y-91950000D03*
D16*
X125700000Y-57150000D03*
D17*
X125700000Y-55900000D03*
X125700000Y-54650000D03*
X125700000Y-53400000D03*
X125700000Y-52150000D03*
X125700000Y-50900000D03*
X125700000Y-49650000D03*
X125700000Y-48400000D03*
D18*
X118810000Y-92900000D03*
D19*
X116270000Y-92900000D03*
X113730000Y-92900000D03*
X111190000Y-92900000D03*
D20*
X86250000Y-55750000D03*
D21*
X82000000Y-95500000D03*
D20*
X94500000Y-88500000D03*
D21*
X110490000Y-45000000D03*
X113030000Y-45000000D03*
D20*
X94000000Y-78500000D03*
X83600000Y-85400000D03*
X67700000Y-70600000D03*
X76600000Y-73200000D03*
X101000000Y-88500000D03*
X100000000Y-78500000D03*
X91000000Y-88500000D03*
X75800000Y-70600000D03*
D21*
X126000000Y-96000000D03*
D18*
X115570000Y-45000000D03*
D19*
X118110000Y-45000000D03*
X120650000Y-45000000D03*
X123190000Y-45000000D03*
X125730000Y-45000000D03*
D22*
X74340000Y-72960000D03*
D23*
X71800000Y-72960000D03*
X69260000Y-72960000D03*
D24*
X70350000Y-60150000D03*
X104600000Y-85200000D03*
X84800000Y-60000000D03*
X75650002Y-61400000D03*
X86250000Y-78250000D03*
X86250000Y-83700000D03*
X95850000Y-85850000D03*
X103200000Y-78350000D03*
X111100000Y-64500034D03*
X115600000Y-98400000D03*
X92900000Y-95800000D03*
X106600000Y-66500000D03*
X92200000Y-71000000D03*
X82700000Y-63000000D03*
X125300000Y-76450000D03*
X85650000Y-80850000D03*
X83250000Y-80849996D03*
X114900000Y-74100067D03*
X114950000Y-70600000D03*
X123449990Y-76450000D03*
X118450023Y-86950000D03*
X116750000Y-87000014D03*
X88300023Y-67800000D03*
X82550000Y-67050000D03*
X78079898Y-56220110D03*
X108850000Y-73850000D03*
X79550000Y-54250000D03*
X108350000Y-70500002D03*
X109264315Y-76935685D03*
X115100000Y-91100000D03*
X114400000Y-98400000D03*
X106350000Y-76350000D03*
X106199992Y-70749935D03*
X102750000Y-66050000D03*
X101900000Y-76150000D03*
X106200004Y-78800000D03*
X108150000Y-78800000D03*
X101250000Y-65800000D03*
X106200000Y-81000000D03*
X108550000Y-81000000D03*
X100350000Y-76150000D03*
X124049990Y-54800000D03*
X126000000Y-72200000D03*
X123450000Y-72200000D03*
X124850000Y-70300000D03*
X123500000Y-70250000D03*
X126350000Y-74050000D03*
X123500000Y-74050000D03*
X94300000Y-76350012D03*
X94900000Y-73150000D03*
X96215498Y-76119935D03*
X85150000Y-83350000D03*
X83200000Y-83350000D03*
X109900000Y-70400000D03*
X113000000Y-60900002D03*
X115300011Y-61000000D03*
X96200000Y-74450000D03*
X110600000Y-73700000D03*
X97550000Y-76100000D03*
X97600000Y-73350000D03*
X102800000Y-64050000D03*
X99491840Y-64145503D03*
X85500000Y-88199999D03*
X89000000Y-82300000D03*
X109850000Y-83000000D03*
X106700000Y-83000000D03*
X91500000Y-82300000D03*
X86800000Y-72000000D03*
X87250000Y-86800000D03*
X104850000Y-71749957D03*
X88600000Y-77100000D03*
X104850000Y-76100000D03*
X83949979Y-75900000D03*
X85550000Y-74400000D03*
X121349990Y-71799933D03*
X121350000Y-75500000D03*
X85900000Y-72000000D03*
X82750000Y-74950000D03*
X108300000Y-90650000D03*
X111150000Y-86950000D03*
X92900000Y-73300000D03*
X99700001Y-60550000D03*
X102800000Y-60550000D03*
X92350000Y-76150000D03*
X110450000Y-50850000D03*
D25*
X123190000Y-45000000D02*
X123190000Y-46202081D01*
X123190000Y-46202081D02*
X123190000Y-53890000D01*
D26*
X116270000Y-92900000D02*
X116270000Y-90630000D01*
X115600000Y-98400000D02*
X115300000Y-98100000D01*
X115300000Y-98100000D02*
X115300000Y-93870000D01*
X115300000Y-93870000D02*
X116270000Y-92900000D01*
D25*
X123449990Y-76450000D02*
X125300000Y-76450000D01*
X85649996Y-80849996D02*
X85650000Y-80850000D01*
X83250000Y-80849996D02*
X85649996Y-80849996D01*
D26*
X114950000Y-74050067D02*
X114900000Y-74100067D01*
X114950000Y-70600000D02*
X114950000Y-74050067D01*
X116800014Y-86950000D02*
X116750000Y-87000014D01*
X118450023Y-86950000D02*
X116800014Y-86950000D01*
X114400000Y-98400000D02*
X114700000Y-98100000D01*
X114700000Y-98100000D02*
X114700000Y-93706002D01*
X115000000Y-91200000D02*
X115100000Y-91100000D01*
X114700000Y-93706002D02*
X115000000Y-93406002D01*
X115000000Y-93406002D02*
X115000000Y-91200000D01*
X109264315Y-76935685D02*
X108850000Y-76521370D01*
X108850000Y-73850000D02*
X108350000Y-73350000D01*
X108850000Y-76521370D02*
X108850000Y-73850000D01*
D25*
X87805049Y-67800000D02*
X88300023Y-67800000D01*
X83300000Y-67800000D02*
X87805049Y-67800000D01*
X82550000Y-67050000D02*
X83300000Y-67800000D01*
D26*
X78429897Y-55870111D02*
X78079898Y-56220110D01*
X79550000Y-54750008D02*
X78429897Y-55870111D01*
X79550000Y-54250000D02*
X79550000Y-54750008D01*
X108350000Y-73200000D02*
X108350000Y-73350000D01*
X108500001Y-73500001D02*
X108850000Y-73850000D01*
X108350000Y-73350000D02*
X108500001Y-73500001D01*
X108350000Y-73200000D02*
X108350000Y-70500002D01*
D27*
X106199992Y-76199992D02*
X106350000Y-76350000D01*
X106199992Y-70749935D02*
X106199992Y-76199992D01*
X101900000Y-76150000D02*
X102650000Y-75400000D01*
X102650000Y-66150000D02*
X102700000Y-66100000D01*
X102650000Y-75400000D02*
X102650000Y-66150000D01*
X102700000Y-66100000D02*
X102750000Y-66050000D01*
X108150000Y-78800000D02*
X106200004Y-78800000D01*
X100350000Y-76150000D02*
X100350000Y-75650000D01*
X100350000Y-75650000D02*
X101250000Y-74750000D01*
X101250000Y-74750000D02*
X101250000Y-65800000D01*
X108550000Y-81000000D02*
X106200000Y-81000000D01*
X124199990Y-54650000D02*
X124049990Y-54800000D01*
X125700000Y-54650000D02*
X124199990Y-54650000D01*
X123450000Y-72200000D02*
X126000000Y-72200000D01*
X124800000Y-70250000D02*
X124850000Y-70300000D01*
X123500000Y-70250000D02*
X124800000Y-70250000D01*
X123500000Y-74050000D02*
X126350000Y-74050000D01*
X94300000Y-75855038D02*
X94300000Y-76350012D01*
X94300000Y-73750000D02*
X94300000Y-75855038D01*
X94900000Y-73150000D02*
X94300000Y-73750000D01*
D26*
X96200000Y-74450000D02*
X96200000Y-76104437D01*
X96200000Y-76104437D02*
X96215498Y-76119935D01*
X83200000Y-83350000D02*
X85150000Y-83350000D01*
X110600000Y-73700000D02*
X109900000Y-73000000D01*
X109900000Y-70894974D02*
X109900000Y-70400000D01*
X109900000Y-73000000D02*
X109900000Y-70894974D01*
X113099998Y-61000000D02*
X113000000Y-60900002D01*
X115300011Y-61000000D02*
X113099998Y-61000000D01*
D27*
X97600000Y-73350000D02*
X97600000Y-76050000D01*
X97600000Y-76050000D02*
X97550000Y-76100000D01*
X102704497Y-64145503D02*
X102800000Y-64050000D01*
X99491840Y-64145503D02*
X102704497Y-64145503D01*
D26*
X85850001Y-88199999D02*
X85500000Y-88199999D01*
X87250000Y-86800000D02*
X85850001Y-88199999D01*
X91500000Y-82300000D02*
X89000000Y-82300000D01*
X106700000Y-83000000D02*
X109850000Y-83000000D01*
X88600000Y-73800000D02*
X87149999Y-72349999D01*
X88600000Y-77100000D02*
X88600000Y-73800000D01*
X87149999Y-72349999D02*
X86800000Y-72000000D01*
X104850000Y-76100000D02*
X104850000Y-71749957D01*
D27*
X84050000Y-75900000D02*
X83949979Y-75900000D01*
X85550000Y-74400000D02*
X84050000Y-75900000D01*
D26*
X121349990Y-75499990D02*
X121350000Y-75500000D01*
X121349990Y-71799933D02*
X121349990Y-75499990D01*
X85205026Y-72000000D02*
X85405026Y-72000000D01*
X82750000Y-74455026D02*
X85205026Y-72000000D01*
X82750000Y-74950000D02*
X82750000Y-74455026D01*
X85405026Y-72000000D02*
X85900000Y-72000000D01*
X108300000Y-90155026D02*
X108300000Y-90650000D01*
X108300000Y-89800000D02*
X108300000Y-90155026D01*
X111150000Y-86950000D02*
X108300000Y-89800000D01*
D27*
X92350000Y-76150000D02*
X92350000Y-73850000D01*
X92550001Y-73649999D02*
X92900000Y-73300000D01*
X92350000Y-73850000D02*
X92550001Y-73649999D01*
X102800000Y-60550000D02*
X99700001Y-60550000D01*
X110490000Y-50810000D02*
X110450000Y-50850000D01*
X110490000Y-45000000D02*
X110490000Y-50810000D01*
G36*
X79125714Y-53613811D02*
X78914552Y-53824605D01*
X78800131Y-54100161D01*
X78799870Y-54398530D01*
X78894541Y-54627649D01*
X78052104Y-55470086D01*
X77931368Y-55469980D01*
X77655612Y-55583921D01*
X77444450Y-55794715D01*
X77330029Y-56070271D01*
X77329768Y-56368640D01*
X77443709Y-56644396D01*
X77654503Y-56855558D01*
X77930059Y-56969979D01*
X78228428Y-56970240D01*
X78504184Y-56856299D01*
X78635712Y-56725000D01*
X124692164Y-56725000D01*
X124692164Y-57575000D01*
X124720056Y-57723231D01*
X124807660Y-57859372D01*
X124941329Y-57950704D01*
X125100000Y-57982836D01*
X126300000Y-57982836D01*
X126448231Y-57954944D01*
X126584372Y-57867340D01*
X126675704Y-57733671D01*
X126707836Y-57575000D01*
X126707836Y-56725000D01*
X126679944Y-56576769D01*
X126592340Y-56440628D01*
X126521829Y-56392450D01*
X126646768Y-56192617D01*
X126685558Y-56053691D01*
X126599569Y-55925000D01*
X125725000Y-55925000D01*
X125725000Y-55945000D01*
X125675000Y-55945000D01*
X125675000Y-55925000D01*
X124800431Y-55925000D01*
X124714442Y-56053691D01*
X124753232Y-56192617D01*
X124878155Y-56392425D01*
X124815628Y-56432660D01*
X124724296Y-56566329D01*
X124692164Y-56725000D01*
X78635712Y-56725000D01*
X78715346Y-56645505D01*
X78829767Y-56369949D01*
X78829874Y-56247952D01*
X79149590Y-55928236D01*
X85349844Y-55928236D01*
X85486572Y-56259143D01*
X85739525Y-56512538D01*
X86070194Y-56649843D01*
X86428236Y-56650156D01*
X86759143Y-56513428D01*
X87012538Y-56260475D01*
X87149843Y-55929806D01*
X87150156Y-55571764D01*
X87013428Y-55240857D01*
X86760475Y-54987462D01*
X86429806Y-54850157D01*
X86071764Y-54849844D01*
X85740857Y-54986572D01*
X85487462Y-55239525D01*
X85350157Y-55570194D01*
X85349844Y-55928236D01*
X79149590Y-55928236D01*
X79938909Y-55138917D01*
X80058134Y-54960484D01*
X80097348Y-54763342D01*
X80185448Y-54675395D01*
X80299869Y-54399839D01*
X80300130Y-54101470D01*
X80186189Y-53825714D01*
X79975395Y-53614552D01*
X79940350Y-53600000D01*
X85200000Y-53600000D01*
X85200000Y-53665193D01*
X85206839Y-53701539D01*
X85228319Y-53734920D01*
X85261094Y-53757314D01*
X85300000Y-53765193D01*
X109800000Y-53765193D01*
X109836346Y-53758354D01*
X109869727Y-53736874D01*
X109892121Y-53704099D01*
X109900000Y-53665193D01*
X109900000Y-53600000D01*
X124720191Y-53600000D01*
X124743208Y-53715714D01*
X124922046Y-53983363D01*
X124984360Y-54025000D01*
X124922046Y-54066637D01*
X124866344Y-54150000D01*
X124440340Y-54150000D01*
X124199829Y-54050131D01*
X123901460Y-54049870D01*
X123625704Y-54163811D01*
X123414542Y-54374605D01*
X123300121Y-54650161D01*
X123299860Y-54948530D01*
X123413801Y-55224286D01*
X123624595Y-55435448D01*
X123900151Y-55549869D01*
X124198520Y-55550130D01*
X124474276Y-55436189D01*
X124685438Y-55225395D01*
X124716745Y-55150000D01*
X124866344Y-55150000D01*
X124922046Y-55233363D01*
X124996128Y-55282863D01*
X124923959Y-55334314D01*
X124753232Y-55607383D01*
X124714442Y-55746309D01*
X124800431Y-55875000D01*
X125675000Y-55875000D01*
X125675000Y-55855000D01*
X125725000Y-55855000D01*
X125725000Y-55875000D01*
X126599569Y-55875000D01*
X126685558Y-55746309D01*
X126646768Y-55607383D01*
X126476041Y-55334314D01*
X126403872Y-55282863D01*
X126477954Y-55233363D01*
X126656792Y-54965714D01*
X126719591Y-54650000D01*
X126656792Y-54334286D01*
X126477954Y-54066637D01*
X126415640Y-54025000D01*
X126477954Y-53983363D01*
X126656792Y-53715714D01*
X126679809Y-53600000D01*
X127525000Y-53600000D01*
X127525000Y-97525000D01*
X123400000Y-97525000D01*
X123400000Y-97400000D01*
X123392650Y-97362371D01*
X123370711Y-97329289D01*
X123165759Y-97124337D01*
X123102055Y-97028997D01*
X122971003Y-96897945D01*
X122971000Y-96897944D01*
X122896223Y-96847979D01*
X125187377Y-96847979D01*
X125271244Y-97045580D01*
X125726843Y-97244873D01*
X126224028Y-97254645D01*
X126687107Y-97073409D01*
X126728756Y-97045580D01*
X126812623Y-96847979D01*
X126000000Y-96035355D01*
X125187377Y-96847979D01*
X122896223Y-96847979D01*
X122875664Y-96834242D01*
X122670711Y-96629289D01*
X122638906Y-96607879D01*
X122600000Y-96600000D01*
X122423835Y-96600000D01*
X122100000Y-96535586D01*
X122100000Y-96224028D01*
X124745355Y-96224028D01*
X124926591Y-96687107D01*
X124954420Y-96728756D01*
X125152021Y-96812623D01*
X125964645Y-96000000D01*
X126035355Y-96000000D01*
X126847979Y-96812623D01*
X127045580Y-96728756D01*
X127244873Y-96273157D01*
X127254645Y-95775972D01*
X127073409Y-95312893D01*
X127045580Y-95271244D01*
X126847979Y-95187377D01*
X126035355Y-96000000D01*
X125964645Y-96000000D01*
X125152021Y-95187377D01*
X124954420Y-95271244D01*
X124755127Y-95726843D01*
X124745355Y-96224028D01*
X122100000Y-96224028D01*
X122100000Y-95152021D01*
X125187377Y-95152021D01*
X126000000Y-95964645D01*
X126812623Y-95152021D01*
X126728756Y-94954420D01*
X126273157Y-94755127D01*
X125775972Y-94745355D01*
X125312893Y-94926591D01*
X125271244Y-94954420D01*
X125187377Y-95152021D01*
X122100000Y-95152021D01*
X122100000Y-92440748D01*
X122135000Y-92447836D01*
X123435000Y-92447836D01*
X123583231Y-92419944D01*
X123719372Y-92332340D01*
X123810704Y-92198671D01*
X123842836Y-92040000D01*
X123842836Y-91040000D01*
X123814944Y-90891769D01*
X123727340Y-90755628D01*
X123689156Y-90729538D01*
X123776059Y-90591318D01*
X123819666Y-90435429D01*
X123734609Y-90295000D01*
X122810000Y-90295000D01*
X122810000Y-90315000D01*
X122760000Y-90315000D01*
X122760000Y-90295000D01*
X121240000Y-90295000D01*
X121240000Y-90315000D01*
X121190000Y-90315000D01*
X121190000Y-90295000D01*
X120265391Y-90295000D01*
X120180334Y-90435429D01*
X120223941Y-90591318D01*
X120410926Y-90888718D01*
X120420331Y-90895387D01*
X120408033Y-90903604D01*
X120212937Y-91195585D01*
X120172277Y-91400000D01*
X115787517Y-91400000D01*
X115849869Y-91249839D01*
X115850130Y-90951470D01*
X115736189Y-90675714D01*
X115525395Y-90464552D01*
X115249839Y-90350131D01*
X114951470Y-90349870D01*
X114675714Y-90463811D01*
X114464552Y-90674605D01*
X114350131Y-90950161D01*
X114349870Y-91248530D01*
X114412457Y-91400000D01*
X108448845Y-91400000D01*
X108724286Y-91286189D01*
X108935448Y-91075395D01*
X109049869Y-90799839D01*
X109050130Y-90501470D01*
X108936189Y-90225714D01*
X108850000Y-90139375D01*
X108850000Y-90027818D01*
X111177793Y-87700024D01*
X111298530Y-87700130D01*
X111574286Y-87586189D01*
X111785448Y-87375395D01*
X111879644Y-87148544D01*
X115999870Y-87148544D01*
X116113811Y-87424300D01*
X116324605Y-87635462D01*
X116600161Y-87749883D01*
X116898530Y-87750144D01*
X117174286Y-87636203D01*
X117310727Y-87500000D01*
X117939329Y-87500000D01*
X118024628Y-87585448D01*
X118300184Y-87699869D01*
X118598553Y-87700130D01*
X118874309Y-87586189D01*
X119085471Y-87375395D01*
X119199892Y-87099839D01*
X119200153Y-86801470D01*
X119086212Y-86525714D01*
X119020613Y-86460000D01*
X120144429Y-86460000D01*
X120212937Y-86804415D01*
X120407100Y-87095000D01*
X120212937Y-87385585D01*
X120144429Y-87730000D01*
X120212937Y-88074415D01*
X120407100Y-88365000D01*
X120212937Y-88655585D01*
X120144429Y-89000000D01*
X120212937Y-89344415D01*
X120408033Y-89636396D01*
X120420331Y-89644613D01*
X120410926Y-89651282D01*
X120223941Y-89948682D01*
X120180334Y-90104571D01*
X120265391Y-90245000D01*
X121190000Y-90245000D01*
X121190000Y-90225000D01*
X121240000Y-90225000D01*
X121240000Y-90245000D01*
X122760000Y-90245000D01*
X122760000Y-90225000D01*
X122810000Y-90225000D01*
X122810000Y-90245000D01*
X123734609Y-90245000D01*
X123819666Y-90104571D01*
X123776059Y-89948682D01*
X123589074Y-89651282D01*
X123579669Y-89644613D01*
X123591967Y-89636396D01*
X123787063Y-89344415D01*
X123855571Y-89000000D01*
X123787063Y-88655585D01*
X123592900Y-88365000D01*
X123787063Y-88074415D01*
X123855571Y-87730000D01*
X123787063Y-87385585D01*
X123592900Y-87095000D01*
X123787063Y-86804415D01*
X123855571Y-86460000D01*
X123787063Y-86115585D01*
X123591967Y-85823604D01*
X123299986Y-85628508D01*
X122955571Y-85560000D01*
X122614429Y-85560000D01*
X122270014Y-85628508D01*
X122000000Y-85808926D01*
X121729986Y-85628508D01*
X121385571Y-85560000D01*
X121044429Y-85560000D01*
X120700014Y-85628508D01*
X120408033Y-85823604D01*
X120212937Y-86115585D01*
X120144429Y-86460000D01*
X119020613Y-86460000D01*
X118875418Y-86314552D01*
X118599862Y-86200131D01*
X118301493Y-86199870D01*
X118025737Y-86313811D01*
X117939398Y-86400000D01*
X117210767Y-86400000D01*
X117175395Y-86364566D01*
X116899839Y-86250145D01*
X116601470Y-86249884D01*
X116325714Y-86363825D01*
X116114552Y-86574619D01*
X116000131Y-86850175D01*
X115999870Y-87148544D01*
X111879644Y-87148544D01*
X111899869Y-87099839D01*
X111900130Y-86801470D01*
X111786189Y-86525714D01*
X111575395Y-86314552D01*
X111299839Y-86200131D01*
X111001470Y-86199870D01*
X110725714Y-86313811D01*
X110514552Y-86524605D01*
X110400131Y-86800161D01*
X110400024Y-86922159D01*
X107911091Y-89411091D01*
X107791866Y-89589524D01*
X107750000Y-89800000D01*
X107750000Y-90139306D01*
X107664552Y-90224605D01*
X107550131Y-90500161D01*
X107549870Y-90798530D01*
X107663811Y-91074286D01*
X107874605Y-91285448D01*
X108150161Y-91399869D01*
X108299917Y-91400000D01*
X108000000Y-91400000D01*
X107963654Y-91406839D01*
X107930273Y-91428319D01*
X107907879Y-91461094D01*
X107900000Y-91500000D01*
X107900000Y-96535585D01*
X107576165Y-96600000D01*
X107400000Y-96600000D01*
X107362371Y-96607350D01*
X107329289Y-96629289D01*
X107124337Y-96834241D01*
X107028997Y-96897945D01*
X106897945Y-97028997D01*
X106897945Y-97028998D01*
X106834242Y-97124336D01*
X106629289Y-97329289D01*
X106607879Y-97361094D01*
X106600000Y-97400000D01*
X106600000Y-97525000D01*
X80475000Y-97525000D01*
X80475000Y-96347979D01*
X81187377Y-96347979D01*
X81271244Y-96545580D01*
X81726843Y-96744873D01*
X82224028Y-96754645D01*
X82687107Y-96573409D01*
X82728756Y-96545580D01*
X82812623Y-96347979D01*
X82000000Y-95535355D01*
X81187377Y-96347979D01*
X80475000Y-96347979D01*
X80475000Y-95724028D01*
X80745355Y-95724028D01*
X80926591Y-96187107D01*
X80954420Y-96228756D01*
X81152021Y-96312623D01*
X81964645Y-95500000D01*
X82035355Y-95500000D01*
X82847979Y-96312623D01*
X83045580Y-96228756D01*
X83244873Y-95773157D01*
X83254645Y-95275972D01*
X83073409Y-94812893D01*
X83045580Y-94771244D01*
X82847979Y-94687377D01*
X82035355Y-95500000D01*
X81964645Y-95500000D01*
X81152021Y-94687377D01*
X80954420Y-94771244D01*
X80755127Y-95226843D01*
X80745355Y-95724028D01*
X80475000Y-95724028D01*
X80475000Y-95300000D01*
X80465873Y-95254115D01*
X80465873Y-95207332D01*
X80400000Y-94876165D01*
X80400000Y-94700000D01*
X80392650Y-94662371D01*
X80385787Y-94652021D01*
X81187377Y-94652021D01*
X82000000Y-95464645D01*
X82812623Y-94652021D01*
X82728756Y-94454420D01*
X82273157Y-94255127D01*
X81775972Y-94245355D01*
X81312893Y-94426591D01*
X81271244Y-94454420D01*
X81187377Y-94652021D01*
X80385787Y-94652021D01*
X80370711Y-94629289D01*
X80165759Y-94424337D01*
X80102055Y-94328997D01*
X79971003Y-94197945D01*
X79971000Y-94197944D01*
X79875664Y-94134242D01*
X79670711Y-93929289D01*
X79638906Y-93907879D01*
X79600000Y-93900000D01*
X79423835Y-93900000D01*
X79092667Y-93834127D01*
X79045885Y-93834127D01*
X79000000Y-93825000D01*
X66475000Y-93825000D01*
X66475000Y-91975000D01*
X68500000Y-91975000D01*
X68500000Y-92325000D01*
X68585688Y-92705780D01*
X68810571Y-93024784D01*
X69140413Y-93233446D01*
X69318922Y-93283468D01*
X69475000Y-93199653D01*
X69475000Y-91975000D01*
X69525000Y-91975000D01*
X69525000Y-93199653D01*
X69681078Y-93283468D01*
X69859587Y-93233446D01*
X70189429Y-93024784D01*
X70414312Y-92705780D01*
X70500000Y-92325000D01*
X70500000Y-91975000D01*
X75500000Y-91975000D01*
X75500000Y-92325000D01*
X75585688Y-92705780D01*
X75810571Y-93024784D01*
X76140413Y-93233446D01*
X76318922Y-93283468D01*
X76475000Y-93199653D01*
X76475000Y-91975000D01*
X76525000Y-91975000D01*
X76525000Y-93199653D01*
X76681078Y-93283468D01*
X76859587Y-93233446D01*
X77189429Y-93024784D01*
X77414312Y-92705780D01*
X77500000Y-92325000D01*
X77500000Y-91975000D01*
X76525000Y-91975000D01*
X76475000Y-91975000D01*
X75500000Y-91975000D01*
X70500000Y-91975000D01*
X69525000Y-91975000D01*
X69475000Y-91975000D01*
X68500000Y-91975000D01*
X66475000Y-91975000D01*
X66475000Y-91575000D01*
X68500000Y-91575000D01*
X68500000Y-91925000D01*
X69475000Y-91925000D01*
X69475000Y-90700347D01*
X69525000Y-90700347D01*
X69525000Y-91925000D01*
X70500000Y-91925000D01*
X70500000Y-91575000D01*
X75500000Y-91575000D01*
X75500000Y-91925000D01*
X76475000Y-91925000D01*
X76475000Y-90700347D01*
X76525000Y-90700347D01*
X76525000Y-91925000D01*
X77500000Y-91925000D01*
X77500000Y-91575000D01*
X77414312Y-91194220D01*
X77189429Y-90875216D01*
X76859587Y-90666554D01*
X76681078Y-90616532D01*
X76525000Y-90700347D01*
X76475000Y-90700347D01*
X76318922Y-90616532D01*
X76140413Y-90666554D01*
X75810571Y-90875216D01*
X75585688Y-91194220D01*
X75500000Y-91575000D01*
X70500000Y-91575000D01*
X70414312Y-91194220D01*
X70189429Y-90875216D01*
X69859587Y-90666554D01*
X69681078Y-90616532D01*
X69525000Y-90700347D01*
X69475000Y-90700347D01*
X69318922Y-90616532D01*
X69140413Y-90666554D01*
X68810571Y-90875216D01*
X68585688Y-91194220D01*
X68500000Y-91575000D01*
X66475000Y-91575000D01*
X66475000Y-90007835D01*
X69777520Y-90007835D01*
X69846172Y-90192450D01*
X70256601Y-90370920D01*
X70704086Y-90378740D01*
X71120501Y-90214719D01*
X71153828Y-90192450D01*
X71222480Y-90007835D01*
X74777520Y-90007835D01*
X74846172Y-90192450D01*
X75256601Y-90370920D01*
X75704086Y-90378740D01*
X76120501Y-90214719D01*
X76153828Y-90192450D01*
X76222480Y-90007835D01*
X75500000Y-89285355D01*
X74777520Y-90007835D01*
X71222480Y-90007835D01*
X70500000Y-89285355D01*
X69777520Y-90007835D01*
X66475000Y-90007835D01*
X66475000Y-89454086D01*
X69371260Y-89454086D01*
X69535281Y-89870501D01*
X69557550Y-89903828D01*
X69742165Y-89972480D01*
X70464645Y-89250000D01*
X70535355Y-89250000D01*
X71257835Y-89972480D01*
X71442450Y-89903828D01*
X71620920Y-89493399D01*
X71621607Y-89454086D01*
X74371260Y-89454086D01*
X74535281Y-89870501D01*
X74557550Y-89903828D01*
X74742165Y-89972480D01*
X75464645Y-89250000D01*
X75535355Y-89250000D01*
X76257835Y-89972480D01*
X76442450Y-89903828D01*
X76620920Y-89493399D01*
X76628740Y-89045914D01*
X76464719Y-88629499D01*
X76442450Y-88596172D01*
X76257835Y-88527520D01*
X75535355Y-89250000D01*
X75464645Y-89250000D01*
X74742165Y-88527520D01*
X74557550Y-88596172D01*
X74379080Y-89006601D01*
X74371260Y-89454086D01*
X71621607Y-89454086D01*
X71628740Y-89045914D01*
X71464719Y-88629499D01*
X71442450Y-88596172D01*
X71257835Y-88527520D01*
X70535355Y-89250000D01*
X70464645Y-89250000D01*
X69742165Y-88527520D01*
X69557550Y-88596172D01*
X69379080Y-89006601D01*
X69371260Y-89454086D01*
X66475000Y-89454086D01*
X66475000Y-88492165D01*
X69777520Y-88492165D01*
X70500000Y-89214645D01*
X71222480Y-88492165D01*
X74777520Y-88492165D01*
X75500000Y-89214645D01*
X76222480Y-88492165D01*
X76169067Y-88348529D01*
X84749870Y-88348529D01*
X84863811Y-88624285D01*
X85074605Y-88835447D01*
X85350161Y-88949868D01*
X85648530Y-88950129D01*
X85924286Y-88836188D01*
X86050596Y-88710099D01*
X86060477Y-88708133D01*
X86105221Y-88678236D01*
X90099844Y-88678236D01*
X90236572Y-89009143D01*
X90489525Y-89262538D01*
X90820194Y-89399843D01*
X91178236Y-89400156D01*
X91509143Y-89263428D01*
X91762538Y-89010475D01*
X91899843Y-88679806D01*
X91899844Y-88678236D01*
X93599844Y-88678236D01*
X93736572Y-89009143D01*
X93989525Y-89262538D01*
X94320194Y-89399843D01*
X94678236Y-89400156D01*
X95009143Y-89263428D01*
X95262538Y-89010475D01*
X95399843Y-88679806D01*
X95399844Y-88678236D01*
X100099844Y-88678236D01*
X100236572Y-89009143D01*
X100489525Y-89262538D01*
X100820194Y-89399843D01*
X101178236Y-89400156D01*
X101509143Y-89263428D01*
X101762538Y-89010475D01*
X101899843Y-88679806D01*
X101900156Y-88321764D01*
X101763428Y-87990857D01*
X101510475Y-87737462D01*
X101179806Y-87600157D01*
X100821764Y-87599844D01*
X100490857Y-87736572D01*
X100237462Y-87989525D01*
X100100157Y-88320194D01*
X100099844Y-88678236D01*
X95399844Y-88678236D01*
X95400156Y-88321764D01*
X95263428Y-87990857D01*
X95010475Y-87737462D01*
X94679806Y-87600157D01*
X94321764Y-87599844D01*
X93990857Y-87736572D01*
X93737462Y-87989525D01*
X93600157Y-88320194D01*
X93599844Y-88678236D01*
X91899844Y-88678236D01*
X91900156Y-88321764D01*
X91763428Y-87990857D01*
X91510475Y-87737462D01*
X91179806Y-87600157D01*
X90821764Y-87599844D01*
X90490857Y-87736572D01*
X90237462Y-87989525D01*
X90100157Y-88320194D01*
X90099844Y-88678236D01*
X86105221Y-88678236D01*
X86238910Y-88588908D01*
X87277793Y-87550024D01*
X87398530Y-87550130D01*
X87674286Y-87436189D01*
X87885448Y-87225395D01*
X87999869Y-86949839D01*
X88000130Y-86651470D01*
X87886189Y-86375714D01*
X87675395Y-86164552D01*
X87399839Y-86050131D01*
X87101470Y-86049870D01*
X86825714Y-86163811D01*
X86614552Y-86374605D01*
X86500131Y-86650161D01*
X86500024Y-86772158D01*
X85771524Y-87500658D01*
X85649839Y-87450130D01*
X85351470Y-87449869D01*
X85075714Y-87563810D01*
X84864552Y-87774604D01*
X84750131Y-88050160D01*
X84749870Y-88348529D01*
X76169067Y-88348529D01*
X76153828Y-88307550D01*
X75743399Y-88129080D01*
X75295914Y-88121260D01*
X74879499Y-88285281D01*
X74846172Y-88307550D01*
X74777520Y-88492165D01*
X71222480Y-88492165D01*
X71153828Y-88307550D01*
X70743399Y-88129080D01*
X70295914Y-88121260D01*
X69879499Y-88285281D01*
X69846172Y-88307550D01*
X69777520Y-88492165D01*
X66475000Y-88492165D01*
X66475000Y-85825000D01*
X70700000Y-85825000D01*
X70700000Y-87529565D01*
X70760896Y-87676582D01*
X70873418Y-87789104D01*
X71020435Y-87850000D01*
X72725000Y-87850000D01*
X72825000Y-87750000D01*
X72825000Y-85725000D01*
X72875000Y-85725000D01*
X72875000Y-87750000D01*
X72975000Y-87850000D01*
X74679565Y-87850000D01*
X74826582Y-87789104D01*
X74939104Y-87676582D01*
X75000000Y-87529565D01*
X75000000Y-85825000D01*
X74900000Y-85725000D01*
X72875000Y-85725000D01*
X72825000Y-85725000D01*
X70800000Y-85725000D01*
X70700000Y-85825000D01*
X66475000Y-85825000D01*
X66475000Y-84850000D01*
X68025000Y-84850000D01*
X68125000Y-84750000D01*
X68125000Y-82725000D01*
X68175000Y-82725000D01*
X68175000Y-84750000D01*
X68275000Y-84850000D01*
X69979565Y-84850000D01*
X70126582Y-84789104D01*
X70239104Y-84676582D01*
X70300000Y-84529565D01*
X70300000Y-83870435D01*
X70700000Y-83870435D01*
X70700000Y-85575000D01*
X70800000Y-85675000D01*
X72825000Y-85675000D01*
X72825000Y-83650000D01*
X72875000Y-83650000D01*
X72875000Y-85675000D01*
X74900000Y-85675000D01*
X74996764Y-85578236D01*
X82699844Y-85578236D01*
X82836572Y-85909143D01*
X83089525Y-86162538D01*
X83420194Y-86299843D01*
X83778236Y-86300156D01*
X84109143Y-86163428D01*
X84362538Y-85910475D01*
X84499843Y-85579806D01*
X84500156Y-85221764D01*
X84363428Y-84890857D01*
X84110475Y-84637462D01*
X83779806Y-84500157D01*
X83421764Y-84499844D01*
X83090857Y-84636572D01*
X82837462Y-84889525D01*
X82700157Y-85220194D01*
X82699844Y-85578236D01*
X74996764Y-85578236D01*
X75000000Y-85575000D01*
X75000000Y-83870435D01*
X74939104Y-83723418D01*
X74826582Y-83610896D01*
X74679565Y-83550000D01*
X72975000Y-83550000D01*
X72875000Y-83650000D01*
X72825000Y-83650000D01*
X72725000Y-83550000D01*
X71020435Y-83550000D01*
X70873418Y-83610896D01*
X70760896Y-83723418D01*
X70700000Y-83870435D01*
X70300000Y-83870435D01*
X70300000Y-83498530D01*
X82449870Y-83498530D01*
X82563811Y-83774286D01*
X82774605Y-83985448D01*
X83050161Y-84099869D01*
X83348530Y-84100130D01*
X83624286Y-83986189D01*
X83710625Y-83900000D01*
X84639306Y-83900000D01*
X84724605Y-83985448D01*
X85000161Y-84099869D01*
X85298530Y-84100130D01*
X85574286Y-83986189D01*
X85785448Y-83775395D01*
X85899869Y-83499839D01*
X85900130Y-83201470D01*
X85878256Y-83148530D01*
X105949870Y-83148530D01*
X106063811Y-83424286D01*
X106274605Y-83635448D01*
X106550161Y-83749869D01*
X106848530Y-83750130D01*
X107124286Y-83636189D01*
X107210625Y-83550000D01*
X109339306Y-83550000D01*
X109424605Y-83635448D01*
X109700161Y-83749869D01*
X109998530Y-83750130D01*
X110274286Y-83636189D01*
X110485448Y-83425395D01*
X110599869Y-83149839D01*
X110600130Y-82851470D01*
X110486189Y-82575714D01*
X110275395Y-82364552D01*
X109999839Y-82250131D01*
X109701470Y-82249870D01*
X109425714Y-82363811D01*
X109339375Y-82450000D01*
X107210694Y-82450000D01*
X107125395Y-82364552D01*
X106849839Y-82250131D01*
X106551470Y-82249870D01*
X106275714Y-82363811D01*
X106064552Y-82574605D01*
X105950131Y-82850161D01*
X105949870Y-83148530D01*
X85878256Y-83148530D01*
X85786189Y-82925714D01*
X85575395Y-82714552D01*
X85299839Y-82600131D01*
X85001470Y-82599870D01*
X84725714Y-82713811D01*
X84639375Y-82800000D01*
X83710694Y-82800000D01*
X83625395Y-82714552D01*
X83349839Y-82600131D01*
X83051470Y-82599870D01*
X82775714Y-82713811D01*
X82564552Y-82924605D01*
X82450131Y-83200161D01*
X82449870Y-83498530D01*
X70300000Y-83498530D01*
X70300000Y-82825000D01*
X70200000Y-82725000D01*
X68175000Y-82725000D01*
X68125000Y-82725000D01*
X68105000Y-82725000D01*
X68105000Y-82675000D01*
X68125000Y-82675000D01*
X68125000Y-80650000D01*
X68175000Y-80650000D01*
X68175000Y-82675000D01*
X70200000Y-82675000D01*
X70300000Y-82575000D01*
X70300000Y-82448530D01*
X88249870Y-82448530D01*
X88363811Y-82724286D01*
X88574605Y-82935448D01*
X88850161Y-83049869D01*
X89148530Y-83050130D01*
X89424286Y-82936189D01*
X89510625Y-82850000D01*
X90989306Y-82850000D01*
X91074605Y-82935448D01*
X91350161Y-83049869D01*
X91648530Y-83050130D01*
X91924286Y-82936189D01*
X92135448Y-82725395D01*
X92249869Y-82449839D01*
X92250130Y-82151470D01*
X92136189Y-81875714D01*
X91925395Y-81664552D01*
X91649839Y-81550131D01*
X91351470Y-81549870D01*
X91075714Y-81663811D01*
X90989375Y-81750000D01*
X89510694Y-81750000D01*
X89425395Y-81664552D01*
X89149839Y-81550131D01*
X88851470Y-81549870D01*
X88575714Y-81663811D01*
X88364552Y-81874605D01*
X88250131Y-82150161D01*
X88249870Y-82448530D01*
X70300000Y-82448530D01*
X70300000Y-80870435D01*
X70239104Y-80723418D01*
X70126582Y-80610896D01*
X69979565Y-80550000D01*
X68275000Y-80550000D01*
X68175000Y-80650000D01*
X68125000Y-80650000D01*
X68025000Y-80550000D01*
X66475000Y-80550000D01*
X66475000Y-77950000D01*
X70692164Y-77950000D01*
X70692164Y-81450000D01*
X70720056Y-81598231D01*
X70807660Y-81734372D01*
X70941329Y-81825704D01*
X71100000Y-81857836D01*
X74600000Y-81857836D01*
X74748231Y-81829944D01*
X74884372Y-81742340D01*
X74975704Y-81608671D01*
X75007836Y-81450000D01*
X75007836Y-80998526D01*
X82499870Y-80998526D01*
X82613811Y-81274282D01*
X82824605Y-81485444D01*
X83100161Y-81599865D01*
X83398530Y-81600126D01*
X83640861Y-81499996D01*
X85259640Y-81499996D01*
X85500161Y-81599869D01*
X85798530Y-81600130D01*
X86074286Y-81486189D01*
X86285448Y-81275395D01*
X86338127Y-81148530D01*
X105449870Y-81148530D01*
X105563811Y-81424286D01*
X105774605Y-81635448D01*
X106050161Y-81749869D01*
X106348530Y-81750130D01*
X106624286Y-81636189D01*
X106760713Y-81500000D01*
X107989393Y-81500000D01*
X108124605Y-81635448D01*
X108400161Y-81749869D01*
X108698530Y-81750130D01*
X108974286Y-81636189D01*
X109185448Y-81425395D01*
X109299869Y-81149839D01*
X109300130Y-80851470D01*
X109186189Y-80575714D01*
X108975395Y-80364552D01*
X108699839Y-80250131D01*
X108401470Y-80249870D01*
X108125714Y-80363811D01*
X107989287Y-80500000D01*
X106760607Y-80500000D01*
X106625395Y-80364552D01*
X106349839Y-80250131D01*
X106051470Y-80249870D01*
X105775714Y-80363811D01*
X105564552Y-80574605D01*
X105450131Y-80850161D01*
X105449870Y-81148530D01*
X86338127Y-81148530D01*
X86399869Y-80999839D01*
X86400130Y-80701470D01*
X86286189Y-80425714D01*
X86075395Y-80214552D01*
X85799839Y-80100131D01*
X85501470Y-80099870D01*
X85259149Y-80199996D01*
X83640350Y-80199996D01*
X83399839Y-80100127D01*
X83101470Y-80099866D01*
X82825714Y-80213807D01*
X82614552Y-80424601D01*
X82500131Y-80700157D01*
X82499870Y-80998526D01*
X75007836Y-80998526D01*
X75007836Y-78678236D01*
X93099844Y-78678236D01*
X93236572Y-79009143D01*
X93489525Y-79262538D01*
X93820194Y-79399843D01*
X94178236Y-79400156D01*
X94509143Y-79263428D01*
X94762538Y-79010475D01*
X94899843Y-78679806D01*
X94899844Y-78678236D01*
X99099844Y-78678236D01*
X99236572Y-79009143D01*
X99489525Y-79262538D01*
X99820194Y-79399843D01*
X100178236Y-79400156D01*
X100509143Y-79263428D01*
X100762538Y-79010475D01*
X100788259Y-78948530D01*
X105449874Y-78948530D01*
X105563815Y-79224286D01*
X105774609Y-79435448D01*
X106050165Y-79549869D01*
X106348534Y-79550130D01*
X106624290Y-79436189D01*
X106760717Y-79300000D01*
X107589393Y-79300000D01*
X107724605Y-79435448D01*
X108000161Y-79549869D01*
X108298530Y-79550130D01*
X108574286Y-79436189D01*
X108785448Y-79225395D01*
X108899869Y-78949839D01*
X108900130Y-78651470D01*
X108786189Y-78375714D01*
X108575395Y-78164552D01*
X108299839Y-78050131D01*
X108001470Y-78049870D01*
X107725714Y-78163811D01*
X107589287Y-78300000D01*
X106760611Y-78300000D01*
X106625399Y-78164552D01*
X106349843Y-78050131D01*
X106051474Y-78049870D01*
X105775718Y-78163811D01*
X105564556Y-78374605D01*
X105450135Y-78650161D01*
X105449874Y-78948530D01*
X100788259Y-78948530D01*
X100899843Y-78679806D01*
X100900156Y-78321764D01*
X100763428Y-77990857D01*
X100510475Y-77737462D01*
X100179806Y-77600157D01*
X99821764Y-77599844D01*
X99490857Y-77736572D01*
X99237462Y-77989525D01*
X99100157Y-78320194D01*
X99099844Y-78678236D01*
X94899844Y-78678236D01*
X94900156Y-78321764D01*
X94763428Y-77990857D01*
X94510475Y-77737462D01*
X94179806Y-77600157D01*
X93821764Y-77599844D01*
X93490857Y-77736572D01*
X93237462Y-77989525D01*
X93100157Y-78320194D01*
X93099844Y-78678236D01*
X75007836Y-78678236D01*
X75007836Y-77950000D01*
X74979944Y-77801769D01*
X74892340Y-77665628D01*
X74758671Y-77574296D01*
X74600000Y-77542164D01*
X71100000Y-77542164D01*
X70951769Y-77570056D01*
X70815628Y-77657660D01*
X70724296Y-77791329D01*
X70692164Y-77950000D01*
X66475000Y-77950000D01*
X66475000Y-76048530D01*
X83199849Y-76048530D01*
X83313790Y-76324286D01*
X83524584Y-76535448D01*
X83800140Y-76649869D01*
X84098509Y-76650130D01*
X84374265Y-76536189D01*
X84585427Y-76325395D01*
X84699848Y-76049839D01*
X84699929Y-75957177D01*
X85507144Y-75149963D01*
X85698530Y-75150130D01*
X85974286Y-75036189D01*
X86185448Y-74825395D01*
X86299869Y-74549839D01*
X86300130Y-74251470D01*
X86186189Y-73975714D01*
X85975395Y-73764552D01*
X85699839Y-73650131D01*
X85401470Y-73649870D01*
X85125714Y-73763811D01*
X84914552Y-73974605D01*
X84800131Y-74250161D01*
X84799962Y-74442931D01*
X84092769Y-75150125D01*
X83801449Y-75149870D01*
X83525693Y-75263811D01*
X83314531Y-75474605D01*
X83200110Y-75750161D01*
X83199849Y-76048530D01*
X66475000Y-76048530D01*
X66475000Y-75098530D01*
X81999870Y-75098530D01*
X82113811Y-75374286D01*
X82324605Y-75585448D01*
X82600161Y-75699869D01*
X82898530Y-75700130D01*
X83174286Y-75586189D01*
X83385448Y-75375395D01*
X83499869Y-75099839D01*
X83500130Y-74801470D01*
X83406931Y-74575913D01*
X85411056Y-72571788D01*
X85474605Y-72635448D01*
X85750161Y-72749869D01*
X86048530Y-72750130D01*
X86324286Y-72636189D01*
X86349860Y-72610660D01*
X86374605Y-72635448D01*
X86650161Y-72749869D01*
X86772158Y-72749976D01*
X88050000Y-74027818D01*
X88050000Y-76589306D01*
X87964552Y-76674605D01*
X87850131Y-76950161D01*
X87849870Y-77248530D01*
X87963811Y-77524286D01*
X88174605Y-77735448D01*
X88450161Y-77849869D01*
X88748530Y-77850130D01*
X89024286Y-77736189D01*
X89235448Y-77525395D01*
X89349869Y-77249839D01*
X89350130Y-76951470D01*
X89236189Y-76675714D01*
X89150000Y-76589375D01*
X89150000Y-76298530D01*
X91599870Y-76298530D01*
X91713811Y-76574286D01*
X91924605Y-76785448D01*
X92200161Y-76899869D01*
X92498530Y-76900130D01*
X92774286Y-76786189D01*
X92985448Y-76575395D01*
X93017360Y-76498542D01*
X93549870Y-76498542D01*
X93663811Y-76774298D01*
X93874605Y-76985460D01*
X94150161Y-77099881D01*
X94448530Y-77100142D01*
X94724286Y-76986201D01*
X94935448Y-76775407D01*
X95049869Y-76499851D01*
X95050130Y-76201482D01*
X94936189Y-75925726D01*
X94800000Y-75789299D01*
X94800000Y-74598530D01*
X95449870Y-74598530D01*
X95563811Y-74874286D01*
X95650000Y-74960625D01*
X95650000Y-75624712D01*
X95580050Y-75694540D01*
X95465629Y-75970096D01*
X95465368Y-76268465D01*
X95579309Y-76544221D01*
X95790103Y-76755383D01*
X96065659Y-76869804D01*
X96364028Y-76870065D01*
X96639784Y-76756124D01*
X96850946Y-76545330D01*
X96886814Y-76458950D01*
X96913811Y-76524286D01*
X97124605Y-76735448D01*
X97400161Y-76849869D01*
X97698530Y-76850130D01*
X97974286Y-76736189D01*
X98185448Y-76525395D01*
X98279650Y-76298530D01*
X99599870Y-76298530D01*
X99713811Y-76574286D01*
X99924605Y-76785448D01*
X100200161Y-76899869D01*
X100498530Y-76900130D01*
X100774286Y-76786189D01*
X100985448Y-76575395D01*
X101099869Y-76299839D01*
X101099870Y-76298530D01*
X101149870Y-76298530D01*
X101263811Y-76574286D01*
X101474605Y-76785448D01*
X101750161Y-76899869D01*
X102048530Y-76900130D01*
X102324286Y-76786189D01*
X102535448Y-76575395D01*
X102649869Y-76299839D01*
X102650038Y-76107069D01*
X103003553Y-75753554D01*
X103111940Y-75591342D01*
X103127214Y-75514552D01*
X103150000Y-75400000D01*
X103150000Y-71898487D01*
X104099870Y-71898487D01*
X104213811Y-72174243D01*
X104300000Y-72260582D01*
X104300000Y-75589306D01*
X104214552Y-75674605D01*
X104100131Y-75950161D01*
X104099870Y-76248530D01*
X104213811Y-76524286D01*
X104424605Y-76735448D01*
X104700161Y-76849869D01*
X104998530Y-76850130D01*
X105274286Y-76736189D01*
X105485448Y-76525395D01*
X105599869Y-76249839D01*
X105600130Y-75951470D01*
X105486189Y-75675714D01*
X105400000Y-75589375D01*
X105400000Y-72260651D01*
X105485448Y-72175352D01*
X105599869Y-71899796D01*
X105600130Y-71601427D01*
X105486189Y-71325671D01*
X105275395Y-71114509D01*
X104999839Y-71000088D01*
X104701470Y-70999827D01*
X104425714Y-71113768D01*
X104214552Y-71324562D01*
X104100131Y-71600118D01*
X104099870Y-71898487D01*
X103150000Y-71898487D01*
X103150000Y-70898465D01*
X105449862Y-70898465D01*
X105563803Y-71174221D01*
X105699992Y-71310648D01*
X105699992Y-75959669D01*
X105600131Y-76200161D01*
X105599870Y-76498530D01*
X105713811Y-76774286D01*
X105924605Y-76985448D01*
X106200161Y-77099869D01*
X106498530Y-77100130D01*
X106774286Y-76986189D01*
X106985448Y-76775395D01*
X107099869Y-76499839D01*
X107100130Y-76201470D01*
X106986189Y-75925714D01*
X106775395Y-75714552D01*
X106699992Y-75683242D01*
X106699992Y-71310542D01*
X106835440Y-71175330D01*
X106949861Y-70899774D01*
X106950080Y-70648532D01*
X107599870Y-70648532D01*
X107713811Y-70924288D01*
X107800000Y-71010627D01*
X107800000Y-73350000D01*
X107841866Y-73560476D01*
X107961091Y-73738909D01*
X108099976Y-73877794D01*
X108099870Y-73998530D01*
X108213811Y-74274286D01*
X108300000Y-74360625D01*
X108300000Y-76521370D01*
X108341866Y-76731846D01*
X108461091Y-76910279D01*
X108514291Y-76963479D01*
X108514185Y-77084215D01*
X108628126Y-77359971D01*
X108838920Y-77571133D01*
X109114476Y-77685554D01*
X109412845Y-77685815D01*
X109688601Y-77571874D01*
X109899763Y-77361080D01*
X110014184Y-77085524D01*
X110014445Y-76787155D01*
X109936507Y-76598530D01*
X122699860Y-76598530D01*
X122813801Y-76874286D01*
X123024595Y-77085448D01*
X123300151Y-77199869D01*
X123598520Y-77200130D01*
X123840851Y-77100000D01*
X124909650Y-77100000D01*
X125150161Y-77199869D01*
X125448530Y-77200130D01*
X125724286Y-77086189D01*
X125935448Y-76875395D01*
X126049869Y-76599839D01*
X126050130Y-76301470D01*
X125936189Y-76025714D01*
X125725395Y-75814552D01*
X125449839Y-75700131D01*
X125151470Y-75699870D01*
X124909139Y-75800000D01*
X123840340Y-75800000D01*
X123599829Y-75700131D01*
X123301460Y-75699870D01*
X123025704Y-75813811D01*
X122814542Y-76024605D01*
X122700121Y-76300161D01*
X122699860Y-76598530D01*
X109936507Y-76598530D01*
X109900504Y-76511399D01*
X109689710Y-76300237D01*
X109414154Y-76185816D01*
X109400000Y-76185804D01*
X109400000Y-74360694D01*
X109485448Y-74275395D01*
X109599869Y-73999839D01*
X109600130Y-73701470D01*
X109486189Y-73425714D01*
X109275395Y-73214552D01*
X108999839Y-73100131D01*
X108900000Y-73100044D01*
X108900000Y-71010696D01*
X108985448Y-70925397D01*
X109099869Y-70649841D01*
X109099957Y-70548530D01*
X109149870Y-70548530D01*
X109263811Y-70824286D01*
X109350000Y-70910625D01*
X109350000Y-73000000D01*
X109391866Y-73210476D01*
X109511091Y-73388909D01*
X109849976Y-73727793D01*
X109849870Y-73848530D01*
X109963811Y-74124286D01*
X110174605Y-74335448D01*
X110450161Y-74449869D01*
X110748530Y-74450130D01*
X111024286Y-74336189D01*
X111112030Y-74248597D01*
X114149870Y-74248597D01*
X114263811Y-74524353D01*
X114474605Y-74735515D01*
X114750161Y-74849936D01*
X115048530Y-74850197D01*
X115324286Y-74736256D01*
X115535448Y-74525462D01*
X115649869Y-74249906D01*
X115650130Y-73951537D01*
X115536189Y-73675781D01*
X115500000Y-73639529D01*
X115500000Y-71948463D01*
X120599860Y-71948463D01*
X120713801Y-72224219D01*
X120799990Y-72310558D01*
X120799990Y-74989316D01*
X120714552Y-75074605D01*
X120600131Y-75350161D01*
X120599870Y-75648530D01*
X120713811Y-75924286D01*
X120924605Y-76135448D01*
X121200161Y-76249869D01*
X121498530Y-76250130D01*
X121774286Y-76136189D01*
X121985448Y-75925395D01*
X122099869Y-75649839D01*
X122100130Y-75351470D01*
X121986189Y-75075714D01*
X121899990Y-74989365D01*
X121899990Y-74198530D01*
X122749870Y-74198530D01*
X122863811Y-74474286D01*
X123074605Y-74685448D01*
X123350161Y-74799869D01*
X123648530Y-74800130D01*
X123924286Y-74686189D01*
X124060713Y-74550000D01*
X125789393Y-74550000D01*
X125924605Y-74685448D01*
X126200161Y-74799869D01*
X126498530Y-74800130D01*
X126774286Y-74686189D01*
X126985448Y-74475395D01*
X127099869Y-74199839D01*
X127100130Y-73901470D01*
X126986189Y-73625714D01*
X126775395Y-73414552D01*
X126499839Y-73300131D01*
X126201470Y-73299870D01*
X125925714Y-73413811D01*
X125789287Y-73550000D01*
X124060607Y-73550000D01*
X123925395Y-73414552D01*
X123649839Y-73300131D01*
X123351470Y-73299870D01*
X123075714Y-73413811D01*
X122864552Y-73624605D01*
X122750131Y-73900161D01*
X122749870Y-74198530D01*
X121899990Y-74198530D01*
X121899990Y-72348530D01*
X122699870Y-72348530D01*
X122813811Y-72624286D01*
X123024605Y-72835448D01*
X123300161Y-72949869D01*
X123598530Y-72950130D01*
X123874286Y-72836189D01*
X124010713Y-72700000D01*
X125439393Y-72700000D01*
X125574605Y-72835448D01*
X125850161Y-72949869D01*
X126148530Y-72950130D01*
X126424286Y-72836189D01*
X126635448Y-72625395D01*
X126749869Y-72349839D01*
X126750130Y-72051470D01*
X126636189Y-71775714D01*
X126425395Y-71564552D01*
X126149839Y-71450131D01*
X125851470Y-71449870D01*
X125575714Y-71563811D01*
X125439287Y-71700000D01*
X124010607Y-71700000D01*
X123875395Y-71564552D01*
X123599839Y-71450131D01*
X123301470Y-71449870D01*
X123025714Y-71563811D01*
X122814552Y-71774605D01*
X122700131Y-72050161D01*
X122699870Y-72348530D01*
X121899990Y-72348530D01*
X121899990Y-72310627D01*
X121985438Y-72225328D01*
X122099859Y-71949772D01*
X122100120Y-71651403D01*
X121986179Y-71375647D01*
X121775385Y-71164485D01*
X121499829Y-71050064D01*
X121201460Y-71049803D01*
X120925704Y-71163744D01*
X120714542Y-71374538D01*
X120600121Y-71650094D01*
X120599860Y-71948463D01*
X115500000Y-71948463D01*
X115500000Y-71110694D01*
X115585448Y-71025395D01*
X115699869Y-70749839D01*
X115700130Y-70451470D01*
X115678256Y-70398530D01*
X122749870Y-70398530D01*
X122863811Y-70674286D01*
X123074605Y-70885448D01*
X123350161Y-70999869D01*
X123648530Y-71000130D01*
X123924286Y-70886189D01*
X124060713Y-70750000D01*
X124239480Y-70750000D01*
X124424605Y-70935448D01*
X124700161Y-71049869D01*
X124998530Y-71050130D01*
X125274286Y-70936189D01*
X125485448Y-70725395D01*
X125599869Y-70449839D01*
X125600130Y-70151470D01*
X125486189Y-69875714D01*
X125275395Y-69664552D01*
X124999839Y-69550131D01*
X124701470Y-69549870D01*
X124425714Y-69663811D01*
X124339375Y-69750000D01*
X124060607Y-69750000D01*
X123925395Y-69614552D01*
X123649839Y-69500131D01*
X123351470Y-69499870D01*
X123075714Y-69613811D01*
X122864552Y-69824605D01*
X122750131Y-70100161D01*
X122749870Y-70398530D01*
X115678256Y-70398530D01*
X115586189Y-70175714D01*
X115375395Y-69964552D01*
X115099839Y-69850131D01*
X114801470Y-69849870D01*
X114525714Y-69963811D01*
X114314552Y-70174605D01*
X114200131Y-70450161D01*
X114199870Y-70748530D01*
X114313811Y-71024286D01*
X114400000Y-71110625D01*
X114400000Y-73539460D01*
X114264552Y-73674672D01*
X114150131Y-73950228D01*
X114149870Y-74248597D01*
X111112030Y-74248597D01*
X111235448Y-74125395D01*
X111349869Y-73849839D01*
X111350130Y-73551470D01*
X111236189Y-73275714D01*
X111025395Y-73064552D01*
X110749839Y-72950131D01*
X110627842Y-72950024D01*
X110450000Y-72772182D01*
X110450000Y-70910694D01*
X110535448Y-70825395D01*
X110649869Y-70549839D01*
X110650130Y-70251470D01*
X110536189Y-69975714D01*
X110325395Y-69764552D01*
X110049839Y-69650131D01*
X109751470Y-69649870D01*
X109475714Y-69763811D01*
X109264552Y-69974605D01*
X109150131Y-70250161D01*
X109149870Y-70548530D01*
X109099957Y-70548530D01*
X109100130Y-70351472D01*
X108986189Y-70075716D01*
X108775395Y-69864554D01*
X108499839Y-69750133D01*
X108201470Y-69749872D01*
X107925714Y-69863813D01*
X107714552Y-70074607D01*
X107600131Y-70350163D01*
X107599870Y-70648532D01*
X106950080Y-70648532D01*
X106950122Y-70601405D01*
X106836181Y-70325649D01*
X106625387Y-70114487D01*
X106349831Y-70000066D01*
X106051462Y-69999805D01*
X105775706Y-70113746D01*
X105564544Y-70324540D01*
X105450123Y-70600096D01*
X105449862Y-70898465D01*
X103150000Y-70898465D01*
X103150000Y-66696224D01*
X103174286Y-66686189D01*
X103385448Y-66475395D01*
X103499869Y-66199839D01*
X103500130Y-65901470D01*
X103386189Y-65625714D01*
X103175395Y-65414552D01*
X102899839Y-65300131D01*
X102601470Y-65299870D01*
X102325714Y-65413811D01*
X102114552Y-65624605D01*
X102000131Y-65900161D01*
X101999870Y-66198530D01*
X102113811Y-66474286D01*
X102150000Y-66510538D01*
X102150000Y-75192893D01*
X101942856Y-75400037D01*
X101751470Y-75399870D01*
X101475714Y-75513811D01*
X101264552Y-75724605D01*
X101150131Y-76000161D01*
X101149870Y-76298530D01*
X101099870Y-76298530D01*
X101100130Y-76001470D01*
X100986189Y-75725714D01*
X100983793Y-75723314D01*
X101603553Y-75103554D01*
X101711940Y-74941342D01*
X101720163Y-74900001D01*
X101750000Y-74750000D01*
X101750000Y-66360607D01*
X101885448Y-66225395D01*
X101999869Y-65949839D01*
X102000130Y-65651470D01*
X101886189Y-65375714D01*
X101675395Y-65164552D01*
X101399839Y-65050131D01*
X101101470Y-65049870D01*
X100825714Y-65163811D01*
X100614552Y-65374605D01*
X100500131Y-65650161D01*
X100499870Y-65948530D01*
X100613811Y-66224286D01*
X100750000Y-66360713D01*
X100750000Y-74542893D01*
X99996447Y-75296447D01*
X99888060Y-75458658D01*
X99865042Y-75574377D01*
X99714552Y-75724605D01*
X99600131Y-76000161D01*
X99599870Y-76298530D01*
X98279650Y-76298530D01*
X98299869Y-76249839D01*
X98300130Y-75951470D01*
X98186189Y-75675714D01*
X98100000Y-75589375D01*
X98100000Y-73910607D01*
X98235448Y-73775395D01*
X98349869Y-73499839D01*
X98350130Y-73201470D01*
X98236189Y-72925714D01*
X98025395Y-72714552D01*
X97749839Y-72600131D01*
X97451470Y-72599870D01*
X97175714Y-72713811D01*
X96964552Y-72924605D01*
X96850131Y-73200161D01*
X96849870Y-73498530D01*
X96963811Y-73774286D01*
X97100000Y-73910713D01*
X97100000Y-75489480D01*
X96914552Y-75674605D01*
X96878684Y-75760985D01*
X96851687Y-75695649D01*
X96750000Y-75593784D01*
X96750000Y-74960694D01*
X96835448Y-74875395D01*
X96949869Y-74599839D01*
X96950130Y-74301470D01*
X96836189Y-74025714D01*
X96625395Y-73814552D01*
X96349839Y-73700131D01*
X96051470Y-73699870D01*
X95775714Y-73813811D01*
X95564552Y-74024605D01*
X95450131Y-74300161D01*
X95449870Y-74598530D01*
X94800000Y-74598530D01*
X94800000Y-73957106D01*
X94857143Y-73899963D01*
X95048530Y-73900130D01*
X95324286Y-73786189D01*
X95535448Y-73575395D01*
X95649869Y-73299839D01*
X95650130Y-73001470D01*
X95536189Y-72725714D01*
X95325395Y-72514552D01*
X95049839Y-72400131D01*
X94751470Y-72399870D01*
X94475714Y-72513811D01*
X94264552Y-72724605D01*
X94150131Y-73000161D01*
X94149962Y-73192932D01*
X93946447Y-73396447D01*
X93838060Y-73558658D01*
X93800000Y-73750000D01*
X93800000Y-75789405D01*
X93664552Y-75924617D01*
X93550131Y-76200173D01*
X93549870Y-76498542D01*
X93017360Y-76498542D01*
X93099869Y-76299839D01*
X93100130Y-76001470D01*
X92986189Y-75725714D01*
X92850000Y-75589287D01*
X92850000Y-74057106D01*
X92857143Y-74049963D01*
X93048530Y-74050130D01*
X93324286Y-73936189D01*
X93535448Y-73725395D01*
X93649869Y-73449839D01*
X93650130Y-73151470D01*
X93536189Y-72875714D01*
X93325395Y-72664552D01*
X93049839Y-72550131D01*
X92751470Y-72549870D01*
X92475714Y-72663811D01*
X92264552Y-72874605D01*
X92150131Y-73150161D01*
X92149962Y-73342932D01*
X91996447Y-73496447D01*
X91888060Y-73658658D01*
X91850000Y-73850000D01*
X91850000Y-75589393D01*
X91714552Y-75724605D01*
X91600131Y-76000161D01*
X91599870Y-76298530D01*
X89150000Y-76298530D01*
X89150000Y-73800000D01*
X89108134Y-73589524D01*
X88988909Y-73411091D01*
X87550024Y-71972206D01*
X87550130Y-71851470D01*
X87436189Y-71575714D01*
X87225395Y-71364552D01*
X86949839Y-71250131D01*
X86651470Y-71249870D01*
X86375714Y-71363811D01*
X86350140Y-71389340D01*
X86325395Y-71364552D01*
X86049839Y-71250131D01*
X85751470Y-71249870D01*
X85475714Y-71363811D01*
X85389375Y-71450000D01*
X85205026Y-71450000D01*
X84994550Y-71491866D01*
X84816117Y-71611091D01*
X82361091Y-74066117D01*
X82241866Y-74244550D01*
X82203902Y-74435411D01*
X82114552Y-74524605D01*
X82000131Y-74800161D01*
X81999870Y-75098530D01*
X66475000Y-75098530D01*
X66475000Y-72960000D01*
X67934531Y-72960000D01*
X68033488Y-73457488D01*
X68315292Y-73879239D01*
X68737043Y-74161043D01*
X69234531Y-74260000D01*
X69285469Y-74260000D01*
X69782957Y-74161043D01*
X70204708Y-73879239D01*
X70486512Y-73457488D01*
X70530132Y-73238198D01*
X70530314Y-73239115D01*
X70733776Y-73703756D01*
X71099560Y-74055167D01*
X71571980Y-74239849D01*
X71775000Y-74159762D01*
X71775000Y-72985000D01*
X71755000Y-72985000D01*
X71755000Y-72935000D01*
X71775000Y-72935000D01*
X71775000Y-71760238D01*
X71825000Y-71760238D01*
X71825000Y-72935000D01*
X71845000Y-72935000D01*
X71845000Y-72985000D01*
X71825000Y-72985000D01*
X71825000Y-74159762D01*
X72028020Y-74239849D01*
X72500440Y-74055167D01*
X72866224Y-73703756D01*
X73032164Y-73324803D01*
X73032164Y-73860000D01*
X73060056Y-74008231D01*
X73147660Y-74144372D01*
X73281329Y-74235704D01*
X73440000Y-74267836D01*
X75240000Y-74267836D01*
X75388231Y-74239944D01*
X75524372Y-74152340D01*
X75615704Y-74018671D01*
X75647836Y-73860000D01*
X75647836Y-73378236D01*
X75699844Y-73378236D01*
X75836572Y-73709143D01*
X76089525Y-73962538D01*
X76420194Y-74099843D01*
X76778236Y-74100156D01*
X77109143Y-73963428D01*
X77362538Y-73710475D01*
X77499843Y-73379806D01*
X77500156Y-73021764D01*
X77363428Y-72690857D01*
X77110475Y-72437462D01*
X76779806Y-72300157D01*
X76421764Y-72299844D01*
X76090857Y-72436572D01*
X75837462Y-72689525D01*
X75700157Y-73020194D01*
X75699844Y-73378236D01*
X75647836Y-73378236D01*
X75647836Y-72060000D01*
X75619944Y-71911769D01*
X75532340Y-71775628D01*
X75398671Y-71684296D01*
X75240000Y-71652164D01*
X73440000Y-71652164D01*
X73291769Y-71680056D01*
X73155628Y-71767660D01*
X73064296Y-71901329D01*
X73032164Y-72060000D01*
X73032164Y-72595197D01*
X72866224Y-72216244D01*
X72500440Y-71864833D01*
X72028020Y-71680151D01*
X71825000Y-71760238D01*
X71775000Y-71760238D01*
X71571980Y-71680151D01*
X71099560Y-71864833D01*
X70733776Y-72216244D01*
X70530314Y-72680885D01*
X70530132Y-72681802D01*
X70486512Y-72462512D01*
X70204708Y-72040761D01*
X69782957Y-71758957D01*
X69285469Y-71660000D01*
X69234531Y-71660000D01*
X68737043Y-71758957D01*
X68315292Y-72040761D01*
X68033488Y-72462512D01*
X67934531Y-72960000D01*
X66475000Y-72960000D01*
X66475000Y-70778236D01*
X66799844Y-70778236D01*
X66936572Y-71109143D01*
X67189525Y-71362538D01*
X67520194Y-71499843D01*
X67878236Y-71500156D01*
X68209143Y-71363428D01*
X68462538Y-71110475D01*
X68599843Y-70779806D01*
X68599844Y-70778236D01*
X74899844Y-70778236D01*
X75036572Y-71109143D01*
X75289525Y-71362538D01*
X75620194Y-71499843D01*
X75978236Y-71500156D01*
X76309143Y-71363428D01*
X76562538Y-71110475D01*
X76699843Y-70779806D01*
X76700156Y-70421764D01*
X76563428Y-70090857D01*
X76310475Y-69837462D01*
X75979806Y-69700157D01*
X75621764Y-69699844D01*
X75290857Y-69836572D01*
X75037462Y-70089525D01*
X74900157Y-70420194D01*
X74899844Y-70778236D01*
X68599844Y-70778236D01*
X68600156Y-70421764D01*
X68463428Y-70090857D01*
X68210475Y-69837462D01*
X67879806Y-69700157D01*
X67521764Y-69699844D01*
X67190857Y-69836572D01*
X66937462Y-70089525D01*
X66800157Y-70420194D01*
X66799844Y-70778236D01*
X66475000Y-70778236D01*
X66475000Y-67198530D01*
X81799870Y-67198530D01*
X81913811Y-67474286D01*
X82124605Y-67685448D01*
X82366762Y-67786001D01*
X82840380Y-68259619D01*
X83051255Y-68400522D01*
X83092524Y-68408731D01*
X83300000Y-68450000D01*
X87909673Y-68450000D01*
X88150184Y-68549869D01*
X88448553Y-68550130D01*
X88724309Y-68436189D01*
X88935471Y-68225395D01*
X89049892Y-67949839D01*
X89050153Y-67651470D01*
X88936212Y-67375714D01*
X88725418Y-67164552D01*
X88449862Y-67050131D01*
X88151493Y-67049870D01*
X87909162Y-67150000D01*
X83569239Y-67150000D01*
X83285640Y-66866402D01*
X83186189Y-66625714D01*
X82975395Y-66414552D01*
X82699839Y-66300131D01*
X82401470Y-66299870D01*
X82125714Y-66413811D01*
X81914552Y-66624605D01*
X81800131Y-66900161D01*
X81799870Y-67198530D01*
X66475000Y-67198530D01*
X66475000Y-64294033D01*
X98741710Y-64294033D01*
X98855651Y-64569789D01*
X99066445Y-64780951D01*
X99342001Y-64895372D01*
X99640370Y-64895633D01*
X99916126Y-64781692D01*
X100052553Y-64645503D01*
X102334730Y-64645503D01*
X102374605Y-64685448D01*
X102650161Y-64799869D01*
X102948530Y-64800130D01*
X103224286Y-64686189D01*
X103435448Y-64475395D01*
X103549869Y-64199839D01*
X103550130Y-63901470D01*
X103436189Y-63625714D01*
X103225395Y-63414552D01*
X102949839Y-63300131D01*
X102651470Y-63299870D01*
X102375714Y-63413811D01*
X102164552Y-63624605D01*
X102155874Y-63645503D01*
X100052447Y-63645503D01*
X99917235Y-63510055D01*
X99641679Y-63395634D01*
X99343310Y-63395373D01*
X99067554Y-63509314D01*
X98856392Y-63720108D01*
X98741971Y-63995664D01*
X98741710Y-64294033D01*
X66475000Y-64294033D01*
X66475000Y-60698530D01*
X98949871Y-60698530D01*
X99063812Y-60974286D01*
X99274606Y-61185448D01*
X99550162Y-61299869D01*
X99848531Y-61300130D01*
X100124287Y-61186189D01*
X100260714Y-61050000D01*
X102239393Y-61050000D01*
X102374605Y-61185448D01*
X102650161Y-61299869D01*
X102948530Y-61300130D01*
X103224286Y-61186189D01*
X103362183Y-61048532D01*
X112249870Y-61048532D01*
X112363811Y-61324288D01*
X112574605Y-61535450D01*
X112850161Y-61649871D01*
X113148530Y-61650132D01*
X113390866Y-61550000D01*
X114789317Y-61550000D01*
X114874616Y-61635448D01*
X115150172Y-61749869D01*
X115448541Y-61750130D01*
X115724297Y-61636189D01*
X115935459Y-61425395D01*
X116049880Y-61149839D01*
X116050141Y-60851470D01*
X115936200Y-60575714D01*
X115725406Y-60364552D01*
X115449850Y-60250131D01*
X115151481Y-60249870D01*
X114875725Y-60363811D01*
X114789386Y-60450000D01*
X113610518Y-60450000D01*
X113425395Y-60264554D01*
X113149839Y-60150133D01*
X112851470Y-60149872D01*
X112575714Y-60263813D01*
X112364552Y-60474607D01*
X112250131Y-60750163D01*
X112249870Y-61048532D01*
X103362183Y-61048532D01*
X103435448Y-60975395D01*
X103549869Y-60699839D01*
X103550130Y-60401470D01*
X103436189Y-60125714D01*
X103225395Y-59914552D01*
X102949839Y-59800131D01*
X102651470Y-59799870D01*
X102375714Y-59913811D01*
X102239287Y-60050000D01*
X100260608Y-60050000D01*
X100125396Y-59914552D01*
X99849840Y-59800131D01*
X99551471Y-59799870D01*
X99275715Y-59913811D01*
X99064553Y-60124605D01*
X98950132Y-60400161D01*
X98949871Y-60698530D01*
X66475000Y-60698530D01*
X66475000Y-56300000D01*
X69607879Y-56300000D01*
X69771538Y-57122769D01*
X70237599Y-57820280D01*
X70935110Y-58286341D01*
X71757879Y-58450000D01*
X71842121Y-58450000D01*
X72664890Y-58286341D01*
X73362401Y-57820280D01*
X73828462Y-57122769D01*
X73992121Y-56300000D01*
X73828462Y-55477231D01*
X73362401Y-54779720D01*
X72664890Y-54313659D01*
X71842121Y-54150000D01*
X71757879Y-54150000D01*
X70935110Y-54313659D01*
X70237599Y-54779720D01*
X69771538Y-55477231D01*
X69607879Y-56300000D01*
X66475000Y-56300000D01*
X66475000Y-53600000D01*
X79159139Y-53600000D01*
X79125714Y-53613811D01*
X79125714Y-53613811D01*
G37*
X79125714Y-53613811D02*
X78914552Y-53824605D01*
X78800131Y-54100161D01*
X78799870Y-54398530D01*
X78894541Y-54627649D01*
X78052104Y-55470086D01*
X77931368Y-55469980D01*
X77655612Y-55583921D01*
X77444450Y-55794715D01*
X77330029Y-56070271D01*
X77329768Y-56368640D01*
X77443709Y-56644396D01*
X77654503Y-56855558D01*
X77930059Y-56969979D01*
X78228428Y-56970240D01*
X78504184Y-56856299D01*
X78635712Y-56725000D01*
X124692164Y-56725000D01*
X124692164Y-57575000D01*
X124720056Y-57723231D01*
X124807660Y-57859372D01*
X124941329Y-57950704D01*
X125100000Y-57982836D01*
X126300000Y-57982836D01*
X126448231Y-57954944D01*
X126584372Y-57867340D01*
X126675704Y-57733671D01*
X126707836Y-57575000D01*
X126707836Y-56725000D01*
X126679944Y-56576769D01*
X126592340Y-56440628D01*
X126521829Y-56392450D01*
X126646768Y-56192617D01*
X126685558Y-56053691D01*
X126599569Y-55925000D01*
X125725000Y-55925000D01*
X125725000Y-55945000D01*
X125675000Y-55945000D01*
X125675000Y-55925000D01*
X124800431Y-55925000D01*
X124714442Y-56053691D01*
X124753232Y-56192617D01*
X124878155Y-56392425D01*
X124815628Y-56432660D01*
X124724296Y-56566329D01*
X124692164Y-56725000D01*
X78635712Y-56725000D01*
X78715346Y-56645505D01*
X78829767Y-56369949D01*
X78829874Y-56247952D01*
X79149590Y-55928236D01*
X85349844Y-55928236D01*
X85486572Y-56259143D01*
X85739525Y-56512538D01*
X86070194Y-56649843D01*
X86428236Y-56650156D01*
X86759143Y-56513428D01*
X87012538Y-56260475D01*
X87149843Y-55929806D01*
X87150156Y-55571764D01*
X87013428Y-55240857D01*
X86760475Y-54987462D01*
X86429806Y-54850157D01*
X86071764Y-54849844D01*
X85740857Y-54986572D01*
X85487462Y-55239525D01*
X85350157Y-55570194D01*
X85349844Y-55928236D01*
X79149590Y-55928236D01*
X79938909Y-55138917D01*
X80058134Y-54960484D01*
X80097348Y-54763342D01*
X80185448Y-54675395D01*
X80299869Y-54399839D01*
X80300130Y-54101470D01*
X80186189Y-53825714D01*
X79975395Y-53614552D01*
X79940350Y-53600000D01*
X85200000Y-53600000D01*
X85200000Y-53665193D01*
X85206839Y-53701539D01*
X85228319Y-53734920D01*
X85261094Y-53757314D01*
X85300000Y-53765193D01*
X109800000Y-53765193D01*
X109836346Y-53758354D01*
X109869727Y-53736874D01*
X109892121Y-53704099D01*
X109900000Y-53665193D01*
X109900000Y-53600000D01*
X124720191Y-53600000D01*
X124743208Y-53715714D01*
X124922046Y-53983363D01*
X124984360Y-54025000D01*
X124922046Y-54066637D01*
X124866344Y-54150000D01*
X124440340Y-54150000D01*
X124199829Y-54050131D01*
X123901460Y-54049870D01*
X123625704Y-54163811D01*
X123414542Y-54374605D01*
X123300121Y-54650161D01*
X123299860Y-54948530D01*
X123413801Y-55224286D01*
X123624595Y-55435448D01*
X123900151Y-55549869D01*
X124198520Y-55550130D01*
X124474276Y-55436189D01*
X124685438Y-55225395D01*
X124716745Y-55150000D01*
X124866344Y-55150000D01*
X124922046Y-55233363D01*
X124996128Y-55282863D01*
X124923959Y-55334314D01*
X124753232Y-55607383D01*
X124714442Y-55746309D01*
X124800431Y-55875000D01*
X125675000Y-55875000D01*
X125675000Y-55855000D01*
X125725000Y-55855000D01*
X125725000Y-55875000D01*
X126599569Y-55875000D01*
X126685558Y-55746309D01*
X126646768Y-55607383D01*
X126476041Y-55334314D01*
X126403872Y-55282863D01*
X126477954Y-55233363D01*
X126656792Y-54965714D01*
X126719591Y-54650000D01*
X126656792Y-54334286D01*
X126477954Y-54066637D01*
X126415640Y-54025000D01*
X126477954Y-53983363D01*
X126656792Y-53715714D01*
X126679809Y-53600000D01*
X127525000Y-53600000D01*
X127525000Y-97525000D01*
X123400000Y-97525000D01*
X123400000Y-97400000D01*
X123392650Y-97362371D01*
X123370711Y-97329289D01*
X123165759Y-97124337D01*
X123102055Y-97028997D01*
X122971003Y-96897945D01*
X122971000Y-96897944D01*
X122896223Y-96847979D01*
X125187377Y-96847979D01*
X125271244Y-97045580D01*
X125726843Y-97244873D01*
X126224028Y-97254645D01*
X126687107Y-97073409D01*
X126728756Y-97045580D01*
X126812623Y-96847979D01*
X126000000Y-96035355D01*
X125187377Y-96847979D01*
X122896223Y-96847979D01*
X122875664Y-96834242D01*
X122670711Y-96629289D01*
X122638906Y-96607879D01*
X122600000Y-96600000D01*
X122423835Y-96600000D01*
X122100000Y-96535586D01*
X122100000Y-96224028D01*
X124745355Y-96224028D01*
X124926591Y-96687107D01*
X124954420Y-96728756D01*
X125152021Y-96812623D01*
X125964645Y-96000000D01*
X126035355Y-96000000D01*
X126847979Y-96812623D01*
X127045580Y-96728756D01*
X127244873Y-96273157D01*
X127254645Y-95775972D01*
X127073409Y-95312893D01*
X127045580Y-95271244D01*
X126847979Y-95187377D01*
X126035355Y-96000000D01*
X125964645Y-96000000D01*
X125152021Y-95187377D01*
X124954420Y-95271244D01*
X124755127Y-95726843D01*
X124745355Y-96224028D01*
X122100000Y-96224028D01*
X122100000Y-95152021D01*
X125187377Y-95152021D01*
X126000000Y-95964645D01*
X126812623Y-95152021D01*
X126728756Y-94954420D01*
X126273157Y-94755127D01*
X125775972Y-94745355D01*
X125312893Y-94926591D01*
X125271244Y-94954420D01*
X125187377Y-95152021D01*
X122100000Y-95152021D01*
X122100000Y-92440748D01*
X122135000Y-92447836D01*
X123435000Y-92447836D01*
X123583231Y-92419944D01*
X123719372Y-92332340D01*
X123810704Y-92198671D01*
X123842836Y-92040000D01*
X123842836Y-91040000D01*
X123814944Y-90891769D01*
X123727340Y-90755628D01*
X123689156Y-90729538D01*
X123776059Y-90591318D01*
X123819666Y-90435429D01*
X123734609Y-90295000D01*
X122810000Y-90295000D01*
X122810000Y-90315000D01*
X122760000Y-90315000D01*
X122760000Y-90295000D01*
X121240000Y-90295000D01*
X121240000Y-90315000D01*
X121190000Y-90315000D01*
X121190000Y-90295000D01*
X120265391Y-90295000D01*
X120180334Y-90435429D01*
X120223941Y-90591318D01*
X120410926Y-90888718D01*
X120420331Y-90895387D01*
X120408033Y-90903604D01*
X120212937Y-91195585D01*
X120172277Y-91400000D01*
X115787517Y-91400000D01*
X115849869Y-91249839D01*
X115850130Y-90951470D01*
X115736189Y-90675714D01*
X115525395Y-90464552D01*
X115249839Y-90350131D01*
X114951470Y-90349870D01*
X114675714Y-90463811D01*
X114464552Y-90674605D01*
X114350131Y-90950161D01*
X114349870Y-91248530D01*
X114412457Y-91400000D01*
X108448845Y-91400000D01*
X108724286Y-91286189D01*
X108935448Y-91075395D01*
X109049869Y-90799839D01*
X109050130Y-90501470D01*
X108936189Y-90225714D01*
X108850000Y-90139375D01*
X108850000Y-90027818D01*
X111177793Y-87700024D01*
X111298530Y-87700130D01*
X111574286Y-87586189D01*
X111785448Y-87375395D01*
X111879644Y-87148544D01*
X115999870Y-87148544D01*
X116113811Y-87424300D01*
X116324605Y-87635462D01*
X116600161Y-87749883D01*
X116898530Y-87750144D01*
X117174286Y-87636203D01*
X117310727Y-87500000D01*
X117939329Y-87500000D01*
X118024628Y-87585448D01*
X118300184Y-87699869D01*
X118598553Y-87700130D01*
X118874309Y-87586189D01*
X119085471Y-87375395D01*
X119199892Y-87099839D01*
X119200153Y-86801470D01*
X119086212Y-86525714D01*
X119020613Y-86460000D01*
X120144429Y-86460000D01*
X120212937Y-86804415D01*
X120407100Y-87095000D01*
X120212937Y-87385585D01*
X120144429Y-87730000D01*
X120212937Y-88074415D01*
X120407100Y-88365000D01*
X120212937Y-88655585D01*
X120144429Y-89000000D01*
X120212937Y-89344415D01*
X120408033Y-89636396D01*
X120420331Y-89644613D01*
X120410926Y-89651282D01*
X120223941Y-89948682D01*
X120180334Y-90104571D01*
X120265391Y-90245000D01*
X121190000Y-90245000D01*
X121190000Y-90225000D01*
X121240000Y-90225000D01*
X121240000Y-90245000D01*
X122760000Y-90245000D01*
X122760000Y-90225000D01*
X122810000Y-90225000D01*
X122810000Y-90245000D01*
X123734609Y-90245000D01*
X123819666Y-90104571D01*
X123776059Y-89948682D01*
X123589074Y-89651282D01*
X123579669Y-89644613D01*
X123591967Y-89636396D01*
X123787063Y-89344415D01*
X123855571Y-89000000D01*
X123787063Y-88655585D01*
X123592900Y-88365000D01*
X123787063Y-88074415D01*
X123855571Y-87730000D01*
X123787063Y-87385585D01*
X123592900Y-87095000D01*
X123787063Y-86804415D01*
X123855571Y-86460000D01*
X123787063Y-86115585D01*
X123591967Y-85823604D01*
X123299986Y-85628508D01*
X122955571Y-85560000D01*
X122614429Y-85560000D01*
X122270014Y-85628508D01*
X122000000Y-85808926D01*
X121729986Y-85628508D01*
X121385571Y-85560000D01*
X121044429Y-85560000D01*
X120700014Y-85628508D01*
X120408033Y-85823604D01*
X120212937Y-86115585D01*
X120144429Y-86460000D01*
X119020613Y-86460000D01*
X118875418Y-86314552D01*
X118599862Y-86200131D01*
X118301493Y-86199870D01*
X118025737Y-86313811D01*
X117939398Y-86400000D01*
X117210767Y-86400000D01*
X117175395Y-86364566D01*
X116899839Y-86250145D01*
X116601470Y-86249884D01*
X116325714Y-86363825D01*
X116114552Y-86574619D01*
X116000131Y-86850175D01*
X115999870Y-87148544D01*
X111879644Y-87148544D01*
X111899869Y-87099839D01*
X111900130Y-86801470D01*
X111786189Y-86525714D01*
X111575395Y-86314552D01*
X111299839Y-86200131D01*
X111001470Y-86199870D01*
X110725714Y-86313811D01*
X110514552Y-86524605D01*
X110400131Y-86800161D01*
X110400024Y-86922159D01*
X107911091Y-89411091D01*
X107791866Y-89589524D01*
X107750000Y-89800000D01*
X107750000Y-90139306D01*
X107664552Y-90224605D01*
X107550131Y-90500161D01*
X107549870Y-90798530D01*
X107663811Y-91074286D01*
X107874605Y-91285448D01*
X108150161Y-91399869D01*
X108299917Y-91400000D01*
X108000000Y-91400000D01*
X107963654Y-91406839D01*
X107930273Y-91428319D01*
X107907879Y-91461094D01*
X107900000Y-91500000D01*
X107900000Y-96535585D01*
X107576165Y-96600000D01*
X107400000Y-96600000D01*
X107362371Y-96607350D01*
X107329289Y-96629289D01*
X107124337Y-96834241D01*
X107028997Y-96897945D01*
X106897945Y-97028997D01*
X106897945Y-97028998D01*
X106834242Y-97124336D01*
X106629289Y-97329289D01*
X106607879Y-97361094D01*
X106600000Y-97400000D01*
X106600000Y-97525000D01*
X80475000Y-97525000D01*
X80475000Y-96347979D01*
X81187377Y-96347979D01*
X81271244Y-96545580D01*
X81726843Y-96744873D01*
X82224028Y-96754645D01*
X82687107Y-96573409D01*
X82728756Y-96545580D01*
X82812623Y-96347979D01*
X82000000Y-95535355D01*
X81187377Y-96347979D01*
X80475000Y-96347979D01*
X80475000Y-95724028D01*
X80745355Y-95724028D01*
X80926591Y-96187107D01*
X80954420Y-96228756D01*
X81152021Y-96312623D01*
X81964645Y-95500000D01*
X82035355Y-95500000D01*
X82847979Y-96312623D01*
X83045580Y-96228756D01*
X83244873Y-95773157D01*
X83254645Y-95275972D01*
X83073409Y-94812893D01*
X83045580Y-94771244D01*
X82847979Y-94687377D01*
X82035355Y-95500000D01*
X81964645Y-95500000D01*
X81152021Y-94687377D01*
X80954420Y-94771244D01*
X80755127Y-95226843D01*
X80745355Y-95724028D01*
X80475000Y-95724028D01*
X80475000Y-95300000D01*
X80465873Y-95254115D01*
X80465873Y-95207332D01*
X80400000Y-94876165D01*
X80400000Y-94700000D01*
X80392650Y-94662371D01*
X80385787Y-94652021D01*
X81187377Y-94652021D01*
X82000000Y-95464645D01*
X82812623Y-94652021D01*
X82728756Y-94454420D01*
X82273157Y-94255127D01*
X81775972Y-94245355D01*
X81312893Y-94426591D01*
X81271244Y-94454420D01*
X81187377Y-94652021D01*
X80385787Y-94652021D01*
X80370711Y-94629289D01*
X80165759Y-94424337D01*
X80102055Y-94328997D01*
X79971003Y-94197945D01*
X79971000Y-94197944D01*
X79875664Y-94134242D01*
X79670711Y-93929289D01*
X79638906Y-93907879D01*
X79600000Y-93900000D01*
X79423835Y-93900000D01*
X79092667Y-93834127D01*
X79045885Y-93834127D01*
X79000000Y-93825000D01*
X66475000Y-93825000D01*
X66475000Y-91975000D01*
X68500000Y-91975000D01*
X68500000Y-92325000D01*
X68585688Y-92705780D01*
X68810571Y-93024784D01*
X69140413Y-93233446D01*
X69318922Y-93283468D01*
X69475000Y-93199653D01*
X69475000Y-91975000D01*
X69525000Y-91975000D01*
X69525000Y-93199653D01*
X69681078Y-93283468D01*
X69859587Y-93233446D01*
X70189429Y-93024784D01*
X70414312Y-92705780D01*
X70500000Y-92325000D01*
X70500000Y-91975000D01*
X75500000Y-91975000D01*
X75500000Y-92325000D01*
X75585688Y-92705780D01*
X75810571Y-93024784D01*
X76140413Y-93233446D01*
X76318922Y-93283468D01*
X76475000Y-93199653D01*
X76475000Y-91975000D01*
X76525000Y-91975000D01*
X76525000Y-93199653D01*
X76681078Y-93283468D01*
X76859587Y-93233446D01*
X77189429Y-93024784D01*
X77414312Y-92705780D01*
X77500000Y-92325000D01*
X77500000Y-91975000D01*
X76525000Y-91975000D01*
X76475000Y-91975000D01*
X75500000Y-91975000D01*
X70500000Y-91975000D01*
X69525000Y-91975000D01*
X69475000Y-91975000D01*
X68500000Y-91975000D01*
X66475000Y-91975000D01*
X66475000Y-91575000D01*
X68500000Y-91575000D01*
X68500000Y-91925000D01*
X69475000Y-91925000D01*
X69475000Y-90700347D01*
X69525000Y-90700347D01*
X69525000Y-91925000D01*
X70500000Y-91925000D01*
X70500000Y-91575000D01*
X75500000Y-91575000D01*
X75500000Y-91925000D01*
X76475000Y-91925000D01*
X76475000Y-90700347D01*
X76525000Y-90700347D01*
X76525000Y-91925000D01*
X77500000Y-91925000D01*
X77500000Y-91575000D01*
X77414312Y-91194220D01*
X77189429Y-90875216D01*
X76859587Y-90666554D01*
X76681078Y-90616532D01*
X76525000Y-90700347D01*
X76475000Y-90700347D01*
X76318922Y-90616532D01*
X76140413Y-90666554D01*
X75810571Y-90875216D01*
X75585688Y-91194220D01*
X75500000Y-91575000D01*
X70500000Y-91575000D01*
X70414312Y-91194220D01*
X70189429Y-90875216D01*
X69859587Y-90666554D01*
X69681078Y-90616532D01*
X69525000Y-90700347D01*
X69475000Y-90700347D01*
X69318922Y-90616532D01*
X69140413Y-90666554D01*
X68810571Y-90875216D01*
X68585688Y-91194220D01*
X68500000Y-91575000D01*
X66475000Y-91575000D01*
X66475000Y-90007835D01*
X69777520Y-90007835D01*
X69846172Y-90192450D01*
X70256601Y-90370920D01*
X70704086Y-90378740D01*
X71120501Y-90214719D01*
X71153828Y-90192450D01*
X71222480Y-90007835D01*
X74777520Y-90007835D01*
X74846172Y-90192450D01*
X75256601Y-90370920D01*
X75704086Y-90378740D01*
X76120501Y-90214719D01*
X76153828Y-90192450D01*
X76222480Y-90007835D01*
X75500000Y-89285355D01*
X74777520Y-90007835D01*
X71222480Y-90007835D01*
X70500000Y-89285355D01*
X69777520Y-90007835D01*
X66475000Y-90007835D01*
X66475000Y-89454086D01*
X69371260Y-89454086D01*
X69535281Y-89870501D01*
X69557550Y-89903828D01*
X69742165Y-89972480D01*
X70464645Y-89250000D01*
X70535355Y-89250000D01*
X71257835Y-89972480D01*
X71442450Y-89903828D01*
X71620920Y-89493399D01*
X71621607Y-89454086D01*
X74371260Y-89454086D01*
X74535281Y-89870501D01*
X74557550Y-89903828D01*
X74742165Y-89972480D01*
X75464645Y-89250000D01*
X75535355Y-89250000D01*
X76257835Y-89972480D01*
X76442450Y-89903828D01*
X76620920Y-89493399D01*
X76628740Y-89045914D01*
X76464719Y-88629499D01*
X76442450Y-88596172D01*
X76257835Y-88527520D01*
X75535355Y-89250000D01*
X75464645Y-89250000D01*
X74742165Y-88527520D01*
X74557550Y-88596172D01*
X74379080Y-89006601D01*
X74371260Y-89454086D01*
X71621607Y-89454086D01*
X71628740Y-89045914D01*
X71464719Y-88629499D01*
X71442450Y-88596172D01*
X71257835Y-88527520D01*
X70535355Y-89250000D01*
X70464645Y-89250000D01*
X69742165Y-88527520D01*
X69557550Y-88596172D01*
X69379080Y-89006601D01*
X69371260Y-89454086D01*
X66475000Y-89454086D01*
X66475000Y-88492165D01*
X69777520Y-88492165D01*
X70500000Y-89214645D01*
X71222480Y-88492165D01*
X74777520Y-88492165D01*
X75500000Y-89214645D01*
X76222480Y-88492165D01*
X76169067Y-88348529D01*
X84749870Y-88348529D01*
X84863811Y-88624285D01*
X85074605Y-88835447D01*
X85350161Y-88949868D01*
X85648530Y-88950129D01*
X85924286Y-88836188D01*
X86050596Y-88710099D01*
X86060477Y-88708133D01*
X86105221Y-88678236D01*
X90099844Y-88678236D01*
X90236572Y-89009143D01*
X90489525Y-89262538D01*
X90820194Y-89399843D01*
X91178236Y-89400156D01*
X91509143Y-89263428D01*
X91762538Y-89010475D01*
X91899843Y-88679806D01*
X91899844Y-88678236D01*
X93599844Y-88678236D01*
X93736572Y-89009143D01*
X93989525Y-89262538D01*
X94320194Y-89399843D01*
X94678236Y-89400156D01*
X95009143Y-89263428D01*
X95262538Y-89010475D01*
X95399843Y-88679806D01*
X95399844Y-88678236D01*
X100099844Y-88678236D01*
X100236572Y-89009143D01*
X100489525Y-89262538D01*
X100820194Y-89399843D01*
X101178236Y-89400156D01*
X101509143Y-89263428D01*
X101762538Y-89010475D01*
X101899843Y-88679806D01*
X101900156Y-88321764D01*
X101763428Y-87990857D01*
X101510475Y-87737462D01*
X101179806Y-87600157D01*
X100821764Y-87599844D01*
X100490857Y-87736572D01*
X100237462Y-87989525D01*
X100100157Y-88320194D01*
X100099844Y-88678236D01*
X95399844Y-88678236D01*
X95400156Y-88321764D01*
X95263428Y-87990857D01*
X95010475Y-87737462D01*
X94679806Y-87600157D01*
X94321764Y-87599844D01*
X93990857Y-87736572D01*
X93737462Y-87989525D01*
X93600157Y-88320194D01*
X93599844Y-88678236D01*
X91899844Y-88678236D01*
X91900156Y-88321764D01*
X91763428Y-87990857D01*
X91510475Y-87737462D01*
X91179806Y-87600157D01*
X90821764Y-87599844D01*
X90490857Y-87736572D01*
X90237462Y-87989525D01*
X90100157Y-88320194D01*
X90099844Y-88678236D01*
X86105221Y-88678236D01*
X86238910Y-88588908D01*
X87277793Y-87550024D01*
X87398530Y-87550130D01*
X87674286Y-87436189D01*
X87885448Y-87225395D01*
X87999869Y-86949839D01*
X88000130Y-86651470D01*
X87886189Y-86375714D01*
X87675395Y-86164552D01*
X87399839Y-86050131D01*
X87101470Y-86049870D01*
X86825714Y-86163811D01*
X86614552Y-86374605D01*
X86500131Y-86650161D01*
X86500024Y-86772158D01*
X85771524Y-87500658D01*
X85649839Y-87450130D01*
X85351470Y-87449869D01*
X85075714Y-87563810D01*
X84864552Y-87774604D01*
X84750131Y-88050160D01*
X84749870Y-88348529D01*
X76169067Y-88348529D01*
X76153828Y-88307550D01*
X75743399Y-88129080D01*
X75295914Y-88121260D01*
X74879499Y-88285281D01*
X74846172Y-88307550D01*
X74777520Y-88492165D01*
X71222480Y-88492165D01*
X71153828Y-88307550D01*
X70743399Y-88129080D01*
X70295914Y-88121260D01*
X69879499Y-88285281D01*
X69846172Y-88307550D01*
X69777520Y-88492165D01*
X66475000Y-88492165D01*
X66475000Y-85825000D01*
X70700000Y-85825000D01*
X70700000Y-87529565D01*
X70760896Y-87676582D01*
X70873418Y-87789104D01*
X71020435Y-87850000D01*
X72725000Y-87850000D01*
X72825000Y-87750000D01*
X72825000Y-85725000D01*
X72875000Y-85725000D01*
X72875000Y-87750000D01*
X72975000Y-87850000D01*
X74679565Y-87850000D01*
X74826582Y-87789104D01*
X74939104Y-87676582D01*
X75000000Y-87529565D01*
X75000000Y-85825000D01*
X74900000Y-85725000D01*
X72875000Y-85725000D01*
X72825000Y-85725000D01*
X70800000Y-85725000D01*
X70700000Y-85825000D01*
X66475000Y-85825000D01*
X66475000Y-84850000D01*
X68025000Y-84850000D01*
X68125000Y-84750000D01*
X68125000Y-82725000D01*
X68175000Y-82725000D01*
X68175000Y-84750000D01*
X68275000Y-84850000D01*
X69979565Y-84850000D01*
X70126582Y-84789104D01*
X70239104Y-84676582D01*
X70300000Y-84529565D01*
X70300000Y-83870435D01*
X70700000Y-83870435D01*
X70700000Y-85575000D01*
X70800000Y-85675000D01*
X72825000Y-85675000D01*
X72825000Y-83650000D01*
X72875000Y-83650000D01*
X72875000Y-85675000D01*
X74900000Y-85675000D01*
X74996764Y-85578236D01*
X82699844Y-85578236D01*
X82836572Y-85909143D01*
X83089525Y-86162538D01*
X83420194Y-86299843D01*
X83778236Y-86300156D01*
X84109143Y-86163428D01*
X84362538Y-85910475D01*
X84499843Y-85579806D01*
X84500156Y-85221764D01*
X84363428Y-84890857D01*
X84110475Y-84637462D01*
X83779806Y-84500157D01*
X83421764Y-84499844D01*
X83090857Y-84636572D01*
X82837462Y-84889525D01*
X82700157Y-85220194D01*
X82699844Y-85578236D01*
X74996764Y-85578236D01*
X75000000Y-85575000D01*
X75000000Y-83870435D01*
X74939104Y-83723418D01*
X74826582Y-83610896D01*
X74679565Y-83550000D01*
X72975000Y-83550000D01*
X72875000Y-83650000D01*
X72825000Y-83650000D01*
X72725000Y-83550000D01*
X71020435Y-83550000D01*
X70873418Y-83610896D01*
X70760896Y-83723418D01*
X70700000Y-83870435D01*
X70300000Y-83870435D01*
X70300000Y-83498530D01*
X82449870Y-83498530D01*
X82563811Y-83774286D01*
X82774605Y-83985448D01*
X83050161Y-84099869D01*
X83348530Y-84100130D01*
X83624286Y-83986189D01*
X83710625Y-83900000D01*
X84639306Y-83900000D01*
X84724605Y-83985448D01*
X85000161Y-84099869D01*
X85298530Y-84100130D01*
X85574286Y-83986189D01*
X85785448Y-83775395D01*
X85899869Y-83499839D01*
X85900130Y-83201470D01*
X85878256Y-83148530D01*
X105949870Y-83148530D01*
X106063811Y-83424286D01*
X106274605Y-83635448D01*
X106550161Y-83749869D01*
X106848530Y-83750130D01*
X107124286Y-83636189D01*
X107210625Y-83550000D01*
X109339306Y-83550000D01*
X109424605Y-83635448D01*
X109700161Y-83749869D01*
X109998530Y-83750130D01*
X110274286Y-83636189D01*
X110485448Y-83425395D01*
X110599869Y-83149839D01*
X110600130Y-82851470D01*
X110486189Y-82575714D01*
X110275395Y-82364552D01*
X109999839Y-82250131D01*
X109701470Y-82249870D01*
X109425714Y-82363811D01*
X109339375Y-82450000D01*
X107210694Y-82450000D01*
X107125395Y-82364552D01*
X106849839Y-82250131D01*
X106551470Y-82249870D01*
X106275714Y-82363811D01*
X106064552Y-82574605D01*
X105950131Y-82850161D01*
X105949870Y-83148530D01*
X85878256Y-83148530D01*
X85786189Y-82925714D01*
X85575395Y-82714552D01*
X85299839Y-82600131D01*
X85001470Y-82599870D01*
X84725714Y-82713811D01*
X84639375Y-82800000D01*
X83710694Y-82800000D01*
X83625395Y-82714552D01*
X83349839Y-82600131D01*
X83051470Y-82599870D01*
X82775714Y-82713811D01*
X82564552Y-82924605D01*
X82450131Y-83200161D01*
X82449870Y-83498530D01*
X70300000Y-83498530D01*
X70300000Y-82825000D01*
X70200000Y-82725000D01*
X68175000Y-82725000D01*
X68125000Y-82725000D01*
X68105000Y-82725000D01*
X68105000Y-82675000D01*
X68125000Y-82675000D01*
X68125000Y-80650000D01*
X68175000Y-80650000D01*
X68175000Y-82675000D01*
X70200000Y-82675000D01*
X70300000Y-82575000D01*
X70300000Y-82448530D01*
X88249870Y-82448530D01*
X88363811Y-82724286D01*
X88574605Y-82935448D01*
X88850161Y-83049869D01*
X89148530Y-83050130D01*
X89424286Y-82936189D01*
X89510625Y-82850000D01*
X90989306Y-82850000D01*
X91074605Y-82935448D01*
X91350161Y-83049869D01*
X91648530Y-83050130D01*
X91924286Y-82936189D01*
X92135448Y-82725395D01*
X92249869Y-82449839D01*
X92250130Y-82151470D01*
X92136189Y-81875714D01*
X91925395Y-81664552D01*
X91649839Y-81550131D01*
X91351470Y-81549870D01*
X91075714Y-81663811D01*
X90989375Y-81750000D01*
X89510694Y-81750000D01*
X89425395Y-81664552D01*
X89149839Y-81550131D01*
X88851470Y-81549870D01*
X88575714Y-81663811D01*
X88364552Y-81874605D01*
X88250131Y-82150161D01*
X88249870Y-82448530D01*
X70300000Y-82448530D01*
X70300000Y-80870435D01*
X70239104Y-80723418D01*
X70126582Y-80610896D01*
X69979565Y-80550000D01*
X68275000Y-80550000D01*
X68175000Y-80650000D01*
X68125000Y-80650000D01*
X68025000Y-80550000D01*
X66475000Y-80550000D01*
X66475000Y-77950000D01*
X70692164Y-77950000D01*
X70692164Y-81450000D01*
X70720056Y-81598231D01*
X70807660Y-81734372D01*
X70941329Y-81825704D01*
X71100000Y-81857836D01*
X74600000Y-81857836D01*
X74748231Y-81829944D01*
X74884372Y-81742340D01*
X74975704Y-81608671D01*
X75007836Y-81450000D01*
X75007836Y-80998526D01*
X82499870Y-80998526D01*
X82613811Y-81274282D01*
X82824605Y-81485444D01*
X83100161Y-81599865D01*
X83398530Y-81600126D01*
X83640861Y-81499996D01*
X85259640Y-81499996D01*
X85500161Y-81599869D01*
X85798530Y-81600130D01*
X86074286Y-81486189D01*
X86285448Y-81275395D01*
X86338127Y-81148530D01*
X105449870Y-81148530D01*
X105563811Y-81424286D01*
X105774605Y-81635448D01*
X106050161Y-81749869D01*
X106348530Y-81750130D01*
X106624286Y-81636189D01*
X106760713Y-81500000D01*
X107989393Y-81500000D01*
X108124605Y-81635448D01*
X108400161Y-81749869D01*
X108698530Y-81750130D01*
X108974286Y-81636189D01*
X109185448Y-81425395D01*
X109299869Y-81149839D01*
X109300130Y-80851470D01*
X109186189Y-80575714D01*
X108975395Y-80364552D01*
X108699839Y-80250131D01*
X108401470Y-80249870D01*
X108125714Y-80363811D01*
X107989287Y-80500000D01*
X106760607Y-80500000D01*
X106625395Y-80364552D01*
X106349839Y-80250131D01*
X106051470Y-80249870D01*
X105775714Y-80363811D01*
X105564552Y-80574605D01*
X105450131Y-80850161D01*
X105449870Y-81148530D01*
X86338127Y-81148530D01*
X86399869Y-80999839D01*
X86400130Y-80701470D01*
X86286189Y-80425714D01*
X86075395Y-80214552D01*
X85799839Y-80100131D01*
X85501470Y-80099870D01*
X85259149Y-80199996D01*
X83640350Y-80199996D01*
X83399839Y-80100127D01*
X83101470Y-80099866D01*
X82825714Y-80213807D01*
X82614552Y-80424601D01*
X82500131Y-80700157D01*
X82499870Y-80998526D01*
X75007836Y-80998526D01*
X75007836Y-78678236D01*
X93099844Y-78678236D01*
X93236572Y-79009143D01*
X93489525Y-79262538D01*
X93820194Y-79399843D01*
X94178236Y-79400156D01*
X94509143Y-79263428D01*
X94762538Y-79010475D01*
X94899843Y-78679806D01*
X94899844Y-78678236D01*
X99099844Y-78678236D01*
X99236572Y-79009143D01*
X99489525Y-79262538D01*
X99820194Y-79399843D01*
X100178236Y-79400156D01*
X100509143Y-79263428D01*
X100762538Y-79010475D01*
X100788259Y-78948530D01*
X105449874Y-78948530D01*
X105563815Y-79224286D01*
X105774609Y-79435448D01*
X106050165Y-79549869D01*
X106348534Y-79550130D01*
X106624290Y-79436189D01*
X106760717Y-79300000D01*
X107589393Y-79300000D01*
X107724605Y-79435448D01*
X108000161Y-79549869D01*
X108298530Y-79550130D01*
X108574286Y-79436189D01*
X108785448Y-79225395D01*
X108899869Y-78949839D01*
X108900130Y-78651470D01*
X108786189Y-78375714D01*
X108575395Y-78164552D01*
X108299839Y-78050131D01*
X108001470Y-78049870D01*
X107725714Y-78163811D01*
X107589287Y-78300000D01*
X106760611Y-78300000D01*
X106625399Y-78164552D01*
X106349843Y-78050131D01*
X106051474Y-78049870D01*
X105775718Y-78163811D01*
X105564556Y-78374605D01*
X105450135Y-78650161D01*
X105449874Y-78948530D01*
X100788259Y-78948530D01*
X100899843Y-78679806D01*
X100900156Y-78321764D01*
X100763428Y-77990857D01*
X100510475Y-77737462D01*
X100179806Y-77600157D01*
X99821764Y-77599844D01*
X99490857Y-77736572D01*
X99237462Y-77989525D01*
X99100157Y-78320194D01*
X99099844Y-78678236D01*
X94899844Y-78678236D01*
X94900156Y-78321764D01*
X94763428Y-77990857D01*
X94510475Y-77737462D01*
X94179806Y-77600157D01*
X93821764Y-77599844D01*
X93490857Y-77736572D01*
X93237462Y-77989525D01*
X93100157Y-78320194D01*
X93099844Y-78678236D01*
X75007836Y-78678236D01*
X75007836Y-77950000D01*
X74979944Y-77801769D01*
X74892340Y-77665628D01*
X74758671Y-77574296D01*
X74600000Y-77542164D01*
X71100000Y-77542164D01*
X70951769Y-77570056D01*
X70815628Y-77657660D01*
X70724296Y-77791329D01*
X70692164Y-77950000D01*
X66475000Y-77950000D01*
X66475000Y-76048530D01*
X83199849Y-76048530D01*
X83313790Y-76324286D01*
X83524584Y-76535448D01*
X83800140Y-76649869D01*
X84098509Y-76650130D01*
X84374265Y-76536189D01*
X84585427Y-76325395D01*
X84699848Y-76049839D01*
X84699929Y-75957177D01*
X85507144Y-75149963D01*
X85698530Y-75150130D01*
X85974286Y-75036189D01*
X86185448Y-74825395D01*
X86299869Y-74549839D01*
X86300130Y-74251470D01*
X86186189Y-73975714D01*
X85975395Y-73764552D01*
X85699839Y-73650131D01*
X85401470Y-73649870D01*
X85125714Y-73763811D01*
X84914552Y-73974605D01*
X84800131Y-74250161D01*
X84799962Y-74442931D01*
X84092769Y-75150125D01*
X83801449Y-75149870D01*
X83525693Y-75263811D01*
X83314531Y-75474605D01*
X83200110Y-75750161D01*
X83199849Y-76048530D01*
X66475000Y-76048530D01*
X66475000Y-75098530D01*
X81999870Y-75098530D01*
X82113811Y-75374286D01*
X82324605Y-75585448D01*
X82600161Y-75699869D01*
X82898530Y-75700130D01*
X83174286Y-75586189D01*
X83385448Y-75375395D01*
X83499869Y-75099839D01*
X83500130Y-74801470D01*
X83406931Y-74575913D01*
X85411056Y-72571788D01*
X85474605Y-72635448D01*
X85750161Y-72749869D01*
X86048530Y-72750130D01*
X86324286Y-72636189D01*
X86349860Y-72610660D01*
X86374605Y-72635448D01*
X86650161Y-72749869D01*
X86772158Y-72749976D01*
X88050000Y-74027818D01*
X88050000Y-76589306D01*
X87964552Y-76674605D01*
X87850131Y-76950161D01*
X87849870Y-77248530D01*
X87963811Y-77524286D01*
X88174605Y-77735448D01*
X88450161Y-77849869D01*
X88748530Y-77850130D01*
X89024286Y-77736189D01*
X89235448Y-77525395D01*
X89349869Y-77249839D01*
X89350130Y-76951470D01*
X89236189Y-76675714D01*
X89150000Y-76589375D01*
X89150000Y-76298530D01*
X91599870Y-76298530D01*
X91713811Y-76574286D01*
X91924605Y-76785448D01*
X92200161Y-76899869D01*
X92498530Y-76900130D01*
X92774286Y-76786189D01*
X92985448Y-76575395D01*
X93017360Y-76498542D01*
X93549870Y-76498542D01*
X93663811Y-76774298D01*
X93874605Y-76985460D01*
X94150161Y-77099881D01*
X94448530Y-77100142D01*
X94724286Y-76986201D01*
X94935448Y-76775407D01*
X95049869Y-76499851D01*
X95050130Y-76201482D01*
X94936189Y-75925726D01*
X94800000Y-75789299D01*
X94800000Y-74598530D01*
X95449870Y-74598530D01*
X95563811Y-74874286D01*
X95650000Y-74960625D01*
X95650000Y-75624712D01*
X95580050Y-75694540D01*
X95465629Y-75970096D01*
X95465368Y-76268465D01*
X95579309Y-76544221D01*
X95790103Y-76755383D01*
X96065659Y-76869804D01*
X96364028Y-76870065D01*
X96639784Y-76756124D01*
X96850946Y-76545330D01*
X96886814Y-76458950D01*
X96913811Y-76524286D01*
X97124605Y-76735448D01*
X97400161Y-76849869D01*
X97698530Y-76850130D01*
X97974286Y-76736189D01*
X98185448Y-76525395D01*
X98279650Y-76298530D01*
X99599870Y-76298530D01*
X99713811Y-76574286D01*
X99924605Y-76785448D01*
X100200161Y-76899869D01*
X100498530Y-76900130D01*
X100774286Y-76786189D01*
X100985448Y-76575395D01*
X101099869Y-76299839D01*
X101099870Y-76298530D01*
X101149870Y-76298530D01*
X101263811Y-76574286D01*
X101474605Y-76785448D01*
X101750161Y-76899869D01*
X102048530Y-76900130D01*
X102324286Y-76786189D01*
X102535448Y-76575395D01*
X102649869Y-76299839D01*
X102650038Y-76107069D01*
X103003553Y-75753554D01*
X103111940Y-75591342D01*
X103127214Y-75514552D01*
X103150000Y-75400000D01*
X103150000Y-71898487D01*
X104099870Y-71898487D01*
X104213811Y-72174243D01*
X104300000Y-72260582D01*
X104300000Y-75589306D01*
X104214552Y-75674605D01*
X104100131Y-75950161D01*
X104099870Y-76248530D01*
X104213811Y-76524286D01*
X104424605Y-76735448D01*
X104700161Y-76849869D01*
X104998530Y-76850130D01*
X105274286Y-76736189D01*
X105485448Y-76525395D01*
X105599869Y-76249839D01*
X105600130Y-75951470D01*
X105486189Y-75675714D01*
X105400000Y-75589375D01*
X105400000Y-72260651D01*
X105485448Y-72175352D01*
X105599869Y-71899796D01*
X105600130Y-71601427D01*
X105486189Y-71325671D01*
X105275395Y-71114509D01*
X104999839Y-71000088D01*
X104701470Y-70999827D01*
X104425714Y-71113768D01*
X104214552Y-71324562D01*
X104100131Y-71600118D01*
X104099870Y-71898487D01*
X103150000Y-71898487D01*
X103150000Y-70898465D01*
X105449862Y-70898465D01*
X105563803Y-71174221D01*
X105699992Y-71310648D01*
X105699992Y-75959669D01*
X105600131Y-76200161D01*
X105599870Y-76498530D01*
X105713811Y-76774286D01*
X105924605Y-76985448D01*
X106200161Y-77099869D01*
X106498530Y-77100130D01*
X106774286Y-76986189D01*
X106985448Y-76775395D01*
X107099869Y-76499839D01*
X107100130Y-76201470D01*
X106986189Y-75925714D01*
X106775395Y-75714552D01*
X106699992Y-75683242D01*
X106699992Y-71310542D01*
X106835440Y-71175330D01*
X106949861Y-70899774D01*
X106950080Y-70648532D01*
X107599870Y-70648532D01*
X107713811Y-70924288D01*
X107800000Y-71010627D01*
X107800000Y-73350000D01*
X107841866Y-73560476D01*
X107961091Y-73738909D01*
X108099976Y-73877794D01*
X108099870Y-73998530D01*
X108213811Y-74274286D01*
X108300000Y-74360625D01*
X108300000Y-76521370D01*
X108341866Y-76731846D01*
X108461091Y-76910279D01*
X108514291Y-76963479D01*
X108514185Y-77084215D01*
X108628126Y-77359971D01*
X108838920Y-77571133D01*
X109114476Y-77685554D01*
X109412845Y-77685815D01*
X109688601Y-77571874D01*
X109899763Y-77361080D01*
X110014184Y-77085524D01*
X110014445Y-76787155D01*
X109936507Y-76598530D01*
X122699860Y-76598530D01*
X122813801Y-76874286D01*
X123024595Y-77085448D01*
X123300151Y-77199869D01*
X123598520Y-77200130D01*
X123840851Y-77100000D01*
X124909650Y-77100000D01*
X125150161Y-77199869D01*
X125448530Y-77200130D01*
X125724286Y-77086189D01*
X125935448Y-76875395D01*
X126049869Y-76599839D01*
X126050130Y-76301470D01*
X125936189Y-76025714D01*
X125725395Y-75814552D01*
X125449839Y-75700131D01*
X125151470Y-75699870D01*
X124909139Y-75800000D01*
X123840340Y-75800000D01*
X123599829Y-75700131D01*
X123301460Y-75699870D01*
X123025704Y-75813811D01*
X122814542Y-76024605D01*
X122700121Y-76300161D01*
X122699860Y-76598530D01*
X109936507Y-76598530D01*
X109900504Y-76511399D01*
X109689710Y-76300237D01*
X109414154Y-76185816D01*
X109400000Y-76185804D01*
X109400000Y-74360694D01*
X109485448Y-74275395D01*
X109599869Y-73999839D01*
X109600130Y-73701470D01*
X109486189Y-73425714D01*
X109275395Y-73214552D01*
X108999839Y-73100131D01*
X108900000Y-73100044D01*
X108900000Y-71010696D01*
X108985448Y-70925397D01*
X109099869Y-70649841D01*
X109099957Y-70548530D01*
X109149870Y-70548530D01*
X109263811Y-70824286D01*
X109350000Y-70910625D01*
X109350000Y-73000000D01*
X109391866Y-73210476D01*
X109511091Y-73388909D01*
X109849976Y-73727793D01*
X109849870Y-73848530D01*
X109963811Y-74124286D01*
X110174605Y-74335448D01*
X110450161Y-74449869D01*
X110748530Y-74450130D01*
X111024286Y-74336189D01*
X111112030Y-74248597D01*
X114149870Y-74248597D01*
X114263811Y-74524353D01*
X114474605Y-74735515D01*
X114750161Y-74849936D01*
X115048530Y-74850197D01*
X115324286Y-74736256D01*
X115535448Y-74525462D01*
X115649869Y-74249906D01*
X115650130Y-73951537D01*
X115536189Y-73675781D01*
X115500000Y-73639529D01*
X115500000Y-71948463D01*
X120599860Y-71948463D01*
X120713801Y-72224219D01*
X120799990Y-72310558D01*
X120799990Y-74989316D01*
X120714552Y-75074605D01*
X120600131Y-75350161D01*
X120599870Y-75648530D01*
X120713811Y-75924286D01*
X120924605Y-76135448D01*
X121200161Y-76249869D01*
X121498530Y-76250130D01*
X121774286Y-76136189D01*
X121985448Y-75925395D01*
X122099869Y-75649839D01*
X122100130Y-75351470D01*
X121986189Y-75075714D01*
X121899990Y-74989365D01*
X121899990Y-74198530D01*
X122749870Y-74198530D01*
X122863811Y-74474286D01*
X123074605Y-74685448D01*
X123350161Y-74799869D01*
X123648530Y-74800130D01*
X123924286Y-74686189D01*
X124060713Y-74550000D01*
X125789393Y-74550000D01*
X125924605Y-74685448D01*
X126200161Y-74799869D01*
X126498530Y-74800130D01*
X126774286Y-74686189D01*
X126985448Y-74475395D01*
X127099869Y-74199839D01*
X127100130Y-73901470D01*
X126986189Y-73625714D01*
X126775395Y-73414552D01*
X126499839Y-73300131D01*
X126201470Y-73299870D01*
X125925714Y-73413811D01*
X125789287Y-73550000D01*
X124060607Y-73550000D01*
X123925395Y-73414552D01*
X123649839Y-73300131D01*
X123351470Y-73299870D01*
X123075714Y-73413811D01*
X122864552Y-73624605D01*
X122750131Y-73900161D01*
X122749870Y-74198530D01*
X121899990Y-74198530D01*
X121899990Y-72348530D01*
X122699870Y-72348530D01*
X122813811Y-72624286D01*
X123024605Y-72835448D01*
X123300161Y-72949869D01*
X123598530Y-72950130D01*
X123874286Y-72836189D01*
X124010713Y-72700000D01*
X125439393Y-72700000D01*
X125574605Y-72835448D01*
X125850161Y-72949869D01*
X126148530Y-72950130D01*
X126424286Y-72836189D01*
X126635448Y-72625395D01*
X126749869Y-72349839D01*
X126750130Y-72051470D01*
X126636189Y-71775714D01*
X126425395Y-71564552D01*
X126149839Y-71450131D01*
X125851470Y-71449870D01*
X125575714Y-71563811D01*
X125439287Y-71700000D01*
X124010607Y-71700000D01*
X123875395Y-71564552D01*
X123599839Y-71450131D01*
X123301470Y-71449870D01*
X123025714Y-71563811D01*
X122814552Y-71774605D01*
X122700131Y-72050161D01*
X122699870Y-72348530D01*
X121899990Y-72348530D01*
X121899990Y-72310627D01*
X121985438Y-72225328D01*
X122099859Y-71949772D01*
X122100120Y-71651403D01*
X121986179Y-71375647D01*
X121775385Y-71164485D01*
X121499829Y-71050064D01*
X121201460Y-71049803D01*
X120925704Y-71163744D01*
X120714542Y-71374538D01*
X120600121Y-71650094D01*
X120599860Y-71948463D01*
X115500000Y-71948463D01*
X115500000Y-71110694D01*
X115585448Y-71025395D01*
X115699869Y-70749839D01*
X115700130Y-70451470D01*
X115678256Y-70398530D01*
X122749870Y-70398530D01*
X122863811Y-70674286D01*
X123074605Y-70885448D01*
X123350161Y-70999869D01*
X123648530Y-71000130D01*
X123924286Y-70886189D01*
X124060713Y-70750000D01*
X124239480Y-70750000D01*
X124424605Y-70935448D01*
X124700161Y-71049869D01*
X124998530Y-71050130D01*
X125274286Y-70936189D01*
X125485448Y-70725395D01*
X125599869Y-70449839D01*
X125600130Y-70151470D01*
X125486189Y-69875714D01*
X125275395Y-69664552D01*
X124999839Y-69550131D01*
X124701470Y-69549870D01*
X124425714Y-69663811D01*
X124339375Y-69750000D01*
X124060607Y-69750000D01*
X123925395Y-69614552D01*
X123649839Y-69500131D01*
X123351470Y-69499870D01*
X123075714Y-69613811D01*
X122864552Y-69824605D01*
X122750131Y-70100161D01*
X122749870Y-70398530D01*
X115678256Y-70398530D01*
X115586189Y-70175714D01*
X115375395Y-69964552D01*
X115099839Y-69850131D01*
X114801470Y-69849870D01*
X114525714Y-69963811D01*
X114314552Y-70174605D01*
X114200131Y-70450161D01*
X114199870Y-70748530D01*
X114313811Y-71024286D01*
X114400000Y-71110625D01*
X114400000Y-73539460D01*
X114264552Y-73674672D01*
X114150131Y-73950228D01*
X114149870Y-74248597D01*
X111112030Y-74248597D01*
X111235448Y-74125395D01*
X111349869Y-73849839D01*
X111350130Y-73551470D01*
X111236189Y-73275714D01*
X111025395Y-73064552D01*
X110749839Y-72950131D01*
X110627842Y-72950024D01*
X110450000Y-72772182D01*
X110450000Y-70910694D01*
X110535448Y-70825395D01*
X110649869Y-70549839D01*
X110650130Y-70251470D01*
X110536189Y-69975714D01*
X110325395Y-69764552D01*
X110049839Y-69650131D01*
X109751470Y-69649870D01*
X109475714Y-69763811D01*
X109264552Y-69974605D01*
X109150131Y-70250161D01*
X109149870Y-70548530D01*
X109099957Y-70548530D01*
X109100130Y-70351472D01*
X108986189Y-70075716D01*
X108775395Y-69864554D01*
X108499839Y-69750133D01*
X108201470Y-69749872D01*
X107925714Y-69863813D01*
X107714552Y-70074607D01*
X107600131Y-70350163D01*
X107599870Y-70648532D01*
X106950080Y-70648532D01*
X106950122Y-70601405D01*
X106836181Y-70325649D01*
X106625387Y-70114487D01*
X106349831Y-70000066D01*
X106051462Y-69999805D01*
X105775706Y-70113746D01*
X105564544Y-70324540D01*
X105450123Y-70600096D01*
X105449862Y-70898465D01*
X103150000Y-70898465D01*
X103150000Y-66696224D01*
X103174286Y-66686189D01*
X103385448Y-66475395D01*
X103499869Y-66199839D01*
X103500130Y-65901470D01*
X103386189Y-65625714D01*
X103175395Y-65414552D01*
X102899839Y-65300131D01*
X102601470Y-65299870D01*
X102325714Y-65413811D01*
X102114552Y-65624605D01*
X102000131Y-65900161D01*
X101999870Y-66198530D01*
X102113811Y-66474286D01*
X102150000Y-66510538D01*
X102150000Y-75192893D01*
X101942856Y-75400037D01*
X101751470Y-75399870D01*
X101475714Y-75513811D01*
X101264552Y-75724605D01*
X101150131Y-76000161D01*
X101149870Y-76298530D01*
X101099870Y-76298530D01*
X101100130Y-76001470D01*
X100986189Y-75725714D01*
X100983793Y-75723314D01*
X101603553Y-75103554D01*
X101711940Y-74941342D01*
X101720163Y-74900001D01*
X101750000Y-74750000D01*
X101750000Y-66360607D01*
X101885448Y-66225395D01*
X101999869Y-65949839D01*
X102000130Y-65651470D01*
X101886189Y-65375714D01*
X101675395Y-65164552D01*
X101399839Y-65050131D01*
X101101470Y-65049870D01*
X100825714Y-65163811D01*
X100614552Y-65374605D01*
X100500131Y-65650161D01*
X100499870Y-65948530D01*
X100613811Y-66224286D01*
X100750000Y-66360713D01*
X100750000Y-74542893D01*
X99996447Y-75296447D01*
X99888060Y-75458658D01*
X99865042Y-75574377D01*
X99714552Y-75724605D01*
X99600131Y-76000161D01*
X99599870Y-76298530D01*
X98279650Y-76298530D01*
X98299869Y-76249839D01*
X98300130Y-75951470D01*
X98186189Y-75675714D01*
X98100000Y-75589375D01*
X98100000Y-73910607D01*
X98235448Y-73775395D01*
X98349869Y-73499839D01*
X98350130Y-73201470D01*
X98236189Y-72925714D01*
X98025395Y-72714552D01*
X97749839Y-72600131D01*
X97451470Y-72599870D01*
X97175714Y-72713811D01*
X96964552Y-72924605D01*
X96850131Y-73200161D01*
X96849870Y-73498530D01*
X96963811Y-73774286D01*
X97100000Y-73910713D01*
X97100000Y-75489480D01*
X96914552Y-75674605D01*
X96878684Y-75760985D01*
X96851687Y-75695649D01*
X96750000Y-75593784D01*
X96750000Y-74960694D01*
X96835448Y-74875395D01*
X96949869Y-74599839D01*
X96950130Y-74301470D01*
X96836189Y-74025714D01*
X96625395Y-73814552D01*
X96349839Y-73700131D01*
X96051470Y-73699870D01*
X95775714Y-73813811D01*
X95564552Y-74024605D01*
X95450131Y-74300161D01*
X95449870Y-74598530D01*
X94800000Y-74598530D01*
X94800000Y-73957106D01*
X94857143Y-73899963D01*
X95048530Y-73900130D01*
X95324286Y-73786189D01*
X95535448Y-73575395D01*
X95649869Y-73299839D01*
X95650130Y-73001470D01*
X95536189Y-72725714D01*
X95325395Y-72514552D01*
X95049839Y-72400131D01*
X94751470Y-72399870D01*
X94475714Y-72513811D01*
X94264552Y-72724605D01*
X94150131Y-73000161D01*
X94149962Y-73192932D01*
X93946447Y-73396447D01*
X93838060Y-73558658D01*
X93800000Y-73750000D01*
X93800000Y-75789405D01*
X93664552Y-75924617D01*
X93550131Y-76200173D01*
X93549870Y-76498542D01*
X93017360Y-76498542D01*
X93099869Y-76299839D01*
X93100130Y-76001470D01*
X92986189Y-75725714D01*
X92850000Y-75589287D01*
X92850000Y-74057106D01*
X92857143Y-74049963D01*
X93048530Y-74050130D01*
X93324286Y-73936189D01*
X93535448Y-73725395D01*
X93649869Y-73449839D01*
X93650130Y-73151470D01*
X93536189Y-72875714D01*
X93325395Y-72664552D01*
X93049839Y-72550131D01*
X92751470Y-72549870D01*
X92475714Y-72663811D01*
X92264552Y-72874605D01*
X92150131Y-73150161D01*
X92149962Y-73342932D01*
X91996447Y-73496447D01*
X91888060Y-73658658D01*
X91850000Y-73850000D01*
X91850000Y-75589393D01*
X91714552Y-75724605D01*
X91600131Y-76000161D01*
X91599870Y-76298530D01*
X89150000Y-76298530D01*
X89150000Y-73800000D01*
X89108134Y-73589524D01*
X88988909Y-73411091D01*
X87550024Y-71972206D01*
X87550130Y-71851470D01*
X87436189Y-71575714D01*
X87225395Y-71364552D01*
X86949839Y-71250131D01*
X86651470Y-71249870D01*
X86375714Y-71363811D01*
X86350140Y-71389340D01*
X86325395Y-71364552D01*
X86049839Y-71250131D01*
X85751470Y-71249870D01*
X85475714Y-71363811D01*
X85389375Y-71450000D01*
X85205026Y-71450000D01*
X84994550Y-71491866D01*
X84816117Y-71611091D01*
X82361091Y-74066117D01*
X82241866Y-74244550D01*
X82203902Y-74435411D01*
X82114552Y-74524605D01*
X82000131Y-74800161D01*
X81999870Y-75098530D01*
X66475000Y-75098530D01*
X66475000Y-72960000D01*
X67934531Y-72960000D01*
X68033488Y-73457488D01*
X68315292Y-73879239D01*
X68737043Y-74161043D01*
X69234531Y-74260000D01*
X69285469Y-74260000D01*
X69782957Y-74161043D01*
X70204708Y-73879239D01*
X70486512Y-73457488D01*
X70530132Y-73238198D01*
X70530314Y-73239115D01*
X70733776Y-73703756D01*
X71099560Y-74055167D01*
X71571980Y-74239849D01*
X71775000Y-74159762D01*
X71775000Y-72985000D01*
X71755000Y-72985000D01*
X71755000Y-72935000D01*
X71775000Y-72935000D01*
X71775000Y-71760238D01*
X71825000Y-71760238D01*
X71825000Y-72935000D01*
X71845000Y-72935000D01*
X71845000Y-72985000D01*
X71825000Y-72985000D01*
X71825000Y-74159762D01*
X72028020Y-74239849D01*
X72500440Y-74055167D01*
X72866224Y-73703756D01*
X73032164Y-73324803D01*
X73032164Y-73860000D01*
X73060056Y-74008231D01*
X73147660Y-74144372D01*
X73281329Y-74235704D01*
X73440000Y-74267836D01*
X75240000Y-74267836D01*
X75388231Y-74239944D01*
X75524372Y-74152340D01*
X75615704Y-74018671D01*
X75647836Y-73860000D01*
X75647836Y-73378236D01*
X75699844Y-73378236D01*
X75836572Y-73709143D01*
X76089525Y-73962538D01*
X76420194Y-74099843D01*
X76778236Y-74100156D01*
X77109143Y-73963428D01*
X77362538Y-73710475D01*
X77499843Y-73379806D01*
X77500156Y-73021764D01*
X77363428Y-72690857D01*
X77110475Y-72437462D01*
X76779806Y-72300157D01*
X76421764Y-72299844D01*
X76090857Y-72436572D01*
X75837462Y-72689525D01*
X75700157Y-73020194D01*
X75699844Y-73378236D01*
X75647836Y-73378236D01*
X75647836Y-72060000D01*
X75619944Y-71911769D01*
X75532340Y-71775628D01*
X75398671Y-71684296D01*
X75240000Y-71652164D01*
X73440000Y-71652164D01*
X73291769Y-71680056D01*
X73155628Y-71767660D01*
X73064296Y-71901329D01*
X73032164Y-72060000D01*
X73032164Y-72595197D01*
X72866224Y-72216244D01*
X72500440Y-71864833D01*
X72028020Y-71680151D01*
X71825000Y-71760238D01*
X71775000Y-71760238D01*
X71571980Y-71680151D01*
X71099560Y-71864833D01*
X70733776Y-72216244D01*
X70530314Y-72680885D01*
X70530132Y-72681802D01*
X70486512Y-72462512D01*
X70204708Y-72040761D01*
X69782957Y-71758957D01*
X69285469Y-71660000D01*
X69234531Y-71660000D01*
X68737043Y-71758957D01*
X68315292Y-72040761D01*
X68033488Y-72462512D01*
X67934531Y-72960000D01*
X66475000Y-72960000D01*
X66475000Y-70778236D01*
X66799844Y-70778236D01*
X66936572Y-71109143D01*
X67189525Y-71362538D01*
X67520194Y-71499843D01*
X67878236Y-71500156D01*
X68209143Y-71363428D01*
X68462538Y-71110475D01*
X68599843Y-70779806D01*
X68599844Y-70778236D01*
X74899844Y-70778236D01*
X75036572Y-71109143D01*
X75289525Y-71362538D01*
X75620194Y-71499843D01*
X75978236Y-71500156D01*
X76309143Y-71363428D01*
X76562538Y-71110475D01*
X76699843Y-70779806D01*
X76700156Y-70421764D01*
X76563428Y-70090857D01*
X76310475Y-69837462D01*
X75979806Y-69700157D01*
X75621764Y-69699844D01*
X75290857Y-69836572D01*
X75037462Y-70089525D01*
X74900157Y-70420194D01*
X74899844Y-70778236D01*
X68599844Y-70778236D01*
X68600156Y-70421764D01*
X68463428Y-70090857D01*
X68210475Y-69837462D01*
X67879806Y-69700157D01*
X67521764Y-69699844D01*
X67190857Y-69836572D01*
X66937462Y-70089525D01*
X66800157Y-70420194D01*
X66799844Y-70778236D01*
X66475000Y-70778236D01*
X66475000Y-67198530D01*
X81799870Y-67198530D01*
X81913811Y-67474286D01*
X82124605Y-67685448D01*
X82366762Y-67786001D01*
X82840380Y-68259619D01*
X83051255Y-68400522D01*
X83092524Y-68408731D01*
X83300000Y-68450000D01*
X87909673Y-68450000D01*
X88150184Y-68549869D01*
X88448553Y-68550130D01*
X88724309Y-68436189D01*
X88935471Y-68225395D01*
X89049892Y-67949839D01*
X89050153Y-67651470D01*
X88936212Y-67375714D01*
X88725418Y-67164552D01*
X88449862Y-67050131D01*
X88151493Y-67049870D01*
X87909162Y-67150000D01*
X83569239Y-67150000D01*
X83285640Y-66866402D01*
X83186189Y-66625714D01*
X82975395Y-66414552D01*
X82699839Y-66300131D01*
X82401470Y-66299870D01*
X82125714Y-66413811D01*
X81914552Y-66624605D01*
X81800131Y-66900161D01*
X81799870Y-67198530D01*
X66475000Y-67198530D01*
X66475000Y-64294033D01*
X98741710Y-64294033D01*
X98855651Y-64569789D01*
X99066445Y-64780951D01*
X99342001Y-64895372D01*
X99640370Y-64895633D01*
X99916126Y-64781692D01*
X100052553Y-64645503D01*
X102334730Y-64645503D01*
X102374605Y-64685448D01*
X102650161Y-64799869D01*
X102948530Y-64800130D01*
X103224286Y-64686189D01*
X103435448Y-64475395D01*
X103549869Y-64199839D01*
X103550130Y-63901470D01*
X103436189Y-63625714D01*
X103225395Y-63414552D01*
X102949839Y-63300131D01*
X102651470Y-63299870D01*
X102375714Y-63413811D01*
X102164552Y-63624605D01*
X102155874Y-63645503D01*
X100052447Y-63645503D01*
X99917235Y-63510055D01*
X99641679Y-63395634D01*
X99343310Y-63395373D01*
X99067554Y-63509314D01*
X98856392Y-63720108D01*
X98741971Y-63995664D01*
X98741710Y-64294033D01*
X66475000Y-64294033D01*
X66475000Y-60698530D01*
X98949871Y-60698530D01*
X99063812Y-60974286D01*
X99274606Y-61185448D01*
X99550162Y-61299869D01*
X99848531Y-61300130D01*
X100124287Y-61186189D01*
X100260714Y-61050000D01*
X102239393Y-61050000D01*
X102374605Y-61185448D01*
X102650161Y-61299869D01*
X102948530Y-61300130D01*
X103224286Y-61186189D01*
X103362183Y-61048532D01*
X112249870Y-61048532D01*
X112363811Y-61324288D01*
X112574605Y-61535450D01*
X112850161Y-61649871D01*
X113148530Y-61650132D01*
X113390866Y-61550000D01*
X114789317Y-61550000D01*
X114874616Y-61635448D01*
X115150172Y-61749869D01*
X115448541Y-61750130D01*
X115724297Y-61636189D01*
X115935459Y-61425395D01*
X116049880Y-61149839D01*
X116050141Y-60851470D01*
X115936200Y-60575714D01*
X115725406Y-60364552D01*
X115449850Y-60250131D01*
X115151481Y-60249870D01*
X114875725Y-60363811D01*
X114789386Y-60450000D01*
X113610518Y-60450000D01*
X113425395Y-60264554D01*
X113149839Y-60150133D01*
X112851470Y-60149872D01*
X112575714Y-60263813D01*
X112364552Y-60474607D01*
X112250131Y-60750163D01*
X112249870Y-61048532D01*
X103362183Y-61048532D01*
X103435448Y-60975395D01*
X103549869Y-60699839D01*
X103550130Y-60401470D01*
X103436189Y-60125714D01*
X103225395Y-59914552D01*
X102949839Y-59800131D01*
X102651470Y-59799870D01*
X102375714Y-59913811D01*
X102239287Y-60050000D01*
X100260608Y-60050000D01*
X100125396Y-59914552D01*
X99849840Y-59800131D01*
X99551471Y-59799870D01*
X99275715Y-59913811D01*
X99064553Y-60124605D01*
X98950132Y-60400161D01*
X98949871Y-60698530D01*
X66475000Y-60698530D01*
X66475000Y-56300000D01*
X69607879Y-56300000D01*
X69771538Y-57122769D01*
X70237599Y-57820280D01*
X70935110Y-58286341D01*
X71757879Y-58450000D01*
X71842121Y-58450000D01*
X72664890Y-58286341D01*
X73362401Y-57820280D01*
X73828462Y-57122769D01*
X73992121Y-56300000D01*
X73828462Y-55477231D01*
X73362401Y-54779720D01*
X72664890Y-54313659D01*
X71842121Y-54150000D01*
X71757879Y-54150000D01*
X70935110Y-54313659D01*
X70237599Y-54779720D01*
X69771538Y-55477231D01*
X69607879Y-56300000D01*
X66475000Y-56300000D01*
X66475000Y-53600000D01*
X79159139Y-53600000D01*
X79125714Y-53613811D01*
M02*
