G04 #@! TF.FileFunction,Soldermask,Bot*
%FSLAX46Y46*%
G04 Gerber Fmt 4.6, Leading zero omitted, Abs format (unit mm)*
G04 Created by KiCad (PCBNEW 4.0.7) date 2018 March 10, Saturday 13:23:40*
%MOMM*%
%LPD*%
G01*
G04 APERTURE LIST*
%ADD10C,0.100000*%
%ADD11C,0.150000*%
%ADD12R,1.700000X1.400000*%
%ADD13O,1.700000X1.400000*%
%ADD14R,3.900000X3.900000*%
%ADD15C,1.850000*%
%ADD16O,1.600000X2.300000*%
%ADD17R,1.600000X1.250000*%
%ADD18O,1.600000X1.250000*%
%ADD19R,2.100000X2.100000*%
%ADD20O,2.100000X2.100000*%
%ADD21C,1.400000*%
%ADD22C,2.100000*%
%ADD23O,3.900000X3.900000*%
%ADD24R,2.200000X2.200000*%
%ADD25O,2.200000X2.200000*%
G04 APERTURE END LIST*
D10*
D11*
X127050000Y-58500000D02*
X127050000Y-58950000D01*
X126600000Y-58950000D02*
X127050000Y-58950000D01*
X121400000Y-58950000D02*
X120950000Y-58950000D01*
X120950000Y-58500000D02*
X120950000Y-58950000D01*
X120950000Y-47050000D02*
X120950000Y-46600000D01*
X121400000Y-46600000D02*
X120950000Y-46600000D01*
X127050000Y-47050000D02*
X127050000Y-46600000D01*
X126600000Y-46600000D02*
X127050000Y-46600000D01*
D12*
X122785000Y-91540000D03*
D13*
X121215000Y-91540000D03*
X122785000Y-90270000D03*
X121215000Y-90270000D03*
X122785000Y-89000000D03*
X121215000Y-89000000D03*
X122785000Y-87730000D03*
X121215000Y-87730000D03*
X122785000Y-86460000D03*
X121215000Y-86460000D03*
D14*
X72850000Y-79700000D03*
X72850000Y-85700000D03*
X68150000Y-82700000D03*
D15*
X70500000Y-89250000D03*
X75500000Y-89250000D03*
D16*
X69500000Y-91950000D03*
X76500000Y-91950000D03*
D17*
X125700000Y-57150000D03*
D18*
X125700000Y-55900000D03*
X125700000Y-54650000D03*
X125700000Y-53400000D03*
X125700000Y-52150000D03*
X125700000Y-50900000D03*
X125700000Y-49650000D03*
X125700000Y-48400000D03*
D19*
X118810000Y-92900000D03*
D20*
X116270000Y-92900000D03*
X113730000Y-92900000D03*
X111190000Y-92900000D03*
D21*
X86250000Y-55750000D03*
D22*
X82000000Y-95500000D03*
D21*
X94500000Y-88500000D03*
D22*
X110490000Y-45000000D03*
X113030000Y-45000000D03*
D21*
X94000000Y-78500000D03*
X83600000Y-85400000D03*
X67700000Y-70600000D03*
X76600000Y-73200000D03*
X101000000Y-88500000D03*
X100000000Y-78500000D03*
X91000000Y-88500000D03*
X75800000Y-70600000D03*
D22*
X126000000Y-96000000D03*
D19*
X115570000Y-45000000D03*
D20*
X118110000Y-45000000D03*
X120650000Y-45000000D03*
X123190000Y-45000000D03*
X125730000Y-45000000D03*
D23*
X71800000Y-56300000D03*
D24*
X74340000Y-72960000D03*
D25*
X71800000Y-72960000D03*
X69260000Y-72960000D03*
M02*
