G04 #@! TF.FileFunction,Soldermask,Bot*
%FSLAX46Y46*%
G04 Gerber Fmt 4.6, Leading zero omitted, Abs format (unit mm)*
G04 Created by KiCad (PCBNEW 4.0.7) date 03/11/18 20:39:24*
%MOMM*%
%LPD*%
G01*
G04 APERTURE LIST*
%ADD10C,0.100000*%
%ADD11C,0.150000*%
G04 APERTURE END LIST*
D10*
D11*
X127050000Y-58500000D02*
X127050000Y-58950000D01*
X126600000Y-58950000D02*
X127050000Y-58950000D01*
X121400000Y-58950000D02*
X120950000Y-58950000D01*
X120950000Y-58500000D02*
X120950000Y-58950000D01*
X120950000Y-47050000D02*
X120950000Y-46600000D01*
X121400000Y-46600000D02*
X120950000Y-46600000D01*
X127050000Y-47050000D02*
X127050000Y-46600000D01*
X126600000Y-46600000D02*
X127050000Y-46600000D01*
D10*
G36*
X126099783Y-95050629D02*
X126282286Y-95088091D01*
X126454031Y-95160286D01*
X126608488Y-95264468D01*
X126739763Y-95396663D01*
X126842862Y-95551839D01*
X126913859Y-95724090D01*
X126949909Y-95906158D01*
X126949909Y-95906180D01*
X126950041Y-95906848D01*
X126947070Y-96119643D01*
X126946918Y-96120311D01*
X126946918Y-96120330D01*
X126905798Y-96301319D01*
X126830020Y-96471521D01*
X126722630Y-96623755D01*
X126587711Y-96752236D01*
X126430408Y-96852064D01*
X126256712Y-96919437D01*
X126073236Y-96951788D01*
X125886970Y-96947886D01*
X125705013Y-96907881D01*
X125534289Y-96833293D01*
X125381305Y-96726967D01*
X125251886Y-96592949D01*
X125150963Y-96436346D01*
X125082377Y-96263121D01*
X125048746Y-96079878D01*
X125051347Y-95893594D01*
X125090083Y-95711358D01*
X125163477Y-95540115D01*
X125268734Y-95386393D01*
X125401843Y-95256042D01*
X125557737Y-95154028D01*
X125730472Y-95084238D01*
X125913481Y-95049327D01*
X126099783Y-95050629D01*
X126099783Y-95050629D01*
G37*
G36*
X82099783Y-94550629D02*
X82282286Y-94588091D01*
X82454031Y-94660286D01*
X82608488Y-94764468D01*
X82739763Y-94896663D01*
X82842862Y-95051839D01*
X82913859Y-95224090D01*
X82949909Y-95406158D01*
X82949909Y-95406180D01*
X82950041Y-95406848D01*
X82947070Y-95619643D01*
X82946918Y-95620311D01*
X82946918Y-95620330D01*
X82905798Y-95801319D01*
X82830020Y-95971521D01*
X82722630Y-96123755D01*
X82587711Y-96252236D01*
X82430408Y-96352064D01*
X82256712Y-96419437D01*
X82073236Y-96451788D01*
X81886970Y-96447886D01*
X81705013Y-96407881D01*
X81534289Y-96333293D01*
X81381305Y-96226967D01*
X81251886Y-96092949D01*
X81150963Y-95936346D01*
X81082377Y-95763121D01*
X81048746Y-95579878D01*
X81051347Y-95393594D01*
X81090083Y-95211358D01*
X81163477Y-95040115D01*
X81268734Y-94886393D01*
X81401843Y-94756042D01*
X81557737Y-94654028D01*
X81730472Y-94584238D01*
X81913481Y-94549327D01*
X82099783Y-94550629D01*
X82099783Y-94550629D01*
G37*
G36*
X113920926Y-91964792D02*
X113920949Y-91964799D01*
X113921024Y-91964807D01*
X114098140Y-92019633D01*
X114261233Y-92107817D01*
X114404092Y-92226001D01*
X114521275Y-92369681D01*
X114608319Y-92533386D01*
X114661907Y-92710880D01*
X114680000Y-92895403D01*
X114680000Y-92904672D01*
X114679936Y-92913805D01*
X114679935Y-92913810D01*
X114679907Y-92917861D01*
X114659240Y-93102113D01*
X114603179Y-93278842D01*
X114513858Y-93441316D01*
X114394680Y-93583346D01*
X114250185Y-93699523D01*
X114085876Y-93785422D01*
X113908012Y-93837770D01*
X113907951Y-93837776D01*
X113907922Y-93837784D01*
X113723373Y-93854578D01*
X113539074Y-93835208D01*
X113539051Y-93835201D01*
X113538976Y-93835193D01*
X113361860Y-93780367D01*
X113198767Y-93692183D01*
X113055908Y-93573999D01*
X112938725Y-93430319D01*
X112851681Y-93266614D01*
X112798093Y-93089120D01*
X112780000Y-92904597D01*
X112780000Y-92895323D01*
X112780064Y-92886195D01*
X112780065Y-92886190D01*
X112780093Y-92882139D01*
X112800760Y-92697887D01*
X112856821Y-92521158D01*
X112946142Y-92358684D01*
X113065320Y-92216654D01*
X113209815Y-92100477D01*
X113374124Y-92014578D01*
X113551988Y-91962230D01*
X113552049Y-91962224D01*
X113552078Y-91962216D01*
X113736627Y-91945422D01*
X113920926Y-91964792D01*
X113920926Y-91964792D01*
G37*
G36*
X116460926Y-91964792D02*
X116460949Y-91964799D01*
X116461024Y-91964807D01*
X116638140Y-92019633D01*
X116801233Y-92107817D01*
X116944092Y-92226001D01*
X117061275Y-92369681D01*
X117148319Y-92533386D01*
X117201907Y-92710880D01*
X117220000Y-92895403D01*
X117220000Y-92904672D01*
X117219936Y-92913805D01*
X117219935Y-92913810D01*
X117219907Y-92917861D01*
X117199240Y-93102113D01*
X117143179Y-93278842D01*
X117053858Y-93441316D01*
X116934680Y-93583346D01*
X116790185Y-93699523D01*
X116625876Y-93785422D01*
X116448012Y-93837770D01*
X116447951Y-93837776D01*
X116447922Y-93837784D01*
X116263373Y-93854578D01*
X116079074Y-93835208D01*
X116079051Y-93835201D01*
X116078976Y-93835193D01*
X115901860Y-93780367D01*
X115738767Y-93692183D01*
X115595908Y-93573999D01*
X115478725Y-93430319D01*
X115391681Y-93266614D01*
X115338093Y-93089120D01*
X115320000Y-92904597D01*
X115320000Y-92895323D01*
X115320064Y-92886195D01*
X115320065Y-92886190D01*
X115320093Y-92882139D01*
X115340760Y-92697887D01*
X115396821Y-92521158D01*
X115486142Y-92358684D01*
X115605320Y-92216654D01*
X115749815Y-92100477D01*
X115914124Y-92014578D01*
X116091988Y-91962230D01*
X116092049Y-91962224D01*
X116092078Y-91962216D01*
X116276627Y-91945422D01*
X116460926Y-91964792D01*
X116460926Y-91964792D01*
G37*
G36*
X111380926Y-91964792D02*
X111380949Y-91964799D01*
X111381024Y-91964807D01*
X111558140Y-92019633D01*
X111721233Y-92107817D01*
X111864092Y-92226001D01*
X111981275Y-92369681D01*
X112068319Y-92533386D01*
X112121907Y-92710880D01*
X112140000Y-92895403D01*
X112140000Y-92904672D01*
X112139936Y-92913805D01*
X112139935Y-92913810D01*
X112139907Y-92917861D01*
X112119240Y-93102113D01*
X112063179Y-93278842D01*
X111973858Y-93441316D01*
X111854680Y-93583346D01*
X111710185Y-93699523D01*
X111545876Y-93785422D01*
X111368012Y-93837770D01*
X111367951Y-93837776D01*
X111367922Y-93837784D01*
X111183373Y-93854578D01*
X110999074Y-93835208D01*
X110999051Y-93835201D01*
X110998976Y-93835193D01*
X110821860Y-93780367D01*
X110658767Y-93692183D01*
X110515908Y-93573999D01*
X110398725Y-93430319D01*
X110311681Y-93266614D01*
X110258093Y-93089120D01*
X110240000Y-92904597D01*
X110240000Y-92895323D01*
X110240064Y-92886195D01*
X110240065Y-92886190D01*
X110240093Y-92882139D01*
X110260760Y-92697887D01*
X110316821Y-92521158D01*
X110406142Y-92358684D01*
X110525320Y-92216654D01*
X110669815Y-92100477D01*
X110834124Y-92014578D01*
X111011988Y-91962230D01*
X111012049Y-91962224D01*
X111012078Y-91962216D01*
X111196627Y-91945422D01*
X111380926Y-91964792D01*
X111380926Y-91964792D01*
G37*
G36*
X119760000Y-93850000D02*
X117860000Y-93850000D01*
X117860000Y-91950000D01*
X119760000Y-91950000D01*
X119760000Y-93850000D01*
X119760000Y-93850000D01*
G37*
G36*
X76640657Y-90909203D02*
X76640670Y-90909207D01*
X76640755Y-90909216D01*
X76771261Y-90949615D01*
X76891435Y-91014593D01*
X76996700Y-91101675D01*
X77083045Y-91207545D01*
X77147182Y-91328170D01*
X77186669Y-91458955D01*
X77200000Y-91594919D01*
X77200000Y-92305152D01*
X77199961Y-92310797D01*
X77199960Y-92310804D01*
X77199932Y-92314855D01*
X77184703Y-92450619D01*
X77143395Y-92580840D01*
X77077579Y-92700558D01*
X76989764Y-92805212D01*
X76883294Y-92890816D01*
X76762225Y-92954110D01*
X76631167Y-92992682D01*
X76631101Y-92992688D01*
X76631077Y-92992695D01*
X76495118Y-93005068D01*
X76359343Y-92990797D01*
X76359330Y-92990793D01*
X76359245Y-92990784D01*
X76228739Y-92950385D01*
X76108565Y-92885407D01*
X76003300Y-92798325D01*
X75916955Y-92692455D01*
X75852818Y-92571830D01*
X75813331Y-92441045D01*
X75800000Y-92305081D01*
X75800000Y-91594848D01*
X75800039Y-91589203D01*
X75800040Y-91589196D01*
X75800068Y-91585145D01*
X75815297Y-91449381D01*
X75856605Y-91319160D01*
X75922421Y-91199442D01*
X76010236Y-91094788D01*
X76116706Y-91009184D01*
X76237775Y-90945890D01*
X76368833Y-90907318D01*
X76368899Y-90907312D01*
X76368923Y-90907305D01*
X76504882Y-90894932D01*
X76640657Y-90909203D01*
X76640657Y-90909203D01*
G37*
G36*
X69640657Y-90909203D02*
X69640670Y-90909207D01*
X69640755Y-90909216D01*
X69771261Y-90949615D01*
X69891435Y-91014593D01*
X69996700Y-91101675D01*
X70083045Y-91207545D01*
X70147182Y-91328170D01*
X70186669Y-91458955D01*
X70200000Y-91594919D01*
X70200000Y-92305152D01*
X70199961Y-92310797D01*
X70199960Y-92310804D01*
X70199932Y-92314855D01*
X70184703Y-92450619D01*
X70143395Y-92580840D01*
X70077579Y-92700558D01*
X69989764Y-92805212D01*
X69883294Y-92890816D01*
X69762225Y-92954110D01*
X69631167Y-92992682D01*
X69631101Y-92992688D01*
X69631077Y-92992695D01*
X69495118Y-93005068D01*
X69359343Y-92990797D01*
X69359330Y-92990793D01*
X69359245Y-92990784D01*
X69228739Y-92950385D01*
X69108565Y-92885407D01*
X69003300Y-92798325D01*
X68916955Y-92692455D01*
X68852818Y-92571830D01*
X68813331Y-92441045D01*
X68800000Y-92305081D01*
X68800000Y-91594848D01*
X68800039Y-91589203D01*
X68800040Y-91589196D01*
X68800068Y-91585145D01*
X68815297Y-91449381D01*
X68856605Y-91319160D01*
X68922421Y-91199442D01*
X69010236Y-91094788D01*
X69116706Y-91009184D01*
X69237775Y-90945890D01*
X69368833Y-90907318D01*
X69368899Y-90907312D01*
X69368923Y-90907305D01*
X69504882Y-90894932D01*
X69640657Y-90909203D01*
X69640657Y-90909203D01*
G37*
G36*
X121372411Y-85860026D02*
X121377006Y-85860058D01*
X121493376Y-85873111D01*
X121604994Y-85908519D01*
X121707609Y-85964932D01*
X121797313Y-86040202D01*
X121870688Y-86131462D01*
X121911313Y-86209172D01*
X121927531Y-86231751D01*
X121949664Y-86249127D01*
X121975761Y-86259650D01*
X122003757Y-86262485D01*
X122031435Y-86257409D01*
X122056602Y-86244822D01*
X122077267Y-86225723D01*
X122087392Y-86210588D01*
X122133948Y-86124484D01*
X122208590Y-86034258D01*
X122299336Y-85960247D01*
X122402729Y-85905272D01*
X122514830Y-85871427D01*
X122631371Y-85860000D01*
X122938704Y-85860000D01*
X122942411Y-85860026D01*
X122947006Y-85860058D01*
X123063376Y-85873111D01*
X123174994Y-85908519D01*
X123277609Y-85964932D01*
X123367313Y-86040202D01*
X123440688Y-86131462D01*
X123494939Y-86235236D01*
X123528001Y-86347571D01*
X123528007Y-86347632D01*
X123528015Y-86347661D01*
X123538619Y-86464184D01*
X123526389Y-86580549D01*
X123526382Y-86580572D01*
X123526374Y-86580647D01*
X123491747Y-86692509D01*
X123436052Y-86795516D01*
X123361410Y-86885742D01*
X123270664Y-86959753D01*
X123181082Y-87007384D01*
X123159782Y-87022910D01*
X123142561Y-87045164D01*
X123132220Y-87071334D01*
X123129580Y-87099349D01*
X123134850Y-87126991D01*
X123147611Y-87152070D01*
X123166854Y-87172601D01*
X123178953Y-87180695D01*
X123277609Y-87234932D01*
X123367313Y-87310202D01*
X123440688Y-87401462D01*
X123494939Y-87505236D01*
X123528001Y-87617571D01*
X123528007Y-87617632D01*
X123528015Y-87617661D01*
X123538619Y-87734184D01*
X123526389Y-87850549D01*
X123526382Y-87850572D01*
X123526374Y-87850647D01*
X123491747Y-87962509D01*
X123436052Y-88065516D01*
X123361410Y-88155742D01*
X123270664Y-88229753D01*
X123181082Y-88277384D01*
X123159782Y-88292910D01*
X123142561Y-88315164D01*
X123132220Y-88341334D01*
X123129580Y-88369349D01*
X123134850Y-88396991D01*
X123147611Y-88422070D01*
X123166854Y-88442601D01*
X123178953Y-88450695D01*
X123277609Y-88504932D01*
X123367313Y-88580202D01*
X123440688Y-88671462D01*
X123494939Y-88775236D01*
X123528001Y-88887571D01*
X123528007Y-88887632D01*
X123528015Y-88887661D01*
X123538619Y-89004184D01*
X123526389Y-89120549D01*
X123526382Y-89120572D01*
X123526374Y-89120647D01*
X123491747Y-89232509D01*
X123436052Y-89335516D01*
X123361410Y-89425742D01*
X123270664Y-89499753D01*
X123181082Y-89547384D01*
X123159782Y-89562910D01*
X123142561Y-89585164D01*
X123132220Y-89611334D01*
X123129580Y-89639349D01*
X123134850Y-89666991D01*
X123147611Y-89692070D01*
X123166854Y-89712601D01*
X123178953Y-89720695D01*
X123277609Y-89774932D01*
X123367313Y-89850202D01*
X123440688Y-89941462D01*
X123494939Y-90045236D01*
X123528001Y-90157571D01*
X123528007Y-90157632D01*
X123528015Y-90157661D01*
X123538619Y-90274184D01*
X123526389Y-90390549D01*
X123526382Y-90390572D01*
X123526374Y-90390647D01*
X123491747Y-90502509D01*
X123436052Y-90605516D01*
X123361410Y-90695742D01*
X123278451Y-90763402D01*
X123260192Y-90783181D01*
X123247621Y-90808356D01*
X123242561Y-90836037D01*
X123245412Y-90864031D01*
X123255950Y-90890123D01*
X123273340Y-90912245D01*
X123296205Y-90928648D01*
X123322733Y-90938031D01*
X123342482Y-90940000D01*
X123535000Y-90940000D01*
X123535000Y-92140000D01*
X122035000Y-92140000D01*
X122035000Y-91948889D01*
X122031041Y-91921030D01*
X122019477Y-91895376D01*
X122001224Y-91873960D01*
X121977728Y-91858477D01*
X121950848Y-91850153D01*
X121922713Y-91849647D01*
X121895551Y-91856999D01*
X121871513Y-91871627D01*
X121858726Y-91884372D01*
X121791410Y-91965742D01*
X121700664Y-92039753D01*
X121597271Y-92094728D01*
X121485170Y-92128573D01*
X121368629Y-92140000D01*
X121061296Y-92140000D01*
X121057589Y-92139974D01*
X121052994Y-92139942D01*
X120936624Y-92126889D01*
X120825006Y-92091481D01*
X120722391Y-92035068D01*
X120632687Y-91959798D01*
X120559312Y-91868538D01*
X120505061Y-91764764D01*
X120471999Y-91652429D01*
X120471993Y-91652368D01*
X120471985Y-91652339D01*
X120461381Y-91535816D01*
X120473611Y-91419451D01*
X120473618Y-91419428D01*
X120473626Y-91419353D01*
X120508253Y-91307491D01*
X120563948Y-91204484D01*
X120638590Y-91114258D01*
X120729336Y-91040247D01*
X120818918Y-90992616D01*
X120840218Y-90977090D01*
X120857439Y-90954836D01*
X120867780Y-90928666D01*
X120869600Y-90909349D01*
X121559580Y-90909349D01*
X121564850Y-90936991D01*
X121577611Y-90962070D01*
X121596854Y-90982601D01*
X121608953Y-90990695D01*
X121707609Y-91044932D01*
X121797313Y-91120202D01*
X121857587Y-91195168D01*
X121877608Y-91213911D01*
X121902695Y-91226658D01*
X121930340Y-91231911D01*
X121958353Y-91229255D01*
X121984518Y-91218899D01*
X122006761Y-91201664D01*
X122023322Y-91178915D01*
X122032890Y-91152452D01*
X122035000Y-91132020D01*
X122035000Y-90940000D01*
X122226378Y-90940000D01*
X122254237Y-90936041D01*
X122279891Y-90924477D01*
X122301307Y-90906224D01*
X122316790Y-90882728D01*
X122325114Y-90855848D01*
X122325620Y-90827713D01*
X122318268Y-90800551D01*
X122303640Y-90776513D01*
X122291930Y-90764681D01*
X122202687Y-90689798D01*
X122129312Y-90598538D01*
X122088687Y-90520828D01*
X122072469Y-90498249D01*
X122050336Y-90480873D01*
X122024239Y-90470350D01*
X121996243Y-90467515D01*
X121968565Y-90472591D01*
X121943398Y-90485178D01*
X121922733Y-90504277D01*
X121912608Y-90519412D01*
X121866052Y-90605516D01*
X121791410Y-90695742D01*
X121700664Y-90769753D01*
X121611082Y-90817384D01*
X121589782Y-90832910D01*
X121572561Y-90855164D01*
X121562220Y-90881334D01*
X121559580Y-90909349D01*
X120869600Y-90909349D01*
X120870420Y-90900651D01*
X120865150Y-90873009D01*
X120852389Y-90847930D01*
X120833146Y-90827399D01*
X120821047Y-90819305D01*
X120722391Y-90765068D01*
X120632687Y-90689798D01*
X120559312Y-90598538D01*
X120505061Y-90494764D01*
X120471999Y-90382429D01*
X120471993Y-90382368D01*
X120471985Y-90382339D01*
X120461381Y-90265816D01*
X120473611Y-90149451D01*
X120473618Y-90149428D01*
X120473626Y-90149353D01*
X120508253Y-90037491D01*
X120563948Y-89934484D01*
X120638590Y-89844258D01*
X120729336Y-89770247D01*
X120818918Y-89722616D01*
X120840218Y-89707090D01*
X120857439Y-89684836D01*
X120867780Y-89658666D01*
X120869600Y-89639349D01*
X121559580Y-89639349D01*
X121564850Y-89666991D01*
X121577611Y-89692070D01*
X121596854Y-89712601D01*
X121608953Y-89720695D01*
X121707609Y-89774932D01*
X121797313Y-89850202D01*
X121870688Y-89941462D01*
X121911313Y-90019172D01*
X121927531Y-90041751D01*
X121949664Y-90059127D01*
X121975761Y-90069650D01*
X122003757Y-90072485D01*
X122031435Y-90067409D01*
X122056602Y-90054822D01*
X122077267Y-90035723D01*
X122087392Y-90020588D01*
X122133948Y-89934484D01*
X122208590Y-89844258D01*
X122299336Y-89770247D01*
X122388918Y-89722616D01*
X122410218Y-89707090D01*
X122427439Y-89684836D01*
X122437780Y-89658666D01*
X122440420Y-89630651D01*
X122435150Y-89603009D01*
X122422389Y-89577930D01*
X122403146Y-89557399D01*
X122391047Y-89549305D01*
X122292391Y-89495068D01*
X122202687Y-89419798D01*
X122129312Y-89328538D01*
X122088687Y-89250828D01*
X122072469Y-89228249D01*
X122050336Y-89210873D01*
X122024239Y-89200350D01*
X121996243Y-89197515D01*
X121968565Y-89202591D01*
X121943398Y-89215178D01*
X121922733Y-89234277D01*
X121912608Y-89249412D01*
X121866052Y-89335516D01*
X121791410Y-89425742D01*
X121700664Y-89499753D01*
X121611082Y-89547384D01*
X121589782Y-89562910D01*
X121572561Y-89585164D01*
X121562220Y-89611334D01*
X121559580Y-89639349D01*
X120869600Y-89639349D01*
X120870420Y-89630651D01*
X120865150Y-89603009D01*
X120852389Y-89577930D01*
X120833146Y-89557399D01*
X120821047Y-89549305D01*
X120722391Y-89495068D01*
X120632687Y-89419798D01*
X120559312Y-89328538D01*
X120505061Y-89224764D01*
X120471999Y-89112429D01*
X120471993Y-89112368D01*
X120471985Y-89112339D01*
X120461381Y-88995816D01*
X120473611Y-88879451D01*
X120473618Y-88879428D01*
X120473626Y-88879353D01*
X120508253Y-88767491D01*
X120563948Y-88664484D01*
X120638590Y-88574258D01*
X120729336Y-88500247D01*
X120818918Y-88452616D01*
X120840218Y-88437090D01*
X120857439Y-88414836D01*
X120867780Y-88388666D01*
X120869600Y-88369349D01*
X121559580Y-88369349D01*
X121564850Y-88396991D01*
X121577611Y-88422070D01*
X121596854Y-88442601D01*
X121608953Y-88450695D01*
X121707609Y-88504932D01*
X121797313Y-88580202D01*
X121870688Y-88671462D01*
X121911313Y-88749172D01*
X121927531Y-88771751D01*
X121949664Y-88789127D01*
X121975761Y-88799650D01*
X122003757Y-88802485D01*
X122031435Y-88797409D01*
X122056602Y-88784822D01*
X122077267Y-88765723D01*
X122087392Y-88750588D01*
X122133948Y-88664484D01*
X122208590Y-88574258D01*
X122299336Y-88500247D01*
X122388918Y-88452616D01*
X122410218Y-88437090D01*
X122427439Y-88414836D01*
X122437780Y-88388666D01*
X122440420Y-88360651D01*
X122435150Y-88333009D01*
X122422389Y-88307930D01*
X122403146Y-88287399D01*
X122391047Y-88279305D01*
X122292391Y-88225068D01*
X122202687Y-88149798D01*
X122129312Y-88058538D01*
X122088687Y-87980828D01*
X122072469Y-87958249D01*
X122050336Y-87940873D01*
X122024239Y-87930350D01*
X121996243Y-87927515D01*
X121968565Y-87932591D01*
X121943398Y-87945178D01*
X121922733Y-87964277D01*
X121912608Y-87979412D01*
X121866052Y-88065516D01*
X121791410Y-88155742D01*
X121700664Y-88229753D01*
X121611082Y-88277384D01*
X121589782Y-88292910D01*
X121572561Y-88315164D01*
X121562220Y-88341334D01*
X121559580Y-88369349D01*
X120869600Y-88369349D01*
X120870420Y-88360651D01*
X120865150Y-88333009D01*
X120852389Y-88307930D01*
X120833146Y-88287399D01*
X120821047Y-88279305D01*
X120722391Y-88225068D01*
X120632687Y-88149798D01*
X120559312Y-88058538D01*
X120505061Y-87954764D01*
X120471999Y-87842429D01*
X120471993Y-87842368D01*
X120471985Y-87842339D01*
X120461381Y-87725816D01*
X120473611Y-87609451D01*
X120473618Y-87609428D01*
X120473626Y-87609353D01*
X120508253Y-87497491D01*
X120563948Y-87394484D01*
X120638590Y-87304258D01*
X120729336Y-87230247D01*
X120818918Y-87182616D01*
X120840218Y-87167090D01*
X120857439Y-87144836D01*
X120867780Y-87118666D01*
X120869600Y-87099349D01*
X121559580Y-87099349D01*
X121564850Y-87126991D01*
X121577611Y-87152070D01*
X121596854Y-87172601D01*
X121608953Y-87180695D01*
X121707609Y-87234932D01*
X121797313Y-87310202D01*
X121870688Y-87401462D01*
X121911313Y-87479172D01*
X121927531Y-87501751D01*
X121949664Y-87519127D01*
X121975761Y-87529650D01*
X122003757Y-87532485D01*
X122031435Y-87527409D01*
X122056602Y-87514822D01*
X122077267Y-87495723D01*
X122087392Y-87480588D01*
X122133948Y-87394484D01*
X122208590Y-87304258D01*
X122299336Y-87230247D01*
X122388918Y-87182616D01*
X122410218Y-87167090D01*
X122427439Y-87144836D01*
X122437780Y-87118666D01*
X122440420Y-87090651D01*
X122435150Y-87063009D01*
X122422389Y-87037930D01*
X122403146Y-87017399D01*
X122391047Y-87009305D01*
X122292391Y-86955068D01*
X122202687Y-86879798D01*
X122129312Y-86788538D01*
X122088687Y-86710828D01*
X122072469Y-86688249D01*
X122050336Y-86670873D01*
X122024239Y-86660350D01*
X121996243Y-86657515D01*
X121968565Y-86662591D01*
X121943398Y-86675178D01*
X121922733Y-86694277D01*
X121912608Y-86709412D01*
X121866052Y-86795516D01*
X121791410Y-86885742D01*
X121700664Y-86959753D01*
X121611082Y-87007384D01*
X121589782Y-87022910D01*
X121572561Y-87045164D01*
X121562220Y-87071334D01*
X121559580Y-87099349D01*
X120869600Y-87099349D01*
X120870420Y-87090651D01*
X120865150Y-87063009D01*
X120852389Y-87037930D01*
X120833146Y-87017399D01*
X120821047Y-87009305D01*
X120722391Y-86955068D01*
X120632687Y-86879798D01*
X120559312Y-86788538D01*
X120505061Y-86684764D01*
X120471999Y-86572429D01*
X120471993Y-86572368D01*
X120471985Y-86572339D01*
X120461381Y-86455816D01*
X120473611Y-86339451D01*
X120473618Y-86339428D01*
X120473626Y-86339353D01*
X120508253Y-86227491D01*
X120563948Y-86124484D01*
X120638590Y-86034258D01*
X120729336Y-85960247D01*
X120832729Y-85905272D01*
X120944830Y-85871427D01*
X121061371Y-85860000D01*
X121368704Y-85860000D01*
X121372411Y-85860026D01*
X121372411Y-85860026D01*
G37*
G36*
X70586653Y-88425546D02*
X70745144Y-88458079D01*
X70894290Y-88520774D01*
X71028424Y-88611248D01*
X71142424Y-88726047D01*
X71231960Y-88860809D01*
X71293615Y-89010397D01*
X71324903Y-89168412D01*
X71324903Y-89168432D01*
X71325036Y-89169105D01*
X71322455Y-89353900D01*
X71322304Y-89354563D01*
X71322304Y-89354587D01*
X71286614Y-89511671D01*
X71220809Y-89659475D01*
X71127545Y-89791685D01*
X71010383Y-89903256D01*
X70873772Y-89989952D01*
X70722938Y-90048457D01*
X70563597Y-90076554D01*
X70401843Y-90073165D01*
X70243826Y-90038422D01*
X70095566Y-89973649D01*
X69962712Y-89881314D01*
X69850322Y-89764930D01*
X69762678Y-89628933D01*
X69703116Y-89478499D01*
X69673911Y-89319369D01*
X69676170Y-89157595D01*
X69709809Y-88999332D01*
X69773543Y-88850631D01*
X69864954Y-88717129D01*
X69980548Y-88603931D01*
X70115929Y-88515340D01*
X70265935Y-88454733D01*
X70424865Y-88424415D01*
X70586653Y-88425546D01*
X70586653Y-88425546D01*
G37*
G36*
X75586653Y-88425546D02*
X75745144Y-88458079D01*
X75894290Y-88520774D01*
X76028424Y-88611248D01*
X76142424Y-88726047D01*
X76231960Y-88860809D01*
X76293615Y-89010397D01*
X76324903Y-89168412D01*
X76324903Y-89168432D01*
X76325036Y-89169105D01*
X76322455Y-89353900D01*
X76322304Y-89354563D01*
X76322304Y-89354587D01*
X76286614Y-89511671D01*
X76220809Y-89659475D01*
X76127545Y-89791685D01*
X76010383Y-89903256D01*
X75873772Y-89989952D01*
X75722938Y-90048457D01*
X75563597Y-90076554D01*
X75401843Y-90073165D01*
X75243826Y-90038422D01*
X75095566Y-89973649D01*
X74962712Y-89881314D01*
X74850322Y-89764930D01*
X74762678Y-89628933D01*
X74703116Y-89478499D01*
X74673911Y-89319369D01*
X74676170Y-89157595D01*
X74709809Y-88999332D01*
X74773543Y-88850631D01*
X74864954Y-88717129D01*
X74980548Y-88603931D01*
X75115929Y-88515340D01*
X75265935Y-88454733D01*
X75424865Y-88424415D01*
X75586653Y-88425546D01*
X75586653Y-88425546D01*
G37*
G36*
X101063026Y-87900396D02*
X101178285Y-87924055D01*
X101286755Y-87969652D01*
X101384310Y-88035453D01*
X101467220Y-88118944D01*
X101532334Y-88216950D01*
X101577176Y-88325744D01*
X101599893Y-88440474D01*
X101599893Y-88440494D01*
X101600026Y-88441167D01*
X101598149Y-88575564D01*
X101597998Y-88576227D01*
X101597998Y-88576251D01*
X101572084Y-88690309D01*
X101524226Y-88797798D01*
X101456396Y-88893954D01*
X101371186Y-88975098D01*
X101271837Y-89038146D01*
X101162136Y-89080697D01*
X101046253Y-89101131D01*
X100928612Y-89098666D01*
X100813691Y-89073400D01*
X100705866Y-89026292D01*
X100609245Y-88959138D01*
X100527506Y-88874495D01*
X100463764Y-88775587D01*
X100420448Y-88666183D01*
X100399207Y-88550450D01*
X100400850Y-88432797D01*
X100425314Y-88317700D01*
X100471669Y-88209545D01*
X100538147Y-88112458D01*
X100622216Y-88030131D01*
X100720674Y-87965702D01*
X100829772Y-87921623D01*
X100945356Y-87899574D01*
X101063026Y-87900396D01*
X101063026Y-87900396D01*
G37*
G36*
X94563026Y-87900396D02*
X94678285Y-87924055D01*
X94786755Y-87969652D01*
X94884310Y-88035453D01*
X94967220Y-88118944D01*
X95032334Y-88216950D01*
X95077176Y-88325744D01*
X95099893Y-88440474D01*
X95099893Y-88440494D01*
X95100026Y-88441167D01*
X95098149Y-88575564D01*
X95097998Y-88576227D01*
X95097998Y-88576251D01*
X95072084Y-88690309D01*
X95024226Y-88797798D01*
X94956396Y-88893954D01*
X94871186Y-88975098D01*
X94771837Y-89038146D01*
X94662136Y-89080697D01*
X94546253Y-89101131D01*
X94428612Y-89098666D01*
X94313691Y-89073400D01*
X94205866Y-89026292D01*
X94109245Y-88959138D01*
X94027506Y-88874495D01*
X93963764Y-88775587D01*
X93920448Y-88666183D01*
X93899207Y-88550450D01*
X93900850Y-88432797D01*
X93925314Y-88317700D01*
X93971669Y-88209545D01*
X94038147Y-88112458D01*
X94122216Y-88030131D01*
X94220674Y-87965702D01*
X94329772Y-87921623D01*
X94445356Y-87899574D01*
X94563026Y-87900396D01*
X94563026Y-87900396D01*
G37*
G36*
X91063026Y-87900396D02*
X91178285Y-87924055D01*
X91286755Y-87969652D01*
X91384310Y-88035453D01*
X91467220Y-88118944D01*
X91532334Y-88216950D01*
X91577176Y-88325744D01*
X91599893Y-88440474D01*
X91599893Y-88440494D01*
X91600026Y-88441167D01*
X91598149Y-88575564D01*
X91597998Y-88576227D01*
X91597998Y-88576251D01*
X91572084Y-88690309D01*
X91524226Y-88797798D01*
X91456396Y-88893954D01*
X91371186Y-88975098D01*
X91271837Y-89038146D01*
X91162136Y-89080697D01*
X91046253Y-89101131D01*
X90928612Y-89098666D01*
X90813691Y-89073400D01*
X90705866Y-89026292D01*
X90609245Y-88959138D01*
X90527506Y-88874495D01*
X90463764Y-88775587D01*
X90420448Y-88666183D01*
X90399207Y-88550450D01*
X90400850Y-88432797D01*
X90425314Y-88317700D01*
X90471669Y-88209545D01*
X90538147Y-88112458D01*
X90622216Y-88030131D01*
X90720674Y-87965702D01*
X90829772Y-87921623D01*
X90945356Y-87899574D01*
X91063026Y-87900396D01*
X91063026Y-87900396D01*
G37*
G36*
X74700000Y-87550000D02*
X71000000Y-87550000D01*
X71000000Y-83850000D01*
X74700000Y-83850000D01*
X74700000Y-87550000D01*
X74700000Y-87550000D01*
G37*
G36*
X83663026Y-84800396D02*
X83778285Y-84824055D01*
X83886755Y-84869652D01*
X83984310Y-84935453D01*
X84067220Y-85018944D01*
X84132334Y-85116950D01*
X84177176Y-85225744D01*
X84199893Y-85340474D01*
X84199893Y-85340494D01*
X84200026Y-85341167D01*
X84198149Y-85475564D01*
X84197998Y-85476227D01*
X84197998Y-85476251D01*
X84172084Y-85590309D01*
X84124226Y-85697798D01*
X84056396Y-85793954D01*
X83971186Y-85875098D01*
X83871837Y-85938146D01*
X83762136Y-85980697D01*
X83646253Y-86001131D01*
X83528612Y-85998666D01*
X83413691Y-85973400D01*
X83305866Y-85926292D01*
X83209245Y-85859138D01*
X83127506Y-85774495D01*
X83063764Y-85675587D01*
X83020448Y-85566183D01*
X82999207Y-85450450D01*
X83000850Y-85332797D01*
X83025314Y-85217700D01*
X83071669Y-85109545D01*
X83138147Y-85012458D01*
X83222216Y-84930131D01*
X83320674Y-84865702D01*
X83429772Y-84821623D01*
X83545356Y-84799574D01*
X83663026Y-84800396D01*
X83663026Y-84800396D01*
G37*
G36*
X70000000Y-84550000D02*
X66300000Y-84550000D01*
X66300000Y-80850000D01*
X70000000Y-80850000D01*
X70000000Y-84550000D01*
X70000000Y-84550000D01*
G37*
G36*
X74700000Y-81550000D02*
X71000000Y-81550000D01*
X71000000Y-77850000D01*
X74700000Y-77850000D01*
X74700000Y-81550000D01*
X74700000Y-81550000D01*
G37*
G36*
X94063026Y-77900396D02*
X94178285Y-77924055D01*
X94286755Y-77969652D01*
X94384310Y-78035453D01*
X94467220Y-78118944D01*
X94532334Y-78216950D01*
X94577176Y-78325744D01*
X94599893Y-78440474D01*
X94599893Y-78440494D01*
X94600026Y-78441167D01*
X94598149Y-78575564D01*
X94597998Y-78576227D01*
X94597998Y-78576251D01*
X94572084Y-78690309D01*
X94524226Y-78797798D01*
X94456396Y-78893954D01*
X94371186Y-78975098D01*
X94271837Y-79038146D01*
X94162136Y-79080697D01*
X94046253Y-79101131D01*
X93928612Y-79098666D01*
X93813691Y-79073400D01*
X93705866Y-79026292D01*
X93609245Y-78959138D01*
X93527506Y-78874495D01*
X93463764Y-78775587D01*
X93420448Y-78666183D01*
X93399207Y-78550450D01*
X93400850Y-78432797D01*
X93425314Y-78317700D01*
X93471669Y-78209545D01*
X93538147Y-78112458D01*
X93622216Y-78030131D01*
X93720674Y-77965702D01*
X93829772Y-77921623D01*
X93945356Y-77899574D01*
X94063026Y-77900396D01*
X94063026Y-77900396D01*
G37*
G36*
X100063026Y-77900396D02*
X100178285Y-77924055D01*
X100286755Y-77969652D01*
X100384310Y-78035453D01*
X100467220Y-78118944D01*
X100532334Y-78216950D01*
X100577176Y-78325744D01*
X100599893Y-78440474D01*
X100599893Y-78440494D01*
X100600026Y-78441167D01*
X100598149Y-78575564D01*
X100597998Y-78576227D01*
X100597998Y-78576251D01*
X100572084Y-78690309D01*
X100524226Y-78797798D01*
X100456396Y-78893954D01*
X100371186Y-78975098D01*
X100271837Y-79038146D01*
X100162136Y-79080697D01*
X100046253Y-79101131D01*
X99928612Y-79098666D01*
X99813691Y-79073400D01*
X99705866Y-79026292D01*
X99609245Y-78959138D01*
X99527506Y-78874495D01*
X99463764Y-78775587D01*
X99420448Y-78666183D01*
X99399207Y-78550450D01*
X99400850Y-78432797D01*
X99425314Y-78317700D01*
X99471669Y-78209545D01*
X99538147Y-78112458D01*
X99622216Y-78030131D01*
X99720674Y-77965702D01*
X99829772Y-77921623D01*
X99945356Y-77899574D01*
X100063026Y-77900396D01*
X100063026Y-77900396D01*
G37*
G36*
X75340000Y-73960000D02*
X73340000Y-73960000D01*
X73340000Y-71960000D01*
X75340000Y-71960000D01*
X75340000Y-73960000D01*
X75340000Y-73960000D01*
G37*
G36*
X71814744Y-71960068D02*
X71814752Y-71960069D01*
X71818801Y-71960097D01*
X72012751Y-71981852D01*
X72198781Y-72040865D01*
X72369806Y-72134887D01*
X72519312Y-72260337D01*
X72641603Y-72412437D01*
X72732023Y-72585393D01*
X72787126Y-72772619D01*
X72787132Y-72772685D01*
X72787139Y-72772709D01*
X72804818Y-72966976D01*
X72784428Y-73160980D01*
X72784422Y-73160998D01*
X72784414Y-73161078D01*
X72726702Y-73347516D01*
X72633877Y-73519193D01*
X72509473Y-73669571D01*
X72358231Y-73792921D01*
X72185909Y-73884546D01*
X71999073Y-73940955D01*
X71804839Y-73960000D01*
X71795088Y-73960000D01*
X71785256Y-73959932D01*
X71785248Y-73959931D01*
X71781199Y-73959903D01*
X71587249Y-73938148D01*
X71401219Y-73879135D01*
X71230194Y-73785113D01*
X71080688Y-73659663D01*
X70958397Y-73507563D01*
X70867977Y-73334607D01*
X70812874Y-73147381D01*
X70812868Y-73147315D01*
X70812861Y-73147291D01*
X70795182Y-72953024D01*
X70815572Y-72759020D01*
X70815578Y-72759002D01*
X70815586Y-72758922D01*
X70873298Y-72572484D01*
X70966123Y-72400807D01*
X71090527Y-72250429D01*
X71241769Y-72127079D01*
X71414091Y-72035454D01*
X71600927Y-71979045D01*
X71795161Y-71960000D01*
X71804912Y-71960000D01*
X71814744Y-71960068D01*
X71814744Y-71960068D01*
G37*
G36*
X69274744Y-71960068D02*
X69274752Y-71960069D01*
X69278801Y-71960097D01*
X69472751Y-71981852D01*
X69658781Y-72040865D01*
X69829806Y-72134887D01*
X69979312Y-72260337D01*
X70101603Y-72412437D01*
X70192023Y-72585393D01*
X70247126Y-72772619D01*
X70247132Y-72772685D01*
X70247139Y-72772709D01*
X70264818Y-72966976D01*
X70244428Y-73160980D01*
X70244422Y-73160998D01*
X70244414Y-73161078D01*
X70186702Y-73347516D01*
X70093877Y-73519193D01*
X69969473Y-73669571D01*
X69818231Y-73792921D01*
X69645909Y-73884546D01*
X69459073Y-73940955D01*
X69264839Y-73960000D01*
X69255088Y-73960000D01*
X69245256Y-73959932D01*
X69245248Y-73959931D01*
X69241199Y-73959903D01*
X69047249Y-73938148D01*
X68861219Y-73879135D01*
X68690194Y-73785113D01*
X68540688Y-73659663D01*
X68418397Y-73507563D01*
X68327977Y-73334607D01*
X68272874Y-73147381D01*
X68272868Y-73147315D01*
X68272861Y-73147291D01*
X68255182Y-72953024D01*
X68275572Y-72759020D01*
X68275578Y-72759002D01*
X68275586Y-72758922D01*
X68333298Y-72572484D01*
X68426123Y-72400807D01*
X68550527Y-72250429D01*
X68701769Y-72127079D01*
X68874091Y-72035454D01*
X69060927Y-71979045D01*
X69255161Y-71960000D01*
X69264912Y-71960000D01*
X69274744Y-71960068D01*
X69274744Y-71960068D01*
G37*
G36*
X76663026Y-72600396D02*
X76778285Y-72624055D01*
X76886755Y-72669652D01*
X76984310Y-72735453D01*
X77067220Y-72818944D01*
X77132334Y-72916950D01*
X77177176Y-73025744D01*
X77199893Y-73140474D01*
X77199893Y-73140494D01*
X77200026Y-73141167D01*
X77198149Y-73275564D01*
X77197998Y-73276227D01*
X77197998Y-73276251D01*
X77172084Y-73390309D01*
X77124226Y-73497798D01*
X77056396Y-73593954D01*
X76971186Y-73675098D01*
X76871837Y-73738146D01*
X76762136Y-73780697D01*
X76646253Y-73801131D01*
X76528612Y-73798666D01*
X76413691Y-73773400D01*
X76305866Y-73726292D01*
X76209245Y-73659138D01*
X76127506Y-73574495D01*
X76063764Y-73475587D01*
X76020448Y-73366183D01*
X75999207Y-73250450D01*
X76000850Y-73132797D01*
X76025314Y-73017700D01*
X76071669Y-72909545D01*
X76138147Y-72812458D01*
X76222216Y-72730131D01*
X76320674Y-72665702D01*
X76429772Y-72621623D01*
X76545356Y-72599574D01*
X76663026Y-72600396D01*
X76663026Y-72600396D01*
G37*
G36*
X75863026Y-70000396D02*
X75978285Y-70024055D01*
X76086755Y-70069652D01*
X76184310Y-70135453D01*
X76267220Y-70218944D01*
X76332334Y-70316950D01*
X76377176Y-70425744D01*
X76399893Y-70540474D01*
X76399893Y-70540494D01*
X76400026Y-70541167D01*
X76398149Y-70675564D01*
X76397998Y-70676227D01*
X76397998Y-70676251D01*
X76372084Y-70790309D01*
X76324226Y-70897798D01*
X76256396Y-70993954D01*
X76171186Y-71075098D01*
X76071837Y-71138146D01*
X75962136Y-71180697D01*
X75846253Y-71201131D01*
X75728612Y-71198666D01*
X75613691Y-71173400D01*
X75505866Y-71126292D01*
X75409245Y-71059138D01*
X75327506Y-70974495D01*
X75263764Y-70875587D01*
X75220448Y-70766183D01*
X75199207Y-70650450D01*
X75200850Y-70532797D01*
X75225314Y-70417700D01*
X75271669Y-70309545D01*
X75338147Y-70212458D01*
X75422216Y-70130131D01*
X75520674Y-70065702D01*
X75629772Y-70021623D01*
X75745356Y-69999574D01*
X75863026Y-70000396D01*
X75863026Y-70000396D01*
G37*
G36*
X67763026Y-70000396D02*
X67878285Y-70024055D01*
X67986755Y-70069652D01*
X68084310Y-70135453D01*
X68167220Y-70218944D01*
X68232334Y-70316950D01*
X68277176Y-70425744D01*
X68299893Y-70540474D01*
X68299893Y-70540494D01*
X68300026Y-70541167D01*
X68298149Y-70675564D01*
X68297998Y-70676227D01*
X68297998Y-70676251D01*
X68272084Y-70790309D01*
X68224226Y-70897798D01*
X68156396Y-70993954D01*
X68071186Y-71075098D01*
X67971837Y-71138146D01*
X67862136Y-71180697D01*
X67746253Y-71201131D01*
X67628612Y-71198666D01*
X67513691Y-71173400D01*
X67405866Y-71126292D01*
X67309245Y-71059138D01*
X67227506Y-70974495D01*
X67163764Y-70875587D01*
X67120448Y-70766183D01*
X67099207Y-70650450D01*
X67100850Y-70532797D01*
X67125314Y-70417700D01*
X67171669Y-70309545D01*
X67238147Y-70212458D01*
X67322216Y-70130131D01*
X67420674Y-70065702D01*
X67529772Y-70021623D01*
X67645356Y-69999574D01*
X67763026Y-70000396D01*
X67763026Y-70000396D01*
G37*
G36*
X71830724Y-54450151D02*
X71830731Y-54450152D01*
X71834781Y-54450180D01*
X72193588Y-54490427D01*
X72537744Y-54599600D01*
X72854140Y-54773540D01*
X73130725Y-55005623D01*
X73356965Y-55287008D01*
X73524241Y-55606978D01*
X73626182Y-55953345D01*
X73626187Y-55953405D01*
X73626196Y-55953434D01*
X73658910Y-56312910D01*
X73621180Y-56671896D01*
X73621173Y-56671919D01*
X73621165Y-56671994D01*
X73514398Y-57016904D01*
X73342671Y-57334507D01*
X73112524Y-57612706D01*
X72832725Y-57840904D01*
X72513931Y-58010410D01*
X72168285Y-58114767D01*
X71808951Y-58150000D01*
X71790976Y-58150000D01*
X71769276Y-58149849D01*
X71769269Y-58149848D01*
X71765219Y-58149820D01*
X71406412Y-58109573D01*
X71062256Y-58000400D01*
X70745860Y-57826460D01*
X70469275Y-57594377D01*
X70243035Y-57312992D01*
X70075759Y-56993022D01*
X69973818Y-56646655D01*
X69973813Y-56646595D01*
X69973804Y-56646566D01*
X69941090Y-56287090D01*
X69978820Y-55928104D01*
X69978827Y-55928081D01*
X69978835Y-55928006D01*
X70085602Y-55583096D01*
X70257329Y-55265493D01*
X70487476Y-54987294D01*
X70767275Y-54759096D01*
X71086069Y-54589590D01*
X71431715Y-54485233D01*
X71791049Y-54450000D01*
X71809024Y-54450000D01*
X71830724Y-54450151D01*
X71830724Y-54450151D01*
G37*
G36*
X125881660Y-47875022D02*
X125881667Y-47875023D01*
X125885717Y-47875051D01*
X125987541Y-47886473D01*
X126085207Y-47917454D01*
X126174995Y-47966815D01*
X126253485Y-48032677D01*
X126317688Y-48112529D01*
X126365159Y-48203332D01*
X126394088Y-48301625D01*
X126394094Y-48301686D01*
X126394102Y-48301715D01*
X126403379Y-48403660D01*
X126392679Y-48505466D01*
X126392672Y-48505488D01*
X126392664Y-48505566D01*
X126362365Y-48603446D01*
X126313632Y-48693576D01*
X126248320Y-48772525D01*
X126168918Y-48837284D01*
X126078449Y-48885387D01*
X125980360Y-48915001D01*
X125878387Y-48925000D01*
X125873978Y-48925000D01*
X125869113Y-48925477D01*
X125841773Y-48932136D01*
X125817370Y-48946148D01*
X125797837Y-48966404D01*
X125784721Y-48991299D01*
X125779060Y-49018863D01*
X125781301Y-49046912D01*
X125791269Y-49073227D01*
X125808173Y-49095723D01*
X125830675Y-49112619D01*
X125856993Y-49122577D01*
X125878172Y-49124998D01*
X125881660Y-49125022D01*
X125881667Y-49125023D01*
X125885717Y-49125051D01*
X125987541Y-49136473D01*
X126085207Y-49167454D01*
X126174995Y-49216815D01*
X126253485Y-49282677D01*
X126317688Y-49362529D01*
X126365159Y-49453332D01*
X126394088Y-49551625D01*
X126394094Y-49551686D01*
X126394102Y-49551715D01*
X126403379Y-49653660D01*
X126392679Y-49755466D01*
X126392672Y-49755488D01*
X126392664Y-49755566D01*
X126362365Y-49853446D01*
X126313632Y-49943576D01*
X126248320Y-50022525D01*
X126168918Y-50087284D01*
X126078449Y-50135387D01*
X125980360Y-50165001D01*
X125878387Y-50175000D01*
X125873978Y-50175000D01*
X125869113Y-50175477D01*
X125841773Y-50182136D01*
X125817370Y-50196148D01*
X125797837Y-50216404D01*
X125784721Y-50241299D01*
X125779060Y-50268863D01*
X125781301Y-50296912D01*
X125791269Y-50323227D01*
X125808173Y-50345723D01*
X125830675Y-50362619D01*
X125856993Y-50372577D01*
X125878172Y-50374998D01*
X125881660Y-50375022D01*
X125881667Y-50375023D01*
X125885717Y-50375051D01*
X125987541Y-50386473D01*
X126085207Y-50417454D01*
X126174995Y-50466815D01*
X126253485Y-50532677D01*
X126317688Y-50612529D01*
X126365159Y-50703332D01*
X126394088Y-50801625D01*
X126394094Y-50801686D01*
X126394102Y-50801715D01*
X126403379Y-50903660D01*
X126392679Y-51005466D01*
X126392672Y-51005488D01*
X126392664Y-51005566D01*
X126362365Y-51103446D01*
X126313632Y-51193576D01*
X126248320Y-51272525D01*
X126168918Y-51337284D01*
X126078449Y-51385387D01*
X125980360Y-51415001D01*
X125878387Y-51425000D01*
X125873978Y-51425000D01*
X125869113Y-51425477D01*
X125841773Y-51432136D01*
X125817370Y-51446148D01*
X125797837Y-51466404D01*
X125784721Y-51491299D01*
X125779060Y-51518863D01*
X125781301Y-51546912D01*
X125791269Y-51573227D01*
X125808173Y-51595723D01*
X125830675Y-51612619D01*
X125856993Y-51622577D01*
X125878172Y-51624998D01*
X125881660Y-51625022D01*
X125881667Y-51625023D01*
X125885717Y-51625051D01*
X125987541Y-51636473D01*
X126085207Y-51667454D01*
X126174995Y-51716815D01*
X126253485Y-51782677D01*
X126317688Y-51862529D01*
X126365159Y-51953332D01*
X126394088Y-52051625D01*
X126394094Y-52051686D01*
X126394102Y-52051715D01*
X126403379Y-52153660D01*
X126392679Y-52255466D01*
X126392672Y-52255488D01*
X126392664Y-52255566D01*
X126362365Y-52353446D01*
X126313632Y-52443576D01*
X126248320Y-52522525D01*
X126168918Y-52587284D01*
X126078449Y-52635387D01*
X125980360Y-52665001D01*
X125878387Y-52675000D01*
X125873978Y-52675000D01*
X125869113Y-52675477D01*
X125841773Y-52682136D01*
X125817370Y-52696148D01*
X125797837Y-52716404D01*
X125784721Y-52741299D01*
X125779060Y-52768863D01*
X125781301Y-52796912D01*
X125791269Y-52823227D01*
X125808173Y-52845723D01*
X125830675Y-52862619D01*
X125856993Y-52872577D01*
X125878172Y-52874998D01*
X125881660Y-52875022D01*
X125881667Y-52875023D01*
X125885717Y-52875051D01*
X125987541Y-52886473D01*
X126085207Y-52917454D01*
X126174995Y-52966815D01*
X126253485Y-53032677D01*
X126317688Y-53112529D01*
X126365159Y-53203332D01*
X126394088Y-53301625D01*
X126394094Y-53301686D01*
X126394102Y-53301715D01*
X126403379Y-53403660D01*
X126392679Y-53505466D01*
X126392672Y-53505488D01*
X126392664Y-53505566D01*
X126362365Y-53603446D01*
X126313632Y-53693576D01*
X126248320Y-53772525D01*
X126168918Y-53837284D01*
X126078449Y-53885387D01*
X125980360Y-53915001D01*
X125878387Y-53925000D01*
X125873978Y-53925000D01*
X125869113Y-53925477D01*
X125841773Y-53932136D01*
X125817370Y-53946148D01*
X125797837Y-53966404D01*
X125784721Y-53991299D01*
X125779060Y-54018863D01*
X125781301Y-54046912D01*
X125791269Y-54073227D01*
X125808173Y-54095723D01*
X125830675Y-54112619D01*
X125856993Y-54122577D01*
X125878172Y-54124998D01*
X125881660Y-54125022D01*
X125881667Y-54125023D01*
X125885717Y-54125051D01*
X125987541Y-54136473D01*
X126085207Y-54167454D01*
X126174995Y-54216815D01*
X126253485Y-54282677D01*
X126317688Y-54362529D01*
X126365159Y-54453332D01*
X126394088Y-54551625D01*
X126394094Y-54551686D01*
X126394102Y-54551715D01*
X126403379Y-54653660D01*
X126392679Y-54755466D01*
X126392672Y-54755488D01*
X126392664Y-54755566D01*
X126362365Y-54853446D01*
X126313632Y-54943576D01*
X126248320Y-55022525D01*
X126168918Y-55087284D01*
X126078449Y-55135387D01*
X125980360Y-55165001D01*
X125878387Y-55175000D01*
X125873978Y-55175000D01*
X125869113Y-55175477D01*
X125841773Y-55182136D01*
X125817370Y-55196148D01*
X125797837Y-55216404D01*
X125784721Y-55241299D01*
X125779060Y-55268863D01*
X125781301Y-55296912D01*
X125791269Y-55323227D01*
X125808173Y-55345723D01*
X125830675Y-55362619D01*
X125856993Y-55372577D01*
X125878172Y-55374998D01*
X125881660Y-55375022D01*
X125881667Y-55375023D01*
X125885717Y-55375051D01*
X125987541Y-55386473D01*
X126085207Y-55417454D01*
X126174995Y-55466815D01*
X126253485Y-55532677D01*
X126317688Y-55612529D01*
X126365159Y-55703332D01*
X126394088Y-55801625D01*
X126394094Y-55801686D01*
X126394102Y-55801715D01*
X126403379Y-55903660D01*
X126392679Y-56005466D01*
X126392672Y-56005488D01*
X126392664Y-56005566D01*
X126362365Y-56103446D01*
X126313632Y-56193576D01*
X126248320Y-56272525D01*
X126168918Y-56337284D01*
X126078449Y-56385387D01*
X125980360Y-56415001D01*
X125878387Y-56425000D01*
X125873978Y-56425000D01*
X125869113Y-56425477D01*
X125841773Y-56432136D01*
X125817370Y-56446148D01*
X125797837Y-56466404D01*
X125784721Y-56491299D01*
X125779060Y-56518863D01*
X125781301Y-56546912D01*
X125791269Y-56573227D01*
X125808173Y-56595723D01*
X125830675Y-56612619D01*
X125856993Y-56622577D01*
X125878871Y-56625000D01*
X126400000Y-56625000D01*
X126400000Y-57675000D01*
X125000000Y-57675000D01*
X125000000Y-56625000D01*
X125521129Y-56625000D01*
X125548988Y-56621041D01*
X125574642Y-56609477D01*
X125596058Y-56591224D01*
X125611541Y-56567728D01*
X125619865Y-56540848D01*
X125620371Y-56512713D01*
X125613019Y-56485551D01*
X125598391Y-56461513D01*
X125577645Y-56442502D01*
X125552424Y-56430023D01*
X125521828Y-56425002D01*
X125518340Y-56424978D01*
X125518333Y-56424977D01*
X125514283Y-56424949D01*
X125412459Y-56413527D01*
X125314793Y-56382546D01*
X125225005Y-56333185D01*
X125146515Y-56267323D01*
X125082312Y-56187471D01*
X125034841Y-56096668D01*
X125005912Y-55998375D01*
X125005906Y-55998314D01*
X125005898Y-55998285D01*
X124996621Y-55896340D01*
X125007321Y-55794534D01*
X125007328Y-55794512D01*
X125007336Y-55794434D01*
X125037635Y-55696554D01*
X125086368Y-55606424D01*
X125151680Y-55527475D01*
X125231082Y-55462716D01*
X125321551Y-55414613D01*
X125419640Y-55384999D01*
X125521613Y-55375000D01*
X125526022Y-55375000D01*
X125530887Y-55374523D01*
X125558227Y-55367864D01*
X125582630Y-55353852D01*
X125602163Y-55333596D01*
X125615279Y-55308701D01*
X125620940Y-55281137D01*
X125618699Y-55253088D01*
X125608731Y-55226773D01*
X125591827Y-55204277D01*
X125569325Y-55187381D01*
X125543007Y-55177423D01*
X125521828Y-55175002D01*
X125518340Y-55174978D01*
X125518333Y-55174977D01*
X125514283Y-55174949D01*
X125412459Y-55163527D01*
X125314793Y-55132546D01*
X125225005Y-55083185D01*
X125146515Y-55017323D01*
X125082312Y-54937471D01*
X125034841Y-54846668D01*
X125005912Y-54748375D01*
X125005906Y-54748314D01*
X125005898Y-54748285D01*
X124996621Y-54646340D01*
X125007321Y-54544534D01*
X125007328Y-54544512D01*
X125007336Y-54544434D01*
X125037635Y-54446554D01*
X125086368Y-54356424D01*
X125151680Y-54277475D01*
X125231082Y-54212716D01*
X125321551Y-54164613D01*
X125419640Y-54134999D01*
X125521613Y-54125000D01*
X125526022Y-54125000D01*
X125530887Y-54124523D01*
X125558227Y-54117864D01*
X125582630Y-54103852D01*
X125602163Y-54083596D01*
X125615279Y-54058701D01*
X125620940Y-54031137D01*
X125618699Y-54003088D01*
X125608731Y-53976773D01*
X125591827Y-53954277D01*
X125569325Y-53937381D01*
X125543007Y-53927423D01*
X125521828Y-53925002D01*
X125518340Y-53924978D01*
X125518333Y-53924977D01*
X125514283Y-53924949D01*
X125412459Y-53913527D01*
X125314793Y-53882546D01*
X125225005Y-53833185D01*
X125146515Y-53767323D01*
X125082312Y-53687471D01*
X125034841Y-53596668D01*
X125005912Y-53498375D01*
X125005906Y-53498314D01*
X125005898Y-53498285D01*
X124996621Y-53396340D01*
X125007321Y-53294534D01*
X125007328Y-53294512D01*
X125007336Y-53294434D01*
X125037635Y-53196554D01*
X125086368Y-53106424D01*
X125151680Y-53027475D01*
X125231082Y-52962716D01*
X125321551Y-52914613D01*
X125419640Y-52884999D01*
X125521613Y-52875000D01*
X125526022Y-52875000D01*
X125530887Y-52874523D01*
X125558227Y-52867864D01*
X125582630Y-52853852D01*
X125602163Y-52833596D01*
X125615279Y-52808701D01*
X125620940Y-52781137D01*
X125618699Y-52753088D01*
X125608731Y-52726773D01*
X125591827Y-52704277D01*
X125569325Y-52687381D01*
X125543007Y-52677423D01*
X125521828Y-52675002D01*
X125518340Y-52674978D01*
X125518333Y-52674977D01*
X125514283Y-52674949D01*
X125412459Y-52663527D01*
X125314793Y-52632546D01*
X125225005Y-52583185D01*
X125146515Y-52517323D01*
X125082312Y-52437471D01*
X125034841Y-52346668D01*
X125005912Y-52248375D01*
X125005906Y-52248314D01*
X125005898Y-52248285D01*
X124996621Y-52146340D01*
X125007321Y-52044534D01*
X125007328Y-52044512D01*
X125007336Y-52044434D01*
X125037635Y-51946554D01*
X125086368Y-51856424D01*
X125151680Y-51777475D01*
X125231082Y-51712716D01*
X125321551Y-51664613D01*
X125419640Y-51634999D01*
X125521613Y-51625000D01*
X125526022Y-51625000D01*
X125530887Y-51624523D01*
X125558227Y-51617864D01*
X125582630Y-51603852D01*
X125602163Y-51583596D01*
X125615279Y-51558701D01*
X125620940Y-51531137D01*
X125618699Y-51503088D01*
X125608731Y-51476773D01*
X125591827Y-51454277D01*
X125569325Y-51437381D01*
X125543007Y-51427423D01*
X125521828Y-51425002D01*
X125518340Y-51424978D01*
X125518333Y-51424977D01*
X125514283Y-51424949D01*
X125412459Y-51413527D01*
X125314793Y-51382546D01*
X125225005Y-51333185D01*
X125146515Y-51267323D01*
X125082312Y-51187471D01*
X125034841Y-51096668D01*
X125005912Y-50998375D01*
X125005906Y-50998314D01*
X125005898Y-50998285D01*
X124996621Y-50896340D01*
X125007321Y-50794534D01*
X125007328Y-50794512D01*
X125007336Y-50794434D01*
X125037635Y-50696554D01*
X125086368Y-50606424D01*
X125151680Y-50527475D01*
X125231082Y-50462716D01*
X125321551Y-50414613D01*
X125419640Y-50384999D01*
X125521613Y-50375000D01*
X125526022Y-50375000D01*
X125530887Y-50374523D01*
X125558227Y-50367864D01*
X125582630Y-50353852D01*
X125602163Y-50333596D01*
X125615279Y-50308701D01*
X125620940Y-50281137D01*
X125618699Y-50253088D01*
X125608731Y-50226773D01*
X125591827Y-50204277D01*
X125569325Y-50187381D01*
X125543007Y-50177423D01*
X125521828Y-50175002D01*
X125518340Y-50174978D01*
X125518333Y-50174977D01*
X125514283Y-50174949D01*
X125412459Y-50163527D01*
X125314793Y-50132546D01*
X125225005Y-50083185D01*
X125146515Y-50017323D01*
X125082312Y-49937471D01*
X125034841Y-49846668D01*
X125005912Y-49748375D01*
X125005906Y-49748314D01*
X125005898Y-49748285D01*
X124996621Y-49646340D01*
X125007321Y-49544534D01*
X125007328Y-49544512D01*
X125007336Y-49544434D01*
X125037635Y-49446554D01*
X125086368Y-49356424D01*
X125151680Y-49277475D01*
X125231082Y-49212716D01*
X125321551Y-49164613D01*
X125419640Y-49134999D01*
X125521613Y-49125000D01*
X125526022Y-49125000D01*
X125530887Y-49124523D01*
X125558227Y-49117864D01*
X125582630Y-49103852D01*
X125602163Y-49083596D01*
X125615279Y-49058701D01*
X125620940Y-49031137D01*
X125618699Y-49003088D01*
X125608731Y-48976773D01*
X125591827Y-48954277D01*
X125569325Y-48937381D01*
X125543007Y-48927423D01*
X125521828Y-48925002D01*
X125518340Y-48924978D01*
X125518333Y-48924977D01*
X125514283Y-48924949D01*
X125412459Y-48913527D01*
X125314793Y-48882546D01*
X125225005Y-48833185D01*
X125146515Y-48767323D01*
X125082312Y-48687471D01*
X125034841Y-48596668D01*
X125005912Y-48498375D01*
X125005906Y-48498314D01*
X125005898Y-48498285D01*
X124996621Y-48396340D01*
X125007321Y-48294534D01*
X125007328Y-48294512D01*
X125007336Y-48294434D01*
X125037635Y-48196554D01*
X125086368Y-48106424D01*
X125151680Y-48027475D01*
X125231082Y-47962716D01*
X125321551Y-47914613D01*
X125419640Y-47884999D01*
X125521613Y-47875000D01*
X125878458Y-47875000D01*
X125881660Y-47875022D01*
X125881660Y-47875022D01*
G37*
G36*
X86313026Y-55150396D02*
X86428285Y-55174055D01*
X86536755Y-55219652D01*
X86634310Y-55285453D01*
X86717220Y-55368944D01*
X86782334Y-55466950D01*
X86827176Y-55575744D01*
X86849893Y-55690474D01*
X86849893Y-55690494D01*
X86850026Y-55691167D01*
X86848149Y-55825564D01*
X86847998Y-55826227D01*
X86847998Y-55826251D01*
X86822084Y-55940309D01*
X86774226Y-56047798D01*
X86706396Y-56143954D01*
X86621186Y-56225098D01*
X86521837Y-56288146D01*
X86412136Y-56330697D01*
X86296253Y-56351131D01*
X86178612Y-56348666D01*
X86063691Y-56323400D01*
X85955866Y-56276292D01*
X85859245Y-56209138D01*
X85777506Y-56124495D01*
X85713764Y-56025587D01*
X85670448Y-55916183D01*
X85649207Y-55800450D01*
X85650850Y-55682797D01*
X85675314Y-55567700D01*
X85721669Y-55459545D01*
X85788147Y-55362458D01*
X85872216Y-55280131D01*
X85970674Y-55215702D01*
X86079772Y-55171623D01*
X86195356Y-55149574D01*
X86313026Y-55150396D01*
X86313026Y-55150396D01*
G37*
G36*
X125920926Y-44064792D02*
X125920949Y-44064799D01*
X125921024Y-44064807D01*
X126098140Y-44119633D01*
X126261233Y-44207817D01*
X126404092Y-44326001D01*
X126521275Y-44469681D01*
X126608319Y-44633386D01*
X126661907Y-44810880D01*
X126680000Y-44995403D01*
X126680000Y-45004672D01*
X126679936Y-45013805D01*
X126679935Y-45013810D01*
X126679907Y-45017861D01*
X126659240Y-45202113D01*
X126603179Y-45378842D01*
X126513858Y-45541316D01*
X126394680Y-45683346D01*
X126250185Y-45799523D01*
X126085876Y-45885422D01*
X125908012Y-45937770D01*
X125907951Y-45937776D01*
X125907922Y-45937784D01*
X125723373Y-45954578D01*
X125539074Y-45935208D01*
X125539051Y-45935201D01*
X125538976Y-45935193D01*
X125361860Y-45880367D01*
X125198767Y-45792183D01*
X125055908Y-45673999D01*
X124938725Y-45530319D01*
X124851681Y-45366614D01*
X124798093Y-45189120D01*
X124780000Y-45004597D01*
X124780000Y-44995323D01*
X124780064Y-44986195D01*
X124780065Y-44986190D01*
X124780093Y-44982139D01*
X124800760Y-44797887D01*
X124856821Y-44621158D01*
X124946142Y-44458684D01*
X125065320Y-44316654D01*
X125209815Y-44200477D01*
X125374124Y-44114578D01*
X125551988Y-44062230D01*
X125552049Y-44062224D01*
X125552078Y-44062216D01*
X125736627Y-44045422D01*
X125920926Y-44064792D01*
X125920926Y-44064792D01*
G37*
G36*
X123380926Y-44064792D02*
X123380949Y-44064799D01*
X123381024Y-44064807D01*
X123558140Y-44119633D01*
X123721233Y-44207817D01*
X123864092Y-44326001D01*
X123981275Y-44469681D01*
X124068319Y-44633386D01*
X124121907Y-44810880D01*
X124140000Y-44995403D01*
X124140000Y-45004672D01*
X124139936Y-45013805D01*
X124139935Y-45013810D01*
X124139907Y-45017861D01*
X124119240Y-45202113D01*
X124063179Y-45378842D01*
X123973858Y-45541316D01*
X123854680Y-45683346D01*
X123710185Y-45799523D01*
X123545876Y-45885422D01*
X123368012Y-45937770D01*
X123367951Y-45937776D01*
X123367922Y-45937784D01*
X123183373Y-45954578D01*
X122999074Y-45935208D01*
X122999051Y-45935201D01*
X122998976Y-45935193D01*
X122821860Y-45880367D01*
X122658767Y-45792183D01*
X122515908Y-45673999D01*
X122398725Y-45530319D01*
X122311681Y-45366614D01*
X122258093Y-45189120D01*
X122240000Y-45004597D01*
X122240000Y-44995323D01*
X122240064Y-44986195D01*
X122240065Y-44986190D01*
X122240093Y-44982139D01*
X122260760Y-44797887D01*
X122316821Y-44621158D01*
X122406142Y-44458684D01*
X122525320Y-44316654D01*
X122669815Y-44200477D01*
X122834124Y-44114578D01*
X123011988Y-44062230D01*
X123012049Y-44062224D01*
X123012078Y-44062216D01*
X123196627Y-44045422D01*
X123380926Y-44064792D01*
X123380926Y-44064792D01*
G37*
G36*
X120840926Y-44064792D02*
X120840949Y-44064799D01*
X120841024Y-44064807D01*
X121018140Y-44119633D01*
X121181233Y-44207817D01*
X121324092Y-44326001D01*
X121441275Y-44469681D01*
X121528319Y-44633386D01*
X121581907Y-44810880D01*
X121600000Y-44995403D01*
X121600000Y-45004672D01*
X121599936Y-45013805D01*
X121599935Y-45013810D01*
X121599907Y-45017861D01*
X121579240Y-45202113D01*
X121523179Y-45378842D01*
X121433858Y-45541316D01*
X121314680Y-45683346D01*
X121170185Y-45799523D01*
X121005876Y-45885422D01*
X120828012Y-45937770D01*
X120827951Y-45937776D01*
X120827922Y-45937784D01*
X120643373Y-45954578D01*
X120459074Y-45935208D01*
X120459051Y-45935201D01*
X120458976Y-45935193D01*
X120281860Y-45880367D01*
X120118767Y-45792183D01*
X119975908Y-45673999D01*
X119858725Y-45530319D01*
X119771681Y-45366614D01*
X119718093Y-45189120D01*
X119700000Y-45004597D01*
X119700000Y-44995323D01*
X119700064Y-44986195D01*
X119700065Y-44986190D01*
X119700093Y-44982139D01*
X119720760Y-44797887D01*
X119776821Y-44621158D01*
X119866142Y-44458684D01*
X119985320Y-44316654D01*
X120129815Y-44200477D01*
X120294124Y-44114578D01*
X120471988Y-44062230D01*
X120472049Y-44062224D01*
X120472078Y-44062216D01*
X120656627Y-44045422D01*
X120840926Y-44064792D01*
X120840926Y-44064792D01*
G37*
G36*
X118300926Y-44064792D02*
X118300949Y-44064799D01*
X118301024Y-44064807D01*
X118478140Y-44119633D01*
X118641233Y-44207817D01*
X118784092Y-44326001D01*
X118901275Y-44469681D01*
X118988319Y-44633386D01*
X119041907Y-44810880D01*
X119060000Y-44995403D01*
X119060000Y-45004672D01*
X119059936Y-45013805D01*
X119059935Y-45013810D01*
X119059907Y-45017861D01*
X119039240Y-45202113D01*
X118983179Y-45378842D01*
X118893858Y-45541316D01*
X118774680Y-45683346D01*
X118630185Y-45799523D01*
X118465876Y-45885422D01*
X118288012Y-45937770D01*
X118287951Y-45937776D01*
X118287922Y-45937784D01*
X118103373Y-45954578D01*
X117919074Y-45935208D01*
X117919051Y-45935201D01*
X117918976Y-45935193D01*
X117741860Y-45880367D01*
X117578767Y-45792183D01*
X117435908Y-45673999D01*
X117318725Y-45530319D01*
X117231681Y-45366614D01*
X117178093Y-45189120D01*
X117160000Y-45004597D01*
X117160000Y-44995323D01*
X117160064Y-44986195D01*
X117160065Y-44986190D01*
X117160093Y-44982139D01*
X117180760Y-44797887D01*
X117236821Y-44621158D01*
X117326142Y-44458684D01*
X117445320Y-44316654D01*
X117589815Y-44200477D01*
X117754124Y-44114578D01*
X117931988Y-44062230D01*
X117932049Y-44062224D01*
X117932078Y-44062216D01*
X118116627Y-44045422D01*
X118300926Y-44064792D01*
X118300926Y-44064792D01*
G37*
G36*
X110589783Y-44050629D02*
X110772286Y-44088091D01*
X110944031Y-44160286D01*
X111098488Y-44264468D01*
X111229763Y-44396663D01*
X111332862Y-44551839D01*
X111403859Y-44724090D01*
X111439909Y-44906158D01*
X111439909Y-44906180D01*
X111440041Y-44906848D01*
X111437070Y-45119643D01*
X111436918Y-45120311D01*
X111436918Y-45120330D01*
X111395798Y-45301319D01*
X111320020Y-45471521D01*
X111212630Y-45623755D01*
X111077711Y-45752236D01*
X110920408Y-45852064D01*
X110746712Y-45919437D01*
X110563236Y-45951788D01*
X110376970Y-45947886D01*
X110195013Y-45907881D01*
X110024289Y-45833293D01*
X109871305Y-45726967D01*
X109741886Y-45592949D01*
X109640963Y-45436346D01*
X109572377Y-45263121D01*
X109538746Y-45079878D01*
X109541347Y-44893594D01*
X109580083Y-44711358D01*
X109653477Y-44540115D01*
X109758734Y-44386393D01*
X109891843Y-44256042D01*
X110047737Y-44154028D01*
X110220472Y-44084238D01*
X110403481Y-44049327D01*
X110589783Y-44050629D01*
X110589783Y-44050629D01*
G37*
G36*
X113129783Y-44050629D02*
X113312286Y-44088091D01*
X113484031Y-44160286D01*
X113638488Y-44264468D01*
X113769763Y-44396663D01*
X113872862Y-44551839D01*
X113943859Y-44724090D01*
X113979909Y-44906158D01*
X113979909Y-44906180D01*
X113980041Y-44906848D01*
X113977070Y-45119643D01*
X113976918Y-45120311D01*
X113976918Y-45120330D01*
X113935798Y-45301319D01*
X113860020Y-45471521D01*
X113752630Y-45623755D01*
X113617711Y-45752236D01*
X113460408Y-45852064D01*
X113286712Y-45919437D01*
X113103236Y-45951788D01*
X112916970Y-45947886D01*
X112735013Y-45907881D01*
X112564289Y-45833293D01*
X112411305Y-45726967D01*
X112281886Y-45592949D01*
X112180963Y-45436346D01*
X112112377Y-45263121D01*
X112078746Y-45079878D01*
X112081347Y-44893594D01*
X112120083Y-44711358D01*
X112193477Y-44540115D01*
X112298734Y-44386393D01*
X112431843Y-44256042D01*
X112587737Y-44154028D01*
X112760472Y-44084238D01*
X112943481Y-44049327D01*
X113129783Y-44050629D01*
X113129783Y-44050629D01*
G37*
G36*
X116520000Y-45950000D02*
X114620000Y-45950000D01*
X114620000Y-44050000D01*
X116520000Y-44050000D01*
X116520000Y-45950000D01*
X116520000Y-45950000D01*
G37*
M02*
