G04 #@! TF.FileFunction,Legend,Top*
%FSLAX46Y46*%
G04 Gerber Fmt 4.6, Leading zero omitted, Abs format (unit mm)*
G04 Created by KiCad (PCBNEW 4.0.7) date 2018 March 10, Saturday 13:23:40*
%MOMM*%
%LPD*%
G01*
G04 APERTURE LIST*
%ADD10C,0.100000*%
%ADD11C,0.300000*%
%ADD12C,0.150000*%
%ADD13C,0.120000*%
%ADD14C,0.152000*%
%ADD15C,0.010000*%
G04 APERTURE END LIST*
D10*
D11*
X68250000Y-45178571D02*
X68107142Y-45107143D01*
X68035714Y-44964286D01*
X68035714Y-43678571D01*
X69392856Y-45107143D02*
X69249999Y-45178571D01*
X68964285Y-45178571D01*
X68821428Y-45107143D01*
X68749999Y-44964286D01*
X68749999Y-44392857D01*
X68821428Y-44250000D01*
X68964285Y-44178571D01*
X69249999Y-44178571D01*
X69392856Y-44250000D01*
X69464285Y-44392857D01*
X69464285Y-44535714D01*
X68749999Y-44678571D01*
X70035713Y-45107143D02*
X70178570Y-45178571D01*
X70464285Y-45178571D01*
X70607142Y-45107143D01*
X70678570Y-44964286D01*
X70678570Y-44892857D01*
X70607142Y-44750000D01*
X70464285Y-44678571D01*
X70249999Y-44678571D01*
X70107142Y-44607143D01*
X70035713Y-44464286D01*
X70035713Y-44392857D01*
X70107142Y-44250000D01*
X70249999Y-44178571D01*
X70464285Y-44178571D01*
X70607142Y-44250000D01*
X71249999Y-45107143D02*
X71392856Y-45178571D01*
X71678571Y-45178571D01*
X71821428Y-45107143D01*
X71892856Y-44964286D01*
X71892856Y-44892857D01*
X71821428Y-44750000D01*
X71678571Y-44678571D01*
X71464285Y-44678571D01*
X71321428Y-44607143D01*
X71249999Y-44464286D01*
X71249999Y-44392857D01*
X71321428Y-44250000D01*
X71464285Y-44178571D01*
X71678571Y-44178571D01*
X71821428Y-44250000D01*
X72535714Y-44607143D02*
X73678571Y-44607143D01*
X74321428Y-45107143D02*
X74464285Y-45178571D01*
X74750000Y-45178571D01*
X74892857Y-45107143D01*
X74964285Y-44964286D01*
X74964285Y-44892857D01*
X74892857Y-44750000D01*
X74750000Y-44678571D01*
X74535714Y-44678571D01*
X74392857Y-44607143D01*
X74321428Y-44464286D01*
X74321428Y-44392857D01*
X74392857Y-44250000D01*
X74535714Y-44178571D01*
X74750000Y-44178571D01*
X74892857Y-44250000D01*
X75607143Y-45178571D02*
X75607143Y-44178571D01*
X75607143Y-44321429D02*
X75678571Y-44250000D01*
X75821429Y-44178571D01*
X76035714Y-44178571D01*
X76178571Y-44250000D01*
X76250000Y-44392857D01*
X76250000Y-45178571D01*
X76250000Y-44392857D02*
X76321429Y-44250000D01*
X76464286Y-44178571D01*
X76678571Y-44178571D01*
X76821429Y-44250000D01*
X76892857Y-44392857D01*
X76892857Y-45178571D01*
X77821429Y-45178571D02*
X77678571Y-45107143D01*
X77607143Y-45035714D01*
X77535714Y-44892857D01*
X77535714Y-44464286D01*
X77607143Y-44321429D01*
X77678571Y-44250000D01*
X77821429Y-44178571D01*
X78035714Y-44178571D01*
X78178571Y-44250000D01*
X78250000Y-44321429D01*
X78321429Y-44464286D01*
X78321429Y-44892857D01*
X78250000Y-45035714D01*
X78178571Y-45107143D01*
X78035714Y-45178571D01*
X77821429Y-45178571D01*
X79607143Y-44178571D02*
X79607143Y-45392857D01*
X79535714Y-45535714D01*
X79464286Y-45607143D01*
X79321429Y-45678571D01*
X79107143Y-45678571D01*
X78964286Y-45607143D01*
X79607143Y-45107143D02*
X79464286Y-45178571D01*
X79178572Y-45178571D01*
X79035714Y-45107143D01*
X78964286Y-45035714D01*
X78892857Y-44892857D01*
X78892857Y-44464286D01*
X78964286Y-44321429D01*
X79035714Y-44250000D01*
X79178572Y-44178571D01*
X79464286Y-44178571D01*
X79607143Y-44250000D01*
X80321429Y-45035714D02*
X80392857Y-45107143D01*
X80321429Y-45178571D01*
X80250000Y-45107143D01*
X80321429Y-45035714D01*
X80321429Y-45178571D01*
X81250001Y-45178571D02*
X81107143Y-45107143D01*
X81035715Y-45035714D01*
X80964286Y-44892857D01*
X80964286Y-44464286D01*
X81035715Y-44321429D01*
X81107143Y-44250000D01*
X81250001Y-44178571D01*
X81464286Y-44178571D01*
X81607143Y-44250000D01*
X81678572Y-44321429D01*
X81750001Y-44464286D01*
X81750001Y-44892857D01*
X81678572Y-45035714D01*
X81607143Y-45107143D01*
X81464286Y-45178571D01*
X81250001Y-45178571D01*
X82392858Y-45178571D02*
X82392858Y-44178571D01*
X82392858Y-44464286D02*
X82464286Y-44321429D01*
X82535715Y-44250000D01*
X82678572Y-44178571D01*
X82821429Y-44178571D01*
X83964286Y-44178571D02*
X83964286Y-45392857D01*
X83892857Y-45535714D01*
X83821429Y-45607143D01*
X83678572Y-45678571D01*
X83464286Y-45678571D01*
X83321429Y-45607143D01*
X83964286Y-45107143D02*
X83821429Y-45178571D01*
X83535715Y-45178571D01*
X83392857Y-45107143D01*
X83321429Y-45035714D01*
X83250000Y-44892857D01*
X83250000Y-44464286D01*
X83321429Y-44321429D01*
X83392857Y-44250000D01*
X83535715Y-44178571D01*
X83821429Y-44178571D01*
X83964286Y-44250000D01*
D12*
X114207690Y-42328549D02*
X114631955Y-41904285D01*
X114450127Y-42570986D01*
X114874391Y-42146721D01*
X114692563Y-42732610D02*
X114692564Y-42773016D01*
X114652157Y-42773016D01*
X114652158Y-42732610D01*
X114692563Y-42732610D01*
X114652157Y-42773016D01*
X115137030Y-43177076D02*
X115096625Y-43177076D01*
X115015812Y-43136671D01*
X114975406Y-43096265D01*
X114935000Y-43015452D01*
X114935001Y-42934640D01*
X114955203Y-42874030D01*
X115015812Y-42773016D01*
X115076422Y-42712406D01*
X115177437Y-42651797D01*
X115238046Y-42631595D01*
X115318858Y-42631594D01*
X115399670Y-42672001D01*
X115440076Y-42712407D01*
X115480483Y-42793219D01*
X115480483Y-42833624D01*
X115318858Y-43358904D02*
X115318859Y-43399310D01*
X115278452Y-43399310D01*
X115278452Y-43358904D01*
X115318858Y-43358904D01*
X115278452Y-43399310D01*
X117202259Y-41934589D02*
X117444696Y-42177026D01*
X116899213Y-42480071D02*
X117323477Y-42055807D01*
X117121447Y-42702305D02*
X117626523Y-42641696D01*
X117404289Y-42419462D02*
X117343680Y-42924539D01*
X117505304Y-43086163D02*
X117929569Y-42661899D01*
X118030584Y-42762914D01*
X118070991Y-42843727D01*
X118070990Y-42924538D01*
X118050787Y-42985148D01*
X117990178Y-43086162D01*
X117929569Y-43146772D01*
X117828554Y-43207381D01*
X117767944Y-43227584D01*
X117687133Y-43227584D01*
X117606320Y-43187178D01*
X117505304Y-43086163D01*
X119570532Y-42611391D02*
X119631142Y-42267939D01*
X119328096Y-42368955D02*
X119752360Y-41944690D01*
X119913985Y-42106315D01*
X119934188Y-42166924D01*
X119934188Y-42207330D01*
X119913985Y-42267939D01*
X119853375Y-42328548D01*
X119792767Y-42348751D01*
X119752360Y-42348751D01*
X119691752Y-42328548D01*
X119530127Y-42166924D01*
X119711954Y-42752812D02*
X120217030Y-42692203D01*
X119994797Y-42469970D02*
X119934188Y-42975046D01*
X120095812Y-43136670D02*
X120520076Y-42712406D01*
X120621091Y-42813421D01*
X120661498Y-42894234D01*
X120661497Y-42975045D01*
X120641294Y-43035655D01*
X120580685Y-43136670D01*
X120520076Y-43197279D01*
X120419061Y-43257888D01*
X120358452Y-43278091D01*
X120277640Y-43278092D01*
X120196827Y-43237685D01*
X120095812Y-43136670D01*
X124519213Y-42156822D02*
X124842462Y-42480071D01*
X124519213Y-42480071D02*
X124842462Y-42156823D01*
X125509162Y-42621492D02*
X125307131Y-42419462D01*
X125084898Y-42601289D01*
X125125304Y-42601289D01*
X125185913Y-42621492D01*
X125286929Y-42722507D01*
X125307132Y-42783116D01*
X125307131Y-42823522D01*
X125286929Y-42884132D01*
X125185913Y-42985147D01*
X125125304Y-43005350D01*
X125084898Y-43005350D01*
X125024289Y-42985147D01*
X124923273Y-42884132D01*
X124903071Y-42823522D01*
X124903071Y-42783117D01*
X125650584Y-42762914D02*
X125367741Y-43328600D01*
X125933426Y-43045757D01*
X122443884Y-42136620D02*
X122423680Y-42076011D01*
X122363071Y-42015402D01*
X122282259Y-41974995D01*
X122201447Y-41974996D01*
X122140838Y-41995198D01*
X122039823Y-42055807D01*
X121979214Y-42116417D01*
X121918605Y-42217431D01*
X121898402Y-42278041D01*
X121898401Y-42358853D01*
X121938807Y-42439666D01*
X121979214Y-42480072D01*
X122060026Y-42520478D01*
X122100431Y-42520478D01*
X122241853Y-42379056D01*
X122161041Y-42298245D01*
X122241853Y-42742711D02*
X122666117Y-42318447D01*
X122484289Y-42985148D01*
X122908553Y-42560884D01*
X122686320Y-43187178D02*
X123110584Y-42762914D01*
X123211599Y-42863929D01*
X123252006Y-42944742D01*
X123252005Y-43025553D01*
X123231802Y-43086163D01*
X123171193Y-43187177D01*
X123110584Y-43247787D01*
X123009569Y-43308396D01*
X122948960Y-43328599D01*
X122868148Y-43328600D01*
X122787335Y-43288193D01*
X122686320Y-43187178D01*
D10*
X75300000Y-56300000D02*
G75*
G03X75300000Y-56300000I-3500000J0D01*
G01*
D13*
X118400000Y-76600000D02*
X116600000Y-76600000D01*
X116600000Y-74400000D02*
X118400000Y-74400000D01*
X121400000Y-60600000D02*
X119600000Y-60600000D01*
X119600000Y-58400000D02*
X121400000Y-58400000D01*
X99610000Y-96910000D02*
X99610000Y-95650000D01*
X99610000Y-90090000D02*
X99610000Y-91350000D01*
X95850000Y-96910000D02*
X99610000Y-96910000D01*
X93600000Y-90090000D02*
X99610000Y-90090000D01*
X98910000Y-86910000D02*
X98910000Y-85650000D01*
X98910000Y-80090000D02*
X98910000Y-81350000D01*
X95150000Y-86910000D02*
X98910000Y-86910000D01*
X92900000Y-80090000D02*
X98910000Y-80090000D01*
X89660000Y-96910000D02*
X89660000Y-95650000D01*
X89660000Y-90090000D02*
X89660000Y-91350000D01*
X85900000Y-96910000D02*
X89660000Y-96910000D01*
X83650000Y-90090000D02*
X89660000Y-90090000D01*
X68190000Y-69010000D02*
X69450000Y-69010000D01*
X75010000Y-69010000D02*
X73750000Y-69010000D01*
X68190000Y-65250000D02*
X68190000Y-69010000D01*
X75010000Y-63000000D02*
X75010000Y-69010000D01*
D12*
X116800000Y-105300000D02*
X114400000Y-105300000D01*
D13*
X69100000Y-88950000D02*
X69550000Y-88950000D01*
X69100000Y-90800000D02*
X69100000Y-88950000D01*
X76900000Y-93350000D02*
X76900000Y-93100000D01*
X69100000Y-93350000D02*
X69100000Y-93100000D01*
X76900000Y-90800000D02*
X76900000Y-88950000D01*
X76900000Y-88950000D02*
X76450000Y-88950000D01*
X71300000Y-88400000D02*
X71750000Y-88400000D01*
X71300000Y-88400000D02*
X71300000Y-88850000D01*
X88880000Y-43880000D02*
X105120000Y-43880000D01*
X105120000Y-43880000D02*
X105120000Y-51500000D01*
X105120000Y-67500000D02*
X105120000Y-68120000D01*
X105120000Y-68120000D02*
X103000000Y-68120000D01*
X91000000Y-68120000D02*
X88880000Y-68120000D01*
X88880000Y-68120000D02*
X88880000Y-67500000D01*
X88880000Y-51500000D02*
X88880000Y-43880000D01*
X73400000Y-76600000D02*
X74200000Y-76600000D01*
X74200000Y-74800000D02*
X73400000Y-74800000D01*
X70000000Y-60500000D02*
X69200000Y-60500000D01*
X69200000Y-62300000D02*
X70000000Y-62300000D01*
X70100000Y-74800000D02*
X69300000Y-74800000D01*
X69300000Y-76600000D02*
X70100000Y-76600000D01*
X73900000Y-60500000D02*
X73100000Y-60500000D01*
X73100000Y-62300000D02*
X73900000Y-62300000D01*
X90400000Y-72600000D02*
X89600000Y-72600000D01*
X89600000Y-74400000D02*
X90400000Y-74400000D01*
X90400000Y-70100000D02*
X89600000Y-70100000D01*
X89600000Y-71900000D02*
X90400000Y-71900000D01*
X103850000Y-89100000D02*
X104650000Y-89100000D01*
X104650000Y-87300000D02*
X103850000Y-87300000D01*
X115400000Y-98900000D02*
X114600000Y-98900000D01*
X114600000Y-100700000D02*
X115400000Y-100700000D01*
X124500000Y-90500000D02*
X124500000Y-91300000D01*
X126300000Y-91300000D02*
X126300000Y-90500000D01*
X98460000Y-95080000D02*
X98460000Y-94150000D01*
X98460000Y-91920000D02*
X98460000Y-92850000D01*
X98460000Y-91920000D02*
X96300000Y-91920000D01*
X98460000Y-95080000D02*
X97000000Y-95080000D01*
X97760000Y-85080000D02*
X97760000Y-84150000D01*
X97760000Y-81920000D02*
X97760000Y-82850000D01*
X97760000Y-81920000D02*
X95600000Y-81920000D01*
X97760000Y-85080000D02*
X96300000Y-85080000D01*
X88510000Y-95080000D02*
X88510000Y-94150000D01*
X88510000Y-91920000D02*
X88510000Y-92850000D01*
X88510000Y-91920000D02*
X86350000Y-91920000D01*
X88510000Y-95080000D02*
X87050000Y-95080000D01*
X83150000Y-56600000D02*
X81350000Y-56600000D01*
X81350000Y-54400000D02*
X83150000Y-54400000D01*
X86150000Y-53600000D02*
X84350000Y-53600000D01*
X84350000Y-51400000D02*
X86150000Y-51400000D01*
X108600000Y-61900000D02*
X110400000Y-61900000D01*
X110400000Y-64100000D02*
X108600000Y-64100000D01*
X110400000Y-67100000D02*
X108600000Y-67100000D01*
X108600000Y-64900000D02*
X110400000Y-64900000D01*
X84350000Y-63400000D02*
X86150000Y-63400000D01*
X86150000Y-65600000D02*
X84350000Y-65600000D01*
X108600000Y-58900000D02*
X110400000Y-58900000D01*
X110400000Y-61100000D02*
X108600000Y-61100000D01*
X84350000Y-57400000D02*
X86150000Y-57400000D01*
X86150000Y-59600000D02*
X84350000Y-59600000D01*
X73600000Y-49400000D02*
X75400000Y-49400000D01*
X75400000Y-51600000D02*
X73600000Y-51600000D01*
X80900000Y-66600000D02*
X79100000Y-66600000D01*
X79100000Y-64400000D02*
X80900000Y-64400000D01*
X79100000Y-51400000D02*
X80900000Y-51400000D01*
X80900000Y-53600000D02*
X79100000Y-53600000D01*
X79100000Y-61400000D02*
X80900000Y-61400000D01*
X80900000Y-63600000D02*
X79100000Y-63600000D01*
X68600000Y-49400000D02*
X70400000Y-49400000D01*
X70400000Y-51600000D02*
X68600000Y-51600000D01*
X86150000Y-62600000D02*
X84350000Y-62600000D01*
X84350000Y-60400000D02*
X86150000Y-60400000D01*
X80900000Y-73600000D02*
X79100000Y-73600000D01*
X79100000Y-71400000D02*
X80900000Y-71400000D01*
X80900000Y-83600000D02*
X79100000Y-83600000D01*
X79100000Y-81400000D02*
X80900000Y-81400000D01*
X86150000Y-71600000D02*
X84350000Y-71600000D01*
X84350000Y-69400000D02*
X86150000Y-69400000D01*
X86150000Y-74600000D02*
X84350000Y-74600000D01*
X84350000Y-72400000D02*
X86150000Y-72400000D01*
X86150000Y-68600000D02*
X84350000Y-68600000D01*
X84350000Y-66400000D02*
X86150000Y-66400000D01*
X80900000Y-76600000D02*
X79100000Y-76600000D01*
X79100000Y-74400000D02*
X80900000Y-74400000D01*
X80900000Y-86600000D02*
X79100000Y-86600000D01*
X79100000Y-84400000D02*
X80900000Y-84400000D01*
X115900000Y-53600000D02*
X114100000Y-53600000D01*
X114100000Y-51400000D02*
X115900000Y-51400000D01*
X80900000Y-93600000D02*
X79100000Y-93600000D01*
X79100000Y-91400000D02*
X80900000Y-91400000D01*
X121400000Y-54600000D02*
X119600000Y-54600000D01*
X119600000Y-52400000D02*
X121400000Y-52400000D01*
X86500000Y-89500000D02*
X84700000Y-89500000D01*
X84700000Y-87300000D02*
X86500000Y-87300000D01*
X121400000Y-51600000D02*
X119600000Y-51600000D01*
X119600000Y-49400000D02*
X121400000Y-49400000D01*
X115900000Y-63600000D02*
X114100000Y-63600000D01*
X114100000Y-61400000D02*
X115900000Y-61400000D01*
X108600000Y-67900000D02*
X110400000Y-67900000D01*
X110400000Y-70100000D02*
X108600000Y-70100000D01*
X121400000Y-70100000D02*
X119600000Y-70100000D01*
X119600000Y-67900000D02*
X121400000Y-67900000D01*
X121400000Y-57600000D02*
X119600000Y-57600000D01*
X119600000Y-55400000D02*
X121400000Y-55400000D01*
X121400000Y-67100000D02*
X119600000Y-67100000D01*
X119600000Y-64900000D02*
X121400000Y-64900000D01*
X108600000Y-87900000D02*
X110400000Y-87900000D01*
X110400000Y-90100000D02*
X108600000Y-90100000D01*
X115900000Y-83600000D02*
X114100000Y-83600000D01*
X114100000Y-81400000D02*
X115900000Y-81400000D01*
X119600000Y-81400000D02*
X121400000Y-81400000D01*
X121400000Y-83600000D02*
X119600000Y-83600000D01*
X121400000Y-80600000D02*
X119600000Y-80600000D01*
X119600000Y-78400000D02*
X121400000Y-78400000D01*
X114100000Y-84400000D02*
X115900000Y-84400000D01*
X115900000Y-86600000D02*
X114100000Y-86600000D01*
X108600000Y-52900000D02*
X110400000Y-52900000D01*
X110400000Y-55100000D02*
X108600000Y-55100000D01*
X96150000Y-72600000D02*
X94350000Y-72600000D01*
X94350000Y-70400000D02*
X96150000Y-70400000D01*
X108600000Y-55900000D02*
X110400000Y-55900000D01*
X110400000Y-58100000D02*
X108600000Y-58100000D01*
X100100000Y-69900000D02*
X101900000Y-69900000D01*
X101900000Y-72100000D02*
X100100000Y-72100000D01*
D14*
X108900000Y-75400000D02*
X108900000Y-86600000D01*
X108900000Y-86600000D02*
X102100000Y-86600000D01*
X102100000Y-86600000D02*
X102100000Y-75400000D01*
X102100000Y-75400000D02*
X108900000Y-75400000D01*
X91900000Y-75400000D02*
X91900000Y-86600000D01*
X91900000Y-86600000D02*
X85100000Y-86600000D01*
X85100000Y-86600000D02*
X85100000Y-75400000D01*
X85100000Y-75400000D02*
X91900000Y-75400000D01*
D13*
X109800000Y-91500000D02*
X109800000Y-94300000D01*
X120200000Y-91500000D02*
X109800000Y-91500000D01*
X120200000Y-94300000D02*
X109800000Y-94300000D01*
X120200000Y-91500000D02*
X120200000Y-94300000D01*
D10*
X86890312Y-55750000D02*
G75*
G03X86890312Y-55750000I-640312J0D01*
G01*
X83000000Y-95500000D02*
G75*
G03X83000000Y-95500000I-1000000J0D01*
G01*
X95140312Y-88500000D02*
G75*
G03X95140312Y-88500000I-640312J0D01*
G01*
X111490000Y-45000000D02*
G75*
G03X111490000Y-45000000I-1000000J0D01*
G01*
X114030000Y-45000000D02*
G75*
G03X114030000Y-45000000I-1000000J0D01*
G01*
X94640312Y-78500000D02*
G75*
G03X94640312Y-78500000I-640312J0D01*
G01*
X84240312Y-85400000D02*
G75*
G03X84240312Y-85400000I-640312J0D01*
G01*
X68340312Y-70600000D02*
G75*
G03X68340312Y-70600000I-640312J0D01*
G01*
X77240312Y-73200000D02*
G75*
G03X77240312Y-73200000I-640312J0D01*
G01*
X101640312Y-88500000D02*
G75*
G03X101640312Y-88500000I-640312J0D01*
G01*
X100640312Y-78500000D02*
G75*
G03X100640312Y-78500000I-640312J0D01*
G01*
X91640312Y-88500000D02*
G75*
G03X91640312Y-88500000I-640312J0D01*
G01*
X76440312Y-70600000D02*
G75*
G03X76440312Y-70600000I-640312J0D01*
G01*
X127000000Y-96000000D02*
G75*
G03X127000000Y-96000000I-1000000J0D01*
G01*
D13*
X127120000Y-46400000D02*
X127120000Y-43600000D01*
X114170000Y-46400000D02*
X127120000Y-46400000D01*
X114170000Y-43600000D02*
X127120000Y-43600000D01*
X114170000Y-46400000D02*
X114170000Y-43600000D01*
D12*
X77712132Y-76950000D02*
G75*
G03X77712132Y-76950000I-212132J0D01*
G01*
X77200000Y-77300000D02*
X77200000Y-78000000D01*
X81700000Y-77300000D02*
X77200000Y-77300000D01*
X78300000Y-80700000D02*
X81700000Y-80700000D01*
X77712132Y-66950000D02*
G75*
G03X77712132Y-66950000I-212132J0D01*
G01*
X77200000Y-67300000D02*
X77200000Y-68000000D01*
X81700000Y-67300000D02*
X77200000Y-67300000D01*
X78300000Y-70700000D02*
X81700000Y-70700000D01*
X77712132Y-56950000D02*
G75*
G03X77712132Y-56950000I-212132J0D01*
G01*
X77200000Y-57300000D02*
X77200000Y-58000000D01*
X81700000Y-57300000D02*
X77200000Y-57300000D01*
X78300000Y-60700000D02*
X81700000Y-60700000D01*
X77712132Y-46950000D02*
G75*
G03X77712132Y-46950000I-212132J0D01*
G01*
X77200000Y-47300000D02*
X77200000Y-48000000D01*
X81700000Y-47300000D02*
X77200000Y-47300000D01*
X78300000Y-50700000D02*
X81700000Y-50700000D01*
X77712132Y-86950000D02*
G75*
G03X77712132Y-86950000I-212132J0D01*
G01*
X77200000Y-87300000D02*
X77200000Y-88000000D01*
X81700000Y-87300000D02*
X77200000Y-87300000D01*
X78300000Y-90700000D02*
X81700000Y-90700000D01*
X112712132Y-46950000D02*
G75*
G03X112712132Y-46950000I-212132J0D01*
G01*
X112200000Y-47300000D02*
X112200000Y-48000000D01*
X116700000Y-47300000D02*
X112200000Y-47300000D01*
X113300000Y-50700000D02*
X116700000Y-50700000D01*
X112712132Y-56950000D02*
G75*
G03X112712132Y-56950000I-212132J0D01*
G01*
X112200000Y-57300000D02*
X112200000Y-58000000D01*
X116700000Y-57300000D02*
X112200000Y-57300000D01*
X113300000Y-60700000D02*
X116700000Y-60700000D01*
X112712132Y-66950000D02*
G75*
G03X112712132Y-66950000I-212132J0D01*
G01*
X112200000Y-67300000D02*
X112200000Y-68000000D01*
X116700000Y-67300000D02*
X112200000Y-67300000D01*
X113300000Y-70700000D02*
X116700000Y-70700000D01*
X112712132Y-76950000D02*
G75*
G03X112712132Y-76950000I-212132J0D01*
G01*
X112200000Y-77300000D02*
X112200000Y-78000000D01*
X116700000Y-77300000D02*
X112200000Y-77300000D01*
X113300000Y-80700000D02*
X116700000Y-80700000D01*
X112712132Y-86950000D02*
G75*
G03X112712132Y-86950000I-212132J0D01*
G01*
X112200000Y-87300000D02*
X112200000Y-88000000D01*
X116700000Y-87300000D02*
X112200000Y-87300000D01*
X113300000Y-90700000D02*
X116700000Y-90700000D01*
D15*
G36*
X93768886Y-51584505D02*
X93843539Y-51621727D01*
X93909431Y-51690261D01*
X93927577Y-51715648D01*
X93947345Y-51748866D01*
X93960172Y-51784945D01*
X93967510Y-51833098D01*
X93970813Y-51902536D01*
X93971538Y-51994206D01*
X93968263Y-52119830D01*
X93956877Y-52214154D01*
X93935041Y-52284523D01*
X93900419Y-52338286D01*
X93850670Y-52382788D01*
X93847014Y-52385423D01*
X93797985Y-52412377D01*
X93738945Y-52425712D01*
X93663859Y-52429000D01*
X93541795Y-52429000D01*
X93541744Y-52547497D01*
X93540608Y-52613492D01*
X93533686Y-52652202D01*
X93515598Y-52675419D01*
X93480962Y-52694933D01*
X93472645Y-52698920D01*
X93433720Y-52717603D01*
X93403583Y-52729403D01*
X93381174Y-52730422D01*
X93365433Y-52716761D01*
X93355302Y-52684522D01*
X93349723Y-52629804D01*
X93347635Y-52548711D01*
X93347981Y-52437344D01*
X93349700Y-52291802D01*
X93350237Y-52248269D01*
X93352172Y-52098205D01*
X93353904Y-52000042D01*
X93541692Y-52000042D01*
X93542748Y-52083364D01*
X93547438Y-52137880D01*
X93558051Y-52173837D01*
X93576872Y-52201482D01*
X93589650Y-52214965D01*
X93641890Y-52254417D01*
X93688142Y-52257628D01*
X93735867Y-52225049D01*
X93737077Y-52223846D01*
X93756494Y-52198668D01*
X93768307Y-52164447D01*
X93774265Y-52111748D01*
X93776120Y-52031131D01*
X93776154Y-52013271D01*
X93771670Y-51902175D01*
X93757074Y-51825161D01*
X93730650Y-51778147D01*
X93690683Y-51757050D01*
X93667584Y-51754923D01*
X93612762Y-51764900D01*
X93575158Y-51797752D01*
X93552523Y-51857857D01*
X93542606Y-51949598D01*
X93541692Y-52000042D01*
X93353904Y-52000042D01*
X93354222Y-51982060D01*
X93356873Y-51894679D01*
X93360606Y-51830905D01*
X93365907Y-51785582D01*
X93373258Y-51753555D01*
X93383143Y-51729668D01*
X93396046Y-51708764D01*
X93401579Y-51700898D01*
X93474969Y-51626595D01*
X93567760Y-51584467D01*
X93675096Y-51572722D01*
X93768886Y-51584505D01*
X93768886Y-51584505D01*
G37*
X93768886Y-51584505D02*
X93843539Y-51621727D01*
X93909431Y-51690261D01*
X93927577Y-51715648D01*
X93947345Y-51748866D01*
X93960172Y-51784945D01*
X93967510Y-51833098D01*
X93970813Y-51902536D01*
X93971538Y-51994206D01*
X93968263Y-52119830D01*
X93956877Y-52214154D01*
X93935041Y-52284523D01*
X93900419Y-52338286D01*
X93850670Y-52382788D01*
X93847014Y-52385423D01*
X93797985Y-52412377D01*
X93738945Y-52425712D01*
X93663859Y-52429000D01*
X93541795Y-52429000D01*
X93541744Y-52547497D01*
X93540608Y-52613492D01*
X93533686Y-52652202D01*
X93515598Y-52675419D01*
X93480962Y-52694933D01*
X93472645Y-52698920D01*
X93433720Y-52717603D01*
X93403583Y-52729403D01*
X93381174Y-52730422D01*
X93365433Y-52716761D01*
X93355302Y-52684522D01*
X93349723Y-52629804D01*
X93347635Y-52548711D01*
X93347981Y-52437344D01*
X93349700Y-52291802D01*
X93350237Y-52248269D01*
X93352172Y-52098205D01*
X93353904Y-52000042D01*
X93541692Y-52000042D01*
X93542748Y-52083364D01*
X93547438Y-52137880D01*
X93558051Y-52173837D01*
X93576872Y-52201482D01*
X93589650Y-52214965D01*
X93641890Y-52254417D01*
X93688142Y-52257628D01*
X93735867Y-52225049D01*
X93737077Y-52223846D01*
X93756494Y-52198668D01*
X93768307Y-52164447D01*
X93774265Y-52111748D01*
X93776120Y-52031131D01*
X93776154Y-52013271D01*
X93771670Y-51902175D01*
X93757074Y-51825161D01*
X93730650Y-51778147D01*
X93690683Y-51757050D01*
X93667584Y-51754923D01*
X93612762Y-51764900D01*
X93575158Y-51797752D01*
X93552523Y-51857857D01*
X93542606Y-51949598D01*
X93541692Y-52000042D01*
X93353904Y-52000042D01*
X93354222Y-51982060D01*
X93356873Y-51894679D01*
X93360606Y-51830905D01*
X93365907Y-51785582D01*
X93373258Y-51753555D01*
X93383143Y-51729668D01*
X93396046Y-51708764D01*
X93401579Y-51700898D01*
X93474969Y-51626595D01*
X93567760Y-51584467D01*
X93675096Y-51572722D01*
X93768886Y-51584505D01*
G36*
X95271664Y-51595089D02*
X95334367Y-51631358D01*
X95377961Y-51667358D01*
X95409845Y-51705075D01*
X95431810Y-51751199D01*
X95445649Y-51812421D01*
X95453153Y-51895431D01*
X95456117Y-52006919D01*
X95456461Y-52087062D01*
X95456461Y-52382065D01*
X95290385Y-52456515D01*
X95280615Y-52133402D01*
X95276579Y-52012729D01*
X95272344Y-51925141D01*
X95267097Y-51864650D01*
X95260025Y-51825268D01*
X95250311Y-51801007D01*
X95237144Y-51785880D01*
X95232919Y-51782606D01*
X95168909Y-51757034D01*
X95104208Y-51767153D01*
X95065692Y-51794000D01*
X95050025Y-51813024D01*
X95039180Y-51837988D01*
X95032288Y-51875834D01*
X95028479Y-51933502D01*
X95026883Y-52017935D01*
X95026615Y-52105928D01*
X95026563Y-52216323D01*
X95024672Y-52294463D01*
X95018345Y-52347165D01*
X95004983Y-52381242D01*
X94981985Y-52403511D01*
X94946754Y-52420787D01*
X94899697Y-52438738D01*
X94848303Y-52458278D01*
X94854421Y-52111485D01*
X94856884Y-51986468D01*
X94859767Y-51894082D01*
X94863898Y-51827881D01*
X94870107Y-51781420D01*
X94879226Y-51748256D01*
X94892083Y-51721944D01*
X94907584Y-51698729D01*
X94982371Y-51624569D01*
X95073628Y-51581684D01*
X95172883Y-51571412D01*
X95271664Y-51595089D01*
X95271664Y-51595089D01*
G37*
X95271664Y-51595089D02*
X95334367Y-51631358D01*
X95377961Y-51667358D01*
X95409845Y-51705075D01*
X95431810Y-51751199D01*
X95445649Y-51812421D01*
X95453153Y-51895431D01*
X95456117Y-52006919D01*
X95456461Y-52087062D01*
X95456461Y-52382065D01*
X95290385Y-52456515D01*
X95280615Y-52133402D01*
X95276579Y-52012729D01*
X95272344Y-51925141D01*
X95267097Y-51864650D01*
X95260025Y-51825268D01*
X95250311Y-51801007D01*
X95237144Y-51785880D01*
X95232919Y-51782606D01*
X95168909Y-51757034D01*
X95104208Y-51767153D01*
X95065692Y-51794000D01*
X95050025Y-51813024D01*
X95039180Y-51837988D01*
X95032288Y-51875834D01*
X95028479Y-51933502D01*
X95026883Y-52017935D01*
X95026615Y-52105928D01*
X95026563Y-52216323D01*
X95024672Y-52294463D01*
X95018345Y-52347165D01*
X95004983Y-52381242D01*
X94981985Y-52403511D01*
X94946754Y-52420787D01*
X94899697Y-52438738D01*
X94848303Y-52458278D01*
X94854421Y-52111485D01*
X94856884Y-51986468D01*
X94859767Y-51894082D01*
X94863898Y-51827881D01*
X94870107Y-51781420D01*
X94879226Y-51748256D01*
X94892083Y-51721944D01*
X94907584Y-51698729D01*
X94982371Y-51624569D01*
X95073628Y-51581684D01*
X95172883Y-51571412D01*
X95271664Y-51595089D01*
G36*
X93016886Y-51587256D02*
X93108464Y-51635409D01*
X93176049Y-51712905D01*
X93200057Y-51762727D01*
X93218738Y-51837533D01*
X93228301Y-51932052D01*
X93229208Y-52035210D01*
X93221921Y-52135935D01*
X93206903Y-52223153D01*
X93184615Y-52285791D01*
X93177765Y-52296579D01*
X93096632Y-52377105D01*
X93000266Y-52425336D01*
X92895701Y-52439450D01*
X92789968Y-52417629D01*
X92760543Y-52404547D01*
X92703241Y-52364231D01*
X92652950Y-52310775D01*
X92648197Y-52303995D01*
X92628878Y-52271321D01*
X92616108Y-52236394D01*
X92608564Y-52190414D01*
X92604924Y-52124584D01*
X92603865Y-52030105D01*
X92603846Y-52008923D01*
X92603894Y-52002182D01*
X92799231Y-52002182D01*
X92800368Y-52091349D01*
X92804841Y-52150520D01*
X92814246Y-52188741D01*
X92830176Y-52215053D01*
X92838308Y-52223846D01*
X92885058Y-52257261D01*
X92930447Y-52255737D01*
X92976340Y-52226752D01*
X93003712Y-52195809D01*
X93019923Y-52150643D01*
X93029026Y-52079420D01*
X93029651Y-52071114D01*
X93031204Y-51942037D01*
X93014965Y-51846172D01*
X92981152Y-51784107D01*
X92929984Y-51756432D01*
X92911720Y-51754923D01*
X92863760Y-51762513D01*
X92830953Y-51788808D01*
X92810895Y-51839095D01*
X92801178Y-51918664D01*
X92799231Y-52002182D01*
X92603894Y-52002182D01*
X92604574Y-51908249D01*
X92607629Y-51837906D01*
X92614322Y-51789163D01*
X92625960Y-51753288D01*
X92643853Y-51721548D01*
X92647808Y-51715648D01*
X92714267Y-51636104D01*
X92786685Y-51589929D01*
X92874849Y-51571599D01*
X92904787Y-51570703D01*
X93016886Y-51587256D01*
X93016886Y-51587256D01*
G37*
X93016886Y-51587256D02*
X93108464Y-51635409D01*
X93176049Y-51712905D01*
X93200057Y-51762727D01*
X93218738Y-51837533D01*
X93228301Y-51932052D01*
X93229208Y-52035210D01*
X93221921Y-52135935D01*
X93206903Y-52223153D01*
X93184615Y-52285791D01*
X93177765Y-52296579D01*
X93096632Y-52377105D01*
X93000266Y-52425336D01*
X92895701Y-52439450D01*
X92789968Y-52417629D01*
X92760543Y-52404547D01*
X92703241Y-52364231D01*
X92652950Y-52310775D01*
X92648197Y-52303995D01*
X92628878Y-52271321D01*
X92616108Y-52236394D01*
X92608564Y-52190414D01*
X92604924Y-52124584D01*
X92603865Y-52030105D01*
X92603846Y-52008923D01*
X92603894Y-52002182D01*
X92799231Y-52002182D01*
X92800368Y-52091349D01*
X92804841Y-52150520D01*
X92814246Y-52188741D01*
X92830176Y-52215053D01*
X92838308Y-52223846D01*
X92885058Y-52257261D01*
X92930447Y-52255737D01*
X92976340Y-52226752D01*
X93003712Y-52195809D01*
X93019923Y-52150643D01*
X93029026Y-52079420D01*
X93029651Y-52071114D01*
X93031204Y-51942037D01*
X93014965Y-51846172D01*
X92981152Y-51784107D01*
X92929984Y-51756432D01*
X92911720Y-51754923D01*
X92863760Y-51762513D01*
X92830953Y-51788808D01*
X92810895Y-51839095D01*
X92801178Y-51918664D01*
X92799231Y-52002182D01*
X92603894Y-52002182D01*
X92604574Y-51908249D01*
X92607629Y-51837906D01*
X92614322Y-51789163D01*
X92625960Y-51753288D01*
X92643853Y-51721548D01*
X92647808Y-51715648D01*
X92714267Y-51636104D01*
X92786685Y-51589929D01*
X92874849Y-51571599D01*
X92904787Y-51570703D01*
X93016886Y-51587256D01*
G36*
X94534254Y-51599745D02*
X94611286Y-51651567D01*
X94670816Y-51726412D01*
X94706378Y-51821654D01*
X94713571Y-51891756D01*
X94712754Y-51921009D01*
X94705914Y-51943407D01*
X94687112Y-51963474D01*
X94650408Y-51985733D01*
X94589862Y-52014709D01*
X94499534Y-52054927D01*
X94499077Y-52055129D01*
X94415933Y-52093210D01*
X94347753Y-52127025D01*
X94301505Y-52152933D01*
X94284158Y-52167295D01*
X94284154Y-52167411D01*
X94299443Y-52198685D01*
X94335196Y-52233157D01*
X94376242Y-52257990D01*
X94397037Y-52262923D01*
X94453770Y-52245862D01*
X94502627Y-52203133D01*
X94526465Y-52156155D01*
X94549397Y-52121522D01*
X94594318Y-52082081D01*
X94647123Y-52048009D01*
X94693710Y-52029480D01*
X94703452Y-52028462D01*
X94714418Y-52045215D01*
X94715079Y-52088039D01*
X94707020Y-52145781D01*
X94691827Y-52207289D01*
X94671086Y-52261409D01*
X94670038Y-52263510D01*
X94607621Y-52350660D01*
X94526726Y-52409939D01*
X94434856Y-52439034D01*
X94339513Y-52435634D01*
X94248198Y-52397428D01*
X94244138Y-52394741D01*
X94172306Y-52329642D01*
X94125073Y-52244705D01*
X94098934Y-52133021D01*
X94095426Y-52101643D01*
X94089213Y-51953536D01*
X94096661Y-51884468D01*
X94284154Y-51884468D01*
X94286590Y-51927552D01*
X94299914Y-51940126D01*
X94333132Y-51930719D01*
X94385494Y-51908483D01*
X94444024Y-51880610D01*
X94445479Y-51879872D01*
X94495089Y-51853777D01*
X94515000Y-51836363D01*
X94510090Y-51818107D01*
X94489416Y-51794120D01*
X94436819Y-51759406D01*
X94380177Y-51756856D01*
X94329369Y-51782119D01*
X94294276Y-51830847D01*
X94284154Y-51884468D01*
X94096661Y-51884468D01*
X94101992Y-51835036D01*
X94134778Y-51741055D01*
X94180421Y-51675215D01*
X94262802Y-51608681D01*
X94353546Y-51575676D01*
X94446185Y-51573573D01*
X94534254Y-51599745D01*
X94534254Y-51599745D01*
G37*
X94534254Y-51599745D02*
X94611286Y-51651567D01*
X94670816Y-51726412D01*
X94706378Y-51821654D01*
X94713571Y-51891756D01*
X94712754Y-51921009D01*
X94705914Y-51943407D01*
X94687112Y-51963474D01*
X94650408Y-51985733D01*
X94589862Y-52014709D01*
X94499534Y-52054927D01*
X94499077Y-52055129D01*
X94415933Y-52093210D01*
X94347753Y-52127025D01*
X94301505Y-52152933D01*
X94284158Y-52167295D01*
X94284154Y-52167411D01*
X94299443Y-52198685D01*
X94335196Y-52233157D01*
X94376242Y-52257990D01*
X94397037Y-52262923D01*
X94453770Y-52245862D01*
X94502627Y-52203133D01*
X94526465Y-52156155D01*
X94549397Y-52121522D01*
X94594318Y-52082081D01*
X94647123Y-52048009D01*
X94693710Y-52029480D01*
X94703452Y-52028462D01*
X94714418Y-52045215D01*
X94715079Y-52088039D01*
X94707020Y-52145781D01*
X94691827Y-52207289D01*
X94671086Y-52261409D01*
X94670038Y-52263510D01*
X94607621Y-52350660D01*
X94526726Y-52409939D01*
X94434856Y-52439034D01*
X94339513Y-52435634D01*
X94248198Y-52397428D01*
X94244138Y-52394741D01*
X94172306Y-52329642D01*
X94125073Y-52244705D01*
X94098934Y-52133021D01*
X94095426Y-52101643D01*
X94089213Y-51953536D01*
X94096661Y-51884468D01*
X94284154Y-51884468D01*
X94286590Y-51927552D01*
X94299914Y-51940126D01*
X94333132Y-51930719D01*
X94385494Y-51908483D01*
X94444024Y-51880610D01*
X94445479Y-51879872D01*
X94495089Y-51853777D01*
X94515000Y-51836363D01*
X94510090Y-51818107D01*
X94489416Y-51794120D01*
X94436819Y-51759406D01*
X94380177Y-51756856D01*
X94329369Y-51782119D01*
X94294276Y-51830847D01*
X94284154Y-51884468D01*
X94096661Y-51884468D01*
X94101992Y-51835036D01*
X94134778Y-51741055D01*
X94180421Y-51675215D01*
X94262802Y-51608681D01*
X94353546Y-51575676D01*
X94446185Y-51573573D01*
X94534254Y-51599745D01*
G36*
X96159846Y-51492120D02*
X96165572Y-51571980D01*
X96172149Y-51619039D01*
X96181262Y-51639566D01*
X96194598Y-51639829D01*
X96198923Y-51637378D01*
X96256444Y-51619636D01*
X96331268Y-51620672D01*
X96407339Y-51638910D01*
X96454918Y-51662505D01*
X96503702Y-51700198D01*
X96539364Y-51742855D01*
X96563845Y-51797057D01*
X96579087Y-51869384D01*
X96587030Y-51966419D01*
X96589616Y-52094742D01*
X96589662Y-52119358D01*
X96589692Y-52395870D01*
X96528161Y-52417320D01*
X96484459Y-52431912D01*
X96460482Y-52438706D01*
X96459777Y-52438769D01*
X96457415Y-52420345D01*
X96455406Y-52369526D01*
X96453901Y-52292993D01*
X96453053Y-52197430D01*
X96452923Y-52139329D01*
X96452651Y-52024771D01*
X96451252Y-51942667D01*
X96447849Y-51886393D01*
X96441567Y-51849326D01*
X96431529Y-51824844D01*
X96416861Y-51806325D01*
X96407702Y-51797406D01*
X96344789Y-51761466D01*
X96276136Y-51758775D01*
X96213848Y-51789170D01*
X96202329Y-51800144D01*
X96185433Y-51820779D01*
X96173714Y-51845256D01*
X96166233Y-51880647D01*
X96162054Y-51934026D01*
X96160237Y-52012466D01*
X96159846Y-52120617D01*
X96159846Y-52395870D01*
X96098315Y-52417320D01*
X96054613Y-52431912D01*
X96030636Y-52438706D01*
X96029930Y-52438769D01*
X96028126Y-52420069D01*
X96026500Y-52367322D01*
X96025117Y-52285557D01*
X96024042Y-52179805D01*
X96023340Y-52055094D01*
X96023077Y-51916455D01*
X96023077Y-51381806D01*
X96150077Y-51328236D01*
X96159846Y-51492120D01*
X96159846Y-51492120D01*
G37*
X96159846Y-51492120D02*
X96165572Y-51571980D01*
X96172149Y-51619039D01*
X96181262Y-51639566D01*
X96194598Y-51639829D01*
X96198923Y-51637378D01*
X96256444Y-51619636D01*
X96331268Y-51620672D01*
X96407339Y-51638910D01*
X96454918Y-51662505D01*
X96503702Y-51700198D01*
X96539364Y-51742855D01*
X96563845Y-51797057D01*
X96579087Y-51869384D01*
X96587030Y-51966419D01*
X96589616Y-52094742D01*
X96589662Y-52119358D01*
X96589692Y-52395870D01*
X96528161Y-52417320D01*
X96484459Y-52431912D01*
X96460482Y-52438706D01*
X96459777Y-52438769D01*
X96457415Y-52420345D01*
X96455406Y-52369526D01*
X96453901Y-52292993D01*
X96453053Y-52197430D01*
X96452923Y-52139329D01*
X96452651Y-52024771D01*
X96451252Y-51942667D01*
X96447849Y-51886393D01*
X96441567Y-51849326D01*
X96431529Y-51824844D01*
X96416861Y-51806325D01*
X96407702Y-51797406D01*
X96344789Y-51761466D01*
X96276136Y-51758775D01*
X96213848Y-51789170D01*
X96202329Y-51800144D01*
X96185433Y-51820779D01*
X96173714Y-51845256D01*
X96166233Y-51880647D01*
X96162054Y-51934026D01*
X96160237Y-52012466D01*
X96159846Y-52120617D01*
X96159846Y-52395870D01*
X96098315Y-52417320D01*
X96054613Y-52431912D01*
X96030636Y-52438706D01*
X96029930Y-52438769D01*
X96028126Y-52420069D01*
X96026500Y-52367322D01*
X96025117Y-52285557D01*
X96024042Y-52179805D01*
X96023340Y-52055094D01*
X96023077Y-51916455D01*
X96023077Y-51381806D01*
X96150077Y-51328236D01*
X96159846Y-51492120D01*
G36*
X97053501Y-51626303D02*
X97130060Y-51654733D01*
X97130936Y-51655279D01*
X97178285Y-51690127D01*
X97213241Y-51730852D01*
X97237825Y-51783925D01*
X97254062Y-51855814D01*
X97263975Y-51952992D01*
X97269586Y-52081928D01*
X97270077Y-52100298D01*
X97277141Y-52377287D01*
X97217695Y-52408028D01*
X97174681Y-52428802D01*
X97148710Y-52438646D01*
X97147509Y-52438769D01*
X97143014Y-52420606D01*
X97139444Y-52371612D01*
X97137248Y-52300031D01*
X97136769Y-52242068D01*
X97136758Y-52148170D01*
X97132466Y-52089203D01*
X97117503Y-52061079D01*
X97085482Y-52059706D01*
X97030014Y-52080998D01*
X96946269Y-52120136D01*
X96884689Y-52152643D01*
X96853017Y-52180845D01*
X96843706Y-52211582D01*
X96843692Y-52213104D01*
X96859057Y-52266054D01*
X96904547Y-52294660D01*
X96974166Y-52298803D01*
X97024313Y-52298084D01*
X97050754Y-52312527D01*
X97067243Y-52347218D01*
X97076733Y-52391416D01*
X97063057Y-52416493D01*
X97057907Y-52420082D01*
X97009425Y-52434496D01*
X96941531Y-52436537D01*
X96871612Y-52426983D01*
X96822068Y-52409522D01*
X96753570Y-52351364D01*
X96714634Y-52270408D01*
X96706923Y-52207160D01*
X96712807Y-52150111D01*
X96734101Y-52103542D01*
X96776265Y-52062181D01*
X96844759Y-52020755D01*
X96945044Y-51973993D01*
X96951154Y-51971350D01*
X97041490Y-51929617D01*
X97097235Y-51895391D01*
X97121129Y-51864635D01*
X97115913Y-51833311D01*
X97084328Y-51797383D01*
X97074883Y-51789116D01*
X97011617Y-51757058D01*
X96946064Y-51758407D01*
X96888972Y-51789838D01*
X96851093Y-51848024D01*
X96847574Y-51859446D01*
X96813300Y-51914837D01*
X96769809Y-51941518D01*
X96706923Y-51967960D01*
X96706923Y-51899548D01*
X96726052Y-51800110D01*
X96782831Y-51708902D01*
X96812378Y-51678389D01*
X96879542Y-51639228D01*
X96964956Y-51621500D01*
X97053501Y-51626303D01*
X97053501Y-51626303D01*
G37*
X97053501Y-51626303D02*
X97130060Y-51654733D01*
X97130936Y-51655279D01*
X97178285Y-51690127D01*
X97213241Y-51730852D01*
X97237825Y-51783925D01*
X97254062Y-51855814D01*
X97263975Y-51952992D01*
X97269586Y-52081928D01*
X97270077Y-52100298D01*
X97277141Y-52377287D01*
X97217695Y-52408028D01*
X97174681Y-52428802D01*
X97148710Y-52438646D01*
X97147509Y-52438769D01*
X97143014Y-52420606D01*
X97139444Y-52371612D01*
X97137248Y-52300031D01*
X97136769Y-52242068D01*
X97136758Y-52148170D01*
X97132466Y-52089203D01*
X97117503Y-52061079D01*
X97085482Y-52059706D01*
X97030014Y-52080998D01*
X96946269Y-52120136D01*
X96884689Y-52152643D01*
X96853017Y-52180845D01*
X96843706Y-52211582D01*
X96843692Y-52213104D01*
X96859057Y-52266054D01*
X96904547Y-52294660D01*
X96974166Y-52298803D01*
X97024313Y-52298084D01*
X97050754Y-52312527D01*
X97067243Y-52347218D01*
X97076733Y-52391416D01*
X97063057Y-52416493D01*
X97057907Y-52420082D01*
X97009425Y-52434496D01*
X96941531Y-52436537D01*
X96871612Y-52426983D01*
X96822068Y-52409522D01*
X96753570Y-52351364D01*
X96714634Y-52270408D01*
X96706923Y-52207160D01*
X96712807Y-52150111D01*
X96734101Y-52103542D01*
X96776265Y-52062181D01*
X96844759Y-52020755D01*
X96945044Y-51973993D01*
X96951154Y-51971350D01*
X97041490Y-51929617D01*
X97097235Y-51895391D01*
X97121129Y-51864635D01*
X97115913Y-51833311D01*
X97084328Y-51797383D01*
X97074883Y-51789116D01*
X97011617Y-51757058D01*
X96946064Y-51758407D01*
X96888972Y-51789838D01*
X96851093Y-51848024D01*
X96847574Y-51859446D01*
X96813300Y-51914837D01*
X96769809Y-51941518D01*
X96706923Y-51967960D01*
X96706923Y-51899548D01*
X96726052Y-51800110D01*
X96782831Y-51708902D01*
X96812378Y-51678389D01*
X96879542Y-51639228D01*
X96964956Y-51621500D01*
X97053501Y-51626303D01*
G36*
X97713362Y-51624670D02*
X97802117Y-51657421D01*
X97874022Y-51715350D01*
X97902144Y-51756128D01*
X97932802Y-51830954D01*
X97932165Y-51885058D01*
X97899987Y-51921446D01*
X97888081Y-51927633D01*
X97836675Y-51946925D01*
X97810422Y-51941982D01*
X97801530Y-51909587D01*
X97801077Y-51891692D01*
X97784797Y-51825859D01*
X97742365Y-51779807D01*
X97683388Y-51757564D01*
X97617475Y-51763161D01*
X97563895Y-51792229D01*
X97545798Y-51808810D01*
X97532971Y-51828925D01*
X97524306Y-51859332D01*
X97518696Y-51906788D01*
X97515035Y-51978050D01*
X97512215Y-52079875D01*
X97511484Y-52112115D01*
X97508820Y-52222410D01*
X97505792Y-52300036D01*
X97501250Y-52351396D01*
X97494046Y-52382890D01*
X97483033Y-52400920D01*
X97467060Y-52411888D01*
X97456834Y-52416733D01*
X97413406Y-52433301D01*
X97387842Y-52438769D01*
X97379395Y-52420507D01*
X97374239Y-52365296D01*
X97372346Y-52272499D01*
X97373689Y-52141478D01*
X97374107Y-52121269D01*
X97377058Y-52001733D01*
X97380548Y-51914449D01*
X97385514Y-51852591D01*
X97392893Y-51809336D01*
X97403624Y-51777860D01*
X97418645Y-51751339D01*
X97426502Y-51739975D01*
X97471553Y-51689692D01*
X97521940Y-51650581D01*
X97528108Y-51647167D01*
X97618458Y-51620212D01*
X97713362Y-51624670D01*
X97713362Y-51624670D01*
G37*
X97713362Y-51624670D02*
X97802117Y-51657421D01*
X97874022Y-51715350D01*
X97902144Y-51756128D01*
X97932802Y-51830954D01*
X97932165Y-51885058D01*
X97899987Y-51921446D01*
X97888081Y-51927633D01*
X97836675Y-51946925D01*
X97810422Y-51941982D01*
X97801530Y-51909587D01*
X97801077Y-51891692D01*
X97784797Y-51825859D01*
X97742365Y-51779807D01*
X97683388Y-51757564D01*
X97617475Y-51763161D01*
X97563895Y-51792229D01*
X97545798Y-51808810D01*
X97532971Y-51828925D01*
X97524306Y-51859332D01*
X97518696Y-51906788D01*
X97515035Y-51978050D01*
X97512215Y-52079875D01*
X97511484Y-52112115D01*
X97508820Y-52222410D01*
X97505792Y-52300036D01*
X97501250Y-52351396D01*
X97494046Y-52382890D01*
X97483033Y-52400920D01*
X97467060Y-52411888D01*
X97456834Y-52416733D01*
X97413406Y-52433301D01*
X97387842Y-52438769D01*
X97379395Y-52420507D01*
X97374239Y-52365296D01*
X97372346Y-52272499D01*
X97373689Y-52141478D01*
X97374107Y-52121269D01*
X97377058Y-52001733D01*
X97380548Y-51914449D01*
X97385514Y-51852591D01*
X97392893Y-51809336D01*
X97403624Y-51777860D01*
X97418645Y-51751339D01*
X97426502Y-51739975D01*
X97471553Y-51689692D01*
X97521940Y-51650581D01*
X97528108Y-51647167D01*
X97618458Y-51620212D01*
X97713362Y-51624670D01*
G36*
X98602081Y-51780289D02*
X98601833Y-51926320D01*
X98600872Y-52038655D01*
X98598794Y-52122678D01*
X98595193Y-52183769D01*
X98589665Y-52227309D01*
X98581804Y-52258679D01*
X98571207Y-52283262D01*
X98563182Y-52297294D01*
X98496728Y-52373388D01*
X98412470Y-52421084D01*
X98319249Y-52438199D01*
X98225900Y-52422546D01*
X98170312Y-52394418D01*
X98111957Y-52345760D01*
X98072186Y-52286333D01*
X98048190Y-52208507D01*
X98037161Y-52104652D01*
X98035599Y-52028462D01*
X98035809Y-52022986D01*
X98172308Y-52022986D01*
X98173141Y-52110355D01*
X98176961Y-52168192D01*
X98185746Y-52206029D01*
X98201474Y-52233398D01*
X98220266Y-52254042D01*
X98283375Y-52293890D01*
X98351137Y-52297295D01*
X98415179Y-52264025D01*
X98420164Y-52259517D01*
X98441439Y-52236067D01*
X98454779Y-52208166D01*
X98462001Y-52166641D01*
X98464923Y-52102316D01*
X98465385Y-52031200D01*
X98464383Y-51941858D01*
X98460238Y-51882258D01*
X98451236Y-51843089D01*
X98435667Y-51815040D01*
X98422902Y-51800144D01*
X98363600Y-51762575D01*
X98295301Y-51758057D01*
X98230110Y-51786753D01*
X98217528Y-51797406D01*
X98196111Y-51821063D01*
X98182744Y-51849251D01*
X98175566Y-51891245D01*
X98172719Y-51956319D01*
X98172308Y-52022986D01*
X98035809Y-52022986D01*
X98040322Y-51905765D01*
X98056362Y-51813577D01*
X98086528Y-51744269D01*
X98133629Y-51690211D01*
X98170312Y-51662505D01*
X98236990Y-51632572D01*
X98314272Y-51618678D01*
X98386110Y-51622397D01*
X98426308Y-51637400D01*
X98442082Y-51641670D01*
X98452550Y-51625750D01*
X98459856Y-51583089D01*
X98465385Y-51518106D01*
X98471437Y-51445732D01*
X98479844Y-51402187D01*
X98495141Y-51377287D01*
X98521864Y-51360845D01*
X98538654Y-51353564D01*
X98602154Y-51326963D01*
X98602081Y-51780289D01*
X98602081Y-51780289D01*
G37*
X98602081Y-51780289D02*
X98601833Y-51926320D01*
X98600872Y-52038655D01*
X98598794Y-52122678D01*
X98595193Y-52183769D01*
X98589665Y-52227309D01*
X98581804Y-52258679D01*
X98571207Y-52283262D01*
X98563182Y-52297294D01*
X98496728Y-52373388D01*
X98412470Y-52421084D01*
X98319249Y-52438199D01*
X98225900Y-52422546D01*
X98170312Y-52394418D01*
X98111957Y-52345760D01*
X98072186Y-52286333D01*
X98048190Y-52208507D01*
X98037161Y-52104652D01*
X98035599Y-52028462D01*
X98035809Y-52022986D01*
X98172308Y-52022986D01*
X98173141Y-52110355D01*
X98176961Y-52168192D01*
X98185746Y-52206029D01*
X98201474Y-52233398D01*
X98220266Y-52254042D01*
X98283375Y-52293890D01*
X98351137Y-52297295D01*
X98415179Y-52264025D01*
X98420164Y-52259517D01*
X98441439Y-52236067D01*
X98454779Y-52208166D01*
X98462001Y-52166641D01*
X98464923Y-52102316D01*
X98465385Y-52031200D01*
X98464383Y-51941858D01*
X98460238Y-51882258D01*
X98451236Y-51843089D01*
X98435667Y-51815040D01*
X98422902Y-51800144D01*
X98363600Y-51762575D01*
X98295301Y-51758057D01*
X98230110Y-51786753D01*
X98217528Y-51797406D01*
X98196111Y-51821063D01*
X98182744Y-51849251D01*
X98175566Y-51891245D01*
X98172719Y-51956319D01*
X98172308Y-52022986D01*
X98035809Y-52022986D01*
X98040322Y-51905765D01*
X98056362Y-51813577D01*
X98086528Y-51744269D01*
X98133629Y-51690211D01*
X98170312Y-51662505D01*
X98236990Y-51632572D01*
X98314272Y-51618678D01*
X98386110Y-51622397D01*
X98426308Y-51637400D01*
X98442082Y-51641670D01*
X98452550Y-51625750D01*
X98459856Y-51583089D01*
X98465385Y-51518106D01*
X98471437Y-51445732D01*
X98479844Y-51402187D01*
X98495141Y-51377287D01*
X98521864Y-51360845D01*
X98538654Y-51353564D01*
X98602154Y-51326963D01*
X98602081Y-51780289D01*
G36*
X99395929Y-51636662D02*
X99398911Y-51688068D01*
X99401247Y-51766192D01*
X99402749Y-51864857D01*
X99403231Y-51968343D01*
X99403231Y-52318533D01*
X99341401Y-52380363D01*
X99298793Y-52418462D01*
X99261390Y-52433895D01*
X99210270Y-52432918D01*
X99189978Y-52430433D01*
X99126554Y-52423200D01*
X99074095Y-52419055D01*
X99061308Y-52418672D01*
X99018199Y-52421176D01*
X98956544Y-52427462D01*
X98932638Y-52430433D01*
X98873922Y-52435028D01*
X98834464Y-52425046D01*
X98795338Y-52394228D01*
X98781215Y-52380363D01*
X98719385Y-52318533D01*
X98719385Y-51663503D01*
X98769150Y-51640829D01*
X98812002Y-51624034D01*
X98837073Y-51618154D01*
X98843501Y-51636736D01*
X98849509Y-51688655D01*
X98854697Y-51768172D01*
X98858664Y-51869546D01*
X98860577Y-51955192D01*
X98865923Y-52292231D01*
X98912560Y-52298825D01*
X98954976Y-52294214D01*
X98975760Y-52279287D01*
X98981570Y-52251377D01*
X98986530Y-52191925D01*
X98990246Y-52108466D01*
X98992324Y-52008532D01*
X98992624Y-51957104D01*
X98992923Y-51661054D01*
X99054454Y-51639604D01*
X99098004Y-51625020D01*
X99121694Y-51618219D01*
X99122377Y-51618154D01*
X99124754Y-51636642D01*
X99127366Y-51687906D01*
X99129995Y-51765649D01*
X99132421Y-51863574D01*
X99134115Y-51955192D01*
X99139461Y-52292231D01*
X99256692Y-52292231D01*
X99262072Y-51984746D01*
X99267451Y-51677261D01*
X99324601Y-51647707D01*
X99366797Y-51627413D01*
X99391770Y-51618204D01*
X99392491Y-51618154D01*
X99395929Y-51636662D01*
X99395929Y-51636662D01*
G37*
X99395929Y-51636662D02*
X99398911Y-51688068D01*
X99401247Y-51766192D01*
X99402749Y-51864857D01*
X99403231Y-51968343D01*
X99403231Y-52318533D01*
X99341401Y-52380363D01*
X99298793Y-52418462D01*
X99261390Y-52433895D01*
X99210270Y-52432918D01*
X99189978Y-52430433D01*
X99126554Y-52423200D01*
X99074095Y-52419055D01*
X99061308Y-52418672D01*
X99018199Y-52421176D01*
X98956544Y-52427462D01*
X98932638Y-52430433D01*
X98873922Y-52435028D01*
X98834464Y-52425046D01*
X98795338Y-52394228D01*
X98781215Y-52380363D01*
X98719385Y-52318533D01*
X98719385Y-51663503D01*
X98769150Y-51640829D01*
X98812002Y-51624034D01*
X98837073Y-51618154D01*
X98843501Y-51636736D01*
X98849509Y-51688655D01*
X98854697Y-51768172D01*
X98858664Y-51869546D01*
X98860577Y-51955192D01*
X98865923Y-52292231D01*
X98912560Y-52298825D01*
X98954976Y-52294214D01*
X98975760Y-52279287D01*
X98981570Y-52251377D01*
X98986530Y-52191925D01*
X98990246Y-52108466D01*
X98992324Y-52008532D01*
X98992624Y-51957104D01*
X98992923Y-51661054D01*
X99054454Y-51639604D01*
X99098004Y-51625020D01*
X99121694Y-51618219D01*
X99122377Y-51618154D01*
X99124754Y-51636642D01*
X99127366Y-51687906D01*
X99129995Y-51765649D01*
X99132421Y-51863574D01*
X99134115Y-51955192D01*
X99139461Y-52292231D01*
X99256692Y-52292231D01*
X99262072Y-51984746D01*
X99267451Y-51677261D01*
X99324601Y-51647707D01*
X99366797Y-51627413D01*
X99391770Y-51618204D01*
X99392491Y-51618154D01*
X99395929Y-51636662D01*
G36*
X99887333Y-51633528D02*
X99943590Y-51659117D01*
X99987747Y-51690124D01*
X100020101Y-51724795D01*
X100042438Y-51769520D01*
X100056546Y-51830692D01*
X100064211Y-51914701D01*
X100067220Y-52027940D01*
X100067538Y-52102509D01*
X100067538Y-52393420D01*
X100017773Y-52416095D01*
X99978576Y-52432667D01*
X99959157Y-52438769D01*
X99955442Y-52420610D01*
X99952495Y-52371648D01*
X99950691Y-52300153D01*
X99950308Y-52243385D01*
X99948661Y-52161371D01*
X99944222Y-52096309D01*
X99937740Y-52056467D01*
X99932590Y-52048000D01*
X99897977Y-52056646D01*
X99843640Y-52078823D01*
X99780722Y-52108886D01*
X99720368Y-52141192D01*
X99673721Y-52170098D01*
X99651926Y-52189961D01*
X99651839Y-52190175D01*
X99653714Y-52226935D01*
X99670525Y-52262026D01*
X99700039Y-52290528D01*
X99743116Y-52300061D01*
X99779932Y-52298950D01*
X99832074Y-52298133D01*
X99859444Y-52310349D01*
X99875882Y-52342624D01*
X99877955Y-52348710D01*
X99885081Y-52394739D01*
X99866024Y-52422687D01*
X99816353Y-52436007D01*
X99762697Y-52438470D01*
X99666142Y-52420210D01*
X99616159Y-52394131D01*
X99554429Y-52332868D01*
X99521690Y-52257670D01*
X99518753Y-52178211D01*
X99546424Y-52104167D01*
X99588047Y-52057769D01*
X99629604Y-52031793D01*
X99694922Y-51998907D01*
X99771038Y-51965557D01*
X99783726Y-51960461D01*
X99867333Y-51923565D01*
X99915530Y-51891046D01*
X99931030Y-51858718D01*
X99916550Y-51822394D01*
X99891692Y-51794000D01*
X99832939Y-51759039D01*
X99768293Y-51756417D01*
X99709008Y-51783358D01*
X99666339Y-51837088D01*
X99660739Y-51850950D01*
X99628133Y-51901936D01*
X99580530Y-51939787D01*
X99520461Y-51970850D01*
X99520461Y-51882768D01*
X99523997Y-51828951D01*
X99539156Y-51786534D01*
X99572768Y-51741279D01*
X99605035Y-51706420D01*
X99655209Y-51657062D01*
X99694193Y-51630547D01*
X99736064Y-51619911D01*
X99783460Y-51618154D01*
X99887333Y-51633528D01*
X99887333Y-51633528D01*
G37*
X99887333Y-51633528D02*
X99943590Y-51659117D01*
X99987747Y-51690124D01*
X100020101Y-51724795D01*
X100042438Y-51769520D01*
X100056546Y-51830692D01*
X100064211Y-51914701D01*
X100067220Y-52027940D01*
X100067538Y-52102509D01*
X100067538Y-52393420D01*
X100017773Y-52416095D01*
X99978576Y-52432667D01*
X99959157Y-52438769D01*
X99955442Y-52420610D01*
X99952495Y-52371648D01*
X99950691Y-52300153D01*
X99950308Y-52243385D01*
X99948661Y-52161371D01*
X99944222Y-52096309D01*
X99937740Y-52056467D01*
X99932590Y-52048000D01*
X99897977Y-52056646D01*
X99843640Y-52078823D01*
X99780722Y-52108886D01*
X99720368Y-52141192D01*
X99673721Y-52170098D01*
X99651926Y-52189961D01*
X99651839Y-52190175D01*
X99653714Y-52226935D01*
X99670525Y-52262026D01*
X99700039Y-52290528D01*
X99743116Y-52300061D01*
X99779932Y-52298950D01*
X99832074Y-52298133D01*
X99859444Y-52310349D01*
X99875882Y-52342624D01*
X99877955Y-52348710D01*
X99885081Y-52394739D01*
X99866024Y-52422687D01*
X99816353Y-52436007D01*
X99762697Y-52438470D01*
X99666142Y-52420210D01*
X99616159Y-52394131D01*
X99554429Y-52332868D01*
X99521690Y-52257670D01*
X99518753Y-52178211D01*
X99546424Y-52104167D01*
X99588047Y-52057769D01*
X99629604Y-52031793D01*
X99694922Y-51998907D01*
X99771038Y-51965557D01*
X99783726Y-51960461D01*
X99867333Y-51923565D01*
X99915530Y-51891046D01*
X99931030Y-51858718D01*
X99916550Y-51822394D01*
X99891692Y-51794000D01*
X99832939Y-51759039D01*
X99768293Y-51756417D01*
X99709008Y-51783358D01*
X99666339Y-51837088D01*
X99660739Y-51850950D01*
X99628133Y-51901936D01*
X99580530Y-51939787D01*
X99520461Y-51970850D01*
X99520461Y-51882768D01*
X99523997Y-51828951D01*
X99539156Y-51786534D01*
X99572768Y-51741279D01*
X99605035Y-51706420D01*
X99655209Y-51657062D01*
X99694193Y-51630547D01*
X99736064Y-51619911D01*
X99783460Y-51618154D01*
X99887333Y-51633528D01*
G36*
X100570807Y-51636782D02*
X100594161Y-51646988D01*
X100649902Y-51691134D01*
X100697569Y-51754967D01*
X100727048Y-51823087D01*
X100731846Y-51856670D01*
X100715760Y-51903556D01*
X100680475Y-51928365D01*
X100642644Y-51943387D01*
X100625321Y-51946155D01*
X100616886Y-51926066D01*
X100600230Y-51882351D01*
X100592923Y-51862598D01*
X100551948Y-51794271D01*
X100492622Y-51760191D01*
X100416552Y-51761239D01*
X100410918Y-51762581D01*
X100370305Y-51781836D01*
X100340448Y-51819375D01*
X100320055Y-51879809D01*
X100307836Y-51967751D01*
X100302500Y-52087813D01*
X100302000Y-52151698D01*
X100301752Y-52252403D01*
X100300126Y-52321054D01*
X100295801Y-52364673D01*
X100287454Y-52390282D01*
X100273765Y-52404903D01*
X100253411Y-52415558D01*
X100252234Y-52416095D01*
X100213038Y-52432667D01*
X100193619Y-52438769D01*
X100190635Y-52420319D01*
X100188081Y-52369323D01*
X100186140Y-52292308D01*
X100184997Y-52195805D01*
X100184769Y-52125184D01*
X100185932Y-51988525D01*
X100190479Y-51884851D01*
X100199999Y-51808108D01*
X100216081Y-51752246D01*
X100240313Y-51711212D01*
X100274286Y-51678954D01*
X100307833Y-51656440D01*
X100388499Y-51626476D01*
X100482381Y-51619718D01*
X100570807Y-51636782D01*
X100570807Y-51636782D01*
G37*
X100570807Y-51636782D02*
X100594161Y-51646988D01*
X100649902Y-51691134D01*
X100697569Y-51754967D01*
X100727048Y-51823087D01*
X100731846Y-51856670D01*
X100715760Y-51903556D01*
X100680475Y-51928365D01*
X100642644Y-51943387D01*
X100625321Y-51946155D01*
X100616886Y-51926066D01*
X100600230Y-51882351D01*
X100592923Y-51862598D01*
X100551948Y-51794271D01*
X100492622Y-51760191D01*
X100416552Y-51761239D01*
X100410918Y-51762581D01*
X100370305Y-51781836D01*
X100340448Y-51819375D01*
X100320055Y-51879809D01*
X100307836Y-51967751D01*
X100302500Y-52087813D01*
X100302000Y-52151698D01*
X100301752Y-52252403D01*
X100300126Y-52321054D01*
X100295801Y-52364673D01*
X100287454Y-52390282D01*
X100273765Y-52404903D01*
X100253411Y-52415558D01*
X100252234Y-52416095D01*
X100213038Y-52432667D01*
X100193619Y-52438769D01*
X100190635Y-52420319D01*
X100188081Y-52369323D01*
X100186140Y-52292308D01*
X100184997Y-52195805D01*
X100184769Y-52125184D01*
X100185932Y-51988525D01*
X100190479Y-51884851D01*
X100199999Y-51808108D01*
X100216081Y-51752246D01*
X100240313Y-51711212D01*
X100274286Y-51678954D01*
X100307833Y-51656440D01*
X100388499Y-51626476D01*
X100482381Y-51619718D01*
X100570807Y-51636782D01*
G36*
X101245224Y-51647838D02*
X101322528Y-51698361D01*
X101359814Y-51743590D01*
X101389353Y-51825663D01*
X101391699Y-51890607D01*
X101386385Y-51977445D01*
X101186115Y-52065103D01*
X101088739Y-52109887D01*
X101025113Y-52145913D01*
X100992029Y-52177117D01*
X100986280Y-52207436D01*
X101004658Y-52240805D01*
X101024923Y-52262923D01*
X101083889Y-52298393D01*
X101148024Y-52300879D01*
X101206926Y-52273235D01*
X101250197Y-52218320D01*
X101257936Y-52198928D01*
X101295006Y-52138364D01*
X101337654Y-52112552D01*
X101396154Y-52090471D01*
X101396154Y-52174184D01*
X101390982Y-52231150D01*
X101370723Y-52279189D01*
X101328262Y-52334346D01*
X101321951Y-52341514D01*
X101274720Y-52390585D01*
X101234121Y-52416920D01*
X101183328Y-52429035D01*
X101141220Y-52433003D01*
X101065902Y-52433991D01*
X101012286Y-52421466D01*
X100978838Y-52402869D01*
X100926268Y-52361975D01*
X100889879Y-52317748D01*
X100866850Y-52262126D01*
X100854359Y-52187047D01*
X100849587Y-52084449D01*
X100849206Y-52032376D01*
X100850501Y-51969948D01*
X100968471Y-51969948D01*
X100969839Y-52003438D01*
X100973249Y-52008923D01*
X100995753Y-52001472D01*
X101044182Y-51981753D01*
X101108908Y-51953718D01*
X101122443Y-51947692D01*
X101204244Y-51906096D01*
X101249312Y-51869538D01*
X101259217Y-51835296D01*
X101235526Y-51800648D01*
X101215960Y-51785339D01*
X101145360Y-51754721D01*
X101079280Y-51759780D01*
X101023959Y-51797151D01*
X100985636Y-51863473D01*
X100973349Y-51916116D01*
X100968471Y-51969948D01*
X100850501Y-51969948D01*
X100851730Y-51910720D01*
X100861032Y-51820710D01*
X100879460Y-51755167D01*
X100909360Y-51706912D01*
X100953080Y-51668767D01*
X100972141Y-51656440D01*
X101058726Y-51624336D01*
X101153522Y-51622316D01*
X101245224Y-51647838D01*
X101245224Y-51647838D01*
G37*
X101245224Y-51647838D02*
X101322528Y-51698361D01*
X101359814Y-51743590D01*
X101389353Y-51825663D01*
X101391699Y-51890607D01*
X101386385Y-51977445D01*
X101186115Y-52065103D01*
X101088739Y-52109887D01*
X101025113Y-52145913D01*
X100992029Y-52177117D01*
X100986280Y-52207436D01*
X101004658Y-52240805D01*
X101024923Y-52262923D01*
X101083889Y-52298393D01*
X101148024Y-52300879D01*
X101206926Y-52273235D01*
X101250197Y-52218320D01*
X101257936Y-52198928D01*
X101295006Y-52138364D01*
X101337654Y-52112552D01*
X101396154Y-52090471D01*
X101396154Y-52174184D01*
X101390982Y-52231150D01*
X101370723Y-52279189D01*
X101328262Y-52334346D01*
X101321951Y-52341514D01*
X101274720Y-52390585D01*
X101234121Y-52416920D01*
X101183328Y-52429035D01*
X101141220Y-52433003D01*
X101065902Y-52433991D01*
X101012286Y-52421466D01*
X100978838Y-52402869D01*
X100926268Y-52361975D01*
X100889879Y-52317748D01*
X100866850Y-52262126D01*
X100854359Y-52187047D01*
X100849587Y-52084449D01*
X100849206Y-52032376D01*
X100850501Y-51969948D01*
X100968471Y-51969948D01*
X100969839Y-52003438D01*
X100973249Y-52008923D01*
X100995753Y-52001472D01*
X101044182Y-51981753D01*
X101108908Y-51953718D01*
X101122443Y-51947692D01*
X101204244Y-51906096D01*
X101249312Y-51869538D01*
X101259217Y-51835296D01*
X101235526Y-51800648D01*
X101215960Y-51785339D01*
X101145360Y-51754721D01*
X101079280Y-51759780D01*
X101023959Y-51797151D01*
X100985636Y-51863473D01*
X100973349Y-51916116D01*
X100968471Y-51969948D01*
X100850501Y-51969948D01*
X100851730Y-51910720D01*
X100861032Y-51820710D01*
X100879460Y-51755167D01*
X100909360Y-51706912D01*
X100953080Y-51668767D01*
X100972141Y-51656440D01*
X101058726Y-51624336D01*
X101153522Y-51622316D01*
X101245224Y-51647838D01*
G36*
X97139878Y-45287776D02*
X97245612Y-45288355D01*
X97322132Y-45289922D01*
X97374372Y-45292972D01*
X97407263Y-45297996D01*
X97425737Y-45305489D01*
X97434727Y-45315944D01*
X97439163Y-45329853D01*
X97439594Y-45331654D01*
X97446333Y-45364145D01*
X97458808Y-45428252D01*
X97475719Y-45517151D01*
X97495771Y-45624019D01*
X97517664Y-45742033D01*
X97518429Y-45746178D01*
X97540359Y-45861831D01*
X97560877Y-45964014D01*
X97578659Y-46046598D01*
X97592381Y-46103456D01*
X97600718Y-46128458D01*
X97601116Y-46128901D01*
X97625677Y-46141110D01*
X97676315Y-46161456D01*
X97742095Y-46185545D01*
X97742461Y-46185674D01*
X97825317Y-46216818D01*
X97923000Y-46256491D01*
X98015077Y-46296381D01*
X98019434Y-46298353D01*
X98169407Y-46366420D01*
X98501498Y-46139639D01*
X98603374Y-46070504D01*
X98695657Y-46008697D01*
X98773003Y-45957733D01*
X98830064Y-45921127D01*
X98861495Y-45902394D01*
X98864479Y-45901004D01*
X98887321Y-45907190D01*
X98929982Y-45937035D01*
X98994128Y-45991947D01*
X99081421Y-46073334D01*
X99170535Y-46159922D01*
X99256441Y-46245247D01*
X99333327Y-46323108D01*
X99396564Y-46388697D01*
X99441523Y-46437205D01*
X99463576Y-46463825D01*
X99464396Y-46465195D01*
X99466834Y-46483463D01*
X99457650Y-46513295D01*
X99434574Y-46558721D01*
X99395337Y-46623770D01*
X99337670Y-46712470D01*
X99260795Y-46826657D01*
X99192570Y-46927162D01*
X99131582Y-47017303D01*
X99081356Y-47091849D01*
X99045416Y-47145565D01*
X99027287Y-47173218D01*
X99026146Y-47175095D01*
X99028359Y-47201590D01*
X99045138Y-47253086D01*
X99073142Y-47319851D01*
X99083122Y-47341172D01*
X99126672Y-47436159D01*
X99173134Y-47543937D01*
X99210877Y-47637192D01*
X99238073Y-47706406D01*
X99259675Y-47759006D01*
X99272158Y-47786497D01*
X99273709Y-47788616D01*
X99296668Y-47792124D01*
X99350786Y-47801738D01*
X99428868Y-47816089D01*
X99523719Y-47833807D01*
X99628143Y-47853525D01*
X99734944Y-47873874D01*
X99836926Y-47893486D01*
X99926894Y-47910991D01*
X99997653Y-47925022D01*
X100042006Y-47934209D01*
X100052885Y-47936807D01*
X100064122Y-47943218D01*
X100072605Y-47957697D01*
X100078714Y-47985133D01*
X100082832Y-48030411D01*
X100085341Y-48098420D01*
X100086621Y-48194047D01*
X100087054Y-48322180D01*
X100087077Y-48374701D01*
X100087077Y-48801845D01*
X99984500Y-48822091D01*
X99927431Y-48833070D01*
X99842269Y-48849095D01*
X99739372Y-48868233D01*
X99629096Y-48888551D01*
X99598615Y-48894132D01*
X99496855Y-48913917D01*
X99408205Y-48933373D01*
X99340108Y-48950697D01*
X99300004Y-48964088D01*
X99293323Y-48968079D01*
X99276919Y-48996342D01*
X99253399Y-49051109D01*
X99227316Y-49121588D01*
X99222142Y-49136769D01*
X99187956Y-49230896D01*
X99145523Y-49337101D01*
X99103997Y-49432473D01*
X99103792Y-49432916D01*
X99034640Y-49582525D01*
X99489512Y-50251617D01*
X99197500Y-50544116D01*
X99109180Y-50631170D01*
X99028625Y-50707909D01*
X98960360Y-50770237D01*
X98908908Y-50814056D01*
X98878794Y-50835270D01*
X98874474Y-50836616D01*
X98849111Y-50826016D01*
X98797358Y-50796547D01*
X98724868Y-50751705D01*
X98637294Y-50694984D01*
X98542612Y-50631462D01*
X98446516Y-50566668D01*
X98360837Y-50510287D01*
X98291016Y-50465788D01*
X98242494Y-50436639D01*
X98220782Y-50426308D01*
X98194293Y-50435050D01*
X98144062Y-50458087D01*
X98080451Y-50490631D01*
X98073708Y-50494249D01*
X97988046Y-50537210D01*
X97929306Y-50558279D01*
X97892772Y-50558503D01*
X97873731Y-50538928D01*
X97873620Y-50538654D01*
X97864102Y-50515472D01*
X97841403Y-50460441D01*
X97807282Y-50377822D01*
X97763500Y-50271872D01*
X97711816Y-50146852D01*
X97653992Y-50007020D01*
X97597991Y-49871637D01*
X97536447Y-49722234D01*
X97479939Y-49583832D01*
X97430161Y-49460673D01*
X97388806Y-49357002D01*
X97357568Y-49277059D01*
X97338141Y-49225088D01*
X97332154Y-49205692D01*
X97347168Y-49183443D01*
X97386439Y-49147982D01*
X97438807Y-49108887D01*
X97587941Y-48985245D01*
X97704511Y-48843522D01*
X97787118Y-48686704D01*
X97834366Y-48517775D01*
X97844857Y-48339722D01*
X97837231Y-48257539D01*
X97795682Y-48087031D01*
X97724123Y-47936459D01*
X97626995Y-47807309D01*
X97508734Y-47701064D01*
X97373780Y-47619210D01*
X97226571Y-47563232D01*
X97071544Y-47534615D01*
X96913139Y-47534844D01*
X96755794Y-47565405D01*
X96603946Y-47627782D01*
X96462035Y-47723460D01*
X96402803Y-47777572D01*
X96289203Y-47916520D01*
X96210106Y-48068361D01*
X96164986Y-48228667D01*
X96153316Y-48393012D01*
X96174569Y-48556971D01*
X96228220Y-48716118D01*
X96313740Y-48866025D01*
X96430605Y-49002267D01*
X96561193Y-49108887D01*
X96615588Y-49149642D01*
X96654014Y-49184718D01*
X96667846Y-49205726D01*
X96660603Y-49228635D01*
X96640005Y-49283365D01*
X96607746Y-49365672D01*
X96565521Y-49471315D01*
X96515023Y-49596050D01*
X96457948Y-49735636D01*
X96401854Y-49871670D01*
X96339967Y-50021201D01*
X96282644Y-50159767D01*
X96231644Y-50283107D01*
X96188727Y-50386964D01*
X96155653Y-50467080D01*
X96134181Y-50519195D01*
X96126225Y-50538654D01*
X96107429Y-50558423D01*
X96071074Y-50558365D01*
X96012479Y-50537441D01*
X95926968Y-50494613D01*
X95926292Y-50494249D01*
X95861907Y-50461012D01*
X95809861Y-50436802D01*
X95780512Y-50426404D01*
X95779217Y-50426308D01*
X95757124Y-50436855D01*
X95708348Y-50466184D01*
X95638331Y-50510827D01*
X95552514Y-50567314D01*
X95457388Y-50631462D01*
X95360540Y-50696411D01*
X95273253Y-50752896D01*
X95201181Y-50797421D01*
X95149977Y-50826490D01*
X95125526Y-50836616D01*
X95103010Y-50823307D01*
X95057742Y-50786112D01*
X94994244Y-50729128D01*
X94917039Y-50656449D01*
X94830651Y-50572171D01*
X94802399Y-50544016D01*
X94510287Y-50251416D01*
X94732631Y-49925104D01*
X94800202Y-49824897D01*
X94859507Y-49734963D01*
X94907217Y-49660510D01*
X94940007Y-49606751D01*
X94954548Y-49578894D01*
X94954974Y-49576912D01*
X94947308Y-49550655D01*
X94926689Y-49497837D01*
X94896685Y-49427310D01*
X94875625Y-49380093D01*
X94836248Y-49289694D01*
X94799165Y-49198366D01*
X94770415Y-49121200D01*
X94762605Y-49097692D01*
X94740417Y-49034916D01*
X94718727Y-48986411D01*
X94706813Y-48968079D01*
X94680523Y-48956859D01*
X94623142Y-48940954D01*
X94542118Y-48922167D01*
X94444895Y-48902299D01*
X94401385Y-48894132D01*
X94290896Y-48873829D01*
X94184916Y-48854170D01*
X94093801Y-48837088D01*
X94027908Y-48824518D01*
X94015500Y-48822091D01*
X93912923Y-48801845D01*
X93912923Y-48374701D01*
X93913153Y-48234246D01*
X93914099Y-48127979D01*
X93916141Y-48051013D01*
X93919662Y-47998460D01*
X93925043Y-47965433D01*
X93932666Y-47947045D01*
X93942912Y-47938408D01*
X93947115Y-47936807D01*
X93972470Y-47931127D01*
X94028484Y-47919795D01*
X94107964Y-47904179D01*
X94203712Y-47885647D01*
X94308533Y-47865569D01*
X94415232Y-47845312D01*
X94516613Y-47826246D01*
X94605479Y-47809739D01*
X94674637Y-47797159D01*
X94716889Y-47789875D01*
X94726290Y-47788616D01*
X94734807Y-47771763D01*
X94753660Y-47726870D01*
X94779324Y-47662430D01*
X94789123Y-47637192D01*
X94828648Y-47539686D01*
X94875192Y-47431959D01*
X94916877Y-47341172D01*
X94947550Y-47271753D01*
X94967956Y-47214710D01*
X94974768Y-47179777D01*
X94973682Y-47175095D01*
X94959285Y-47152991D01*
X94926412Y-47103831D01*
X94878590Y-47032848D01*
X94819348Y-46945278D01*
X94752215Y-46846357D01*
X94738941Y-46826830D01*
X94661046Y-46711140D01*
X94603787Y-46623044D01*
X94564881Y-46558486D01*
X94542044Y-46513411D01*
X94532994Y-46483763D01*
X94535448Y-46465485D01*
X94535511Y-46465369D01*
X94554827Y-46441361D01*
X94597551Y-46394947D01*
X94659051Y-46330937D01*
X94734698Y-46254145D01*
X94819861Y-46169382D01*
X94829465Y-46159922D01*
X94936790Y-46055989D01*
X95019615Y-45979675D01*
X95079605Y-45929571D01*
X95118423Y-45904270D01*
X95135520Y-45901004D01*
X95160473Y-45915250D01*
X95212255Y-45948156D01*
X95285520Y-45996208D01*
X95374920Y-46055890D01*
X95475111Y-46123688D01*
X95498501Y-46139639D01*
X95830593Y-46366420D01*
X95980565Y-46298353D01*
X96071770Y-46258685D01*
X96169669Y-46218791D01*
X96253831Y-46186983D01*
X96257538Y-46185674D01*
X96323369Y-46161576D01*
X96374116Y-46141200D01*
X96398842Y-46128936D01*
X96398884Y-46128901D01*
X96406729Y-46106734D01*
X96420066Y-46052217D01*
X96437570Y-45971480D01*
X96457917Y-45870650D01*
X96479782Y-45755856D01*
X96481571Y-45746178D01*
X96503504Y-45627904D01*
X96523640Y-45520542D01*
X96540680Y-45430917D01*
X96553328Y-45365851D01*
X96560284Y-45332168D01*
X96560406Y-45331654D01*
X96564639Y-45317325D01*
X96572871Y-45306507D01*
X96590033Y-45298706D01*
X96621058Y-45293429D01*
X96670878Y-45290182D01*
X96744424Y-45288472D01*
X96846629Y-45287807D01*
X96982425Y-45287693D01*
X97000000Y-45287692D01*
X97139878Y-45287776D01*
X97139878Y-45287776D01*
G37*
X97139878Y-45287776D02*
X97245612Y-45288355D01*
X97322132Y-45289922D01*
X97374372Y-45292972D01*
X97407263Y-45297996D01*
X97425737Y-45305489D01*
X97434727Y-45315944D01*
X97439163Y-45329853D01*
X97439594Y-45331654D01*
X97446333Y-45364145D01*
X97458808Y-45428252D01*
X97475719Y-45517151D01*
X97495771Y-45624019D01*
X97517664Y-45742033D01*
X97518429Y-45746178D01*
X97540359Y-45861831D01*
X97560877Y-45964014D01*
X97578659Y-46046598D01*
X97592381Y-46103456D01*
X97600718Y-46128458D01*
X97601116Y-46128901D01*
X97625677Y-46141110D01*
X97676315Y-46161456D01*
X97742095Y-46185545D01*
X97742461Y-46185674D01*
X97825317Y-46216818D01*
X97923000Y-46256491D01*
X98015077Y-46296381D01*
X98019434Y-46298353D01*
X98169407Y-46366420D01*
X98501498Y-46139639D01*
X98603374Y-46070504D01*
X98695657Y-46008697D01*
X98773003Y-45957733D01*
X98830064Y-45921127D01*
X98861495Y-45902394D01*
X98864479Y-45901004D01*
X98887321Y-45907190D01*
X98929982Y-45937035D01*
X98994128Y-45991947D01*
X99081421Y-46073334D01*
X99170535Y-46159922D01*
X99256441Y-46245247D01*
X99333327Y-46323108D01*
X99396564Y-46388697D01*
X99441523Y-46437205D01*
X99463576Y-46463825D01*
X99464396Y-46465195D01*
X99466834Y-46483463D01*
X99457650Y-46513295D01*
X99434574Y-46558721D01*
X99395337Y-46623770D01*
X99337670Y-46712470D01*
X99260795Y-46826657D01*
X99192570Y-46927162D01*
X99131582Y-47017303D01*
X99081356Y-47091849D01*
X99045416Y-47145565D01*
X99027287Y-47173218D01*
X99026146Y-47175095D01*
X99028359Y-47201590D01*
X99045138Y-47253086D01*
X99073142Y-47319851D01*
X99083122Y-47341172D01*
X99126672Y-47436159D01*
X99173134Y-47543937D01*
X99210877Y-47637192D01*
X99238073Y-47706406D01*
X99259675Y-47759006D01*
X99272158Y-47786497D01*
X99273709Y-47788616D01*
X99296668Y-47792124D01*
X99350786Y-47801738D01*
X99428868Y-47816089D01*
X99523719Y-47833807D01*
X99628143Y-47853525D01*
X99734944Y-47873874D01*
X99836926Y-47893486D01*
X99926894Y-47910991D01*
X99997653Y-47925022D01*
X100042006Y-47934209D01*
X100052885Y-47936807D01*
X100064122Y-47943218D01*
X100072605Y-47957697D01*
X100078714Y-47985133D01*
X100082832Y-48030411D01*
X100085341Y-48098420D01*
X100086621Y-48194047D01*
X100087054Y-48322180D01*
X100087077Y-48374701D01*
X100087077Y-48801845D01*
X99984500Y-48822091D01*
X99927431Y-48833070D01*
X99842269Y-48849095D01*
X99739372Y-48868233D01*
X99629096Y-48888551D01*
X99598615Y-48894132D01*
X99496855Y-48913917D01*
X99408205Y-48933373D01*
X99340108Y-48950697D01*
X99300004Y-48964088D01*
X99293323Y-48968079D01*
X99276919Y-48996342D01*
X99253399Y-49051109D01*
X99227316Y-49121588D01*
X99222142Y-49136769D01*
X99187956Y-49230896D01*
X99145523Y-49337101D01*
X99103997Y-49432473D01*
X99103792Y-49432916D01*
X99034640Y-49582525D01*
X99489512Y-50251617D01*
X99197500Y-50544116D01*
X99109180Y-50631170D01*
X99028625Y-50707909D01*
X98960360Y-50770237D01*
X98908908Y-50814056D01*
X98878794Y-50835270D01*
X98874474Y-50836616D01*
X98849111Y-50826016D01*
X98797358Y-50796547D01*
X98724868Y-50751705D01*
X98637294Y-50694984D01*
X98542612Y-50631462D01*
X98446516Y-50566668D01*
X98360837Y-50510287D01*
X98291016Y-50465788D01*
X98242494Y-50436639D01*
X98220782Y-50426308D01*
X98194293Y-50435050D01*
X98144062Y-50458087D01*
X98080451Y-50490631D01*
X98073708Y-50494249D01*
X97988046Y-50537210D01*
X97929306Y-50558279D01*
X97892772Y-50558503D01*
X97873731Y-50538928D01*
X97873620Y-50538654D01*
X97864102Y-50515472D01*
X97841403Y-50460441D01*
X97807282Y-50377822D01*
X97763500Y-50271872D01*
X97711816Y-50146852D01*
X97653992Y-50007020D01*
X97597991Y-49871637D01*
X97536447Y-49722234D01*
X97479939Y-49583832D01*
X97430161Y-49460673D01*
X97388806Y-49357002D01*
X97357568Y-49277059D01*
X97338141Y-49225088D01*
X97332154Y-49205692D01*
X97347168Y-49183443D01*
X97386439Y-49147982D01*
X97438807Y-49108887D01*
X97587941Y-48985245D01*
X97704511Y-48843522D01*
X97787118Y-48686704D01*
X97834366Y-48517775D01*
X97844857Y-48339722D01*
X97837231Y-48257539D01*
X97795682Y-48087031D01*
X97724123Y-47936459D01*
X97626995Y-47807309D01*
X97508734Y-47701064D01*
X97373780Y-47619210D01*
X97226571Y-47563232D01*
X97071544Y-47534615D01*
X96913139Y-47534844D01*
X96755794Y-47565405D01*
X96603946Y-47627782D01*
X96462035Y-47723460D01*
X96402803Y-47777572D01*
X96289203Y-47916520D01*
X96210106Y-48068361D01*
X96164986Y-48228667D01*
X96153316Y-48393012D01*
X96174569Y-48556971D01*
X96228220Y-48716118D01*
X96313740Y-48866025D01*
X96430605Y-49002267D01*
X96561193Y-49108887D01*
X96615588Y-49149642D01*
X96654014Y-49184718D01*
X96667846Y-49205726D01*
X96660603Y-49228635D01*
X96640005Y-49283365D01*
X96607746Y-49365672D01*
X96565521Y-49471315D01*
X96515023Y-49596050D01*
X96457948Y-49735636D01*
X96401854Y-49871670D01*
X96339967Y-50021201D01*
X96282644Y-50159767D01*
X96231644Y-50283107D01*
X96188727Y-50386964D01*
X96155653Y-50467080D01*
X96134181Y-50519195D01*
X96126225Y-50538654D01*
X96107429Y-50558423D01*
X96071074Y-50558365D01*
X96012479Y-50537441D01*
X95926968Y-50494613D01*
X95926292Y-50494249D01*
X95861907Y-50461012D01*
X95809861Y-50436802D01*
X95780512Y-50426404D01*
X95779217Y-50426308D01*
X95757124Y-50436855D01*
X95708348Y-50466184D01*
X95638331Y-50510827D01*
X95552514Y-50567314D01*
X95457388Y-50631462D01*
X95360540Y-50696411D01*
X95273253Y-50752896D01*
X95201181Y-50797421D01*
X95149977Y-50826490D01*
X95125526Y-50836616D01*
X95103010Y-50823307D01*
X95057742Y-50786112D01*
X94994244Y-50729128D01*
X94917039Y-50656449D01*
X94830651Y-50572171D01*
X94802399Y-50544016D01*
X94510287Y-50251416D01*
X94732631Y-49925104D01*
X94800202Y-49824897D01*
X94859507Y-49734963D01*
X94907217Y-49660510D01*
X94940007Y-49606751D01*
X94954548Y-49578894D01*
X94954974Y-49576912D01*
X94947308Y-49550655D01*
X94926689Y-49497837D01*
X94896685Y-49427310D01*
X94875625Y-49380093D01*
X94836248Y-49289694D01*
X94799165Y-49198366D01*
X94770415Y-49121200D01*
X94762605Y-49097692D01*
X94740417Y-49034916D01*
X94718727Y-48986411D01*
X94706813Y-48968079D01*
X94680523Y-48956859D01*
X94623142Y-48940954D01*
X94542118Y-48922167D01*
X94444895Y-48902299D01*
X94401385Y-48894132D01*
X94290896Y-48873829D01*
X94184916Y-48854170D01*
X94093801Y-48837088D01*
X94027908Y-48824518D01*
X94015500Y-48822091D01*
X93912923Y-48801845D01*
X93912923Y-48374701D01*
X93913153Y-48234246D01*
X93914099Y-48127979D01*
X93916141Y-48051013D01*
X93919662Y-47998460D01*
X93925043Y-47965433D01*
X93932666Y-47947045D01*
X93942912Y-47938408D01*
X93947115Y-47936807D01*
X93972470Y-47931127D01*
X94028484Y-47919795D01*
X94107964Y-47904179D01*
X94203712Y-47885647D01*
X94308533Y-47865569D01*
X94415232Y-47845312D01*
X94516613Y-47826246D01*
X94605479Y-47809739D01*
X94674637Y-47797159D01*
X94716889Y-47789875D01*
X94726290Y-47788616D01*
X94734807Y-47771763D01*
X94753660Y-47726870D01*
X94779324Y-47662430D01*
X94789123Y-47637192D01*
X94828648Y-47539686D01*
X94875192Y-47431959D01*
X94916877Y-47341172D01*
X94947550Y-47271753D01*
X94967956Y-47214710D01*
X94974768Y-47179777D01*
X94973682Y-47175095D01*
X94959285Y-47152991D01*
X94926412Y-47103831D01*
X94878590Y-47032848D01*
X94819348Y-46945278D01*
X94752215Y-46846357D01*
X94738941Y-46826830D01*
X94661046Y-46711140D01*
X94603787Y-46623044D01*
X94564881Y-46558486D01*
X94542044Y-46513411D01*
X94532994Y-46483763D01*
X94535448Y-46465485D01*
X94535511Y-46465369D01*
X94554827Y-46441361D01*
X94597551Y-46394947D01*
X94659051Y-46330937D01*
X94734698Y-46254145D01*
X94819861Y-46169382D01*
X94829465Y-46159922D01*
X94936790Y-46055989D01*
X95019615Y-45979675D01*
X95079605Y-45929571D01*
X95118423Y-45904270D01*
X95135520Y-45901004D01*
X95160473Y-45915250D01*
X95212255Y-45948156D01*
X95285520Y-45996208D01*
X95374920Y-46055890D01*
X95475111Y-46123688D01*
X95498501Y-46139639D01*
X95830593Y-46366420D01*
X95980565Y-46298353D01*
X96071770Y-46258685D01*
X96169669Y-46218791D01*
X96253831Y-46186983D01*
X96257538Y-46185674D01*
X96323369Y-46161576D01*
X96374116Y-46141200D01*
X96398842Y-46128936D01*
X96398884Y-46128901D01*
X96406729Y-46106734D01*
X96420066Y-46052217D01*
X96437570Y-45971480D01*
X96457917Y-45870650D01*
X96479782Y-45755856D01*
X96481571Y-45746178D01*
X96503504Y-45627904D01*
X96523640Y-45520542D01*
X96540680Y-45430917D01*
X96553328Y-45365851D01*
X96560284Y-45332168D01*
X96560406Y-45331654D01*
X96564639Y-45317325D01*
X96572871Y-45306507D01*
X96590033Y-45298706D01*
X96621058Y-45293429D01*
X96670878Y-45290182D01*
X96744424Y-45288472D01*
X96846629Y-45287807D01*
X96982425Y-45287693D01*
X97000000Y-45287692D01*
X97139878Y-45287776D01*
D12*
X117114285Y-73921429D02*
X116914285Y-73635714D01*
X116771428Y-73921429D02*
X116771428Y-73321429D01*
X117000000Y-73321429D01*
X117057142Y-73350000D01*
X117085714Y-73378571D01*
X117114285Y-73435714D01*
X117114285Y-73521429D01*
X117085714Y-73578571D01*
X117057142Y-73607143D01*
X117000000Y-73635714D01*
X116771428Y-73635714D01*
X117314285Y-73321429D02*
X117685714Y-73321429D01*
X117485714Y-73550000D01*
X117571428Y-73550000D01*
X117628571Y-73578571D01*
X117657142Y-73607143D01*
X117685714Y-73664286D01*
X117685714Y-73807143D01*
X117657142Y-73864286D01*
X117628571Y-73892857D01*
X117571428Y-73921429D01*
X117400000Y-73921429D01*
X117342857Y-73892857D01*
X117314285Y-73864286D01*
X117914286Y-73378571D02*
X117942857Y-73350000D01*
X118000000Y-73321429D01*
X118142857Y-73321429D01*
X118200000Y-73350000D01*
X118228571Y-73378571D01*
X118257143Y-73435714D01*
X118257143Y-73492857D01*
X118228571Y-73578571D01*
X117885714Y-73921429D01*
X118257143Y-73921429D01*
X123771429Y-59885715D02*
X123485714Y-60085715D01*
X123771429Y-60228572D02*
X123171429Y-60228572D01*
X123171429Y-60000000D01*
X123200000Y-59942858D01*
X123228571Y-59914286D01*
X123285714Y-59885715D01*
X123371429Y-59885715D01*
X123428571Y-59914286D01*
X123457143Y-59942858D01*
X123485714Y-60000000D01*
X123485714Y-60228572D01*
X123228571Y-59657143D02*
X123200000Y-59628572D01*
X123171429Y-59571429D01*
X123171429Y-59428572D01*
X123200000Y-59371429D01*
X123228571Y-59342858D01*
X123285714Y-59314286D01*
X123342857Y-59314286D01*
X123428571Y-59342858D01*
X123771429Y-59685715D01*
X123771429Y-59314286D01*
X123428571Y-58971429D02*
X123400000Y-59028571D01*
X123371429Y-59057143D01*
X123314286Y-59085714D01*
X123285714Y-59085714D01*
X123228571Y-59057143D01*
X123200000Y-59028571D01*
X123171429Y-58971429D01*
X123171429Y-58857143D01*
X123200000Y-58800000D01*
X123228571Y-58771429D01*
X123285714Y-58742857D01*
X123314286Y-58742857D01*
X123371429Y-58771429D01*
X123400000Y-58800000D01*
X123428571Y-58857143D01*
X123428571Y-58971429D01*
X123457143Y-59028571D01*
X123485714Y-59057143D01*
X123542857Y-59085714D01*
X123657143Y-59085714D01*
X123714286Y-59057143D01*
X123742857Y-59028571D01*
X123771429Y-58971429D01*
X123771429Y-58857143D01*
X123742857Y-58800000D01*
X123714286Y-58771429D01*
X123657143Y-58742857D01*
X123542857Y-58742857D01*
X123485714Y-58771429D01*
X123457143Y-58800000D01*
X123428571Y-58857143D01*
X97642857Y-89828571D02*
X97585714Y-89800000D01*
X97528571Y-89742857D01*
X97442857Y-89657143D01*
X97385714Y-89628571D01*
X97328571Y-89628571D01*
X97357143Y-89771429D02*
X97300000Y-89742857D01*
X97242857Y-89685714D01*
X97214286Y-89571429D01*
X97214286Y-89371429D01*
X97242857Y-89257143D01*
X97300000Y-89200000D01*
X97357143Y-89171429D01*
X97471429Y-89171429D01*
X97528571Y-89200000D01*
X97585714Y-89257143D01*
X97614286Y-89371429D01*
X97614286Y-89571429D01*
X97585714Y-89685714D01*
X97528571Y-89742857D01*
X97471429Y-89771429D01*
X97357143Y-89771429D01*
X98128571Y-89371429D02*
X98128571Y-89771429D01*
X97985714Y-89142857D02*
X97842857Y-89571429D01*
X98214285Y-89571429D01*
X96942857Y-79728571D02*
X96885714Y-79700000D01*
X96828571Y-79642857D01*
X96742857Y-79557143D01*
X96685714Y-79528571D01*
X96628571Y-79528571D01*
X96657143Y-79671429D02*
X96600000Y-79642857D01*
X96542857Y-79585714D01*
X96514286Y-79471429D01*
X96514286Y-79271429D01*
X96542857Y-79157143D01*
X96600000Y-79100000D01*
X96657143Y-79071429D01*
X96771429Y-79071429D01*
X96828571Y-79100000D01*
X96885714Y-79157143D01*
X96914286Y-79271429D01*
X96914286Y-79471429D01*
X96885714Y-79585714D01*
X96828571Y-79642857D01*
X96771429Y-79671429D01*
X96657143Y-79671429D01*
X97457142Y-79071429D02*
X97171428Y-79071429D01*
X97142857Y-79357143D01*
X97171428Y-79328571D01*
X97228571Y-79300000D01*
X97371428Y-79300000D01*
X97428571Y-79328571D01*
X97457142Y-79357143D01*
X97485714Y-79414286D01*
X97485714Y-79557143D01*
X97457142Y-79614286D01*
X97428571Y-79642857D01*
X97371428Y-79671429D01*
X97228571Y-79671429D01*
X97171428Y-79642857D01*
X97142857Y-79614286D01*
X90742857Y-91028571D02*
X90685714Y-91000000D01*
X90628571Y-90942857D01*
X90542857Y-90857143D01*
X90485714Y-90828571D01*
X90428571Y-90828571D01*
X90457143Y-90971429D02*
X90400000Y-90942857D01*
X90342857Y-90885714D01*
X90314286Y-90771429D01*
X90314286Y-90571429D01*
X90342857Y-90457143D01*
X90400000Y-90400000D01*
X90457143Y-90371429D01*
X90571429Y-90371429D01*
X90628571Y-90400000D01*
X90685714Y-90457143D01*
X90714286Y-90571429D01*
X90714286Y-90771429D01*
X90685714Y-90885714D01*
X90628571Y-90942857D01*
X90571429Y-90971429D01*
X90457143Y-90971429D01*
X91228571Y-90371429D02*
X91114285Y-90371429D01*
X91057142Y-90400000D01*
X91028571Y-90428571D01*
X90971428Y-90514286D01*
X90942857Y-90628571D01*
X90942857Y-90857143D01*
X90971428Y-90914286D01*
X91000000Y-90942857D01*
X91057142Y-90971429D01*
X91171428Y-90971429D01*
X91228571Y-90942857D01*
X91257142Y-90914286D01*
X91285714Y-90857143D01*
X91285714Y-90714286D01*
X91257142Y-90657143D01*
X91228571Y-90628571D01*
X91171428Y-90600000D01*
X91057142Y-90600000D01*
X91000000Y-90628571D01*
X90971428Y-90657143D01*
X90942857Y-90714286D01*
X66842857Y-66871429D02*
X66842857Y-67357143D01*
X66871429Y-67414286D01*
X66900000Y-67442857D01*
X66957143Y-67471429D01*
X67071429Y-67471429D01*
X67128571Y-67442857D01*
X67157143Y-67414286D01*
X67185714Y-67357143D01*
X67185714Y-66871429D01*
X67442857Y-66928571D02*
X67471428Y-66900000D01*
X67528571Y-66871429D01*
X67671428Y-66871429D01*
X67728571Y-66900000D01*
X67757142Y-66928571D01*
X67785714Y-66985714D01*
X67785714Y-67042857D01*
X67757142Y-67128571D01*
X67414285Y-67471429D01*
X67785714Y-67471429D01*
X116542857Y-101071429D02*
X116542857Y-101557143D01*
X116571429Y-101614286D01*
X116600000Y-101642857D01*
X116657143Y-101671429D01*
X116771429Y-101671429D01*
X116828571Y-101642857D01*
X116857143Y-101614286D01*
X116885714Y-101557143D01*
X116885714Y-101071429D01*
X117428571Y-101271429D02*
X117428571Y-101671429D01*
X117285714Y-101042857D02*
X117142857Y-101471429D01*
X117514285Y-101471429D01*
X68971429Y-88214286D02*
X68942858Y-88242857D01*
X68857144Y-88271429D01*
X68800001Y-88271429D01*
X68714286Y-88242857D01*
X68657144Y-88185714D01*
X68628572Y-88128571D01*
X68600001Y-88014286D01*
X68600001Y-87928571D01*
X68628572Y-87814286D01*
X68657144Y-87757143D01*
X68714286Y-87700000D01*
X68800001Y-87671429D01*
X68857144Y-87671429D01*
X68942858Y-87700000D01*
X68971429Y-87728571D01*
X69342858Y-87671429D02*
X69457144Y-87671429D01*
X69514286Y-87700000D01*
X69571429Y-87757143D01*
X69600001Y-87871429D01*
X69600001Y-88071429D01*
X69571429Y-88185714D01*
X69514286Y-88242857D01*
X69457144Y-88271429D01*
X69342858Y-88271429D01*
X69285715Y-88242857D01*
X69228572Y-88185714D01*
X69200001Y-88071429D01*
X69200001Y-87871429D01*
X69228572Y-87757143D01*
X69285715Y-87700000D01*
X69342858Y-87671429D01*
X69857143Y-88271429D02*
X69857143Y-87671429D01*
X70200000Y-88271429D01*
X70200000Y-87671429D01*
X70800000Y-88271429D02*
X70457143Y-88271429D01*
X70628571Y-88271429D02*
X70628571Y-87671429D01*
X70571428Y-87757143D01*
X70514286Y-87814286D01*
X70457143Y-87842857D01*
X96542857Y-42771429D02*
X96542857Y-43257143D01*
X96571429Y-43314286D01*
X96600000Y-43342857D01*
X96657143Y-43371429D01*
X96771429Y-43371429D01*
X96828571Y-43342857D01*
X96857143Y-43314286D01*
X96885714Y-43257143D01*
X96885714Y-42771429D01*
X97114285Y-42771429D02*
X97485714Y-42771429D01*
X97285714Y-43000000D01*
X97371428Y-43000000D01*
X97428571Y-43028571D01*
X97457142Y-43057143D01*
X97485714Y-43114286D01*
X97485714Y-43257143D01*
X97457142Y-43314286D01*
X97428571Y-43342857D01*
X97371428Y-43371429D01*
X97200000Y-43371429D01*
X97142857Y-43342857D01*
X97114285Y-43314286D01*
X73700000Y-77514286D02*
X73671429Y-77542857D01*
X73585715Y-77571429D01*
X73528572Y-77571429D01*
X73442857Y-77542857D01*
X73385715Y-77485714D01*
X73357143Y-77428571D01*
X73328572Y-77314286D01*
X73328572Y-77228571D01*
X73357143Y-77114286D01*
X73385715Y-77057143D01*
X73442857Y-77000000D01*
X73528572Y-76971429D01*
X73585715Y-76971429D01*
X73671429Y-77000000D01*
X73700000Y-77028571D01*
X74271429Y-77571429D02*
X73928572Y-77571429D01*
X74100000Y-77571429D02*
X74100000Y-76971429D01*
X74042857Y-77057143D01*
X73985715Y-77114286D01*
X73928572Y-77142857D01*
X68700000Y-60114286D02*
X68671429Y-60142857D01*
X68585715Y-60171429D01*
X68528572Y-60171429D01*
X68442857Y-60142857D01*
X68385715Y-60085714D01*
X68357143Y-60028571D01*
X68328572Y-59914286D01*
X68328572Y-59828571D01*
X68357143Y-59714286D01*
X68385715Y-59657143D01*
X68442857Y-59600000D01*
X68528572Y-59571429D01*
X68585715Y-59571429D01*
X68671429Y-59600000D01*
X68700000Y-59628571D01*
X68928572Y-59628571D02*
X68957143Y-59600000D01*
X69014286Y-59571429D01*
X69157143Y-59571429D01*
X69214286Y-59600000D01*
X69242857Y-59628571D01*
X69271429Y-59685714D01*
X69271429Y-59742857D01*
X69242857Y-59828571D01*
X68900000Y-60171429D01*
X69271429Y-60171429D01*
X69600000Y-77514286D02*
X69571429Y-77542857D01*
X69485715Y-77571429D01*
X69428572Y-77571429D01*
X69342857Y-77542857D01*
X69285715Y-77485714D01*
X69257143Y-77428571D01*
X69228572Y-77314286D01*
X69228572Y-77228571D01*
X69257143Y-77114286D01*
X69285715Y-77057143D01*
X69342857Y-77000000D01*
X69428572Y-76971429D01*
X69485715Y-76971429D01*
X69571429Y-77000000D01*
X69600000Y-77028571D01*
X69800000Y-76971429D02*
X70171429Y-76971429D01*
X69971429Y-77200000D01*
X70057143Y-77200000D01*
X70114286Y-77228571D01*
X70142857Y-77257143D01*
X70171429Y-77314286D01*
X70171429Y-77457143D01*
X70142857Y-77514286D01*
X70114286Y-77542857D01*
X70057143Y-77571429D01*
X69885715Y-77571429D01*
X69828572Y-77542857D01*
X69800000Y-77514286D01*
X74200000Y-60214286D02*
X74171429Y-60242857D01*
X74085715Y-60271429D01*
X74028572Y-60271429D01*
X73942857Y-60242857D01*
X73885715Y-60185714D01*
X73857143Y-60128571D01*
X73828572Y-60014286D01*
X73828572Y-59928571D01*
X73857143Y-59814286D01*
X73885715Y-59757143D01*
X73942857Y-59700000D01*
X74028572Y-59671429D01*
X74085715Y-59671429D01*
X74171429Y-59700000D01*
X74200000Y-59728571D01*
X74714286Y-59871429D02*
X74714286Y-60271429D01*
X74571429Y-59642857D02*
X74428572Y-60071429D01*
X74800000Y-60071429D01*
X92500000Y-74414286D02*
X92471429Y-74442857D01*
X92385715Y-74471429D01*
X92328572Y-74471429D01*
X92242857Y-74442857D01*
X92185715Y-74385714D01*
X92157143Y-74328571D01*
X92128572Y-74214286D01*
X92128572Y-74128571D01*
X92157143Y-74014286D01*
X92185715Y-73957143D01*
X92242857Y-73900000D01*
X92328572Y-73871429D01*
X92385715Y-73871429D01*
X92471429Y-73900000D01*
X92500000Y-73928571D01*
X93042857Y-73871429D02*
X92757143Y-73871429D01*
X92728572Y-74157143D01*
X92757143Y-74128571D01*
X92814286Y-74100000D01*
X92957143Y-74100000D01*
X93014286Y-74128571D01*
X93042857Y-74157143D01*
X93071429Y-74214286D01*
X93071429Y-74357143D01*
X93042857Y-74414286D01*
X93014286Y-74442857D01*
X92957143Y-74471429D01*
X92814286Y-74471429D01*
X92757143Y-74442857D01*
X92728572Y-74414286D01*
X89800000Y-69514286D02*
X89771429Y-69542857D01*
X89685715Y-69571429D01*
X89628572Y-69571429D01*
X89542857Y-69542857D01*
X89485715Y-69485714D01*
X89457143Y-69428571D01*
X89428572Y-69314286D01*
X89428572Y-69228571D01*
X89457143Y-69114286D01*
X89485715Y-69057143D01*
X89542857Y-69000000D01*
X89628572Y-68971429D01*
X89685715Y-68971429D01*
X89771429Y-69000000D01*
X89800000Y-69028571D01*
X90314286Y-68971429D02*
X90200000Y-68971429D01*
X90142857Y-69000000D01*
X90114286Y-69028571D01*
X90057143Y-69114286D01*
X90028572Y-69228571D01*
X90028572Y-69457143D01*
X90057143Y-69514286D01*
X90085715Y-69542857D01*
X90142857Y-69571429D01*
X90257143Y-69571429D01*
X90314286Y-69542857D01*
X90342857Y-69514286D01*
X90371429Y-69457143D01*
X90371429Y-69314286D01*
X90342857Y-69257143D01*
X90314286Y-69228571D01*
X90257143Y-69200000D01*
X90142857Y-69200000D01*
X90085715Y-69228571D01*
X90057143Y-69257143D01*
X90028572Y-69314286D01*
X104150000Y-89914286D02*
X104121429Y-89942857D01*
X104035715Y-89971429D01*
X103978572Y-89971429D01*
X103892857Y-89942857D01*
X103835715Y-89885714D01*
X103807143Y-89828571D01*
X103778572Y-89714286D01*
X103778572Y-89628571D01*
X103807143Y-89514286D01*
X103835715Y-89457143D01*
X103892857Y-89400000D01*
X103978572Y-89371429D01*
X104035715Y-89371429D01*
X104121429Y-89400000D01*
X104150000Y-89428571D01*
X104350000Y-89371429D02*
X104750000Y-89371429D01*
X104492857Y-89971429D01*
X117000000Y-98514286D02*
X116971429Y-98542857D01*
X116885715Y-98571429D01*
X116828572Y-98571429D01*
X116742857Y-98542857D01*
X116685715Y-98485714D01*
X116657143Y-98428571D01*
X116628572Y-98314286D01*
X116628572Y-98228571D01*
X116657143Y-98114286D01*
X116685715Y-98057143D01*
X116742857Y-98000000D01*
X116828572Y-97971429D01*
X116885715Y-97971429D01*
X116971429Y-98000000D01*
X117000000Y-98028571D01*
X117342857Y-98228571D02*
X117285715Y-98200000D01*
X117257143Y-98171429D01*
X117228572Y-98114286D01*
X117228572Y-98085714D01*
X117257143Y-98028571D01*
X117285715Y-98000000D01*
X117342857Y-97971429D01*
X117457143Y-97971429D01*
X117514286Y-98000000D01*
X117542857Y-98028571D01*
X117571429Y-98085714D01*
X117571429Y-98114286D01*
X117542857Y-98171429D01*
X117514286Y-98200000D01*
X117457143Y-98228571D01*
X117342857Y-98228571D01*
X117285715Y-98257143D01*
X117257143Y-98285714D01*
X117228572Y-98342857D01*
X117228572Y-98457143D01*
X117257143Y-98514286D01*
X117285715Y-98542857D01*
X117342857Y-98571429D01*
X117457143Y-98571429D01*
X117514286Y-98542857D01*
X117542857Y-98514286D01*
X117571429Y-98457143D01*
X117571429Y-98342857D01*
X117542857Y-98285714D01*
X117514286Y-98257143D01*
X117457143Y-98228571D01*
X127214286Y-91000000D02*
X127242857Y-91028571D01*
X127271429Y-91114285D01*
X127271429Y-91171428D01*
X127242857Y-91257143D01*
X127185714Y-91314285D01*
X127128571Y-91342857D01*
X127014286Y-91371428D01*
X126928571Y-91371428D01*
X126814286Y-91342857D01*
X126757143Y-91314285D01*
X126700000Y-91257143D01*
X126671429Y-91171428D01*
X126671429Y-91114285D01*
X126700000Y-91028571D01*
X126728571Y-91000000D01*
X127271429Y-90714285D02*
X127271429Y-90600000D01*
X127242857Y-90542857D01*
X127214286Y-90514285D01*
X127128571Y-90457143D01*
X127014286Y-90428571D01*
X126785714Y-90428571D01*
X126728571Y-90457143D01*
X126700000Y-90485714D01*
X126671429Y-90542857D01*
X126671429Y-90657143D01*
X126700000Y-90714285D01*
X126728571Y-90742857D01*
X126785714Y-90771428D01*
X126928571Y-90771428D01*
X126985714Y-90742857D01*
X127014286Y-90714285D01*
X127042857Y-90657143D01*
X127042857Y-90542857D01*
X127014286Y-90485714D01*
X126985714Y-90457143D01*
X126928571Y-90428571D01*
X97642857Y-91628571D02*
X97585714Y-91600000D01*
X97528571Y-91542857D01*
X97442857Y-91457143D01*
X97385714Y-91428571D01*
X97328571Y-91428571D01*
X97357143Y-91571429D02*
X97300000Y-91542857D01*
X97242857Y-91485714D01*
X97214286Y-91371429D01*
X97214286Y-91171429D01*
X97242857Y-91057143D01*
X97300000Y-91000000D01*
X97357143Y-90971429D01*
X97471429Y-90971429D01*
X97528571Y-91000000D01*
X97585714Y-91057143D01*
X97614286Y-91171429D01*
X97614286Y-91371429D01*
X97585714Y-91485714D01*
X97528571Y-91542857D01*
X97471429Y-91571429D01*
X97357143Y-91571429D01*
X98185714Y-91571429D02*
X97842857Y-91571429D01*
X98014285Y-91571429D02*
X98014285Y-90971429D01*
X97957142Y-91057143D01*
X97900000Y-91114286D01*
X97842857Y-91142857D01*
X96942857Y-81628571D02*
X96885714Y-81600000D01*
X96828571Y-81542857D01*
X96742857Y-81457143D01*
X96685714Y-81428571D01*
X96628571Y-81428571D01*
X96657143Y-81571429D02*
X96600000Y-81542857D01*
X96542857Y-81485714D01*
X96514286Y-81371429D01*
X96514286Y-81171429D01*
X96542857Y-81057143D01*
X96600000Y-81000000D01*
X96657143Y-80971429D01*
X96771429Y-80971429D01*
X96828571Y-81000000D01*
X96885714Y-81057143D01*
X96914286Y-81171429D01*
X96914286Y-81371429D01*
X96885714Y-81485714D01*
X96828571Y-81542857D01*
X96771429Y-81571429D01*
X96657143Y-81571429D01*
X97142857Y-81028571D02*
X97171428Y-81000000D01*
X97228571Y-80971429D01*
X97371428Y-80971429D01*
X97428571Y-81000000D01*
X97457142Y-81028571D01*
X97485714Y-81085714D01*
X97485714Y-81142857D01*
X97457142Y-81228571D01*
X97114285Y-81571429D01*
X97485714Y-81571429D01*
X87692857Y-91628571D02*
X87635714Y-91600000D01*
X87578571Y-91542857D01*
X87492857Y-91457143D01*
X87435714Y-91428571D01*
X87378571Y-91428571D01*
X87407143Y-91571429D02*
X87350000Y-91542857D01*
X87292857Y-91485714D01*
X87264286Y-91371429D01*
X87264286Y-91171429D01*
X87292857Y-91057143D01*
X87350000Y-91000000D01*
X87407143Y-90971429D01*
X87521429Y-90971429D01*
X87578571Y-91000000D01*
X87635714Y-91057143D01*
X87664286Y-91171429D01*
X87664286Y-91371429D01*
X87635714Y-91485714D01*
X87578571Y-91542857D01*
X87521429Y-91571429D01*
X87407143Y-91571429D01*
X87864285Y-90971429D02*
X88235714Y-90971429D01*
X88035714Y-91200000D01*
X88121428Y-91200000D01*
X88178571Y-91228571D01*
X88207142Y-91257143D01*
X88235714Y-91314286D01*
X88235714Y-91457143D01*
X88207142Y-91514286D01*
X88178571Y-91542857D01*
X88121428Y-91571429D01*
X87950000Y-91571429D01*
X87892857Y-91542857D01*
X87864285Y-91514286D01*
X79671429Y-55600000D02*
X79385714Y-55800000D01*
X79671429Y-55942857D02*
X79071429Y-55942857D01*
X79071429Y-55714285D01*
X79100000Y-55657143D01*
X79128571Y-55628571D01*
X79185714Y-55600000D01*
X79271429Y-55600000D01*
X79328571Y-55628571D01*
X79357143Y-55657143D01*
X79385714Y-55714285D01*
X79385714Y-55942857D01*
X79671429Y-55028571D02*
X79671429Y-55371428D01*
X79671429Y-55200000D02*
X79071429Y-55200000D01*
X79157143Y-55257143D01*
X79214286Y-55314285D01*
X79242857Y-55371428D01*
X85150000Y-50921429D02*
X84950000Y-50635714D01*
X84807143Y-50921429D02*
X84807143Y-50321429D01*
X85035715Y-50321429D01*
X85092857Y-50350000D01*
X85121429Y-50378571D01*
X85150000Y-50435714D01*
X85150000Y-50521429D01*
X85121429Y-50578571D01*
X85092857Y-50607143D01*
X85035715Y-50635714D01*
X84807143Y-50635714D01*
X85378572Y-50378571D02*
X85407143Y-50350000D01*
X85464286Y-50321429D01*
X85607143Y-50321429D01*
X85664286Y-50350000D01*
X85692857Y-50378571D01*
X85721429Y-50435714D01*
X85721429Y-50492857D01*
X85692857Y-50578571D01*
X85350000Y-50921429D01*
X85721429Y-50921429D01*
X106700000Y-61771429D02*
X106500000Y-61485714D01*
X106357143Y-61771429D02*
X106357143Y-61171429D01*
X106585715Y-61171429D01*
X106642857Y-61200000D01*
X106671429Y-61228571D01*
X106700000Y-61285714D01*
X106700000Y-61371429D01*
X106671429Y-61428571D01*
X106642857Y-61457143D01*
X106585715Y-61485714D01*
X106357143Y-61485714D01*
X106900000Y-61171429D02*
X107271429Y-61171429D01*
X107071429Y-61400000D01*
X107157143Y-61400000D01*
X107214286Y-61428571D01*
X107242857Y-61457143D01*
X107271429Y-61514286D01*
X107271429Y-61657143D01*
X107242857Y-61714286D01*
X107214286Y-61742857D01*
X107157143Y-61771429D01*
X106985715Y-61771429D01*
X106928572Y-61742857D01*
X106900000Y-61714286D01*
X106700000Y-64771429D02*
X106500000Y-64485714D01*
X106357143Y-64771429D02*
X106357143Y-64171429D01*
X106585715Y-64171429D01*
X106642857Y-64200000D01*
X106671429Y-64228571D01*
X106700000Y-64285714D01*
X106700000Y-64371429D01*
X106671429Y-64428571D01*
X106642857Y-64457143D01*
X106585715Y-64485714D01*
X106357143Y-64485714D01*
X107214286Y-64371429D02*
X107214286Y-64771429D01*
X107071429Y-64142857D02*
X106928572Y-64571429D01*
X107300000Y-64571429D01*
X83600000Y-63271429D02*
X83400000Y-62985714D01*
X83257143Y-63271429D02*
X83257143Y-62671429D01*
X83485715Y-62671429D01*
X83542857Y-62700000D01*
X83571429Y-62728571D01*
X83600000Y-62785714D01*
X83600000Y-62871429D01*
X83571429Y-62928571D01*
X83542857Y-62957143D01*
X83485715Y-62985714D01*
X83257143Y-62985714D01*
X84142857Y-62671429D02*
X83857143Y-62671429D01*
X83828572Y-62957143D01*
X83857143Y-62928571D01*
X83914286Y-62900000D01*
X84057143Y-62900000D01*
X84114286Y-62928571D01*
X84142857Y-62957143D01*
X84171429Y-63014286D01*
X84171429Y-63157143D01*
X84142857Y-63214286D01*
X84114286Y-63242857D01*
X84057143Y-63271429D01*
X83914286Y-63271429D01*
X83857143Y-63242857D01*
X83828572Y-63214286D01*
X106700000Y-58771429D02*
X106500000Y-58485714D01*
X106357143Y-58771429D02*
X106357143Y-58171429D01*
X106585715Y-58171429D01*
X106642857Y-58200000D01*
X106671429Y-58228571D01*
X106700000Y-58285714D01*
X106700000Y-58371429D01*
X106671429Y-58428571D01*
X106642857Y-58457143D01*
X106585715Y-58485714D01*
X106357143Y-58485714D01*
X107214286Y-58171429D02*
X107100000Y-58171429D01*
X107042857Y-58200000D01*
X107014286Y-58228571D01*
X106957143Y-58314286D01*
X106928572Y-58428571D01*
X106928572Y-58657143D01*
X106957143Y-58714286D01*
X106985715Y-58742857D01*
X107042857Y-58771429D01*
X107157143Y-58771429D01*
X107214286Y-58742857D01*
X107242857Y-58714286D01*
X107271429Y-58657143D01*
X107271429Y-58514286D01*
X107242857Y-58457143D01*
X107214286Y-58428571D01*
X107157143Y-58400000D01*
X107042857Y-58400000D01*
X106985715Y-58428571D01*
X106957143Y-58457143D01*
X106928572Y-58514286D01*
X83600000Y-57271429D02*
X83400000Y-56985714D01*
X83257143Y-57271429D02*
X83257143Y-56671429D01*
X83485715Y-56671429D01*
X83542857Y-56700000D01*
X83571429Y-56728571D01*
X83600000Y-56785714D01*
X83600000Y-56871429D01*
X83571429Y-56928571D01*
X83542857Y-56957143D01*
X83485715Y-56985714D01*
X83257143Y-56985714D01*
X83800000Y-56671429D02*
X84200000Y-56671429D01*
X83942857Y-57271429D01*
X74300000Y-48921429D02*
X74100000Y-48635714D01*
X73957143Y-48921429D02*
X73957143Y-48321429D01*
X74185715Y-48321429D01*
X74242857Y-48350000D01*
X74271429Y-48378571D01*
X74300000Y-48435714D01*
X74300000Y-48521429D01*
X74271429Y-48578571D01*
X74242857Y-48607143D01*
X74185715Y-48635714D01*
X73957143Y-48635714D01*
X74642857Y-48578571D02*
X74585715Y-48550000D01*
X74557143Y-48521429D01*
X74528572Y-48464286D01*
X74528572Y-48435714D01*
X74557143Y-48378571D01*
X74585715Y-48350000D01*
X74642857Y-48321429D01*
X74757143Y-48321429D01*
X74814286Y-48350000D01*
X74842857Y-48378571D01*
X74871429Y-48435714D01*
X74871429Y-48464286D01*
X74842857Y-48521429D01*
X74814286Y-48550000D01*
X74757143Y-48578571D01*
X74642857Y-48578571D01*
X74585715Y-48607143D01*
X74557143Y-48635714D01*
X74528572Y-48692857D01*
X74528572Y-48807143D01*
X74557143Y-48864286D01*
X74585715Y-48892857D01*
X74642857Y-48921429D01*
X74757143Y-48921429D01*
X74814286Y-48892857D01*
X74842857Y-48864286D01*
X74871429Y-48807143D01*
X74871429Y-48692857D01*
X74842857Y-48635714D01*
X74814286Y-48607143D01*
X74757143Y-48578571D01*
X77271429Y-65600000D02*
X76985714Y-65800000D01*
X77271429Y-65942857D02*
X76671429Y-65942857D01*
X76671429Y-65714285D01*
X76700000Y-65657143D01*
X76728571Y-65628571D01*
X76785714Y-65600000D01*
X76871429Y-65600000D01*
X76928571Y-65628571D01*
X76957143Y-65657143D01*
X76985714Y-65714285D01*
X76985714Y-65942857D01*
X77271429Y-65314285D02*
X77271429Y-65200000D01*
X77242857Y-65142857D01*
X77214286Y-65114285D01*
X77128571Y-65057143D01*
X77014286Y-65028571D01*
X76785714Y-65028571D01*
X76728571Y-65057143D01*
X76700000Y-65085714D01*
X76671429Y-65142857D01*
X76671429Y-65257143D01*
X76700000Y-65314285D01*
X76728571Y-65342857D01*
X76785714Y-65371428D01*
X76928571Y-65371428D01*
X76985714Y-65342857D01*
X77014286Y-65314285D01*
X77042857Y-65257143D01*
X77042857Y-65142857D01*
X77014286Y-65085714D01*
X76985714Y-65057143D01*
X76928571Y-65028571D01*
X77471429Y-52885715D02*
X77185714Y-53085715D01*
X77471429Y-53228572D02*
X76871429Y-53228572D01*
X76871429Y-53000000D01*
X76900000Y-52942858D01*
X76928571Y-52914286D01*
X76985714Y-52885715D01*
X77071429Y-52885715D01*
X77128571Y-52914286D01*
X77157143Y-52942858D01*
X77185714Y-53000000D01*
X77185714Y-53228572D01*
X77471429Y-52314286D02*
X77471429Y-52657143D01*
X77471429Y-52485715D02*
X76871429Y-52485715D01*
X76957143Y-52542858D01*
X77014286Y-52600000D01*
X77042857Y-52657143D01*
X76871429Y-51942857D02*
X76871429Y-51885714D01*
X76900000Y-51828571D01*
X76928571Y-51800000D01*
X76985714Y-51771429D01*
X77100000Y-51742857D01*
X77242857Y-51742857D01*
X77357143Y-51771429D01*
X77414286Y-51800000D01*
X77442857Y-51828571D01*
X77471429Y-51885714D01*
X77471429Y-51942857D01*
X77442857Y-52000000D01*
X77414286Y-52028571D01*
X77357143Y-52057143D01*
X77242857Y-52085714D01*
X77100000Y-52085714D01*
X76985714Y-52057143D01*
X76928571Y-52028571D01*
X76900000Y-52000000D01*
X76871429Y-51942857D01*
X77271429Y-62885715D02*
X76985714Y-63085715D01*
X77271429Y-63228572D02*
X76671429Y-63228572D01*
X76671429Y-63000000D01*
X76700000Y-62942858D01*
X76728571Y-62914286D01*
X76785714Y-62885715D01*
X76871429Y-62885715D01*
X76928571Y-62914286D01*
X76957143Y-62942858D01*
X76985714Y-63000000D01*
X76985714Y-63228572D01*
X77271429Y-62314286D02*
X77271429Y-62657143D01*
X77271429Y-62485715D02*
X76671429Y-62485715D01*
X76757143Y-62542858D01*
X76814286Y-62600000D01*
X76842857Y-62657143D01*
X77271429Y-61742857D02*
X77271429Y-62085714D01*
X77271429Y-61914286D02*
X76671429Y-61914286D01*
X76757143Y-61971429D01*
X76814286Y-62028571D01*
X76842857Y-62085714D01*
X69014285Y-48921429D02*
X68814285Y-48635714D01*
X68671428Y-48921429D02*
X68671428Y-48321429D01*
X68900000Y-48321429D01*
X68957142Y-48350000D01*
X68985714Y-48378571D01*
X69014285Y-48435714D01*
X69014285Y-48521429D01*
X68985714Y-48578571D01*
X68957142Y-48607143D01*
X68900000Y-48635714D01*
X68671428Y-48635714D01*
X69585714Y-48921429D02*
X69242857Y-48921429D01*
X69414285Y-48921429D02*
X69414285Y-48321429D01*
X69357142Y-48407143D01*
X69300000Y-48464286D01*
X69242857Y-48492857D01*
X69814286Y-48378571D02*
X69842857Y-48350000D01*
X69900000Y-48321429D01*
X70042857Y-48321429D01*
X70100000Y-48350000D01*
X70128571Y-48378571D01*
X70157143Y-48435714D01*
X70157143Y-48492857D01*
X70128571Y-48578571D01*
X69785714Y-48921429D01*
X70157143Y-48921429D01*
X83114285Y-60271429D02*
X82914285Y-59985714D01*
X82771428Y-60271429D02*
X82771428Y-59671429D01*
X83000000Y-59671429D01*
X83057142Y-59700000D01*
X83085714Y-59728571D01*
X83114285Y-59785714D01*
X83114285Y-59871429D01*
X83085714Y-59928571D01*
X83057142Y-59957143D01*
X83000000Y-59985714D01*
X82771428Y-59985714D01*
X83685714Y-60271429D02*
X83342857Y-60271429D01*
X83514285Y-60271429D02*
X83514285Y-59671429D01*
X83457142Y-59757143D01*
X83400000Y-59814286D01*
X83342857Y-59842857D01*
X83885714Y-59671429D02*
X84257143Y-59671429D01*
X84057143Y-59900000D01*
X84142857Y-59900000D01*
X84200000Y-59928571D01*
X84228571Y-59957143D01*
X84257143Y-60014286D01*
X84257143Y-60157143D01*
X84228571Y-60214286D01*
X84200000Y-60242857D01*
X84142857Y-60271429D01*
X83971429Y-60271429D01*
X83914286Y-60242857D01*
X83885714Y-60214286D01*
X77571429Y-71985715D02*
X77285714Y-72185715D01*
X77571429Y-72328572D02*
X76971429Y-72328572D01*
X76971429Y-72100000D01*
X77000000Y-72042858D01*
X77028571Y-72014286D01*
X77085714Y-71985715D01*
X77171429Y-71985715D01*
X77228571Y-72014286D01*
X77257143Y-72042858D01*
X77285714Y-72100000D01*
X77285714Y-72328572D01*
X77571429Y-71414286D02*
X77571429Y-71757143D01*
X77571429Y-71585715D02*
X76971429Y-71585715D01*
X77057143Y-71642858D01*
X77114286Y-71700000D01*
X77142857Y-71757143D01*
X77171429Y-70900000D02*
X77571429Y-70900000D01*
X76942857Y-71042857D02*
X77371429Y-71185714D01*
X77371429Y-70814286D01*
X77171429Y-82885715D02*
X76885714Y-83085715D01*
X77171429Y-83228572D02*
X76571429Y-83228572D01*
X76571429Y-83000000D01*
X76600000Y-82942858D01*
X76628571Y-82914286D01*
X76685714Y-82885715D01*
X76771429Y-82885715D01*
X76828571Y-82914286D01*
X76857143Y-82942858D01*
X76885714Y-83000000D01*
X76885714Y-83228572D01*
X77171429Y-82314286D02*
X77171429Y-82657143D01*
X77171429Y-82485715D02*
X76571429Y-82485715D01*
X76657143Y-82542858D01*
X76714286Y-82600000D01*
X76742857Y-82657143D01*
X76571429Y-81771429D02*
X76571429Y-82057143D01*
X76857143Y-82085714D01*
X76828571Y-82057143D01*
X76800000Y-82000000D01*
X76800000Y-81857143D01*
X76828571Y-81800000D01*
X76857143Y-81771429D01*
X76914286Y-81742857D01*
X77057143Y-81742857D01*
X77114286Y-81771429D01*
X77142857Y-81800000D01*
X77171429Y-81857143D01*
X77171429Y-82000000D01*
X77142857Y-82057143D01*
X77114286Y-82085714D01*
X83014285Y-69271429D02*
X82814285Y-68985714D01*
X82671428Y-69271429D02*
X82671428Y-68671429D01*
X82900000Y-68671429D01*
X82957142Y-68700000D01*
X82985714Y-68728571D01*
X83014285Y-68785714D01*
X83014285Y-68871429D01*
X82985714Y-68928571D01*
X82957142Y-68957143D01*
X82900000Y-68985714D01*
X82671428Y-68985714D01*
X83585714Y-69271429D02*
X83242857Y-69271429D01*
X83414285Y-69271429D02*
X83414285Y-68671429D01*
X83357142Y-68757143D01*
X83300000Y-68814286D01*
X83242857Y-68842857D01*
X84100000Y-68671429D02*
X83985714Y-68671429D01*
X83928571Y-68700000D01*
X83900000Y-68728571D01*
X83842857Y-68814286D01*
X83814286Y-68928571D01*
X83814286Y-69157143D01*
X83842857Y-69214286D01*
X83871429Y-69242857D01*
X83928571Y-69271429D01*
X84042857Y-69271429D01*
X84100000Y-69242857D01*
X84128571Y-69214286D01*
X84157143Y-69157143D01*
X84157143Y-69014286D01*
X84128571Y-68957143D01*
X84100000Y-68928571D01*
X84042857Y-68900000D01*
X83928571Y-68900000D01*
X83871429Y-68928571D01*
X83842857Y-68957143D01*
X83814286Y-69014286D01*
X82814285Y-72271429D02*
X82614285Y-71985714D01*
X82471428Y-72271429D02*
X82471428Y-71671429D01*
X82700000Y-71671429D01*
X82757142Y-71700000D01*
X82785714Y-71728571D01*
X82814285Y-71785714D01*
X82814285Y-71871429D01*
X82785714Y-71928571D01*
X82757142Y-71957143D01*
X82700000Y-71985714D01*
X82471428Y-71985714D01*
X83385714Y-72271429D02*
X83042857Y-72271429D01*
X83214285Y-72271429D02*
X83214285Y-71671429D01*
X83157142Y-71757143D01*
X83100000Y-71814286D01*
X83042857Y-71842857D01*
X83585714Y-71671429D02*
X83985714Y-71671429D01*
X83728571Y-72271429D01*
X83014285Y-66271429D02*
X82814285Y-65985714D01*
X82671428Y-66271429D02*
X82671428Y-65671429D01*
X82900000Y-65671429D01*
X82957142Y-65700000D01*
X82985714Y-65728571D01*
X83014285Y-65785714D01*
X83014285Y-65871429D01*
X82985714Y-65928571D01*
X82957142Y-65957143D01*
X82900000Y-65985714D01*
X82671428Y-65985714D01*
X83585714Y-66271429D02*
X83242857Y-66271429D01*
X83414285Y-66271429D02*
X83414285Y-65671429D01*
X83357142Y-65757143D01*
X83300000Y-65814286D01*
X83242857Y-65842857D01*
X83928571Y-65928571D02*
X83871429Y-65900000D01*
X83842857Y-65871429D01*
X83814286Y-65814286D01*
X83814286Y-65785714D01*
X83842857Y-65728571D01*
X83871429Y-65700000D01*
X83928571Y-65671429D01*
X84042857Y-65671429D01*
X84100000Y-65700000D01*
X84128571Y-65728571D01*
X84157143Y-65785714D01*
X84157143Y-65814286D01*
X84128571Y-65871429D01*
X84100000Y-65900000D01*
X84042857Y-65928571D01*
X83928571Y-65928571D01*
X83871429Y-65957143D01*
X83842857Y-65985714D01*
X83814286Y-66042857D01*
X83814286Y-66157143D01*
X83842857Y-66214286D01*
X83871429Y-66242857D01*
X83928571Y-66271429D01*
X84042857Y-66271429D01*
X84100000Y-66242857D01*
X84128571Y-66214286D01*
X84157143Y-66157143D01*
X84157143Y-66042857D01*
X84128571Y-65985714D01*
X84100000Y-65957143D01*
X84042857Y-65928571D01*
X77471429Y-76185715D02*
X77185714Y-76385715D01*
X77471429Y-76528572D02*
X76871429Y-76528572D01*
X76871429Y-76300000D01*
X76900000Y-76242858D01*
X76928571Y-76214286D01*
X76985714Y-76185715D01*
X77071429Y-76185715D01*
X77128571Y-76214286D01*
X77157143Y-76242858D01*
X77185714Y-76300000D01*
X77185714Y-76528572D01*
X77471429Y-75614286D02*
X77471429Y-75957143D01*
X77471429Y-75785715D02*
X76871429Y-75785715D01*
X76957143Y-75842858D01*
X77014286Y-75900000D01*
X77042857Y-75957143D01*
X77471429Y-75328571D02*
X77471429Y-75214286D01*
X77442857Y-75157143D01*
X77414286Y-75128571D01*
X77328571Y-75071429D01*
X77214286Y-75042857D01*
X76985714Y-75042857D01*
X76928571Y-75071429D01*
X76900000Y-75100000D01*
X76871429Y-75157143D01*
X76871429Y-75271429D01*
X76900000Y-75328571D01*
X76928571Y-75357143D01*
X76985714Y-75385714D01*
X77128571Y-75385714D01*
X77185714Y-75357143D01*
X77214286Y-75328571D01*
X77242857Y-75271429D01*
X77242857Y-75157143D01*
X77214286Y-75100000D01*
X77185714Y-75071429D01*
X77128571Y-75042857D01*
X77271429Y-85885715D02*
X76985714Y-86085715D01*
X77271429Y-86228572D02*
X76671429Y-86228572D01*
X76671429Y-86000000D01*
X76700000Y-85942858D01*
X76728571Y-85914286D01*
X76785714Y-85885715D01*
X76871429Y-85885715D01*
X76928571Y-85914286D01*
X76957143Y-85942858D01*
X76985714Y-86000000D01*
X76985714Y-86228572D01*
X76728571Y-85657143D02*
X76700000Y-85628572D01*
X76671429Y-85571429D01*
X76671429Y-85428572D01*
X76700000Y-85371429D01*
X76728571Y-85342858D01*
X76785714Y-85314286D01*
X76842857Y-85314286D01*
X76928571Y-85342858D01*
X77271429Y-85685715D01*
X77271429Y-85314286D01*
X76671429Y-84942857D02*
X76671429Y-84885714D01*
X76700000Y-84828571D01*
X76728571Y-84800000D01*
X76785714Y-84771429D01*
X76900000Y-84742857D01*
X77042857Y-84742857D01*
X77157143Y-84771429D01*
X77214286Y-84800000D01*
X77242857Y-84828571D01*
X77271429Y-84885714D01*
X77271429Y-84942857D01*
X77242857Y-85000000D01*
X77214286Y-85028571D01*
X77157143Y-85057143D01*
X77042857Y-85085714D01*
X76900000Y-85085714D01*
X76785714Y-85057143D01*
X76728571Y-85028571D01*
X76700000Y-85000000D01*
X76671429Y-84942857D01*
X112571429Y-51985715D02*
X112285714Y-52185715D01*
X112571429Y-52328572D02*
X111971429Y-52328572D01*
X111971429Y-52100000D01*
X112000000Y-52042858D01*
X112028571Y-52014286D01*
X112085714Y-51985715D01*
X112171429Y-51985715D01*
X112228571Y-52014286D01*
X112257143Y-52042858D01*
X112285714Y-52100000D01*
X112285714Y-52328572D01*
X112028571Y-51757143D02*
X112000000Y-51728572D01*
X111971429Y-51671429D01*
X111971429Y-51528572D01*
X112000000Y-51471429D01*
X112028571Y-51442858D01*
X112085714Y-51414286D01*
X112142857Y-51414286D01*
X112228571Y-51442858D01*
X112571429Y-51785715D01*
X112571429Y-51414286D01*
X112571429Y-50842857D02*
X112571429Y-51185714D01*
X112571429Y-51014286D02*
X111971429Y-51014286D01*
X112057143Y-51071429D01*
X112114286Y-51128571D01*
X112142857Y-51185714D01*
X83071429Y-92485715D02*
X82785714Y-92685715D01*
X83071429Y-92828572D02*
X82471429Y-92828572D01*
X82471429Y-92600000D01*
X82500000Y-92542858D01*
X82528571Y-92514286D01*
X82585714Y-92485715D01*
X82671429Y-92485715D01*
X82728571Y-92514286D01*
X82757143Y-92542858D01*
X82785714Y-92600000D01*
X82785714Y-92828572D01*
X82528571Y-92257143D02*
X82500000Y-92228572D01*
X82471429Y-92171429D01*
X82471429Y-92028572D01*
X82500000Y-91971429D01*
X82528571Y-91942858D01*
X82585714Y-91914286D01*
X82642857Y-91914286D01*
X82728571Y-91942858D01*
X83071429Y-92285715D01*
X83071429Y-91914286D01*
X82528571Y-91685714D02*
X82500000Y-91657143D01*
X82471429Y-91600000D01*
X82471429Y-91457143D01*
X82500000Y-91400000D01*
X82528571Y-91371429D01*
X82585714Y-91342857D01*
X82642857Y-91342857D01*
X82728571Y-91371429D01*
X83071429Y-91714286D01*
X83071429Y-91342857D01*
X123771429Y-53885715D02*
X123485714Y-54085715D01*
X123771429Y-54228572D02*
X123171429Y-54228572D01*
X123171429Y-54000000D01*
X123200000Y-53942858D01*
X123228571Y-53914286D01*
X123285714Y-53885715D01*
X123371429Y-53885715D01*
X123428571Y-53914286D01*
X123457143Y-53942858D01*
X123485714Y-54000000D01*
X123485714Y-54228572D01*
X123228571Y-53657143D02*
X123200000Y-53628572D01*
X123171429Y-53571429D01*
X123171429Y-53428572D01*
X123200000Y-53371429D01*
X123228571Y-53342858D01*
X123285714Y-53314286D01*
X123342857Y-53314286D01*
X123428571Y-53342858D01*
X123771429Y-53685715D01*
X123771429Y-53314286D01*
X123171429Y-53114286D02*
X123171429Y-52742857D01*
X123400000Y-52942857D01*
X123400000Y-52857143D01*
X123428571Y-52800000D01*
X123457143Y-52771429D01*
X123514286Y-52742857D01*
X123657143Y-52742857D01*
X123714286Y-52771429D01*
X123742857Y-52800000D01*
X123771429Y-52857143D01*
X123771429Y-53028571D01*
X123742857Y-53085714D01*
X123714286Y-53114286D01*
X88871429Y-88685715D02*
X88585714Y-88885715D01*
X88871429Y-89028572D02*
X88271429Y-89028572D01*
X88271429Y-88800000D01*
X88300000Y-88742858D01*
X88328571Y-88714286D01*
X88385714Y-88685715D01*
X88471429Y-88685715D01*
X88528571Y-88714286D01*
X88557143Y-88742858D01*
X88585714Y-88800000D01*
X88585714Y-89028572D01*
X88328571Y-88457143D02*
X88300000Y-88428572D01*
X88271429Y-88371429D01*
X88271429Y-88228572D01*
X88300000Y-88171429D01*
X88328571Y-88142858D01*
X88385714Y-88114286D01*
X88442857Y-88114286D01*
X88528571Y-88142858D01*
X88871429Y-88485715D01*
X88871429Y-88114286D01*
X88471429Y-87600000D02*
X88871429Y-87600000D01*
X88242857Y-87742857D02*
X88671429Y-87885714D01*
X88671429Y-87514286D01*
X123771429Y-50885715D02*
X123485714Y-51085715D01*
X123771429Y-51228572D02*
X123171429Y-51228572D01*
X123171429Y-51000000D01*
X123200000Y-50942858D01*
X123228571Y-50914286D01*
X123285714Y-50885715D01*
X123371429Y-50885715D01*
X123428571Y-50914286D01*
X123457143Y-50942858D01*
X123485714Y-51000000D01*
X123485714Y-51228572D01*
X123228571Y-50657143D02*
X123200000Y-50628572D01*
X123171429Y-50571429D01*
X123171429Y-50428572D01*
X123200000Y-50371429D01*
X123228571Y-50342858D01*
X123285714Y-50314286D01*
X123342857Y-50314286D01*
X123428571Y-50342858D01*
X123771429Y-50685715D01*
X123771429Y-50314286D01*
X123171429Y-49771429D02*
X123171429Y-50057143D01*
X123457143Y-50085714D01*
X123428571Y-50057143D01*
X123400000Y-50000000D01*
X123400000Y-49857143D01*
X123428571Y-49800000D01*
X123457143Y-49771429D01*
X123514286Y-49742857D01*
X123657143Y-49742857D01*
X123714286Y-49771429D01*
X123742857Y-49800000D01*
X123771429Y-49857143D01*
X123771429Y-50000000D01*
X123742857Y-50057143D01*
X123714286Y-50085714D01*
X118271429Y-62885715D02*
X117985714Y-63085715D01*
X118271429Y-63228572D02*
X117671429Y-63228572D01*
X117671429Y-63000000D01*
X117700000Y-62942858D01*
X117728571Y-62914286D01*
X117785714Y-62885715D01*
X117871429Y-62885715D01*
X117928571Y-62914286D01*
X117957143Y-62942858D01*
X117985714Y-63000000D01*
X117985714Y-63228572D01*
X117728571Y-62657143D02*
X117700000Y-62628572D01*
X117671429Y-62571429D01*
X117671429Y-62428572D01*
X117700000Y-62371429D01*
X117728571Y-62342858D01*
X117785714Y-62314286D01*
X117842857Y-62314286D01*
X117928571Y-62342858D01*
X118271429Y-62685715D01*
X118271429Y-62314286D01*
X117671429Y-61800000D02*
X117671429Y-61914286D01*
X117700000Y-61971429D01*
X117728571Y-62000000D01*
X117814286Y-62057143D01*
X117928571Y-62085714D01*
X118157143Y-62085714D01*
X118214286Y-62057143D01*
X118242857Y-62028571D01*
X118271429Y-61971429D01*
X118271429Y-61857143D01*
X118242857Y-61800000D01*
X118214286Y-61771429D01*
X118157143Y-61742857D01*
X118014286Y-61742857D01*
X117957143Y-61771429D01*
X117928571Y-61800000D01*
X117900000Y-61857143D01*
X117900000Y-61971429D01*
X117928571Y-62028571D01*
X117957143Y-62057143D01*
X118014286Y-62085714D01*
X106771429Y-69385715D02*
X106485714Y-69585715D01*
X106771429Y-69728572D02*
X106171429Y-69728572D01*
X106171429Y-69500000D01*
X106200000Y-69442858D01*
X106228571Y-69414286D01*
X106285714Y-69385715D01*
X106371429Y-69385715D01*
X106428571Y-69414286D01*
X106457143Y-69442858D01*
X106485714Y-69500000D01*
X106485714Y-69728572D01*
X106228571Y-69157143D02*
X106200000Y-69128572D01*
X106171429Y-69071429D01*
X106171429Y-68928572D01*
X106200000Y-68871429D01*
X106228571Y-68842858D01*
X106285714Y-68814286D01*
X106342857Y-68814286D01*
X106428571Y-68842858D01*
X106771429Y-69185715D01*
X106771429Y-68814286D01*
X106171429Y-68614286D02*
X106171429Y-68214286D01*
X106771429Y-68471429D01*
X123671429Y-68985715D02*
X123385714Y-69185715D01*
X123671429Y-69328572D02*
X123071429Y-69328572D01*
X123071429Y-69100000D01*
X123100000Y-69042858D01*
X123128571Y-69014286D01*
X123185714Y-68985715D01*
X123271429Y-68985715D01*
X123328571Y-69014286D01*
X123357143Y-69042858D01*
X123385714Y-69100000D01*
X123385714Y-69328572D01*
X123128571Y-68757143D02*
X123100000Y-68728572D01*
X123071429Y-68671429D01*
X123071429Y-68528572D01*
X123100000Y-68471429D01*
X123128571Y-68442858D01*
X123185714Y-68414286D01*
X123242857Y-68414286D01*
X123328571Y-68442858D01*
X123671429Y-68785715D01*
X123671429Y-68414286D01*
X123671429Y-68128571D02*
X123671429Y-68014286D01*
X123642857Y-67957143D01*
X123614286Y-67928571D01*
X123528571Y-67871429D01*
X123414286Y-67842857D01*
X123185714Y-67842857D01*
X123128571Y-67871429D01*
X123100000Y-67900000D01*
X123071429Y-67957143D01*
X123071429Y-68071429D01*
X123100000Y-68128571D01*
X123128571Y-68157143D01*
X123185714Y-68185714D01*
X123328571Y-68185714D01*
X123385714Y-68157143D01*
X123414286Y-68128571D01*
X123442857Y-68071429D01*
X123442857Y-67957143D01*
X123414286Y-67900000D01*
X123385714Y-67871429D01*
X123328571Y-67842857D01*
X123771429Y-56885715D02*
X123485714Y-57085715D01*
X123771429Y-57228572D02*
X123171429Y-57228572D01*
X123171429Y-57000000D01*
X123200000Y-56942858D01*
X123228571Y-56914286D01*
X123285714Y-56885715D01*
X123371429Y-56885715D01*
X123428571Y-56914286D01*
X123457143Y-56942858D01*
X123485714Y-57000000D01*
X123485714Y-57228572D01*
X123171429Y-56685715D02*
X123171429Y-56314286D01*
X123400000Y-56514286D01*
X123400000Y-56428572D01*
X123428571Y-56371429D01*
X123457143Y-56342858D01*
X123514286Y-56314286D01*
X123657143Y-56314286D01*
X123714286Y-56342858D01*
X123742857Y-56371429D01*
X123771429Y-56428572D01*
X123771429Y-56600000D01*
X123742857Y-56657143D01*
X123714286Y-56685715D01*
X123171429Y-55942857D02*
X123171429Y-55885714D01*
X123200000Y-55828571D01*
X123228571Y-55800000D01*
X123285714Y-55771429D01*
X123400000Y-55742857D01*
X123542857Y-55742857D01*
X123657143Y-55771429D01*
X123714286Y-55800000D01*
X123742857Y-55828571D01*
X123771429Y-55885714D01*
X123771429Y-55942857D01*
X123742857Y-56000000D01*
X123714286Y-56028571D01*
X123657143Y-56057143D01*
X123542857Y-56085714D01*
X123400000Y-56085714D01*
X123285714Y-56057143D01*
X123228571Y-56028571D01*
X123200000Y-56000000D01*
X123171429Y-55942857D01*
X123671429Y-66285715D02*
X123385714Y-66485715D01*
X123671429Y-66628572D02*
X123071429Y-66628572D01*
X123071429Y-66400000D01*
X123100000Y-66342858D01*
X123128571Y-66314286D01*
X123185714Y-66285715D01*
X123271429Y-66285715D01*
X123328571Y-66314286D01*
X123357143Y-66342858D01*
X123385714Y-66400000D01*
X123385714Y-66628572D01*
X123071429Y-66085715D02*
X123071429Y-65714286D01*
X123300000Y-65914286D01*
X123300000Y-65828572D01*
X123328571Y-65771429D01*
X123357143Y-65742858D01*
X123414286Y-65714286D01*
X123557143Y-65714286D01*
X123614286Y-65742858D01*
X123642857Y-65771429D01*
X123671429Y-65828572D01*
X123671429Y-66000000D01*
X123642857Y-66057143D01*
X123614286Y-66085715D01*
X123671429Y-65142857D02*
X123671429Y-65485714D01*
X123671429Y-65314286D02*
X123071429Y-65314286D01*
X123157143Y-65371429D01*
X123214286Y-65428571D01*
X123242857Y-65485714D01*
X109114285Y-87571429D02*
X108914285Y-87285714D01*
X108771428Y-87571429D02*
X108771428Y-86971429D01*
X109000000Y-86971429D01*
X109057142Y-87000000D01*
X109085714Y-87028571D01*
X109114285Y-87085714D01*
X109114285Y-87171429D01*
X109085714Y-87228571D01*
X109057142Y-87257143D01*
X109000000Y-87285714D01*
X108771428Y-87285714D01*
X109314285Y-86971429D02*
X109685714Y-86971429D01*
X109485714Y-87200000D01*
X109571428Y-87200000D01*
X109628571Y-87228571D01*
X109657142Y-87257143D01*
X109685714Y-87314286D01*
X109685714Y-87457143D01*
X109657142Y-87514286D01*
X109628571Y-87542857D01*
X109571428Y-87571429D01*
X109400000Y-87571429D01*
X109342857Y-87542857D01*
X109314285Y-87514286D01*
X109885714Y-86971429D02*
X110257143Y-86971429D01*
X110057143Y-87200000D01*
X110142857Y-87200000D01*
X110200000Y-87228571D01*
X110228571Y-87257143D01*
X110257143Y-87314286D01*
X110257143Y-87457143D01*
X110228571Y-87514286D01*
X110200000Y-87542857D01*
X110142857Y-87571429D01*
X109971429Y-87571429D01*
X109914286Y-87542857D01*
X109885714Y-87514286D01*
X112371429Y-82885715D02*
X112085714Y-83085715D01*
X112371429Y-83228572D02*
X111771429Y-83228572D01*
X111771429Y-83000000D01*
X111800000Y-82942858D01*
X111828571Y-82914286D01*
X111885714Y-82885715D01*
X111971429Y-82885715D01*
X112028571Y-82914286D01*
X112057143Y-82942858D01*
X112085714Y-83000000D01*
X112085714Y-83228572D01*
X111771429Y-82685715D02*
X111771429Y-82314286D01*
X112000000Y-82514286D01*
X112000000Y-82428572D01*
X112028571Y-82371429D01*
X112057143Y-82342858D01*
X112114286Y-82314286D01*
X112257143Y-82314286D01*
X112314286Y-82342858D01*
X112342857Y-82371429D01*
X112371429Y-82428572D01*
X112371429Y-82600000D01*
X112342857Y-82657143D01*
X112314286Y-82685715D01*
X111971429Y-81800000D02*
X112371429Y-81800000D01*
X111742857Y-81942857D02*
X112171429Y-82085714D01*
X112171429Y-81714286D01*
X120114285Y-84621429D02*
X119914285Y-84335714D01*
X119771428Y-84621429D02*
X119771428Y-84021429D01*
X120000000Y-84021429D01*
X120057142Y-84050000D01*
X120085714Y-84078571D01*
X120114285Y-84135714D01*
X120114285Y-84221429D01*
X120085714Y-84278571D01*
X120057142Y-84307143D01*
X120000000Y-84335714D01*
X119771428Y-84335714D01*
X120314285Y-84021429D02*
X120685714Y-84021429D01*
X120485714Y-84250000D01*
X120571428Y-84250000D01*
X120628571Y-84278571D01*
X120657142Y-84307143D01*
X120685714Y-84364286D01*
X120685714Y-84507143D01*
X120657142Y-84564286D01*
X120628571Y-84592857D01*
X120571428Y-84621429D01*
X120400000Y-84621429D01*
X120342857Y-84592857D01*
X120314285Y-84564286D01*
X121228571Y-84021429D02*
X120942857Y-84021429D01*
X120914286Y-84307143D01*
X120942857Y-84278571D01*
X121000000Y-84250000D01*
X121142857Y-84250000D01*
X121200000Y-84278571D01*
X121228571Y-84307143D01*
X121257143Y-84364286D01*
X121257143Y-84507143D01*
X121228571Y-84564286D01*
X121200000Y-84592857D01*
X121142857Y-84621429D01*
X121000000Y-84621429D01*
X120942857Y-84592857D01*
X120914286Y-84564286D01*
X120114285Y-77921429D02*
X119914285Y-77635714D01*
X119771428Y-77921429D02*
X119771428Y-77321429D01*
X120000000Y-77321429D01*
X120057142Y-77350000D01*
X120085714Y-77378571D01*
X120114285Y-77435714D01*
X120114285Y-77521429D01*
X120085714Y-77578571D01*
X120057142Y-77607143D01*
X120000000Y-77635714D01*
X119771428Y-77635714D01*
X120314285Y-77321429D02*
X120685714Y-77321429D01*
X120485714Y-77550000D01*
X120571428Y-77550000D01*
X120628571Y-77578571D01*
X120657142Y-77607143D01*
X120685714Y-77664286D01*
X120685714Y-77807143D01*
X120657142Y-77864286D01*
X120628571Y-77892857D01*
X120571428Y-77921429D01*
X120400000Y-77921429D01*
X120342857Y-77892857D01*
X120314285Y-77864286D01*
X121200000Y-77321429D02*
X121085714Y-77321429D01*
X121028571Y-77350000D01*
X121000000Y-77378571D01*
X120942857Y-77464286D01*
X120914286Y-77578571D01*
X120914286Y-77807143D01*
X120942857Y-77864286D01*
X120971429Y-77892857D01*
X121028571Y-77921429D01*
X121142857Y-77921429D01*
X121200000Y-77892857D01*
X121228571Y-77864286D01*
X121257143Y-77807143D01*
X121257143Y-77664286D01*
X121228571Y-77607143D01*
X121200000Y-77578571D01*
X121142857Y-77550000D01*
X121028571Y-77550000D01*
X120971429Y-77578571D01*
X120942857Y-77607143D01*
X120914286Y-77664286D01*
X112371429Y-85885715D02*
X112085714Y-86085715D01*
X112371429Y-86228572D02*
X111771429Y-86228572D01*
X111771429Y-86000000D01*
X111800000Y-85942858D01*
X111828571Y-85914286D01*
X111885714Y-85885715D01*
X111971429Y-85885715D01*
X112028571Y-85914286D01*
X112057143Y-85942858D01*
X112085714Y-86000000D01*
X112085714Y-86228572D01*
X111771429Y-85685715D02*
X111771429Y-85314286D01*
X112000000Y-85514286D01*
X112000000Y-85428572D01*
X112028571Y-85371429D01*
X112057143Y-85342858D01*
X112114286Y-85314286D01*
X112257143Y-85314286D01*
X112314286Y-85342858D01*
X112342857Y-85371429D01*
X112371429Y-85428572D01*
X112371429Y-85600000D01*
X112342857Y-85657143D01*
X112314286Y-85685715D01*
X111771429Y-85114286D02*
X111771429Y-84714286D01*
X112371429Y-84971429D01*
X106814285Y-52571429D02*
X106614285Y-52285714D01*
X106471428Y-52571429D02*
X106471428Y-51971429D01*
X106700000Y-51971429D01*
X106757142Y-52000000D01*
X106785714Y-52028571D01*
X106814285Y-52085714D01*
X106814285Y-52171429D01*
X106785714Y-52228571D01*
X106757142Y-52257143D01*
X106700000Y-52285714D01*
X106471428Y-52285714D01*
X107014285Y-51971429D02*
X107385714Y-51971429D01*
X107185714Y-52200000D01*
X107271428Y-52200000D01*
X107328571Y-52228571D01*
X107357142Y-52257143D01*
X107385714Y-52314286D01*
X107385714Y-52457143D01*
X107357142Y-52514286D01*
X107328571Y-52542857D01*
X107271428Y-52571429D01*
X107100000Y-52571429D01*
X107042857Y-52542857D01*
X107014285Y-52514286D01*
X107728571Y-52228571D02*
X107671429Y-52200000D01*
X107642857Y-52171429D01*
X107614286Y-52114286D01*
X107614286Y-52085714D01*
X107642857Y-52028571D01*
X107671429Y-52000000D01*
X107728571Y-51971429D01*
X107842857Y-51971429D01*
X107900000Y-52000000D01*
X107928571Y-52028571D01*
X107957143Y-52085714D01*
X107957143Y-52114286D01*
X107928571Y-52171429D01*
X107900000Y-52200000D01*
X107842857Y-52228571D01*
X107728571Y-52228571D01*
X107671429Y-52257143D01*
X107642857Y-52285714D01*
X107614286Y-52342857D01*
X107614286Y-52457143D01*
X107642857Y-52514286D01*
X107671429Y-52542857D01*
X107728571Y-52571429D01*
X107842857Y-52571429D01*
X107900000Y-52542857D01*
X107928571Y-52514286D01*
X107957143Y-52457143D01*
X107957143Y-52342857D01*
X107928571Y-52285714D01*
X107900000Y-52257143D01*
X107842857Y-52228571D01*
X95914285Y-73471429D02*
X95714285Y-73185714D01*
X95571428Y-73471429D02*
X95571428Y-72871429D01*
X95800000Y-72871429D01*
X95857142Y-72900000D01*
X95885714Y-72928571D01*
X95914285Y-72985714D01*
X95914285Y-73071429D01*
X95885714Y-73128571D01*
X95857142Y-73157143D01*
X95800000Y-73185714D01*
X95571428Y-73185714D01*
X96114285Y-72871429D02*
X96485714Y-72871429D01*
X96285714Y-73100000D01*
X96371428Y-73100000D01*
X96428571Y-73128571D01*
X96457142Y-73157143D01*
X96485714Y-73214286D01*
X96485714Y-73357143D01*
X96457142Y-73414286D01*
X96428571Y-73442857D01*
X96371428Y-73471429D01*
X96200000Y-73471429D01*
X96142857Y-73442857D01*
X96114285Y-73414286D01*
X96771429Y-73471429D02*
X96885714Y-73471429D01*
X96942857Y-73442857D01*
X96971429Y-73414286D01*
X97028571Y-73328571D01*
X97057143Y-73214286D01*
X97057143Y-72985714D01*
X97028571Y-72928571D01*
X97000000Y-72900000D01*
X96942857Y-72871429D01*
X96828571Y-72871429D01*
X96771429Y-72900000D01*
X96742857Y-72928571D01*
X96714286Y-72985714D01*
X96714286Y-73128571D01*
X96742857Y-73185714D01*
X96771429Y-73214286D01*
X96828571Y-73242857D01*
X96942857Y-73242857D01*
X97000000Y-73214286D01*
X97028571Y-73185714D01*
X97057143Y-73128571D01*
X106714285Y-55771429D02*
X106514285Y-55485714D01*
X106371428Y-55771429D02*
X106371428Y-55171429D01*
X106600000Y-55171429D01*
X106657142Y-55200000D01*
X106685714Y-55228571D01*
X106714285Y-55285714D01*
X106714285Y-55371429D01*
X106685714Y-55428571D01*
X106657142Y-55457143D01*
X106600000Y-55485714D01*
X106371428Y-55485714D01*
X107228571Y-55371429D02*
X107228571Y-55771429D01*
X107085714Y-55142857D02*
X106942857Y-55571429D01*
X107314285Y-55571429D01*
X107657143Y-55171429D02*
X107714286Y-55171429D01*
X107771429Y-55200000D01*
X107800000Y-55228571D01*
X107828571Y-55285714D01*
X107857143Y-55400000D01*
X107857143Y-55542857D01*
X107828571Y-55657143D01*
X107800000Y-55714286D01*
X107771429Y-55742857D01*
X107714286Y-55771429D01*
X107657143Y-55771429D01*
X107600000Y-55742857D01*
X107571429Y-55714286D01*
X107542857Y-55657143D01*
X107514286Y-55542857D01*
X107514286Y-55400000D01*
X107542857Y-55285714D01*
X107571429Y-55228571D01*
X107600000Y-55200000D01*
X107657143Y-55171429D01*
X100514285Y-73121429D02*
X100314285Y-72835714D01*
X100171428Y-73121429D02*
X100171428Y-72521429D01*
X100400000Y-72521429D01*
X100457142Y-72550000D01*
X100485714Y-72578571D01*
X100514285Y-72635714D01*
X100514285Y-72721429D01*
X100485714Y-72778571D01*
X100457142Y-72807143D01*
X100400000Y-72835714D01*
X100171428Y-72835714D01*
X101028571Y-72721429D02*
X101028571Y-73121429D01*
X100885714Y-72492857D02*
X100742857Y-72921429D01*
X101114285Y-72921429D01*
X101657143Y-73121429D02*
X101314286Y-73121429D01*
X101485714Y-73121429D02*
X101485714Y-72521429D01*
X101428571Y-72607143D01*
X101371429Y-72664286D01*
X101314286Y-72692857D01*
X110071429Y-81271429D02*
X109785714Y-81471429D01*
X110071429Y-81614286D02*
X109471429Y-81614286D01*
X109471429Y-81385714D01*
X109500000Y-81328572D01*
X109528571Y-81300000D01*
X109585714Y-81271429D01*
X109671429Y-81271429D01*
X109728571Y-81300000D01*
X109757143Y-81328572D01*
X109785714Y-81385714D01*
X109785714Y-81614286D01*
X109757143Y-81014286D02*
X109757143Y-80814286D01*
X110071429Y-80728572D02*
X110071429Y-81014286D01*
X109471429Y-81014286D01*
X109471429Y-80728572D01*
X110042857Y-80500000D02*
X110071429Y-80414286D01*
X110071429Y-80271429D01*
X110042857Y-80214286D01*
X110014286Y-80185715D01*
X109957143Y-80157143D01*
X109900000Y-80157143D01*
X109842857Y-80185715D01*
X109814286Y-80214286D01*
X109785714Y-80271429D01*
X109757143Y-80385715D01*
X109728571Y-80442857D01*
X109700000Y-80471429D01*
X109642857Y-80500000D01*
X109585714Y-80500000D01*
X109528571Y-80471429D01*
X109500000Y-80442857D01*
X109471429Y-80385715D01*
X109471429Y-80242857D01*
X109500000Y-80157143D01*
X109757143Y-79900000D02*
X109757143Y-79700000D01*
X110071429Y-79614286D02*
X110071429Y-79900000D01*
X109471429Y-79900000D01*
X109471429Y-79614286D01*
X109471429Y-79442857D02*
X109471429Y-79100000D01*
X110071429Y-79271429D02*
X109471429Y-79271429D01*
X84514286Y-80871429D02*
X84542857Y-80900000D01*
X84571429Y-80985714D01*
X84571429Y-81042857D01*
X84542857Y-81128572D01*
X84485714Y-81185714D01*
X84428571Y-81214286D01*
X84314286Y-81242857D01*
X84228571Y-81242857D01*
X84114286Y-81214286D01*
X84057143Y-81185714D01*
X84000000Y-81128572D01*
X83971429Y-81042857D01*
X83971429Y-80985714D01*
X84000000Y-80900000D01*
X84028571Y-80871429D01*
X84257143Y-80414286D02*
X84257143Y-80614286D01*
X84571429Y-80614286D02*
X83971429Y-80614286D01*
X83971429Y-80328572D01*
X84000000Y-79785714D02*
X83971429Y-79842857D01*
X83971429Y-79928571D01*
X84000000Y-80014286D01*
X84057143Y-80071428D01*
X84114286Y-80100000D01*
X84228571Y-80128571D01*
X84314286Y-80128571D01*
X84428571Y-80100000D01*
X84485714Y-80071428D01*
X84542857Y-80014286D01*
X84571429Y-79928571D01*
X84571429Y-79871428D01*
X84542857Y-79785714D01*
X84514286Y-79757143D01*
X84314286Y-79757143D01*
X84314286Y-79871428D01*
X109214286Y-93728571D02*
X109242857Y-93757142D01*
X109271429Y-93842856D01*
X109271429Y-93899999D01*
X109242857Y-93985714D01*
X109185714Y-94042856D01*
X109128571Y-94071428D01*
X109014286Y-94099999D01*
X108928571Y-94099999D01*
X108814286Y-94071428D01*
X108757143Y-94042856D01*
X108700000Y-93985714D01*
X108671429Y-93899999D01*
X108671429Y-93842856D01*
X108700000Y-93757142D01*
X108728571Y-93728571D01*
X108671429Y-93357142D02*
X108671429Y-93242856D01*
X108700000Y-93185714D01*
X108757143Y-93128571D01*
X108871429Y-93099999D01*
X109071429Y-93099999D01*
X109185714Y-93128571D01*
X109242857Y-93185714D01*
X109271429Y-93242856D01*
X109271429Y-93357142D01*
X109242857Y-93414285D01*
X109185714Y-93471428D01*
X109071429Y-93499999D01*
X108871429Y-93499999D01*
X108757143Y-93471428D01*
X108700000Y-93414285D01*
X108671429Y-93357142D01*
X109271429Y-92842857D02*
X108671429Y-92842857D01*
X109271429Y-92500000D01*
X108671429Y-92500000D01*
X108871429Y-91957143D02*
X109271429Y-91957143D01*
X108642857Y-92100000D02*
X109071429Y-92242857D01*
X109071429Y-91871429D01*
X84657143Y-54457143D02*
X84857143Y-54457143D01*
X84942857Y-54771429D02*
X84657143Y-54771429D01*
X84657143Y-54171429D01*
X84942857Y-54171429D01*
X85171429Y-54742857D02*
X85257143Y-54771429D01*
X85400000Y-54771429D01*
X85457143Y-54742857D01*
X85485714Y-54714286D01*
X85514286Y-54657143D01*
X85514286Y-54600000D01*
X85485714Y-54542857D01*
X85457143Y-54514286D01*
X85400000Y-54485714D01*
X85285714Y-54457143D01*
X85228572Y-54428571D01*
X85200000Y-54400000D01*
X85171429Y-54342857D01*
X85171429Y-54285714D01*
X85200000Y-54228571D01*
X85228572Y-54200000D01*
X85285714Y-54171429D01*
X85428572Y-54171429D01*
X85514286Y-54200000D01*
X85771429Y-54771429D02*
X85771429Y-54171429D01*
X86000001Y-54171429D01*
X86057143Y-54200000D01*
X86085715Y-54228571D01*
X86114286Y-54285714D01*
X86114286Y-54371429D01*
X86085715Y-54428571D01*
X86057143Y-54457143D01*
X86000001Y-54485714D01*
X85771429Y-54485714D01*
X86228572Y-54828571D02*
X86685715Y-54828571D01*
X86828572Y-54771429D02*
X86828572Y-54171429D01*
X87057144Y-54171429D01*
X87114286Y-54200000D01*
X87142858Y-54228571D01*
X87171429Y-54285714D01*
X87171429Y-54371429D01*
X87142858Y-54428571D01*
X87114286Y-54457143D01*
X87057144Y-54485714D01*
X86828572Y-54485714D01*
X87428572Y-54771429D02*
X87428572Y-54171429D01*
X87571429Y-54171429D01*
X87657144Y-54200000D01*
X87714286Y-54257143D01*
X87742858Y-54314286D01*
X87771429Y-54428571D01*
X87771429Y-54514286D01*
X87742858Y-54628571D01*
X87714286Y-54685714D01*
X87657144Y-54742857D01*
X87571429Y-54771429D01*
X87428572Y-54771429D01*
X81542858Y-96900000D02*
X81485715Y-96871429D01*
X81400001Y-96871429D01*
X81314286Y-96900000D01*
X81257144Y-96957143D01*
X81228572Y-97014286D01*
X81200001Y-97128571D01*
X81200001Y-97214286D01*
X81228572Y-97328571D01*
X81257144Y-97385714D01*
X81314286Y-97442857D01*
X81400001Y-97471429D01*
X81457144Y-97471429D01*
X81542858Y-97442857D01*
X81571429Y-97414286D01*
X81571429Y-97214286D01*
X81457144Y-97214286D01*
X81828572Y-97471429D02*
X81828572Y-96871429D01*
X82171429Y-97471429D01*
X82171429Y-96871429D01*
X82457143Y-97471429D02*
X82457143Y-96871429D01*
X82600000Y-96871429D01*
X82685715Y-96900000D01*
X82742857Y-96957143D01*
X82771429Y-97014286D01*
X82800000Y-97128571D01*
X82800000Y-97214286D01*
X82771429Y-97328571D01*
X82742857Y-97385714D01*
X82685715Y-97442857D01*
X82600000Y-97471429D01*
X82457143Y-97471429D01*
X93742857Y-87071429D02*
X94085714Y-87071429D01*
X93914285Y-87671429D02*
X93914285Y-87071429D01*
X94285714Y-87671429D02*
X94285714Y-87071429D01*
X94514286Y-87071429D01*
X94571428Y-87100000D01*
X94600000Y-87128571D01*
X94628571Y-87185714D01*
X94628571Y-87271429D01*
X94600000Y-87328571D01*
X94571428Y-87357143D01*
X94514286Y-87385714D01*
X94285714Y-87385714D01*
X94828571Y-87071429D02*
X95200000Y-87071429D01*
X95000000Y-87300000D01*
X95085714Y-87300000D01*
X95142857Y-87328571D01*
X95171428Y-87357143D01*
X95200000Y-87414286D01*
X95200000Y-87557143D01*
X95171428Y-87614286D01*
X95142857Y-87642857D01*
X95085714Y-87671429D01*
X94914286Y-87671429D01*
X94857143Y-87642857D01*
X94828571Y-87614286D01*
X109732857Y-42971429D02*
X110075714Y-42971429D01*
X109904285Y-43571429D02*
X109904285Y-42971429D01*
X110275714Y-43571429D02*
X110275714Y-42971429D01*
X110504286Y-42971429D01*
X110561428Y-43000000D01*
X110590000Y-43028571D01*
X110618571Y-43085714D01*
X110618571Y-43171429D01*
X110590000Y-43228571D01*
X110561428Y-43257143D01*
X110504286Y-43285714D01*
X110275714Y-43285714D01*
X111132857Y-43171429D02*
X111132857Y-43571429D01*
X110990000Y-42942857D02*
X110847143Y-43371429D01*
X111218571Y-43371429D01*
X112272857Y-42971429D02*
X112615714Y-42971429D01*
X112444285Y-43571429D02*
X112444285Y-42971429D01*
X112815714Y-43571429D02*
X112815714Y-42971429D01*
X113044286Y-42971429D01*
X113101428Y-43000000D01*
X113130000Y-43028571D01*
X113158571Y-43085714D01*
X113158571Y-43171429D01*
X113130000Y-43228571D01*
X113101428Y-43257143D01*
X113044286Y-43285714D01*
X112815714Y-43285714D01*
X113701428Y-42971429D02*
X113415714Y-42971429D01*
X113387143Y-43257143D01*
X113415714Y-43228571D01*
X113472857Y-43200000D01*
X113615714Y-43200000D01*
X113672857Y-43228571D01*
X113701428Y-43257143D01*
X113730000Y-43314286D01*
X113730000Y-43457143D01*
X113701428Y-43514286D01*
X113672857Y-43542857D01*
X113615714Y-43571429D01*
X113472857Y-43571429D01*
X113415714Y-43542857D01*
X113387143Y-43514286D01*
X93242857Y-76771429D02*
X93585714Y-76771429D01*
X93414285Y-77371429D02*
X93414285Y-76771429D01*
X93785714Y-77371429D02*
X93785714Y-76771429D01*
X94014286Y-76771429D01*
X94071428Y-76800000D01*
X94100000Y-76828571D01*
X94128571Y-76885714D01*
X94128571Y-76971429D01*
X94100000Y-77028571D01*
X94071428Y-77057143D01*
X94014286Y-77085714D01*
X93785714Y-77085714D01*
X94642857Y-76771429D02*
X94528571Y-76771429D01*
X94471428Y-76800000D01*
X94442857Y-76828571D01*
X94385714Y-76914286D01*
X94357143Y-77028571D01*
X94357143Y-77257143D01*
X94385714Y-77314286D01*
X94414286Y-77342857D01*
X94471428Y-77371429D01*
X94585714Y-77371429D01*
X94642857Y-77342857D01*
X94671428Y-77314286D01*
X94700000Y-77257143D01*
X94700000Y-77114286D01*
X94671428Y-77057143D01*
X94642857Y-77028571D01*
X94585714Y-77000000D01*
X94471428Y-77000000D01*
X94414286Y-77028571D01*
X94385714Y-77057143D01*
X94357143Y-77114286D01*
X82842857Y-83971429D02*
X83185714Y-83971429D01*
X83014285Y-84571429D02*
X83014285Y-83971429D01*
X83385714Y-84571429D02*
X83385714Y-83971429D01*
X83614286Y-83971429D01*
X83671428Y-84000000D01*
X83700000Y-84028571D01*
X83728571Y-84085714D01*
X83728571Y-84171429D01*
X83700000Y-84228571D01*
X83671428Y-84257143D01*
X83614286Y-84285714D01*
X83385714Y-84285714D01*
X83928571Y-83971429D02*
X84328571Y-83971429D01*
X84071428Y-84571429D01*
X66728571Y-71842857D02*
X67185714Y-71842857D01*
X66957143Y-72071429D02*
X66957143Y-71614286D01*
X67757142Y-71471429D02*
X67471428Y-71471429D01*
X67442857Y-71757143D01*
X67471428Y-71728571D01*
X67528571Y-71700000D01*
X67671428Y-71700000D01*
X67728571Y-71728571D01*
X67757142Y-71757143D01*
X67785714Y-71814286D01*
X67785714Y-71957143D01*
X67757142Y-72014286D01*
X67728571Y-72042857D01*
X67671428Y-72071429D01*
X67528571Y-72071429D01*
X67471428Y-72042857D01*
X67442857Y-72014286D01*
X67957143Y-71471429D02*
X68157143Y-72071429D01*
X68357143Y-71471429D01*
X75442857Y-74442857D02*
X75900000Y-74442857D01*
X75671429Y-74671429D02*
X75671429Y-74214286D01*
X76500000Y-74671429D02*
X76157143Y-74671429D01*
X76328571Y-74671429D02*
X76328571Y-74071429D01*
X76271428Y-74157143D01*
X76214286Y-74214286D01*
X76157143Y-74242857D01*
X76728572Y-74128571D02*
X76757143Y-74100000D01*
X76814286Y-74071429D01*
X76957143Y-74071429D01*
X77014286Y-74100000D01*
X77042857Y-74128571D01*
X77071429Y-74185714D01*
X77071429Y-74242857D01*
X77042857Y-74328571D01*
X76700000Y-74671429D01*
X77071429Y-74671429D01*
X77242858Y-74071429D02*
X77442858Y-74671429D01*
X77642858Y-74071429D01*
X99957143Y-86971429D02*
X100300000Y-86971429D01*
X100128571Y-87571429D02*
X100128571Y-86971429D01*
X100500000Y-87571429D02*
X100500000Y-86971429D01*
X100728572Y-86971429D01*
X100785714Y-87000000D01*
X100814286Y-87028571D01*
X100842857Y-87085714D01*
X100842857Y-87171429D01*
X100814286Y-87228571D01*
X100785714Y-87257143D01*
X100728572Y-87285714D01*
X100500000Y-87285714D01*
X101414286Y-87571429D02*
X101071429Y-87571429D01*
X101242857Y-87571429D02*
X101242857Y-86971429D01*
X101185714Y-87057143D01*
X101128572Y-87114286D01*
X101071429Y-87142857D01*
X101785715Y-86971429D02*
X101842858Y-86971429D01*
X101900001Y-87000000D01*
X101928572Y-87028571D01*
X101957143Y-87085714D01*
X101985715Y-87200000D01*
X101985715Y-87342857D01*
X101957143Y-87457143D01*
X101928572Y-87514286D01*
X101900001Y-87542857D01*
X101842858Y-87571429D01*
X101785715Y-87571429D01*
X101728572Y-87542857D01*
X101700001Y-87514286D01*
X101671429Y-87457143D01*
X101642858Y-87342857D01*
X101642858Y-87200000D01*
X101671429Y-87085714D01*
X101700001Y-87028571D01*
X101728572Y-87000000D01*
X101785715Y-86971429D01*
X98957143Y-76771429D02*
X99300000Y-76771429D01*
X99128571Y-77371429D02*
X99128571Y-76771429D01*
X99500000Y-77371429D02*
X99500000Y-76771429D01*
X99728572Y-76771429D01*
X99785714Y-76800000D01*
X99814286Y-76828571D01*
X99842857Y-76885714D01*
X99842857Y-76971429D01*
X99814286Y-77028571D01*
X99785714Y-77057143D01*
X99728572Y-77085714D01*
X99500000Y-77085714D01*
X100414286Y-77371429D02*
X100071429Y-77371429D01*
X100242857Y-77371429D02*
X100242857Y-76771429D01*
X100185714Y-76857143D01*
X100128572Y-76914286D01*
X100071429Y-76942857D01*
X100985715Y-77371429D02*
X100642858Y-77371429D01*
X100814286Y-77371429D02*
X100814286Y-76771429D01*
X100757143Y-76857143D01*
X100700001Y-76914286D01*
X100642858Y-76942857D01*
X89957143Y-86971429D02*
X90300000Y-86971429D01*
X90128571Y-87571429D02*
X90128571Y-86971429D01*
X90500000Y-87571429D02*
X90500000Y-86971429D01*
X90728572Y-86971429D01*
X90785714Y-87000000D01*
X90814286Y-87028571D01*
X90842857Y-87085714D01*
X90842857Y-87171429D01*
X90814286Y-87228571D01*
X90785714Y-87257143D01*
X90728572Y-87285714D01*
X90500000Y-87285714D01*
X91414286Y-87571429D02*
X91071429Y-87571429D01*
X91242857Y-87571429D02*
X91242857Y-86971429D01*
X91185714Y-87057143D01*
X91128572Y-87114286D01*
X91071429Y-87142857D01*
X91642858Y-87028571D02*
X91671429Y-87000000D01*
X91728572Y-86971429D01*
X91871429Y-86971429D01*
X91928572Y-87000000D01*
X91957143Y-87028571D01*
X91985715Y-87085714D01*
X91985715Y-87142857D01*
X91957143Y-87228571D01*
X91614286Y-87571429D01*
X91985715Y-87571429D01*
X74842857Y-69542857D02*
X75300000Y-69542857D01*
X75071429Y-69771429D02*
X75071429Y-69314286D01*
X75528571Y-69171429D02*
X75900000Y-69171429D01*
X75700000Y-69400000D01*
X75785714Y-69400000D01*
X75842857Y-69428571D01*
X75871428Y-69457143D01*
X75900000Y-69514286D01*
X75900000Y-69657143D01*
X75871428Y-69714286D01*
X75842857Y-69742857D01*
X75785714Y-69771429D01*
X75614286Y-69771429D01*
X75557143Y-69742857D01*
X75528571Y-69714286D01*
X76071429Y-69171429D02*
X76271429Y-69771429D01*
X76471429Y-69171429D01*
X76614286Y-69171429D02*
X76985715Y-69171429D01*
X76785715Y-69400000D01*
X76871429Y-69400000D01*
X76928572Y-69428571D01*
X76957143Y-69457143D01*
X76985715Y-69514286D01*
X76985715Y-69657143D01*
X76957143Y-69714286D01*
X76928572Y-69742857D01*
X76871429Y-69771429D01*
X76700001Y-69771429D01*
X76642858Y-69742857D01*
X76614286Y-69714286D01*
X125542858Y-93900000D02*
X125485715Y-93871429D01*
X125400001Y-93871429D01*
X125314286Y-93900000D01*
X125257144Y-93957143D01*
X125228572Y-94014286D01*
X125200001Y-94128571D01*
X125200001Y-94214286D01*
X125228572Y-94328571D01*
X125257144Y-94385714D01*
X125314286Y-94442857D01*
X125400001Y-94471429D01*
X125457144Y-94471429D01*
X125542858Y-94442857D01*
X125571429Y-94414286D01*
X125571429Y-94214286D01*
X125457144Y-94214286D01*
X125828572Y-94471429D02*
X125828572Y-93871429D01*
X126171429Y-94471429D01*
X126171429Y-93871429D01*
X126457143Y-94471429D02*
X126457143Y-93871429D01*
X126600000Y-93871429D01*
X126685715Y-93900000D01*
X126742857Y-93957143D01*
X126771429Y-94014286D01*
X126800000Y-94128571D01*
X126800000Y-94214286D01*
X126771429Y-94328571D01*
X126742857Y-94385714D01*
X126685715Y-94442857D01*
X126600000Y-94471429D01*
X126457143Y-94471429D01*
X119971429Y-47314286D02*
X119942858Y-47342857D01*
X119857144Y-47371429D01*
X119800001Y-47371429D01*
X119714286Y-47342857D01*
X119657144Y-47285714D01*
X119628572Y-47228571D01*
X119600001Y-47114286D01*
X119600001Y-47028571D01*
X119628572Y-46914286D01*
X119657144Y-46857143D01*
X119714286Y-46800000D01*
X119800001Y-46771429D01*
X119857144Y-46771429D01*
X119942858Y-46800000D01*
X119971429Y-46828571D01*
X120342858Y-46771429D02*
X120457144Y-46771429D01*
X120514286Y-46800000D01*
X120571429Y-46857143D01*
X120600001Y-46971429D01*
X120600001Y-47171429D01*
X120571429Y-47285714D01*
X120514286Y-47342857D01*
X120457144Y-47371429D01*
X120342858Y-47371429D01*
X120285715Y-47342857D01*
X120228572Y-47285714D01*
X120200001Y-47171429D01*
X120200001Y-46971429D01*
X120228572Y-46857143D01*
X120285715Y-46800000D01*
X120342858Y-46771429D01*
X120857143Y-47371429D02*
X120857143Y-46771429D01*
X121200000Y-47371429D01*
X121200000Y-46771429D01*
X121457143Y-46828571D02*
X121485714Y-46800000D01*
X121542857Y-46771429D01*
X121685714Y-46771429D01*
X121742857Y-46800000D01*
X121771428Y-46828571D01*
X121800000Y-46885714D01*
X121800000Y-46942857D01*
X121771428Y-47028571D01*
X121428571Y-47371429D01*
X121800000Y-47371429D01*
X76871429Y-78542857D02*
X76271429Y-78542857D01*
X76271429Y-78400000D01*
X76300000Y-78314285D01*
X76357143Y-78257143D01*
X76414286Y-78228571D01*
X76528571Y-78200000D01*
X76614286Y-78200000D01*
X76728571Y-78228571D01*
X76785714Y-78257143D01*
X76842857Y-78314285D01*
X76871429Y-78400000D01*
X76871429Y-78542857D01*
X76471429Y-77685714D02*
X76871429Y-77685714D01*
X76242857Y-77828571D02*
X76671429Y-77971428D01*
X76671429Y-77600000D01*
X76821429Y-68392857D02*
X76221429Y-68392857D01*
X76221429Y-68250000D01*
X76250000Y-68164285D01*
X76307143Y-68107143D01*
X76364286Y-68078571D01*
X76478571Y-68050000D01*
X76564286Y-68050000D01*
X76678571Y-68078571D01*
X76735714Y-68107143D01*
X76792857Y-68164285D01*
X76821429Y-68250000D01*
X76821429Y-68392857D01*
X76221429Y-67850000D02*
X76221429Y-67478571D01*
X76450000Y-67678571D01*
X76450000Y-67592857D01*
X76478571Y-67535714D01*
X76507143Y-67507143D01*
X76564286Y-67478571D01*
X76707143Y-67478571D01*
X76764286Y-67507143D01*
X76792857Y-67535714D01*
X76821429Y-67592857D01*
X76821429Y-67764285D01*
X76792857Y-67821428D01*
X76764286Y-67850000D01*
X76921429Y-59392857D02*
X76321429Y-59392857D01*
X76321429Y-59250000D01*
X76350000Y-59164285D01*
X76407143Y-59107143D01*
X76464286Y-59078571D01*
X76578571Y-59050000D01*
X76664286Y-59050000D01*
X76778571Y-59078571D01*
X76835714Y-59107143D01*
X76892857Y-59164285D01*
X76921429Y-59250000D01*
X76921429Y-59392857D01*
X76378571Y-58821428D02*
X76350000Y-58792857D01*
X76321429Y-58735714D01*
X76321429Y-58592857D01*
X76350000Y-58535714D01*
X76378571Y-58507143D01*
X76435714Y-58478571D01*
X76492857Y-58478571D01*
X76578571Y-58507143D01*
X76921429Y-58850000D01*
X76921429Y-58478571D01*
X79557143Y-46871429D02*
X79557143Y-46271429D01*
X79700000Y-46271429D01*
X79785715Y-46300000D01*
X79842857Y-46357143D01*
X79871429Y-46414286D01*
X79900000Y-46528571D01*
X79900000Y-46614286D01*
X79871429Y-46728571D01*
X79842857Y-46785714D01*
X79785715Y-46842857D01*
X79700000Y-46871429D01*
X79557143Y-46871429D01*
X80471429Y-46871429D02*
X80128572Y-46871429D01*
X80300000Y-46871429D02*
X80300000Y-46271429D01*
X80242857Y-46357143D01*
X80185715Y-46414286D01*
X80128572Y-46442857D01*
X76821429Y-87892857D02*
X76221429Y-87892857D01*
X76221429Y-87750000D01*
X76250000Y-87664285D01*
X76307143Y-87607143D01*
X76364286Y-87578571D01*
X76478571Y-87550000D01*
X76564286Y-87550000D01*
X76678571Y-87578571D01*
X76735714Y-87607143D01*
X76792857Y-87664285D01*
X76821429Y-87750000D01*
X76821429Y-87892857D01*
X76221429Y-87007143D02*
X76221429Y-87292857D01*
X76507143Y-87321428D01*
X76478571Y-87292857D01*
X76450000Y-87235714D01*
X76450000Y-87092857D01*
X76478571Y-87035714D01*
X76507143Y-87007143D01*
X76564286Y-86978571D01*
X76707143Y-86978571D01*
X76764286Y-87007143D01*
X76792857Y-87035714D01*
X76821429Y-87092857D01*
X76821429Y-87235714D01*
X76792857Y-87292857D01*
X76764286Y-87321428D01*
X111821429Y-49242857D02*
X111221429Y-49242857D01*
X111221429Y-49100000D01*
X111250000Y-49014285D01*
X111307143Y-48957143D01*
X111364286Y-48928571D01*
X111478571Y-48900000D01*
X111564286Y-48900000D01*
X111678571Y-48928571D01*
X111735714Y-48957143D01*
X111792857Y-49014285D01*
X111821429Y-49100000D01*
X111821429Y-49242857D01*
X111221429Y-48385714D02*
X111221429Y-48500000D01*
X111250000Y-48557143D01*
X111278571Y-48585714D01*
X111364286Y-48642857D01*
X111478571Y-48671428D01*
X111707143Y-48671428D01*
X111764286Y-48642857D01*
X111792857Y-48614285D01*
X111821429Y-48557143D01*
X111821429Y-48442857D01*
X111792857Y-48385714D01*
X111764286Y-48357143D01*
X111707143Y-48328571D01*
X111564286Y-48328571D01*
X111507143Y-48357143D01*
X111478571Y-48385714D01*
X111450000Y-48442857D01*
X111450000Y-48557143D01*
X111478571Y-48614285D01*
X111507143Y-48642857D01*
X111564286Y-48671428D01*
X114557143Y-56871429D02*
X114557143Y-56271429D01*
X114700000Y-56271429D01*
X114785715Y-56300000D01*
X114842857Y-56357143D01*
X114871429Y-56414286D01*
X114900000Y-56528571D01*
X114900000Y-56614286D01*
X114871429Y-56728571D01*
X114842857Y-56785714D01*
X114785715Y-56842857D01*
X114700000Y-56871429D01*
X114557143Y-56871429D01*
X115100000Y-56271429D02*
X115500000Y-56271429D01*
X115242857Y-56871429D01*
X114557143Y-66871429D02*
X114557143Y-66271429D01*
X114700000Y-66271429D01*
X114785715Y-66300000D01*
X114842857Y-66357143D01*
X114871429Y-66414286D01*
X114900000Y-66528571D01*
X114900000Y-66614286D01*
X114871429Y-66728571D01*
X114842857Y-66785714D01*
X114785715Y-66842857D01*
X114700000Y-66871429D01*
X114557143Y-66871429D01*
X115242857Y-66528571D02*
X115185715Y-66500000D01*
X115157143Y-66471429D01*
X115128572Y-66414286D01*
X115128572Y-66385714D01*
X115157143Y-66328571D01*
X115185715Y-66300000D01*
X115242857Y-66271429D01*
X115357143Y-66271429D01*
X115414286Y-66300000D01*
X115442857Y-66328571D01*
X115471429Y-66385714D01*
X115471429Y-66414286D01*
X115442857Y-66471429D01*
X115414286Y-66500000D01*
X115357143Y-66528571D01*
X115242857Y-66528571D01*
X115185715Y-66557143D01*
X115157143Y-66585714D01*
X115128572Y-66642857D01*
X115128572Y-66757143D01*
X115157143Y-66814286D01*
X115185715Y-66842857D01*
X115242857Y-66871429D01*
X115357143Y-66871429D01*
X115414286Y-66842857D01*
X115442857Y-66814286D01*
X115471429Y-66757143D01*
X115471429Y-66642857D01*
X115442857Y-66585714D01*
X115414286Y-66557143D01*
X115357143Y-66528571D01*
X111871429Y-79342857D02*
X111271429Y-79342857D01*
X111271429Y-79200000D01*
X111300000Y-79114285D01*
X111357143Y-79057143D01*
X111414286Y-79028571D01*
X111528571Y-79000000D01*
X111614286Y-79000000D01*
X111728571Y-79028571D01*
X111785714Y-79057143D01*
X111842857Y-79114285D01*
X111871429Y-79200000D01*
X111871429Y-79342857D01*
X111871429Y-78714285D02*
X111871429Y-78600000D01*
X111842857Y-78542857D01*
X111814286Y-78514285D01*
X111728571Y-78457143D01*
X111614286Y-78428571D01*
X111385714Y-78428571D01*
X111328571Y-78457143D01*
X111300000Y-78485714D01*
X111271429Y-78542857D01*
X111271429Y-78657143D01*
X111300000Y-78714285D01*
X111328571Y-78742857D01*
X111385714Y-78771428D01*
X111528571Y-78771428D01*
X111585714Y-78742857D01*
X111614286Y-78714285D01*
X111642857Y-78657143D01*
X111642857Y-78542857D01*
X111614286Y-78485714D01*
X111585714Y-78457143D01*
X111528571Y-78428571D01*
X118571429Y-89678572D02*
X117971429Y-89678572D01*
X117971429Y-89535715D01*
X118000000Y-89450000D01*
X118057143Y-89392858D01*
X118114286Y-89364286D01*
X118228571Y-89335715D01*
X118314286Y-89335715D01*
X118428571Y-89364286D01*
X118485714Y-89392858D01*
X118542857Y-89450000D01*
X118571429Y-89535715D01*
X118571429Y-89678572D01*
X118571429Y-88764286D02*
X118571429Y-89107143D01*
X118571429Y-88935715D02*
X117971429Y-88935715D01*
X118057143Y-88992858D01*
X118114286Y-89050000D01*
X118142857Y-89107143D01*
X117971429Y-88392857D02*
X117971429Y-88335714D01*
X118000000Y-88278571D01*
X118028571Y-88250000D01*
X118085714Y-88221429D01*
X118200000Y-88192857D01*
X118342857Y-88192857D01*
X118457143Y-88221429D01*
X118514286Y-88250000D01*
X118542857Y-88278571D01*
X118571429Y-88335714D01*
X118571429Y-88392857D01*
X118542857Y-88450000D01*
X118514286Y-88478571D01*
X118457143Y-88507143D01*
X118342857Y-88535714D01*
X118200000Y-88535714D01*
X118085714Y-88507143D01*
X118028571Y-88478571D01*
X118000000Y-88450000D01*
X117971429Y-88392857D01*
M02*
