G04 #@! TF.FileFunction,Other,Fab,Bot*
%FSLAX46Y46*%
G04 Gerber Fmt 4.6, Leading zero omitted, Abs format (unit mm)*
G04 Created by KiCad (PCBNEW 4.0.7) date 2018 March 10, Saturday 13:23:40*
%MOMM*%
%LPD*%
G01*
G04 APERTURE LIST*
%ADD10C,0.100000*%
%ADD11C,0.150000*%
G04 APERTURE END LIST*
D10*
X127800000Y-96800000D02*
X80100000Y-96800000D01*
X80100000Y-96800000D02*
X80100000Y-60100000D01*
X80100000Y-60100000D02*
X127800000Y-60100000D01*
X127800000Y-60100000D02*
X127800000Y-96800000D01*
X120475000Y-92175000D02*
X122762500Y-92175000D01*
X122762500Y-92175000D02*
X123525000Y-91412500D01*
X123525000Y-91412500D02*
X123525000Y-85825000D01*
X123525000Y-85825000D02*
X120475000Y-85825000D01*
X120475000Y-85825000D02*
X120475000Y-92175000D01*
X77350000Y-89900000D02*
X68350000Y-89900000D01*
X77350000Y-93400000D02*
X68350000Y-93400000D01*
X68350000Y-93400000D02*
X68350000Y-78900000D01*
X68350000Y-78900000D02*
X77350000Y-78900000D01*
X77350000Y-78900000D02*
X77350000Y-93400000D01*
X126850000Y-57400000D02*
X127150000Y-57400000D01*
X127150000Y-57400000D02*
X127150000Y-57900000D01*
X126450000Y-52775000D02*
X126450000Y-57800000D01*
X126450000Y-57800000D02*
X126750000Y-57800000D01*
X126750000Y-57800000D02*
X126750000Y-58650000D01*
X126750000Y-58650000D02*
X121250000Y-58650000D01*
X121250000Y-58650000D02*
X121250000Y-52775000D01*
X126450000Y-52775000D02*
X126450000Y-47750000D01*
X126450000Y-47750000D02*
X126750000Y-47750000D01*
X126750000Y-47750000D02*
X126750000Y-46900000D01*
X126750000Y-46900000D02*
X121250000Y-46900000D01*
X121250000Y-46900000D02*
X121250000Y-52775000D01*
X76800000Y-59900000D02*
X76800000Y-53500000D01*
X76800000Y-53500000D02*
X66800000Y-53500000D01*
X66800000Y-53500000D02*
X66800000Y-59900000D01*
X66800000Y-59900000D02*
X76800000Y-59900000D01*
X76800000Y-69150000D02*
X76800000Y-59900000D01*
X76800000Y-59900000D02*
X66800000Y-59900000D01*
X66800000Y-59900000D02*
X66800000Y-69150000D01*
X66800000Y-69150000D02*
X76800000Y-69150000D01*
X74340000Y-69150000D02*
X74340000Y-72960000D01*
X71800000Y-69150000D02*
X71800000Y-72960000D01*
X69260000Y-69150000D02*
X69260000Y-72960000D01*
X73650000Y-56300000D02*
G75*
G03X73650000Y-56300000I-1850000J0D01*
G01*
D11*
X123928572Y-84191429D02*
X123928572Y-83591429D01*
X123700000Y-83591429D01*
X123642858Y-83620000D01*
X123614286Y-83648571D01*
X123585715Y-83705714D01*
X123585715Y-83791429D01*
X123614286Y-83848571D01*
X123642858Y-83877143D01*
X123700000Y-83905714D01*
X123928572Y-83905714D01*
X123328572Y-84191429D02*
X123328572Y-83591429D01*
X123128572Y-84020000D01*
X122928572Y-83591429D01*
X122928572Y-84191429D01*
X122671429Y-84162857D02*
X122585715Y-84191429D01*
X122442858Y-84191429D01*
X122385715Y-84162857D01*
X122357144Y-84134286D01*
X122328572Y-84077143D01*
X122328572Y-84020000D01*
X122357144Y-83962857D01*
X122385715Y-83934286D01*
X122442858Y-83905714D01*
X122557144Y-83877143D01*
X122614286Y-83848571D01*
X122642858Y-83820000D01*
X122671429Y-83762857D01*
X122671429Y-83705714D01*
X122642858Y-83648571D01*
X122614286Y-83620000D01*
X122557144Y-83591429D01*
X122414286Y-83591429D01*
X122328572Y-83620000D01*
X122128572Y-83591429D02*
X121728572Y-83591429D01*
X121985715Y-84191429D01*
X121385714Y-83591429D02*
X121328571Y-83591429D01*
X121271428Y-83620000D01*
X121242857Y-83648571D01*
X121214286Y-83705714D01*
X121185714Y-83820000D01*
X121185714Y-83962857D01*
X121214286Y-84077143D01*
X121242857Y-84134286D01*
X121271428Y-84162857D01*
X121328571Y-84191429D01*
X121385714Y-84191429D01*
X121442857Y-84162857D01*
X121471428Y-84134286D01*
X121500000Y-84077143D01*
X121528571Y-83962857D01*
X121528571Y-83820000D01*
X121500000Y-83705714D01*
X121471428Y-83648571D01*
X121442857Y-83620000D01*
X121385714Y-83591429D01*
X120814285Y-83591429D02*
X120757142Y-83591429D01*
X120699999Y-83620000D01*
X120671428Y-83648571D01*
X120642857Y-83705714D01*
X120614285Y-83820000D01*
X120614285Y-83962857D01*
X120642857Y-84077143D01*
X120671428Y-84134286D01*
X120699999Y-84162857D01*
X120757142Y-84191429D01*
X120814285Y-84191429D01*
X120871428Y-84162857D01*
X120899999Y-84134286D01*
X120928571Y-84077143D01*
X120957142Y-83962857D01*
X120957142Y-83820000D01*
X120928571Y-83705714D01*
X120899999Y-83648571D01*
X120871428Y-83620000D01*
X120814285Y-83591429D01*
X120414285Y-83591429D02*
X120042856Y-83591429D01*
X120242856Y-83820000D01*
X120157142Y-83820000D01*
X120099999Y-83848571D01*
X120071428Y-83877143D01*
X120042856Y-83934286D01*
X120042856Y-84077143D01*
X120071428Y-84134286D01*
X120099999Y-84162857D01*
X120157142Y-84191429D01*
X120328570Y-84191429D01*
X120385713Y-84162857D01*
X120414285Y-84134286D01*
X121452381Y-88238095D02*
X122261905Y-88238095D01*
X122357143Y-88285714D01*
X122404762Y-88333333D01*
X122452381Y-88428571D01*
X122452381Y-88619048D01*
X122404762Y-88714286D01*
X122357143Y-88761905D01*
X122261905Y-88809524D01*
X121452381Y-88809524D01*
X121452381Y-89761905D02*
X121452381Y-89285714D01*
X121928571Y-89238095D01*
X121880952Y-89285714D01*
X121833333Y-89380952D01*
X121833333Y-89619048D01*
X121880952Y-89714286D01*
X121928571Y-89761905D01*
X122023810Y-89809524D01*
X122261905Y-89809524D01*
X122357143Y-89761905D01*
X122404762Y-89714286D01*
X122452381Y-89619048D01*
X122452381Y-89380952D01*
X122404762Y-89285714D01*
X122357143Y-89238095D01*
X78021429Y-84242858D02*
X78450000Y-84242858D01*
X78535714Y-84214286D01*
X78592857Y-84157143D01*
X78621429Y-84071429D01*
X78621429Y-84014286D01*
X78621429Y-84785715D02*
X78307143Y-84785715D01*
X78250000Y-84757144D01*
X78221429Y-84700001D01*
X78221429Y-84585715D01*
X78250000Y-84528572D01*
X78592857Y-84785715D02*
X78621429Y-84728572D01*
X78621429Y-84585715D01*
X78592857Y-84528572D01*
X78535714Y-84500001D01*
X78478571Y-84500001D01*
X78421429Y-84528572D01*
X78392857Y-84585715D01*
X78392857Y-84728572D01*
X78364286Y-84785715D01*
X78592857Y-85328572D02*
X78621429Y-85271429D01*
X78621429Y-85157143D01*
X78592857Y-85100001D01*
X78564286Y-85071429D01*
X78507143Y-85042858D01*
X78335714Y-85042858D01*
X78278571Y-85071429D01*
X78250000Y-85100001D01*
X78221429Y-85157143D01*
X78221429Y-85271429D01*
X78250000Y-85328572D01*
X78621429Y-85585715D02*
X78021429Y-85585715D01*
X78392857Y-85642858D02*
X78621429Y-85814287D01*
X78221429Y-85814287D02*
X78450000Y-85585715D01*
X78392857Y-86071429D02*
X78392857Y-86528572D01*
X78621429Y-86814286D02*
X78021429Y-86814286D01*
X78021429Y-86957143D01*
X78050000Y-87042858D01*
X78107143Y-87100000D01*
X78164286Y-87128572D01*
X78278571Y-87157143D01*
X78364286Y-87157143D01*
X78478571Y-87128572D01*
X78535714Y-87100000D01*
X78592857Y-87042858D01*
X78621429Y-86957143D01*
X78621429Y-86814286D01*
X78564286Y-87757143D02*
X78592857Y-87728572D01*
X78621429Y-87642858D01*
X78621429Y-87585715D01*
X78592857Y-87500000D01*
X78535714Y-87442858D01*
X78478571Y-87414286D01*
X78364286Y-87385715D01*
X78278571Y-87385715D01*
X78164286Y-87414286D01*
X78107143Y-87442858D01*
X78050000Y-87500000D01*
X78021429Y-87585715D01*
X78021429Y-87642858D01*
X78050000Y-87728572D01*
X78078571Y-87757143D01*
X120164286Y-50532142D02*
X120192857Y-50503571D01*
X120221429Y-50417857D01*
X120221429Y-50360714D01*
X120192857Y-50274999D01*
X120135714Y-50217857D01*
X120078571Y-50189285D01*
X119964286Y-50160714D01*
X119878571Y-50160714D01*
X119764286Y-50189285D01*
X119707143Y-50217857D01*
X119650000Y-50274999D01*
X119621429Y-50360714D01*
X119621429Y-50417857D01*
X119650000Y-50503571D01*
X119678571Y-50532142D01*
X120221429Y-50874999D02*
X120192857Y-50817857D01*
X120164286Y-50789285D01*
X120107143Y-50760714D01*
X119935714Y-50760714D01*
X119878571Y-50789285D01*
X119850000Y-50817857D01*
X119821429Y-50874999D01*
X119821429Y-50960714D01*
X119850000Y-51017857D01*
X119878571Y-51046428D01*
X119935714Y-51074999D01*
X120107143Y-51074999D01*
X120164286Y-51046428D01*
X120192857Y-51017857D01*
X120221429Y-50960714D01*
X120221429Y-50874999D01*
X119821429Y-51332142D02*
X120221429Y-51332142D01*
X119878571Y-51332142D02*
X119850000Y-51360714D01*
X119821429Y-51417856D01*
X119821429Y-51503571D01*
X119850000Y-51560714D01*
X119907143Y-51589285D01*
X120221429Y-51589285D01*
X119821429Y-51874999D02*
X120221429Y-51874999D01*
X119878571Y-51874999D02*
X119850000Y-51903571D01*
X119821429Y-51960713D01*
X119821429Y-52046428D01*
X119850000Y-52103571D01*
X119907143Y-52132142D01*
X120221429Y-52132142D01*
X120278571Y-52274999D02*
X120278571Y-52732142D01*
X119621429Y-52989285D02*
X119621429Y-53046428D01*
X119650000Y-53103571D01*
X119678571Y-53132142D01*
X119735714Y-53160713D01*
X119850000Y-53189285D01*
X119992857Y-53189285D01*
X120107143Y-53160713D01*
X120164286Y-53132142D01*
X120192857Y-53103571D01*
X120221429Y-53046428D01*
X120221429Y-52989285D01*
X120192857Y-52932142D01*
X120164286Y-52903571D01*
X120107143Y-52874999D01*
X119992857Y-52846428D01*
X119850000Y-52846428D01*
X119735714Y-52874999D01*
X119678571Y-52903571D01*
X119650000Y-52932142D01*
X119621429Y-52989285D01*
X120221429Y-53760714D02*
X120221429Y-53417857D01*
X120221429Y-53589285D02*
X119621429Y-53589285D01*
X119707143Y-53532142D01*
X119764286Y-53475000D01*
X119792857Y-53417857D01*
X120221429Y-53960714D02*
X119821429Y-54275000D01*
X119821429Y-53960714D02*
X120221429Y-54275000D01*
X119621429Y-54617857D02*
X119621429Y-54675000D01*
X119650000Y-54732143D01*
X119678571Y-54760714D01*
X119735714Y-54789285D01*
X119850000Y-54817857D01*
X119992857Y-54817857D01*
X120107143Y-54789285D01*
X120164286Y-54760714D01*
X120192857Y-54732143D01*
X120221429Y-54675000D01*
X120221429Y-54617857D01*
X120192857Y-54560714D01*
X120164286Y-54532143D01*
X120107143Y-54503571D01*
X119992857Y-54475000D01*
X119850000Y-54475000D01*
X119735714Y-54503571D01*
X119678571Y-54532143D01*
X119650000Y-54560714D01*
X119621429Y-54617857D01*
X119878571Y-55160714D02*
X119850000Y-55103572D01*
X119821429Y-55075000D01*
X119764286Y-55046429D01*
X119735714Y-55046429D01*
X119678571Y-55075000D01*
X119650000Y-55103572D01*
X119621429Y-55160714D01*
X119621429Y-55275000D01*
X119650000Y-55332143D01*
X119678571Y-55360714D01*
X119735714Y-55389286D01*
X119764286Y-55389286D01*
X119821429Y-55360714D01*
X119850000Y-55332143D01*
X119878571Y-55275000D01*
X119878571Y-55160714D01*
X119907143Y-55103572D01*
X119935714Y-55075000D01*
X119992857Y-55046429D01*
X120107143Y-55046429D01*
X120164286Y-55075000D01*
X120192857Y-55103572D01*
X120221429Y-55160714D01*
X120221429Y-55275000D01*
X120192857Y-55332143D01*
X120164286Y-55360714D01*
X120107143Y-55389286D01*
X119992857Y-55389286D01*
X119935714Y-55360714D01*
X119907143Y-55332143D01*
X119878571Y-55275000D01*
X123057143Y-51560715D02*
X123104762Y-51513096D01*
X123152381Y-51370239D01*
X123152381Y-51275001D01*
X123104762Y-51132143D01*
X123009524Y-51036905D01*
X122914286Y-50989286D01*
X122723810Y-50941667D01*
X122580952Y-50941667D01*
X122390476Y-50989286D01*
X122295238Y-51036905D01*
X122200000Y-51132143D01*
X122152381Y-51275001D01*
X122152381Y-51370239D01*
X122200000Y-51513096D01*
X122247619Y-51560715D01*
X122152381Y-52179762D02*
X122152381Y-52370239D01*
X122200000Y-52465477D01*
X122295238Y-52560715D01*
X122485714Y-52608334D01*
X122819048Y-52608334D01*
X123009524Y-52560715D01*
X123104762Y-52465477D01*
X123152381Y-52370239D01*
X123152381Y-52179762D01*
X123104762Y-52084524D01*
X123009524Y-51989286D01*
X122819048Y-51941667D01*
X122485714Y-51941667D01*
X122295238Y-51989286D01*
X122200000Y-52084524D01*
X122152381Y-52179762D01*
X123152381Y-53036905D02*
X122152381Y-53036905D01*
X123152381Y-53608334D01*
X122152381Y-53608334D01*
X122152381Y-54560715D02*
X122152381Y-54084524D01*
X122628571Y-54036905D01*
X122580952Y-54084524D01*
X122533333Y-54179762D01*
X122533333Y-54417858D01*
X122580952Y-54513096D01*
X122628571Y-54560715D01*
X122723810Y-54608334D01*
X122961905Y-54608334D01*
X123057143Y-54560715D01*
X123104762Y-54513096D01*
X123152381Y-54417858D01*
X123152381Y-54179762D01*
X123104762Y-54084524D01*
X123057143Y-54036905D01*
X73100001Y-75131429D02*
X73385715Y-75131429D01*
X73385715Y-74531429D01*
X72900001Y-75131429D02*
X72900001Y-74531429D01*
X72700001Y-74960000D01*
X72500001Y-74531429D01*
X72500001Y-75131429D01*
X72271430Y-74531429D02*
X71871430Y-74531429D01*
X72128573Y-75131429D01*
X71557144Y-74788571D02*
X71614286Y-74760000D01*
X71642858Y-74731429D01*
X71671429Y-74674286D01*
X71671429Y-74645714D01*
X71642858Y-74588571D01*
X71614286Y-74560000D01*
X71557144Y-74531429D01*
X71442858Y-74531429D01*
X71385715Y-74560000D01*
X71357144Y-74588571D01*
X71328572Y-74645714D01*
X71328572Y-74674286D01*
X71357144Y-74731429D01*
X71385715Y-74760000D01*
X71442858Y-74788571D01*
X71557144Y-74788571D01*
X71614286Y-74817143D01*
X71642858Y-74845714D01*
X71671429Y-74902857D01*
X71671429Y-75017143D01*
X71642858Y-75074286D01*
X71614286Y-75102857D01*
X71557144Y-75131429D01*
X71442858Y-75131429D01*
X71385715Y-75102857D01*
X71357144Y-75074286D01*
X71328572Y-75017143D01*
X71328572Y-74902857D01*
X71357144Y-74845714D01*
X71385715Y-74817143D01*
X71442858Y-74788571D01*
X70957143Y-74531429D02*
X70900000Y-74531429D01*
X70842857Y-74560000D01*
X70814286Y-74588571D01*
X70785715Y-74645714D01*
X70757143Y-74760000D01*
X70757143Y-74902857D01*
X70785715Y-75017143D01*
X70814286Y-75074286D01*
X70842857Y-75102857D01*
X70900000Y-75131429D01*
X70957143Y-75131429D01*
X71014286Y-75102857D01*
X71042857Y-75074286D01*
X71071429Y-75017143D01*
X71100000Y-74902857D01*
X71100000Y-74760000D01*
X71071429Y-74645714D01*
X71042857Y-74588571D01*
X71014286Y-74560000D01*
X70957143Y-74531429D01*
X70214286Y-74531429D02*
X70500000Y-74531429D01*
X70528571Y-74817143D01*
X70500000Y-74788571D01*
X70442857Y-74760000D01*
X70300000Y-74760000D01*
X70242857Y-74788571D01*
X70214286Y-74817143D01*
X70185714Y-74874286D01*
X70185714Y-75017143D01*
X70214286Y-75074286D01*
X70242857Y-75102857D01*
X70300000Y-75131429D01*
X70442857Y-75131429D01*
X70500000Y-75102857D01*
X70528571Y-75074286D01*
X72561905Y-51832381D02*
X72561905Y-52641905D01*
X72514286Y-52737143D01*
X72466667Y-52784762D01*
X72371429Y-52832381D01*
X72180952Y-52832381D01*
X72085714Y-52784762D01*
X72038095Y-52737143D01*
X71990476Y-52641905D01*
X71990476Y-51832381D01*
X70990476Y-52832381D02*
X71561905Y-52832381D01*
X71276191Y-52832381D02*
X71276191Y-51832381D01*
X71371429Y-51975238D01*
X71466667Y-52070476D01*
X71561905Y-52118095D01*
M02*
