M48
;DRILL file {KiCad 4.0.7} date 2018 March 10, Saturday 13:23:44
;FORMAT={-:-/ absolute / metric / decimal}
FMAT,2
METRIC,TZ
T1C0.400
T2C0.500
T3C0.600
T4C0.700
T5C0.850
T6C1.000
T7C3.500
%
G90
G05
M71
T1
X70.35Y-60.15
X75.65Y-61.4
X78.08Y-56.22
X79.55Y-54.25
X82.55Y-67.05
X82.7Y-63.
X82.75Y-74.95
X83.2Y-83.35
X83.25Y-80.85
X83.95Y-75.9
X84.8Y-60.
X85.15Y-83.35
X85.5Y-88.2
X85.55Y-74.4
X85.65Y-80.85
X85.9Y-72.
X86.25Y-78.25
X86.25Y-83.7
X86.8Y-72.
X87.25Y-86.8
X88.3Y-67.8
X88.6Y-77.1
X89.Y-82.3
X91.5Y-82.3
X92.2Y-71.
X92.35Y-76.15
X92.9Y-73.3
X92.9Y-95.8
X94.3Y-76.35
X94.9Y-73.15
X95.85Y-85.85
X96.2Y-74.45
X96.215Y-76.12
X97.55Y-76.1
X97.6Y-73.35
X99.492Y-64.146
X99.7Y-60.55
X100.35Y-76.15
X101.25Y-65.8
X101.9Y-76.15
X102.75Y-66.05
X102.8Y-60.55
X102.8Y-64.05
X103.2Y-78.35
X104.6Y-85.2
X104.85Y-71.75
X104.85Y-76.1
X106.2Y-70.75
X106.2Y-81.
X106.2Y-78.8
X106.35Y-76.35
X106.6Y-66.5
X106.7Y-83.
X108.15Y-78.8
X108.3Y-90.65
X108.35Y-70.5
X108.55Y-81.
X108.85Y-73.85
X109.264Y-76.936
X109.85Y-83.
X109.9Y-70.4
X110.45Y-50.85
X110.6Y-73.7
X111.1Y-64.5
X111.15Y-86.95
X113.Y-60.9
X114.4Y-98.4
X114.9Y-74.1
X114.95Y-70.6
X115.1Y-91.1
X115.3Y-61.
X115.6Y-98.4
X116.75Y-87.
X118.45Y-86.95
X121.35Y-71.8
X121.35Y-75.5
X123.45Y-76.45
X123.45Y-72.2
X123.5Y-70.25
X123.5Y-74.05
X124.05Y-54.8
X124.85Y-70.3
X125.3Y-76.45
X126.Y-72.2
X126.35Y-74.05
T2
X67.7Y-70.6
X75.8Y-70.6
X76.6Y-73.2
X83.6Y-85.4
X86.25Y-55.75
X91.Y-88.5
X94.Y-78.5
X94.5Y-88.5
X100.Y-78.5
X101.Y-88.5
X125.7Y-48.4
X125.7Y-49.65
X125.7Y-50.9
X125.7Y-52.15
X125.7Y-53.4
X125.7Y-54.65
X125.7Y-55.9
X125.7Y-57.15
T4
X121.365Y-86.46
X121.365Y-87.73
X121.365Y-89.
X121.365Y-90.27
X121.365Y-91.54
X122.635Y-86.46
X122.635Y-87.73
X122.635Y-89.
X122.635Y-90.27
X122.635Y-91.54
T5
X70.5Y-89.25
X75.5Y-89.25
T6
X69.26Y-72.96
X71.8Y-72.96
X74.34Y-72.96
X82.Y-95.5
X110.49Y-45.
X111.19Y-92.9
X113.03Y-45.
X113.73Y-92.9
X115.57Y-45.
X116.27Y-92.9
X118.11Y-45.
X118.81Y-92.9
X120.65Y-45.
X123.19Y-45.
X125.73Y-45.
X126.Y-96.
T7
X71.8Y-56.3
T3
X69.5Y-92.3G85X69.5Y-91.6
G05
X76.5Y-91.6G85X76.5Y-92.3
G05
T6
X68.15Y-83.7G85X68.15Y-81.7
G05
X71.85Y-79.7G85X73.85Y-79.7
G05
X71.85Y-85.7G85X73.85Y-85.7
G05
T0
M30
