G04 #@! TF.FileFunction,Other,User*
%FSLAX46Y46*%
G04 Gerber Fmt 4.6, Leading zero omitted, Abs format (unit mm)*
G04 Created by KiCad (PCBNEW 4.0.7) date 2018 March 10, Saturday 13:23:40*
%MOMM*%
%LPD*%
G01*
G04 APERTURE LIST*
%ADD10C,0.100000*%
%ADD11C,0.050000*%
G04 APERTURE END LIST*
D10*
D11*
X115200000Y-74400000D02*
X119800000Y-74400000D01*
X115200000Y-74400000D02*
X115200000Y-76600000D01*
X119800000Y-76600000D02*
X119800000Y-74400000D01*
X119800000Y-76600000D02*
X115200000Y-76600000D01*
X118200000Y-58400000D02*
X122800000Y-58400000D01*
X118200000Y-58400000D02*
X118200000Y-60600000D01*
X122800000Y-60600000D02*
X122800000Y-58400000D01*
X122800000Y-60600000D02*
X118200000Y-60600000D01*
X102100000Y-89900000D02*
X93300000Y-89900000D01*
X102100000Y-97100000D02*
X102100000Y-89900000D01*
X93300000Y-97100000D02*
X102100000Y-97100000D01*
X93300000Y-89900000D02*
X93300000Y-97100000D01*
X101400000Y-79900000D02*
X92600000Y-79900000D01*
X101400000Y-87100000D02*
X101400000Y-79900000D01*
X92600000Y-87100000D02*
X101400000Y-87100000D01*
X92600000Y-79900000D02*
X92600000Y-87100000D01*
X92150000Y-89900000D02*
X83350000Y-89900000D01*
X92150000Y-97100000D02*
X92150000Y-89900000D01*
X83350000Y-97100000D02*
X92150000Y-97100000D01*
X83350000Y-89900000D02*
X83350000Y-97100000D01*
X75200000Y-71500000D02*
X75200000Y-62700000D01*
X68000000Y-71500000D02*
X75200000Y-71500000D01*
X68000000Y-62700000D02*
X68000000Y-71500000D01*
X75200000Y-62700000D02*
X68000000Y-62700000D01*
X68600000Y-94350000D02*
X77400000Y-94350000D01*
X77400000Y-88250000D02*
X77400000Y-94350000D01*
X68600000Y-88250000D02*
X77400000Y-88250000D01*
X68600000Y-94350000D02*
X68600000Y-88250000D01*
X87950000Y-43800000D02*
X106050000Y-43800000D01*
X106050000Y-43800000D02*
X106050000Y-69100000D01*
X106050000Y-69100000D02*
X87950000Y-69100000D01*
X87950000Y-69100000D02*
X87950000Y-43800000D01*
X75550000Y-76580000D02*
X72050000Y-76580000D01*
X75550000Y-76580000D02*
X75550000Y-74830000D01*
X72050000Y-74830000D02*
X72050000Y-76580000D01*
X72050000Y-74830000D02*
X75550000Y-74830000D01*
X67850000Y-60520000D02*
X71350000Y-60520000D01*
X67850000Y-60520000D02*
X67850000Y-62270000D01*
X71350000Y-62270000D02*
X71350000Y-60520000D01*
X71350000Y-62270000D02*
X67850000Y-62270000D01*
X67950000Y-74820000D02*
X71450000Y-74820000D01*
X67950000Y-74820000D02*
X67950000Y-76570000D01*
X71450000Y-76570000D02*
X71450000Y-74820000D01*
X71450000Y-76570000D02*
X67950000Y-76570000D01*
X71750000Y-60520000D02*
X75250000Y-60520000D01*
X71750000Y-60520000D02*
X71750000Y-62270000D01*
X75250000Y-62270000D02*
X75250000Y-60520000D01*
X75250000Y-62270000D02*
X71750000Y-62270000D01*
X88250000Y-72620000D02*
X91750000Y-72620000D01*
X88250000Y-72620000D02*
X88250000Y-74370000D01*
X91750000Y-74370000D02*
X91750000Y-72620000D01*
X91750000Y-74370000D02*
X88250000Y-74370000D01*
X88250000Y-70120000D02*
X91750000Y-70120000D01*
X88250000Y-70120000D02*
X88250000Y-71870000D01*
X91750000Y-71870000D02*
X91750000Y-70120000D01*
X91750000Y-71870000D02*
X88250000Y-71870000D01*
X106000000Y-89080000D02*
X102500000Y-89080000D01*
X106000000Y-89080000D02*
X106000000Y-87330000D01*
X102500000Y-87330000D02*
X102500000Y-89080000D01*
X102500000Y-87330000D02*
X106000000Y-87330000D01*
X113250000Y-98920000D02*
X116750000Y-98920000D01*
X113250000Y-98920000D02*
X113250000Y-100670000D01*
X116750000Y-100670000D02*
X116750000Y-98920000D01*
X116750000Y-100670000D02*
X113250000Y-100670000D01*
X124520000Y-92650000D02*
X124520000Y-89150000D01*
X124520000Y-92650000D02*
X126270000Y-92650000D01*
X126270000Y-89150000D02*
X124520000Y-89150000D01*
X126270000Y-89150000D02*
X126270000Y-92650000D01*
X96000000Y-91750000D02*
X99400000Y-91750000D01*
X99400000Y-91750000D02*
X99400000Y-95250000D01*
X99400000Y-95250000D02*
X96000000Y-95250000D01*
X96000000Y-95250000D02*
X96000000Y-91750000D01*
X95300000Y-81750000D02*
X98700000Y-81750000D01*
X98700000Y-81750000D02*
X98700000Y-85250000D01*
X98700000Y-85250000D02*
X95300000Y-85250000D01*
X95300000Y-85250000D02*
X95300000Y-81750000D01*
X86050000Y-91750000D02*
X89450000Y-91750000D01*
X89450000Y-91750000D02*
X89450000Y-95250000D01*
X89450000Y-95250000D02*
X86050000Y-95250000D01*
X86050000Y-95250000D02*
X86050000Y-91750000D01*
X79950000Y-54400000D02*
X84550000Y-54400000D01*
X79950000Y-54400000D02*
X79950000Y-56600000D01*
X84550000Y-56600000D02*
X84550000Y-54400000D01*
X84550000Y-56600000D02*
X79950000Y-56600000D01*
X82950000Y-51400000D02*
X87550000Y-51400000D01*
X82950000Y-51400000D02*
X82950000Y-53600000D01*
X87550000Y-53600000D02*
X87550000Y-51400000D01*
X87550000Y-53600000D02*
X82950000Y-53600000D01*
X111800000Y-64100000D02*
X107200000Y-64100000D01*
X111800000Y-64100000D02*
X111800000Y-61900000D01*
X107200000Y-61900000D02*
X107200000Y-64100000D01*
X107200000Y-61900000D02*
X111800000Y-61900000D01*
X107200000Y-64900000D02*
X111800000Y-64900000D01*
X107200000Y-64900000D02*
X107200000Y-67100000D01*
X111800000Y-67100000D02*
X111800000Y-64900000D01*
X111800000Y-67100000D02*
X107200000Y-67100000D01*
X87550000Y-65600000D02*
X82950000Y-65600000D01*
X87550000Y-65600000D02*
X87550000Y-63400000D01*
X82950000Y-63400000D02*
X82950000Y-65600000D01*
X82950000Y-63400000D02*
X87550000Y-63400000D01*
X111800000Y-61100000D02*
X107200000Y-61100000D01*
X111800000Y-61100000D02*
X111800000Y-58900000D01*
X107200000Y-58900000D02*
X107200000Y-61100000D01*
X107200000Y-58900000D02*
X111800000Y-58900000D01*
X87550000Y-59600000D02*
X82950000Y-59600000D01*
X87550000Y-59600000D02*
X87550000Y-57400000D01*
X82950000Y-57400000D02*
X82950000Y-59600000D01*
X82950000Y-57400000D02*
X87550000Y-57400000D01*
X76800000Y-51600000D02*
X72200000Y-51600000D01*
X76800000Y-51600000D02*
X76800000Y-49400000D01*
X72200000Y-49400000D02*
X72200000Y-51600000D01*
X72200000Y-49400000D02*
X76800000Y-49400000D01*
X77700000Y-64400000D02*
X82300000Y-64400000D01*
X77700000Y-64400000D02*
X77700000Y-66600000D01*
X82300000Y-66600000D02*
X82300000Y-64400000D01*
X82300000Y-66600000D02*
X77700000Y-66600000D01*
X82300000Y-53600000D02*
X77700000Y-53600000D01*
X82300000Y-53600000D02*
X82300000Y-51400000D01*
X77700000Y-51400000D02*
X77700000Y-53600000D01*
X77700000Y-51400000D02*
X82300000Y-51400000D01*
X82300000Y-63600000D02*
X77700000Y-63600000D01*
X82300000Y-63600000D02*
X82300000Y-61400000D01*
X77700000Y-61400000D02*
X77700000Y-63600000D01*
X77700000Y-61400000D02*
X82300000Y-61400000D01*
X71800000Y-51600000D02*
X67200000Y-51600000D01*
X71800000Y-51600000D02*
X71800000Y-49400000D01*
X67200000Y-49400000D02*
X67200000Y-51600000D01*
X67200000Y-49400000D02*
X71800000Y-49400000D01*
X82950000Y-60400000D02*
X87550000Y-60400000D01*
X82950000Y-60400000D02*
X82950000Y-62600000D01*
X87550000Y-62600000D02*
X87550000Y-60400000D01*
X87550000Y-62600000D02*
X82950000Y-62600000D01*
X77700000Y-71400000D02*
X82300000Y-71400000D01*
X77700000Y-71400000D02*
X77700000Y-73600000D01*
X82300000Y-73600000D02*
X82300000Y-71400000D01*
X82300000Y-73600000D02*
X77700000Y-73600000D01*
X77700000Y-81400000D02*
X82300000Y-81400000D01*
X77700000Y-81400000D02*
X77700000Y-83600000D01*
X82300000Y-83600000D02*
X82300000Y-81400000D01*
X82300000Y-83600000D02*
X77700000Y-83600000D01*
X82950000Y-69400000D02*
X87550000Y-69400000D01*
X82950000Y-69400000D02*
X82950000Y-71600000D01*
X87550000Y-71600000D02*
X87550000Y-69400000D01*
X87550000Y-71600000D02*
X82950000Y-71600000D01*
X82950000Y-72400000D02*
X87550000Y-72400000D01*
X82950000Y-72400000D02*
X82950000Y-74600000D01*
X87550000Y-74600000D02*
X87550000Y-72400000D01*
X87550000Y-74600000D02*
X82950000Y-74600000D01*
X82950000Y-66400000D02*
X87550000Y-66400000D01*
X82950000Y-66400000D02*
X82950000Y-68600000D01*
X87550000Y-68600000D02*
X87550000Y-66400000D01*
X87550000Y-68600000D02*
X82950000Y-68600000D01*
X77700000Y-74400000D02*
X82300000Y-74400000D01*
X77700000Y-74400000D02*
X77700000Y-76600000D01*
X82300000Y-76600000D02*
X82300000Y-74400000D01*
X82300000Y-76600000D02*
X77700000Y-76600000D01*
X77700000Y-84400000D02*
X82300000Y-84400000D01*
X77700000Y-84400000D02*
X77700000Y-86600000D01*
X82300000Y-86600000D02*
X82300000Y-84400000D01*
X82300000Y-86600000D02*
X77700000Y-86600000D01*
X112700000Y-51400000D02*
X117300000Y-51400000D01*
X112700000Y-51400000D02*
X112700000Y-53600000D01*
X117300000Y-53600000D02*
X117300000Y-51400000D01*
X117300000Y-53600000D02*
X112700000Y-53600000D01*
X77700000Y-91400000D02*
X82300000Y-91400000D01*
X77700000Y-91400000D02*
X77700000Y-93600000D01*
X82300000Y-93600000D02*
X82300000Y-91400000D01*
X82300000Y-93600000D02*
X77700000Y-93600000D01*
X118200000Y-52400000D02*
X122800000Y-52400000D01*
X118200000Y-52400000D02*
X118200000Y-54600000D01*
X122800000Y-54600000D02*
X122800000Y-52400000D01*
X122800000Y-54600000D02*
X118200000Y-54600000D01*
X83300000Y-87300000D02*
X87900000Y-87300000D01*
X83300000Y-87300000D02*
X83300000Y-89500000D01*
X87900000Y-89500000D02*
X87900000Y-87300000D01*
X87900000Y-89500000D02*
X83300000Y-89500000D01*
X118200000Y-49400000D02*
X122800000Y-49400000D01*
X118200000Y-49400000D02*
X118200000Y-51600000D01*
X122800000Y-51600000D02*
X122800000Y-49400000D01*
X122800000Y-51600000D02*
X118200000Y-51600000D01*
X112700000Y-61400000D02*
X117300000Y-61400000D01*
X112700000Y-61400000D02*
X112700000Y-63600000D01*
X117300000Y-63600000D02*
X117300000Y-61400000D01*
X117300000Y-63600000D02*
X112700000Y-63600000D01*
X111800000Y-70100000D02*
X107200000Y-70100000D01*
X111800000Y-70100000D02*
X111800000Y-67900000D01*
X107200000Y-67900000D02*
X107200000Y-70100000D01*
X107200000Y-67900000D02*
X111800000Y-67900000D01*
X118200000Y-67900000D02*
X122800000Y-67900000D01*
X118200000Y-67900000D02*
X118200000Y-70100000D01*
X122800000Y-70100000D02*
X122800000Y-67900000D01*
X122800000Y-70100000D02*
X118200000Y-70100000D01*
X118200000Y-55400000D02*
X122800000Y-55400000D01*
X118200000Y-55400000D02*
X118200000Y-57600000D01*
X122800000Y-57600000D02*
X122800000Y-55400000D01*
X122800000Y-57600000D02*
X118200000Y-57600000D01*
X118200000Y-64900000D02*
X122800000Y-64900000D01*
X118200000Y-64900000D02*
X118200000Y-67100000D01*
X122800000Y-67100000D02*
X122800000Y-64900000D01*
X122800000Y-67100000D02*
X118200000Y-67100000D01*
X111800000Y-90100000D02*
X107200000Y-90100000D01*
X111800000Y-90100000D02*
X111800000Y-87900000D01*
X107200000Y-87900000D02*
X107200000Y-90100000D01*
X107200000Y-87900000D02*
X111800000Y-87900000D01*
X112700000Y-81400000D02*
X117300000Y-81400000D01*
X112700000Y-81400000D02*
X112700000Y-83600000D01*
X117300000Y-83600000D02*
X117300000Y-81400000D01*
X117300000Y-83600000D02*
X112700000Y-83600000D01*
X122800000Y-83600000D02*
X118200000Y-83600000D01*
X122800000Y-83600000D02*
X122800000Y-81400000D01*
X118200000Y-81400000D02*
X118200000Y-83600000D01*
X118200000Y-81400000D02*
X122800000Y-81400000D01*
X118200000Y-78400000D02*
X122800000Y-78400000D01*
X118200000Y-78400000D02*
X118200000Y-80600000D01*
X122800000Y-80600000D02*
X122800000Y-78400000D01*
X122800000Y-80600000D02*
X118200000Y-80600000D01*
X117300000Y-86600000D02*
X112700000Y-86600000D01*
X117300000Y-86600000D02*
X117300000Y-84400000D01*
X112700000Y-84400000D02*
X112700000Y-86600000D01*
X112700000Y-84400000D02*
X117300000Y-84400000D01*
X111800000Y-55100000D02*
X107200000Y-55100000D01*
X111800000Y-55100000D02*
X111800000Y-52900000D01*
X107200000Y-52900000D02*
X107200000Y-55100000D01*
X107200000Y-52900000D02*
X111800000Y-52900000D01*
X92950000Y-70400000D02*
X97550000Y-70400000D01*
X92950000Y-70400000D02*
X92950000Y-72600000D01*
X97550000Y-72600000D02*
X97550000Y-70400000D01*
X97550000Y-72600000D02*
X92950000Y-72600000D01*
X111800000Y-58100000D02*
X107200000Y-58100000D01*
X111800000Y-58100000D02*
X111800000Y-55900000D01*
X107200000Y-55900000D02*
X107200000Y-58100000D01*
X107200000Y-55900000D02*
X111800000Y-55900000D01*
X103300000Y-72100000D02*
X98700000Y-72100000D01*
X103300000Y-72100000D02*
X103300000Y-69900000D01*
X98700000Y-69900000D02*
X98700000Y-72100000D01*
X98700000Y-69900000D02*
X103300000Y-69900000D01*
X106500000Y-81000000D02*
X104500000Y-81000000D01*
X105500000Y-80000000D02*
X105500000Y-82000000D01*
X106200000Y-81000000D02*
G75*
G03X106200000Y-81000000I-700000J0D01*
G01*
X108900000Y-75400000D02*
X108900000Y-86600000D01*
X108900000Y-86600000D02*
X102100000Y-86600000D01*
X102100000Y-86600000D02*
X102100000Y-75400000D01*
X102100000Y-75400000D02*
X108900000Y-75400000D01*
X89500000Y-81000000D02*
X87500000Y-81000000D01*
X88500000Y-80000000D02*
X88500000Y-82000000D01*
X89200000Y-81000000D02*
G75*
G03X89200000Y-81000000I-700000J0D01*
G01*
X91900000Y-75400000D02*
X91900000Y-86600000D01*
X91900000Y-86600000D02*
X85100000Y-86600000D01*
X85100000Y-86600000D02*
X85100000Y-75400000D01*
X85100000Y-75400000D02*
X91900000Y-75400000D01*
X120610000Y-91100000D02*
X109410000Y-91100000D01*
X109410000Y-91100000D02*
X109410000Y-94700000D01*
X109410000Y-94700000D02*
X120610000Y-94700000D01*
X120610000Y-94700000D02*
X120610000Y-91100000D01*
X113770000Y-46800000D02*
X127520000Y-46800000D01*
X127520000Y-46800000D02*
X127520000Y-43200000D01*
X127520000Y-43200000D02*
X113770000Y-43200000D01*
X113770000Y-43200000D02*
X113770000Y-46800000D01*
M02*
