M48
;DRILL file {KiCad 4.0.7} date 03/11/18 20:22:27
;FORMAT={3:3/ absolute / metric / suppress leading zeros}
FMAT,2
METRIC,TZ
T1C0.300
T2C0.500
T3C0.600
T4C0.700
T5C0.850
T6C1.000
T7C3.500
%
G90
G05
M71
T1
X70350Y-60150
X75650Y-61400
X78080Y-56220
X79550Y-54250
X82550Y-67050
X82700Y-63000
X82750Y-74950
X83200Y-83350
X83250Y-80850
X83950Y-75900
X84800Y-60000
X85150Y-83350
X85500Y-88200
X85550Y-74400
X85650Y-80850
X85900Y-72000
X86250Y-78250
X86250Y-83700
X86800Y-72000
X87250Y-86800
X88300Y-67800
X88600Y-77100
X89000Y-82300
X91500Y-82300
X92200Y-71000
X92350Y-76150
X92900Y-73300
X92900Y-95800
X94300Y-76350
X94900Y-73150
X95850Y-85850
X96200Y-74450
X96215Y-76120
X97550Y-76100
X97600Y-73350
X99492Y-64146
X99700Y-60550
X100350Y-76150
X101250Y-65800
X101900Y-76150
X102750Y-66050
X102800Y-60550
X102800Y-64050
X103200Y-78350
X104600Y-85200
X104850Y-71750
X104850Y-76100
X106200Y-70750
X106200Y-81000
X106200Y-78800
X106350Y-76350
X106600Y-66500
X106700Y-83000
X108150Y-78800
X108300Y-90650
X108350Y-70500
X108550Y-81000
X108850Y-73850
X109264Y-76936
X109850Y-83000
X109900Y-70400
X110450Y-50850
X110600Y-73700
X111100Y-64500
X111150Y-86950
X113000Y-60900
X114400Y-98400
X114900Y-74100
X114950Y-70600
X115100Y-91100
X115300Y-61000
X115600Y-98400
X116750Y-87000
X118450Y-86950
X121350Y-71800
X121350Y-75500
X123450Y-76450
X123450Y-72200
X123500Y-70250
X123500Y-74050
X124050Y-54800
X124850Y-70300
X125300Y-76450
X126000Y-72200
X126350Y-74050
T2
X67700Y-70600
X75800Y-70600
X76600Y-73200
X83600Y-85400
X86250Y-55750
X91000Y-88500
X94000Y-78500
X94500Y-88500
X100000Y-78500
X101000Y-88500
X125700Y-48400
X125700Y-49650
X125700Y-50900
X125700Y-52150
X125700Y-53400
X125700Y-54650
X125700Y-55900
X125700Y-57150
T4
X121365Y-86460
X121365Y-87730
X121365Y-89000
X121365Y-90270
X121365Y-91540
X122635Y-86460
X122635Y-87730
X122635Y-89000
X122635Y-90270
X122635Y-91540
T5
X70500Y-89250
X75500Y-89250
T6
X69260Y-72960
X71800Y-72960
X74340Y-72960
X82000Y-95500
X110490Y-45000
X111190Y-92900
X113030Y-45000
X113730Y-92900
X115570Y-45000
X116270Y-92900
X118110Y-45000
X118810Y-92900
X120650Y-45000
X123190Y-45000
X125730Y-45000
X126000Y-96000
T7
X71800Y-56300
T3
X69500Y-92300G85X69500Y-91600
G05
X76500Y-91600G85X76500Y-92300
G05
T6
X68150Y-83700G85X68150Y-81700
G05
X71850Y-79700G85X73850Y-79700
G05
X71850Y-85700G85X73850Y-85700
G05
T0
M30
