G04 #@! TF.FileFunction,Copper,L1,Top,Signal*
%FSLAX46Y46*%
G04 Gerber Fmt 4.6, Leading zero omitted, Abs format (unit mm)*
G04 Created by KiCad (PCBNEW 4.0.7) date 2018 March 10, Saturday 13:23:40*
%MOMM*%
%LPD*%
G01*
G04 APERTURE LIST*
%ADD10C,0.100000*%
%ADD11R,1.100000X1.900000*%
%ADD12R,1.300000X1.000000*%
%ADD13O,1.300000X1.000000*%
%ADD14R,3.500000X3.500000*%
%ADD15R,2.000000X3.800000*%
%ADD16R,2.000000X1.500000*%
%ADD17R,3.800000X2.000000*%
%ADD18R,1.500000X2.000000*%
%ADD19R,1.600000X2.500000*%
%ADD20R,1.050000X0.450000*%
%ADD21R,1.500000X1.900000*%
%ADD22C,1.450000*%
%ADD23R,0.400000X1.350000*%
%ADD24O,1.200000X1.900000*%
%ADD25R,1.200000X1.900000*%
%ADD26R,2.500000X1.200000*%
%ADD27R,1.200000X1.800000*%
%ADD28R,1.100000X1.450000*%
%ADD29R,1.450000X1.100000*%
%ADD30R,1.200000X0.850000*%
%ADD31O,1.200000X0.850000*%
%ADD32R,1.300000X2.000000*%
%ADD33R,1.700000X1.700000*%
%ADD34O,1.700000X1.700000*%
%ADD35C,1.000000*%
%ADD36C,1.700000*%
%ADD37R,1.800000X1.800000*%
%ADD38O,1.800000X1.800000*%
%ADD39R,1.700000X1.100000*%
%ADD40C,0.700000*%
%ADD41C,0.300000*%
%ADD42C,0.200000*%
%ADD43C,0.500000*%
%ADD44C,0.400000*%
G04 APERTURE END LIST*
D10*
D11*
X115950000Y-75500000D03*
X119050000Y-75500000D03*
X118950000Y-59500000D03*
X122050000Y-59500000D03*
D12*
X122785000Y-91540000D03*
D13*
X121215000Y-91540000D03*
X122785000Y-90270000D03*
X121215000Y-90270000D03*
X122785000Y-89000000D03*
X121215000Y-89000000D03*
X122785000Y-87730000D03*
X121215000Y-87730000D03*
X122785000Y-86460000D03*
X121215000Y-86460000D03*
D14*
X72850000Y-79700000D03*
X72850000Y-85700000D03*
X68150000Y-82700000D03*
D15*
X100850000Y-93500000D03*
D16*
X94550000Y-93500000D03*
X94550000Y-95800000D03*
X94550000Y-91200000D03*
D15*
X100150000Y-83500000D03*
D16*
X93850000Y-83500000D03*
X93850000Y-85800000D03*
X93850000Y-81200000D03*
D15*
X90900000Y-93500000D03*
D16*
X84600000Y-93500000D03*
X84600000Y-95800000D03*
X84600000Y-91200000D03*
D17*
X71600000Y-70250000D03*
D18*
X71600000Y-63950000D03*
X69300000Y-63950000D03*
X73900000Y-63950000D03*
D19*
X115000000Y-103500000D03*
D20*
X116550000Y-104500000D03*
X116550000Y-103500000D03*
X116550000Y-102500000D03*
X113450000Y-102500000D03*
X113450000Y-103500000D03*
X113450000Y-104500000D03*
D21*
X74000000Y-91950000D03*
D22*
X70500000Y-89250000D03*
D23*
X72350000Y-89250000D03*
X71700000Y-89250000D03*
X74300000Y-89250000D03*
X73650000Y-89250000D03*
X73000000Y-89250000D03*
D22*
X75500000Y-89250000D03*
D21*
X72000000Y-91950000D03*
D24*
X69500000Y-91950000D03*
X76500000Y-91950000D03*
D25*
X75900000Y-91950000D03*
X70100000Y-91950000D03*
D26*
X89400000Y-52500000D03*
X89400000Y-54500000D03*
X89400000Y-56500000D03*
X89400000Y-58500000D03*
X89400000Y-60500000D03*
X89400000Y-62500000D03*
X89400000Y-64500000D03*
X89400000Y-66500000D03*
D27*
X92000000Y-68000000D03*
X94000000Y-68000000D03*
X96000000Y-68000000D03*
X98000000Y-68000000D03*
X100000000Y-68000000D03*
X102000000Y-68000000D03*
D26*
X104600000Y-66500000D03*
X104600000Y-64500000D03*
X104600000Y-62500000D03*
X104600000Y-60500000D03*
X104600000Y-58500000D03*
X104600000Y-56500000D03*
X104600000Y-54500000D03*
X104600000Y-52500000D03*
D28*
X74850000Y-75700000D03*
X72750000Y-75700000D03*
X68550000Y-61400000D03*
X70650000Y-61400000D03*
X68650000Y-75700000D03*
X70750000Y-75700000D03*
X72450000Y-61400000D03*
X74550000Y-61400000D03*
X88950000Y-73500000D03*
X91050000Y-73500000D03*
X88950000Y-71000000D03*
X91050000Y-71000000D03*
X105300000Y-88200000D03*
X103200000Y-88200000D03*
X113950000Y-99800000D03*
X116050000Y-99800000D03*
D29*
X125400000Y-91950000D03*
X125400000Y-89850000D03*
D30*
X125700000Y-57150000D03*
D31*
X125700000Y-55900000D03*
X125700000Y-54650000D03*
X125700000Y-53400000D03*
X125700000Y-52150000D03*
X125700000Y-50900000D03*
X125700000Y-49650000D03*
X125700000Y-48400000D03*
D12*
X96500000Y-92550000D03*
X96500000Y-94450000D03*
X98900000Y-93500000D03*
X95800000Y-82550000D03*
X95800000Y-84450000D03*
X98200000Y-83500000D03*
X86550000Y-92550000D03*
X86550000Y-94450000D03*
X88950000Y-93500000D03*
D11*
X80700000Y-55500000D03*
X83800000Y-55500000D03*
X83700000Y-52500000D03*
X86800000Y-52500000D03*
X111050000Y-63000000D03*
X107950000Y-63000000D03*
X107950000Y-66000000D03*
X111050000Y-66000000D03*
X86800000Y-64500000D03*
X83700000Y-64500000D03*
X111050000Y-60000000D03*
X107950000Y-60000000D03*
X86800000Y-58500000D03*
X83700000Y-58500000D03*
X76050000Y-50500000D03*
X72950000Y-50500000D03*
X78450000Y-65500000D03*
X81550000Y-65500000D03*
X81550000Y-52500000D03*
X78450000Y-52500000D03*
X81550000Y-62500000D03*
X78450000Y-62500000D03*
X71050000Y-50500000D03*
X67950000Y-50500000D03*
X83700000Y-61500000D03*
X86800000Y-61500000D03*
X78450000Y-72500000D03*
X81550000Y-72500000D03*
X78450000Y-82500000D03*
X81550000Y-82500000D03*
X83700000Y-70500000D03*
X86800000Y-70500000D03*
X83700000Y-73500000D03*
X86800000Y-73500000D03*
X83700000Y-67500000D03*
X86800000Y-67500000D03*
X78450000Y-75500000D03*
X81550000Y-75500000D03*
X78450000Y-85500000D03*
X81550000Y-85500000D03*
X113450000Y-52500000D03*
X116550000Y-52500000D03*
X78450000Y-92500000D03*
X81550000Y-92500000D03*
X118950000Y-53500000D03*
X122050000Y-53500000D03*
X84050000Y-88400000D03*
X87150000Y-88400000D03*
X118950000Y-50500000D03*
X122050000Y-50500000D03*
X113450000Y-62500000D03*
X116550000Y-62500000D03*
X111050000Y-69000000D03*
X107950000Y-69000000D03*
X118950000Y-69000000D03*
X122050000Y-69000000D03*
X118950000Y-56500000D03*
X122050000Y-56500000D03*
X118950000Y-66000000D03*
X122050000Y-66000000D03*
X111050000Y-89000000D03*
X107950000Y-89000000D03*
X113450000Y-82500000D03*
X116550000Y-82500000D03*
X122050000Y-82500000D03*
X118950000Y-82500000D03*
X118950000Y-79500000D03*
X122050000Y-79500000D03*
X116550000Y-85500000D03*
X113450000Y-85500000D03*
X111050000Y-54000000D03*
X107950000Y-54000000D03*
X93700000Y-71500000D03*
X96800000Y-71500000D03*
X111050000Y-57000000D03*
X107950000Y-57000000D03*
X102550000Y-71000000D03*
X99450000Y-71000000D03*
D32*
X107750000Y-76750000D03*
X103250000Y-76750000D03*
X103250000Y-85250000D03*
X107750000Y-85250000D03*
X90750000Y-76750000D03*
X86250000Y-76750000D03*
X86250000Y-85250000D03*
X90750000Y-85250000D03*
D33*
X118810000Y-92900000D03*
D34*
X116270000Y-92900000D03*
X113730000Y-92900000D03*
X111190000Y-92900000D03*
D35*
X86250000Y-55750000D03*
D36*
X82000000Y-95500000D03*
D35*
X94500000Y-88500000D03*
D36*
X110490000Y-45000000D03*
X113030000Y-45000000D03*
D35*
X94000000Y-78500000D03*
X83600000Y-85400000D03*
X67700000Y-70600000D03*
X76600000Y-73200000D03*
X101000000Y-88500000D03*
X100000000Y-78500000D03*
X91000000Y-88500000D03*
X75800000Y-70600000D03*
D36*
X126000000Y-96000000D03*
D33*
X115570000Y-45000000D03*
D34*
X118110000Y-45000000D03*
X120650000Y-45000000D03*
X123190000Y-45000000D03*
X125730000Y-45000000D03*
D37*
X74340000Y-72960000D03*
D38*
X71800000Y-72960000D03*
X69260000Y-72960000D03*
D39*
X78400000Y-79750000D03*
X78400000Y-78250000D03*
X81600000Y-78250000D03*
X81600000Y-79750000D03*
X78400000Y-69750000D03*
X78400000Y-68250000D03*
X81600000Y-68250000D03*
X81600000Y-69750000D03*
X78400000Y-59750000D03*
X78400000Y-58250000D03*
X81600000Y-58250000D03*
X81600000Y-59750000D03*
X78400000Y-49750000D03*
X78400000Y-48250000D03*
X81600000Y-48250000D03*
X81600000Y-49750000D03*
X78400000Y-89750000D03*
X78400000Y-88250000D03*
X81600000Y-88250000D03*
X81600000Y-89750000D03*
X113400000Y-49750000D03*
X113400000Y-48250000D03*
X116600000Y-48250000D03*
X116600000Y-49750000D03*
X113400000Y-59750000D03*
X113400000Y-58250000D03*
X116600000Y-58250000D03*
X116600000Y-59750000D03*
X113400000Y-69750000D03*
X113400000Y-68250000D03*
X116600000Y-68250000D03*
X116600000Y-69750000D03*
X113400000Y-79750000D03*
X113400000Y-78250000D03*
X116600000Y-78250000D03*
X116600000Y-79750000D03*
X113400000Y-89750000D03*
X113400000Y-88250000D03*
X116600000Y-88250000D03*
X116600000Y-89750000D03*
D40*
X70350000Y-60150000D03*
X104600000Y-85200000D03*
X84800000Y-60000000D03*
X75650002Y-61400000D03*
X86250000Y-78250000D03*
X86250000Y-83700000D03*
X95850000Y-85850000D03*
X103200000Y-78350000D03*
X111100000Y-64500034D03*
X115600000Y-98400000D03*
X92900000Y-95800000D03*
X106600000Y-66500000D03*
X92200000Y-71000000D03*
X82700000Y-63000000D03*
X125300000Y-76450000D03*
X85650000Y-80850000D03*
X83250000Y-80849996D03*
X114900000Y-74100067D03*
X114950000Y-70600000D03*
X123449990Y-76450000D03*
X118450023Y-86950000D03*
X116750000Y-87000014D03*
X88300023Y-67800000D03*
X82550000Y-67050000D03*
X78079898Y-56220110D03*
X108850000Y-73850000D03*
X79550000Y-54250000D03*
X108350000Y-70500002D03*
X109264315Y-76935685D03*
X115100000Y-91100000D03*
X114400000Y-98400000D03*
X106350000Y-76350000D03*
X106199992Y-70749935D03*
X102750000Y-66050000D03*
X101900000Y-76150000D03*
X106200004Y-78800000D03*
X108150000Y-78800000D03*
X101250000Y-65800000D03*
X106200000Y-81000000D03*
X108550000Y-81000000D03*
X100350000Y-76150000D03*
X124049990Y-54800000D03*
X126000000Y-72200000D03*
X123450000Y-72200000D03*
X124850000Y-70300000D03*
X123500000Y-70250000D03*
X126350000Y-74050000D03*
X123500000Y-74050000D03*
X94300000Y-76350012D03*
X94900000Y-73150000D03*
X96215498Y-76119935D03*
X85150000Y-83350000D03*
X83200000Y-83350000D03*
X109900000Y-70400000D03*
X113000000Y-60900002D03*
X115300011Y-61000000D03*
X96200000Y-74450000D03*
X110600000Y-73700000D03*
X97550000Y-76100000D03*
X97600000Y-73350000D03*
X102800000Y-64050000D03*
X99491840Y-64145503D03*
X85500000Y-88199999D03*
X89000000Y-82300000D03*
X109850000Y-83000000D03*
X106700000Y-83000000D03*
X91500000Y-82300000D03*
X86800000Y-72000000D03*
X87250000Y-86800000D03*
X104850000Y-71749957D03*
X88600000Y-77100000D03*
X104850000Y-76100000D03*
X83949979Y-75900000D03*
X85550000Y-74400000D03*
X121349990Y-71799933D03*
X121350000Y-75500000D03*
X85900000Y-72000000D03*
X82750000Y-74950000D03*
X108300000Y-90650000D03*
X111150000Y-86950000D03*
X92900000Y-73300000D03*
X99700001Y-60550000D03*
X102800000Y-60550000D03*
X92350000Y-76150000D03*
X110450000Y-50850000D03*
D41*
X74340000Y-72960000D02*
X76360000Y-72960000D01*
X76360000Y-72960000D02*
X76600000Y-73200000D01*
X72850000Y-79700000D02*
X72950000Y-79700000D01*
X72950000Y-79700000D02*
X74850000Y-77800000D01*
X74850000Y-77800000D02*
X74850000Y-76725000D01*
X74850000Y-76725000D02*
X74850000Y-75700000D01*
X74850000Y-75700000D02*
X74850000Y-73470000D01*
X74850000Y-73470000D02*
X74340000Y-72960000D01*
D42*
X70650000Y-61400000D02*
X70300000Y-61050000D01*
X70300000Y-61050000D02*
X70300000Y-60200000D01*
X70300000Y-60200000D02*
X70350000Y-60150000D01*
D41*
X104550000Y-85250000D02*
X104600000Y-85200000D01*
X103250000Y-85250000D02*
X104550000Y-85250000D01*
X74300000Y-89250000D02*
X74300000Y-86650000D01*
X74300000Y-86650000D02*
X74000000Y-86350000D01*
X73500000Y-86350000D02*
X72850000Y-85700000D01*
X74000000Y-86350000D02*
X73500000Y-86350000D01*
D42*
X83700000Y-60000000D02*
X84800000Y-60000000D01*
X83700000Y-58500000D02*
X83700000Y-60000000D01*
X74550000Y-61400000D02*
X75650002Y-61400000D01*
D41*
X86250000Y-76750000D02*
X86250000Y-78250000D01*
X86250000Y-85250000D02*
X86250000Y-83700000D01*
D43*
X95800000Y-85800000D02*
X95850000Y-85850000D01*
X93850000Y-85800000D02*
X95800000Y-85800000D01*
D41*
X103250000Y-76750000D02*
X103250000Y-78300000D01*
X103250000Y-78300000D02*
X103200000Y-78350000D01*
D42*
X111050000Y-64550034D02*
X111100000Y-64500034D01*
X111050000Y-66000000D02*
X111050000Y-64550034D01*
D41*
X116050000Y-99800000D02*
X116050000Y-98850000D01*
X116050000Y-98850000D02*
X115600000Y-98400000D01*
X116550000Y-103500000D02*
X117375000Y-103500000D01*
X117375000Y-103500000D02*
X117425001Y-103449999D01*
X117425001Y-103449999D02*
X117425001Y-101350001D01*
X117425001Y-101350001D02*
X116050000Y-99975000D01*
X116050000Y-99975000D02*
X116050000Y-99800000D01*
X74000000Y-91950000D02*
X75900000Y-91950000D01*
X72000000Y-91950000D02*
X74000000Y-91950000D01*
X72000000Y-91950000D02*
X70100000Y-91950000D01*
X70750000Y-75700000D02*
X72750000Y-75700000D01*
X71800000Y-72960000D02*
X72750000Y-73910000D01*
X72750000Y-73910000D02*
X72750000Y-75700000D01*
D43*
X94550000Y-95800000D02*
X92900000Y-95800000D01*
X93850000Y-85800000D02*
X94450000Y-85800000D01*
X94450000Y-85800000D02*
X95800000Y-84450000D01*
X94550000Y-95800000D02*
X95150000Y-95800000D01*
X95150000Y-95800000D02*
X96500000Y-94450000D01*
X84600000Y-95800000D02*
X85200000Y-95800000D01*
X85200000Y-95800000D02*
X86550000Y-94450000D01*
X82000000Y-95500000D02*
X84300000Y-95500000D01*
X84300000Y-95500000D02*
X84600000Y-95800000D01*
X104600000Y-66500000D02*
X106600000Y-66500000D01*
D42*
X122635000Y-90270000D02*
X122705000Y-90200000D01*
X122705000Y-90200000D02*
X125050000Y-90200000D01*
X125050000Y-90200000D02*
X125400000Y-89850000D01*
D41*
X103250000Y-85250000D02*
X103250000Y-87850000D01*
X103250000Y-87850000D02*
X103600000Y-88200000D01*
D42*
X91050000Y-73500000D02*
X91050000Y-71000000D01*
X91050000Y-71000000D02*
X92200000Y-71000000D01*
X83700000Y-64500000D02*
X83700000Y-64000000D01*
X83700000Y-64000000D02*
X82700000Y-63000000D01*
X74550000Y-61400000D02*
X74400000Y-61550000D01*
X74400000Y-61550000D02*
X74400000Y-63450000D01*
X74400000Y-63450000D02*
X73900000Y-63950000D01*
D43*
X89215997Y-75299999D02*
X92749999Y-75299999D01*
X87799998Y-76715998D02*
X89215997Y-75299999D01*
X92749999Y-75299999D02*
X93000000Y-75550000D01*
X108760001Y-75299999D02*
X110460016Y-77000014D01*
X93000000Y-75550000D02*
X95654080Y-75550000D01*
X87799998Y-78700002D02*
X87799998Y-76715998D01*
X95904081Y-75299999D02*
X108760001Y-75299999D01*
X85650000Y-80850000D02*
X87799998Y-78700002D01*
X95654080Y-75550000D02*
X95904081Y-75299999D01*
D41*
X78400000Y-48250000D02*
X72400000Y-48250000D01*
X72400000Y-48250000D02*
X71950001Y-48699999D01*
X71950001Y-48699999D02*
X71950001Y-51730001D01*
X67350000Y-59175000D02*
X68550000Y-60375000D01*
X71950001Y-51730001D02*
X71630002Y-52050000D01*
X71630002Y-52050000D02*
X69500000Y-52050000D01*
X67350000Y-54200000D02*
X67350000Y-59175000D01*
X69500000Y-52050000D02*
X67350000Y-54200000D01*
X68550000Y-60375000D02*
X68550000Y-61400000D01*
X114900000Y-48300000D02*
X114900000Y-53750000D01*
X114900000Y-53750000D02*
X114600001Y-54049999D01*
X114600001Y-54049999D02*
X114600001Y-58400000D01*
X114600001Y-58400000D02*
X114600001Y-68300001D01*
X114600001Y-68300001D02*
X114950000Y-68650000D01*
D43*
X123084004Y-76650000D02*
X123450000Y-77015996D01*
X123450000Y-77015996D02*
X123450000Y-83410002D01*
X123450000Y-83410002D02*
X122460002Y-84400000D01*
X121781483Y-84400000D02*
X120114990Y-86066493D01*
X122460002Y-84400000D02*
X121781483Y-84400000D01*
X120114990Y-86066493D02*
X120114990Y-86850000D01*
D41*
X113400000Y-88250000D02*
X113400000Y-87450000D01*
X113400000Y-87450000D02*
X113849986Y-87000014D01*
X113849986Y-87000014D02*
X116255026Y-87000014D01*
X116255026Y-87000014D02*
X116750000Y-87000014D01*
D43*
X114950000Y-78250000D02*
X114950000Y-80410002D01*
X111050000Y-77589998D02*
X110460016Y-77000014D01*
X114950000Y-80410002D02*
X114460002Y-80900000D01*
X114460002Y-80900000D02*
X112100000Y-80900000D01*
X112100000Y-80900000D02*
X111050000Y-79850000D01*
X111050000Y-79850000D02*
X111050000Y-77589998D01*
X110460016Y-77000014D02*
X111030001Y-77569999D01*
X111030001Y-77569999D02*
X114500000Y-74100000D01*
X114850000Y-74100000D02*
X114850067Y-74100067D01*
X114500000Y-74100000D02*
X114850000Y-74100000D01*
X114850067Y-74100067D02*
X114900000Y-74100067D01*
X114950000Y-78250000D02*
X114950000Y-77689998D01*
X115389999Y-77249999D02*
X119465999Y-77249999D01*
X120700002Y-74699998D02*
X122284000Y-74699998D01*
X114950000Y-77689998D02*
X115389999Y-77249999D01*
X119465999Y-77249999D02*
X120200000Y-76515998D01*
X120200000Y-76515998D02*
X120200000Y-75200000D01*
X120200000Y-75200000D02*
X120700002Y-74699998D01*
X122284000Y-74699998D02*
X123084004Y-75500002D01*
X123084004Y-75500002D02*
X123084004Y-76650000D01*
X125149987Y-74589824D02*
X125300000Y-74739837D01*
X125700000Y-57150000D02*
X125700000Y-71150000D01*
X125300000Y-74739837D02*
X125300000Y-75955026D01*
X125300000Y-75955026D02*
X125300000Y-76450000D01*
X125700000Y-71150000D02*
X125149987Y-71700013D01*
X125149987Y-71700013D02*
X125149987Y-74589824D01*
X82755026Y-80849996D02*
X83250000Y-80849996D01*
X80489994Y-80849996D02*
X82755026Y-80849996D01*
X79950000Y-79000000D02*
X79950000Y-80310002D01*
X79950000Y-80310002D02*
X80489994Y-80849996D01*
D41*
X78400000Y-68250000D02*
X78930002Y-68250000D01*
X78930002Y-68250000D02*
X79600001Y-68919999D01*
X77819998Y-74000000D02*
X77150000Y-74669998D01*
X79600001Y-68919999D02*
X79600001Y-73480001D01*
X79600001Y-73480001D02*
X79080002Y-74000000D01*
X79080002Y-74000000D02*
X77819998Y-74000000D01*
X77150000Y-74669998D02*
X77150000Y-78250000D01*
X78400000Y-58250000D02*
X79299988Y-57350012D01*
X77300000Y-53743124D02*
X77300000Y-51400000D01*
X79550000Y-48250000D02*
X78400000Y-48250000D01*
X79299988Y-57350012D02*
X79299988Y-55743112D01*
X79299988Y-55743112D02*
X77300000Y-53743124D01*
X77300000Y-51400000D02*
X77750000Y-50950000D01*
X77750000Y-50950000D02*
X79450000Y-50950000D01*
X79450000Y-50950000D02*
X79850000Y-50550000D01*
X79850000Y-48550000D02*
X79550000Y-48250000D01*
X79850000Y-50550000D02*
X79850000Y-48550000D01*
D43*
X68950000Y-72600000D02*
X68950000Y-70600000D01*
X68950000Y-70600000D02*
X68950000Y-65800000D01*
D41*
X67700000Y-70600000D02*
X68407106Y-70600000D01*
X68407106Y-70600000D02*
X68950000Y-70600000D01*
D43*
X69260000Y-72960000D02*
X69260000Y-72910000D01*
X69260000Y-72910000D02*
X68950000Y-72600000D01*
X68950000Y-65800000D02*
X69300000Y-65450000D01*
X69300000Y-65450000D02*
X69300000Y-63950000D01*
D41*
X68960000Y-72960000D02*
X69260000Y-72960000D01*
X70839998Y-88000000D02*
X71450000Y-88000000D01*
X71450000Y-88000000D02*
X71700000Y-88250000D01*
X71700000Y-88250000D02*
X71700000Y-89250000D01*
D43*
X70839998Y-88000000D02*
X70500000Y-87660002D01*
X70500000Y-87660002D02*
X70500000Y-83400000D01*
X70500000Y-83400000D02*
X71400000Y-82500000D01*
X71400000Y-82500000D02*
X71650000Y-82500000D01*
X71650000Y-82500000D02*
X71339998Y-82500000D01*
X71339998Y-82500000D02*
X70450000Y-81610002D01*
X70450000Y-81610002D02*
X70450000Y-79900000D01*
X70450000Y-79900000D02*
X68650000Y-78100000D01*
X68650000Y-78100000D02*
X68650000Y-77000000D01*
X71650000Y-82500000D02*
X74360002Y-82500000D01*
X74360002Y-82500000D02*
X74460002Y-82400000D01*
D41*
X68650000Y-75700000D02*
X68650000Y-77000000D01*
D43*
X75450000Y-81410002D02*
X74460002Y-82400000D01*
X76800000Y-78250000D02*
X75450000Y-79600000D01*
X75450000Y-79600000D02*
X75450000Y-81410002D01*
D41*
X78400000Y-88250000D02*
X78100000Y-88250000D01*
X75700000Y-85850000D02*
X75700000Y-83639998D01*
X78100000Y-88250000D02*
X75700000Y-85850000D01*
X75700000Y-83639998D02*
X74460002Y-82400000D01*
X68650000Y-75700000D02*
X68650000Y-75875000D01*
X77150000Y-78250000D02*
X76800000Y-78250000D01*
X123449990Y-76450000D02*
X123284004Y-76450000D01*
X123284004Y-76450000D02*
X123084004Y-76650000D01*
X113400000Y-78250000D02*
X114950000Y-78250000D01*
X114550000Y-68250000D02*
X114950000Y-68650000D01*
X113400000Y-68250000D02*
X114550000Y-68250000D01*
X114950000Y-70105026D02*
X114950000Y-70600000D01*
X114950000Y-68650000D02*
X114950000Y-70105026D01*
X77150000Y-78250000D02*
X78400000Y-78250000D01*
X79950000Y-79000000D02*
X79950000Y-78650000D01*
X79950000Y-78650000D02*
X79550000Y-78250000D01*
X79550000Y-78250000D02*
X78400000Y-78250000D01*
X120014990Y-86950000D02*
X118944997Y-86950000D01*
X120114990Y-86850000D02*
X120014990Y-86950000D01*
X118944997Y-86950000D02*
X118450023Y-86950000D01*
D43*
X120114990Y-90663507D02*
X120114990Y-86850000D01*
X121365000Y-91540000D02*
X120991483Y-91540000D01*
X120991483Y-91540000D02*
X120114990Y-90663507D01*
D41*
X122635000Y-91540000D02*
X121365000Y-91540000D01*
X113050000Y-68250000D02*
X113400000Y-68250000D01*
X114600001Y-58300001D02*
X114600001Y-58400000D01*
X113400000Y-58250000D02*
X114550000Y-58250000D01*
X114550000Y-58250000D02*
X114600001Y-58300001D01*
X114900000Y-47919998D02*
X114900000Y-48300000D01*
X114850000Y-48250000D02*
X114900000Y-48300000D01*
X113400000Y-48250000D02*
X114850000Y-48250000D01*
X125730000Y-45000000D02*
X123380001Y-47349999D01*
X123380001Y-47349999D02*
X115469999Y-47349999D01*
X115469999Y-47349999D02*
X114900000Y-47919998D01*
X68650000Y-75700000D02*
X68650000Y-73570000D01*
X68650000Y-73570000D02*
X69260000Y-72960000D01*
D42*
X122635000Y-91540000D02*
X122795000Y-91700000D01*
X122795000Y-91700000D02*
X125150000Y-91700000D01*
X125150000Y-91700000D02*
X125400000Y-91950000D01*
X68550000Y-61400000D02*
X68800000Y-61650000D01*
X68800000Y-61650000D02*
X68800000Y-63450000D01*
X68800000Y-63450000D02*
X69300000Y-63950000D01*
D41*
X72450000Y-61400000D02*
X72450000Y-61200000D01*
X76100000Y-58250000D02*
X76100000Y-57575000D01*
X72450000Y-61200000D02*
X73350000Y-60300000D01*
X74050000Y-60300000D02*
X76100000Y-58250000D01*
X73350000Y-60300000D02*
X74050000Y-60300000D01*
X76100000Y-57575000D02*
X77454890Y-56220110D01*
X77454890Y-56220110D02*
X77584924Y-56220110D01*
X77584924Y-56220110D02*
X78079898Y-56220110D01*
X110149999Y-84336001D02*
X109099999Y-83286001D01*
X110149999Y-90230001D02*
X110149999Y-84336001D01*
X111019997Y-91099999D02*
X110149999Y-90230001D01*
X109099999Y-83286001D02*
X109099999Y-82250001D01*
X109264315Y-82085685D02*
X109264315Y-77430659D01*
X109264315Y-77430659D02*
X109264315Y-76935685D01*
X109099999Y-82250001D02*
X109264315Y-82085685D01*
X115100000Y-91100000D02*
X111019997Y-91099999D01*
X93700000Y-71500000D02*
X92850000Y-71500000D01*
X92850000Y-71500000D02*
X92199999Y-72150001D01*
X92199999Y-72150001D02*
X92199999Y-73636001D01*
X95998415Y-73650000D02*
X96500000Y-73650000D01*
X92199999Y-73636001D02*
X92714008Y-74150010D01*
X92714008Y-74150010D02*
X93651597Y-74150010D01*
X108355026Y-73850000D02*
X108850000Y-73850000D01*
X93651597Y-74150010D02*
X93751600Y-74250013D01*
X93751600Y-74250013D02*
X95398402Y-74250013D01*
X95398402Y-74250013D02*
X95998415Y-73650000D01*
X96500000Y-73650000D02*
X96900001Y-74050001D01*
X96900001Y-74050001D02*
X108155025Y-74050001D01*
X108155025Y-74050001D02*
X108355026Y-73850000D01*
D42*
X93700000Y-71500000D02*
X93700000Y-71100000D01*
X93700000Y-71100000D02*
X92500000Y-69900000D01*
X92500000Y-69900000D02*
X89000000Y-69900000D01*
X89000000Y-69900000D02*
X89000000Y-69600000D01*
D41*
X88300023Y-67800000D02*
X88300023Y-68900023D01*
X88300023Y-68900023D02*
X89000000Y-69600000D01*
X88300023Y-67800000D02*
X88400000Y-67700023D01*
X88400000Y-67700023D02*
X88400000Y-66500000D01*
X88400000Y-66500000D02*
X89400000Y-66500000D01*
D42*
X83700000Y-52500000D02*
X83000000Y-52500000D01*
X83000000Y-52500000D02*
X82650000Y-52850000D01*
X82650000Y-52850000D02*
X82650000Y-53440002D01*
X82650000Y-53440002D02*
X81990002Y-54100000D01*
X81990002Y-54100000D02*
X81700000Y-54100000D01*
X81700000Y-54100000D02*
X80700000Y-55100000D01*
X80700000Y-55100000D02*
X80700000Y-55500000D01*
D43*
X82550000Y-67050000D02*
X80399999Y-67050000D01*
X80399999Y-67050000D02*
X80100000Y-67349999D01*
D41*
X77269999Y-67349999D02*
X80100000Y-67349999D01*
D43*
X75800000Y-70600000D02*
X75800000Y-68819998D01*
X75800000Y-68819998D02*
X77099999Y-67519999D01*
X77099999Y-67519999D02*
X77169998Y-67450000D01*
D41*
X77169998Y-67450000D02*
X77269999Y-67349999D01*
D43*
X75800000Y-70600000D02*
X71950000Y-70600000D01*
X71950000Y-70600000D02*
X71600000Y-70250000D01*
X71600000Y-70250000D02*
X71600000Y-63950000D01*
D41*
X106900002Y-70500000D02*
X106900002Y-71136001D01*
X104563996Y-70250000D02*
X103800000Y-70250000D01*
X105763941Y-71449945D02*
X104563996Y-70250000D01*
X106900002Y-71136001D02*
X106586058Y-71449945D01*
X103800000Y-70250000D02*
X102550000Y-71500000D01*
X106586058Y-71449945D02*
X105763941Y-71449945D01*
X79850000Y-54250000D02*
X79550000Y-54250000D01*
X80700000Y-55100000D02*
X79850000Y-54250000D01*
X106900002Y-67919996D02*
X106900002Y-70500000D01*
X108350000Y-70500002D02*
X107855026Y-70500002D01*
X107855026Y-70500002D02*
X107855024Y-70500000D01*
X107855024Y-70500000D02*
X106900002Y-70500000D01*
X107119999Y-67699999D02*
X106900002Y-67919996D01*
X108380003Y-67699999D02*
X107119999Y-67699999D01*
X111050000Y-63000000D02*
X111050000Y-63400000D01*
X108850001Y-65599999D02*
X108850001Y-67230001D01*
X111050000Y-63400000D02*
X108850001Y-65599999D01*
X108850001Y-67230001D02*
X108380003Y-67699999D01*
X115100000Y-91100000D02*
X118160000Y-91100000D01*
X118160000Y-91100000D02*
X118810000Y-91750000D01*
X118810000Y-91750000D02*
X118810000Y-92900000D01*
X113950000Y-99800000D02*
X113950000Y-98850000D01*
X113950000Y-98850000D02*
X114400000Y-98400000D01*
X113450000Y-103500000D02*
X113069998Y-103500000D01*
X113069998Y-103500000D02*
X112574999Y-103005001D01*
X112574999Y-103005001D02*
X112574999Y-101350001D01*
X112574999Y-101350001D02*
X113950000Y-99975000D01*
X113950000Y-99975000D02*
X113950000Y-99800000D01*
X71350000Y-70500000D02*
X71600000Y-70250000D01*
D42*
X111050000Y-60000000D02*
X111050000Y-63000000D01*
X111050000Y-57000000D02*
X111050000Y-60000000D01*
X111050000Y-54000000D02*
X111050000Y-57000000D01*
D41*
X89000000Y-69600000D02*
X89000000Y-70950000D01*
X88950000Y-73500000D02*
X88950000Y-71000000D01*
X89000000Y-70950000D02*
X88950000Y-71000000D01*
D42*
X88950000Y-73500000D02*
X88950000Y-72575000D01*
X88950000Y-72575000D02*
X88950000Y-71000000D01*
X71600000Y-63950000D02*
X71600000Y-63600000D01*
X71600000Y-63600000D02*
X72100000Y-63100000D01*
X72100000Y-63100000D02*
X72100000Y-61750000D01*
X72100000Y-61750000D02*
X72450000Y-61400000D01*
X102209998Y-52500000D02*
X100700000Y-54009998D01*
X100700000Y-54009998D02*
X100700000Y-59456595D01*
X100700000Y-59456595D02*
X101172306Y-59928901D01*
X101172306Y-59928901D02*
X101172306Y-64915692D01*
X101172306Y-64915692D02*
X100599999Y-65487999D01*
X100599999Y-65487999D02*
X100599999Y-66112001D01*
X105849993Y-70399936D02*
X106199992Y-70749935D01*
X100599999Y-66112001D02*
X100937999Y-66450001D01*
X100937999Y-66450001D02*
X101055703Y-66450001D01*
X101305702Y-66700000D02*
X102740002Y-66700000D01*
X101055703Y-66450001D02*
X101305702Y-66700000D01*
X102740002Y-66700000D02*
X102900001Y-66859999D01*
X102900001Y-66859999D02*
X102900001Y-67200001D01*
X105849993Y-70149993D02*
X105849993Y-70399936D01*
X102900001Y-67200001D02*
X105849993Y-70149993D01*
D41*
X107750000Y-85250000D02*
X107750000Y-83950000D01*
X107400016Y-78399984D02*
X107750000Y-78050000D01*
X107750000Y-83950000D02*
X107400016Y-83600016D01*
X107750000Y-78050000D02*
X107750000Y-76750000D01*
X107400016Y-83600016D02*
X107400016Y-78399984D01*
D42*
X106699999Y-76699999D02*
X106350000Y-76350000D01*
X106750000Y-76750000D02*
X106699999Y-76699999D01*
X107750000Y-76750000D02*
X106750000Y-76750000D01*
X105300000Y-88200000D02*
X105300000Y-88025000D01*
X105300000Y-88025000D02*
X107750000Y-85575000D01*
X107750000Y-85575000D02*
X107750000Y-85250000D01*
X89400000Y-52500000D02*
X102209998Y-52500000D01*
X102209998Y-52500000D02*
X103109999Y-51599999D01*
X103109999Y-51599999D02*
X107000001Y-51599999D01*
X107000001Y-51599999D02*
X113030000Y-45570000D01*
X113030000Y-45570000D02*
X113030000Y-45000000D01*
X86800000Y-52500000D02*
X87550000Y-52500000D01*
X87550000Y-52500000D02*
X89400000Y-52500000D01*
X116810509Y-46299491D02*
X117260001Y-45849999D01*
X112866209Y-46299491D02*
X116810509Y-46299491D01*
X117260001Y-45849999D02*
X118110000Y-45000000D01*
X104600000Y-52500000D02*
X106665700Y-52500000D01*
X106665700Y-52500000D02*
X112866209Y-46299491D01*
X118950499Y-46699501D02*
X119800001Y-45849999D01*
X113050499Y-46699501D02*
X118950499Y-46699501D01*
X105250000Y-54500000D02*
X113050499Y-46699501D01*
X104600000Y-54500000D02*
X105250000Y-54500000D01*
X119800001Y-45849999D02*
X120650000Y-45000000D01*
X102400001Y-65700001D02*
X102750000Y-66050000D01*
X102049998Y-65349998D02*
X102400001Y-65700001D01*
X102049998Y-59600002D02*
X102049998Y-65349998D01*
X103150000Y-58500000D02*
X102049998Y-59600002D01*
X104600000Y-58500000D02*
X103150000Y-58500000D01*
X109050000Y-90760000D02*
X109050000Y-84438115D01*
X107850027Y-83238142D02*
X107850027Y-79594947D01*
X108150000Y-79294974D02*
X108150000Y-78800000D01*
X109050000Y-84438115D02*
X107850027Y-83238142D01*
X107850027Y-79594947D02*
X108150000Y-79294974D01*
X111190000Y-92900000D02*
X109050000Y-90760000D01*
X101900000Y-76644974D02*
X101900000Y-76150000D01*
X101900000Y-77981231D02*
X101900000Y-76644974D01*
X105850005Y-79149999D02*
X103068768Y-79149999D01*
X106200004Y-78800000D02*
X105850005Y-79149999D01*
X103068768Y-79149999D02*
X101900000Y-77981231D01*
X113450000Y-104500000D02*
X113150000Y-104500000D01*
X113150000Y-104500000D02*
X112124990Y-103474990D01*
X112124990Y-103474990D02*
X112124990Y-99275010D01*
X112124990Y-99275010D02*
X114700000Y-96700000D01*
X114700000Y-96700000D02*
X114700000Y-95200000D01*
X114700000Y-95200000D02*
X113800000Y-94300000D01*
X113800000Y-94300000D02*
X112900000Y-94300000D01*
X112900000Y-94300000D02*
X111500000Y-92900000D01*
X111500000Y-92900000D02*
X111190000Y-92900000D01*
X104600000Y-58500000D02*
X106850000Y-58500000D01*
X106850000Y-58500000D02*
X107950000Y-57400000D01*
X107950000Y-57400000D02*
X107950000Y-57000000D01*
X101599999Y-65450001D02*
X101250000Y-65800000D01*
X101600035Y-65449965D02*
X101599999Y-65450001D01*
X101600035Y-58849965D02*
X101600035Y-65449965D01*
X103950000Y-56500000D02*
X101600035Y-58849965D01*
X104600000Y-56500000D02*
X103950000Y-56500000D01*
X108550000Y-83372415D02*
X108550000Y-81494974D01*
X112380010Y-91550010D02*
X110600010Y-91550010D01*
X109650000Y-90600000D02*
X109650000Y-84472415D01*
X108550000Y-81494974D02*
X108550000Y-81000000D01*
X110600010Y-91550010D02*
X109650000Y-90600000D01*
X109650000Y-84472415D02*
X108550000Y-83372415D01*
X113730000Y-92900000D02*
X112380010Y-91550010D01*
X105705026Y-81000000D02*
X106200000Y-81000000D01*
X103750000Y-81000000D02*
X105705026Y-81000000D01*
X100350000Y-77600000D02*
X103750000Y-81000000D01*
X100350000Y-76150000D02*
X100350000Y-77600000D01*
X116550000Y-104500000D02*
X117275000Y-104500000D01*
X117275000Y-104500000D02*
X117875011Y-103899989D01*
X117875011Y-99475011D02*
X115300000Y-96900000D01*
X117875011Y-103899989D02*
X117875011Y-99475011D01*
X115300000Y-96900000D02*
X115300000Y-94470000D01*
X115300000Y-94470000D02*
X113730000Y-92900000D01*
X104600000Y-56500000D02*
X105250000Y-56500000D01*
X105250000Y-56500000D02*
X107750000Y-54000000D01*
X107750000Y-54000000D02*
X107950000Y-54000000D01*
X96800000Y-71500000D02*
X97550000Y-71500000D01*
X98599999Y-72690001D02*
X98659999Y-72750001D01*
X107865699Y-73600000D02*
X108515653Y-72950046D01*
X97550000Y-71500000D02*
X98599999Y-72549999D01*
X98599999Y-72549999D02*
X98599999Y-72690001D01*
X98659999Y-72750001D02*
X99700001Y-72750001D01*
X99700001Y-72750001D02*
X100550000Y-73600000D01*
X100550000Y-73600000D02*
X107865699Y-73600000D01*
X108515653Y-72950046D02*
X116550046Y-72950046D01*
X116550046Y-72950046D02*
X117749987Y-74149987D01*
X117749987Y-74149987D02*
X122599987Y-74149987D01*
X122599987Y-74149987D02*
X123150001Y-74700001D01*
X123150001Y-74700001D02*
X123999999Y-74700001D01*
X123999999Y-74700001D02*
X124100000Y-74600000D01*
X124049990Y-55294974D02*
X124049990Y-54800000D01*
X124100000Y-74600000D02*
X124150002Y-74549998D01*
X124150002Y-55394986D02*
X124049990Y-55294974D01*
X124150002Y-74549998D02*
X124150002Y-55394986D01*
X124100000Y-83725000D02*
X124100000Y-74600000D01*
X121365000Y-86460000D02*
X124100000Y-83725000D01*
X125400000Y-54650000D02*
X126200000Y-54650000D01*
X96000000Y-68000000D02*
X96000000Y-71450000D01*
X96050000Y-71500000D02*
X96800000Y-71500000D01*
X96000000Y-71450000D02*
X96050000Y-71500000D01*
X122635000Y-87730000D02*
X123270000Y-87730000D01*
X123270000Y-87730000D02*
X126550000Y-84450000D01*
X126550000Y-84450000D02*
X126550000Y-75212004D01*
X126550000Y-75212004D02*
X125699999Y-74362003D01*
X125699999Y-74362003D02*
X125699999Y-72500001D01*
X125699999Y-72500001D02*
X126000000Y-72200000D01*
X89400000Y-62500000D02*
X96737994Y-62500000D01*
X99740001Y-69749999D02*
X100240001Y-69749999D01*
X99337996Y-59899998D02*
X100012003Y-59899998D01*
X96737994Y-62500000D02*
X99337996Y-59899998D01*
X100240001Y-69749999D02*
X101044290Y-70554288D01*
X100012003Y-59899998D02*
X100356620Y-60244615D01*
X100356620Y-60244615D02*
X100356620Y-64199976D01*
X100356620Y-64199976D02*
X99050002Y-65506594D01*
X99050002Y-65506594D02*
X99050002Y-69060000D01*
X107300022Y-72799978D02*
X107949976Y-72150024D01*
X99050002Y-69060000D02*
X99740001Y-69749999D01*
X107949976Y-72150024D02*
X117600024Y-72150024D01*
X101244279Y-72799978D02*
X107300022Y-72799978D01*
X101044290Y-70554288D02*
X101044290Y-72599989D01*
X101044290Y-72599989D02*
X101244279Y-72799978D01*
X117600024Y-72150024D02*
X118799965Y-73349965D01*
X118799965Y-73349965D02*
X122300035Y-73349965D01*
X122300035Y-73349965D02*
X123100001Y-72549999D01*
X123100001Y-72549999D02*
X123450000Y-72200000D01*
X126349999Y-71850001D02*
X126000000Y-72200000D01*
X126749997Y-71450003D02*
X126349999Y-71850001D01*
X125875000Y-53400000D02*
X126749997Y-54274997D01*
X125700000Y-53400000D02*
X125875000Y-53400000D01*
X126749997Y-54274997D02*
X126749997Y-71450003D01*
X122635000Y-86460000D02*
X123240000Y-86460000D01*
X123240000Y-86460000D02*
X124600012Y-85099988D01*
X124600012Y-85099988D02*
X124600012Y-74717682D01*
X124599976Y-74717646D02*
X124599976Y-71044998D01*
X124600012Y-74717682D02*
X124599976Y-74717646D01*
X124850000Y-70794974D02*
X124850000Y-70300000D01*
X124599976Y-71044998D02*
X124850000Y-70794974D01*
X89400000Y-60500000D02*
X98172294Y-60500000D01*
X100772310Y-66850012D02*
X100799995Y-66850012D01*
X98172294Y-60500000D02*
X99172307Y-59499987D01*
X100772295Y-60094590D02*
X100772295Y-64750003D01*
X101099999Y-69599999D02*
X101699999Y-70199999D01*
X99172307Y-59499987D02*
X100177692Y-59499987D01*
X100177692Y-59499987D02*
X100772295Y-60094590D01*
X100772295Y-64750003D02*
X100199988Y-65322310D01*
X100199988Y-65322310D02*
X100199988Y-66277690D01*
X122500013Y-71249987D02*
X123500000Y-70250000D01*
X100199988Y-66277690D02*
X100772310Y-66850012D01*
X101699999Y-70199999D02*
X101699999Y-72399967D01*
X100799995Y-66850012D02*
X101099999Y-67150016D01*
X101099999Y-67150016D02*
X101099999Y-69599999D01*
X101699999Y-72399967D02*
X106979569Y-72399967D01*
X106979569Y-72399967D02*
X107629523Y-71750013D01*
X107629523Y-71750013D02*
X118400013Y-71750013D01*
X118400013Y-71750013D02*
X119599954Y-72949954D01*
X119599954Y-72949954D02*
X121950046Y-72949954D01*
X121950046Y-72949954D02*
X122500013Y-72399987D01*
X122500013Y-72399987D02*
X122500013Y-71249987D01*
X124850000Y-69805026D02*
X124850000Y-70300000D01*
X124700000Y-69655026D02*
X124850000Y-69805026D01*
X125525000Y-52150000D02*
X124700000Y-52975000D01*
X124700000Y-52975000D02*
X124700000Y-69655026D01*
X125700000Y-52150000D02*
X125525000Y-52150000D01*
X122635000Y-89000000D02*
X123250000Y-89000000D01*
X123250000Y-89000000D02*
X126999999Y-85250001D01*
X126999999Y-85250001D02*
X126999999Y-74699999D01*
X126999999Y-74699999D02*
X126699999Y-74399999D01*
X126699999Y-74399999D02*
X126350000Y-74050000D01*
X126200000Y-50900000D02*
X127150000Y-51850000D01*
X127150000Y-51850000D02*
X127150000Y-73250000D01*
X127150000Y-73250000D02*
X126699999Y-73700001D01*
X126699999Y-73700001D02*
X126350000Y-74050000D01*
X98900000Y-71350000D02*
X100749989Y-73199989D01*
X100749989Y-73199989D02*
X107700010Y-73199989D01*
X108349964Y-72550035D02*
X117050035Y-72550035D01*
X118249976Y-73749976D02*
X123199976Y-73749976D01*
X107700010Y-73199989D02*
X108349964Y-72550035D01*
X117050035Y-72550035D02*
X118249976Y-73749976D01*
X123199976Y-73749976D02*
X123500000Y-74050000D01*
X98000000Y-70450000D02*
X98900000Y-71350000D01*
X99450000Y-71000000D02*
X99250000Y-71000000D01*
X99250000Y-71000000D02*
X98900000Y-71350000D01*
X98000000Y-68000000D02*
X98000000Y-70450000D01*
X76050000Y-50500000D02*
X77350000Y-50500000D01*
X77350000Y-50500000D02*
X78100000Y-49750000D01*
X78100000Y-49750000D02*
X78400000Y-49750000D01*
X81600000Y-48250000D02*
X80550000Y-48250000D01*
X80550000Y-48250000D02*
X79550000Y-47250000D01*
X79550000Y-47250000D02*
X72750000Y-47250000D01*
X71050000Y-48950000D02*
X71050000Y-50500000D01*
X72750000Y-47250000D02*
X71050000Y-48950000D01*
X80800000Y-48250000D02*
X81600000Y-48250000D01*
X81550000Y-48200000D02*
X81600000Y-48250000D01*
X81550000Y-52500000D02*
X81550000Y-49800000D01*
X81550000Y-49800000D02*
X81600000Y-49750000D01*
X78400000Y-59750000D02*
X78100000Y-59750000D01*
X78100000Y-59750000D02*
X77500000Y-60350000D01*
X77500000Y-60350000D02*
X77500000Y-64200000D01*
X78450000Y-65150000D02*
X78450000Y-65500000D01*
X77500000Y-64200000D02*
X78450000Y-65150000D01*
X83700000Y-61100000D02*
X83700000Y-61500000D01*
X82800000Y-60200000D02*
X83700000Y-61100000D01*
X82800000Y-59009998D02*
X82800000Y-60200000D01*
X82040002Y-58250000D02*
X82800000Y-59009998D01*
X81600000Y-58250000D02*
X82040002Y-58250000D01*
X81550000Y-62500000D02*
X81550000Y-59800000D01*
X81550000Y-59800000D02*
X81600000Y-59750000D01*
X78400000Y-69750000D02*
X78400000Y-72450000D01*
X78400000Y-72450000D02*
X78450000Y-72500000D01*
X81600000Y-68250000D02*
X82950000Y-68250000D01*
X82950000Y-68250000D02*
X83700000Y-67500000D01*
X81600000Y-69750000D02*
X83550000Y-69750000D01*
X83550000Y-69750000D02*
X83700000Y-69900000D01*
X83700000Y-69900000D02*
X83700000Y-70500000D01*
X78400000Y-79750000D02*
X78400000Y-82450000D01*
X78400000Y-82450000D02*
X78450000Y-82500000D01*
X81600000Y-78250000D02*
X81300000Y-78250000D01*
X81300000Y-78250000D02*
X78550000Y-75500000D01*
X78550000Y-75500000D02*
X78450000Y-75500000D01*
X81600000Y-78250000D02*
X82350000Y-78250000D01*
X83700000Y-73500000D02*
X82590002Y-73500000D01*
X82340001Y-73750001D02*
X81259997Y-73750001D01*
X80699999Y-74309999D02*
X80699999Y-76690001D01*
X82590002Y-73500000D02*
X82340001Y-73750001D01*
X81009998Y-77000000D02*
X82400000Y-77000000D01*
X81259997Y-73750001D02*
X80699999Y-74309999D01*
X82650000Y-79750000D02*
X81600000Y-79750000D01*
X80699999Y-76690001D02*
X81009998Y-77000000D01*
X82400000Y-77000000D02*
X82900000Y-77500000D01*
X82900000Y-77500000D02*
X82900000Y-79500000D01*
X82900000Y-79500000D02*
X82650000Y-79750000D01*
X78450000Y-85500000D02*
X79200000Y-85500000D01*
X79750000Y-86050000D02*
X79750000Y-89450000D01*
X79200000Y-85500000D02*
X79750000Y-86050000D01*
X79750000Y-89450000D02*
X79450000Y-89750000D01*
X79450000Y-89750000D02*
X78400000Y-89750000D01*
X81600000Y-88250000D02*
X83900000Y-88250000D01*
X83900000Y-88250000D02*
X84050000Y-88400000D01*
X81600000Y-88250000D02*
X81900000Y-88250000D01*
X78450000Y-92500000D02*
X78450000Y-92100000D01*
X78450000Y-92100000D02*
X79500000Y-91050000D01*
X81600000Y-90600000D02*
X81600000Y-89750000D01*
X79500000Y-91050000D02*
X81150000Y-91050000D01*
X81150000Y-91050000D02*
X81600000Y-90600000D01*
X113400000Y-49750000D02*
X113400000Y-52450000D01*
X113400000Y-52450000D02*
X113450000Y-52500000D01*
X116600000Y-48250000D02*
X117700000Y-48250000D01*
X117700000Y-48250000D02*
X118600000Y-49150000D01*
X118600000Y-49150000D02*
X118600000Y-50150000D01*
X118600000Y-50150000D02*
X118950000Y-50500000D01*
X116600000Y-49750000D02*
X116950000Y-49750000D01*
X116950000Y-49750000D02*
X117550000Y-50350000D01*
X117550000Y-50350000D02*
X117550000Y-51700000D01*
X117550000Y-51700000D02*
X118950000Y-53100000D01*
X118950000Y-53100000D02*
X118950000Y-53500000D01*
X113450000Y-62500000D02*
X113850011Y-62099989D01*
X113850011Y-62099989D02*
X113850011Y-60200011D01*
X113850011Y-60200011D02*
X113400000Y-59750000D01*
X118950000Y-56500000D02*
X118950000Y-56900000D01*
X118950000Y-56900000D02*
X117950000Y-57900000D01*
X117950000Y-57900000D02*
X117250000Y-57900000D01*
X117250000Y-57900000D02*
X116900000Y-58250000D01*
X116900000Y-58250000D02*
X116600000Y-58250000D01*
X116600000Y-59750000D02*
X118700000Y-59750000D01*
X118700000Y-59750000D02*
X118950000Y-59500000D01*
X113400000Y-69750000D02*
X111800000Y-69750000D01*
X111800000Y-69750000D02*
X111050000Y-69000000D01*
X116600000Y-68250000D02*
X116600000Y-67500000D01*
X116600000Y-67500000D02*
X118100000Y-66000000D01*
X118200000Y-66000000D02*
X118950000Y-66000000D01*
X118100000Y-66000000D02*
X118200000Y-66000000D01*
X116600000Y-69750000D02*
X118200000Y-69750000D01*
X118200000Y-69750000D02*
X118950000Y-69000000D01*
X112150000Y-77400000D02*
X114050000Y-75500000D01*
X112150000Y-79250000D02*
X112150000Y-77400000D01*
X113400000Y-79750000D02*
X112650000Y-79750000D01*
X112650000Y-79750000D02*
X112150000Y-79250000D01*
X114050000Y-75500000D02*
X115950000Y-75500000D01*
X118950000Y-79500000D02*
X118200000Y-79500000D01*
X118200000Y-79500000D02*
X116950000Y-78250000D01*
X116950000Y-78250000D02*
X116600000Y-78250000D01*
X113450000Y-82500000D02*
X114509998Y-82500000D01*
X116600000Y-80700000D02*
X116600000Y-79750000D01*
X114509998Y-82500000D02*
X115959998Y-81050000D01*
X115959998Y-81050000D02*
X116250000Y-81050000D01*
X116250000Y-81050000D02*
X116600000Y-80700000D01*
X116550000Y-79800000D02*
X116600000Y-79750000D01*
X113400000Y-89750000D02*
X111150000Y-89750000D01*
X111150000Y-89750000D02*
X111050000Y-89650000D01*
X111050000Y-89650000D02*
X111050000Y-89000000D01*
X116600000Y-88250000D02*
X116850000Y-88250000D01*
X116850000Y-88250000D02*
X117400002Y-87699998D01*
X117400002Y-87699998D02*
X117400002Y-86650002D01*
X117400002Y-86650002D02*
X116550000Y-85800000D01*
X116550000Y-85800000D02*
X116550000Y-85500000D01*
X119800000Y-85200000D02*
X119800000Y-85150000D01*
X119800000Y-85150000D02*
X122050000Y-82900000D01*
X122050000Y-82900000D02*
X122050000Y-82500000D01*
X117800013Y-86099987D02*
X118700000Y-85200000D01*
X118700000Y-85200000D02*
X119800000Y-85200000D01*
X116600000Y-89750000D02*
X117650000Y-89750000D01*
X117800013Y-89599987D02*
X117800013Y-86099987D01*
X117650000Y-89750000D02*
X117800013Y-89599987D01*
X90299988Y-79855050D02*
X93805026Y-76350012D01*
X93805026Y-76350012D02*
X94300000Y-76350012D01*
X90299988Y-83099988D02*
X90299988Y-79855050D01*
X91899989Y-87499989D02*
X91899989Y-84099989D01*
X91500000Y-83700000D02*
X90900000Y-83700000D01*
X94500000Y-88500000D02*
X92900000Y-88500000D01*
X92900000Y-88500000D02*
X91899989Y-87499989D01*
X90900000Y-83700000D02*
X90299988Y-83099988D01*
X91899989Y-84099989D02*
X91500000Y-83700000D01*
X94550001Y-70309999D02*
X94550001Y-72800001D01*
X91459988Y-69499990D02*
X92894289Y-69499990D01*
X94490001Y-70249999D02*
X94550001Y-70309999D01*
X91099999Y-65549999D02*
X91099999Y-69140001D01*
X94550001Y-72800001D02*
X94900000Y-73150000D01*
X90050000Y-64500000D02*
X91099999Y-65549999D01*
X89400000Y-64500000D02*
X90050000Y-64500000D01*
X92894289Y-69499990D02*
X93644298Y-70249999D01*
X91099999Y-69140001D02*
X91459988Y-69499990D01*
X93644298Y-70249999D02*
X94490001Y-70249999D01*
X94550000Y-91200000D02*
X94550000Y-88550000D01*
X94550000Y-88550000D02*
X94500000Y-88500000D01*
D43*
X94550000Y-91200000D02*
X95150000Y-91200000D01*
X95150000Y-91200000D02*
X96500000Y-92550000D01*
D42*
X86800000Y-64500000D02*
X87550000Y-64500000D01*
X87550000Y-64500000D02*
X89400000Y-64500000D01*
D41*
X85250000Y-75300000D02*
X87900000Y-75300000D01*
X87900000Y-75300000D02*
X88500010Y-74699990D01*
X88500010Y-74699990D02*
X93494457Y-74699990D01*
X93494457Y-74699990D02*
X93594467Y-74800000D01*
X93594467Y-74800000D02*
X95555537Y-74800000D01*
X95555537Y-74800000D02*
X95905537Y-74450000D01*
X95905537Y-74450000D02*
X96200000Y-74450000D01*
X95865499Y-76469934D02*
X96215498Y-76119935D01*
X95285419Y-77050014D02*
X95865499Y-76469934D01*
X92350000Y-86850000D02*
X92350000Y-83750000D01*
X90749999Y-82699999D02*
X90749999Y-80264013D01*
X91200000Y-83150000D02*
X90749999Y-82699999D01*
X92650509Y-87150509D02*
X92350000Y-86850000D01*
X101000000Y-88500000D02*
X99650509Y-87150509D01*
X92350000Y-83750000D02*
X91750000Y-83150000D01*
X91750000Y-83150000D02*
X91200000Y-83150000D01*
X99650509Y-87150509D02*
X92650509Y-87150509D01*
X90749999Y-80264013D02*
X93963998Y-77050014D01*
X93963998Y-77050014D02*
X95285419Y-77050014D01*
X85250000Y-75300000D02*
X85200000Y-75350000D01*
X85200000Y-75350000D02*
X85200000Y-76793124D01*
X85200000Y-76793124D02*
X84900023Y-77093101D01*
X84900023Y-77093101D02*
X84900023Y-83100023D01*
X84900023Y-83100023D02*
X85050000Y-83250000D01*
X85050000Y-83250000D02*
X85150000Y-83350000D01*
X81550000Y-82500000D02*
X81550000Y-83050000D01*
X81550000Y-83050000D02*
X81700000Y-83200000D01*
X81700000Y-83200000D02*
X83050000Y-83200000D01*
X83050000Y-83200000D02*
X83200000Y-83350000D01*
X110600000Y-73700000D02*
X109647264Y-74652736D01*
X109647264Y-74652736D02*
X96402736Y-74652736D01*
X96402736Y-74652736D02*
X96200000Y-74450000D01*
X107950000Y-89000000D02*
X107100000Y-89000000D01*
X107100000Y-89000000D02*
X102600000Y-93500000D01*
X102600000Y-93500000D02*
X102150000Y-93500000D01*
X102150000Y-93500000D02*
X100850000Y-93500000D01*
X81550000Y-72500000D02*
X81550000Y-72199999D01*
X81550000Y-72199999D02*
X84530001Y-72199999D01*
X72950000Y-50500000D02*
X72950000Y-50900000D01*
X72950000Y-50900000D02*
X77549996Y-55499996D01*
X78286002Y-57050002D02*
X77686002Y-57050002D01*
X77549996Y-55499996D02*
X78349750Y-55499996D01*
X78349750Y-55499996D02*
X78799977Y-55950223D01*
X78799977Y-55950223D02*
X78799977Y-56536027D01*
X78799977Y-56536027D02*
X78286002Y-57050002D01*
X77686002Y-57050002D02*
X76950000Y-57786004D01*
X76950000Y-57786004D02*
X76950000Y-66130002D01*
X76950000Y-66130002D02*
X77619999Y-66800001D01*
X77619999Y-66800001D02*
X78200000Y-66800001D01*
X78200000Y-66800001D02*
X79399999Y-66800001D01*
X77849999Y-66800001D02*
X78200000Y-66800001D01*
X79399999Y-66800001D02*
X80700000Y-65500000D01*
X80700000Y-65500000D02*
X81550000Y-65500000D01*
X84800000Y-66950000D02*
X84800000Y-68485760D01*
X84800000Y-68485760D02*
X84600001Y-68685759D01*
X84600001Y-72129999D02*
X84530001Y-72199999D01*
X84600001Y-68685759D02*
X84600001Y-72129999D01*
X84600001Y-72269999D02*
X84600001Y-74650001D01*
X84530001Y-72199999D02*
X84600001Y-72269999D01*
X84600001Y-74650001D02*
X85250000Y-75300000D01*
D42*
X84800000Y-66559998D02*
X84800000Y-66950000D01*
X82909999Y-66249999D02*
X84490001Y-66249999D01*
X84490001Y-66249999D02*
X84800000Y-66559998D01*
X81550000Y-65500000D02*
X82094299Y-65500000D01*
X82094299Y-65500000D02*
X82877148Y-66282850D01*
X82877148Y-66282850D02*
X82909999Y-66249999D01*
D41*
X112000000Y-66150000D02*
X112000000Y-61650000D01*
X112000000Y-67092880D02*
X112000000Y-66150000D01*
X109500000Y-67500000D02*
X109199991Y-67800009D01*
X112000000Y-66150000D02*
X112000000Y-67300000D01*
X112000000Y-67300000D02*
X111800000Y-67500000D01*
X111800000Y-67500000D02*
X109500000Y-67500000D01*
X109900000Y-70100000D02*
X109900000Y-70400000D01*
X108800000Y-69000000D02*
X109900000Y-70100000D01*
X107950000Y-69000000D02*
X108800000Y-69000000D01*
X112900002Y-61000000D02*
X113000000Y-60900002D01*
X112000000Y-61650000D02*
X112650000Y-61000000D01*
X112650000Y-61000000D02*
X112900002Y-61000000D01*
X115350012Y-60949999D02*
X115300011Y-61000000D01*
X115399999Y-60949999D02*
X115350012Y-60949999D01*
X111094974Y-73700000D02*
X110600000Y-73700000D01*
X116100057Y-73400057D02*
X111394917Y-73400057D01*
X118200000Y-75500000D02*
X116100057Y-73400057D01*
X111394917Y-73400057D02*
X111094974Y-73700000D01*
X119050000Y-75500000D02*
X118200000Y-75500000D01*
X109199991Y-67800009D02*
X109149991Y-67800009D01*
X109149991Y-67800009D02*
X107950000Y-69000000D01*
X116550000Y-62500000D02*
X116550000Y-62100000D01*
X116550000Y-62100000D02*
X115399999Y-60949999D01*
X115399999Y-60949999D02*
X115399999Y-54900001D01*
X115399999Y-54900001D02*
X116550000Y-53750000D01*
X116550000Y-53750000D02*
X116550000Y-52500000D01*
X100850000Y-93500000D02*
X100850000Y-88650000D01*
X100850000Y-88650000D02*
X101000000Y-88500000D01*
D43*
X98900000Y-93500000D02*
X100850000Y-93500000D01*
X99500000Y-93500000D02*
X98900000Y-93500000D01*
D44*
X94550000Y-93500000D02*
X99500000Y-93500000D01*
D42*
X81550000Y-85500000D02*
X81550000Y-84350000D01*
X81550000Y-84350000D02*
X81550000Y-82500000D01*
X81550000Y-72500000D02*
X81550000Y-72100000D01*
X81550000Y-65900000D02*
X81550000Y-65500000D01*
X97200001Y-76449999D02*
X97550000Y-76100000D01*
X95150000Y-78500000D02*
X97200001Y-76449999D01*
X94000000Y-78500000D02*
X95150000Y-78500000D01*
X99491840Y-64145503D02*
X97604497Y-64145503D01*
X97450000Y-73200000D02*
X97600000Y-73350000D01*
X97604497Y-64145503D02*
X95000000Y-66750000D01*
X95000000Y-69434300D02*
X95400021Y-69834321D01*
X95000000Y-66750000D02*
X95000000Y-69434300D01*
X95400021Y-69834321D02*
X95400021Y-72044995D01*
X95400021Y-72044995D02*
X96505026Y-73150000D01*
X96505026Y-73150000D02*
X97400000Y-73150000D01*
X97400000Y-73150000D02*
X97450000Y-73200000D01*
X104600000Y-64500000D02*
X103150000Y-64500000D01*
X102800000Y-64150000D02*
X102800000Y-64050000D01*
X103150000Y-64500000D02*
X102800000Y-64150000D01*
X93850000Y-81200000D02*
X93850000Y-78650000D01*
X93850000Y-78650000D02*
X94000000Y-78500000D01*
D43*
X93850000Y-81200000D02*
X94450000Y-81200000D01*
X94450000Y-81200000D02*
X95800000Y-82550000D01*
D42*
X104600000Y-64500000D02*
X106850000Y-64500000D01*
X106850000Y-64500000D02*
X107950000Y-65600000D01*
X107950000Y-65600000D02*
X107950000Y-66000000D01*
X82600000Y-65100000D02*
X82600000Y-65440002D01*
X82600000Y-65440002D02*
X82959998Y-65800000D01*
X84716467Y-65800000D02*
X84800000Y-65883533D01*
X82959998Y-65800000D02*
X84716467Y-65800000D01*
D41*
X84800000Y-65883533D02*
X85500000Y-66583533D01*
X85500000Y-88694973D02*
X85500000Y-88199999D01*
X84730002Y-89850000D02*
X85500000Y-89080002D01*
X85500000Y-89080002D02*
X85500000Y-88694973D01*
X83569998Y-89850000D02*
X84730002Y-89850000D01*
X81550000Y-92100000D02*
X82400000Y-91250000D01*
X81550000Y-92500000D02*
X81550000Y-92100000D01*
X82400000Y-91250000D02*
X82400000Y-91019998D01*
X82400000Y-91019998D02*
X83569998Y-89850000D01*
X87250000Y-86800000D02*
X89000000Y-85050000D01*
X89000000Y-85050000D02*
X89000000Y-82300000D01*
X88600000Y-77100000D02*
X89000000Y-77500000D01*
X89000000Y-81805026D02*
X89000000Y-82300000D01*
X89000000Y-77500000D02*
X89000000Y-81805026D01*
X82600000Y-65100000D02*
X82600000Y-64300000D01*
X82600000Y-64300000D02*
X82350000Y-64050000D01*
X82350000Y-64050000D02*
X80969998Y-64050000D01*
X80969998Y-64050000D02*
X79799999Y-62880001D01*
X79799999Y-62880001D02*
X79799999Y-62400000D01*
X123100000Y-59600000D02*
X123100000Y-59450000D01*
X123100000Y-59450000D02*
X123100000Y-54950000D01*
X122050000Y-59500000D02*
X123050000Y-59500000D01*
X123050000Y-59500000D02*
X123100000Y-59450000D01*
X123100000Y-54950000D02*
X122050000Y-53900000D01*
X122050000Y-53900000D02*
X122050000Y-53500000D01*
X123100000Y-59649999D02*
X123100000Y-67550000D01*
X123100000Y-67550000D02*
X122050000Y-68600000D01*
X122050000Y-68600000D02*
X122050000Y-69000000D01*
X106793169Y-71949956D02*
X105544973Y-71949956D01*
X105544973Y-71949956D02*
X105344974Y-71749957D01*
X105344974Y-71749957D02*
X104850000Y-71749957D01*
X121686061Y-72499943D02*
X120213939Y-72499943D01*
X107443123Y-71300002D02*
X106793169Y-71949956D01*
X120213939Y-72499943D02*
X119013998Y-71300002D01*
X122050000Y-69000000D02*
X122050000Y-72136004D01*
X122050000Y-72136004D02*
X121686061Y-72499943D01*
X119013998Y-71300002D02*
X107443123Y-71300002D01*
X104850000Y-76100000D02*
X106900005Y-78150005D01*
X106900005Y-78150005D02*
X106900005Y-82849995D01*
X106900005Y-82849995D02*
X106750000Y-83000000D01*
X106750000Y-83000000D02*
X106700000Y-83000000D01*
X110799999Y-83949999D02*
X110199999Y-83349999D01*
X115700000Y-82500000D02*
X114250001Y-83949999D01*
X116550000Y-82500000D02*
X115700000Y-82500000D01*
X114250001Y-83949999D02*
X110799999Y-83949999D01*
X110199999Y-83349999D02*
X109850000Y-83000000D01*
X106350001Y-83349999D02*
X106700000Y-83000000D01*
X106200000Y-83500000D02*
X106350001Y-83349999D01*
X100150000Y-83500000D02*
X106200000Y-83500000D01*
X92400000Y-82300000D02*
X91994974Y-82300000D01*
X93600000Y-83500000D02*
X92400000Y-82300000D01*
X93850000Y-83500000D02*
X93600000Y-83500000D01*
X91994974Y-82300000D02*
X91500000Y-82300000D01*
X85150003Y-72244977D02*
X85655025Y-72749999D01*
X85500000Y-68492878D02*
X85150003Y-68842875D01*
X85500000Y-66583533D02*
X85500000Y-68492878D01*
X86800000Y-73500000D02*
X86800000Y-72000000D01*
X85150003Y-68842875D02*
X85150003Y-72244977D01*
X85655025Y-72749999D02*
X86544975Y-72749999D01*
X86800000Y-72494974D02*
X86800000Y-72000000D01*
X79799999Y-62400000D02*
X79799999Y-55499751D01*
X78450000Y-62500000D02*
X79699999Y-62500000D01*
X79699999Y-62500000D02*
X79799999Y-62400000D01*
X79799999Y-55499751D02*
X78450000Y-54149752D01*
X78450000Y-54149752D02*
X78450000Y-52500000D01*
X86800000Y-72136004D02*
X86800000Y-70100000D01*
X118950000Y-82500000D02*
X116550000Y-82500000D01*
X86800000Y-70500000D02*
X86800000Y-71750000D01*
X86800000Y-71750000D02*
X86800000Y-73500000D01*
X100150000Y-83500000D02*
X100150000Y-78650000D01*
X100150000Y-78650000D02*
X100000000Y-78500000D01*
D43*
X98200000Y-83500000D02*
X100150000Y-83500000D01*
D44*
X93850000Y-83500000D02*
X98200000Y-83500000D01*
D42*
X122050000Y-59100000D02*
X122050000Y-59500000D01*
X86800000Y-70100000D02*
X86800000Y-70500000D01*
X84099999Y-85899999D02*
X83600000Y-85400000D01*
X85812002Y-87349996D02*
X85549996Y-87349996D01*
X85549996Y-87349996D02*
X84099999Y-85899999D01*
X84850000Y-91200000D02*
X86250002Y-89799998D01*
X86250002Y-87787998D02*
X85812002Y-87349996D01*
X86250002Y-89799998D02*
X86250002Y-87787998D01*
X84600000Y-91200000D02*
X84850000Y-91200000D01*
X83600000Y-85400000D02*
X83600000Y-84692894D01*
X83600000Y-84692894D02*
X83949979Y-84342915D01*
X83949979Y-84342915D02*
X83949979Y-76394974D01*
X83949979Y-76394974D02*
X83949979Y-75900000D01*
X87850000Y-58500000D02*
X87750000Y-58600000D01*
X87750000Y-58600000D02*
X87750000Y-62590002D01*
X87750000Y-62590002D02*
X87340002Y-63000000D01*
X87650001Y-66309999D02*
X87650001Y-69150001D01*
X87340002Y-63000000D02*
X86259998Y-63000000D01*
X86259998Y-63000000D02*
X85800000Y-63459998D01*
X87590001Y-74750001D02*
X85900001Y-74750001D01*
X85899999Y-74749999D02*
X85550000Y-74400000D01*
X85800000Y-63459998D02*
X85800000Y-65540002D01*
X85800000Y-65540002D02*
X86259998Y-66000000D01*
X87340002Y-66000000D02*
X87650001Y-66309999D01*
X86259998Y-66000000D02*
X87340002Y-66000000D01*
X87650001Y-69150001D02*
X87900000Y-69400000D01*
X87900000Y-69400000D02*
X87900000Y-74440002D01*
X85900001Y-74750001D02*
X85899999Y-74749999D01*
X87900000Y-74440002D02*
X87590001Y-74750001D01*
X87850000Y-58500000D02*
X89400000Y-58500000D01*
X87550000Y-58500000D02*
X87850000Y-58500000D01*
D43*
X84600000Y-91200000D02*
X85200000Y-91200000D01*
X85200000Y-91200000D02*
X86550000Y-92550000D01*
D42*
X86800000Y-58500000D02*
X87550000Y-58500000D01*
D41*
X87150000Y-88400000D02*
X87150000Y-88000000D01*
X85736395Y-86899985D02*
X84450001Y-85613591D01*
X84450001Y-84991999D02*
X84400012Y-84942010D01*
X87150000Y-88000000D02*
X86049985Y-86899985D01*
X84336005Y-75150001D02*
X82749999Y-75150001D01*
X86049985Y-86899985D02*
X85736395Y-86899985D01*
X84450001Y-85613591D02*
X84450001Y-84991999D01*
X84400012Y-84942010D02*
X84400012Y-76585996D01*
X84400012Y-76585996D02*
X84649989Y-76336019D01*
X84649989Y-76336019D02*
X84649989Y-75463985D01*
X84649989Y-75463985D02*
X84336005Y-75150001D01*
X86800000Y-67500000D02*
X86800000Y-67900000D01*
X86800000Y-67900000D02*
X85750000Y-68950000D01*
X85750000Y-71800000D02*
X85900000Y-71950000D01*
X85900000Y-71950000D02*
X85900000Y-72000000D01*
X85750000Y-68950000D02*
X85750000Y-71800000D01*
X67950000Y-50500000D02*
X67950000Y-49100000D01*
X84280002Y-56950000D02*
X84600001Y-57269999D01*
X84650000Y-51300000D02*
X84650000Y-53680002D01*
X67950000Y-49100000D02*
X70350000Y-46700000D01*
X70350000Y-46700000D02*
X82100000Y-46700000D01*
X82100000Y-46700000D02*
X82950000Y-47550000D01*
X82700000Y-56530002D02*
X83119998Y-56950000D01*
X82950000Y-47550000D02*
X82950000Y-49600000D01*
X86800000Y-60630002D02*
X86800000Y-61500000D01*
X82950000Y-49600000D02*
X84650000Y-51300000D01*
X84650000Y-53680002D02*
X84280002Y-54050000D01*
X82700000Y-54300000D02*
X82700000Y-56530002D01*
X84280002Y-54050000D02*
X82950000Y-54050000D01*
X82950000Y-54050000D02*
X82700000Y-54300000D01*
X84600001Y-57269999D02*
X84600001Y-58430003D01*
X83119998Y-56950000D02*
X84280002Y-56950000D01*
X84600001Y-58430003D02*
X86800000Y-60630002D01*
X121350000Y-75500000D02*
X121350000Y-75994974D01*
X121000000Y-79450000D02*
X120950000Y-79500000D01*
X121350000Y-75994974D02*
X121000000Y-76344974D01*
X121000000Y-76344974D02*
X121000000Y-79450000D01*
X121200000Y-79500000D02*
X120950000Y-79500000D01*
X115550000Y-84000000D02*
X114050000Y-85500000D01*
X120950000Y-79500000D02*
X120550000Y-79900000D01*
X120550000Y-79900000D02*
X120550000Y-83300000D01*
X120550000Y-83300000D02*
X119850000Y-84000000D01*
X119850000Y-84000000D02*
X115550000Y-84000000D01*
X114050000Y-85500000D02*
X113450000Y-85500000D01*
X121349990Y-71799933D02*
X121349933Y-71799933D01*
X121349933Y-71799933D02*
X120900000Y-71350000D01*
X120900000Y-71350000D02*
X120900000Y-65950000D01*
X122050000Y-66000000D02*
X120950000Y-66000000D01*
X120950000Y-66000000D02*
X120900000Y-65950000D01*
X120900000Y-65950000D02*
X120900000Y-56500000D01*
X120900000Y-56500000D02*
X120900000Y-52050000D01*
X122050000Y-56500000D02*
X120900000Y-56500000D01*
X120900000Y-52050000D02*
X122050000Y-50900000D01*
X122050000Y-50900000D02*
X122050000Y-50500000D01*
X86800000Y-67500000D02*
X86800000Y-66700000D01*
X86800000Y-66700000D02*
X86650000Y-66850000D01*
X86473587Y-66850000D02*
X85250000Y-65626413D01*
X86650000Y-66850000D02*
X86473587Y-66850000D01*
X85250000Y-65626413D02*
X85250000Y-63373587D01*
X85250000Y-63373587D02*
X86800000Y-61823587D01*
X86800000Y-61823587D02*
X86800000Y-61500000D01*
X82400000Y-75500000D02*
X82749999Y-75150001D01*
X81550000Y-75500000D02*
X82400000Y-75500000D01*
X82749999Y-75150001D02*
X82750000Y-75150000D01*
X82750000Y-75150000D02*
X82750000Y-74950000D01*
X108300000Y-90650000D02*
X102049999Y-96900001D01*
X90900000Y-95700000D02*
X90900000Y-93500000D01*
X102049999Y-96900001D02*
X92100001Y-96900001D01*
X92100001Y-96900001D02*
X90900000Y-95700000D01*
X113450000Y-85500000D02*
X112600000Y-85500000D01*
X112600000Y-85500000D02*
X111150000Y-86950000D01*
X121400000Y-79500000D02*
X121200000Y-79500000D01*
X122050000Y-79500000D02*
X121400000Y-79500000D01*
X91000000Y-88500000D02*
X87250000Y-88500000D01*
X87250000Y-88500000D02*
X87150000Y-88400000D01*
X90900000Y-93500000D02*
X90900000Y-88600000D01*
X90900000Y-88600000D02*
X91000000Y-88500000D01*
D44*
X84600000Y-93500000D02*
X88950000Y-93500000D01*
D43*
X88950000Y-93500000D02*
X90900000Y-93500000D01*
D42*
X89400000Y-56500000D02*
X87000000Y-56500000D01*
X87000000Y-56500000D02*
X86250000Y-55750000D01*
X83800000Y-55500000D02*
X86000000Y-55500000D01*
X86000000Y-55500000D02*
X86250000Y-55750000D01*
X104600000Y-62500000D02*
X107450000Y-62500000D01*
X107450000Y-62500000D02*
X107950000Y-63000000D01*
X107950000Y-60000000D02*
X107950000Y-59600000D01*
X107950000Y-59600000D02*
X109500000Y-58050000D01*
X109500000Y-58050000D02*
X109500000Y-52294974D01*
X109500000Y-52294974D02*
X110450000Y-51344974D01*
X110450000Y-51344974D02*
X110450000Y-50850000D01*
X94194976Y-73800002D02*
X93694974Y-73300000D01*
X93099999Y-69140000D02*
X93160000Y-69200001D01*
X95212002Y-73800002D02*
X94194976Y-73800002D01*
X94005703Y-69200001D02*
X95000011Y-70194309D01*
X93694974Y-73300000D02*
X93394974Y-73300000D01*
X99350002Y-60899999D02*
X99055027Y-60899999D01*
X93394974Y-73300000D02*
X92900000Y-73300000D01*
X95550002Y-73462002D02*
X95212002Y-73800002D01*
X95550002Y-72837998D02*
X95550002Y-73462002D01*
X95000011Y-72288007D02*
X95550002Y-72837998D01*
X93160000Y-69200001D02*
X94005703Y-69200001D01*
X99055027Y-60899999D02*
X93099999Y-66855027D01*
X93099999Y-66855027D02*
X93099999Y-69140000D01*
X95000011Y-70194309D02*
X95000011Y-72288007D01*
X99700001Y-60550000D02*
X99350002Y-60899999D01*
D41*
X89800000Y-83950000D02*
X90750000Y-84900000D01*
X89800000Y-78050000D02*
X89800000Y-83950000D01*
X90750000Y-77100000D02*
X89800000Y-78050000D01*
X90750000Y-76750000D02*
X90750000Y-77100000D01*
X90750000Y-84900000D02*
X90750000Y-85250000D01*
D42*
X102850000Y-60500000D02*
X102800000Y-60550000D01*
X104600000Y-60500000D02*
X102850000Y-60500000D01*
X90750000Y-76750000D02*
X91750000Y-76750000D01*
X91750000Y-76750000D02*
X92350000Y-76150000D01*
X104600000Y-60500000D02*
X107450000Y-60500000D01*
X107450000Y-60500000D02*
X107950000Y-60000000D01*
M02*
