G04 #@! TF.FileFunction,Legend,Top*
%FSLAX46Y46*%
G04 Gerber Fmt 4.6, Leading zero omitted, Abs format (unit mm)*
G04 Created by KiCad (PCBNEW 4.0.7) date 05/23/18 21:21:20*
%MOMM*%
%LPD*%
G01*
G04 APERTURE LIST*
%ADD10C,0.100000*%
%ADD11C,0.300000*%
%ADD12C,0.150000*%
%ADD13C,0.152000*%
%ADD14C,0.120000*%
%ADD15R,1.200000X1.050000*%
%ADD16R,1.200000X0.800000*%
%ADD17R,1.900000X1.900000*%
%ADD18O,1.900000X1.900000*%
%ADD19R,1.500000X1.200000*%
%ADD20O,1.500000X1.200000*%
%ADD21R,3.700000X3.700000*%
%ADD22R,4.000000X2.200000*%
%ADD23R,1.700000X2.200000*%
%ADD24R,1.700000X2.100000*%
%ADD25C,1.650000*%
%ADD26R,0.600000X1.550000*%
%ADD27O,1.400000X2.100000*%
%ADD28R,1.400000X2.100000*%
%ADD29R,2.700000X1.400000*%
%ADD30R,1.400000X2.000000*%
%ADD31R,1.400000X1.050000*%
%ADD32O,1.400000X1.050000*%
%ADD33R,2.200000X1.500000*%
%ADD34C,1.200000*%
%ADD35C,1.900000*%
%ADD36R,1.800000X2.700000*%
%ADD37R,1.250000X0.650000*%
%ADD38R,1.400000X1.300000*%
%ADD39R,1.300000X1.400000*%
%ADD40R,1.600000X1.750000*%
%ADD41R,1.750000X1.600000*%
%ADD42R,1.270000X2.000000*%
%ADD43O,1.270000X2.000000*%
%ADD44O,2.000000X1.800000*%
G04 APERTURE END LIST*
D10*
D11*
X71250000Y-45178571D02*
X71107142Y-45107143D01*
X71035714Y-44964286D01*
X71035714Y-43678571D01*
X72392856Y-45107143D02*
X72249999Y-45178571D01*
X71964285Y-45178571D01*
X71821428Y-45107143D01*
X71749999Y-44964286D01*
X71749999Y-44392857D01*
X71821428Y-44250000D01*
X71964285Y-44178571D01*
X72249999Y-44178571D01*
X72392856Y-44250000D01*
X72464285Y-44392857D01*
X72464285Y-44535714D01*
X71749999Y-44678571D01*
X73035713Y-45107143D02*
X73178570Y-45178571D01*
X73464285Y-45178571D01*
X73607142Y-45107143D01*
X73678570Y-44964286D01*
X73678570Y-44892857D01*
X73607142Y-44750000D01*
X73464285Y-44678571D01*
X73249999Y-44678571D01*
X73107142Y-44607143D01*
X73035713Y-44464286D01*
X73035713Y-44392857D01*
X73107142Y-44250000D01*
X73249999Y-44178571D01*
X73464285Y-44178571D01*
X73607142Y-44250000D01*
X74249999Y-45107143D02*
X74392856Y-45178571D01*
X74678571Y-45178571D01*
X74821428Y-45107143D01*
X74892856Y-44964286D01*
X74892856Y-44892857D01*
X74821428Y-44750000D01*
X74678571Y-44678571D01*
X74464285Y-44678571D01*
X74321428Y-44607143D01*
X74249999Y-44464286D01*
X74249999Y-44392857D01*
X74321428Y-44250000D01*
X74464285Y-44178571D01*
X74678571Y-44178571D01*
X74821428Y-44250000D01*
X75535714Y-44607143D02*
X76678571Y-44607143D01*
X77321428Y-45107143D02*
X77464285Y-45178571D01*
X77750000Y-45178571D01*
X77892857Y-45107143D01*
X77964285Y-44964286D01*
X77964285Y-44892857D01*
X77892857Y-44750000D01*
X77750000Y-44678571D01*
X77535714Y-44678571D01*
X77392857Y-44607143D01*
X77321428Y-44464286D01*
X77321428Y-44392857D01*
X77392857Y-44250000D01*
X77535714Y-44178571D01*
X77750000Y-44178571D01*
X77892857Y-44250000D01*
X78607143Y-45178571D02*
X78607143Y-44178571D01*
X78607143Y-44321429D02*
X78678571Y-44250000D01*
X78821429Y-44178571D01*
X79035714Y-44178571D01*
X79178571Y-44250000D01*
X79250000Y-44392857D01*
X79250000Y-45178571D01*
X79250000Y-44392857D02*
X79321429Y-44250000D01*
X79464286Y-44178571D01*
X79678571Y-44178571D01*
X79821429Y-44250000D01*
X79892857Y-44392857D01*
X79892857Y-45178571D01*
X80821429Y-45178571D02*
X80678571Y-45107143D01*
X80607143Y-45035714D01*
X80535714Y-44892857D01*
X80535714Y-44464286D01*
X80607143Y-44321429D01*
X80678571Y-44250000D01*
X80821429Y-44178571D01*
X81035714Y-44178571D01*
X81178571Y-44250000D01*
X81250000Y-44321429D01*
X81321429Y-44464286D01*
X81321429Y-44892857D01*
X81250000Y-45035714D01*
X81178571Y-45107143D01*
X81035714Y-45178571D01*
X80821429Y-45178571D01*
X82607143Y-44178571D02*
X82607143Y-45392857D01*
X82535714Y-45535714D01*
X82464286Y-45607143D01*
X82321429Y-45678571D01*
X82107143Y-45678571D01*
X81964286Y-45607143D01*
X82607143Y-45107143D02*
X82464286Y-45178571D01*
X82178572Y-45178571D01*
X82035714Y-45107143D01*
X81964286Y-45035714D01*
X81892857Y-44892857D01*
X81892857Y-44464286D01*
X81964286Y-44321429D01*
X82035714Y-44250000D01*
X82178572Y-44178571D01*
X82464286Y-44178571D01*
X82607143Y-44250000D01*
X83321429Y-45035714D02*
X83392857Y-45107143D01*
X83321429Y-45178571D01*
X83250000Y-45107143D01*
X83321429Y-45035714D01*
X83321429Y-45178571D01*
X84250001Y-45178571D02*
X84107143Y-45107143D01*
X84035715Y-45035714D01*
X83964286Y-44892857D01*
X83964286Y-44464286D01*
X84035715Y-44321429D01*
X84107143Y-44250000D01*
X84250001Y-44178571D01*
X84464286Y-44178571D01*
X84607143Y-44250000D01*
X84678572Y-44321429D01*
X84750001Y-44464286D01*
X84750001Y-44892857D01*
X84678572Y-45035714D01*
X84607143Y-45107143D01*
X84464286Y-45178571D01*
X84250001Y-45178571D01*
X85392858Y-45178571D02*
X85392858Y-44178571D01*
X85392858Y-44464286D02*
X85464286Y-44321429D01*
X85535715Y-44250000D01*
X85678572Y-44178571D01*
X85821429Y-44178571D01*
X86964286Y-44178571D02*
X86964286Y-45392857D01*
X86892857Y-45535714D01*
X86821429Y-45607143D01*
X86678572Y-45678571D01*
X86464286Y-45678571D01*
X86321429Y-45607143D01*
X86964286Y-45107143D02*
X86821429Y-45178571D01*
X86535715Y-45178571D01*
X86392857Y-45107143D01*
X86321429Y-45035714D01*
X86250000Y-44892857D01*
X86250000Y-44464286D01*
X86321429Y-44321429D01*
X86392857Y-44250000D01*
X86535715Y-44178571D01*
X86821429Y-44178571D01*
X86964286Y-44250000D01*
D12*
X117207690Y-42328549D02*
X117631955Y-41904285D01*
X117450127Y-42570986D01*
X117874391Y-42146721D01*
X117692563Y-42732610D02*
X117692564Y-42773016D01*
X117652157Y-42773016D01*
X117652158Y-42732610D01*
X117692563Y-42732610D01*
X117652157Y-42773016D01*
X118137030Y-43177076D02*
X118096625Y-43177076D01*
X118015812Y-43136671D01*
X117975406Y-43096265D01*
X117935000Y-43015452D01*
X117935001Y-42934640D01*
X117955203Y-42874030D01*
X118015812Y-42773016D01*
X118076422Y-42712406D01*
X118177437Y-42651797D01*
X118238046Y-42631595D01*
X118318858Y-42631594D01*
X118399670Y-42672001D01*
X118440076Y-42712407D01*
X118480483Y-42793219D01*
X118480483Y-42833624D01*
X118318858Y-43358904D02*
X118318859Y-43399310D01*
X118278452Y-43399310D01*
X118278452Y-43358904D01*
X118318858Y-43358904D01*
X118278452Y-43399310D01*
X120202259Y-41934589D02*
X120444696Y-42177026D01*
X119899213Y-42480071D02*
X120323477Y-42055807D01*
X120121447Y-42702305D02*
X120626523Y-42641696D01*
X120404289Y-42419462D02*
X120343680Y-42924539D01*
X120505304Y-43086163D02*
X120929569Y-42661899D01*
X121030584Y-42762914D01*
X121070991Y-42843727D01*
X121070990Y-42924538D01*
X121050787Y-42985148D01*
X120990178Y-43086162D01*
X120929569Y-43146772D01*
X120828554Y-43207381D01*
X120767944Y-43227584D01*
X120687133Y-43227584D01*
X120606320Y-43187178D01*
X120505304Y-43086163D01*
X122570532Y-42611391D02*
X122631142Y-42267939D01*
X122328096Y-42368955D02*
X122752360Y-41944690D01*
X122913985Y-42106315D01*
X122934188Y-42166924D01*
X122934188Y-42207330D01*
X122913985Y-42267939D01*
X122853375Y-42328548D01*
X122792767Y-42348751D01*
X122752360Y-42348751D01*
X122691752Y-42328548D01*
X122530127Y-42166924D01*
X122711954Y-42752812D02*
X123217030Y-42692203D01*
X122994797Y-42469970D02*
X122934188Y-42975046D01*
X123095812Y-43136670D02*
X123520076Y-42712406D01*
X123621091Y-42813421D01*
X123661498Y-42894234D01*
X123661497Y-42975045D01*
X123641294Y-43035655D01*
X123580685Y-43136670D01*
X123520076Y-43197279D01*
X123419061Y-43257888D01*
X123358452Y-43278091D01*
X123277640Y-43278092D01*
X123196827Y-43237685D01*
X123095812Y-43136670D01*
X127519213Y-42156822D02*
X127842462Y-42480071D01*
X127519213Y-42480071D02*
X127842462Y-42156823D01*
X128509162Y-42621492D02*
X128307131Y-42419462D01*
X128084898Y-42601289D01*
X128125304Y-42601289D01*
X128185913Y-42621492D01*
X128286929Y-42722507D01*
X128307132Y-42783116D01*
X128307131Y-42823522D01*
X128286929Y-42884132D01*
X128185913Y-42985147D01*
X128125304Y-43005350D01*
X128084898Y-43005350D01*
X128024289Y-42985147D01*
X127923273Y-42884132D01*
X127903071Y-42823522D01*
X127903071Y-42783117D01*
X128650584Y-42762914D02*
X128367741Y-43328600D01*
X128933426Y-43045757D01*
X125443884Y-42136620D02*
X125423680Y-42076011D01*
X125363071Y-42015402D01*
X125282259Y-41974995D01*
X125201447Y-41974996D01*
X125140838Y-41995198D01*
X125039823Y-42055807D01*
X124979214Y-42116417D01*
X124918605Y-42217431D01*
X124898402Y-42278041D01*
X124898401Y-42358853D01*
X124938807Y-42439666D01*
X124979214Y-42480072D01*
X125060026Y-42520478D01*
X125100431Y-42520478D01*
X125241853Y-42379056D01*
X125161041Y-42298245D01*
X125241853Y-42742711D02*
X125666117Y-42318447D01*
X125484289Y-42985148D01*
X125908553Y-42560884D01*
X125686320Y-43187178D02*
X126110584Y-42762914D01*
X126211599Y-42863929D01*
X126252006Y-42944742D01*
X126252005Y-43025553D01*
X126231802Y-43086163D01*
X126171193Y-43187177D01*
X126110584Y-43247787D01*
X126009569Y-43308396D01*
X125948960Y-43328599D01*
X125868148Y-43328600D01*
X125787335Y-43288193D01*
X125686320Y-43187178D01*
D13*
X86831000Y-85506000D02*
X83669000Y-85506000D01*
X83669000Y-85506000D02*
X83669000Y-81494000D01*
X83669000Y-81494000D02*
X86831000Y-81494000D01*
X86831000Y-81494000D02*
X86831000Y-85506000D01*
X106819000Y-69394000D02*
X109981000Y-69394000D01*
X109981000Y-69394000D02*
X109981000Y-73406000D01*
X109981000Y-73406000D02*
X106819000Y-73406000D01*
X106819000Y-73406000D02*
X106819000Y-69394000D01*
D14*
X108885000Y-84500000D02*
X108885000Y-81700000D01*
X90855000Y-84500000D02*
X108885000Y-84500000D01*
X90855000Y-81700000D02*
X108885000Y-81700000D01*
X90855000Y-84500000D02*
X90855000Y-81700000D01*
X70690000Y-69010000D02*
X71950000Y-69010000D01*
X77510000Y-69010000D02*
X76250000Y-69010000D01*
X70690000Y-65250000D02*
X70690000Y-69010000D01*
X77510000Y-63000000D02*
X77510000Y-69010000D01*
X72100000Y-88950000D02*
X72550000Y-88950000D01*
X72100000Y-90800000D02*
X72100000Y-88950000D01*
X79900000Y-93350000D02*
X79900000Y-93100000D01*
X72100000Y-93350000D02*
X72100000Y-93100000D01*
X79900000Y-90800000D02*
X79900000Y-88950000D01*
X79900000Y-88950000D02*
X79450000Y-88950000D01*
X74300000Y-88400000D02*
X74750000Y-88400000D01*
X74300000Y-88400000D02*
X74300000Y-88850000D01*
X91880000Y-43880000D02*
X108120000Y-43880000D01*
X108120000Y-43880000D02*
X108120000Y-51500000D01*
X108120000Y-67500000D02*
X108120000Y-68120000D01*
X108120000Y-68120000D02*
X106000000Y-68120000D01*
X94000000Y-68120000D02*
X91880000Y-68120000D01*
X91880000Y-68120000D02*
X91880000Y-67500000D01*
X91880000Y-51500000D02*
X91880000Y-43880000D01*
X93260000Y-93080000D02*
X93260000Y-92150000D01*
X93260000Y-89920000D02*
X93260000Y-90850000D01*
X93260000Y-89920000D02*
X91100000Y-89920000D01*
X93260000Y-93080000D02*
X91800000Y-93080000D01*
X99760000Y-93080000D02*
X99760000Y-92150000D01*
X99760000Y-89920000D02*
X99760000Y-90850000D01*
X99760000Y-89920000D02*
X97600000Y-89920000D01*
X99760000Y-93080000D02*
X98300000Y-93080000D01*
X106260000Y-93080000D02*
X106260000Y-92150000D01*
X106260000Y-89920000D02*
X106260000Y-90850000D01*
X106260000Y-89920000D02*
X104100000Y-89920000D01*
X106260000Y-93080000D02*
X104800000Y-93080000D01*
D13*
X101300000Y-73700000D02*
X112500000Y-73700000D01*
X112500000Y-73700000D02*
X112500000Y-80500000D01*
X112500000Y-80500000D02*
X101300000Y-80500000D01*
X101300000Y-80500000D02*
X101300000Y-73700000D01*
X87850000Y-73700000D02*
X99050000Y-73700000D01*
X99050000Y-73700000D02*
X99050000Y-80500000D01*
X99050000Y-80500000D02*
X87850000Y-80500000D01*
X87850000Y-80500000D02*
X87850000Y-73700000D01*
D14*
X112800000Y-91500000D02*
X112800000Y-94300000D01*
X123200000Y-91500000D02*
X112800000Y-91500000D01*
X123200000Y-94300000D02*
X112800000Y-94300000D01*
X123200000Y-91500000D02*
X123200000Y-94300000D01*
D10*
X90390312Y-55400000D02*
G75*
G03X90390312Y-55400000I-640312J0D01*
G01*
X86000000Y-95500000D02*
G75*
G03X86000000Y-95500000I-1000000J0D01*
G01*
X92140312Y-88500000D02*
G75*
G03X92140312Y-88500000I-640312J0D01*
G01*
X114490000Y-45000000D02*
G75*
G03X114490000Y-45000000I-1000000J0D01*
G01*
X117030000Y-45000000D02*
G75*
G03X117030000Y-45000000I-1000000J0D01*
G01*
X98640312Y-88500000D02*
G75*
G03X98640312Y-88500000I-640312J0D01*
G01*
X105140312Y-88500000D02*
G75*
G03X105140312Y-88500000I-640312J0D01*
G01*
X71240312Y-70400000D02*
G75*
G03X71240312Y-70400000I-640312J0D01*
G01*
X71240312Y-73200000D02*
G75*
G03X71240312Y-73200000I-640312J0D01*
G01*
X94640312Y-88500000D02*
G75*
G03X94640312Y-88500000I-640312J0D01*
G01*
X101140312Y-88500000D02*
G75*
G03X101140312Y-88500000I-640312J0D01*
G01*
X107640312Y-88500000D02*
G75*
G03X107640312Y-88500000I-640312J0D01*
G01*
X78940312Y-70600000D02*
G75*
G03X78940312Y-70600000I-640312J0D01*
G01*
X130000000Y-96000000D02*
G75*
G03X130000000Y-96000000I-1000000J0D01*
G01*
D14*
X130120000Y-46400000D02*
X130120000Y-43600000D01*
X117170000Y-46400000D02*
X130120000Y-46400000D01*
X117170000Y-43600000D02*
X130120000Y-43600000D01*
X117170000Y-46400000D02*
X117170000Y-43600000D01*
D12*
X119800000Y-105300000D02*
X117400000Y-105300000D01*
D13*
X94606000Y-69794000D02*
X94606000Y-71406000D01*
X94606000Y-71406000D02*
X91194000Y-71406000D01*
X91194000Y-71406000D02*
X91194000Y-69794000D01*
X91194000Y-69794000D02*
X94606000Y-69794000D01*
X113494000Y-75006000D02*
X113494000Y-73394000D01*
X113494000Y-73394000D02*
X116906000Y-73394000D01*
X116906000Y-73394000D02*
X116906000Y-75006000D01*
X116906000Y-75006000D02*
X113494000Y-75006000D01*
X116294000Y-100606000D02*
X116294000Y-98994000D01*
X116294000Y-98994000D02*
X119706000Y-98994000D01*
X119706000Y-98994000D02*
X119706000Y-100606000D01*
X119706000Y-100606000D02*
X116294000Y-100606000D01*
X129406000Y-86806000D02*
X127794000Y-86806000D01*
X127794000Y-86806000D02*
X127794000Y-83394000D01*
X127794000Y-83394000D02*
X129406000Y-83394000D01*
X129406000Y-83394000D02*
X129406000Y-86806000D01*
X127506000Y-54294000D02*
X127506000Y-55906000D01*
X127506000Y-55906000D02*
X124094000Y-55906000D01*
X124094000Y-55906000D02*
X124094000Y-54294000D01*
X124094000Y-54294000D02*
X127506000Y-54294000D01*
X127506000Y-52094000D02*
X127506000Y-53706000D01*
X127506000Y-53706000D02*
X124094000Y-53706000D01*
X124094000Y-53706000D02*
X124094000Y-52094000D01*
X124094000Y-52094000D02*
X127506000Y-52094000D01*
X127506000Y-49894000D02*
X127506000Y-51506000D01*
X127506000Y-51506000D02*
X124094000Y-51506000D01*
X124094000Y-51506000D02*
X124094000Y-49894000D01*
X124094000Y-49894000D02*
X127506000Y-49894000D01*
X129406000Y-78806000D02*
X127794000Y-78806000D01*
X127794000Y-78806000D02*
X127794000Y-75394000D01*
X127794000Y-75394000D02*
X129406000Y-75394000D01*
X129406000Y-75394000D02*
X129406000Y-78806000D01*
X127794000Y-79394000D02*
X129406000Y-79394000D01*
X129406000Y-79394000D02*
X129406000Y-82806000D01*
X129406000Y-82806000D02*
X127794000Y-82806000D01*
X127794000Y-82806000D02*
X127794000Y-79394000D01*
X70994000Y-76931000D02*
X70994000Y-74869000D01*
X70994000Y-74869000D02*
X74806000Y-74869000D01*
X74806000Y-74869000D02*
X74806000Y-76931000D01*
X74806000Y-76931000D02*
X70994000Y-76931000D01*
X70194000Y-62431000D02*
X70194000Y-60369000D01*
X70194000Y-60369000D02*
X74006000Y-60369000D01*
X74006000Y-60369000D02*
X74006000Y-62431000D01*
X74006000Y-62431000D02*
X70194000Y-62431000D01*
X79306000Y-74869000D02*
X79306000Y-76931000D01*
X79306000Y-76931000D02*
X75494000Y-76931000D01*
X75494000Y-76931000D02*
X75494000Y-74869000D01*
X75494000Y-74869000D02*
X79306000Y-74869000D01*
X74094000Y-62431000D02*
X74094000Y-60369000D01*
X74094000Y-60369000D02*
X77906000Y-60369000D01*
X77906000Y-60369000D02*
X77906000Y-62431000D01*
X77906000Y-62431000D02*
X74094000Y-62431000D01*
X95194000Y-71831000D02*
X95194000Y-69769000D01*
X95194000Y-69769000D02*
X99006000Y-69769000D01*
X99006000Y-69769000D02*
X99006000Y-71831000D01*
X99006000Y-71831000D02*
X95194000Y-71831000D01*
X129431000Y-92806000D02*
X127369000Y-92806000D01*
X127369000Y-92806000D02*
X127369000Y-88994000D01*
X127369000Y-88994000D02*
X129431000Y-88994000D01*
X129431000Y-88994000D02*
X129431000Y-92806000D01*
D14*
X120010730Y-88000000D02*
G75*
G03X114333000Y-86603000I-3010730J0D01*
G01*
X120010730Y-88000000D02*
G75*
G02X114333000Y-89397000I-3010730J0D01*
G01*
X119254479Y-86919571D02*
G75*
G03X114745316Y-86920000I-2254479J-1080429D01*
G01*
X119254479Y-89080429D02*
G75*
G02X114745316Y-89080000I-2254479J1080429D01*
G01*
X114333000Y-86603000D02*
X114333000Y-89397000D01*
X120010730Y-78500000D02*
G75*
G03X114333000Y-77103000I-3010730J0D01*
G01*
X120010730Y-78500000D02*
G75*
G02X114333000Y-79897000I-3010730J0D01*
G01*
X119254479Y-77419571D02*
G75*
G03X114745316Y-77420000I-2254479J-1080429D01*
G01*
X119254479Y-79580429D02*
G75*
G02X114745316Y-79580000I-2254479J1080429D01*
G01*
X114333000Y-77103000D02*
X114333000Y-79897000D01*
X120010730Y-69000000D02*
G75*
G03X114333000Y-67603000I-3010730J0D01*
G01*
X120010730Y-69000000D02*
G75*
G02X114333000Y-70397000I-3010730J0D01*
G01*
X119254479Y-67919571D02*
G75*
G03X114745316Y-67920000I-2254479J-1080429D01*
G01*
X119254479Y-70080429D02*
G75*
G02X114745316Y-70080000I-2254479J1080429D01*
G01*
X114333000Y-67603000D02*
X114333000Y-70397000D01*
X120010730Y-59500000D02*
G75*
G03X114333000Y-58103000I-3010730J0D01*
G01*
X120010730Y-59500000D02*
G75*
G02X114333000Y-60897000I-3010730J0D01*
G01*
X119254479Y-58419571D02*
G75*
G03X114745316Y-58420000I-2254479J-1080429D01*
G01*
X119254479Y-60580429D02*
G75*
G02X114745316Y-60580000I-2254479J1080429D01*
G01*
X114333000Y-58103000D02*
X114333000Y-60897000D01*
X120010730Y-50000000D02*
G75*
G03X114333000Y-48603000I-3010730J0D01*
G01*
X120010730Y-50000000D02*
G75*
G02X114333000Y-51397000I-3010730J0D01*
G01*
X119254479Y-48919571D02*
G75*
G03X114745316Y-48920000I-2254479J-1080429D01*
G01*
X119254479Y-51080429D02*
G75*
G02X114745316Y-51080000I-2254479J1080429D01*
G01*
X114333000Y-48603000D02*
X114333000Y-51397000D01*
X86010730Y-88000000D02*
G75*
G03X80333000Y-86603000I-3010730J0D01*
G01*
X86010730Y-88000000D02*
G75*
G02X80333000Y-89397000I-3010730J0D01*
G01*
X85254479Y-86919571D02*
G75*
G03X80745316Y-86920000I-2254479J-1080429D01*
G01*
X85254479Y-89080429D02*
G75*
G02X80745316Y-89080000I-2254479J1080429D01*
G01*
X80333000Y-86603000D02*
X80333000Y-89397000D01*
X86010730Y-78500000D02*
G75*
G03X80333000Y-77103000I-3010730J0D01*
G01*
X86010730Y-78500000D02*
G75*
G02X80333000Y-79897000I-3010730J0D01*
G01*
X85254479Y-77419571D02*
G75*
G03X80745316Y-77420000I-2254479J-1080429D01*
G01*
X85254479Y-79580429D02*
G75*
G02X80745316Y-79580000I-2254479J1080429D01*
G01*
X80333000Y-77103000D02*
X80333000Y-79897000D01*
X86010730Y-69000000D02*
G75*
G03X80333000Y-67603000I-3010730J0D01*
G01*
X86010730Y-69000000D02*
G75*
G02X80333000Y-70397000I-3010730J0D01*
G01*
X85254479Y-67919571D02*
G75*
G03X80745316Y-67920000I-2254479J-1080429D01*
G01*
X85254479Y-70080429D02*
G75*
G02X80745316Y-70080000I-2254479J1080429D01*
G01*
X80333000Y-67603000D02*
X80333000Y-70397000D01*
X86010730Y-59500000D02*
G75*
G03X80333000Y-58103000I-3010730J0D01*
G01*
X86010730Y-59500000D02*
G75*
G02X80333000Y-60897000I-3010730J0D01*
G01*
X85254479Y-58419571D02*
G75*
G03X80745316Y-58420000I-2254479J-1080429D01*
G01*
X85254479Y-60580429D02*
G75*
G02X80745316Y-60580000I-2254479J1080429D01*
G01*
X80333000Y-58103000D02*
X80333000Y-60897000D01*
X86010730Y-50000000D02*
G75*
G03X80333000Y-48603000I-3010730J0D01*
G01*
X86010730Y-50000000D02*
G75*
G02X80333000Y-51397000I-3010730J0D01*
G01*
X85254479Y-48919571D02*
G75*
G03X80745316Y-48920000I-2254479J-1080429D01*
G01*
X85254479Y-51080429D02*
G75*
G02X80745316Y-51080000I-2254479J1080429D01*
G01*
X80333000Y-48603000D02*
X80333000Y-51397000D01*
D13*
X82581000Y-56756000D02*
X79419000Y-56756000D01*
X79419000Y-56756000D02*
X79419000Y-52744000D01*
X79419000Y-52744000D02*
X82581000Y-52744000D01*
X82581000Y-52744000D02*
X82581000Y-56756000D01*
X82581000Y-66256000D02*
X79419000Y-66256000D01*
X79419000Y-66256000D02*
X79419000Y-62244000D01*
X79419000Y-62244000D02*
X82581000Y-62244000D01*
X82581000Y-62244000D02*
X82581000Y-66256000D01*
X86581000Y-66256000D02*
X83419000Y-66256000D01*
X83419000Y-66256000D02*
X83419000Y-62244000D01*
X83419000Y-62244000D02*
X86581000Y-62244000D01*
X86581000Y-62244000D02*
X86581000Y-66256000D01*
X82831000Y-85256000D02*
X79669000Y-85256000D01*
X79669000Y-85256000D02*
X79669000Y-81244000D01*
X79669000Y-81244000D02*
X82831000Y-81244000D01*
X82831000Y-81244000D02*
X82831000Y-85256000D01*
X120331000Y-56756000D02*
X117169000Y-56756000D01*
X117169000Y-56756000D02*
X117169000Y-52744000D01*
X117169000Y-52744000D02*
X120331000Y-52744000D01*
X120331000Y-52744000D02*
X120331000Y-56756000D01*
X116581000Y-66256000D02*
X113419000Y-66256000D01*
X113419000Y-66256000D02*
X113419000Y-62244000D01*
X113419000Y-62244000D02*
X116581000Y-62244000D01*
X116581000Y-62244000D02*
X116581000Y-66256000D01*
X120581000Y-66256000D02*
X117419000Y-66256000D01*
X117419000Y-66256000D02*
X117419000Y-62244000D01*
X117419000Y-62244000D02*
X120581000Y-62244000D01*
X120581000Y-62244000D02*
X120581000Y-66256000D01*
X117419000Y-81244000D02*
X120581000Y-81244000D01*
X120581000Y-81244000D02*
X120581000Y-85256000D01*
X120581000Y-85256000D02*
X117419000Y-85256000D01*
X117419000Y-85256000D02*
X117419000Y-81244000D01*
X113419000Y-81244000D02*
X116581000Y-81244000D01*
X116581000Y-81244000D02*
X116581000Y-85256000D01*
X116581000Y-85256000D02*
X113419000Y-85256000D01*
X113419000Y-85256000D02*
X113419000Y-81244000D01*
X85619000Y-52894000D02*
X88781000Y-52894000D01*
X88781000Y-52894000D02*
X88781000Y-56906000D01*
X88781000Y-56906000D02*
X85619000Y-56906000D01*
X85619000Y-56906000D02*
X85619000Y-52894000D01*
D12*
X88161905Y-84152381D02*
X87780952Y-84419048D01*
X88161905Y-84609524D02*
X87361905Y-84609524D01*
X87361905Y-84304762D01*
X87400000Y-84228571D01*
X87438095Y-84190476D01*
X87514286Y-84152381D01*
X87628571Y-84152381D01*
X87704762Y-84190476D01*
X87742857Y-84228571D01*
X87780952Y-84304762D01*
X87780952Y-84609524D01*
X88161905Y-83809524D02*
X87361905Y-83809524D01*
X88161905Y-83352381D01*
X87361905Y-83352381D01*
X87361905Y-82590476D02*
X87361905Y-82971429D01*
X87742857Y-83009524D01*
X87704762Y-82971429D01*
X87666667Y-82895238D01*
X87666667Y-82704762D01*
X87704762Y-82628572D01*
X87742857Y-82590476D01*
X87819048Y-82552381D01*
X88009524Y-82552381D01*
X88085714Y-82590476D01*
X88123810Y-82628572D01*
X88161905Y-82704762D01*
X88161905Y-82895238D01*
X88123810Y-82971429D01*
X88085714Y-83009524D01*
X107500000Y-69071429D02*
X107300000Y-68785714D01*
X107157143Y-69071429D02*
X107157143Y-68471429D01*
X107385715Y-68471429D01*
X107442857Y-68500000D01*
X107471429Y-68528571D01*
X107500000Y-68585714D01*
X107500000Y-68671429D01*
X107471429Y-68728571D01*
X107442857Y-68757143D01*
X107385715Y-68785714D01*
X107157143Y-68785714D01*
X107757143Y-69071429D02*
X107757143Y-68471429D01*
X108100000Y-69071429D01*
X108100000Y-68471429D01*
X108700000Y-69071429D02*
X108357143Y-69071429D01*
X108528571Y-69071429D02*
X108528571Y-68471429D01*
X108471428Y-68557143D01*
X108414286Y-68614286D01*
X108357143Y-68642857D01*
X109271429Y-69071429D02*
X108928572Y-69071429D01*
X109100000Y-69071429D02*
X109100000Y-68471429D01*
X109042857Y-68557143D01*
X108985715Y-68614286D01*
X108928572Y-68642857D01*
X102728572Y-85685714D02*
X102690477Y-85723810D01*
X102576191Y-85761905D01*
X102500001Y-85761905D01*
X102385715Y-85723810D01*
X102309524Y-85647619D01*
X102271429Y-85571429D01*
X102233334Y-85419048D01*
X102233334Y-85304762D01*
X102271429Y-85152381D01*
X102309524Y-85076190D01*
X102385715Y-85000000D01*
X102500001Y-84961905D01*
X102576191Y-84961905D01*
X102690477Y-85000000D01*
X102728572Y-85038095D01*
X103223810Y-84961905D02*
X103376191Y-84961905D01*
X103452382Y-85000000D01*
X103528572Y-85076190D01*
X103566667Y-85228571D01*
X103566667Y-85495238D01*
X103528572Y-85647619D01*
X103452382Y-85723810D01*
X103376191Y-85761905D01*
X103223810Y-85761905D01*
X103147620Y-85723810D01*
X103071429Y-85647619D01*
X103033334Y-85495238D01*
X103033334Y-85228571D01*
X103071429Y-85076190D01*
X103147620Y-85000000D01*
X103223810Y-84961905D01*
X103909524Y-85761905D02*
X103909524Y-84961905D01*
X104366667Y-85761905D01*
X104366667Y-84961905D01*
X105090476Y-84961905D02*
X104938095Y-84961905D01*
X104861905Y-85000000D01*
X104823810Y-85038095D01*
X104747619Y-85152381D01*
X104709524Y-85304762D01*
X104709524Y-85609524D01*
X104747619Y-85685714D01*
X104785714Y-85723810D01*
X104861905Y-85761905D01*
X105014286Y-85761905D01*
X105090476Y-85723810D01*
X105128572Y-85685714D01*
X105166667Y-85609524D01*
X105166667Y-85419048D01*
X105128572Y-85342857D01*
X105090476Y-85304762D01*
X105014286Y-85266667D01*
X104861905Y-85266667D01*
X104785714Y-85304762D01*
X104747619Y-85342857D01*
X104709524Y-85419048D01*
X69461905Y-67809524D02*
X70109524Y-67809524D01*
X70185714Y-67771429D01*
X70223810Y-67733333D01*
X70261905Y-67657143D01*
X70261905Y-67504762D01*
X70223810Y-67428571D01*
X70185714Y-67390476D01*
X70109524Y-67352381D01*
X69461905Y-67352381D01*
X69538095Y-67009524D02*
X69500000Y-66971429D01*
X69461905Y-66895238D01*
X69461905Y-66704762D01*
X69500000Y-66628572D01*
X69538095Y-66590476D01*
X69614286Y-66552381D01*
X69690476Y-66552381D01*
X69804762Y-66590476D01*
X70261905Y-67047619D01*
X70261905Y-66552381D01*
X71185714Y-91671428D02*
X71223810Y-91709523D01*
X71261905Y-91823809D01*
X71261905Y-91899999D01*
X71223810Y-92014285D01*
X71147619Y-92090476D01*
X71071429Y-92128571D01*
X70919048Y-92166666D01*
X70804762Y-92166666D01*
X70652381Y-92128571D01*
X70576190Y-92090476D01*
X70500000Y-92014285D01*
X70461905Y-91899999D01*
X70461905Y-91823809D01*
X70500000Y-91709523D01*
X70538095Y-91671428D01*
X70461905Y-91176190D02*
X70461905Y-91023809D01*
X70500000Y-90947618D01*
X70576190Y-90871428D01*
X70728571Y-90833333D01*
X70995238Y-90833333D01*
X71147619Y-90871428D01*
X71223810Y-90947618D01*
X71261905Y-91023809D01*
X71261905Y-91176190D01*
X71223810Y-91252380D01*
X71147619Y-91328571D01*
X70995238Y-91366666D01*
X70728571Y-91366666D01*
X70576190Y-91328571D01*
X70500000Y-91252380D01*
X70461905Y-91176190D01*
X71261905Y-90490476D02*
X70461905Y-90490476D01*
X71261905Y-90033333D01*
X70461905Y-90033333D01*
X71261905Y-89233333D02*
X71261905Y-89690476D01*
X71261905Y-89461905D02*
X70461905Y-89461905D01*
X70576190Y-89538095D01*
X70652381Y-89614286D01*
X70690476Y-89690476D01*
X99390476Y-42661905D02*
X99390476Y-43309524D01*
X99428571Y-43385714D01*
X99466667Y-43423810D01*
X99542857Y-43461905D01*
X99695238Y-43461905D01*
X99771429Y-43423810D01*
X99809524Y-43385714D01*
X99847619Y-43309524D01*
X99847619Y-42661905D01*
X100152381Y-42661905D02*
X100647619Y-42661905D01*
X100380952Y-42966667D01*
X100495238Y-42966667D01*
X100571428Y-43004762D01*
X100609524Y-43042857D01*
X100647619Y-43119048D01*
X100647619Y-43309524D01*
X100609524Y-43385714D01*
X100571428Y-43423810D01*
X100495238Y-43461905D01*
X100266666Y-43461905D01*
X100190476Y-43423810D01*
X100152381Y-43385714D01*
X92623810Y-94338095D02*
X92547619Y-94300000D01*
X92471429Y-94223810D01*
X92357143Y-94109524D01*
X92280952Y-94071429D01*
X92204762Y-94071429D01*
X92242857Y-94261905D02*
X92166667Y-94223810D01*
X92090476Y-94147619D01*
X92052381Y-93995238D01*
X92052381Y-93728571D01*
X92090476Y-93576190D01*
X92166667Y-93500000D01*
X92242857Y-93461905D01*
X92395238Y-93461905D01*
X92471429Y-93500000D01*
X92547619Y-93576190D01*
X92585714Y-93728571D01*
X92585714Y-93995238D01*
X92547619Y-94147619D01*
X92471429Y-94223810D01*
X92395238Y-94261905D01*
X92242857Y-94261905D01*
X93347619Y-94261905D02*
X92890476Y-94261905D01*
X93119047Y-94261905D02*
X93119047Y-93461905D01*
X93042857Y-93576190D01*
X92966666Y-93652381D01*
X92890476Y-93690476D01*
X98923810Y-94438095D02*
X98847619Y-94400000D01*
X98771429Y-94323810D01*
X98657143Y-94209524D01*
X98580952Y-94171429D01*
X98504762Y-94171429D01*
X98542857Y-94361905D02*
X98466667Y-94323810D01*
X98390476Y-94247619D01*
X98352381Y-94095238D01*
X98352381Y-93828571D01*
X98390476Y-93676190D01*
X98466667Y-93600000D01*
X98542857Y-93561905D01*
X98695238Y-93561905D01*
X98771429Y-93600000D01*
X98847619Y-93676190D01*
X98885714Y-93828571D01*
X98885714Y-94095238D01*
X98847619Y-94247619D01*
X98771429Y-94323810D01*
X98695238Y-94361905D01*
X98542857Y-94361905D01*
X99190476Y-93638095D02*
X99228571Y-93600000D01*
X99304762Y-93561905D01*
X99495238Y-93561905D01*
X99571428Y-93600000D01*
X99609524Y-93638095D01*
X99647619Y-93714286D01*
X99647619Y-93790476D01*
X99609524Y-93904762D01*
X99152381Y-94361905D01*
X99647619Y-94361905D01*
X105523810Y-94338095D02*
X105447619Y-94300000D01*
X105371429Y-94223810D01*
X105257143Y-94109524D01*
X105180952Y-94071429D01*
X105104762Y-94071429D01*
X105142857Y-94261905D02*
X105066667Y-94223810D01*
X104990476Y-94147619D01*
X104952381Y-93995238D01*
X104952381Y-93728571D01*
X104990476Y-93576190D01*
X105066667Y-93500000D01*
X105142857Y-93461905D01*
X105295238Y-93461905D01*
X105371429Y-93500000D01*
X105447619Y-93576190D01*
X105485714Y-93728571D01*
X105485714Y-93995238D01*
X105447619Y-94147619D01*
X105371429Y-94223810D01*
X105295238Y-94261905D01*
X105142857Y-94261905D01*
X105752381Y-93461905D02*
X106247619Y-93461905D01*
X105980952Y-93766667D01*
X106095238Y-93766667D01*
X106171428Y-93804762D01*
X106209524Y-93842857D01*
X106247619Y-93919048D01*
X106247619Y-94109524D01*
X106209524Y-94185714D01*
X106171428Y-94223810D01*
X106095238Y-94261905D01*
X105866666Y-94261905D01*
X105790476Y-94223810D01*
X105752381Y-94185714D01*
X101747619Y-73352381D02*
X101414285Y-72876190D01*
X101176190Y-73352381D02*
X101176190Y-72352381D01*
X101557143Y-72352381D01*
X101652381Y-72400000D01*
X101700000Y-72447619D01*
X101747619Y-72542857D01*
X101747619Y-72685714D01*
X101700000Y-72780952D01*
X101652381Y-72828571D01*
X101557143Y-72876190D01*
X101176190Y-72876190D01*
X102176190Y-72828571D02*
X102509524Y-72828571D01*
X102652381Y-73352381D02*
X102176190Y-73352381D01*
X102176190Y-72352381D01*
X102652381Y-72352381D01*
X103033333Y-73304762D02*
X103176190Y-73352381D01*
X103414286Y-73352381D01*
X103509524Y-73304762D01*
X103557143Y-73257143D01*
X103604762Y-73161905D01*
X103604762Y-73066667D01*
X103557143Y-72971429D01*
X103509524Y-72923810D01*
X103414286Y-72876190D01*
X103223809Y-72828571D01*
X103128571Y-72780952D01*
X103080952Y-72733333D01*
X103033333Y-72638095D01*
X103033333Y-72542857D01*
X103080952Y-72447619D01*
X103128571Y-72400000D01*
X103223809Y-72352381D01*
X103461905Y-72352381D01*
X103604762Y-72400000D01*
X104033333Y-72828571D02*
X104366667Y-72828571D01*
X104509524Y-73352381D02*
X104033333Y-73352381D01*
X104033333Y-72352381D01*
X104509524Y-72352381D01*
X104795238Y-72352381D02*
X105366667Y-72352381D01*
X105080952Y-73352381D02*
X105080952Y-72352381D01*
X89480953Y-73357143D02*
X89433334Y-73404762D01*
X89290477Y-73452381D01*
X89195239Y-73452381D01*
X89052381Y-73404762D01*
X88957143Y-73309524D01*
X88909524Y-73214286D01*
X88861905Y-73023810D01*
X88861905Y-72880952D01*
X88909524Y-72690476D01*
X88957143Y-72595238D01*
X89052381Y-72500000D01*
X89195239Y-72452381D01*
X89290477Y-72452381D01*
X89433334Y-72500000D01*
X89480953Y-72547619D01*
X90242858Y-72928571D02*
X89909524Y-72928571D01*
X89909524Y-73452381D02*
X89909524Y-72452381D01*
X90385715Y-72452381D01*
X91290477Y-72500000D02*
X91195239Y-72452381D01*
X91052382Y-72452381D01*
X90909524Y-72500000D01*
X90814286Y-72595238D01*
X90766667Y-72690476D01*
X90719048Y-72880952D01*
X90719048Y-73023810D01*
X90766667Y-73214286D01*
X90814286Y-73309524D01*
X90909524Y-73404762D01*
X91052382Y-73452381D01*
X91147620Y-73452381D01*
X91290477Y-73404762D01*
X91338096Y-73357143D01*
X91338096Y-73023810D01*
X91147620Y-73023810D01*
X112285714Y-93971428D02*
X112323810Y-94009523D01*
X112361905Y-94123809D01*
X112361905Y-94199999D01*
X112323810Y-94314285D01*
X112247619Y-94390476D01*
X112171429Y-94428571D01*
X112019048Y-94466666D01*
X111904762Y-94466666D01*
X111752381Y-94428571D01*
X111676190Y-94390476D01*
X111600000Y-94314285D01*
X111561905Y-94199999D01*
X111561905Y-94123809D01*
X111600000Y-94009523D01*
X111638095Y-93971428D01*
X111561905Y-93476190D02*
X111561905Y-93323809D01*
X111600000Y-93247618D01*
X111676190Y-93171428D01*
X111828571Y-93133333D01*
X112095238Y-93133333D01*
X112247619Y-93171428D01*
X112323810Y-93247618D01*
X112361905Y-93323809D01*
X112361905Y-93476190D01*
X112323810Y-93552380D01*
X112247619Y-93628571D01*
X112095238Y-93666666D01*
X111828571Y-93666666D01*
X111676190Y-93628571D01*
X111600000Y-93552380D01*
X111561905Y-93476190D01*
X112361905Y-92790476D02*
X111561905Y-92790476D01*
X112361905Y-92333333D01*
X111561905Y-92333333D01*
X111828571Y-91609524D02*
X112361905Y-91609524D01*
X111523810Y-91800000D02*
X112095238Y-91990476D01*
X112095238Y-91495238D01*
X89742857Y-60557143D02*
X89742857Y-60290476D01*
X90161905Y-60176190D02*
X90161905Y-60557143D01*
X89361905Y-60557143D01*
X89361905Y-60176190D01*
X90123810Y-59871428D02*
X90161905Y-59757142D01*
X90161905Y-59566666D01*
X90123810Y-59490476D01*
X90085714Y-59452380D01*
X90009524Y-59414285D01*
X89933333Y-59414285D01*
X89857143Y-59452380D01*
X89819048Y-59490476D01*
X89780952Y-59566666D01*
X89742857Y-59719047D01*
X89704762Y-59795238D01*
X89666667Y-59833333D01*
X89590476Y-59871428D01*
X89514286Y-59871428D01*
X89438095Y-59833333D01*
X89400000Y-59795238D01*
X89361905Y-59719047D01*
X89361905Y-59528571D01*
X89400000Y-59414285D01*
X90161905Y-59071428D02*
X89361905Y-59071428D01*
X89361905Y-58766666D01*
X89400000Y-58690475D01*
X89438095Y-58652380D01*
X89514286Y-58614285D01*
X89628571Y-58614285D01*
X89704762Y-58652380D01*
X89742857Y-58690475D01*
X89780952Y-58766666D01*
X89780952Y-59071428D01*
X90238095Y-58461904D02*
X90238095Y-57852380D01*
X90161905Y-57661904D02*
X89361905Y-57661904D01*
X89361905Y-57357142D01*
X89400000Y-57280951D01*
X89438095Y-57242856D01*
X89514286Y-57204761D01*
X89628571Y-57204761D01*
X89704762Y-57242856D01*
X89742857Y-57280951D01*
X89780952Y-57357142D01*
X89780952Y-57661904D01*
X90161905Y-56861904D02*
X89361905Y-56861904D01*
X89361905Y-56671428D01*
X89400000Y-56557142D01*
X89476190Y-56480951D01*
X89552381Y-56442856D01*
X89704762Y-56404761D01*
X89819048Y-56404761D01*
X89971429Y-56442856D01*
X90047619Y-56480951D01*
X90123810Y-56557142D01*
X90161905Y-56671428D01*
X90161905Y-56861904D01*
X84542858Y-93700000D02*
X84485715Y-93671429D01*
X84400001Y-93671429D01*
X84314286Y-93700000D01*
X84257144Y-93757143D01*
X84228572Y-93814286D01*
X84200001Y-93928571D01*
X84200001Y-94014286D01*
X84228572Y-94128571D01*
X84257144Y-94185714D01*
X84314286Y-94242857D01*
X84400001Y-94271429D01*
X84457144Y-94271429D01*
X84542858Y-94242857D01*
X84571429Y-94214286D01*
X84571429Y-94014286D01*
X84457144Y-94014286D01*
X84828572Y-94271429D02*
X84828572Y-93671429D01*
X85171429Y-94271429D01*
X85171429Y-93671429D01*
X85457143Y-94271429D02*
X85457143Y-93671429D01*
X85600000Y-93671429D01*
X85685715Y-93700000D01*
X85742857Y-93757143D01*
X85771429Y-93814286D01*
X85800000Y-93928571D01*
X85800000Y-94014286D01*
X85771429Y-94128571D01*
X85742857Y-94185714D01*
X85685715Y-94242857D01*
X85600000Y-94271429D01*
X85457143Y-94271429D01*
X88690476Y-88161905D02*
X89147619Y-88161905D01*
X88919048Y-88961905D02*
X88919048Y-88161905D01*
X89414286Y-88961905D02*
X89414286Y-88161905D01*
X89719048Y-88161905D01*
X89795239Y-88200000D01*
X89833334Y-88238095D01*
X89871429Y-88314286D01*
X89871429Y-88428571D01*
X89833334Y-88504762D01*
X89795239Y-88542857D01*
X89719048Y-88580952D01*
X89414286Y-88580952D01*
X90138096Y-88161905D02*
X90633334Y-88161905D01*
X90366667Y-88466667D01*
X90480953Y-88466667D01*
X90557143Y-88504762D01*
X90595239Y-88542857D01*
X90633334Y-88619048D01*
X90633334Y-88809524D01*
X90595239Y-88885714D01*
X90557143Y-88923810D01*
X90480953Y-88961905D01*
X90252381Y-88961905D01*
X90176191Y-88923810D01*
X90138096Y-88885714D01*
X112480476Y-42861905D02*
X112937619Y-42861905D01*
X112709048Y-43661905D02*
X112709048Y-42861905D01*
X113204286Y-43661905D02*
X113204286Y-42861905D01*
X113509048Y-42861905D01*
X113585239Y-42900000D01*
X113623334Y-42938095D01*
X113661429Y-43014286D01*
X113661429Y-43128571D01*
X113623334Y-43204762D01*
X113585239Y-43242857D01*
X113509048Y-43280952D01*
X113204286Y-43280952D01*
X114347143Y-43128571D02*
X114347143Y-43661905D01*
X114156667Y-42823810D02*
X113966191Y-43395238D01*
X114461429Y-43395238D01*
X115020476Y-42861905D02*
X115477619Y-42861905D01*
X115249048Y-43661905D02*
X115249048Y-42861905D01*
X115744286Y-43661905D02*
X115744286Y-42861905D01*
X116049048Y-42861905D01*
X116125239Y-42900000D01*
X116163334Y-42938095D01*
X116201429Y-43014286D01*
X116201429Y-43128571D01*
X116163334Y-43204762D01*
X116125239Y-43242857D01*
X116049048Y-43280952D01*
X115744286Y-43280952D01*
X116925239Y-42861905D02*
X116544286Y-42861905D01*
X116506191Y-43242857D01*
X116544286Y-43204762D01*
X116620477Y-43166667D01*
X116810953Y-43166667D01*
X116887143Y-43204762D01*
X116925239Y-43242857D01*
X116963334Y-43319048D01*
X116963334Y-43509524D01*
X116925239Y-43585714D01*
X116887143Y-43623810D01*
X116810953Y-43661905D01*
X116620477Y-43661905D01*
X116544286Y-43623810D01*
X116506191Y-43585714D01*
X96590476Y-86761905D02*
X97047619Y-86761905D01*
X96819048Y-87561905D02*
X96819048Y-86761905D01*
X97314286Y-87561905D02*
X97314286Y-86761905D01*
X97619048Y-86761905D01*
X97695239Y-86800000D01*
X97733334Y-86838095D01*
X97771429Y-86914286D01*
X97771429Y-87028571D01*
X97733334Y-87104762D01*
X97695239Y-87142857D01*
X97619048Y-87180952D01*
X97314286Y-87180952D01*
X98457143Y-86761905D02*
X98304762Y-86761905D01*
X98228572Y-86800000D01*
X98190477Y-86838095D01*
X98114286Y-86952381D01*
X98076191Y-87104762D01*
X98076191Y-87409524D01*
X98114286Y-87485714D01*
X98152381Y-87523810D01*
X98228572Y-87561905D01*
X98380953Y-87561905D01*
X98457143Y-87523810D01*
X98495239Y-87485714D01*
X98533334Y-87409524D01*
X98533334Y-87219048D01*
X98495239Y-87142857D01*
X98457143Y-87104762D01*
X98380953Y-87066667D01*
X98228572Y-87066667D01*
X98152381Y-87104762D01*
X98114286Y-87142857D01*
X98076191Y-87219048D01*
X103390476Y-86761905D02*
X103847619Y-86761905D01*
X103619048Y-87561905D02*
X103619048Y-86761905D01*
X104114286Y-87561905D02*
X104114286Y-86761905D01*
X104419048Y-86761905D01*
X104495239Y-86800000D01*
X104533334Y-86838095D01*
X104571429Y-86914286D01*
X104571429Y-87028571D01*
X104533334Y-87104762D01*
X104495239Y-87142857D01*
X104419048Y-87180952D01*
X104114286Y-87180952D01*
X104838096Y-86761905D02*
X105371429Y-86761905D01*
X105028572Y-87561905D01*
X69628571Y-71642857D02*
X70085714Y-71642857D01*
X69857143Y-71871429D02*
X69857143Y-71414286D01*
X70657142Y-71271429D02*
X70371428Y-71271429D01*
X70342857Y-71557143D01*
X70371428Y-71528571D01*
X70428571Y-71500000D01*
X70571428Y-71500000D01*
X70628571Y-71528571D01*
X70657142Y-71557143D01*
X70685714Y-71614286D01*
X70685714Y-71757143D01*
X70657142Y-71814286D01*
X70628571Y-71842857D01*
X70571428Y-71871429D01*
X70428571Y-71871429D01*
X70371428Y-71842857D01*
X70342857Y-71814286D01*
X70857143Y-71271429D02*
X71057143Y-71871429D01*
X71257143Y-71271429D01*
X69342857Y-74442857D02*
X69800000Y-74442857D01*
X69571429Y-74671429D02*
X69571429Y-74214286D01*
X70400000Y-74671429D02*
X70057143Y-74671429D01*
X70228571Y-74671429D02*
X70228571Y-74071429D01*
X70171428Y-74157143D01*
X70114286Y-74214286D01*
X70057143Y-74242857D01*
X70628572Y-74128571D02*
X70657143Y-74100000D01*
X70714286Y-74071429D01*
X70857143Y-74071429D01*
X70914286Y-74100000D01*
X70942857Y-74128571D01*
X70971429Y-74185714D01*
X70971429Y-74242857D01*
X70942857Y-74328571D01*
X70600000Y-74671429D01*
X70971429Y-74671429D01*
X71142858Y-74071429D02*
X71342858Y-74671429D01*
X71542858Y-74071429D01*
X92909523Y-86761905D02*
X93366666Y-86761905D01*
X93138095Y-87561905D02*
X93138095Y-86761905D01*
X93633333Y-87561905D02*
X93633333Y-86761905D01*
X93938095Y-86761905D01*
X94014286Y-86800000D01*
X94052381Y-86838095D01*
X94090476Y-86914286D01*
X94090476Y-87028571D01*
X94052381Y-87104762D01*
X94014286Y-87142857D01*
X93938095Y-87180952D01*
X93633333Y-87180952D01*
X94852381Y-87561905D02*
X94395238Y-87561905D01*
X94623809Y-87561905D02*
X94623809Y-86761905D01*
X94547619Y-86876190D01*
X94471428Y-86952381D01*
X94395238Y-86990476D01*
X95347619Y-86761905D02*
X95423810Y-86761905D01*
X95500000Y-86800000D01*
X95538095Y-86838095D01*
X95576191Y-86914286D01*
X95614286Y-87066667D01*
X95614286Y-87257143D01*
X95576191Y-87409524D01*
X95538095Y-87485714D01*
X95500000Y-87523810D01*
X95423810Y-87561905D01*
X95347619Y-87561905D01*
X95271429Y-87523810D01*
X95233333Y-87485714D01*
X95195238Y-87409524D01*
X95157143Y-87257143D01*
X95157143Y-87066667D01*
X95195238Y-86914286D01*
X95233333Y-86838095D01*
X95271429Y-86800000D01*
X95347619Y-86761905D01*
X101361905Y-89390477D02*
X101361905Y-88933334D01*
X102161905Y-89161905D02*
X101361905Y-89161905D01*
X102161905Y-88666667D02*
X101361905Y-88666667D01*
X101361905Y-88361905D01*
X101400000Y-88285714D01*
X101438095Y-88247619D01*
X101514286Y-88209524D01*
X101628571Y-88209524D01*
X101704762Y-88247619D01*
X101742857Y-88285714D01*
X101780952Y-88361905D01*
X101780952Y-88666667D01*
X102161905Y-87447619D02*
X102161905Y-87904762D01*
X102161905Y-87676191D02*
X101361905Y-87676191D01*
X101476190Y-87752381D01*
X101552381Y-87828572D01*
X101590476Y-87904762D01*
X102161905Y-86685714D02*
X102161905Y-87142857D01*
X102161905Y-86914286D02*
X101361905Y-86914286D01*
X101476190Y-86990476D01*
X101552381Y-87066667D01*
X101590476Y-87142857D01*
X106409523Y-86761905D02*
X106866666Y-86761905D01*
X106638095Y-87561905D02*
X106638095Y-86761905D01*
X107133333Y-87561905D02*
X107133333Y-86761905D01*
X107438095Y-86761905D01*
X107514286Y-86800000D01*
X107552381Y-86838095D01*
X107590476Y-86914286D01*
X107590476Y-87028571D01*
X107552381Y-87104762D01*
X107514286Y-87142857D01*
X107438095Y-87180952D01*
X107133333Y-87180952D01*
X108352381Y-87561905D02*
X107895238Y-87561905D01*
X108123809Y-87561905D02*
X108123809Y-86761905D01*
X108047619Y-86876190D01*
X107971428Y-86952381D01*
X107895238Y-86990476D01*
X108657143Y-86838095D02*
X108695238Y-86800000D01*
X108771429Y-86761905D01*
X108961905Y-86761905D01*
X109038095Y-86800000D01*
X109076191Y-86838095D01*
X109114286Y-86914286D01*
X109114286Y-86990476D01*
X109076191Y-87104762D01*
X108619048Y-87561905D01*
X109114286Y-87561905D01*
X77942857Y-71742857D02*
X78400000Y-71742857D01*
X78171429Y-71971429D02*
X78171429Y-71514286D01*
X78628571Y-71371429D02*
X79000000Y-71371429D01*
X78800000Y-71600000D01*
X78885714Y-71600000D01*
X78942857Y-71628571D01*
X78971428Y-71657143D01*
X79000000Y-71714286D01*
X79000000Y-71857143D01*
X78971428Y-71914286D01*
X78942857Y-71942857D01*
X78885714Y-71971429D01*
X78714286Y-71971429D01*
X78657143Y-71942857D01*
X78628571Y-71914286D01*
X79171429Y-71371429D02*
X79371429Y-71971429D01*
X79571429Y-71371429D01*
X79714286Y-71371429D02*
X80085715Y-71371429D01*
X79885715Y-71600000D01*
X79971429Y-71600000D01*
X80028572Y-71628571D01*
X80057143Y-71657143D01*
X80085715Y-71714286D01*
X80085715Y-71857143D01*
X80057143Y-71914286D01*
X80028572Y-71942857D01*
X79971429Y-71971429D01*
X79800001Y-71971429D01*
X79742858Y-71942857D01*
X79714286Y-71914286D01*
X128542858Y-93900000D02*
X128485715Y-93871429D01*
X128400001Y-93871429D01*
X128314286Y-93900000D01*
X128257144Y-93957143D01*
X128228572Y-94014286D01*
X128200001Y-94128571D01*
X128200001Y-94214286D01*
X128228572Y-94328571D01*
X128257144Y-94385714D01*
X128314286Y-94442857D01*
X128400001Y-94471429D01*
X128457144Y-94471429D01*
X128542858Y-94442857D01*
X128571429Y-94414286D01*
X128571429Y-94214286D01*
X128457144Y-94214286D01*
X128828572Y-94471429D02*
X128828572Y-93871429D01*
X129171429Y-94471429D01*
X129171429Y-93871429D01*
X129457143Y-94471429D02*
X129457143Y-93871429D01*
X129600000Y-93871429D01*
X129685715Y-93900000D01*
X129742857Y-93957143D01*
X129771429Y-94014286D01*
X129800000Y-94128571D01*
X129800000Y-94214286D01*
X129771429Y-94328571D01*
X129742857Y-94385714D01*
X129685715Y-94442857D01*
X129600000Y-94471429D01*
X129457143Y-94471429D01*
X122728572Y-47385714D02*
X122690477Y-47423810D01*
X122576191Y-47461905D01*
X122500001Y-47461905D01*
X122385715Y-47423810D01*
X122309524Y-47347619D01*
X122271429Y-47271429D01*
X122233334Y-47119048D01*
X122233334Y-47004762D01*
X122271429Y-46852381D01*
X122309524Y-46776190D01*
X122385715Y-46700000D01*
X122500001Y-46661905D01*
X122576191Y-46661905D01*
X122690477Y-46700000D01*
X122728572Y-46738095D01*
X123223810Y-46661905D02*
X123376191Y-46661905D01*
X123452382Y-46700000D01*
X123528572Y-46776190D01*
X123566667Y-46928571D01*
X123566667Y-47195238D01*
X123528572Y-47347619D01*
X123452382Y-47423810D01*
X123376191Y-47461905D01*
X123223810Y-47461905D01*
X123147620Y-47423810D01*
X123071429Y-47347619D01*
X123033334Y-47195238D01*
X123033334Y-46928571D01*
X123071429Y-46776190D01*
X123147620Y-46700000D01*
X123223810Y-46661905D01*
X123909524Y-47461905D02*
X123909524Y-46661905D01*
X124366667Y-47461905D01*
X124366667Y-46661905D01*
X124709524Y-46738095D02*
X124747619Y-46700000D01*
X124823810Y-46661905D01*
X125014286Y-46661905D01*
X125090476Y-46700000D01*
X125128572Y-46738095D01*
X125166667Y-46814286D01*
X125166667Y-46890476D01*
X125128572Y-47004762D01*
X124671429Y-47461905D01*
X125166667Y-47461905D01*
X115342857Y-105371429D02*
X115342857Y-105857143D01*
X115371429Y-105914286D01*
X115400000Y-105942857D01*
X115457143Y-105971429D01*
X115571429Y-105971429D01*
X115628571Y-105942857D01*
X115657143Y-105914286D01*
X115685714Y-105857143D01*
X115685714Y-105371429D01*
X116228571Y-105571429D02*
X116228571Y-105971429D01*
X116085714Y-105342857D02*
X115942857Y-105771429D01*
X116314285Y-105771429D01*
X90585714Y-70833333D02*
X90623810Y-70871428D01*
X90661905Y-70985714D01*
X90661905Y-71061904D01*
X90623810Y-71176190D01*
X90547619Y-71252381D01*
X90471429Y-71290476D01*
X90319048Y-71328571D01*
X90204762Y-71328571D01*
X90052381Y-71290476D01*
X89976190Y-71252381D01*
X89900000Y-71176190D01*
X89861905Y-71061904D01*
X89861905Y-70985714D01*
X89900000Y-70871428D01*
X89938095Y-70833333D01*
X89861905Y-70147619D02*
X89861905Y-70300000D01*
X89900000Y-70376190D01*
X89938095Y-70414285D01*
X90052381Y-70490476D01*
X90204762Y-70528571D01*
X90509524Y-70528571D01*
X90585714Y-70490476D01*
X90623810Y-70452381D01*
X90661905Y-70376190D01*
X90661905Y-70223809D01*
X90623810Y-70147619D01*
X90585714Y-70109523D01*
X90509524Y-70071428D01*
X90319048Y-70071428D01*
X90242857Y-70109523D01*
X90204762Y-70147619D01*
X90166667Y-70223809D01*
X90166667Y-70376190D01*
X90204762Y-70452381D01*
X90242857Y-70490476D01*
X90319048Y-70528571D01*
X115066667Y-72885714D02*
X115028572Y-72923810D01*
X114914286Y-72961905D01*
X114838096Y-72961905D01*
X114723810Y-72923810D01*
X114647619Y-72847619D01*
X114609524Y-72771429D01*
X114571429Y-72619048D01*
X114571429Y-72504762D01*
X114609524Y-72352381D01*
X114647619Y-72276190D01*
X114723810Y-72200000D01*
X114838096Y-72161905D01*
X114914286Y-72161905D01*
X115028572Y-72200000D01*
X115066667Y-72238095D01*
X115333334Y-72161905D02*
X115866667Y-72161905D01*
X115523810Y-72961905D01*
X117866667Y-98485714D02*
X117828572Y-98523810D01*
X117714286Y-98561905D01*
X117638096Y-98561905D01*
X117523810Y-98523810D01*
X117447619Y-98447619D01*
X117409524Y-98371429D01*
X117371429Y-98219048D01*
X117371429Y-98104762D01*
X117409524Y-97952381D01*
X117447619Y-97876190D01*
X117523810Y-97800000D01*
X117638096Y-97761905D01*
X117714286Y-97761905D01*
X117828572Y-97800000D01*
X117866667Y-97838095D01*
X118323810Y-98104762D02*
X118247619Y-98066667D01*
X118209524Y-98028571D01*
X118171429Y-97952381D01*
X118171429Y-97914286D01*
X118209524Y-97838095D01*
X118247619Y-97800000D01*
X118323810Y-97761905D01*
X118476191Y-97761905D01*
X118552381Y-97800000D01*
X118590477Y-97838095D01*
X118628572Y-97914286D01*
X118628572Y-97952381D01*
X118590477Y-98028571D01*
X118552381Y-98066667D01*
X118476191Y-98104762D01*
X118323810Y-98104762D01*
X118247619Y-98142857D01*
X118209524Y-98180952D01*
X118171429Y-98257143D01*
X118171429Y-98409524D01*
X118209524Y-98485714D01*
X118247619Y-98523810D01*
X118323810Y-98561905D01*
X118476191Y-98561905D01*
X118552381Y-98523810D01*
X118590477Y-98485714D01*
X118628572Y-98409524D01*
X118628572Y-98257143D01*
X118590477Y-98180952D01*
X118552381Y-98142857D01*
X118476191Y-98104762D01*
X127361905Y-85233333D02*
X126980952Y-85500000D01*
X127361905Y-85690476D02*
X126561905Y-85690476D01*
X126561905Y-85385714D01*
X126600000Y-85309523D01*
X126638095Y-85271428D01*
X126714286Y-85233333D01*
X126828571Y-85233333D01*
X126904762Y-85271428D01*
X126942857Y-85309523D01*
X126980952Y-85385714D01*
X126980952Y-85690476D01*
X127361905Y-84852381D02*
X127361905Y-84700000D01*
X127323810Y-84623809D01*
X127285714Y-84585714D01*
X127171429Y-84509523D01*
X127019048Y-84471428D01*
X126714286Y-84471428D01*
X126638095Y-84509523D01*
X126600000Y-84547619D01*
X126561905Y-84623809D01*
X126561905Y-84776190D01*
X126600000Y-84852381D01*
X126638095Y-84890476D01*
X126714286Y-84928571D01*
X126904762Y-84928571D01*
X126980952Y-84890476D01*
X127019048Y-84852381D01*
X127057143Y-84776190D01*
X127057143Y-84623809D01*
X127019048Y-84547619D01*
X126980952Y-84509523D01*
X126904762Y-84471428D01*
X122185714Y-55361905D02*
X121919047Y-54980952D01*
X121728571Y-55361905D02*
X121728571Y-54561905D01*
X122033333Y-54561905D01*
X122109524Y-54600000D01*
X122147619Y-54638095D01*
X122185714Y-54714286D01*
X122185714Y-54828571D01*
X122147619Y-54904762D01*
X122109524Y-54942857D01*
X122033333Y-54980952D01*
X121728571Y-54980952D01*
X122947619Y-55361905D02*
X122490476Y-55361905D01*
X122719047Y-55361905D02*
X122719047Y-54561905D01*
X122642857Y-54676190D01*
X122566666Y-54752381D01*
X122490476Y-54790476D01*
X123709524Y-55361905D02*
X123252381Y-55361905D01*
X123480952Y-55361905D02*
X123480952Y-54561905D01*
X123404762Y-54676190D01*
X123328571Y-54752381D01*
X123252381Y-54790476D01*
X122185714Y-53161905D02*
X121919047Y-52780952D01*
X121728571Y-53161905D02*
X121728571Y-52361905D01*
X122033333Y-52361905D01*
X122109524Y-52400000D01*
X122147619Y-52438095D01*
X122185714Y-52514286D01*
X122185714Y-52628571D01*
X122147619Y-52704762D01*
X122109524Y-52742857D01*
X122033333Y-52780952D01*
X121728571Y-52780952D01*
X122947619Y-53161905D02*
X122490476Y-53161905D01*
X122719047Y-53161905D02*
X122719047Y-52361905D01*
X122642857Y-52476190D01*
X122566666Y-52552381D01*
X122490476Y-52590476D01*
X123252381Y-52438095D02*
X123290476Y-52400000D01*
X123366667Y-52361905D01*
X123557143Y-52361905D01*
X123633333Y-52400000D01*
X123671429Y-52438095D01*
X123709524Y-52514286D01*
X123709524Y-52590476D01*
X123671429Y-52704762D01*
X123214286Y-53161905D01*
X123709524Y-53161905D01*
X122185714Y-50961905D02*
X121919047Y-50580952D01*
X121728571Y-50961905D02*
X121728571Y-50161905D01*
X122033333Y-50161905D01*
X122109524Y-50200000D01*
X122147619Y-50238095D01*
X122185714Y-50314286D01*
X122185714Y-50428571D01*
X122147619Y-50504762D01*
X122109524Y-50542857D01*
X122033333Y-50580952D01*
X121728571Y-50580952D01*
X122947619Y-50961905D02*
X122490476Y-50961905D01*
X122719047Y-50961905D02*
X122719047Y-50161905D01*
X122642857Y-50276190D01*
X122566666Y-50352381D01*
X122490476Y-50390476D01*
X123633333Y-50428571D02*
X123633333Y-50961905D01*
X123442857Y-50123810D02*
X123252381Y-50695238D01*
X123747619Y-50695238D01*
X127361905Y-76114286D02*
X126980952Y-76380953D01*
X127361905Y-76571429D02*
X126561905Y-76571429D01*
X126561905Y-76266667D01*
X126600000Y-76190476D01*
X126638095Y-76152381D01*
X126714286Y-76114286D01*
X126828571Y-76114286D01*
X126904762Y-76152381D01*
X126942857Y-76190476D01*
X126980952Y-76266667D01*
X126980952Y-76571429D01*
X126561905Y-75847619D02*
X126561905Y-75352381D01*
X126866667Y-75619048D01*
X126866667Y-75504762D01*
X126904762Y-75428572D01*
X126942857Y-75390476D01*
X127019048Y-75352381D01*
X127209524Y-75352381D01*
X127285714Y-75390476D01*
X127323810Y-75428572D01*
X127361905Y-75504762D01*
X127361905Y-75733334D01*
X127323810Y-75809524D01*
X127285714Y-75847619D01*
X127361905Y-74971429D02*
X127361905Y-74819048D01*
X127323810Y-74742857D01*
X127285714Y-74704762D01*
X127171429Y-74628571D01*
X127019048Y-74590476D01*
X126714286Y-74590476D01*
X126638095Y-74628571D01*
X126600000Y-74666667D01*
X126561905Y-74742857D01*
X126561905Y-74895238D01*
X126600000Y-74971429D01*
X126638095Y-75009524D01*
X126714286Y-75047619D01*
X126904762Y-75047619D01*
X126980952Y-75009524D01*
X127019048Y-74971429D01*
X127057143Y-74895238D01*
X127057143Y-74742857D01*
X127019048Y-74666667D01*
X126980952Y-74628571D01*
X126904762Y-74590476D01*
X127361905Y-81514286D02*
X126980952Y-81780953D01*
X127361905Y-81971429D02*
X126561905Y-81971429D01*
X126561905Y-81666667D01*
X126600000Y-81590476D01*
X126638095Y-81552381D01*
X126714286Y-81514286D01*
X126828571Y-81514286D01*
X126904762Y-81552381D01*
X126942857Y-81590476D01*
X126980952Y-81666667D01*
X126980952Y-81971429D01*
X126828571Y-80828572D02*
X127361905Y-80828572D01*
X126523810Y-81019048D02*
X127095238Y-81209524D01*
X127095238Y-80714286D01*
X127361905Y-79990476D02*
X127361905Y-80447619D01*
X127361905Y-80219048D02*
X126561905Y-80219048D01*
X126676190Y-80295238D01*
X126752381Y-80371429D01*
X126790476Y-80447619D01*
X71566667Y-59885714D02*
X71528572Y-59923810D01*
X71414286Y-59961905D01*
X71338096Y-59961905D01*
X71223810Y-59923810D01*
X71147619Y-59847619D01*
X71109524Y-59771429D01*
X71071429Y-59619048D01*
X71071429Y-59504762D01*
X71109524Y-59352381D01*
X71147619Y-59276190D01*
X71223810Y-59200000D01*
X71338096Y-59161905D01*
X71414286Y-59161905D01*
X71528572Y-59200000D01*
X71566667Y-59238095D01*
X71871429Y-59238095D02*
X71909524Y-59200000D01*
X71985715Y-59161905D01*
X72176191Y-59161905D01*
X72252381Y-59200000D01*
X72290477Y-59238095D01*
X72328572Y-59314286D01*
X72328572Y-59390476D01*
X72290477Y-59504762D01*
X71833334Y-59961905D01*
X72328572Y-59961905D01*
X75466667Y-59885714D02*
X75428572Y-59923810D01*
X75314286Y-59961905D01*
X75238096Y-59961905D01*
X75123810Y-59923810D01*
X75047619Y-59847619D01*
X75009524Y-59771429D01*
X74971429Y-59619048D01*
X74971429Y-59504762D01*
X75009524Y-59352381D01*
X75047619Y-59276190D01*
X75123810Y-59200000D01*
X75238096Y-59161905D01*
X75314286Y-59161905D01*
X75428572Y-59200000D01*
X75466667Y-59238095D01*
X76152381Y-59428571D02*
X76152381Y-59961905D01*
X75961905Y-59123810D02*
X75771429Y-59695238D01*
X76266667Y-59695238D01*
X100285714Y-70933333D02*
X100323810Y-70971428D01*
X100361905Y-71085714D01*
X100361905Y-71161904D01*
X100323810Y-71276190D01*
X100247619Y-71352381D01*
X100171429Y-71390476D01*
X100019048Y-71428571D01*
X99904762Y-71428571D01*
X99752381Y-71390476D01*
X99676190Y-71352381D01*
X99600000Y-71276190D01*
X99561905Y-71161904D01*
X99561905Y-71085714D01*
X99600000Y-70971428D01*
X99638095Y-70933333D01*
X99561905Y-70209523D02*
X99561905Y-70590476D01*
X99942857Y-70628571D01*
X99904762Y-70590476D01*
X99866667Y-70514285D01*
X99866667Y-70323809D01*
X99904762Y-70247619D01*
X99942857Y-70209523D01*
X100019048Y-70171428D01*
X100209524Y-70171428D01*
X100285714Y-70209523D01*
X100323810Y-70247619D01*
X100361905Y-70323809D01*
X100361905Y-70514285D01*
X100323810Y-70590476D01*
X100285714Y-70628571D01*
X128166667Y-88585714D02*
X128128572Y-88623810D01*
X128014286Y-88661905D01*
X127938096Y-88661905D01*
X127823810Y-88623810D01*
X127747619Y-88547619D01*
X127709524Y-88471429D01*
X127671429Y-88319048D01*
X127671429Y-88204762D01*
X127709524Y-88052381D01*
X127747619Y-87976190D01*
X127823810Y-87900000D01*
X127938096Y-87861905D01*
X128014286Y-87861905D01*
X128128572Y-87900000D01*
X128166667Y-87938095D01*
X128547619Y-88661905D02*
X128700000Y-88661905D01*
X128776191Y-88623810D01*
X128814286Y-88585714D01*
X128890477Y-88471429D01*
X128928572Y-88319048D01*
X128928572Y-88014286D01*
X128890477Y-87938095D01*
X128852381Y-87900000D01*
X128776191Y-87861905D01*
X128623810Y-87861905D01*
X128547619Y-87900000D01*
X128509524Y-87938095D01*
X128471429Y-88014286D01*
X128471429Y-88204762D01*
X128509524Y-88280952D01*
X128547619Y-88319048D01*
X128623810Y-88357143D01*
X128776191Y-88357143D01*
X128852381Y-88319048D01*
X128890477Y-88280952D01*
X128928572Y-88204762D01*
X114061905Y-88971429D02*
X113261905Y-88971429D01*
X113261905Y-88780953D01*
X113300000Y-88666667D01*
X113376190Y-88590476D01*
X113452381Y-88552381D01*
X113604762Y-88514286D01*
X113719048Y-88514286D01*
X113871429Y-88552381D01*
X113947619Y-88590476D01*
X114023810Y-88666667D01*
X114061905Y-88780953D01*
X114061905Y-88971429D01*
X114061905Y-87752381D02*
X114061905Y-88209524D01*
X114061905Y-87980953D02*
X113261905Y-87980953D01*
X113376190Y-88057143D01*
X113452381Y-88133334D01*
X113490476Y-88209524D01*
X113261905Y-87257143D02*
X113261905Y-87180952D01*
X113300000Y-87104762D01*
X113338095Y-87066667D01*
X113414286Y-87028571D01*
X113566667Y-86990476D01*
X113757143Y-86990476D01*
X113909524Y-87028571D01*
X113985714Y-87066667D01*
X114023810Y-87104762D01*
X114061905Y-87180952D01*
X114061905Y-87257143D01*
X114023810Y-87333333D01*
X113985714Y-87371429D01*
X113909524Y-87409524D01*
X113757143Y-87447619D01*
X113566667Y-87447619D01*
X113414286Y-87409524D01*
X113338095Y-87371429D01*
X113300000Y-87333333D01*
X113261905Y-87257143D01*
X114061905Y-79090476D02*
X113261905Y-79090476D01*
X113261905Y-78900000D01*
X113300000Y-78785714D01*
X113376190Y-78709523D01*
X113452381Y-78671428D01*
X113604762Y-78633333D01*
X113719048Y-78633333D01*
X113871429Y-78671428D01*
X113947619Y-78709523D01*
X114023810Y-78785714D01*
X114061905Y-78900000D01*
X114061905Y-79090476D01*
X114061905Y-78252381D02*
X114061905Y-78100000D01*
X114023810Y-78023809D01*
X113985714Y-77985714D01*
X113871429Y-77909523D01*
X113719048Y-77871428D01*
X113414286Y-77871428D01*
X113338095Y-77909523D01*
X113300000Y-77947619D01*
X113261905Y-78023809D01*
X113261905Y-78176190D01*
X113300000Y-78252381D01*
X113338095Y-78290476D01*
X113414286Y-78328571D01*
X113604762Y-78328571D01*
X113680952Y-78290476D01*
X113719048Y-78252381D01*
X113757143Y-78176190D01*
X113757143Y-78023809D01*
X113719048Y-77947619D01*
X113680952Y-77909523D01*
X113604762Y-77871428D01*
X113861905Y-69590476D02*
X113061905Y-69590476D01*
X113061905Y-69400000D01*
X113100000Y-69285714D01*
X113176190Y-69209523D01*
X113252381Y-69171428D01*
X113404762Y-69133333D01*
X113519048Y-69133333D01*
X113671429Y-69171428D01*
X113747619Y-69209523D01*
X113823810Y-69285714D01*
X113861905Y-69400000D01*
X113861905Y-69590476D01*
X113404762Y-68676190D02*
X113366667Y-68752381D01*
X113328571Y-68790476D01*
X113252381Y-68828571D01*
X113214286Y-68828571D01*
X113138095Y-68790476D01*
X113100000Y-68752381D01*
X113061905Y-68676190D01*
X113061905Y-68523809D01*
X113100000Y-68447619D01*
X113138095Y-68409523D01*
X113214286Y-68371428D01*
X113252381Y-68371428D01*
X113328571Y-68409523D01*
X113366667Y-68447619D01*
X113404762Y-68523809D01*
X113404762Y-68676190D01*
X113442857Y-68752381D01*
X113480952Y-68790476D01*
X113557143Y-68828571D01*
X113709524Y-68828571D01*
X113785714Y-68790476D01*
X113823810Y-68752381D01*
X113861905Y-68676190D01*
X113861905Y-68523809D01*
X113823810Y-68447619D01*
X113785714Y-68409523D01*
X113709524Y-68371428D01*
X113557143Y-68371428D01*
X113480952Y-68409523D01*
X113442857Y-68447619D01*
X113404762Y-68523809D01*
X113961905Y-60090476D02*
X113161905Y-60090476D01*
X113161905Y-59900000D01*
X113200000Y-59785714D01*
X113276190Y-59709523D01*
X113352381Y-59671428D01*
X113504762Y-59633333D01*
X113619048Y-59633333D01*
X113771429Y-59671428D01*
X113847619Y-59709523D01*
X113923810Y-59785714D01*
X113961905Y-59900000D01*
X113961905Y-60090476D01*
X113161905Y-59366666D02*
X113161905Y-58833333D01*
X113961905Y-59176190D01*
X113961905Y-49590476D02*
X113161905Y-49590476D01*
X113161905Y-49400000D01*
X113200000Y-49285714D01*
X113276190Y-49209523D01*
X113352381Y-49171428D01*
X113504762Y-49133333D01*
X113619048Y-49133333D01*
X113771429Y-49171428D01*
X113847619Y-49209523D01*
X113923810Y-49285714D01*
X113961905Y-49400000D01*
X113961905Y-49590476D01*
X113161905Y-48447619D02*
X113161905Y-48600000D01*
X113200000Y-48676190D01*
X113238095Y-48714285D01*
X113352381Y-48790476D01*
X113504762Y-48828571D01*
X113809524Y-48828571D01*
X113885714Y-48790476D01*
X113923810Y-48752381D01*
X113961905Y-48676190D01*
X113961905Y-48523809D01*
X113923810Y-48447619D01*
X113885714Y-48409523D01*
X113809524Y-48371428D01*
X113619048Y-48371428D01*
X113542857Y-48409523D01*
X113504762Y-48447619D01*
X113466667Y-48523809D01*
X113466667Y-48676190D01*
X113504762Y-48752381D01*
X113542857Y-48790476D01*
X113619048Y-48828571D01*
X80061905Y-87790476D02*
X79261905Y-87790476D01*
X79261905Y-87600000D01*
X79300000Y-87485714D01*
X79376190Y-87409523D01*
X79452381Y-87371428D01*
X79604762Y-87333333D01*
X79719048Y-87333333D01*
X79871429Y-87371428D01*
X79947619Y-87409523D01*
X80023810Y-87485714D01*
X80061905Y-87600000D01*
X80061905Y-87790476D01*
X79261905Y-86609523D02*
X79261905Y-86990476D01*
X79642857Y-87028571D01*
X79604762Y-86990476D01*
X79566667Y-86914285D01*
X79566667Y-86723809D01*
X79604762Y-86647619D01*
X79642857Y-86609523D01*
X79719048Y-86571428D01*
X79909524Y-86571428D01*
X79985714Y-86609523D01*
X80023810Y-86647619D01*
X80061905Y-86723809D01*
X80061905Y-86914285D01*
X80023810Y-86990476D01*
X79985714Y-87028571D01*
X80061905Y-79090476D02*
X79261905Y-79090476D01*
X79261905Y-78900000D01*
X79300000Y-78785714D01*
X79376190Y-78709523D01*
X79452381Y-78671428D01*
X79604762Y-78633333D01*
X79719048Y-78633333D01*
X79871429Y-78671428D01*
X79947619Y-78709523D01*
X80023810Y-78785714D01*
X80061905Y-78900000D01*
X80061905Y-79090476D01*
X79528571Y-77947619D02*
X80061905Y-77947619D01*
X79223810Y-78138095D02*
X79795238Y-78328571D01*
X79795238Y-77833333D01*
X80061905Y-68690476D02*
X79261905Y-68690476D01*
X79261905Y-68500000D01*
X79300000Y-68385714D01*
X79376190Y-68309523D01*
X79452381Y-68271428D01*
X79604762Y-68233333D01*
X79719048Y-68233333D01*
X79871429Y-68271428D01*
X79947619Y-68309523D01*
X80023810Y-68385714D01*
X80061905Y-68500000D01*
X80061905Y-68690476D01*
X79261905Y-67966666D02*
X79261905Y-67471428D01*
X79566667Y-67738095D01*
X79566667Y-67623809D01*
X79604762Y-67547619D01*
X79642857Y-67509523D01*
X79719048Y-67471428D01*
X79909524Y-67471428D01*
X79985714Y-67509523D01*
X80023810Y-67547619D01*
X80061905Y-67623809D01*
X80061905Y-67852381D01*
X80023810Y-67928571D01*
X79985714Y-67966666D01*
X80061905Y-60090476D02*
X79261905Y-60090476D01*
X79261905Y-59900000D01*
X79300000Y-59785714D01*
X79376190Y-59709523D01*
X79452381Y-59671428D01*
X79604762Y-59633333D01*
X79719048Y-59633333D01*
X79871429Y-59671428D01*
X79947619Y-59709523D01*
X80023810Y-59785714D01*
X80061905Y-59900000D01*
X80061905Y-60090476D01*
X79338095Y-59328571D02*
X79300000Y-59290476D01*
X79261905Y-59214285D01*
X79261905Y-59023809D01*
X79300000Y-58947619D01*
X79338095Y-58909523D01*
X79414286Y-58871428D01*
X79490476Y-58871428D01*
X79604762Y-58909523D01*
X80061905Y-59366666D01*
X80061905Y-58871428D01*
X80061905Y-50590476D02*
X79261905Y-50590476D01*
X79261905Y-50400000D01*
X79300000Y-50285714D01*
X79376190Y-50209523D01*
X79452381Y-50171428D01*
X79604762Y-50133333D01*
X79719048Y-50133333D01*
X79871429Y-50171428D01*
X79947619Y-50209523D01*
X80023810Y-50285714D01*
X80061905Y-50400000D01*
X80061905Y-50590476D01*
X80061905Y-49371428D02*
X80061905Y-49828571D01*
X80061905Y-49600000D02*
X79261905Y-49600000D01*
X79376190Y-49676190D01*
X79452381Y-49752381D01*
X79490476Y-49828571D01*
X78761905Y-55452381D02*
X78380952Y-55719048D01*
X78761905Y-55909524D02*
X77961905Y-55909524D01*
X77961905Y-55604762D01*
X78000000Y-55528571D01*
X78038095Y-55490476D01*
X78114286Y-55452381D01*
X78228571Y-55452381D01*
X78304762Y-55490476D01*
X78342857Y-55528571D01*
X78380952Y-55604762D01*
X78380952Y-55909524D01*
X78761905Y-55109524D02*
X77961905Y-55109524D01*
X78761905Y-54652381D01*
X77961905Y-54652381D01*
X78761905Y-53852381D02*
X78761905Y-54309524D01*
X78761905Y-54080953D02*
X77961905Y-54080953D01*
X78076190Y-54157143D01*
X78152381Y-54233334D01*
X78190476Y-54309524D01*
X79061905Y-64802381D02*
X78680952Y-65069048D01*
X79061905Y-65259524D02*
X78261905Y-65259524D01*
X78261905Y-64954762D01*
X78300000Y-64878571D01*
X78338095Y-64840476D01*
X78414286Y-64802381D01*
X78528571Y-64802381D01*
X78604762Y-64840476D01*
X78642857Y-64878571D01*
X78680952Y-64954762D01*
X78680952Y-65259524D01*
X79061905Y-64459524D02*
X78261905Y-64459524D01*
X79061905Y-64002381D01*
X78261905Y-64002381D01*
X78338095Y-63659524D02*
X78300000Y-63621429D01*
X78261905Y-63545238D01*
X78261905Y-63354762D01*
X78300000Y-63278572D01*
X78338095Y-63240476D01*
X78414286Y-63202381D01*
X78490476Y-63202381D01*
X78604762Y-63240476D01*
X79061905Y-63697619D01*
X79061905Y-63202381D01*
X87861905Y-64552381D02*
X87480952Y-64819048D01*
X87861905Y-65009524D02*
X87061905Y-65009524D01*
X87061905Y-64704762D01*
X87100000Y-64628571D01*
X87138095Y-64590476D01*
X87214286Y-64552381D01*
X87328571Y-64552381D01*
X87404762Y-64590476D01*
X87442857Y-64628571D01*
X87480952Y-64704762D01*
X87480952Y-65009524D01*
X87861905Y-64209524D02*
X87061905Y-64209524D01*
X87861905Y-63752381D01*
X87061905Y-63752381D01*
X87061905Y-63447619D02*
X87061905Y-62952381D01*
X87366667Y-63219048D01*
X87366667Y-63104762D01*
X87404762Y-63028572D01*
X87442857Y-62990476D01*
X87519048Y-62952381D01*
X87709524Y-62952381D01*
X87785714Y-62990476D01*
X87823810Y-63028572D01*
X87861905Y-63104762D01*
X87861905Y-63333334D01*
X87823810Y-63409524D01*
X87785714Y-63447619D01*
X79261905Y-83802381D02*
X78880952Y-84069048D01*
X79261905Y-84259524D02*
X78461905Y-84259524D01*
X78461905Y-83954762D01*
X78500000Y-83878571D01*
X78538095Y-83840476D01*
X78614286Y-83802381D01*
X78728571Y-83802381D01*
X78804762Y-83840476D01*
X78842857Y-83878571D01*
X78880952Y-83954762D01*
X78880952Y-84259524D01*
X79261905Y-83459524D02*
X78461905Y-83459524D01*
X79261905Y-83002381D01*
X78461905Y-83002381D01*
X78728571Y-82278572D02*
X79261905Y-82278572D01*
X78423810Y-82469048D02*
X78995238Y-82659524D01*
X78995238Y-82164286D01*
X116661905Y-55352381D02*
X116280952Y-55619048D01*
X116661905Y-55809524D02*
X115861905Y-55809524D01*
X115861905Y-55504762D01*
X115900000Y-55428571D01*
X115938095Y-55390476D01*
X116014286Y-55352381D01*
X116128571Y-55352381D01*
X116204762Y-55390476D01*
X116242857Y-55428571D01*
X116280952Y-55504762D01*
X116280952Y-55809524D01*
X116661905Y-55009524D02*
X115861905Y-55009524D01*
X116661905Y-54552381D01*
X115861905Y-54552381D01*
X115861905Y-53828572D02*
X115861905Y-53980953D01*
X115900000Y-54057143D01*
X115938095Y-54095238D01*
X116052381Y-54171429D01*
X116204762Y-54209524D01*
X116509524Y-54209524D01*
X116585714Y-54171429D01*
X116623810Y-54133334D01*
X116661905Y-54057143D01*
X116661905Y-53904762D01*
X116623810Y-53828572D01*
X116585714Y-53790476D01*
X116509524Y-53752381D01*
X116319048Y-53752381D01*
X116242857Y-53790476D01*
X116204762Y-53828572D01*
X116166667Y-53904762D01*
X116166667Y-54057143D01*
X116204762Y-54133334D01*
X116242857Y-54171429D01*
X116319048Y-54209524D01*
X113061905Y-64802381D02*
X112680952Y-65069048D01*
X113061905Y-65259524D02*
X112261905Y-65259524D01*
X112261905Y-64954762D01*
X112300000Y-64878571D01*
X112338095Y-64840476D01*
X112414286Y-64802381D01*
X112528571Y-64802381D01*
X112604762Y-64840476D01*
X112642857Y-64878571D01*
X112680952Y-64954762D01*
X112680952Y-65259524D01*
X113061905Y-64459524D02*
X112261905Y-64459524D01*
X113061905Y-64002381D01*
X112261905Y-64002381D01*
X112261905Y-63697619D02*
X112261905Y-63164286D01*
X113061905Y-63507143D01*
X121861905Y-64752381D02*
X121480952Y-65019048D01*
X121861905Y-65209524D02*
X121061905Y-65209524D01*
X121061905Y-64904762D01*
X121100000Y-64828571D01*
X121138095Y-64790476D01*
X121214286Y-64752381D01*
X121328571Y-64752381D01*
X121404762Y-64790476D01*
X121442857Y-64828571D01*
X121480952Y-64904762D01*
X121480952Y-65209524D01*
X121861905Y-64409524D02*
X121061905Y-64409524D01*
X121861905Y-63952381D01*
X121061905Y-63952381D01*
X121404762Y-63457143D02*
X121366667Y-63533334D01*
X121328571Y-63571429D01*
X121252381Y-63609524D01*
X121214286Y-63609524D01*
X121138095Y-63571429D01*
X121100000Y-63533334D01*
X121061905Y-63457143D01*
X121061905Y-63304762D01*
X121100000Y-63228572D01*
X121138095Y-63190476D01*
X121214286Y-63152381D01*
X121252381Y-63152381D01*
X121328571Y-63190476D01*
X121366667Y-63228572D01*
X121404762Y-63304762D01*
X121404762Y-63457143D01*
X121442857Y-63533334D01*
X121480952Y-63571429D01*
X121557143Y-63609524D01*
X121709524Y-63609524D01*
X121785714Y-63571429D01*
X121823810Y-63533334D01*
X121861905Y-63457143D01*
X121861905Y-63304762D01*
X121823810Y-63228572D01*
X121785714Y-63190476D01*
X121709524Y-63152381D01*
X121557143Y-63152381D01*
X121480952Y-63190476D01*
X121442857Y-63228572D01*
X121404762Y-63304762D01*
X121761905Y-83652381D02*
X121380952Y-83919048D01*
X121761905Y-84109524D02*
X120961905Y-84109524D01*
X120961905Y-83804762D01*
X121000000Y-83728571D01*
X121038095Y-83690476D01*
X121114286Y-83652381D01*
X121228571Y-83652381D01*
X121304762Y-83690476D01*
X121342857Y-83728571D01*
X121380952Y-83804762D01*
X121380952Y-84109524D01*
X121761905Y-83309524D02*
X120961905Y-83309524D01*
X121761905Y-82852381D01*
X120961905Y-82852381D01*
X121761905Y-82433334D02*
X121761905Y-82280953D01*
X121723810Y-82204762D01*
X121685714Y-82166667D01*
X121571429Y-82090476D01*
X121419048Y-82052381D01*
X121114286Y-82052381D01*
X121038095Y-82090476D01*
X121000000Y-82128572D01*
X120961905Y-82204762D01*
X120961905Y-82357143D01*
X121000000Y-82433334D01*
X121038095Y-82471429D01*
X121114286Y-82509524D01*
X121304762Y-82509524D01*
X121380952Y-82471429D01*
X121419048Y-82433334D01*
X121457143Y-82357143D01*
X121457143Y-82204762D01*
X121419048Y-82128572D01*
X121380952Y-82090476D01*
X121304762Y-82052381D01*
X113061905Y-84233333D02*
X112680952Y-84500000D01*
X113061905Y-84690476D02*
X112261905Y-84690476D01*
X112261905Y-84385714D01*
X112300000Y-84309523D01*
X112338095Y-84271428D01*
X112414286Y-84233333D01*
X112528571Y-84233333D01*
X112604762Y-84271428D01*
X112642857Y-84309523D01*
X112680952Y-84385714D01*
X112680952Y-84690476D01*
X113061905Y-83890476D02*
X112261905Y-83890476D01*
X113061905Y-83433333D01*
X112261905Y-83433333D01*
X113061905Y-82633333D02*
X113061905Y-83090476D01*
X113061905Y-82861905D02*
X112261905Y-82861905D01*
X112376190Y-82938095D01*
X112452381Y-83014286D01*
X112490476Y-83090476D01*
X112261905Y-82138095D02*
X112261905Y-82061904D01*
X112300000Y-81985714D01*
X112338095Y-81947619D01*
X112414286Y-81909523D01*
X112566667Y-81871428D01*
X112757143Y-81871428D01*
X112909524Y-81909523D01*
X112985714Y-81947619D01*
X113023810Y-81985714D01*
X113061905Y-82061904D01*
X113061905Y-82138095D01*
X113023810Y-82214285D01*
X112985714Y-82252381D01*
X112909524Y-82290476D01*
X112757143Y-82328571D01*
X112566667Y-82328571D01*
X112414286Y-82290476D01*
X112338095Y-82252381D01*
X112300000Y-82214285D01*
X112261905Y-82138095D01*
X86266667Y-52261905D02*
X86000000Y-51880952D01*
X85809524Y-52261905D02*
X85809524Y-51461905D01*
X86114286Y-51461905D01*
X86190477Y-51500000D01*
X86228572Y-51538095D01*
X86266667Y-51614286D01*
X86266667Y-51728571D01*
X86228572Y-51804762D01*
X86190477Y-51842857D01*
X86114286Y-51880952D01*
X85809524Y-51880952D01*
X86609524Y-52261905D02*
X86609524Y-51461905D01*
X87066667Y-52261905D01*
X87066667Y-51461905D01*
X87866667Y-52261905D02*
X87409524Y-52261905D01*
X87638095Y-52261905D02*
X87638095Y-51461905D01*
X87561905Y-51576190D01*
X87485714Y-51652381D01*
X87409524Y-51690476D01*
X88171429Y-51538095D02*
X88209524Y-51500000D01*
X88285715Y-51461905D01*
X88476191Y-51461905D01*
X88552381Y-51500000D01*
X88590477Y-51538095D01*
X88628572Y-51614286D01*
X88628572Y-51690476D01*
X88590477Y-51804762D01*
X88133334Y-52261905D01*
X88628572Y-52261905D01*
%LPC*%
D15*
X86075000Y-84825000D03*
D16*
X86075000Y-83900000D03*
X86075000Y-83100000D03*
D15*
X86075000Y-82175000D03*
X84425000Y-82175000D03*
D16*
X84425000Y-83100000D03*
X84425000Y-83900000D03*
D15*
X84425000Y-84825000D03*
X107575000Y-70075000D03*
D16*
X107575000Y-71000000D03*
X107575000Y-71800000D03*
D15*
X107575000Y-72725000D03*
X109225000Y-72725000D03*
D16*
X109225000Y-71800000D03*
X109225000Y-71000000D03*
D15*
X109225000Y-70075000D03*
D17*
X92255000Y-83100000D03*
D18*
X94795000Y-83100000D03*
X97335000Y-83100000D03*
X99875000Y-83100000D03*
X102415000Y-83100000D03*
X104955000Y-83100000D03*
X107495000Y-83100000D03*
D19*
X125785000Y-91540000D03*
D20*
X124215000Y-91540000D03*
X125785000Y-90270000D03*
X124215000Y-90270000D03*
X125785000Y-89000000D03*
X124215000Y-89000000D03*
X125785000Y-87730000D03*
X124215000Y-87730000D03*
X125785000Y-86460000D03*
X124215000Y-86460000D03*
D21*
X75850000Y-79700000D03*
X75850000Y-85700000D03*
X71150000Y-82700000D03*
D22*
X74100000Y-70250000D03*
D23*
X74100000Y-63950000D03*
X71800000Y-63950000D03*
X76400000Y-63950000D03*
D24*
X77000000Y-91950000D03*
D25*
X73500000Y-89250000D03*
D26*
X75350000Y-89250000D03*
X74700000Y-89250000D03*
X77300000Y-89250000D03*
X76650000Y-89250000D03*
X76000000Y-89250000D03*
D25*
X78500000Y-89250000D03*
D24*
X75000000Y-91950000D03*
D27*
X72500000Y-91950000D03*
X79500000Y-91950000D03*
D28*
X78900000Y-91950000D03*
X73100000Y-91950000D03*
D29*
X92400000Y-52500000D03*
X92400000Y-54500000D03*
X92400000Y-56500000D03*
X92400000Y-58500000D03*
X92400000Y-60500000D03*
X92400000Y-62500000D03*
X92400000Y-64500000D03*
X92400000Y-66500000D03*
D30*
X95000000Y-68000000D03*
X97000000Y-68000000D03*
X99000000Y-68000000D03*
X101000000Y-68000000D03*
X103000000Y-68000000D03*
X105000000Y-68000000D03*
D29*
X107600000Y-66500000D03*
X107600000Y-64500000D03*
X107600000Y-62500000D03*
X107600000Y-60500000D03*
X107600000Y-58500000D03*
X107600000Y-56500000D03*
X107600000Y-54500000D03*
X107600000Y-52500000D03*
D31*
X128700000Y-57150000D03*
D32*
X128700000Y-55900000D03*
X128700000Y-54650000D03*
X128700000Y-53400000D03*
X128700000Y-52150000D03*
X128700000Y-50900000D03*
X128700000Y-49650000D03*
X128700000Y-48400000D03*
D19*
X91300000Y-90550000D03*
X91300000Y-92450000D03*
X93700000Y-91500000D03*
X97800000Y-90550000D03*
X97800000Y-92450000D03*
X100200000Y-91500000D03*
X104300000Y-90550000D03*
X104300000Y-92450000D03*
X106700000Y-91500000D03*
D33*
X102650000Y-74850000D03*
X102650000Y-79350000D03*
X111150000Y-79350000D03*
X111150000Y-74850000D03*
X89200000Y-74850000D03*
X89200000Y-79350000D03*
X97700000Y-79350000D03*
X97700000Y-74850000D03*
D17*
X121810000Y-92900000D03*
D18*
X119270000Y-92900000D03*
X116730000Y-92900000D03*
X114190000Y-92900000D03*
D34*
X89750000Y-55400000D03*
D35*
X85000000Y-95500000D03*
D34*
X91500000Y-88500000D03*
D35*
X113490000Y-45000000D03*
X116030000Y-45000000D03*
D34*
X98000000Y-88500000D03*
X104500000Y-88500000D03*
X70600000Y-70400000D03*
X70600000Y-73200000D03*
X94000000Y-88500000D03*
X100500000Y-88500000D03*
X107000000Y-88500000D03*
X78300000Y-70600000D03*
D35*
X129000000Y-96000000D03*
D17*
X118570000Y-45000000D03*
D18*
X121110000Y-45000000D03*
X123650000Y-45000000D03*
X126190000Y-45000000D03*
X128730000Y-45000000D03*
D36*
X118000000Y-103500000D03*
D37*
X119550000Y-104500000D03*
X119550000Y-103500000D03*
X119550000Y-102500000D03*
X116450000Y-102500000D03*
X116450000Y-103500000D03*
X116450000Y-104500000D03*
D38*
X93750000Y-70600000D03*
X92050000Y-70600000D03*
X114350000Y-74200000D03*
X116050000Y-74200000D03*
X117150000Y-99800000D03*
X118850000Y-99800000D03*
D39*
X128600000Y-85950000D03*
X128600000Y-84250000D03*
D38*
X126650000Y-55100000D03*
X124950000Y-55100000D03*
X126650000Y-52900000D03*
X124950000Y-52900000D03*
X126650000Y-50700000D03*
X124950000Y-50700000D03*
D39*
X128600000Y-77950000D03*
X128600000Y-76250000D03*
X128600000Y-80250000D03*
X128600000Y-81950000D03*
D17*
X72585000Y-73150000D03*
D18*
X75125000Y-73150000D03*
X77665000Y-73150000D03*
D40*
X71950000Y-75900000D03*
X73850000Y-75900000D03*
X71150000Y-61400000D03*
X73050000Y-61400000D03*
X78350000Y-75900000D03*
X76450000Y-75900000D03*
X75050000Y-61400000D03*
X76950000Y-61400000D03*
X96150000Y-70800000D03*
X98050000Y-70800000D03*
D41*
X128400000Y-91850000D03*
X128400000Y-89950000D03*
D42*
X115095000Y-88000000D03*
D43*
X116365000Y-88000000D03*
X117635000Y-88000000D03*
X118905000Y-88000000D03*
D42*
X115095000Y-78500000D03*
D43*
X116365000Y-78500000D03*
X117635000Y-78500000D03*
X118905000Y-78500000D03*
D42*
X115095000Y-69000000D03*
D43*
X116365000Y-69000000D03*
X117635000Y-69000000D03*
X118905000Y-69000000D03*
D42*
X115095000Y-59500000D03*
D43*
X116365000Y-59500000D03*
X117635000Y-59500000D03*
X118905000Y-59500000D03*
D42*
X115095000Y-50000000D03*
D43*
X116365000Y-50000000D03*
X117635000Y-50000000D03*
X118905000Y-50000000D03*
D42*
X81095000Y-88000000D03*
D43*
X82365000Y-88000000D03*
X83635000Y-88000000D03*
X84905000Y-88000000D03*
D42*
X81095000Y-78500000D03*
D43*
X82365000Y-78500000D03*
X83635000Y-78500000D03*
X84905000Y-78500000D03*
D42*
X81095000Y-69000000D03*
D43*
X82365000Y-69000000D03*
X83635000Y-69000000D03*
X84905000Y-69000000D03*
D42*
X81095000Y-59500000D03*
D43*
X82365000Y-59500000D03*
X83635000Y-59500000D03*
X84905000Y-59500000D03*
D42*
X81095000Y-50000000D03*
D43*
X82365000Y-50000000D03*
X83635000Y-50000000D03*
X84905000Y-50000000D03*
D15*
X81825000Y-56075000D03*
D16*
X81825000Y-55150000D03*
X81825000Y-54350000D03*
D15*
X81825000Y-53425000D03*
X80175000Y-53425000D03*
D16*
X80175000Y-54350000D03*
X80175000Y-55150000D03*
D15*
X80175000Y-56075000D03*
X81825000Y-65575000D03*
D16*
X81825000Y-64650000D03*
X81825000Y-63850000D03*
D15*
X81825000Y-62925000D03*
X80175000Y-62925000D03*
D16*
X80175000Y-63850000D03*
X80175000Y-64650000D03*
D15*
X80175000Y-65575000D03*
X85825000Y-65575000D03*
D16*
X85825000Y-64650000D03*
X85825000Y-63850000D03*
D15*
X85825000Y-62925000D03*
X84175000Y-62925000D03*
D16*
X84175000Y-63850000D03*
X84175000Y-64650000D03*
D15*
X84175000Y-65575000D03*
X82075000Y-84575000D03*
D16*
X82075000Y-83650000D03*
X82075000Y-82850000D03*
D15*
X82075000Y-81925000D03*
X80425000Y-81925000D03*
D16*
X80425000Y-82850000D03*
X80425000Y-83650000D03*
D15*
X80425000Y-84575000D03*
X119575000Y-56075000D03*
D16*
X119575000Y-55150000D03*
X119575000Y-54350000D03*
D15*
X119575000Y-53425000D03*
X117925000Y-53425000D03*
D16*
X117925000Y-54350000D03*
X117925000Y-55150000D03*
D15*
X117925000Y-56075000D03*
X115825000Y-65575000D03*
D16*
X115825000Y-64650000D03*
X115825000Y-63850000D03*
D15*
X115825000Y-62925000D03*
X114175000Y-62925000D03*
D16*
X114175000Y-63850000D03*
X114175000Y-64650000D03*
D15*
X114175000Y-65575000D03*
X119825000Y-65575000D03*
D16*
X119825000Y-64650000D03*
X119825000Y-63850000D03*
D15*
X119825000Y-62925000D03*
X118175000Y-62925000D03*
D16*
X118175000Y-63850000D03*
X118175000Y-64650000D03*
D15*
X118175000Y-65575000D03*
X118175000Y-81925000D03*
D16*
X118175000Y-82850000D03*
X118175000Y-83650000D03*
D15*
X118175000Y-84575000D03*
X119825000Y-84575000D03*
D16*
X119825000Y-83650000D03*
X119825000Y-82850000D03*
D15*
X119825000Y-81925000D03*
X114175000Y-81925000D03*
D16*
X114175000Y-82850000D03*
X114175000Y-83650000D03*
D15*
X114175000Y-84575000D03*
X115825000Y-84575000D03*
D16*
X115825000Y-83650000D03*
X115825000Y-82850000D03*
D15*
X115825000Y-81925000D03*
X86375000Y-53575000D03*
D16*
X86375000Y-54500000D03*
X86375000Y-55300000D03*
D15*
X86375000Y-56225000D03*
X88025000Y-56225000D03*
D16*
X88025000Y-55300000D03*
X88025000Y-54500000D03*
D15*
X88025000Y-53575000D03*
D44*
X127500000Y-72000000D03*
X127500000Y-69500000D03*
X127500000Y-67000000D03*
X127500000Y-64500000D03*
X127500000Y-62000000D03*
M02*
