G04 #@! TF.FileFunction,Paste,Top*
%FSLAX46Y46*%
G04 Gerber Fmt 4.6, Leading zero omitted, Abs format (unit mm)*
G04 Created by KiCad (PCBNEW 4.0.7) date 03/11/18 20:39:24*
%MOMM*%
%LPD*%
G01*
G04 APERTURE LIST*
%ADD10C,0.100000*%
%ADD11C,0.150000*%
%ADD12R,0.900000X1.700000*%
%ADD13R,1.800000X3.600000*%
%ADD14R,1.800000X1.300000*%
%ADD15R,3.600000X1.800000*%
%ADD16R,1.300000X1.800000*%
%ADD17R,1.300000X1.700000*%
%ADD18R,0.200000X1.150000*%
%ADD19R,2.300000X1.000000*%
%ADD20R,1.000000X1.600000*%
%ADD21R,0.900000X1.250000*%
%ADD22R,1.250000X0.900000*%
%ADD23R,1.100000X0.800000*%
%ADD24R,1.100000X1.800000*%
%ADD25R,1.500000X0.900000*%
%ADD26R,1.200000X2.100000*%
%ADD27R,1.030000X0.430000*%
G04 APERTURE END LIST*
D10*
D11*
X15000000Y10000000D02*
X180000000Y10000000D01*
X15000000Y-150000000D02*
X15000000Y10000000D01*
X180000000Y-150000000D02*
X15000000Y-150000000D01*
X180000000Y10000000D02*
X180000000Y-150000000D01*
D12*
X115950000Y-75500000D03*
X119050000Y-75500000D03*
X118950000Y-59500000D03*
X122050000Y-59500000D03*
D13*
X100850000Y-93500000D03*
D14*
X94550000Y-93500000D03*
X94550000Y-95800000D03*
X94550000Y-91200000D03*
D13*
X100150000Y-83500000D03*
D14*
X93850000Y-83500000D03*
X93850000Y-85800000D03*
X93850000Y-81200000D03*
D13*
X90900000Y-93500000D03*
D14*
X84600000Y-93500000D03*
X84600000Y-95800000D03*
X84600000Y-91200000D03*
D15*
X71600000Y-70250000D03*
D16*
X71600000Y-63950000D03*
X69300000Y-63950000D03*
X73900000Y-63950000D03*
D17*
X74000000Y-91950000D03*
D18*
X72350000Y-89250000D03*
X71700000Y-89250000D03*
X74300000Y-89250000D03*
X73650000Y-89250000D03*
X73000000Y-89250000D03*
D17*
X72000000Y-91950000D03*
D19*
X89400000Y-52500000D03*
X89400000Y-54500000D03*
X89400000Y-56500000D03*
X89400000Y-58500000D03*
X89400000Y-60500000D03*
X89400000Y-62500000D03*
X89400000Y-64500000D03*
X89400000Y-66500000D03*
D20*
X92000000Y-68000000D03*
X94000000Y-68000000D03*
X96000000Y-68000000D03*
X98000000Y-68000000D03*
X100000000Y-68000000D03*
X102000000Y-68000000D03*
D19*
X104600000Y-66500000D03*
X104600000Y-64500000D03*
X104600000Y-62500000D03*
X104600000Y-60500000D03*
X104600000Y-58500000D03*
X104600000Y-56500000D03*
X104600000Y-54500000D03*
X104600000Y-52500000D03*
D21*
X74850000Y-75700000D03*
X72750000Y-75700000D03*
X68550000Y-61400000D03*
X70650000Y-61400000D03*
X68650000Y-75700000D03*
X70750000Y-75700000D03*
X72450000Y-61400000D03*
X74550000Y-61400000D03*
X88950000Y-73500000D03*
X91050000Y-73500000D03*
X88950000Y-71000000D03*
X91050000Y-71000000D03*
X105300000Y-88200000D03*
X103200000Y-88200000D03*
X113950000Y-99800000D03*
X116050000Y-99800000D03*
D22*
X125400000Y-91950000D03*
X125400000Y-89850000D03*
D23*
X96500000Y-92550000D03*
X96500000Y-94450000D03*
X98900000Y-93500000D03*
X95800000Y-82550000D03*
X95800000Y-84450000D03*
X98200000Y-83500000D03*
X86550000Y-92550000D03*
X86550000Y-94450000D03*
X88950000Y-93500000D03*
D12*
X80700000Y-55500000D03*
X83800000Y-55500000D03*
X83700000Y-52500000D03*
X86800000Y-52500000D03*
X111050000Y-63000000D03*
X107950000Y-63000000D03*
X107950000Y-66000000D03*
X111050000Y-66000000D03*
X86800000Y-64500000D03*
X83700000Y-64500000D03*
X111050000Y-60000000D03*
X107950000Y-60000000D03*
X86800000Y-58500000D03*
X83700000Y-58500000D03*
X76050000Y-50500000D03*
X72950000Y-50500000D03*
X78450000Y-65500000D03*
X81550000Y-65500000D03*
X81550000Y-52500000D03*
X78450000Y-52500000D03*
X81550000Y-62500000D03*
X78450000Y-62500000D03*
X71050000Y-50500000D03*
X67950000Y-50500000D03*
X83700000Y-61500000D03*
X86800000Y-61500000D03*
X78450000Y-72500000D03*
X81550000Y-72500000D03*
X78450000Y-82500000D03*
X81550000Y-82500000D03*
X83700000Y-70500000D03*
X86800000Y-70500000D03*
X83700000Y-73500000D03*
X86800000Y-73500000D03*
X83700000Y-67500000D03*
X86800000Y-67500000D03*
X78450000Y-75500000D03*
X81550000Y-75500000D03*
X78450000Y-85500000D03*
X81550000Y-85500000D03*
X113450000Y-52500000D03*
X116550000Y-52500000D03*
X78450000Y-92500000D03*
X81550000Y-92500000D03*
X118950000Y-53500000D03*
X122050000Y-53500000D03*
X84050000Y-88400000D03*
X87150000Y-88400000D03*
X118950000Y-50500000D03*
X122050000Y-50500000D03*
X113450000Y-62500000D03*
X116550000Y-62500000D03*
X111050000Y-69000000D03*
X107950000Y-69000000D03*
X118950000Y-69000000D03*
X122050000Y-69000000D03*
X118950000Y-56500000D03*
X122050000Y-56500000D03*
X118950000Y-66000000D03*
X122050000Y-66000000D03*
X111050000Y-89000000D03*
X107950000Y-89000000D03*
X113450000Y-82500000D03*
X116550000Y-82500000D03*
X122050000Y-82500000D03*
X118950000Y-82500000D03*
X118950000Y-79500000D03*
X122050000Y-79500000D03*
X116550000Y-85500000D03*
X113450000Y-85500000D03*
X111050000Y-54000000D03*
X107950000Y-54000000D03*
X93700000Y-71500000D03*
X96800000Y-71500000D03*
X111050000Y-57000000D03*
X107950000Y-57000000D03*
X102550000Y-71000000D03*
X99450000Y-71000000D03*
D24*
X107750000Y-76750000D03*
X103250000Y-76750000D03*
X103250000Y-85250000D03*
X107750000Y-85250000D03*
X90750000Y-76750000D03*
X86250000Y-76750000D03*
X86250000Y-85250000D03*
X90750000Y-85250000D03*
D25*
X78400000Y-79750000D03*
X78400000Y-78250000D03*
X81600000Y-78250000D03*
X81600000Y-79750000D03*
X78400000Y-69750000D03*
X78400000Y-68250000D03*
X81600000Y-68250000D03*
X81600000Y-69750000D03*
X78400000Y-59750000D03*
X78400000Y-58250000D03*
X81600000Y-58250000D03*
X81600000Y-59750000D03*
X78400000Y-49750000D03*
X78400000Y-48250000D03*
X81600000Y-48250000D03*
X81600000Y-49750000D03*
X78400000Y-89750000D03*
X78400000Y-88250000D03*
X81600000Y-88250000D03*
X81600000Y-89750000D03*
X113400000Y-49750000D03*
X113400000Y-48250000D03*
X116600000Y-48250000D03*
X116600000Y-49750000D03*
X113400000Y-59750000D03*
X113400000Y-58250000D03*
X116600000Y-58250000D03*
X116600000Y-59750000D03*
X113400000Y-69750000D03*
X113400000Y-68250000D03*
X116600000Y-68250000D03*
X116600000Y-69750000D03*
X113400000Y-79750000D03*
X113400000Y-78250000D03*
X116600000Y-78250000D03*
X116600000Y-79750000D03*
X113400000Y-89750000D03*
X113400000Y-88250000D03*
X116600000Y-88250000D03*
X116600000Y-89750000D03*
D26*
X115000000Y-103500000D03*
D27*
X116550000Y-104500000D03*
X116550000Y-103500000D03*
X116550000Y-102500000D03*
X113450000Y-102500000D03*
X113450000Y-103500000D03*
X113450000Y-104500000D03*
M02*
