G04 #@! TF.FileFunction,Legend,Bot*
%FSLAX46Y46*%
G04 Gerber Fmt 4.6, Leading zero omitted, Abs format (unit mm)*
G04 Created by KiCad (PCBNEW 4.0.7) date 2018 March 10, Saturday 13:23:40*
%MOMM*%
%LPD*%
G01*
G04 APERTURE LIST*
%ADD10C,0.100000*%
%ADD11C,0.250000*%
%ADD12C,0.300000*%
%ADD13C,0.120000*%
%ADD14C,0.010000*%
%ADD15C,0.150000*%
G04 APERTURE END LIST*
D10*
D11*
X124452381Y-47107143D02*
X123452381Y-47107143D01*
X123452381Y-47488096D01*
X123500000Y-47583334D01*
X123547619Y-47630953D01*
X123642857Y-47678572D01*
X123785714Y-47678572D01*
X123880952Y-47630953D01*
X123928571Y-47583334D01*
X123976190Y-47488096D01*
X123976190Y-47107143D01*
X124452381Y-48107143D02*
X123452381Y-48107143D01*
X124166667Y-48440477D01*
X123452381Y-48773810D01*
X124452381Y-48773810D01*
X124404762Y-49202381D02*
X124452381Y-49345238D01*
X124452381Y-49583334D01*
X124404762Y-49678572D01*
X124357143Y-49726191D01*
X124261905Y-49773810D01*
X124166667Y-49773810D01*
X124071429Y-49726191D01*
X124023810Y-49678572D01*
X123976190Y-49583334D01*
X123928571Y-49392857D01*
X123880952Y-49297619D01*
X123833333Y-49250000D01*
X123738095Y-49202381D01*
X123642857Y-49202381D01*
X123547619Y-49250000D01*
X123500000Y-49297619D01*
X123452381Y-49392857D01*
X123452381Y-49630953D01*
X123500000Y-49773810D01*
X123452381Y-50107143D02*
X123452381Y-50726191D01*
X123833333Y-50392857D01*
X123833333Y-50535715D01*
X123880952Y-50630953D01*
X123928571Y-50678572D01*
X124023810Y-50726191D01*
X124261905Y-50726191D01*
X124357143Y-50678572D01*
X124404762Y-50630953D01*
X124452381Y-50535715D01*
X124452381Y-50250000D01*
X124404762Y-50154762D01*
X124357143Y-50107143D01*
X123452381Y-51345238D02*
X123452381Y-51440477D01*
X123500000Y-51535715D01*
X123547619Y-51583334D01*
X123642857Y-51630953D01*
X123833333Y-51678572D01*
X124071429Y-51678572D01*
X124261905Y-51630953D01*
X124357143Y-51583334D01*
X124404762Y-51535715D01*
X124452381Y-51440477D01*
X124452381Y-51345238D01*
X124404762Y-51250000D01*
X124357143Y-51202381D01*
X124261905Y-51154762D01*
X124071429Y-51107143D01*
X123833333Y-51107143D01*
X123642857Y-51154762D01*
X123547619Y-51202381D01*
X123500000Y-51250000D01*
X123452381Y-51345238D01*
X123452381Y-52297619D02*
X123452381Y-52392858D01*
X123500000Y-52488096D01*
X123547619Y-52535715D01*
X123642857Y-52583334D01*
X123833333Y-52630953D01*
X124071429Y-52630953D01*
X124261905Y-52583334D01*
X124357143Y-52535715D01*
X124404762Y-52488096D01*
X124452381Y-52392858D01*
X124452381Y-52297619D01*
X124404762Y-52202381D01*
X124357143Y-52154762D01*
X124261905Y-52107143D01*
X124071429Y-52059524D01*
X123833333Y-52059524D01*
X123642857Y-52107143D01*
X123547619Y-52154762D01*
X123500000Y-52202381D01*
X123452381Y-52297619D01*
X123452381Y-52964286D02*
X123452381Y-53583334D01*
X123833333Y-53250000D01*
X123833333Y-53392858D01*
X123880952Y-53488096D01*
X123928571Y-53535715D01*
X124023810Y-53583334D01*
X124261905Y-53583334D01*
X124357143Y-53535715D01*
X124404762Y-53488096D01*
X124452381Y-53392858D01*
X124452381Y-53107143D01*
X124404762Y-53011905D01*
X124357143Y-52964286D01*
X123404762Y-54726191D02*
X124690476Y-53869048D01*
X123452381Y-55535715D02*
X123452381Y-55059524D01*
X123928571Y-55011905D01*
X123880952Y-55059524D01*
X123833333Y-55154762D01*
X123833333Y-55392858D01*
X123880952Y-55488096D01*
X123928571Y-55535715D01*
X124023810Y-55583334D01*
X124261905Y-55583334D01*
X124357143Y-55535715D01*
X124404762Y-55488096D01*
X124452381Y-55392858D01*
X124452381Y-55154762D01*
X124404762Y-55059524D01*
X124357143Y-55011905D01*
X123452381Y-56202381D02*
X123452381Y-56297620D01*
X123500000Y-56392858D01*
X123547619Y-56440477D01*
X123642857Y-56488096D01*
X123833333Y-56535715D01*
X124071429Y-56535715D01*
X124261905Y-56488096D01*
X124357143Y-56440477D01*
X124404762Y-56392858D01*
X124452381Y-56297620D01*
X124452381Y-56202381D01*
X124404762Y-56107143D01*
X124357143Y-56059524D01*
X124261905Y-56011905D01*
X124071429Y-55964286D01*
X123833333Y-55964286D01*
X123642857Y-56011905D01*
X123547619Y-56059524D01*
X123500000Y-56107143D01*
X123452381Y-56202381D01*
X123452381Y-57154762D02*
X123452381Y-57250001D01*
X123500000Y-57345239D01*
X123547619Y-57392858D01*
X123642857Y-57440477D01*
X123833333Y-57488096D01*
X124071429Y-57488096D01*
X124261905Y-57440477D01*
X124357143Y-57392858D01*
X124404762Y-57345239D01*
X124452381Y-57250001D01*
X124452381Y-57154762D01*
X124404762Y-57059524D01*
X124357143Y-57011905D01*
X124261905Y-56964286D01*
X124071429Y-56916667D01*
X123833333Y-56916667D01*
X123642857Y-56964286D01*
X123547619Y-57011905D01*
X123500000Y-57059524D01*
X123452381Y-57154762D01*
X123452381Y-57821429D02*
X123452381Y-58440477D01*
X123833333Y-58107143D01*
X123833333Y-58250001D01*
X123880952Y-58345239D01*
X123928571Y-58392858D01*
X124023810Y-58440477D01*
X124261905Y-58440477D01*
X124357143Y-58392858D01*
X124404762Y-58345239D01*
X124452381Y-58250001D01*
X124452381Y-57964286D01*
X124404762Y-57869048D01*
X124357143Y-57821429D01*
X124952381Y-85785714D02*
X123952381Y-85785714D01*
X123952381Y-86166667D01*
X124000000Y-86261905D01*
X124047619Y-86309524D01*
X124142857Y-86357143D01*
X124285714Y-86357143D01*
X124380952Y-86309524D01*
X124428571Y-86261905D01*
X124476190Y-86166667D01*
X124476190Y-85785714D01*
X124952381Y-86785714D02*
X123952381Y-86785714D01*
X124666667Y-87119048D01*
X123952381Y-87452381D01*
X124952381Y-87452381D01*
X124904762Y-87880952D02*
X124952381Y-88023809D01*
X124952381Y-88261905D01*
X124904762Y-88357143D01*
X124857143Y-88404762D01*
X124761905Y-88452381D01*
X124666667Y-88452381D01*
X124571429Y-88404762D01*
X124523810Y-88357143D01*
X124476190Y-88261905D01*
X124428571Y-88071428D01*
X124380952Y-87976190D01*
X124333333Y-87928571D01*
X124238095Y-87880952D01*
X124142857Y-87880952D01*
X124047619Y-87928571D01*
X124000000Y-87976190D01*
X123952381Y-88071428D01*
X123952381Y-88309524D01*
X124000000Y-88452381D01*
X123952381Y-88785714D02*
X123952381Y-89452381D01*
X124952381Y-89023809D01*
X123952381Y-90023809D02*
X123952381Y-90119048D01*
X124000000Y-90214286D01*
X124047619Y-90261905D01*
X124142857Y-90309524D01*
X124333333Y-90357143D01*
X124571429Y-90357143D01*
X124761905Y-90309524D01*
X124857143Y-90261905D01*
X124904762Y-90214286D01*
X124952381Y-90119048D01*
X124952381Y-90023809D01*
X124904762Y-89928571D01*
X124857143Y-89880952D01*
X124761905Y-89833333D01*
X124571429Y-89785714D01*
X124333333Y-89785714D01*
X124142857Y-89833333D01*
X124047619Y-89880952D01*
X124000000Y-89928571D01*
X123952381Y-90023809D01*
X123952381Y-90976190D02*
X123952381Y-91071429D01*
X124000000Y-91166667D01*
X124047619Y-91214286D01*
X124142857Y-91261905D01*
X124333333Y-91309524D01*
X124571429Y-91309524D01*
X124761905Y-91261905D01*
X124857143Y-91214286D01*
X124904762Y-91166667D01*
X124952381Y-91071429D01*
X124952381Y-90976190D01*
X124904762Y-90880952D01*
X124857143Y-90833333D01*
X124761905Y-90785714D01*
X124571429Y-90738095D01*
X124333333Y-90738095D01*
X124142857Y-90785714D01*
X124047619Y-90833333D01*
X124000000Y-90880952D01*
X123952381Y-90976190D01*
X123952381Y-91642857D02*
X123952381Y-92261905D01*
X124333333Y-91928571D01*
X124333333Y-92071429D01*
X124380952Y-92166667D01*
X124428571Y-92214286D01*
X124523810Y-92261905D01*
X124761905Y-92261905D01*
X124857143Y-92214286D01*
X124904762Y-92166667D01*
X124952381Y-92071429D01*
X124952381Y-91785714D01*
X124904762Y-91690476D01*
X124857143Y-91642857D01*
D12*
X95571428Y-44578571D02*
X96285714Y-44578571D01*
X96285714Y-43078571D01*
X95071428Y-44578571D02*
X95071428Y-43578571D01*
X95071428Y-43078571D02*
X95142857Y-43150000D01*
X95071428Y-43221429D01*
X95000000Y-43150000D01*
X95071428Y-43078571D01*
X95071428Y-43221429D01*
X93714285Y-44507143D02*
X93857142Y-44578571D01*
X94142856Y-44578571D01*
X94285714Y-44507143D01*
X94357142Y-44435714D01*
X94428571Y-44292857D01*
X94428571Y-43864286D01*
X94357142Y-43721429D01*
X94285714Y-43650000D01*
X94142856Y-43578571D01*
X93857142Y-43578571D01*
X93714285Y-43650000D01*
X92500000Y-44507143D02*
X92642857Y-44578571D01*
X92928571Y-44578571D01*
X93071428Y-44507143D01*
X93142857Y-44364286D01*
X93142857Y-43792857D01*
X93071428Y-43650000D01*
X92928571Y-43578571D01*
X92642857Y-43578571D01*
X92500000Y-43650000D01*
X92428571Y-43792857D01*
X92428571Y-43935714D01*
X93142857Y-44078571D01*
X91785714Y-43578571D02*
X91785714Y-44578571D01*
X91785714Y-43721429D02*
X91714286Y-43650000D01*
X91571428Y-43578571D01*
X91357143Y-43578571D01*
X91214286Y-43650000D01*
X91142857Y-43792857D01*
X91142857Y-44578571D01*
X90500000Y-44507143D02*
X90357143Y-44578571D01*
X90071428Y-44578571D01*
X89928571Y-44507143D01*
X89857143Y-44364286D01*
X89857143Y-44292857D01*
X89928571Y-44150000D01*
X90071428Y-44078571D01*
X90285714Y-44078571D01*
X90428571Y-44007143D01*
X90500000Y-43864286D01*
X90500000Y-43792857D01*
X90428571Y-43650000D01*
X90285714Y-43578571D01*
X90071428Y-43578571D01*
X89928571Y-43650000D01*
X88642857Y-44507143D02*
X88785714Y-44578571D01*
X89071428Y-44578571D01*
X89214285Y-44507143D01*
X89285714Y-44364286D01*
X89285714Y-43792857D01*
X89214285Y-43650000D01*
X89071428Y-43578571D01*
X88785714Y-43578571D01*
X88642857Y-43650000D01*
X88571428Y-43792857D01*
X88571428Y-43935714D01*
X89285714Y-44078571D01*
X87285714Y-44578571D02*
X87285714Y-43078571D01*
X87285714Y-44507143D02*
X87428571Y-44578571D01*
X87714285Y-44578571D01*
X87857143Y-44507143D01*
X87928571Y-44435714D01*
X88000000Y-44292857D01*
X88000000Y-43864286D01*
X87928571Y-43721429D01*
X87857143Y-43650000D01*
X87714285Y-43578571D01*
X87428571Y-43578571D01*
X87285714Y-43650000D01*
X84785714Y-43578571D02*
X84785714Y-44578571D01*
X85428571Y-43578571D02*
X85428571Y-44364286D01*
X85357143Y-44507143D01*
X85214285Y-44578571D01*
X85000000Y-44578571D01*
X84857143Y-44507143D01*
X84785714Y-44435714D01*
X84071428Y-43578571D02*
X84071428Y-44578571D01*
X84071428Y-43721429D02*
X84000000Y-43650000D01*
X83857142Y-43578571D01*
X83642857Y-43578571D01*
X83500000Y-43650000D01*
X83428571Y-43792857D01*
X83428571Y-44578571D01*
X82071428Y-44578571D02*
X82071428Y-43078571D01*
X82071428Y-44507143D02*
X82214285Y-44578571D01*
X82499999Y-44578571D01*
X82642857Y-44507143D01*
X82714285Y-44435714D01*
X82785714Y-44292857D01*
X82785714Y-43864286D01*
X82714285Y-43721429D01*
X82642857Y-43650000D01*
X82499999Y-43578571D01*
X82214285Y-43578571D01*
X82071428Y-43650000D01*
X80785714Y-44507143D02*
X80928571Y-44578571D01*
X81214285Y-44578571D01*
X81357142Y-44507143D01*
X81428571Y-44364286D01*
X81428571Y-43792857D01*
X81357142Y-43650000D01*
X81214285Y-43578571D01*
X80928571Y-43578571D01*
X80785714Y-43650000D01*
X80714285Y-43792857D01*
X80714285Y-43935714D01*
X81428571Y-44078571D01*
X80071428Y-44578571D02*
X80071428Y-43578571D01*
X80071428Y-43864286D02*
X80000000Y-43721429D01*
X79928571Y-43650000D01*
X79785714Y-43578571D01*
X79642857Y-43578571D01*
X105464285Y-46985714D02*
X105535714Y-47057143D01*
X105750000Y-47128571D01*
X105892857Y-47128571D01*
X106107142Y-47057143D01*
X106250000Y-46914286D01*
X106321428Y-46771429D01*
X106392857Y-46485714D01*
X106392857Y-46271429D01*
X106321428Y-45985714D01*
X106250000Y-45842857D01*
X106107142Y-45700000D01*
X105892857Y-45628571D01*
X105750000Y-45628571D01*
X105535714Y-45700000D01*
X105464285Y-45771429D01*
X104821428Y-46342857D02*
X104321428Y-46342857D01*
X104107142Y-47128571D02*
X104821428Y-47128571D01*
X104821428Y-45628571D01*
X104107142Y-45628571D01*
X102607142Y-47128571D02*
X103107142Y-46414286D01*
X103464285Y-47128571D02*
X103464285Y-45628571D01*
X102892857Y-45628571D01*
X102749999Y-45700000D01*
X102678571Y-45771429D01*
X102607142Y-45914286D01*
X102607142Y-46128571D01*
X102678571Y-46271429D01*
X102749999Y-46342857D01*
X102892857Y-46414286D01*
X103464285Y-46414286D01*
X101964285Y-47128571D02*
X101964285Y-45628571D01*
X101107142Y-47128571D01*
X101107142Y-45628571D01*
X98964285Y-45628571D02*
X98678571Y-45628571D01*
X98535713Y-45700000D01*
X98392856Y-45842857D01*
X98321428Y-46128571D01*
X98321428Y-46628571D01*
X98392856Y-46914286D01*
X98535713Y-47057143D01*
X98678571Y-47128571D01*
X98964285Y-47128571D01*
X99107142Y-47057143D01*
X99249999Y-46914286D01*
X99321428Y-46628571D01*
X99321428Y-46128571D01*
X99249999Y-45842857D01*
X99107142Y-45700000D01*
X98964285Y-45628571D01*
X97678570Y-46128571D02*
X97678570Y-47628571D01*
X97678570Y-46200000D02*
X97535713Y-46128571D01*
X97249999Y-46128571D01*
X97107142Y-46200000D01*
X97035713Y-46271429D01*
X96964284Y-46414286D01*
X96964284Y-46842857D01*
X97035713Y-46985714D01*
X97107142Y-47057143D01*
X97249999Y-47128571D01*
X97535713Y-47128571D01*
X97678570Y-47057143D01*
X95749999Y-47057143D02*
X95892856Y-47128571D01*
X96178570Y-47128571D01*
X96321427Y-47057143D01*
X96392856Y-46914286D01*
X96392856Y-46342857D01*
X96321427Y-46200000D01*
X96178570Y-46128571D01*
X95892856Y-46128571D01*
X95749999Y-46200000D01*
X95678570Y-46342857D01*
X95678570Y-46485714D01*
X96392856Y-46628571D01*
X95035713Y-46128571D02*
X95035713Y-47128571D01*
X95035713Y-46271429D02*
X94964285Y-46200000D01*
X94821427Y-46128571D01*
X94607142Y-46128571D01*
X94464285Y-46200000D01*
X94392856Y-46342857D01*
X94392856Y-47128571D01*
X92535713Y-47128571D02*
X92535713Y-45628571D01*
X92535713Y-46342857D02*
X91678570Y-46342857D01*
X91678570Y-47128571D02*
X91678570Y-45628571D01*
X90321427Y-47128571D02*
X90321427Y-46342857D01*
X90392856Y-46200000D01*
X90535713Y-46128571D01*
X90821427Y-46128571D01*
X90964284Y-46200000D01*
X90321427Y-47057143D02*
X90464284Y-47128571D01*
X90821427Y-47128571D01*
X90964284Y-47057143D01*
X91035713Y-46914286D01*
X91035713Y-46771429D01*
X90964284Y-46628571D01*
X90821427Y-46557143D01*
X90464284Y-46557143D01*
X90321427Y-46485714D01*
X89607141Y-47128571D02*
X89607141Y-46128571D01*
X89607141Y-46414286D02*
X89535713Y-46271429D01*
X89464284Y-46200000D01*
X89321427Y-46128571D01*
X89178570Y-46128571D01*
X88035713Y-47128571D02*
X88035713Y-45628571D01*
X88035713Y-47057143D02*
X88178570Y-47128571D01*
X88464284Y-47128571D01*
X88607142Y-47057143D01*
X88678570Y-46985714D01*
X88749999Y-46842857D01*
X88749999Y-46414286D01*
X88678570Y-46271429D01*
X88607142Y-46200000D01*
X88464284Y-46128571D01*
X88178570Y-46128571D01*
X88035713Y-46200000D01*
X87464284Y-46128571D02*
X87178570Y-47128571D01*
X86892856Y-46414286D01*
X86607141Y-47128571D01*
X86321427Y-46128571D01*
X85107141Y-47128571D02*
X85107141Y-46342857D01*
X85178570Y-46200000D01*
X85321427Y-46128571D01*
X85607141Y-46128571D01*
X85749998Y-46200000D01*
X85107141Y-47057143D02*
X85249998Y-47128571D01*
X85607141Y-47128571D01*
X85749998Y-47057143D01*
X85821427Y-46914286D01*
X85821427Y-46771429D01*
X85749998Y-46628571D01*
X85607141Y-46557143D01*
X85249998Y-46557143D01*
X85107141Y-46485714D01*
X84392855Y-47128571D02*
X84392855Y-46128571D01*
X84392855Y-46414286D02*
X84321427Y-46271429D01*
X84249998Y-46200000D01*
X84107141Y-46128571D01*
X83964284Y-46128571D01*
X82892856Y-47057143D02*
X83035713Y-47128571D01*
X83321427Y-47128571D01*
X83464284Y-47057143D01*
X83535713Y-46914286D01*
X83535713Y-46342857D01*
X83464284Y-46200000D01*
X83321427Y-46128571D01*
X83035713Y-46128571D01*
X82892856Y-46200000D01*
X82821427Y-46342857D01*
X82821427Y-46485714D01*
X83535713Y-46628571D01*
X80321427Y-47128571D02*
X81035713Y-47128571D01*
X81035713Y-45628571D01*
X79821427Y-47128571D02*
X79821427Y-46128571D01*
X79821427Y-45628571D02*
X79892856Y-45700000D01*
X79821427Y-45771429D01*
X79749999Y-45700000D01*
X79821427Y-45628571D01*
X79821427Y-45771429D01*
X78464284Y-47057143D02*
X78607141Y-47128571D01*
X78892855Y-47128571D01*
X79035713Y-47057143D01*
X79107141Y-46985714D01*
X79178570Y-46842857D01*
X79178570Y-46414286D01*
X79107141Y-46271429D01*
X79035713Y-46200000D01*
X78892855Y-46128571D01*
X78607141Y-46128571D01*
X78464284Y-46200000D01*
X77249999Y-47057143D02*
X77392856Y-47128571D01*
X77678570Y-47128571D01*
X77821427Y-47057143D01*
X77892856Y-46914286D01*
X77892856Y-46342857D01*
X77821427Y-46200000D01*
X77678570Y-46128571D01*
X77392856Y-46128571D01*
X77249999Y-46200000D01*
X77178570Y-46342857D01*
X77178570Y-46485714D01*
X77892856Y-46628571D01*
X76535713Y-46128571D02*
X76535713Y-47128571D01*
X76535713Y-46271429D02*
X76464285Y-46200000D01*
X76321427Y-46128571D01*
X76107142Y-46128571D01*
X75964285Y-46200000D01*
X75892856Y-46342857D01*
X75892856Y-47128571D01*
X75249999Y-47057143D02*
X75107142Y-47128571D01*
X74821427Y-47128571D01*
X74678570Y-47057143D01*
X74607142Y-46914286D01*
X74607142Y-46842857D01*
X74678570Y-46700000D01*
X74821427Y-46628571D01*
X75035713Y-46628571D01*
X75178570Y-46557143D01*
X75249999Y-46414286D01*
X75249999Y-46342857D01*
X75178570Y-46200000D01*
X75035713Y-46128571D01*
X74821427Y-46128571D01*
X74678570Y-46200000D01*
X73392856Y-47057143D02*
X73535713Y-47128571D01*
X73821427Y-47128571D01*
X73964284Y-47057143D01*
X74035713Y-46914286D01*
X74035713Y-46342857D01*
X73964284Y-46200000D01*
X73821427Y-46128571D01*
X73535713Y-46128571D01*
X73392856Y-46200000D01*
X73321427Y-46342857D01*
X73321427Y-46485714D01*
X74035713Y-46628571D01*
X70749999Y-47128571D02*
X71607142Y-47128571D01*
X71178570Y-47128571D02*
X71178570Y-45628571D01*
X71321427Y-45842857D01*
X71464285Y-45985714D01*
X71607142Y-46057143D01*
X70107142Y-46985714D02*
X70035714Y-47057143D01*
X70107142Y-47128571D01*
X70178571Y-47057143D01*
X70107142Y-46985714D01*
X70107142Y-47128571D01*
X69464285Y-45771429D02*
X69392856Y-45700000D01*
X69249999Y-45628571D01*
X68892856Y-45628571D01*
X68749999Y-45700000D01*
X68678570Y-45771429D01*
X68607142Y-45914286D01*
X68607142Y-46057143D01*
X68678570Y-46271429D01*
X69535713Y-47128571D01*
X68607142Y-47128571D01*
X92214285Y-52228571D02*
X92714285Y-51514286D01*
X93071428Y-52228571D02*
X93071428Y-50728571D01*
X92500000Y-50728571D01*
X92357142Y-50800000D01*
X92285714Y-50871429D01*
X92214285Y-51014286D01*
X92214285Y-51228571D01*
X92285714Y-51371429D01*
X92357142Y-51442857D01*
X92500000Y-51514286D01*
X93071428Y-51514286D01*
X91000000Y-52157143D02*
X91142857Y-52228571D01*
X91428571Y-52228571D01*
X91571428Y-52157143D01*
X91642857Y-52014286D01*
X91642857Y-51442857D01*
X91571428Y-51300000D01*
X91428571Y-51228571D01*
X91142857Y-51228571D01*
X91000000Y-51300000D01*
X90928571Y-51442857D01*
X90928571Y-51585714D01*
X91642857Y-51728571D01*
X90428571Y-51228571D02*
X90071428Y-52228571D01*
X89714286Y-51228571D01*
X89142857Y-52228571D02*
X89142857Y-51228571D01*
X89142857Y-50728571D02*
X89214286Y-50800000D01*
X89142857Y-50871429D01*
X89071429Y-50800000D01*
X89142857Y-50728571D01*
X89142857Y-50871429D01*
X88500000Y-52157143D02*
X88357143Y-52228571D01*
X88071428Y-52228571D01*
X87928571Y-52157143D01*
X87857143Y-52014286D01*
X87857143Y-51942857D01*
X87928571Y-51800000D01*
X88071428Y-51728571D01*
X88285714Y-51728571D01*
X88428571Y-51657143D01*
X88500000Y-51514286D01*
X88500000Y-51442857D01*
X88428571Y-51300000D01*
X88285714Y-51228571D01*
X88071428Y-51228571D01*
X87928571Y-51300000D01*
X87214285Y-52228571D02*
X87214285Y-51228571D01*
X87214285Y-50728571D02*
X87285714Y-50800000D01*
X87214285Y-50871429D01*
X87142857Y-50800000D01*
X87214285Y-50728571D01*
X87214285Y-50871429D01*
X86285713Y-52228571D02*
X86428571Y-52157143D01*
X86499999Y-52085714D01*
X86571428Y-51942857D01*
X86571428Y-51514286D01*
X86499999Y-51371429D01*
X86428571Y-51300000D01*
X86285713Y-51228571D01*
X86071428Y-51228571D01*
X85928571Y-51300000D01*
X85857142Y-51371429D01*
X85785713Y-51514286D01*
X85785713Y-51942857D01*
X85857142Y-52085714D01*
X85928571Y-52157143D01*
X86071428Y-52228571D01*
X86285713Y-52228571D01*
X85142856Y-51228571D02*
X85142856Y-52228571D01*
X85142856Y-51371429D02*
X85071428Y-51300000D01*
X84928570Y-51228571D01*
X84714285Y-51228571D01*
X84571428Y-51300000D01*
X84499999Y-51442857D01*
X84499999Y-52228571D01*
X81857142Y-52228571D02*
X82714285Y-52228571D01*
X82285713Y-52228571D02*
X82285713Y-50728571D01*
X82428570Y-50942857D01*
X82571428Y-51085714D01*
X82714285Y-51157143D01*
D13*
X128100000Y-97100000D02*
X79800000Y-97100000D01*
X79800000Y-97100000D02*
X79800000Y-59800000D01*
X79800000Y-59800000D02*
X128100000Y-59800000D01*
X128100000Y-59800000D02*
X128100000Y-97100000D01*
X120415000Y-92235000D02*
X121057470Y-92235000D01*
X121672530Y-92235000D02*
X121875000Y-92235000D01*
X120415000Y-92235000D02*
X120415000Y-85765000D01*
X122942530Y-85765000D02*
X123585000Y-85765000D01*
X120415000Y-85765000D02*
X121057470Y-85765000D01*
X121672530Y-85765000D02*
X122327470Y-85765000D01*
X123585000Y-90905000D02*
X123585000Y-85765000D01*
X123395000Y-90905000D02*
X123585000Y-90905000D01*
X123585000Y-92300000D02*
X123585000Y-91540000D01*
X122635000Y-92300000D02*
X123585000Y-92300000D01*
X68250000Y-84700000D02*
X68250000Y-93500000D01*
X68250000Y-93500000D02*
X77450000Y-93500000D01*
X70950000Y-78800000D02*
X68250000Y-78800000D01*
X68250000Y-78800000D02*
X68250000Y-80700000D01*
X77450000Y-93500000D02*
X77450000Y-78800000D01*
X77450000Y-78800000D02*
X74850000Y-78800000D01*
X126850000Y-57400000D02*
X127150000Y-57400000D01*
X127150000Y-57400000D02*
X127150000Y-57900000D01*
X126600000Y-52775000D02*
X126600000Y-57650000D01*
X126600000Y-57650000D02*
X126900000Y-57650000D01*
X126900000Y-57650000D02*
X126900000Y-58800000D01*
X126900000Y-58800000D02*
X121100000Y-58800000D01*
X121100000Y-58800000D02*
X121100000Y-52775000D01*
X126600000Y-52775000D02*
X126600000Y-47900000D01*
X126600000Y-47900000D02*
X126900000Y-47900000D01*
X126900000Y-47900000D02*
X126900000Y-46750000D01*
X126900000Y-46750000D02*
X121100000Y-46750000D01*
X121100000Y-46750000D02*
X121100000Y-52775000D01*
X76920000Y-69270000D02*
X66680000Y-69270000D01*
X76920000Y-53380000D02*
X66680000Y-53380000D01*
X76920000Y-53380000D02*
X76920000Y-69270000D01*
X66680000Y-53380000D02*
X66680000Y-69270000D01*
X74340000Y-69270000D02*
X74340000Y-71910000D01*
X71800000Y-69270000D02*
X71800000Y-71894000D01*
X69260000Y-69270000D02*
X69260000Y-71894000D01*
D14*
G36*
X126269066Y-60378629D02*
X126269467Y-60418111D01*
X126272259Y-60533800D01*
X126280550Y-60630689D01*
X126295232Y-60712081D01*
X126317193Y-60781277D01*
X126347322Y-60841580D01*
X126386510Y-60896292D01*
X126403532Y-60915833D01*
X126443363Y-60948250D01*
X126497413Y-60977480D01*
X126557323Y-61000009D01*
X126614739Y-61012321D01*
X126635956Y-61013600D01*
X126694769Y-61005583D01*
X126759013Y-60984101D01*
X126819821Y-60953001D01*
X126868330Y-60916134D01*
X126874182Y-60910146D01*
X126915321Y-60859421D01*
X126947435Y-60803875D01*
X126971365Y-60740304D01*
X126987953Y-60665506D01*
X126998041Y-60576278D01*
X127002469Y-60469418D01*
X127002845Y-60420472D01*
X127002545Y-60358238D01*
X127001292Y-60314472D01*
X126998554Y-60285069D01*
X126993801Y-60265921D01*
X126986501Y-60252923D01*
X126980267Y-60245955D01*
X126972694Y-60239374D01*
X126962924Y-60234212D01*
X126948340Y-60230297D01*
X126926326Y-60227457D01*
X126894264Y-60225520D01*
X126849536Y-60224316D01*
X126789526Y-60223672D01*
X126711617Y-60223417D01*
X126635956Y-60223378D01*
X126535041Y-60223130D01*
X126454427Y-60223183D01*
X126415822Y-60224143D01*
X126415822Y-60370133D01*
X126856089Y-60370133D01*
X126856004Y-60463266D01*
X126854396Y-60519307D01*
X126850256Y-60578001D01*
X126844464Y-60626972D01*
X126844226Y-60628462D01*
X126825090Y-60707608D01*
X126795287Y-60768998D01*
X126752878Y-60815695D01*
X126706961Y-60845365D01*
X126656026Y-60863647D01*
X126608200Y-60862229D01*
X126556933Y-60841012D01*
X126503899Y-60799511D01*
X126464600Y-60742002D01*
X126438331Y-60667250D01*
X126429035Y-60617292D01*
X126422507Y-60560584D01*
X126417782Y-60500481D01*
X126415817Y-60449361D01*
X126415808Y-60446333D01*
X126415822Y-60370133D01*
X126415822Y-60224143D01*
X126391851Y-60224740D01*
X126345055Y-60229002D01*
X126311778Y-60237170D01*
X126289759Y-60250444D01*
X126276739Y-60270026D01*
X126270457Y-60297117D01*
X126268653Y-60332918D01*
X126269066Y-60378629D01*
X126269066Y-60378629D01*
G37*
X126269066Y-60378629D02*
X126269467Y-60418111D01*
X126272259Y-60533800D01*
X126280550Y-60630689D01*
X126295232Y-60712081D01*
X126317193Y-60781277D01*
X126347322Y-60841580D01*
X126386510Y-60896292D01*
X126403532Y-60915833D01*
X126443363Y-60948250D01*
X126497413Y-60977480D01*
X126557323Y-61000009D01*
X126614739Y-61012321D01*
X126635956Y-61013600D01*
X126694769Y-61005583D01*
X126759013Y-60984101D01*
X126819821Y-60953001D01*
X126868330Y-60916134D01*
X126874182Y-60910146D01*
X126915321Y-60859421D01*
X126947435Y-60803875D01*
X126971365Y-60740304D01*
X126987953Y-60665506D01*
X126998041Y-60576278D01*
X127002469Y-60469418D01*
X127002845Y-60420472D01*
X127002545Y-60358238D01*
X127001292Y-60314472D01*
X126998554Y-60285069D01*
X126993801Y-60265921D01*
X126986501Y-60252923D01*
X126980267Y-60245955D01*
X126972694Y-60239374D01*
X126962924Y-60234212D01*
X126948340Y-60230297D01*
X126926326Y-60227457D01*
X126894264Y-60225520D01*
X126849536Y-60224316D01*
X126789526Y-60223672D01*
X126711617Y-60223417D01*
X126635956Y-60223378D01*
X126535041Y-60223130D01*
X126454427Y-60223183D01*
X126415822Y-60224143D01*
X126415822Y-60370133D01*
X126856089Y-60370133D01*
X126856004Y-60463266D01*
X126854396Y-60519307D01*
X126850256Y-60578001D01*
X126844464Y-60626972D01*
X126844226Y-60628462D01*
X126825090Y-60707608D01*
X126795287Y-60768998D01*
X126752878Y-60815695D01*
X126706961Y-60845365D01*
X126656026Y-60863647D01*
X126608200Y-60862229D01*
X126556933Y-60841012D01*
X126503899Y-60799511D01*
X126464600Y-60742002D01*
X126438331Y-60667250D01*
X126429035Y-60617292D01*
X126422507Y-60560584D01*
X126417782Y-60500481D01*
X126415817Y-60449361D01*
X126415808Y-60446333D01*
X126415822Y-60370133D01*
X126415822Y-60224143D01*
X126391851Y-60224740D01*
X126345055Y-60229002D01*
X126311778Y-60237170D01*
X126289759Y-60250444D01*
X126276739Y-60270026D01*
X126270457Y-60297117D01*
X126268653Y-60332918D01*
X126269066Y-60378629D01*
G36*
X126269146Y-61787206D02*
X126269518Y-61856614D01*
X126270385Y-61909003D01*
X126271946Y-61947153D01*
X126274403Y-61973841D01*
X126277957Y-61991847D01*
X126282810Y-62003951D01*
X126289161Y-62012931D01*
X126292084Y-62016182D01*
X126323142Y-62035957D01*
X126358828Y-62039518D01*
X126390510Y-62026509D01*
X126396913Y-62020494D01*
X126403121Y-62010765D01*
X126407910Y-61995099D01*
X126411514Y-61970592D01*
X126414164Y-61934339D01*
X126416095Y-61883435D01*
X126417539Y-61814974D01*
X126418418Y-61752383D01*
X126421467Y-61504666D01*
X126486378Y-61501281D01*
X126551289Y-61497895D01*
X126551289Y-61666042D01*
X126551919Y-61739041D01*
X126554553Y-61792483D01*
X126560309Y-61829372D01*
X126570304Y-61852712D01*
X126585656Y-61865506D01*
X126607482Y-61870758D01*
X126627738Y-61871555D01*
X126652592Y-61869077D01*
X126670906Y-61859723D01*
X126683637Y-61840617D01*
X126691741Y-61808882D01*
X126696176Y-61761641D01*
X126697899Y-61696017D01*
X126698045Y-61660199D01*
X126698045Y-61499022D01*
X126856089Y-61499022D01*
X126856089Y-61747378D01*
X126856202Y-61828787D01*
X126856712Y-61890658D01*
X126857870Y-61936032D01*
X126859930Y-61967946D01*
X126863146Y-61989441D01*
X126867772Y-62003557D01*
X126874059Y-62013332D01*
X126878667Y-62018311D01*
X126905560Y-62035390D01*
X126929467Y-62040889D01*
X126958667Y-62033037D01*
X126980267Y-62018311D01*
X126987066Y-62010454D01*
X126992346Y-62000312D01*
X126996298Y-61985156D01*
X126999113Y-61962259D01*
X127000982Y-61928891D01*
X127002098Y-61882325D01*
X127002651Y-61819833D01*
X127002833Y-61738686D01*
X127002845Y-61696578D01*
X127002765Y-61606402D01*
X127002398Y-61536076D01*
X127001552Y-61482871D01*
X127000036Y-61444060D01*
X126997659Y-61416913D01*
X126994229Y-61398702D01*
X126989554Y-61386700D01*
X126983444Y-61378178D01*
X126980267Y-61374844D01*
X126972670Y-61368245D01*
X126962870Y-61363073D01*
X126948239Y-61359154D01*
X126926152Y-61356316D01*
X126893982Y-61354385D01*
X126849103Y-61353188D01*
X126788889Y-61352552D01*
X126710713Y-61352303D01*
X126637923Y-61352266D01*
X126544707Y-61352300D01*
X126471431Y-61352535D01*
X126415458Y-61353170D01*
X126374151Y-61354406D01*
X126344872Y-61356444D01*
X126324984Y-61359483D01*
X126311850Y-61363723D01*
X126302832Y-61369365D01*
X126295293Y-61376609D01*
X126293612Y-61378394D01*
X126286172Y-61387055D01*
X126280409Y-61397118D01*
X126276112Y-61411375D01*
X126273064Y-61432617D01*
X126271051Y-61463636D01*
X126269860Y-61507223D01*
X126269275Y-61566169D01*
X126269083Y-61643266D01*
X126269067Y-61697999D01*
X126269146Y-61787206D01*
X126269146Y-61787206D01*
G37*
X126269146Y-61787206D02*
X126269518Y-61856614D01*
X126270385Y-61909003D01*
X126271946Y-61947153D01*
X126274403Y-61973841D01*
X126277957Y-61991847D01*
X126282810Y-62003951D01*
X126289161Y-62012931D01*
X126292084Y-62016182D01*
X126323142Y-62035957D01*
X126358828Y-62039518D01*
X126390510Y-62026509D01*
X126396913Y-62020494D01*
X126403121Y-62010765D01*
X126407910Y-61995099D01*
X126411514Y-61970592D01*
X126414164Y-61934339D01*
X126416095Y-61883435D01*
X126417539Y-61814974D01*
X126418418Y-61752383D01*
X126421467Y-61504666D01*
X126486378Y-61501281D01*
X126551289Y-61497895D01*
X126551289Y-61666042D01*
X126551919Y-61739041D01*
X126554553Y-61792483D01*
X126560309Y-61829372D01*
X126570304Y-61852712D01*
X126585656Y-61865506D01*
X126607482Y-61870758D01*
X126627738Y-61871555D01*
X126652592Y-61869077D01*
X126670906Y-61859723D01*
X126683637Y-61840617D01*
X126691741Y-61808882D01*
X126696176Y-61761641D01*
X126697899Y-61696017D01*
X126698045Y-61660199D01*
X126698045Y-61499022D01*
X126856089Y-61499022D01*
X126856089Y-61747378D01*
X126856202Y-61828787D01*
X126856712Y-61890658D01*
X126857870Y-61936032D01*
X126859930Y-61967946D01*
X126863146Y-61989441D01*
X126867772Y-62003557D01*
X126874059Y-62013332D01*
X126878667Y-62018311D01*
X126905560Y-62035390D01*
X126929467Y-62040889D01*
X126958667Y-62033037D01*
X126980267Y-62018311D01*
X126987066Y-62010454D01*
X126992346Y-62000312D01*
X126996298Y-61985156D01*
X126999113Y-61962259D01*
X127000982Y-61928891D01*
X127002098Y-61882325D01*
X127002651Y-61819833D01*
X127002833Y-61738686D01*
X127002845Y-61696578D01*
X127002765Y-61606402D01*
X127002398Y-61536076D01*
X127001552Y-61482871D01*
X127000036Y-61444060D01*
X126997659Y-61416913D01*
X126994229Y-61398702D01*
X126989554Y-61386700D01*
X126983444Y-61378178D01*
X126980267Y-61374844D01*
X126972670Y-61368245D01*
X126962870Y-61363073D01*
X126948239Y-61359154D01*
X126926152Y-61356316D01*
X126893982Y-61354385D01*
X126849103Y-61353188D01*
X126788889Y-61352552D01*
X126710713Y-61352303D01*
X126637923Y-61352266D01*
X126544707Y-61352300D01*
X126471431Y-61352535D01*
X126415458Y-61353170D01*
X126374151Y-61354406D01*
X126344872Y-61356444D01*
X126324984Y-61359483D01*
X126311850Y-61363723D01*
X126302832Y-61369365D01*
X126295293Y-61376609D01*
X126293612Y-61378394D01*
X126286172Y-61387055D01*
X126280409Y-61397118D01*
X126276112Y-61411375D01*
X126273064Y-61432617D01*
X126271051Y-61463636D01*
X126269860Y-61507223D01*
X126269275Y-61566169D01*
X126269083Y-61643266D01*
X126269067Y-61697999D01*
X126269146Y-61787206D01*
G36*
X126270351Y-62808297D02*
X126275581Y-62883112D01*
X126283750Y-62952694D01*
X126294550Y-63012998D01*
X126307673Y-63059980D01*
X126322813Y-63089594D01*
X126327269Y-63094140D01*
X126361850Y-63109946D01*
X126397351Y-63105153D01*
X126427725Y-63080636D01*
X126428596Y-63079466D01*
X126437954Y-63065046D01*
X126442876Y-63049992D01*
X126443473Y-63028995D01*
X126439861Y-62996743D01*
X126432154Y-62947927D01*
X126431505Y-62944000D01*
X126422569Y-62871261D01*
X126418161Y-62792783D01*
X126418119Y-62714073D01*
X126422279Y-62640639D01*
X126430479Y-62577989D01*
X126442557Y-62531630D01*
X126443771Y-62528584D01*
X126462615Y-62494952D01*
X126481685Y-62483136D01*
X126500439Y-62492386D01*
X126518337Y-62521953D01*
X126534837Y-62571089D01*
X126549396Y-62639043D01*
X126556406Y-62684355D01*
X126569889Y-62778544D01*
X126582214Y-62853456D01*
X126594449Y-62912283D01*
X126607661Y-62958215D01*
X126622917Y-62994445D01*
X126641285Y-63024162D01*
X126663831Y-63050558D01*
X126685971Y-63071770D01*
X126716819Y-63096935D01*
X126743345Y-63109319D01*
X126776026Y-63113192D01*
X126787995Y-63113333D01*
X126827712Y-63110424D01*
X126857259Y-63098798D01*
X126883486Y-63078677D01*
X126923576Y-63037784D01*
X126954149Y-62992183D01*
X126976203Y-62938487D01*
X126990735Y-62873308D01*
X126998741Y-62793256D01*
X127001218Y-62694943D01*
X127001177Y-62678711D01*
X126999818Y-62613151D01*
X126996730Y-62548134D01*
X126992356Y-62490748D01*
X126987140Y-62448078D01*
X126986541Y-62444628D01*
X126976491Y-62402204D01*
X126963796Y-62366220D01*
X126952190Y-62345850D01*
X126921572Y-62326893D01*
X126885918Y-62325573D01*
X126854144Y-62341915D01*
X126850551Y-62345571D01*
X126839876Y-62360685D01*
X126835276Y-62379585D01*
X126836059Y-62408838D01*
X126840127Y-62444349D01*
X126843762Y-62484030D01*
X126846828Y-62539655D01*
X126849053Y-62604594D01*
X126850164Y-62672215D01*
X126850237Y-62690000D01*
X126849964Y-62757872D01*
X126848646Y-62807546D01*
X126845827Y-62843390D01*
X126841050Y-62869776D01*
X126833857Y-62891074D01*
X126827867Y-62903874D01*
X126811233Y-62932000D01*
X126796168Y-62949932D01*
X126791897Y-62952553D01*
X126774263Y-62947024D01*
X126757192Y-62920740D01*
X126741458Y-62875522D01*
X126727838Y-62813192D01*
X126724804Y-62794829D01*
X126709738Y-62698910D01*
X126697146Y-62622359D01*
X126686111Y-62562220D01*
X126675720Y-62515540D01*
X126665056Y-62479363D01*
X126653205Y-62450735D01*
X126639251Y-62426702D01*
X126622281Y-62404308D01*
X126601378Y-62380598D01*
X126594049Y-62372620D01*
X126566699Y-62344647D01*
X126545029Y-62329840D01*
X126520232Y-62324048D01*
X126488983Y-62323111D01*
X126427705Y-62333425D01*
X126375640Y-62364248D01*
X126332958Y-62415405D01*
X126299825Y-62486717D01*
X126284964Y-62537600D01*
X126275366Y-62592900D01*
X126269936Y-62659147D01*
X126268367Y-62732294D01*
X126270351Y-62808297D01*
X126270351Y-62808297D01*
G37*
X126270351Y-62808297D02*
X126275581Y-62883112D01*
X126283750Y-62952694D01*
X126294550Y-63012998D01*
X126307673Y-63059980D01*
X126322813Y-63089594D01*
X126327269Y-63094140D01*
X126361850Y-63109946D01*
X126397351Y-63105153D01*
X126427725Y-63080636D01*
X126428596Y-63079466D01*
X126437954Y-63065046D01*
X126442876Y-63049992D01*
X126443473Y-63028995D01*
X126439861Y-62996743D01*
X126432154Y-62947927D01*
X126431505Y-62944000D01*
X126422569Y-62871261D01*
X126418161Y-62792783D01*
X126418119Y-62714073D01*
X126422279Y-62640639D01*
X126430479Y-62577989D01*
X126442557Y-62531630D01*
X126443771Y-62528584D01*
X126462615Y-62494952D01*
X126481685Y-62483136D01*
X126500439Y-62492386D01*
X126518337Y-62521953D01*
X126534837Y-62571089D01*
X126549396Y-62639043D01*
X126556406Y-62684355D01*
X126569889Y-62778544D01*
X126582214Y-62853456D01*
X126594449Y-62912283D01*
X126607661Y-62958215D01*
X126622917Y-62994445D01*
X126641285Y-63024162D01*
X126663831Y-63050558D01*
X126685971Y-63071770D01*
X126716819Y-63096935D01*
X126743345Y-63109319D01*
X126776026Y-63113192D01*
X126787995Y-63113333D01*
X126827712Y-63110424D01*
X126857259Y-63098798D01*
X126883486Y-63078677D01*
X126923576Y-63037784D01*
X126954149Y-62992183D01*
X126976203Y-62938487D01*
X126990735Y-62873308D01*
X126998741Y-62793256D01*
X127001218Y-62694943D01*
X127001177Y-62678711D01*
X126999818Y-62613151D01*
X126996730Y-62548134D01*
X126992356Y-62490748D01*
X126987140Y-62448078D01*
X126986541Y-62444628D01*
X126976491Y-62402204D01*
X126963796Y-62366220D01*
X126952190Y-62345850D01*
X126921572Y-62326893D01*
X126885918Y-62325573D01*
X126854144Y-62341915D01*
X126850551Y-62345571D01*
X126839876Y-62360685D01*
X126835276Y-62379585D01*
X126836059Y-62408838D01*
X126840127Y-62444349D01*
X126843762Y-62484030D01*
X126846828Y-62539655D01*
X126849053Y-62604594D01*
X126850164Y-62672215D01*
X126850237Y-62690000D01*
X126849964Y-62757872D01*
X126848646Y-62807546D01*
X126845827Y-62843390D01*
X126841050Y-62869776D01*
X126833857Y-62891074D01*
X126827867Y-62903874D01*
X126811233Y-62932000D01*
X126796168Y-62949932D01*
X126791897Y-62952553D01*
X126774263Y-62947024D01*
X126757192Y-62920740D01*
X126741458Y-62875522D01*
X126727838Y-62813192D01*
X126724804Y-62794829D01*
X126709738Y-62698910D01*
X126697146Y-62622359D01*
X126686111Y-62562220D01*
X126675720Y-62515540D01*
X126665056Y-62479363D01*
X126653205Y-62450735D01*
X126639251Y-62426702D01*
X126622281Y-62404308D01*
X126601378Y-62380598D01*
X126594049Y-62372620D01*
X126566699Y-62344647D01*
X126545029Y-62329840D01*
X126520232Y-62324048D01*
X126488983Y-62323111D01*
X126427705Y-62333425D01*
X126375640Y-62364248D01*
X126332958Y-62415405D01*
X126299825Y-62486717D01*
X126284964Y-62537600D01*
X126275366Y-62592900D01*
X126269936Y-62659147D01*
X126268367Y-62732294D01*
X126270351Y-62808297D01*
G36*
X126291645Y-63576178D02*
X126299218Y-63582758D01*
X126308987Y-63587921D01*
X126323571Y-63591836D01*
X126345585Y-63594676D01*
X126377648Y-63596613D01*
X126422375Y-63597817D01*
X126482385Y-63598461D01*
X126560294Y-63598716D01*
X126635956Y-63598755D01*
X126729802Y-63598686D01*
X126803689Y-63598362D01*
X126860232Y-63597614D01*
X126902049Y-63596268D01*
X126931757Y-63594154D01*
X126951973Y-63591100D01*
X126965314Y-63586934D01*
X126974398Y-63581484D01*
X126980267Y-63576178D01*
X126999947Y-63543174D01*
X126998181Y-63508009D01*
X126976717Y-63476545D01*
X126968337Y-63469316D01*
X126958614Y-63463666D01*
X126944861Y-63459401D01*
X126924389Y-63456327D01*
X126894512Y-63454248D01*
X126852541Y-63452970D01*
X126795789Y-63452299D01*
X126721567Y-63452041D01*
X126637537Y-63452000D01*
X126324485Y-63452000D01*
X126296776Y-63479709D01*
X126273463Y-63513863D01*
X126272623Y-63546994D01*
X126291645Y-63576178D01*
X126291645Y-63576178D01*
G37*
X126291645Y-63576178D02*
X126299218Y-63582758D01*
X126308987Y-63587921D01*
X126323571Y-63591836D01*
X126345585Y-63594676D01*
X126377648Y-63596613D01*
X126422375Y-63597817D01*
X126482385Y-63598461D01*
X126560294Y-63598716D01*
X126635956Y-63598755D01*
X126729802Y-63598686D01*
X126803689Y-63598362D01*
X126860232Y-63597614D01*
X126902049Y-63596268D01*
X126931757Y-63594154D01*
X126951973Y-63591100D01*
X126965314Y-63586934D01*
X126974398Y-63581484D01*
X126980267Y-63576178D01*
X126999947Y-63543174D01*
X126998181Y-63508009D01*
X126976717Y-63476545D01*
X126968337Y-63469316D01*
X126958614Y-63463666D01*
X126944861Y-63459401D01*
X126924389Y-63456327D01*
X126894512Y-63454248D01*
X126852541Y-63452970D01*
X126795789Y-63452299D01*
X126721567Y-63452041D01*
X126637537Y-63452000D01*
X126324485Y-63452000D01*
X126296776Y-63479709D01*
X126273463Y-63513863D01*
X126272623Y-63546994D01*
X126291645Y-63576178D01*
G36*
X126274599Y-64549919D02*
X126286095Y-64618435D01*
X126303967Y-64671057D01*
X126327499Y-64705292D01*
X126340924Y-64714621D01*
X126372148Y-64724107D01*
X126400395Y-64717723D01*
X126427182Y-64697570D01*
X126439713Y-64666255D01*
X126438696Y-64620817D01*
X126431906Y-64585674D01*
X126418971Y-64507581D01*
X126417742Y-64427774D01*
X126428241Y-64338445D01*
X126432690Y-64313771D01*
X126456108Y-64230709D01*
X126490945Y-64165727D01*
X126536604Y-64119539D01*
X126592494Y-64092855D01*
X126621388Y-64087337D01*
X126680012Y-64090949D01*
X126731879Y-64114271D01*
X126775978Y-64155176D01*
X126811299Y-64211541D01*
X126836829Y-64281240D01*
X126851559Y-64362148D01*
X126854478Y-64452140D01*
X126844575Y-64549090D01*
X126843641Y-64554564D01*
X126836459Y-64593125D01*
X126829521Y-64614506D01*
X126819227Y-64623773D01*
X126801976Y-64625994D01*
X126792841Y-64626044D01*
X126754489Y-64626044D01*
X126754489Y-64557569D01*
X126750347Y-64497100D01*
X126737147Y-64455835D01*
X126713730Y-64431825D01*
X126678936Y-64423123D01*
X126674394Y-64423017D01*
X126644654Y-64428108D01*
X126623419Y-64445567D01*
X126609366Y-64478061D01*
X126601173Y-64528257D01*
X126598161Y-64576877D01*
X126596433Y-64647544D01*
X126599070Y-64698802D01*
X126608800Y-64733761D01*
X126628353Y-64755530D01*
X126660456Y-64767220D01*
X126707838Y-64771940D01*
X126770071Y-64772800D01*
X126839535Y-64771391D01*
X126886786Y-64767152D01*
X126912012Y-64760064D01*
X126913988Y-64758689D01*
X126945508Y-64719772D01*
X126970470Y-64662714D01*
X126988340Y-64591131D01*
X126998586Y-64508642D01*
X127000673Y-64418861D01*
X126994068Y-64325408D01*
X126985956Y-64270444D01*
X126961554Y-64184234D01*
X126921662Y-64104108D01*
X126869887Y-64037023D01*
X126859539Y-64026827D01*
X126816035Y-63993698D01*
X126762118Y-63963806D01*
X126705592Y-63940643D01*
X126654259Y-63927702D01*
X126634544Y-63926142D01*
X126593419Y-63932782D01*
X126542252Y-63950432D01*
X126488394Y-63975703D01*
X126439195Y-64005211D01*
X126406334Y-64031281D01*
X126357452Y-64092235D01*
X126318545Y-64171031D01*
X126290494Y-64264843D01*
X126274179Y-64370850D01*
X126270192Y-64468000D01*
X126274599Y-64549919D01*
X126274599Y-64549919D01*
G37*
X126274599Y-64549919D02*
X126286095Y-64618435D01*
X126303967Y-64671057D01*
X126327499Y-64705292D01*
X126340924Y-64714621D01*
X126372148Y-64724107D01*
X126400395Y-64717723D01*
X126427182Y-64697570D01*
X126439713Y-64666255D01*
X126438696Y-64620817D01*
X126431906Y-64585674D01*
X126418971Y-64507581D01*
X126417742Y-64427774D01*
X126428241Y-64338445D01*
X126432690Y-64313771D01*
X126456108Y-64230709D01*
X126490945Y-64165727D01*
X126536604Y-64119539D01*
X126592494Y-64092855D01*
X126621388Y-64087337D01*
X126680012Y-64090949D01*
X126731879Y-64114271D01*
X126775978Y-64155176D01*
X126811299Y-64211541D01*
X126836829Y-64281240D01*
X126851559Y-64362148D01*
X126854478Y-64452140D01*
X126844575Y-64549090D01*
X126843641Y-64554564D01*
X126836459Y-64593125D01*
X126829521Y-64614506D01*
X126819227Y-64623773D01*
X126801976Y-64625994D01*
X126792841Y-64626044D01*
X126754489Y-64626044D01*
X126754489Y-64557569D01*
X126750347Y-64497100D01*
X126737147Y-64455835D01*
X126713730Y-64431825D01*
X126678936Y-64423123D01*
X126674394Y-64423017D01*
X126644654Y-64428108D01*
X126623419Y-64445567D01*
X126609366Y-64478061D01*
X126601173Y-64528257D01*
X126598161Y-64576877D01*
X126596433Y-64647544D01*
X126599070Y-64698802D01*
X126608800Y-64733761D01*
X126628353Y-64755530D01*
X126660456Y-64767220D01*
X126707838Y-64771940D01*
X126770071Y-64772800D01*
X126839535Y-64771391D01*
X126886786Y-64767152D01*
X126912012Y-64760064D01*
X126913988Y-64758689D01*
X126945508Y-64719772D01*
X126970470Y-64662714D01*
X126988340Y-64591131D01*
X126998586Y-64508642D01*
X127000673Y-64418861D01*
X126994068Y-64325408D01*
X126985956Y-64270444D01*
X126961554Y-64184234D01*
X126921662Y-64104108D01*
X126869887Y-64037023D01*
X126859539Y-64026827D01*
X126816035Y-63993698D01*
X126762118Y-63963806D01*
X126705592Y-63940643D01*
X126654259Y-63927702D01*
X126634544Y-63926142D01*
X126593419Y-63932782D01*
X126542252Y-63950432D01*
X126488394Y-63975703D01*
X126439195Y-64005211D01*
X126406334Y-64031281D01*
X126357452Y-64092235D01*
X126318545Y-64171031D01*
X126290494Y-64264843D01*
X126274179Y-64370850D01*
X126270192Y-64468000D01*
X126274599Y-64549919D01*
G36*
X126273448Y-65199886D02*
X126287273Y-65223452D01*
X126309881Y-65254265D01*
X126342338Y-65293922D01*
X126385708Y-65344020D01*
X126441058Y-65406157D01*
X126509451Y-65481928D01*
X126588084Y-65568666D01*
X126751878Y-65749289D01*
X126532029Y-65754933D01*
X126456351Y-65756971D01*
X126399994Y-65758937D01*
X126359706Y-65761266D01*
X126332235Y-65764394D01*
X126314329Y-65768755D01*
X126302737Y-65774784D01*
X126294208Y-65782916D01*
X126290623Y-65787228D01*
X126271670Y-65821759D01*
X126274441Y-65854617D01*
X126290633Y-65880682D01*
X126312199Y-65907333D01*
X126627151Y-65910648D01*
X126719779Y-65911565D01*
X126792544Y-65912032D01*
X126848161Y-65911887D01*
X126889342Y-65910968D01*
X126918803Y-65909113D01*
X126939255Y-65906161D01*
X126953413Y-65901950D01*
X126963991Y-65896318D01*
X126972474Y-65890073D01*
X126988207Y-65876561D01*
X126998636Y-65863117D01*
X127002639Y-65847876D01*
X126999094Y-65828974D01*
X126986879Y-65804545D01*
X126964871Y-65772727D01*
X126931949Y-65731652D01*
X126886991Y-65679458D01*
X126828875Y-65614278D01*
X126762099Y-65540444D01*
X126521458Y-65275155D01*
X126740589Y-65269511D01*
X126816128Y-65267469D01*
X126872354Y-65265498D01*
X126912524Y-65263161D01*
X126939896Y-65260019D01*
X126957728Y-65255636D01*
X126969279Y-65249576D01*
X126977807Y-65241400D01*
X126981282Y-65237216D01*
X127000372Y-65200235D01*
X126997493Y-65165292D01*
X126973100Y-65134864D01*
X126963286Y-65127903D01*
X126951826Y-65122477D01*
X126935968Y-65118397D01*
X126912963Y-65115471D01*
X126880062Y-65113508D01*
X126834516Y-65112317D01*
X126773573Y-65111708D01*
X126694486Y-65111489D01*
X126635956Y-65111466D01*
X126544407Y-65111540D01*
X126472687Y-65111887D01*
X126418045Y-65112699D01*
X126377732Y-65114167D01*
X126348998Y-65116481D01*
X126329093Y-65119833D01*
X126315268Y-65124412D01*
X126304772Y-65130411D01*
X126298811Y-65134864D01*
X126284691Y-65146150D01*
X126274029Y-65156699D01*
X126267892Y-65168107D01*
X126267343Y-65181970D01*
X126273448Y-65199886D01*
X126273448Y-65199886D01*
G37*
X126273448Y-65199886D02*
X126287273Y-65223452D01*
X126309881Y-65254265D01*
X126342338Y-65293922D01*
X126385708Y-65344020D01*
X126441058Y-65406157D01*
X126509451Y-65481928D01*
X126588084Y-65568666D01*
X126751878Y-65749289D01*
X126532029Y-65754933D01*
X126456351Y-65756971D01*
X126399994Y-65758937D01*
X126359706Y-65761266D01*
X126332235Y-65764394D01*
X126314329Y-65768755D01*
X126302737Y-65774784D01*
X126294208Y-65782916D01*
X126290623Y-65787228D01*
X126271670Y-65821759D01*
X126274441Y-65854617D01*
X126290633Y-65880682D01*
X126312199Y-65907333D01*
X126627151Y-65910648D01*
X126719779Y-65911565D01*
X126792544Y-65912032D01*
X126848161Y-65911887D01*
X126889342Y-65910968D01*
X126918803Y-65909113D01*
X126939255Y-65906161D01*
X126953413Y-65901950D01*
X126963991Y-65896318D01*
X126972474Y-65890073D01*
X126988207Y-65876561D01*
X126998636Y-65863117D01*
X127002639Y-65847876D01*
X126999094Y-65828974D01*
X126986879Y-65804545D01*
X126964871Y-65772727D01*
X126931949Y-65731652D01*
X126886991Y-65679458D01*
X126828875Y-65614278D01*
X126762099Y-65540444D01*
X126521458Y-65275155D01*
X126740589Y-65269511D01*
X126816128Y-65267469D01*
X126872354Y-65265498D01*
X126912524Y-65263161D01*
X126939896Y-65260019D01*
X126957728Y-65255636D01*
X126969279Y-65249576D01*
X126977807Y-65241400D01*
X126981282Y-65237216D01*
X127000372Y-65200235D01*
X126997493Y-65165292D01*
X126973100Y-65134864D01*
X126963286Y-65127903D01*
X126951826Y-65122477D01*
X126935968Y-65118397D01*
X126912963Y-65115471D01*
X126880062Y-65113508D01*
X126834516Y-65112317D01*
X126773573Y-65111708D01*
X126694486Y-65111489D01*
X126635956Y-65111466D01*
X126544407Y-65111540D01*
X126472687Y-65111887D01*
X126418045Y-65112699D01*
X126377732Y-65114167D01*
X126348998Y-65116481D01*
X126329093Y-65119833D01*
X126315268Y-65124412D01*
X126304772Y-65130411D01*
X126298811Y-65134864D01*
X126284691Y-65146150D01*
X126274029Y-65156699D01*
X126267892Y-65168107D01*
X126267343Y-65181970D01*
X126273448Y-65199886D01*
G36*
X126269260Y-66730343D02*
X126270174Y-66806701D01*
X126272311Y-66865217D01*
X126276175Y-66908255D01*
X126282267Y-66938183D01*
X126291090Y-66957368D01*
X126303146Y-66968176D01*
X126318939Y-66972973D01*
X126338970Y-66974127D01*
X126341335Y-66974133D01*
X126363992Y-66973131D01*
X126381503Y-66968396D01*
X126394574Y-66957333D01*
X126403913Y-66937348D01*
X126410227Y-66905846D01*
X126414222Y-66860232D01*
X126416606Y-66797913D01*
X126418086Y-66716293D01*
X126418414Y-66691277D01*
X126421467Y-66449200D01*
X126486378Y-66445814D01*
X126551289Y-66442429D01*
X126551289Y-66610576D01*
X126551531Y-66676266D01*
X126552556Y-66723172D01*
X126554811Y-66755083D01*
X126558742Y-66775791D01*
X126564798Y-66789084D01*
X126573424Y-66798755D01*
X126573493Y-66798817D01*
X126607112Y-66816356D01*
X126643448Y-66815722D01*
X126674423Y-66797314D01*
X126677607Y-66793671D01*
X126685812Y-66780741D01*
X126691521Y-66763024D01*
X126695162Y-66736570D01*
X126697167Y-66697432D01*
X126697964Y-66641662D01*
X126698045Y-66605994D01*
X126698045Y-66443555D01*
X126856089Y-66443555D01*
X126856089Y-66690161D01*
X126856231Y-66771580D01*
X126856814Y-66833410D01*
X126858068Y-66878637D01*
X126860227Y-66910248D01*
X126863523Y-66931231D01*
X126868189Y-66944573D01*
X126874457Y-66953261D01*
X126876733Y-66955450D01*
X126908280Y-66971614D01*
X126944168Y-66972797D01*
X126975285Y-66959536D01*
X126985271Y-66949043D01*
X126990769Y-66938129D01*
X126995022Y-66921217D01*
X126998180Y-66895633D01*
X127000392Y-66858701D01*
X127001806Y-66807746D01*
X127002572Y-66740094D01*
X127002838Y-66653069D01*
X127002845Y-66633394D01*
X127002787Y-66544911D01*
X127002467Y-66476227D01*
X127001667Y-66424564D01*
X127000167Y-66387145D01*
X126997749Y-66361190D01*
X126994194Y-66343922D01*
X126989282Y-66332562D01*
X126982795Y-66324332D01*
X126978138Y-66319817D01*
X126969889Y-66313021D01*
X126959669Y-66307712D01*
X126944800Y-66303706D01*
X126922602Y-66300821D01*
X126890393Y-66298874D01*
X126845496Y-66297681D01*
X126785228Y-66297061D01*
X126706911Y-66296829D01*
X126640994Y-66296800D01*
X126548628Y-66296871D01*
X126476117Y-66297208D01*
X126420737Y-66297998D01*
X126379765Y-66299426D01*
X126350478Y-66301679D01*
X126330153Y-66304943D01*
X126316066Y-66309404D01*
X126305495Y-66315248D01*
X126298811Y-66320197D01*
X126269067Y-66343594D01*
X126269067Y-66633774D01*
X126269260Y-66730343D01*
X126269260Y-66730343D01*
G37*
X126269260Y-66730343D02*
X126270174Y-66806701D01*
X126272311Y-66865217D01*
X126276175Y-66908255D01*
X126282267Y-66938183D01*
X126291090Y-66957368D01*
X126303146Y-66968176D01*
X126318939Y-66972973D01*
X126338970Y-66974127D01*
X126341335Y-66974133D01*
X126363992Y-66973131D01*
X126381503Y-66968396D01*
X126394574Y-66957333D01*
X126403913Y-66937348D01*
X126410227Y-66905846D01*
X126414222Y-66860232D01*
X126416606Y-66797913D01*
X126418086Y-66716293D01*
X126418414Y-66691277D01*
X126421467Y-66449200D01*
X126486378Y-66445814D01*
X126551289Y-66442429D01*
X126551289Y-66610576D01*
X126551531Y-66676266D01*
X126552556Y-66723172D01*
X126554811Y-66755083D01*
X126558742Y-66775791D01*
X126564798Y-66789084D01*
X126573424Y-66798755D01*
X126573493Y-66798817D01*
X126607112Y-66816356D01*
X126643448Y-66815722D01*
X126674423Y-66797314D01*
X126677607Y-66793671D01*
X126685812Y-66780741D01*
X126691521Y-66763024D01*
X126695162Y-66736570D01*
X126697167Y-66697432D01*
X126697964Y-66641662D01*
X126698045Y-66605994D01*
X126698045Y-66443555D01*
X126856089Y-66443555D01*
X126856089Y-66690161D01*
X126856231Y-66771580D01*
X126856814Y-66833410D01*
X126858068Y-66878637D01*
X126860227Y-66910248D01*
X126863523Y-66931231D01*
X126868189Y-66944573D01*
X126874457Y-66953261D01*
X126876733Y-66955450D01*
X126908280Y-66971614D01*
X126944168Y-66972797D01*
X126975285Y-66959536D01*
X126985271Y-66949043D01*
X126990769Y-66938129D01*
X126995022Y-66921217D01*
X126998180Y-66895633D01*
X127000392Y-66858701D01*
X127001806Y-66807746D01*
X127002572Y-66740094D01*
X127002838Y-66653069D01*
X127002845Y-66633394D01*
X127002787Y-66544911D01*
X127002467Y-66476227D01*
X127001667Y-66424564D01*
X127000167Y-66387145D01*
X126997749Y-66361190D01*
X126994194Y-66343922D01*
X126989282Y-66332562D01*
X126982795Y-66324332D01*
X126978138Y-66319817D01*
X126969889Y-66313021D01*
X126959669Y-66307712D01*
X126944800Y-66303706D01*
X126922602Y-66300821D01*
X126890393Y-66298874D01*
X126845496Y-66297681D01*
X126785228Y-66297061D01*
X126706911Y-66296829D01*
X126640994Y-66296800D01*
X126548628Y-66296871D01*
X126476117Y-66297208D01*
X126420737Y-66297998D01*
X126379765Y-66299426D01*
X126350478Y-66301679D01*
X126330153Y-66304943D01*
X126316066Y-66309404D01*
X126305495Y-66315248D01*
X126298811Y-66320197D01*
X126269067Y-66343594D01*
X126269067Y-66633774D01*
X126269260Y-66730343D01*
G36*
X126269275Y-67518309D02*
X126273636Y-67647288D01*
X126286861Y-67756991D01*
X126309741Y-67849226D01*
X126343070Y-67925802D01*
X126387638Y-67988527D01*
X126444236Y-68039212D01*
X126513658Y-68079663D01*
X126515351Y-68080459D01*
X126577483Y-68104601D01*
X126632509Y-68113203D01*
X126687887Y-68106231D01*
X126751073Y-68083654D01*
X126760689Y-68079372D01*
X126816966Y-68050172D01*
X126860451Y-68017356D01*
X126897417Y-67975002D01*
X126934135Y-67917190D01*
X126936052Y-67913831D01*
X126960227Y-67863504D01*
X126978282Y-67806621D01*
X126990839Y-67739527D01*
X126998522Y-67658565D01*
X127001953Y-67560082D01*
X127002251Y-67525286D01*
X127002845Y-67359594D01*
X126973100Y-67336197D01*
X126963319Y-67329257D01*
X126951897Y-67323842D01*
X126936095Y-67319765D01*
X126913175Y-67316837D01*
X126880396Y-67314867D01*
X126856089Y-67314225D01*
X126856089Y-67470844D01*
X126856089Y-67564726D01*
X126854483Y-67619664D01*
X126850255Y-67676060D01*
X126844292Y-67722345D01*
X126843790Y-67725139D01*
X126821736Y-67807348D01*
X126788600Y-67871114D01*
X126742847Y-67918452D01*
X126682939Y-67951382D01*
X126667061Y-67957108D01*
X126642333Y-67962721D01*
X126617902Y-67960291D01*
X126585400Y-67948467D01*
X126569434Y-67941340D01*
X126527006Y-67918000D01*
X126497240Y-67889880D01*
X126476511Y-67858940D01*
X126449537Y-67796966D01*
X126429998Y-67717651D01*
X126418746Y-67625253D01*
X126416270Y-67558333D01*
X126415822Y-67470844D01*
X126856089Y-67470844D01*
X126856089Y-67314225D01*
X126835021Y-67313668D01*
X126774311Y-67313050D01*
X126695526Y-67312825D01*
X126633920Y-67312800D01*
X126324485Y-67312800D01*
X126296776Y-67340509D01*
X126285544Y-67352806D01*
X126277853Y-67366103D01*
X126273040Y-67384672D01*
X126270446Y-67412786D01*
X126269410Y-67454717D01*
X126269270Y-67514737D01*
X126269275Y-67518309D01*
X126269275Y-67518309D01*
G37*
X126269275Y-67518309D02*
X126273636Y-67647288D01*
X126286861Y-67756991D01*
X126309741Y-67849226D01*
X126343070Y-67925802D01*
X126387638Y-67988527D01*
X126444236Y-68039212D01*
X126513658Y-68079663D01*
X126515351Y-68080459D01*
X126577483Y-68104601D01*
X126632509Y-68113203D01*
X126687887Y-68106231D01*
X126751073Y-68083654D01*
X126760689Y-68079372D01*
X126816966Y-68050172D01*
X126860451Y-68017356D01*
X126897417Y-67975002D01*
X126934135Y-67917190D01*
X126936052Y-67913831D01*
X126960227Y-67863504D01*
X126978282Y-67806621D01*
X126990839Y-67739527D01*
X126998522Y-67658565D01*
X127001953Y-67560082D01*
X127002251Y-67525286D01*
X127002845Y-67359594D01*
X126973100Y-67336197D01*
X126963319Y-67329257D01*
X126951897Y-67323842D01*
X126936095Y-67319765D01*
X126913175Y-67316837D01*
X126880396Y-67314867D01*
X126856089Y-67314225D01*
X126856089Y-67470844D01*
X126856089Y-67564726D01*
X126854483Y-67619664D01*
X126850255Y-67676060D01*
X126844292Y-67722345D01*
X126843790Y-67725139D01*
X126821736Y-67807348D01*
X126788600Y-67871114D01*
X126742847Y-67918452D01*
X126682939Y-67951382D01*
X126667061Y-67957108D01*
X126642333Y-67962721D01*
X126617902Y-67960291D01*
X126585400Y-67948467D01*
X126569434Y-67941340D01*
X126527006Y-67918000D01*
X126497240Y-67889880D01*
X126476511Y-67858940D01*
X126449537Y-67796966D01*
X126429998Y-67717651D01*
X126418746Y-67625253D01*
X126416270Y-67558333D01*
X126415822Y-67470844D01*
X126856089Y-67470844D01*
X126856089Y-67314225D01*
X126835021Y-67313668D01*
X126774311Y-67313050D01*
X126695526Y-67312825D01*
X126633920Y-67312800D01*
X126324485Y-67312800D01*
X126296776Y-67340509D01*
X126285544Y-67352806D01*
X126277853Y-67366103D01*
X126273040Y-67384672D01*
X126270446Y-67412786D01*
X126269410Y-67454717D01*
X126269270Y-67514737D01*
X126269275Y-67518309D01*
G36*
X126271034Y-70244665D02*
X126278035Y-70264255D01*
X126278377Y-70265010D01*
X126298678Y-70291613D01*
X126319561Y-70306270D01*
X126329352Y-70309138D01*
X126342361Y-70308996D01*
X126360895Y-70304961D01*
X126387257Y-70296146D01*
X126423752Y-70281669D01*
X126472687Y-70260645D01*
X126536365Y-70232188D01*
X126617093Y-70195415D01*
X126661216Y-70175175D01*
X126739985Y-70138625D01*
X126812423Y-70104315D01*
X126875880Y-70073552D01*
X126927708Y-70047648D01*
X126965259Y-70027910D01*
X126985884Y-70015650D01*
X126988733Y-70013224D01*
X127001302Y-69982183D01*
X126999619Y-69947121D01*
X126984332Y-69919000D01*
X126983089Y-69917854D01*
X126966154Y-69906668D01*
X126933170Y-69887904D01*
X126888380Y-69863875D01*
X126836032Y-69836897D01*
X126816742Y-69827201D01*
X126670150Y-69754014D01*
X126829393Y-69674240D01*
X126884415Y-69645767D01*
X126932132Y-69619350D01*
X126968893Y-69597148D01*
X126991044Y-69581319D01*
X126995741Y-69575954D01*
X127002102Y-69534257D01*
X126988733Y-69499849D01*
X126974446Y-69489728D01*
X126942692Y-69472214D01*
X126896597Y-69448735D01*
X126839285Y-69420720D01*
X126773880Y-69389599D01*
X126703507Y-69356799D01*
X126631291Y-69323750D01*
X126560355Y-69291881D01*
X126493825Y-69262619D01*
X126434826Y-69237395D01*
X126386481Y-69217636D01*
X126351915Y-69204772D01*
X126334253Y-69200231D01*
X126333613Y-69200277D01*
X126311388Y-69211326D01*
X126288753Y-69233410D01*
X126287768Y-69234710D01*
X126272425Y-69261853D01*
X126272574Y-69286958D01*
X126275466Y-69296368D01*
X126281718Y-69307834D01*
X126294014Y-69320010D01*
X126314908Y-69334357D01*
X126346949Y-69352336D01*
X126392688Y-69375407D01*
X126454677Y-69405030D01*
X126511898Y-69431745D01*
X126578226Y-69462480D01*
X126637874Y-69490021D01*
X126687725Y-69512938D01*
X126724664Y-69529798D01*
X126745573Y-69539173D01*
X126748845Y-69540540D01*
X126743497Y-69546689D01*
X126721109Y-69560822D01*
X126684946Y-69581057D01*
X126638277Y-69605515D01*
X126619022Y-69615248D01*
X126554004Y-69648217D01*
X126506654Y-69673643D01*
X126474219Y-69693612D01*
X126453946Y-69710210D01*
X126443082Y-69725524D01*
X126438875Y-69741640D01*
X126438400Y-69752143D01*
X126440042Y-69770670D01*
X126446831Y-69786904D01*
X126461566Y-69803035D01*
X126487044Y-69821251D01*
X126526061Y-69843739D01*
X126581414Y-69872689D01*
X126612903Y-69888662D01*
X126663087Y-69914570D01*
X126704704Y-69937167D01*
X126734242Y-69954458D01*
X126748189Y-69964450D01*
X126748770Y-69965809D01*
X126737793Y-69972261D01*
X126709290Y-69986708D01*
X126666244Y-70007703D01*
X126611638Y-70033797D01*
X126548454Y-70063546D01*
X126517071Y-70078180D01*
X126436078Y-70116250D01*
X126373756Y-70146905D01*
X126328071Y-70171737D01*
X126296989Y-70192337D01*
X126278478Y-70210298D01*
X126270504Y-70227210D01*
X126271034Y-70244665D01*
X126271034Y-70244665D01*
G37*
X126271034Y-70244665D02*
X126278035Y-70264255D01*
X126278377Y-70265010D01*
X126298678Y-70291613D01*
X126319561Y-70306270D01*
X126329352Y-70309138D01*
X126342361Y-70308996D01*
X126360895Y-70304961D01*
X126387257Y-70296146D01*
X126423752Y-70281669D01*
X126472687Y-70260645D01*
X126536365Y-70232188D01*
X126617093Y-70195415D01*
X126661216Y-70175175D01*
X126739985Y-70138625D01*
X126812423Y-70104315D01*
X126875880Y-70073552D01*
X126927708Y-70047648D01*
X126965259Y-70027910D01*
X126985884Y-70015650D01*
X126988733Y-70013224D01*
X127001302Y-69982183D01*
X126999619Y-69947121D01*
X126984332Y-69919000D01*
X126983089Y-69917854D01*
X126966154Y-69906668D01*
X126933170Y-69887904D01*
X126888380Y-69863875D01*
X126836032Y-69836897D01*
X126816742Y-69827201D01*
X126670150Y-69754014D01*
X126829393Y-69674240D01*
X126884415Y-69645767D01*
X126932132Y-69619350D01*
X126968893Y-69597148D01*
X126991044Y-69581319D01*
X126995741Y-69575954D01*
X127002102Y-69534257D01*
X126988733Y-69499849D01*
X126974446Y-69489728D01*
X126942692Y-69472214D01*
X126896597Y-69448735D01*
X126839285Y-69420720D01*
X126773880Y-69389599D01*
X126703507Y-69356799D01*
X126631291Y-69323750D01*
X126560355Y-69291881D01*
X126493825Y-69262619D01*
X126434826Y-69237395D01*
X126386481Y-69217636D01*
X126351915Y-69204772D01*
X126334253Y-69200231D01*
X126333613Y-69200277D01*
X126311388Y-69211326D01*
X126288753Y-69233410D01*
X126287768Y-69234710D01*
X126272425Y-69261853D01*
X126272574Y-69286958D01*
X126275466Y-69296368D01*
X126281718Y-69307834D01*
X126294014Y-69320010D01*
X126314908Y-69334357D01*
X126346949Y-69352336D01*
X126392688Y-69375407D01*
X126454677Y-69405030D01*
X126511898Y-69431745D01*
X126578226Y-69462480D01*
X126637874Y-69490021D01*
X126687725Y-69512938D01*
X126724664Y-69529798D01*
X126745573Y-69539173D01*
X126748845Y-69540540D01*
X126743497Y-69546689D01*
X126721109Y-69560822D01*
X126684946Y-69581057D01*
X126638277Y-69605515D01*
X126619022Y-69615248D01*
X126554004Y-69648217D01*
X126506654Y-69673643D01*
X126474219Y-69693612D01*
X126453946Y-69710210D01*
X126443082Y-69725524D01*
X126438875Y-69741640D01*
X126438400Y-69752143D01*
X126440042Y-69770670D01*
X126446831Y-69786904D01*
X126461566Y-69803035D01*
X126487044Y-69821251D01*
X126526061Y-69843739D01*
X126581414Y-69872689D01*
X126612903Y-69888662D01*
X126663087Y-69914570D01*
X126704704Y-69937167D01*
X126734242Y-69954458D01*
X126748189Y-69964450D01*
X126748770Y-69965809D01*
X126737793Y-69972261D01*
X126709290Y-69986708D01*
X126666244Y-70007703D01*
X126611638Y-70033797D01*
X126548454Y-70063546D01*
X126517071Y-70078180D01*
X126436078Y-70116250D01*
X126373756Y-70146905D01*
X126328071Y-70171737D01*
X126296989Y-70192337D01*
X126278478Y-70210298D01*
X126270504Y-70227210D01*
X126271034Y-70244665D01*
G36*
X126275877Y-70688614D02*
X126290647Y-70712327D01*
X126312227Y-70738978D01*
X126633773Y-70738978D01*
X126727830Y-70738893D01*
X126801932Y-70738529D01*
X126858704Y-70737724D01*
X126900768Y-70736313D01*
X126930748Y-70734133D01*
X126951267Y-70731021D01*
X126964949Y-70726814D01*
X126974416Y-70721348D01*
X126979082Y-70717472D01*
X126999575Y-70686034D01*
X126998739Y-70650233D01*
X126981264Y-70618873D01*
X126959684Y-70592222D01*
X126312227Y-70592222D01*
X126290647Y-70618873D01*
X126274949Y-70644594D01*
X126269067Y-70665600D01*
X126275877Y-70688614D01*
X126275877Y-70688614D01*
G37*
X126275877Y-70688614D02*
X126290647Y-70712327D01*
X126312227Y-70738978D01*
X126633773Y-70738978D01*
X126727830Y-70738893D01*
X126801932Y-70738529D01*
X126858704Y-70737724D01*
X126900768Y-70736313D01*
X126930748Y-70734133D01*
X126951267Y-70731021D01*
X126964949Y-70726814D01*
X126974416Y-70721348D01*
X126979082Y-70717472D01*
X126999575Y-70686034D01*
X126998739Y-70650233D01*
X126981264Y-70618873D01*
X126959684Y-70592222D01*
X126312227Y-70592222D01*
X126290647Y-70618873D01*
X126274949Y-70644594D01*
X126269067Y-70665600D01*
X126275877Y-70688614D01*
G36*
X126269163Y-71463065D02*
X126269542Y-71541772D01*
X126270333Y-71602863D01*
X126271670Y-71648817D01*
X126273683Y-71682114D01*
X126276506Y-71705236D01*
X126280269Y-71720662D01*
X126285105Y-71730871D01*
X126288822Y-71735813D01*
X126321358Y-71761457D01*
X126355138Y-71764559D01*
X126385826Y-71748711D01*
X126398089Y-71738348D01*
X126406450Y-71727196D01*
X126411657Y-71711035D01*
X126414457Y-71685642D01*
X126415596Y-71646798D01*
X126415821Y-71590280D01*
X126415822Y-71579180D01*
X126415822Y-71433244D01*
X126686756Y-71433244D01*
X126772154Y-71433148D01*
X126837864Y-71432711D01*
X126886774Y-71431712D01*
X126921773Y-71429928D01*
X126945749Y-71427137D01*
X126961593Y-71423117D01*
X126972191Y-71417645D01*
X126980267Y-71410666D01*
X127000112Y-71377734D01*
X126998548Y-71343354D01*
X126975906Y-71312176D01*
X126973100Y-71309886D01*
X126962492Y-71302429D01*
X126950081Y-71296747D01*
X126932850Y-71292601D01*
X126907784Y-71289750D01*
X126871867Y-71287954D01*
X126822083Y-71286972D01*
X126755417Y-71286564D01*
X126679589Y-71286489D01*
X126415822Y-71286489D01*
X126415822Y-71147127D01*
X126415418Y-71087322D01*
X126413840Y-71045918D01*
X126410547Y-71018748D01*
X126404992Y-71001646D01*
X126396631Y-70990443D01*
X126395178Y-70989083D01*
X126361939Y-70972725D01*
X126324362Y-70974172D01*
X126291645Y-70992978D01*
X126285298Y-71000250D01*
X126280266Y-71009627D01*
X126276396Y-71023609D01*
X126273537Y-71044696D01*
X126271535Y-71075389D01*
X126270239Y-71118189D01*
X126269498Y-71175595D01*
X126269158Y-71250110D01*
X126269068Y-71344233D01*
X126269067Y-71364260D01*
X126269163Y-71463065D01*
X126269163Y-71463065D01*
G37*
X126269163Y-71463065D02*
X126269542Y-71541772D01*
X126270333Y-71602863D01*
X126271670Y-71648817D01*
X126273683Y-71682114D01*
X126276506Y-71705236D01*
X126280269Y-71720662D01*
X126285105Y-71730871D01*
X126288822Y-71735813D01*
X126321358Y-71761457D01*
X126355138Y-71764559D01*
X126385826Y-71748711D01*
X126398089Y-71738348D01*
X126406450Y-71727196D01*
X126411657Y-71711035D01*
X126414457Y-71685642D01*
X126415596Y-71646798D01*
X126415821Y-71590280D01*
X126415822Y-71579180D01*
X126415822Y-71433244D01*
X126686756Y-71433244D01*
X126772154Y-71433148D01*
X126837864Y-71432711D01*
X126886774Y-71431712D01*
X126921773Y-71429928D01*
X126945749Y-71427137D01*
X126961593Y-71423117D01*
X126972191Y-71417645D01*
X126980267Y-71410666D01*
X127000112Y-71377734D01*
X126998548Y-71343354D01*
X126975906Y-71312176D01*
X126973100Y-71309886D01*
X126962492Y-71302429D01*
X126950081Y-71296747D01*
X126932850Y-71292601D01*
X126907784Y-71289750D01*
X126871867Y-71287954D01*
X126822083Y-71286972D01*
X126755417Y-71286564D01*
X126679589Y-71286489D01*
X126415822Y-71286489D01*
X126415822Y-71147127D01*
X126415418Y-71087322D01*
X126413840Y-71045918D01*
X126410547Y-71018748D01*
X126404992Y-71001646D01*
X126396631Y-70990443D01*
X126395178Y-70989083D01*
X126361939Y-70972725D01*
X126324362Y-70974172D01*
X126291645Y-70992978D01*
X126285298Y-71000250D01*
X126280266Y-71009627D01*
X126276396Y-71023609D01*
X126273537Y-71044696D01*
X126271535Y-71075389D01*
X126270239Y-71118189D01*
X126269498Y-71175595D01*
X126269158Y-71250110D01*
X126269068Y-71344233D01*
X126269067Y-71364260D01*
X126269163Y-71463065D01*
G36*
X126274533Y-72728823D02*
X126296776Y-72760202D01*
X126324485Y-72787911D01*
X126633920Y-72787911D01*
X126725799Y-72787838D01*
X126797840Y-72787495D01*
X126852780Y-72786692D01*
X126893360Y-72785241D01*
X126922317Y-72782952D01*
X126942391Y-72779636D01*
X126956321Y-72775105D01*
X126966845Y-72769169D01*
X126973100Y-72764514D01*
X126997673Y-72733783D01*
X127000341Y-72698496D01*
X126985271Y-72666245D01*
X126976374Y-72655588D01*
X126964557Y-72648464D01*
X126945526Y-72644167D01*
X126914992Y-72641991D01*
X126868662Y-72641228D01*
X126832871Y-72641155D01*
X126698045Y-72641155D01*
X126698045Y-72144444D01*
X126820700Y-72144444D01*
X126876787Y-72143931D01*
X126915333Y-72141876D01*
X126941361Y-72137508D01*
X126959897Y-72130056D01*
X126973100Y-72121047D01*
X126997604Y-72090144D01*
X127000506Y-72055196D01*
X126983089Y-72021738D01*
X126973959Y-72012604D01*
X126961855Y-72006152D01*
X126943001Y-72001897D01*
X126913620Y-71999352D01*
X126869937Y-71998029D01*
X126808175Y-71997443D01*
X126794000Y-71997375D01*
X126677631Y-71996891D01*
X126581727Y-71996641D01*
X126504177Y-71996723D01*
X126442869Y-71997231D01*
X126395690Y-71998262D01*
X126360530Y-71999913D01*
X126335276Y-72002279D01*
X126317817Y-72005457D01*
X126306041Y-72009544D01*
X126297835Y-72014634D01*
X126291645Y-72020266D01*
X126271844Y-72052128D01*
X126274533Y-72085357D01*
X126296776Y-72116735D01*
X126311126Y-72129433D01*
X126326978Y-72137526D01*
X126349554Y-72142042D01*
X126384078Y-72144006D01*
X126435776Y-72144444D01*
X126551289Y-72144444D01*
X126551289Y-72641155D01*
X126432756Y-72641155D01*
X126378148Y-72641662D01*
X126341275Y-72643698D01*
X126317307Y-72648035D01*
X126301415Y-72655447D01*
X126291645Y-72663733D01*
X126271844Y-72695594D01*
X126274533Y-72728823D01*
X126274533Y-72728823D01*
G37*
X126274533Y-72728823D02*
X126296776Y-72760202D01*
X126324485Y-72787911D01*
X126633920Y-72787911D01*
X126725799Y-72787838D01*
X126797840Y-72787495D01*
X126852780Y-72786692D01*
X126893360Y-72785241D01*
X126922317Y-72782952D01*
X126942391Y-72779636D01*
X126956321Y-72775105D01*
X126966845Y-72769169D01*
X126973100Y-72764514D01*
X126997673Y-72733783D01*
X127000341Y-72698496D01*
X126985271Y-72666245D01*
X126976374Y-72655588D01*
X126964557Y-72648464D01*
X126945526Y-72644167D01*
X126914992Y-72641991D01*
X126868662Y-72641228D01*
X126832871Y-72641155D01*
X126698045Y-72641155D01*
X126698045Y-72144444D01*
X126820700Y-72144444D01*
X126876787Y-72143931D01*
X126915333Y-72141876D01*
X126941361Y-72137508D01*
X126959897Y-72130056D01*
X126973100Y-72121047D01*
X126997604Y-72090144D01*
X127000506Y-72055196D01*
X126983089Y-72021738D01*
X126973959Y-72012604D01*
X126961855Y-72006152D01*
X126943001Y-72001897D01*
X126913620Y-71999352D01*
X126869937Y-71998029D01*
X126808175Y-71997443D01*
X126794000Y-71997375D01*
X126677631Y-71996891D01*
X126581727Y-71996641D01*
X126504177Y-71996723D01*
X126442869Y-71997231D01*
X126395690Y-71998262D01*
X126360530Y-71999913D01*
X126335276Y-72002279D01*
X126317817Y-72005457D01*
X126306041Y-72009544D01*
X126297835Y-72014634D01*
X126291645Y-72020266D01*
X126271844Y-72052128D01*
X126274533Y-72085357D01*
X126296776Y-72116735D01*
X126311126Y-72129433D01*
X126326978Y-72137526D01*
X126349554Y-72142042D01*
X126384078Y-72144006D01*
X126435776Y-72144444D01*
X126551289Y-72144444D01*
X126551289Y-72641155D01*
X126432756Y-72641155D01*
X126378148Y-72641662D01*
X126341275Y-72643698D01*
X126317307Y-72648035D01*
X126301415Y-72655447D01*
X126291645Y-72663733D01*
X126271844Y-72695594D01*
X126274533Y-72728823D01*
G36*
X121489054Y-63553600D02*
X121602993Y-63564465D01*
X121710616Y-63596082D01*
X121809615Y-63646985D01*
X121897684Y-63715707D01*
X121972516Y-63800781D01*
X122030384Y-63897768D01*
X122070005Y-64004036D01*
X122088573Y-64111050D01*
X122087434Y-64216700D01*
X122067930Y-64318875D01*
X122031406Y-64415466D01*
X121979205Y-64504362D01*
X121912673Y-64583454D01*
X121833152Y-64650631D01*
X121741987Y-64703783D01*
X121640523Y-64740801D01*
X121530102Y-64759573D01*
X121480206Y-64761511D01*
X121392267Y-64761511D01*
X121392267Y-64813440D01*
X121395111Y-64849747D01*
X121406911Y-64876645D01*
X121430649Y-64903751D01*
X121469031Y-64942133D01*
X123660602Y-64942133D01*
X123922739Y-64942124D01*
X124163241Y-64942092D01*
X124383048Y-64942028D01*
X124583101Y-64941924D01*
X124764344Y-64941773D01*
X124927716Y-64941566D01*
X125074160Y-64941294D01*
X125204617Y-64940950D01*
X125320029Y-64940526D01*
X125421338Y-64940013D01*
X125509484Y-64939403D01*
X125585410Y-64938688D01*
X125650057Y-64937860D01*
X125704367Y-64936911D01*
X125749280Y-64935833D01*
X125785740Y-64934617D01*
X125814687Y-64933255D01*
X125837063Y-64931739D01*
X125853809Y-64930062D01*
X125865868Y-64928214D01*
X125874180Y-64926187D01*
X125879687Y-64923975D01*
X125881537Y-64922892D01*
X125888549Y-64918729D01*
X125894996Y-64915195D01*
X125900900Y-64911365D01*
X125906286Y-64906318D01*
X125911178Y-64899129D01*
X125915598Y-64888877D01*
X125919572Y-64874636D01*
X125923121Y-64855486D01*
X125926270Y-64830501D01*
X125929042Y-64798760D01*
X125931461Y-64759338D01*
X125933551Y-64711314D01*
X125935335Y-64653763D01*
X125936837Y-64585763D01*
X125938080Y-64506390D01*
X125939089Y-64414721D01*
X125939885Y-64309834D01*
X125940494Y-64190804D01*
X125940939Y-64056710D01*
X125941243Y-63906627D01*
X125941430Y-63739633D01*
X125941524Y-63554804D01*
X125941548Y-63351217D01*
X125941525Y-63127950D01*
X125941480Y-62884078D01*
X125941437Y-62618679D01*
X125941432Y-62580296D01*
X125941389Y-62313318D01*
X125941318Y-62067998D01*
X125941213Y-61843417D01*
X125941066Y-61638655D01*
X125940869Y-61452794D01*
X125940616Y-61284912D01*
X125940300Y-61134092D01*
X125939913Y-60999413D01*
X125939447Y-60879956D01*
X125938897Y-60774801D01*
X125938253Y-60683029D01*
X125937511Y-60603721D01*
X125936661Y-60535957D01*
X125935697Y-60478818D01*
X125934611Y-60431383D01*
X125933397Y-60392734D01*
X125932047Y-60361951D01*
X125930555Y-60338115D01*
X125928911Y-60320306D01*
X125927111Y-60307605D01*
X125925145Y-60299092D01*
X125923477Y-60294734D01*
X125919906Y-60286272D01*
X125917270Y-60278503D01*
X125914634Y-60271398D01*
X125911062Y-60264927D01*
X125905621Y-60259061D01*
X125897375Y-60253771D01*
X125885390Y-60249026D01*
X125868731Y-60244798D01*
X125846463Y-60241057D01*
X125817652Y-60237773D01*
X125781363Y-60234917D01*
X125736661Y-60232460D01*
X125682611Y-60230371D01*
X125618279Y-60228622D01*
X125542730Y-60227183D01*
X125455030Y-60226024D01*
X125354243Y-60225117D01*
X125239434Y-60224431D01*
X125109670Y-60223937D01*
X124964015Y-60223605D01*
X124801535Y-60223407D01*
X124621295Y-60223313D01*
X124422360Y-60223292D01*
X124203796Y-60223315D01*
X123964668Y-60223354D01*
X123704040Y-60223378D01*
X123661889Y-60223378D01*
X123398992Y-60223364D01*
X123157732Y-60223339D01*
X122937165Y-60223329D01*
X122736352Y-60223358D01*
X122554349Y-60223452D01*
X122390216Y-60223638D01*
X122243011Y-60223941D01*
X122111792Y-60224386D01*
X122001867Y-60224966D01*
X122001867Y-60527803D01*
X122059711Y-60567593D01*
X122075479Y-60578764D01*
X122089441Y-60588834D01*
X122102784Y-60597862D01*
X122116693Y-60605903D01*
X122132356Y-60613014D01*
X122150958Y-60619253D01*
X122173686Y-60624675D01*
X122201727Y-60629338D01*
X122236267Y-60633299D01*
X122278492Y-60636615D01*
X122329589Y-60639341D01*
X122390744Y-60641536D01*
X122463144Y-60643255D01*
X122547975Y-60644556D01*
X122646422Y-60645495D01*
X122759674Y-60646130D01*
X122888916Y-60646516D01*
X123035334Y-60646712D01*
X123200116Y-60646773D01*
X123384447Y-60646757D01*
X123589513Y-60646720D01*
X123712133Y-60646711D01*
X123929082Y-60646735D01*
X124124642Y-60646769D01*
X124299999Y-60646757D01*
X124456341Y-60646642D01*
X124594857Y-60646370D01*
X124716734Y-60645882D01*
X124823160Y-60645124D01*
X124915322Y-60644038D01*
X124994409Y-60642569D01*
X125061608Y-60640660D01*
X125118107Y-60638256D01*
X125165093Y-60635299D01*
X125203755Y-60631734D01*
X125235280Y-60627505D01*
X125260855Y-60622554D01*
X125281670Y-60616827D01*
X125298911Y-60610267D01*
X125313765Y-60602817D01*
X125327422Y-60594421D01*
X125341069Y-60585024D01*
X125355893Y-60574568D01*
X125364783Y-60568477D01*
X125422400Y-60529704D01*
X125422400Y-61061268D01*
X125422365Y-61184517D01*
X125422215Y-61287013D01*
X125421878Y-61370580D01*
X125421286Y-61437044D01*
X125420367Y-61488229D01*
X125419051Y-61525959D01*
X125417269Y-61552060D01*
X125414951Y-61568356D01*
X125412026Y-61576672D01*
X125408424Y-61578832D01*
X125404075Y-61576661D01*
X125402645Y-61575465D01*
X125365573Y-61550315D01*
X125312772Y-61524417D01*
X125250770Y-61500808D01*
X125224357Y-61492539D01*
X125206416Y-61487922D01*
X125185355Y-61484021D01*
X125159089Y-61480752D01*
X125125532Y-61478034D01*
X125082599Y-61475785D01*
X125028204Y-61473923D01*
X124960262Y-61472364D01*
X124876688Y-61471028D01*
X124775395Y-61469831D01*
X124654300Y-61468692D01*
X124609600Y-61468315D01*
X124484449Y-61467298D01*
X124380082Y-61466540D01*
X124294707Y-61466097D01*
X124226533Y-61466030D01*
X124173765Y-61466395D01*
X124134614Y-61467252D01*
X124107285Y-61468659D01*
X124089986Y-61470675D01*
X124080926Y-61473357D01*
X124078312Y-61476764D01*
X124080351Y-61480956D01*
X124084667Y-61485429D01*
X124097602Y-61495784D01*
X124126676Y-61517842D01*
X124169759Y-61550043D01*
X124224718Y-61590826D01*
X124289423Y-61638630D01*
X124361742Y-61691895D01*
X124439544Y-61749060D01*
X124520698Y-61808563D01*
X124603072Y-61868845D01*
X124684536Y-61928345D01*
X124762957Y-61985502D01*
X124836204Y-62038755D01*
X124902147Y-62086543D01*
X124958654Y-62127307D01*
X125003593Y-62159484D01*
X125034834Y-62181515D01*
X125041466Y-62186083D01*
X125078369Y-62209004D01*
X125126359Y-62235812D01*
X125175897Y-62261211D01*
X125182577Y-62264432D01*
X125230772Y-62286110D01*
X125268334Y-62298696D01*
X125304160Y-62304426D01*
X125346200Y-62305544D01*
X125422400Y-62304910D01*
X125422400Y-63459349D01*
X125328669Y-63368185D01*
X125278775Y-63321388D01*
X125222295Y-63271101D01*
X125168026Y-63225056D01*
X125142673Y-63204631D01*
X125103128Y-63174193D01*
X125049916Y-63134138D01*
X124984667Y-63085639D01*
X124909011Y-63029865D01*
X124824577Y-62967989D01*
X124732994Y-62901181D01*
X124635892Y-62830613D01*
X124534901Y-62757455D01*
X124431650Y-62682879D01*
X124327768Y-62608056D01*
X124224885Y-62534157D01*
X124124631Y-62462354D01*
X124028636Y-62393816D01*
X123938527Y-62329716D01*
X123855936Y-62271225D01*
X123782492Y-62219514D01*
X123719824Y-62175753D01*
X123669561Y-62141115D01*
X123633334Y-62116770D01*
X123612771Y-62103889D01*
X123608668Y-62102131D01*
X123597342Y-62110090D01*
X123570162Y-62130885D01*
X123528829Y-62163153D01*
X123475044Y-62205530D01*
X123410506Y-62256653D01*
X123336918Y-62315159D01*
X123255978Y-62379686D01*
X123169388Y-62448869D01*
X123078848Y-62521347D01*
X122986060Y-62595754D01*
X122911702Y-62655483D01*
X122911702Y-63666489D01*
X122924659Y-63672398D01*
X122946908Y-63686728D01*
X122948391Y-63687775D01*
X122978544Y-63706562D01*
X123015375Y-63726209D01*
X123023511Y-63730108D01*
X123031940Y-63733644D01*
X123042059Y-63736770D01*
X123055260Y-63739514D01*
X123072938Y-63741908D01*
X123096484Y-63743981D01*
X123127293Y-63745765D01*
X123166757Y-63747288D01*
X123216269Y-63748581D01*
X123277223Y-63749674D01*
X123351011Y-63750597D01*
X123439028Y-63751381D01*
X123542665Y-63752055D01*
X123663316Y-63752650D01*
X123802374Y-63753195D01*
X123961232Y-63753721D01*
X124140089Y-63754255D01*
X124325207Y-63754794D01*
X124489145Y-63755228D01*
X124633303Y-63755491D01*
X124759079Y-63755516D01*
X124867871Y-63755235D01*
X124961077Y-63754581D01*
X125040097Y-63753486D01*
X125106328Y-63751882D01*
X125161170Y-63749703D01*
X125206021Y-63746881D01*
X125242278Y-63743349D01*
X125271341Y-63739039D01*
X125294609Y-63733883D01*
X125313479Y-63727815D01*
X125329351Y-63720767D01*
X125343622Y-63712671D01*
X125357691Y-63703460D01*
X125370158Y-63694960D01*
X125396452Y-63677824D01*
X125414037Y-63667678D01*
X125417257Y-63666489D01*
X125418334Y-63677396D01*
X125419335Y-63708589D01*
X125420235Y-63757777D01*
X125421010Y-63822667D01*
X125421637Y-63900970D01*
X125422091Y-63990393D01*
X125422349Y-64088644D01*
X125422400Y-64157555D01*
X125422180Y-64262548D01*
X125421548Y-64359390D01*
X125420549Y-64445893D01*
X125419227Y-64519868D01*
X125417626Y-64579126D01*
X125415791Y-64621480D01*
X125413765Y-64644740D01*
X125412493Y-64648622D01*
X125397591Y-64640924D01*
X125389560Y-64632926D01*
X125372434Y-64619754D01*
X125342183Y-64602515D01*
X125317622Y-64590593D01*
X125258711Y-64563955D01*
X124081845Y-64560880D01*
X122904978Y-64557805D01*
X122904978Y-64112147D01*
X122905142Y-64014330D01*
X122905611Y-63923936D01*
X122906347Y-63843370D01*
X122907316Y-63775038D01*
X122908480Y-63721344D01*
X122909803Y-63684695D01*
X122911249Y-63667496D01*
X122911702Y-63666489D01*
X122911702Y-62655483D01*
X122892722Y-62670730D01*
X122800537Y-62744910D01*
X122711204Y-62816931D01*
X122626424Y-62885431D01*
X122547898Y-62949045D01*
X122477326Y-63006412D01*
X122416409Y-63056167D01*
X122366847Y-63096948D01*
X122346178Y-63114112D01*
X122245516Y-63200404D01*
X122162259Y-63277003D01*
X122094438Y-63345817D01*
X122040089Y-63408752D01*
X122032722Y-63418133D01*
X122002117Y-63457644D01*
X122001867Y-62325884D01*
X122049844Y-62331173D01*
X122107188Y-62327870D01*
X122175463Y-62306339D01*
X122255212Y-62266365D01*
X122327495Y-62221057D01*
X122350140Y-62204839D01*
X122387696Y-62176786D01*
X122438021Y-62138570D01*
X122498973Y-62091863D01*
X122568411Y-62038339D01*
X122644194Y-61979669D01*
X122724180Y-61917525D01*
X122806228Y-61853579D01*
X122888196Y-61789505D01*
X122967943Y-61726973D01*
X123043327Y-61667657D01*
X123112207Y-61613229D01*
X123172442Y-61565361D01*
X123221889Y-61525725D01*
X123258408Y-61495994D01*
X123279858Y-61477839D01*
X123283156Y-61474780D01*
X123275149Y-61471921D01*
X123244855Y-61469707D01*
X123192556Y-61468143D01*
X123118531Y-61467233D01*
X123023063Y-61466980D01*
X122906434Y-61467387D01*
X122786445Y-61468296D01*
X122654333Y-61469618D01*
X122542594Y-61471143D01*
X122449025Y-61473119D01*
X122371419Y-61475794D01*
X122307574Y-61479418D01*
X122255283Y-61484239D01*
X122212344Y-61490506D01*
X122176551Y-61498468D01*
X122145700Y-61508373D01*
X122117586Y-61520469D01*
X122090005Y-61535007D01*
X122064966Y-61549689D01*
X122001867Y-61587686D01*
X122001867Y-60527803D01*
X122001867Y-60224966D01*
X121995617Y-60224999D01*
X121893544Y-60225805D01*
X121804633Y-60226830D01*
X121727941Y-60228100D01*
X121662527Y-60229640D01*
X121607449Y-60231476D01*
X121561765Y-60233633D01*
X121524534Y-60236137D01*
X121494813Y-60239013D01*
X121471662Y-60242287D01*
X121454139Y-60245985D01*
X121441301Y-60250131D01*
X121432208Y-60254753D01*
X121425918Y-60259874D01*
X121421488Y-60265522D01*
X121417978Y-60271721D01*
X121414445Y-60278496D01*
X121410876Y-60284492D01*
X121408300Y-60289725D01*
X121405972Y-60297901D01*
X121403878Y-60310114D01*
X121402007Y-60327459D01*
X121400347Y-60351031D01*
X121398884Y-60381923D01*
X121397608Y-60421232D01*
X121396504Y-60470050D01*
X121395561Y-60529473D01*
X121394767Y-60600596D01*
X121394109Y-60684512D01*
X121393575Y-60782317D01*
X121393153Y-60895106D01*
X121392829Y-61023971D01*
X121392592Y-61170009D01*
X121392430Y-61334314D01*
X121392330Y-61517980D01*
X121392280Y-61722103D01*
X121392267Y-61933247D01*
X121392267Y-63553600D01*
X121489054Y-63553600D01*
X121489054Y-63553600D01*
G37*
X121489054Y-63553600D02*
X121602993Y-63564465D01*
X121710616Y-63596082D01*
X121809615Y-63646985D01*
X121897684Y-63715707D01*
X121972516Y-63800781D01*
X122030384Y-63897768D01*
X122070005Y-64004036D01*
X122088573Y-64111050D01*
X122087434Y-64216700D01*
X122067930Y-64318875D01*
X122031406Y-64415466D01*
X121979205Y-64504362D01*
X121912673Y-64583454D01*
X121833152Y-64650631D01*
X121741987Y-64703783D01*
X121640523Y-64740801D01*
X121530102Y-64759573D01*
X121480206Y-64761511D01*
X121392267Y-64761511D01*
X121392267Y-64813440D01*
X121395111Y-64849747D01*
X121406911Y-64876645D01*
X121430649Y-64903751D01*
X121469031Y-64942133D01*
X123660602Y-64942133D01*
X123922739Y-64942124D01*
X124163241Y-64942092D01*
X124383048Y-64942028D01*
X124583101Y-64941924D01*
X124764344Y-64941773D01*
X124927716Y-64941566D01*
X125074160Y-64941294D01*
X125204617Y-64940950D01*
X125320029Y-64940526D01*
X125421338Y-64940013D01*
X125509484Y-64939403D01*
X125585410Y-64938688D01*
X125650057Y-64937860D01*
X125704367Y-64936911D01*
X125749280Y-64935833D01*
X125785740Y-64934617D01*
X125814687Y-64933255D01*
X125837063Y-64931739D01*
X125853809Y-64930062D01*
X125865868Y-64928214D01*
X125874180Y-64926187D01*
X125879687Y-64923975D01*
X125881537Y-64922892D01*
X125888549Y-64918729D01*
X125894996Y-64915195D01*
X125900900Y-64911365D01*
X125906286Y-64906318D01*
X125911178Y-64899129D01*
X125915598Y-64888877D01*
X125919572Y-64874636D01*
X125923121Y-64855486D01*
X125926270Y-64830501D01*
X125929042Y-64798760D01*
X125931461Y-64759338D01*
X125933551Y-64711314D01*
X125935335Y-64653763D01*
X125936837Y-64585763D01*
X125938080Y-64506390D01*
X125939089Y-64414721D01*
X125939885Y-64309834D01*
X125940494Y-64190804D01*
X125940939Y-64056710D01*
X125941243Y-63906627D01*
X125941430Y-63739633D01*
X125941524Y-63554804D01*
X125941548Y-63351217D01*
X125941525Y-63127950D01*
X125941480Y-62884078D01*
X125941437Y-62618679D01*
X125941432Y-62580296D01*
X125941389Y-62313318D01*
X125941318Y-62067998D01*
X125941213Y-61843417D01*
X125941066Y-61638655D01*
X125940869Y-61452794D01*
X125940616Y-61284912D01*
X125940300Y-61134092D01*
X125939913Y-60999413D01*
X125939447Y-60879956D01*
X125938897Y-60774801D01*
X125938253Y-60683029D01*
X125937511Y-60603721D01*
X125936661Y-60535957D01*
X125935697Y-60478818D01*
X125934611Y-60431383D01*
X125933397Y-60392734D01*
X125932047Y-60361951D01*
X125930555Y-60338115D01*
X125928911Y-60320306D01*
X125927111Y-60307605D01*
X125925145Y-60299092D01*
X125923477Y-60294734D01*
X125919906Y-60286272D01*
X125917270Y-60278503D01*
X125914634Y-60271398D01*
X125911062Y-60264927D01*
X125905621Y-60259061D01*
X125897375Y-60253771D01*
X125885390Y-60249026D01*
X125868731Y-60244798D01*
X125846463Y-60241057D01*
X125817652Y-60237773D01*
X125781363Y-60234917D01*
X125736661Y-60232460D01*
X125682611Y-60230371D01*
X125618279Y-60228622D01*
X125542730Y-60227183D01*
X125455030Y-60226024D01*
X125354243Y-60225117D01*
X125239434Y-60224431D01*
X125109670Y-60223937D01*
X124964015Y-60223605D01*
X124801535Y-60223407D01*
X124621295Y-60223313D01*
X124422360Y-60223292D01*
X124203796Y-60223315D01*
X123964668Y-60223354D01*
X123704040Y-60223378D01*
X123661889Y-60223378D01*
X123398992Y-60223364D01*
X123157732Y-60223339D01*
X122937165Y-60223329D01*
X122736352Y-60223358D01*
X122554349Y-60223452D01*
X122390216Y-60223638D01*
X122243011Y-60223941D01*
X122111792Y-60224386D01*
X122001867Y-60224966D01*
X122001867Y-60527803D01*
X122059711Y-60567593D01*
X122075479Y-60578764D01*
X122089441Y-60588834D01*
X122102784Y-60597862D01*
X122116693Y-60605903D01*
X122132356Y-60613014D01*
X122150958Y-60619253D01*
X122173686Y-60624675D01*
X122201727Y-60629338D01*
X122236267Y-60633299D01*
X122278492Y-60636615D01*
X122329589Y-60639341D01*
X122390744Y-60641536D01*
X122463144Y-60643255D01*
X122547975Y-60644556D01*
X122646422Y-60645495D01*
X122759674Y-60646130D01*
X122888916Y-60646516D01*
X123035334Y-60646712D01*
X123200116Y-60646773D01*
X123384447Y-60646757D01*
X123589513Y-60646720D01*
X123712133Y-60646711D01*
X123929082Y-60646735D01*
X124124642Y-60646769D01*
X124299999Y-60646757D01*
X124456341Y-60646642D01*
X124594857Y-60646370D01*
X124716734Y-60645882D01*
X124823160Y-60645124D01*
X124915322Y-60644038D01*
X124994409Y-60642569D01*
X125061608Y-60640660D01*
X125118107Y-60638256D01*
X125165093Y-60635299D01*
X125203755Y-60631734D01*
X125235280Y-60627505D01*
X125260855Y-60622554D01*
X125281670Y-60616827D01*
X125298911Y-60610267D01*
X125313765Y-60602817D01*
X125327422Y-60594421D01*
X125341069Y-60585024D01*
X125355893Y-60574568D01*
X125364783Y-60568477D01*
X125422400Y-60529704D01*
X125422400Y-61061268D01*
X125422365Y-61184517D01*
X125422215Y-61287013D01*
X125421878Y-61370580D01*
X125421286Y-61437044D01*
X125420367Y-61488229D01*
X125419051Y-61525959D01*
X125417269Y-61552060D01*
X125414951Y-61568356D01*
X125412026Y-61576672D01*
X125408424Y-61578832D01*
X125404075Y-61576661D01*
X125402645Y-61575465D01*
X125365573Y-61550315D01*
X125312772Y-61524417D01*
X125250770Y-61500808D01*
X125224357Y-61492539D01*
X125206416Y-61487922D01*
X125185355Y-61484021D01*
X125159089Y-61480752D01*
X125125532Y-61478034D01*
X125082599Y-61475785D01*
X125028204Y-61473923D01*
X124960262Y-61472364D01*
X124876688Y-61471028D01*
X124775395Y-61469831D01*
X124654300Y-61468692D01*
X124609600Y-61468315D01*
X124484449Y-61467298D01*
X124380082Y-61466540D01*
X124294707Y-61466097D01*
X124226533Y-61466030D01*
X124173765Y-61466395D01*
X124134614Y-61467252D01*
X124107285Y-61468659D01*
X124089986Y-61470675D01*
X124080926Y-61473357D01*
X124078312Y-61476764D01*
X124080351Y-61480956D01*
X124084667Y-61485429D01*
X124097602Y-61495784D01*
X124126676Y-61517842D01*
X124169759Y-61550043D01*
X124224718Y-61590826D01*
X124289423Y-61638630D01*
X124361742Y-61691895D01*
X124439544Y-61749060D01*
X124520698Y-61808563D01*
X124603072Y-61868845D01*
X124684536Y-61928345D01*
X124762957Y-61985502D01*
X124836204Y-62038755D01*
X124902147Y-62086543D01*
X124958654Y-62127307D01*
X125003593Y-62159484D01*
X125034834Y-62181515D01*
X125041466Y-62186083D01*
X125078369Y-62209004D01*
X125126359Y-62235812D01*
X125175897Y-62261211D01*
X125182577Y-62264432D01*
X125230772Y-62286110D01*
X125268334Y-62298696D01*
X125304160Y-62304426D01*
X125346200Y-62305544D01*
X125422400Y-62304910D01*
X125422400Y-63459349D01*
X125328669Y-63368185D01*
X125278775Y-63321388D01*
X125222295Y-63271101D01*
X125168026Y-63225056D01*
X125142673Y-63204631D01*
X125103128Y-63174193D01*
X125049916Y-63134138D01*
X124984667Y-63085639D01*
X124909011Y-63029865D01*
X124824577Y-62967989D01*
X124732994Y-62901181D01*
X124635892Y-62830613D01*
X124534901Y-62757455D01*
X124431650Y-62682879D01*
X124327768Y-62608056D01*
X124224885Y-62534157D01*
X124124631Y-62462354D01*
X124028636Y-62393816D01*
X123938527Y-62329716D01*
X123855936Y-62271225D01*
X123782492Y-62219514D01*
X123719824Y-62175753D01*
X123669561Y-62141115D01*
X123633334Y-62116770D01*
X123612771Y-62103889D01*
X123608668Y-62102131D01*
X123597342Y-62110090D01*
X123570162Y-62130885D01*
X123528829Y-62163153D01*
X123475044Y-62205530D01*
X123410506Y-62256653D01*
X123336918Y-62315159D01*
X123255978Y-62379686D01*
X123169388Y-62448869D01*
X123078848Y-62521347D01*
X122986060Y-62595754D01*
X122911702Y-62655483D01*
X122911702Y-63666489D01*
X122924659Y-63672398D01*
X122946908Y-63686728D01*
X122948391Y-63687775D01*
X122978544Y-63706562D01*
X123015375Y-63726209D01*
X123023511Y-63730108D01*
X123031940Y-63733644D01*
X123042059Y-63736770D01*
X123055260Y-63739514D01*
X123072938Y-63741908D01*
X123096484Y-63743981D01*
X123127293Y-63745765D01*
X123166757Y-63747288D01*
X123216269Y-63748581D01*
X123277223Y-63749674D01*
X123351011Y-63750597D01*
X123439028Y-63751381D01*
X123542665Y-63752055D01*
X123663316Y-63752650D01*
X123802374Y-63753195D01*
X123961232Y-63753721D01*
X124140089Y-63754255D01*
X124325207Y-63754794D01*
X124489145Y-63755228D01*
X124633303Y-63755491D01*
X124759079Y-63755516D01*
X124867871Y-63755235D01*
X124961077Y-63754581D01*
X125040097Y-63753486D01*
X125106328Y-63751882D01*
X125161170Y-63749703D01*
X125206021Y-63746881D01*
X125242278Y-63743349D01*
X125271341Y-63739039D01*
X125294609Y-63733883D01*
X125313479Y-63727815D01*
X125329351Y-63720767D01*
X125343622Y-63712671D01*
X125357691Y-63703460D01*
X125370158Y-63694960D01*
X125396452Y-63677824D01*
X125414037Y-63667678D01*
X125417257Y-63666489D01*
X125418334Y-63677396D01*
X125419335Y-63708589D01*
X125420235Y-63757777D01*
X125421010Y-63822667D01*
X125421637Y-63900970D01*
X125422091Y-63990393D01*
X125422349Y-64088644D01*
X125422400Y-64157555D01*
X125422180Y-64262548D01*
X125421548Y-64359390D01*
X125420549Y-64445893D01*
X125419227Y-64519868D01*
X125417626Y-64579126D01*
X125415791Y-64621480D01*
X125413765Y-64644740D01*
X125412493Y-64648622D01*
X125397591Y-64640924D01*
X125389560Y-64632926D01*
X125372434Y-64619754D01*
X125342183Y-64602515D01*
X125317622Y-64590593D01*
X125258711Y-64563955D01*
X124081845Y-64560880D01*
X122904978Y-64557805D01*
X122904978Y-64112147D01*
X122905142Y-64014330D01*
X122905611Y-63923936D01*
X122906347Y-63843370D01*
X122907316Y-63775038D01*
X122908480Y-63721344D01*
X122909803Y-63684695D01*
X122911249Y-63667496D01*
X122911702Y-63666489D01*
X122911702Y-62655483D01*
X122892722Y-62670730D01*
X122800537Y-62744910D01*
X122711204Y-62816931D01*
X122626424Y-62885431D01*
X122547898Y-62949045D01*
X122477326Y-63006412D01*
X122416409Y-63056167D01*
X122366847Y-63096948D01*
X122346178Y-63114112D01*
X122245516Y-63200404D01*
X122162259Y-63277003D01*
X122094438Y-63345817D01*
X122040089Y-63408752D01*
X122032722Y-63418133D01*
X122002117Y-63457644D01*
X122001867Y-62325884D01*
X122049844Y-62331173D01*
X122107188Y-62327870D01*
X122175463Y-62306339D01*
X122255212Y-62266365D01*
X122327495Y-62221057D01*
X122350140Y-62204839D01*
X122387696Y-62176786D01*
X122438021Y-62138570D01*
X122498973Y-62091863D01*
X122568411Y-62038339D01*
X122644194Y-61979669D01*
X122724180Y-61917525D01*
X122806228Y-61853579D01*
X122888196Y-61789505D01*
X122967943Y-61726973D01*
X123043327Y-61667657D01*
X123112207Y-61613229D01*
X123172442Y-61565361D01*
X123221889Y-61525725D01*
X123258408Y-61495994D01*
X123279858Y-61477839D01*
X123283156Y-61474780D01*
X123275149Y-61471921D01*
X123244855Y-61469707D01*
X123192556Y-61468143D01*
X123118531Y-61467233D01*
X123023063Y-61466980D01*
X122906434Y-61467387D01*
X122786445Y-61468296D01*
X122654333Y-61469618D01*
X122542594Y-61471143D01*
X122449025Y-61473119D01*
X122371419Y-61475794D01*
X122307574Y-61479418D01*
X122255283Y-61484239D01*
X122212344Y-61490506D01*
X122176551Y-61498468D01*
X122145700Y-61508373D01*
X122117586Y-61520469D01*
X122090005Y-61535007D01*
X122064966Y-61549689D01*
X122001867Y-61587686D01*
X122001867Y-60527803D01*
X122001867Y-60224966D01*
X121995617Y-60224999D01*
X121893544Y-60225805D01*
X121804633Y-60226830D01*
X121727941Y-60228100D01*
X121662527Y-60229640D01*
X121607449Y-60231476D01*
X121561765Y-60233633D01*
X121524534Y-60236137D01*
X121494813Y-60239013D01*
X121471662Y-60242287D01*
X121454139Y-60245985D01*
X121441301Y-60250131D01*
X121432208Y-60254753D01*
X121425918Y-60259874D01*
X121421488Y-60265522D01*
X121417978Y-60271721D01*
X121414445Y-60278496D01*
X121410876Y-60284492D01*
X121408300Y-60289725D01*
X121405972Y-60297901D01*
X121403878Y-60310114D01*
X121402007Y-60327459D01*
X121400347Y-60351031D01*
X121398884Y-60381923D01*
X121397608Y-60421232D01*
X121396504Y-60470050D01*
X121395561Y-60529473D01*
X121394767Y-60600596D01*
X121394109Y-60684512D01*
X121393575Y-60782317D01*
X121393153Y-60895106D01*
X121392829Y-61023971D01*
X121392592Y-61170009D01*
X121392430Y-61334314D01*
X121392330Y-61517980D01*
X121392280Y-61722103D01*
X121392267Y-61933247D01*
X121392267Y-63553600D01*
X121489054Y-63553600D01*
G36*
X121949071Y-66828429D02*
X121970245Y-66988570D01*
X122010385Y-67152510D01*
X122069889Y-67322313D01*
X122149154Y-67500043D01*
X122154699Y-67511310D01*
X122182725Y-67569005D01*
X122206802Y-67620552D01*
X122225249Y-67662191D01*
X122236386Y-67690162D01*
X122238933Y-67699733D01*
X122243941Y-67718950D01*
X122248147Y-67723561D01*
X122258580Y-67718458D01*
X122284868Y-67702418D01*
X122324257Y-67677288D01*
X122373991Y-67644914D01*
X122431315Y-67607143D01*
X122493476Y-67565822D01*
X122557718Y-67522798D01*
X122621285Y-67479917D01*
X122681425Y-67439026D01*
X122735380Y-67401971D01*
X122780397Y-67370600D01*
X122813721Y-67346759D01*
X122832597Y-67332294D01*
X122834787Y-67330309D01*
X122830138Y-67320191D01*
X122812962Y-67297850D01*
X122786440Y-67267280D01*
X122771964Y-67251536D01*
X122696682Y-67155047D01*
X122641241Y-67048336D01*
X122606141Y-66932832D01*
X122591880Y-66809962D01*
X122593051Y-66740561D01*
X122610212Y-66619423D01*
X122646094Y-66510205D01*
X122700959Y-66412582D01*
X122775070Y-66326228D01*
X122868688Y-66250815D01*
X122982076Y-66186018D01*
X123068667Y-66148601D01*
X123204366Y-66104748D01*
X123351850Y-66072428D01*
X123507314Y-66051557D01*
X123666956Y-66042051D01*
X123826973Y-66043827D01*
X123983561Y-66056803D01*
X124132918Y-66080894D01*
X124271240Y-66116018D01*
X124394724Y-66162092D01*
X124428978Y-66178373D01*
X124543064Y-66246620D01*
X124639557Y-66327079D01*
X124717670Y-66418570D01*
X124776617Y-66519911D01*
X124815612Y-66629920D01*
X124833868Y-66747415D01*
X124835211Y-66788883D01*
X124824290Y-66910441D01*
X124791474Y-67030878D01*
X124737439Y-67148666D01*
X124662865Y-67262277D01*
X124584539Y-67353685D01*
X124540008Y-67400215D01*
X124837271Y-67581483D01*
X124911433Y-67626580D01*
X124979646Y-67667819D01*
X125039459Y-67703735D01*
X125088420Y-67732866D01*
X125124079Y-67753750D01*
X125143984Y-67764924D01*
X125147079Y-67766375D01*
X125156718Y-67758146D01*
X125173999Y-67732567D01*
X125197283Y-67692873D01*
X125224934Y-67642297D01*
X125255315Y-67584074D01*
X125286790Y-67521437D01*
X125317722Y-67457621D01*
X125346473Y-67395860D01*
X125371408Y-67339388D01*
X125390889Y-67291438D01*
X125399318Y-67267986D01*
X125437133Y-67134221D01*
X125462136Y-66996327D01*
X125475140Y-66848622D01*
X125477468Y-66721833D01*
X125476373Y-66653878D01*
X125474275Y-66588277D01*
X125471434Y-66530847D01*
X125468106Y-66487403D01*
X125466422Y-66473298D01*
X125437587Y-66334284D01*
X125392468Y-66192757D01*
X125333750Y-66055275D01*
X125264120Y-65928394D01*
X125211441Y-65850889D01*
X125103239Y-65723481D01*
X124976671Y-65605178D01*
X124834866Y-65498172D01*
X124680951Y-65404652D01*
X124518053Y-65326810D01*
X124400756Y-65282956D01*
X124217128Y-65232708D01*
X124022581Y-65199209D01*
X123821325Y-65182449D01*
X123617568Y-65182416D01*
X123415521Y-65199101D01*
X123219392Y-65232493D01*
X123033391Y-65282580D01*
X123021803Y-65286397D01*
X122859750Y-65349281D01*
X122711832Y-65426028D01*
X122573865Y-65519242D01*
X122441661Y-65631527D01*
X122396399Y-65675392D01*
X122272457Y-65811534D01*
X122169915Y-65951491D01*
X122087656Y-66097411D01*
X122024564Y-66251442D01*
X121979523Y-66415732D01*
X121962033Y-66511289D01*
X121946466Y-66670023D01*
X121949071Y-66828429D01*
X121949071Y-66828429D01*
G37*
X121949071Y-66828429D02*
X121970245Y-66988570D01*
X122010385Y-67152510D01*
X122069889Y-67322313D01*
X122149154Y-67500043D01*
X122154699Y-67511310D01*
X122182725Y-67569005D01*
X122206802Y-67620552D01*
X122225249Y-67662191D01*
X122236386Y-67690162D01*
X122238933Y-67699733D01*
X122243941Y-67718950D01*
X122248147Y-67723561D01*
X122258580Y-67718458D01*
X122284868Y-67702418D01*
X122324257Y-67677288D01*
X122373991Y-67644914D01*
X122431315Y-67607143D01*
X122493476Y-67565822D01*
X122557718Y-67522798D01*
X122621285Y-67479917D01*
X122681425Y-67439026D01*
X122735380Y-67401971D01*
X122780397Y-67370600D01*
X122813721Y-67346759D01*
X122832597Y-67332294D01*
X122834787Y-67330309D01*
X122830138Y-67320191D01*
X122812962Y-67297850D01*
X122786440Y-67267280D01*
X122771964Y-67251536D01*
X122696682Y-67155047D01*
X122641241Y-67048336D01*
X122606141Y-66932832D01*
X122591880Y-66809962D01*
X122593051Y-66740561D01*
X122610212Y-66619423D01*
X122646094Y-66510205D01*
X122700959Y-66412582D01*
X122775070Y-66326228D01*
X122868688Y-66250815D01*
X122982076Y-66186018D01*
X123068667Y-66148601D01*
X123204366Y-66104748D01*
X123351850Y-66072428D01*
X123507314Y-66051557D01*
X123666956Y-66042051D01*
X123826973Y-66043827D01*
X123983561Y-66056803D01*
X124132918Y-66080894D01*
X124271240Y-66116018D01*
X124394724Y-66162092D01*
X124428978Y-66178373D01*
X124543064Y-66246620D01*
X124639557Y-66327079D01*
X124717670Y-66418570D01*
X124776617Y-66519911D01*
X124815612Y-66629920D01*
X124833868Y-66747415D01*
X124835211Y-66788883D01*
X124824290Y-66910441D01*
X124791474Y-67030878D01*
X124737439Y-67148666D01*
X124662865Y-67262277D01*
X124584539Y-67353685D01*
X124540008Y-67400215D01*
X124837271Y-67581483D01*
X124911433Y-67626580D01*
X124979646Y-67667819D01*
X125039459Y-67703735D01*
X125088420Y-67732866D01*
X125124079Y-67753750D01*
X125143984Y-67764924D01*
X125147079Y-67766375D01*
X125156718Y-67758146D01*
X125173999Y-67732567D01*
X125197283Y-67692873D01*
X125224934Y-67642297D01*
X125255315Y-67584074D01*
X125286790Y-67521437D01*
X125317722Y-67457621D01*
X125346473Y-67395860D01*
X125371408Y-67339388D01*
X125390889Y-67291438D01*
X125399318Y-67267986D01*
X125437133Y-67134221D01*
X125462136Y-66996327D01*
X125475140Y-66848622D01*
X125477468Y-66721833D01*
X125476373Y-66653878D01*
X125474275Y-66588277D01*
X125471434Y-66530847D01*
X125468106Y-66487403D01*
X125466422Y-66473298D01*
X125437587Y-66334284D01*
X125392468Y-66192757D01*
X125333750Y-66055275D01*
X125264120Y-65928394D01*
X125211441Y-65850889D01*
X125103239Y-65723481D01*
X124976671Y-65605178D01*
X124834866Y-65498172D01*
X124680951Y-65404652D01*
X124518053Y-65326810D01*
X124400756Y-65282956D01*
X124217128Y-65232708D01*
X124022581Y-65199209D01*
X123821325Y-65182449D01*
X123617568Y-65182416D01*
X123415521Y-65199101D01*
X123219392Y-65232493D01*
X123033391Y-65282580D01*
X123021803Y-65286397D01*
X122859750Y-65349281D01*
X122711832Y-65426028D01*
X122573865Y-65519242D01*
X122441661Y-65631527D01*
X122396399Y-65675392D01*
X122272457Y-65811534D01*
X122169915Y-65951491D01*
X122087656Y-66097411D01*
X122024564Y-66251442D01*
X121979523Y-66415732D01*
X121962033Y-66511289D01*
X121946466Y-66670023D01*
X121949071Y-66828429D01*
G36*
X122866552Y-69173574D02*
X122886567Y-69325492D01*
X122920202Y-69460756D01*
X122967725Y-69580239D01*
X123029405Y-69684815D01*
X123092965Y-69762424D01*
X123167099Y-69831265D01*
X123246871Y-69885006D01*
X123339091Y-69927910D01*
X123382161Y-69943384D01*
X123421142Y-69956244D01*
X123457289Y-69967446D01*
X123492434Y-69977120D01*
X123528410Y-69985396D01*
X123567050Y-69992403D01*
X123610185Y-69998272D01*
X123659649Y-70003131D01*
X123717273Y-70007110D01*
X123784891Y-70010340D01*
X123864334Y-70012949D01*
X123957436Y-70015067D01*
X124066027Y-70016824D01*
X124191942Y-70018349D01*
X124337012Y-70019772D01*
X124479778Y-70021025D01*
X124635968Y-70022351D01*
X124771239Y-70023556D01*
X124887246Y-70024766D01*
X124985645Y-70026106D01*
X125068093Y-70027700D01*
X125136246Y-70029675D01*
X125191760Y-70032156D01*
X125236292Y-70035269D01*
X125271498Y-70039138D01*
X125299034Y-70043889D01*
X125320556Y-70049648D01*
X125337722Y-70056539D01*
X125352186Y-70064689D01*
X125365606Y-70074223D01*
X125379638Y-70085266D01*
X125385071Y-70089566D01*
X125407910Y-70105386D01*
X125423463Y-70112422D01*
X125423922Y-70112444D01*
X125426121Y-70101567D01*
X125428147Y-70070582D01*
X125429942Y-70021957D01*
X125431451Y-69958163D01*
X125432616Y-69881669D01*
X125433380Y-69794944D01*
X125433686Y-69700457D01*
X125433689Y-69689550D01*
X125433689Y-69266657D01*
X125337622Y-69263395D01*
X125241556Y-69260133D01*
X125292543Y-69198044D01*
X125360057Y-69100714D01*
X125414749Y-68990813D01*
X125444978Y-68904349D01*
X125459666Y-68835278D01*
X125469659Y-68751925D01*
X125474646Y-68662159D01*
X125474313Y-68573845D01*
X125468351Y-68494851D01*
X125462638Y-68458622D01*
X125424776Y-68318603D01*
X125369932Y-68192178D01*
X125298924Y-68080260D01*
X125212568Y-67983762D01*
X125111679Y-67903600D01*
X124997076Y-67840687D01*
X124870984Y-67796312D01*
X124814401Y-67783978D01*
X124752202Y-67776368D01*
X124677363Y-67772739D01*
X124643467Y-67772245D01*
X124640282Y-67772310D01*
X124640282Y-68532248D01*
X124715333Y-68541541D01*
X124779160Y-68569728D01*
X124834798Y-68618197D01*
X124839211Y-68623254D01*
X124874037Y-68671548D01*
X124896620Y-68723257D01*
X124908540Y-68783989D01*
X124911383Y-68859352D01*
X124910978Y-68877459D01*
X124908325Y-68931278D01*
X124902909Y-68971308D01*
X124892745Y-69006324D01*
X124875850Y-69045103D01*
X124870672Y-69055745D01*
X124834844Y-69116396D01*
X124792212Y-69163215D01*
X124776973Y-69175952D01*
X124720462Y-69220622D01*
X124524586Y-69220622D01*
X124445939Y-69220086D01*
X124387988Y-69218396D01*
X124348875Y-69215428D01*
X124326741Y-69211057D01*
X124320274Y-69206972D01*
X124317111Y-69191047D01*
X124314488Y-69157264D01*
X124312655Y-69110340D01*
X124311857Y-69054993D01*
X124311842Y-69046106D01*
X124317096Y-68925330D01*
X124333263Y-68822660D01*
X124360961Y-68736106D01*
X124400808Y-68663681D01*
X124447758Y-68608751D01*
X124505645Y-68564204D01*
X124568693Y-68539480D01*
X124640282Y-68532248D01*
X124640282Y-67772310D01*
X124549712Y-67774178D01*
X124470812Y-67782522D01*
X124399590Y-67798768D01*
X124328864Y-67824405D01*
X124276493Y-67848401D01*
X124181196Y-67907020D01*
X124093170Y-67985117D01*
X124014017Y-68080315D01*
X123945340Y-68190238D01*
X123888741Y-68312510D01*
X123845821Y-68444755D01*
X123830882Y-68509422D01*
X123808777Y-68645604D01*
X123794194Y-68794049D01*
X123787813Y-68945505D01*
X123789445Y-69072064D01*
X123796224Y-69233950D01*
X123737245Y-69226530D01*
X123638092Y-69207238D01*
X123557372Y-69176104D01*
X123494466Y-69132269D01*
X123448756Y-69074871D01*
X123419622Y-69003048D01*
X123406447Y-68915941D01*
X123408611Y-68812686D01*
X123412612Y-68774711D01*
X123437780Y-68633520D01*
X123478814Y-68496707D01*
X123516815Y-68402178D01*
X123536190Y-68357018D01*
X123551760Y-68318585D01*
X123561405Y-68292234D01*
X123563452Y-68284546D01*
X123554374Y-68274802D01*
X123525405Y-68258083D01*
X123476217Y-68234232D01*
X123406484Y-68203093D01*
X123315879Y-68164507D01*
X123300089Y-68157910D01*
X123227772Y-68127853D01*
X123162425Y-68100874D01*
X123106906Y-68078136D01*
X123064072Y-68060806D01*
X123036781Y-68050048D01*
X123027942Y-68046941D01*
X123023187Y-68056940D01*
X123017910Y-68083217D01*
X123014231Y-68111489D01*
X123009474Y-68141646D01*
X123000028Y-68189433D01*
X122986820Y-68250612D01*
X122970776Y-68320946D01*
X122952820Y-68396194D01*
X122945797Y-68424755D01*
X122920209Y-68529816D01*
X122900147Y-68617480D01*
X122884969Y-68692068D01*
X122874035Y-68757903D01*
X122866704Y-68819307D01*
X122862335Y-68880602D01*
X122860287Y-68946110D01*
X122859889Y-69004128D01*
X122866552Y-69173574D01*
X122866552Y-69173574D01*
G37*
X122866552Y-69173574D02*
X122886567Y-69325492D01*
X122920202Y-69460756D01*
X122967725Y-69580239D01*
X123029405Y-69684815D01*
X123092965Y-69762424D01*
X123167099Y-69831265D01*
X123246871Y-69885006D01*
X123339091Y-69927910D01*
X123382161Y-69943384D01*
X123421142Y-69956244D01*
X123457289Y-69967446D01*
X123492434Y-69977120D01*
X123528410Y-69985396D01*
X123567050Y-69992403D01*
X123610185Y-69998272D01*
X123659649Y-70003131D01*
X123717273Y-70007110D01*
X123784891Y-70010340D01*
X123864334Y-70012949D01*
X123957436Y-70015067D01*
X124066027Y-70016824D01*
X124191942Y-70018349D01*
X124337012Y-70019772D01*
X124479778Y-70021025D01*
X124635968Y-70022351D01*
X124771239Y-70023556D01*
X124887246Y-70024766D01*
X124985645Y-70026106D01*
X125068093Y-70027700D01*
X125136246Y-70029675D01*
X125191760Y-70032156D01*
X125236292Y-70035269D01*
X125271498Y-70039138D01*
X125299034Y-70043889D01*
X125320556Y-70049648D01*
X125337722Y-70056539D01*
X125352186Y-70064689D01*
X125365606Y-70074223D01*
X125379638Y-70085266D01*
X125385071Y-70089566D01*
X125407910Y-70105386D01*
X125423463Y-70112422D01*
X125423922Y-70112444D01*
X125426121Y-70101567D01*
X125428147Y-70070582D01*
X125429942Y-70021957D01*
X125431451Y-69958163D01*
X125432616Y-69881669D01*
X125433380Y-69794944D01*
X125433686Y-69700457D01*
X125433689Y-69689550D01*
X125433689Y-69266657D01*
X125337622Y-69263395D01*
X125241556Y-69260133D01*
X125292543Y-69198044D01*
X125360057Y-69100714D01*
X125414749Y-68990813D01*
X125444978Y-68904349D01*
X125459666Y-68835278D01*
X125469659Y-68751925D01*
X125474646Y-68662159D01*
X125474313Y-68573845D01*
X125468351Y-68494851D01*
X125462638Y-68458622D01*
X125424776Y-68318603D01*
X125369932Y-68192178D01*
X125298924Y-68080260D01*
X125212568Y-67983762D01*
X125111679Y-67903600D01*
X124997076Y-67840687D01*
X124870984Y-67796312D01*
X124814401Y-67783978D01*
X124752202Y-67776368D01*
X124677363Y-67772739D01*
X124643467Y-67772245D01*
X124640282Y-67772310D01*
X124640282Y-68532248D01*
X124715333Y-68541541D01*
X124779160Y-68569728D01*
X124834798Y-68618197D01*
X124839211Y-68623254D01*
X124874037Y-68671548D01*
X124896620Y-68723257D01*
X124908540Y-68783989D01*
X124911383Y-68859352D01*
X124910978Y-68877459D01*
X124908325Y-68931278D01*
X124902909Y-68971308D01*
X124892745Y-69006324D01*
X124875850Y-69045103D01*
X124870672Y-69055745D01*
X124834844Y-69116396D01*
X124792212Y-69163215D01*
X124776973Y-69175952D01*
X124720462Y-69220622D01*
X124524586Y-69220622D01*
X124445939Y-69220086D01*
X124387988Y-69218396D01*
X124348875Y-69215428D01*
X124326741Y-69211057D01*
X124320274Y-69206972D01*
X124317111Y-69191047D01*
X124314488Y-69157264D01*
X124312655Y-69110340D01*
X124311857Y-69054993D01*
X124311842Y-69046106D01*
X124317096Y-68925330D01*
X124333263Y-68822660D01*
X124360961Y-68736106D01*
X124400808Y-68663681D01*
X124447758Y-68608751D01*
X124505645Y-68564204D01*
X124568693Y-68539480D01*
X124640282Y-68532248D01*
X124640282Y-67772310D01*
X124549712Y-67774178D01*
X124470812Y-67782522D01*
X124399590Y-67798768D01*
X124328864Y-67824405D01*
X124276493Y-67848401D01*
X124181196Y-67907020D01*
X124093170Y-67985117D01*
X124014017Y-68080315D01*
X123945340Y-68190238D01*
X123888741Y-68312510D01*
X123845821Y-68444755D01*
X123830882Y-68509422D01*
X123808777Y-68645604D01*
X123794194Y-68794049D01*
X123787813Y-68945505D01*
X123789445Y-69072064D01*
X123796224Y-69233950D01*
X123737245Y-69226530D01*
X123638092Y-69207238D01*
X123557372Y-69176104D01*
X123494466Y-69132269D01*
X123448756Y-69074871D01*
X123419622Y-69003048D01*
X123406447Y-68915941D01*
X123408611Y-68812686D01*
X123412612Y-68774711D01*
X123437780Y-68633520D01*
X123478814Y-68496707D01*
X123516815Y-68402178D01*
X123536190Y-68357018D01*
X123551760Y-68318585D01*
X123561405Y-68292234D01*
X123563452Y-68284546D01*
X123554374Y-68274802D01*
X123525405Y-68258083D01*
X123476217Y-68234232D01*
X123406484Y-68203093D01*
X123315879Y-68164507D01*
X123300089Y-68157910D01*
X123227772Y-68127853D01*
X123162425Y-68100874D01*
X123106906Y-68078136D01*
X123064072Y-68060806D01*
X123036781Y-68050048D01*
X123027942Y-68046941D01*
X123023187Y-68056940D01*
X123017910Y-68083217D01*
X123014231Y-68111489D01*
X123009474Y-68141646D01*
X123000028Y-68189433D01*
X122986820Y-68250612D01*
X122970776Y-68320946D01*
X122952820Y-68396194D01*
X122945797Y-68424755D01*
X122920209Y-68529816D01*
X122900147Y-68617480D01*
X122884969Y-68692068D01*
X122874035Y-68757903D01*
X122866704Y-68819307D01*
X122862335Y-68880602D01*
X122860287Y-68946110D01*
X122859889Y-69004128D01*
X122866552Y-69173574D01*
G36*
X123472245Y-72686507D02*
X123706662Y-72686526D01*
X123919603Y-72686552D01*
X124112168Y-72686625D01*
X124285459Y-72686782D01*
X124440576Y-72687064D01*
X124578620Y-72687509D01*
X124700692Y-72688156D01*
X124807894Y-72689045D01*
X124901326Y-72690213D01*
X124982090Y-72691701D01*
X125051286Y-72693546D01*
X125110015Y-72695789D01*
X125159379Y-72698469D01*
X125200478Y-72701623D01*
X125234413Y-72705292D01*
X125262286Y-72709513D01*
X125285198Y-72714327D01*
X125304249Y-72719773D01*
X125320540Y-72725888D01*
X125335173Y-72732712D01*
X125349249Y-72740285D01*
X125363868Y-72748645D01*
X125372974Y-72753839D01*
X125433689Y-72788104D01*
X125433689Y-71929955D01*
X125337733Y-71929955D01*
X125294370Y-71929224D01*
X125261205Y-71927272D01*
X125243424Y-71924463D01*
X125241778Y-71923221D01*
X125248662Y-71911799D01*
X125266505Y-71889084D01*
X125285879Y-71866385D01*
X125326614Y-71811800D01*
X125367617Y-71742321D01*
X125405123Y-71665270D01*
X125435364Y-71587965D01*
X125445012Y-71557113D01*
X125459578Y-71488616D01*
X125469539Y-71405764D01*
X125474583Y-71316371D01*
X125474396Y-71228248D01*
X125468666Y-71149207D01*
X125462858Y-71111511D01*
X125424797Y-70973414D01*
X125367073Y-70846113D01*
X125290211Y-70730292D01*
X125194739Y-70626637D01*
X125081179Y-70535833D01*
X124970381Y-70469031D01*
X124853625Y-70414164D01*
X124734276Y-70372163D01*
X124608283Y-70342167D01*
X124471594Y-70323311D01*
X124320158Y-70314732D01*
X124242711Y-70314006D01*
X124185934Y-70316100D01*
X124185934Y-71145217D01*
X124279002Y-71145424D01*
X124366692Y-71148337D01*
X124443772Y-71154000D01*
X124505009Y-71162455D01*
X124517350Y-71165038D01*
X124624633Y-71196840D01*
X124711658Y-71238498D01*
X124778642Y-71290363D01*
X124825805Y-71352781D01*
X124853365Y-71426100D01*
X124861541Y-71510669D01*
X124850551Y-71606835D01*
X124834829Y-71670311D01*
X124816639Y-71719454D01*
X124790791Y-71773583D01*
X124767089Y-71814244D01*
X124720721Y-71884800D01*
X123570530Y-71884800D01*
X123526962Y-71817392D01*
X123486040Y-71738867D01*
X123459389Y-71654681D01*
X123447465Y-71569557D01*
X123450722Y-71488216D01*
X123469615Y-71415380D01*
X123485184Y-71383426D01*
X123528181Y-71325501D01*
X123584953Y-71276544D01*
X123657575Y-71235390D01*
X123748121Y-71200874D01*
X123858666Y-71171833D01*
X123864533Y-71170552D01*
X123926788Y-71160381D01*
X124004594Y-71152739D01*
X124092720Y-71147670D01*
X124185934Y-71145217D01*
X124185934Y-70316100D01*
X124029895Y-70321857D01*
X123834059Y-70343802D01*
X123655332Y-70379786D01*
X123493845Y-70429759D01*
X123349726Y-70493668D01*
X123223106Y-70571462D01*
X123114115Y-70663089D01*
X123022883Y-70768497D01*
X122991932Y-70813662D01*
X122935785Y-70914611D01*
X122896174Y-71017901D01*
X122872014Y-71127989D01*
X122862219Y-71249330D01*
X122863265Y-71341836D01*
X122874231Y-71471490D01*
X122896046Y-71584084D01*
X122929714Y-71682875D01*
X122976236Y-71771121D01*
X123010448Y-71819986D01*
X123032362Y-71849353D01*
X123047333Y-71871043D01*
X123051733Y-71879253D01*
X123040904Y-71880868D01*
X123010251Y-71882159D01*
X122962526Y-71883138D01*
X122900479Y-71883817D01*
X122826862Y-71884210D01*
X122744427Y-71884330D01*
X122655925Y-71884188D01*
X122564107Y-71883797D01*
X122471724Y-71883171D01*
X122381528Y-71882320D01*
X122296271Y-71881260D01*
X122218703Y-71880001D01*
X122151576Y-71878556D01*
X122097641Y-71876938D01*
X122059650Y-71875161D01*
X122052667Y-71874669D01*
X121982251Y-71867092D01*
X121927102Y-71855531D01*
X121879981Y-71837792D01*
X121833647Y-71811682D01*
X121824067Y-71805415D01*
X121787378Y-71780983D01*
X121787378Y-72686311D01*
X123472245Y-72686507D01*
X123472245Y-72686507D01*
G37*
X123472245Y-72686507D02*
X123706662Y-72686526D01*
X123919603Y-72686552D01*
X124112168Y-72686625D01*
X124285459Y-72686782D01*
X124440576Y-72687064D01*
X124578620Y-72687509D01*
X124700692Y-72688156D01*
X124807894Y-72689045D01*
X124901326Y-72690213D01*
X124982090Y-72691701D01*
X125051286Y-72693546D01*
X125110015Y-72695789D01*
X125159379Y-72698469D01*
X125200478Y-72701623D01*
X125234413Y-72705292D01*
X125262286Y-72709513D01*
X125285198Y-72714327D01*
X125304249Y-72719773D01*
X125320540Y-72725888D01*
X125335173Y-72732712D01*
X125349249Y-72740285D01*
X125363868Y-72748645D01*
X125372974Y-72753839D01*
X125433689Y-72788104D01*
X125433689Y-71929955D01*
X125337733Y-71929955D01*
X125294370Y-71929224D01*
X125261205Y-71927272D01*
X125243424Y-71924463D01*
X125241778Y-71923221D01*
X125248662Y-71911799D01*
X125266505Y-71889084D01*
X125285879Y-71866385D01*
X125326614Y-71811800D01*
X125367617Y-71742321D01*
X125405123Y-71665270D01*
X125435364Y-71587965D01*
X125445012Y-71557113D01*
X125459578Y-71488616D01*
X125469539Y-71405764D01*
X125474583Y-71316371D01*
X125474396Y-71228248D01*
X125468666Y-71149207D01*
X125462858Y-71111511D01*
X125424797Y-70973414D01*
X125367073Y-70846113D01*
X125290211Y-70730292D01*
X125194739Y-70626637D01*
X125081179Y-70535833D01*
X124970381Y-70469031D01*
X124853625Y-70414164D01*
X124734276Y-70372163D01*
X124608283Y-70342167D01*
X124471594Y-70323311D01*
X124320158Y-70314732D01*
X124242711Y-70314006D01*
X124185934Y-70316100D01*
X124185934Y-71145217D01*
X124279002Y-71145424D01*
X124366692Y-71148337D01*
X124443772Y-71154000D01*
X124505009Y-71162455D01*
X124517350Y-71165038D01*
X124624633Y-71196840D01*
X124711658Y-71238498D01*
X124778642Y-71290363D01*
X124825805Y-71352781D01*
X124853365Y-71426100D01*
X124861541Y-71510669D01*
X124850551Y-71606835D01*
X124834829Y-71670311D01*
X124816639Y-71719454D01*
X124790791Y-71773583D01*
X124767089Y-71814244D01*
X124720721Y-71884800D01*
X123570530Y-71884800D01*
X123526962Y-71817392D01*
X123486040Y-71738867D01*
X123459389Y-71654681D01*
X123447465Y-71569557D01*
X123450722Y-71488216D01*
X123469615Y-71415380D01*
X123485184Y-71383426D01*
X123528181Y-71325501D01*
X123584953Y-71276544D01*
X123657575Y-71235390D01*
X123748121Y-71200874D01*
X123858666Y-71171833D01*
X123864533Y-71170552D01*
X123926788Y-71160381D01*
X124004594Y-71152739D01*
X124092720Y-71147670D01*
X124185934Y-71145217D01*
X124185934Y-70316100D01*
X124029895Y-70321857D01*
X123834059Y-70343802D01*
X123655332Y-70379786D01*
X123493845Y-70429759D01*
X123349726Y-70493668D01*
X123223106Y-70571462D01*
X123114115Y-70663089D01*
X123022883Y-70768497D01*
X122991932Y-70813662D01*
X122935785Y-70914611D01*
X122896174Y-71017901D01*
X122872014Y-71127989D01*
X122862219Y-71249330D01*
X122863265Y-71341836D01*
X122874231Y-71471490D01*
X122896046Y-71584084D01*
X122929714Y-71682875D01*
X122976236Y-71771121D01*
X123010448Y-71819986D01*
X123032362Y-71849353D01*
X123047333Y-71871043D01*
X123051733Y-71879253D01*
X123040904Y-71880868D01*
X123010251Y-71882159D01*
X122962526Y-71883138D01*
X122900479Y-71883817D01*
X122826862Y-71884210D01*
X122744427Y-71884330D01*
X122655925Y-71884188D01*
X122564107Y-71883797D01*
X122471724Y-71883171D01*
X122381528Y-71882320D01*
X122296271Y-71881260D01*
X122218703Y-71880001D01*
X122151576Y-71878556D01*
X122097641Y-71876938D01*
X122059650Y-71875161D01*
X122052667Y-71874669D01*
X121982251Y-71867092D01*
X121927102Y-71855531D01*
X121879981Y-71837792D01*
X121833647Y-71811682D01*
X121824067Y-71805415D01*
X121787378Y-71780983D01*
X121787378Y-72686311D01*
X123472245Y-72686507D01*
G36*
X121026571Y-64226957D02*
X121050809Y-64323232D01*
X121093641Y-64409816D01*
X121153419Y-64484627D01*
X121228494Y-64545582D01*
X121317220Y-64590601D01*
X121413530Y-64616864D01*
X121510795Y-64622714D01*
X121604654Y-64607860D01*
X121692511Y-64574160D01*
X121771770Y-64523472D01*
X121839836Y-64457655D01*
X121894112Y-64378566D01*
X121932002Y-64288066D01*
X121944426Y-64236800D01*
X121951947Y-64192302D01*
X121954919Y-64158001D01*
X121953094Y-64125040D01*
X121946225Y-64084566D01*
X121939250Y-64051469D01*
X121907741Y-63958053D01*
X121856617Y-63874381D01*
X121787429Y-63802335D01*
X121701728Y-63743800D01*
X121674489Y-63729852D01*
X121638122Y-63713414D01*
X121607582Y-63703106D01*
X121575450Y-63697540D01*
X121534307Y-63695331D01*
X121488222Y-63695052D01*
X121403865Y-63699139D01*
X121334586Y-63712554D01*
X121273961Y-63737744D01*
X121215567Y-63777154D01*
X121171302Y-63815702D01*
X121105484Y-63887594D01*
X121060053Y-63962687D01*
X121032850Y-64045438D01*
X121022576Y-64123072D01*
X121026571Y-64226957D01*
X121026571Y-64226957D01*
G37*
X121026571Y-64226957D02*
X121050809Y-64323232D01*
X121093641Y-64409816D01*
X121153419Y-64484627D01*
X121228494Y-64545582D01*
X121317220Y-64590601D01*
X121413530Y-64616864D01*
X121510795Y-64622714D01*
X121604654Y-64607860D01*
X121692511Y-64574160D01*
X121771770Y-64523472D01*
X121839836Y-64457655D01*
X121894112Y-64378566D01*
X121932002Y-64288066D01*
X121944426Y-64236800D01*
X121951947Y-64192302D01*
X121954919Y-64158001D01*
X121953094Y-64125040D01*
X121946225Y-64084566D01*
X121939250Y-64051469D01*
X121907741Y-63958053D01*
X121856617Y-63874381D01*
X121787429Y-63802335D01*
X121701728Y-63743800D01*
X121674489Y-63729852D01*
X121638122Y-63713414D01*
X121607582Y-63703106D01*
X121575450Y-63697540D01*
X121534307Y-63695331D01*
X121488222Y-63695052D01*
X121403865Y-63699139D01*
X121334586Y-63712554D01*
X121273961Y-63737744D01*
X121215567Y-63777154D01*
X121171302Y-63815702D01*
X121105484Y-63887594D01*
X121060053Y-63962687D01*
X121032850Y-64045438D01*
X121022576Y-64123072D01*
X121026571Y-64226957D01*
D15*
X122457143Y-97561429D02*
X122457143Y-98047143D01*
X122428571Y-98104286D01*
X122400000Y-98132857D01*
X122342857Y-98161429D01*
X122228571Y-98161429D01*
X122171429Y-98132857D01*
X122142857Y-98104286D01*
X122114286Y-98047143D01*
X122114286Y-97561429D01*
X121542858Y-97561429D02*
X121828572Y-97561429D01*
X121857143Y-97847143D01*
X121828572Y-97818571D01*
X121771429Y-97790000D01*
X121628572Y-97790000D01*
X121571429Y-97818571D01*
X121542858Y-97847143D01*
X121514286Y-97904286D01*
X121514286Y-98047143D01*
X121542858Y-98104286D01*
X121571429Y-98132857D01*
X121628572Y-98161429D01*
X121771429Y-98161429D01*
X121828572Y-98132857D01*
X121857143Y-98104286D01*
X68978571Y-78214286D02*
X69007142Y-78242857D01*
X69092856Y-78271429D01*
X69149999Y-78271429D01*
X69235714Y-78242857D01*
X69292856Y-78185714D01*
X69321428Y-78128571D01*
X69349999Y-78014286D01*
X69349999Y-77928571D01*
X69321428Y-77814286D01*
X69292856Y-77757143D01*
X69235714Y-77700000D01*
X69149999Y-77671429D01*
X69092856Y-77671429D01*
X69007142Y-77700000D01*
X68978571Y-77728571D01*
X68607142Y-77671429D02*
X68492856Y-77671429D01*
X68435714Y-77700000D01*
X68378571Y-77757143D01*
X68349999Y-77871429D01*
X68349999Y-78071429D01*
X68378571Y-78185714D01*
X68435714Y-78242857D01*
X68492856Y-78271429D01*
X68607142Y-78271429D01*
X68664285Y-78242857D01*
X68721428Y-78185714D01*
X68749999Y-78071429D01*
X68749999Y-77871429D01*
X68721428Y-77757143D01*
X68664285Y-77700000D01*
X68607142Y-77671429D01*
X68092857Y-78271429D02*
X68092857Y-77671429D01*
X67750000Y-78271429D01*
X67750000Y-77671429D01*
X67521429Y-77671429D02*
X67150000Y-77671429D01*
X67350000Y-77900000D01*
X67264286Y-77900000D01*
X67207143Y-77928571D01*
X67178572Y-77957143D01*
X67150000Y-78014286D01*
X67150000Y-78157143D01*
X67178572Y-78214286D01*
X67207143Y-78242857D01*
X67264286Y-78271429D01*
X67435714Y-78271429D01*
X67492857Y-78242857D01*
X67521429Y-78214286D01*
X127414286Y-51971429D02*
X127442857Y-51942858D01*
X127471429Y-51857144D01*
X127471429Y-51800001D01*
X127442857Y-51714286D01*
X127385714Y-51657144D01*
X127328571Y-51628572D01*
X127214286Y-51600001D01*
X127128571Y-51600001D01*
X127014286Y-51628572D01*
X126957143Y-51657144D01*
X126900000Y-51714286D01*
X126871429Y-51800001D01*
X126871429Y-51857144D01*
X126900000Y-51942858D01*
X126928571Y-51971429D01*
X126871429Y-52342858D02*
X126871429Y-52457144D01*
X126900000Y-52514286D01*
X126957143Y-52571429D01*
X127071429Y-52600001D01*
X127271429Y-52600001D01*
X127385714Y-52571429D01*
X127442857Y-52514286D01*
X127471429Y-52457144D01*
X127471429Y-52342858D01*
X127442857Y-52285715D01*
X127385714Y-52228572D01*
X127271429Y-52200001D01*
X127071429Y-52200001D01*
X126957143Y-52228572D01*
X126900000Y-52285715D01*
X126871429Y-52342858D01*
X127471429Y-52857143D02*
X126871429Y-52857143D01*
X127471429Y-53200000D01*
X126871429Y-53200000D01*
X126871429Y-53771428D02*
X126871429Y-53485714D01*
X127157143Y-53457143D01*
X127128571Y-53485714D01*
X127100000Y-53542857D01*
X127100000Y-53685714D01*
X127128571Y-53742857D01*
X127157143Y-53771428D01*
X127214286Y-53800000D01*
X127357143Y-53800000D01*
X127414286Y-53771428D01*
X127442857Y-53742857D01*
X127471429Y-53685714D01*
X127471429Y-53542857D01*
X127442857Y-53485714D01*
X127414286Y-53457143D01*
X72257143Y-52051429D02*
X72257143Y-52537143D01*
X72228571Y-52594286D01*
X72200000Y-52622857D01*
X72142857Y-52651429D01*
X72028571Y-52651429D01*
X71971429Y-52622857D01*
X71942857Y-52594286D01*
X71914286Y-52537143D01*
X71914286Y-52051429D01*
X71314286Y-52651429D02*
X71657143Y-52651429D01*
X71485715Y-52651429D02*
X71485715Y-52051429D01*
X71542858Y-52137143D01*
X71600000Y-52194286D01*
X71657143Y-52222857D01*
M02*
