M48
;DRILL file {KiCad 4.0.7} date 05/23/18 21:21:24
;FORMAT={3:3/ absolute / metric / suppress leading zeros}
FMAT,2
METRIC,TZ
T1C0.300
T2C0.500
T3C0.600
T4C0.700
T5C0.850
T6C0.900
T7C1.000
%
G90
G05
M71
T1
X73000Y-59900
X77000Y-59800
X83000Y-63550
X83000Y-64450
X83000Y-65400
X83169Y-83531
X83250Y-82500
X83300Y-84600
X84600Y-73600
X84900Y-56000
X87840Y-73500
X88300Y-65500
X88550Y-64302
X88900Y-69300
X88950Y-63404
X89100Y-84200
X89200Y-78100
X89200Y-85200
X89350Y-83100
X89900Y-92400
X90400Y-64400
X90500Y-87500
X92083Y-69217
X92700Y-85300
X94000Y-85000
X95700Y-75300
X95700Y-77400
X96400Y-92500
X98100Y-72400
X98400Y-85100
X98700Y-61700
X98700Y-59800
X98700Y-76580
X99994Y-76940
X100000Y-79200
X100400Y-86700
X102700Y-80600
X102900Y-92500
X103300Y-71200
X105301Y-73782
X105500Y-71250
X106100Y-72700
X106300Y-80500
X109500Y-66500
X109500Y-79400
X109500Y-89100
X110250Y-68550
X110700Y-56800
X110800Y-81100
X110900Y-71400
X110900Y-72800
X110910Y-70310
X111900Y-71700
X112000Y-58300
X112900Y-80300
X113300Y-71200
X113600Y-50400
X114000Y-54800
X114000Y-56600
X115200Y-98500
X116700Y-90700
X117000Y-63700
X117000Y-64700
X117000Y-65700
X117000Y-82100
X117000Y-83000
X117000Y-83900
X117500Y-74200
X118100Y-91600
X120300Y-47800
X120800Y-98400
X121300Y-56200
X121300Y-57200
X121300Y-90900
X121358Y-60942
X121500Y-70600
X121700Y-77200
X122200Y-84400
X122490Y-65890
X122800Y-64600
X122900Y-83400
X123200Y-82300
X123300Y-63700
X124200Y-56400
X124700Y-59500
X124908Y-79862
X125000Y-57000
X125700Y-74200
X126600Y-77200
X126910Y-59500
X127600Y-74200
T2
X70600Y-70400
X70600Y-73200
X78300Y-70600
X89750Y-55400
X91500Y-88500
X94000Y-88500
X98000Y-88500
X100500Y-88500
X104500Y-88500
X107000Y-88500
X128700Y-48400
X128700Y-49650
X128700Y-50900
X128700Y-52150
X128700Y-53400
X128700Y-54650
X128700Y-55900
X128700Y-57150
T4
X124365Y-86460
X124365Y-87730
X124365Y-89000
X124365Y-90270
X124365Y-91540
X125635Y-86460
X125635Y-87730
X125635Y-89000
X125635Y-90270
X125635Y-91540
T5
X73500Y-89250
X78500Y-89250
T6
X81095Y-50000
X81095Y-59500
X81095Y-69000
X81095Y-78500
X81095Y-88000
X82365Y-50000
X82365Y-59500
X82365Y-69000
X82365Y-78500
X82365Y-88000
X83635Y-50000
X83635Y-59500
X83635Y-69000
X83635Y-78500
X83635Y-88000
X84905Y-50000
X84905Y-59500
X84905Y-69000
X84905Y-78500
X84905Y-88000
X115095Y-50000
X115095Y-59500
X115095Y-69000
X115095Y-78500
X115095Y-88000
X116365Y-50000
X116365Y-59500
X116365Y-69000
X116365Y-78500
X116365Y-88000
X117635Y-50000
X117635Y-59500
X117635Y-69000
X117635Y-78500
X117635Y-88000
X118905Y-50000
X118905Y-59500
X118905Y-69000
X118905Y-78500
X118905Y-88000
X127500Y-62000
X127500Y-64500
X127500Y-67000
X127500Y-69500
X127500Y-72000
T7
X72585Y-73150
X75125Y-73150
X77665Y-73150
X85000Y-95500
X92255Y-83100
X94795Y-83100
X97335Y-83100
X99875Y-83100
X102415Y-83100
X104955Y-83100
X107495Y-83100
X113490Y-45000
X114190Y-92900
X116030Y-45000
X116730Y-92900
X118570Y-45000
X119270Y-92900
X121110Y-45000
X121810Y-92900
X123650Y-45000
X126190Y-45000
X128730Y-45000
X129000Y-96000
T3
X72500Y-92300G85X72500Y-91600
G05
X79500Y-91600G85X79500Y-92300
G05
T7
X71150Y-83700G85X71150Y-81700
G05
X74850Y-79700G85X76850Y-79700
G05
X74850Y-85700G85X76850Y-85700
G05
T0
M30
